M48
;Layer_Color=9474304
;FILE_FORMAT=2:4
METRIC,LZ
;TYPE=PLATED
T1F00S00C0.2000
%
T01
X016Y016
X024
X032
X04
X048
X056
X064
X072
X08
X088
X096
X104
X112
X12
X128
X136
X144
X152
X16
X168
Y024
Y032
Y04
Y048
Y056
X176
Y064
X168
Y072
X16
Y08
Y064
Y056
Y048
Y04
Y032
Y024
X152
Y008
X16
X168
X144
X136
X128
X12
X112
X104
X096
X088
X08
X072
X064
X056
X048
X04
X032
Y024
X04
X048
X056
X064
X072
X08
X088
X096
X104
X112
X12
X128
X12Y032
Y04
Y048
X128
X12Y056
Y064
Y072
X112
Y08
Y088
Y096
Y104
Y112
Y12
Y128
Y136
X12
Y144
X128
X112
X104
Y136
Y128
Y12
Y112
Y104
Y096
Y088
Y08
Y072
Y064
X112
Y056
Y048
Y04
Y032
X104
Y04
Y048
Y056
X096
Y064
Y072
Y08
Y088
Y096
Y104
Y112
Y12
Y128
Y136
Y144
X088
Y136
Y128
Y12
Y112
Y104
Y096
Y088
Y08
Y072
Y064
Y056
Y048
X096
Y04
Y032
X088
Y04
X08Y048
Y056
Y064
Y072
Y08
Y088
Y096
X072
Y088
Y08
Y072
Y064
Y056
X064
Y064
Y072
Y08
Y088
Y096
X056
Y104
Y112
Y12
Y128
X064
X072
X08
Y136
Y144
X072
Y136
X064
Y144
X056
Y136
X048
Y144
X04
Y136
Y128
X048
Y12
Y112
Y104
Y096
Y088
X056
Y08
Y072
Y064
Y056
Y048
Y04
Y032
X048
Y04
Y048
Y056
Y064
Y072
Y08
X04
Y088
Y096
Y104
Y112
Y12
X032
Y128
Y136
Y144
X024
Y136
Y128
Y12
Y112
X032
Y104
Y096
Y088
Y08
Y072
X04
Y064
Y056
Y048
Y04
Y032
X032
Y04
Y048
Y056
Y064
X024
Y072
Y08
Y088
Y096
Y104
X016
Y112
Y12
Y128
Y136
X008Y128
Y12
Y112
Y104
Y096
X016
Y088
Y08
Y072
Y064
Y056
X024
Y048
Y04
Y032
Y024
X016
Y032
Y04
Y048
X008
Y056
Y064
Y072
Y08
Y088
X0
Y096
Y104
Y112
Y12
X-008Y112
Y104
Y096
Y088
Y08
X0
Y072
Y064
Y056
Y048
Y04
X008
Y032
Y024
X0Y032
X-008Y04
Y048
Y056
Y064
Y072
X-016
Y08
Y088
Y096
Y064
Y056
X152Y048
Y072
Y128
X16
X168
X176
X184
X192
X2
X208
X216
X224
Y136
X216
X208
X2
X192
X184
X176
X168
X16
X152
X144
Y128
X136
X192Y12
X2
X208
X216
X224
X232
X24
Y112
X248
Y104
X256
Y096
X264
X248
X24
Y104
X232
Y112
X224
Y104
Y096
X232
X216
Y104
Y112
X208
Y104
X2Y112
X295Y105
X305
X315
Y115
Y125
Y135
X392001Y136
Y128
Y12
X395Y07
Y065
X385
Y07
X392001Y032
Y024
Y016
Y008
X312
Y016
Y024
Y032
Y04
X304
Y032
Y024
Y016
Y008
X296
Y016
Y024
Y032
Y04
X288Y016
Y008
X28
Y016
X272
Y008
X264
Y016
X256
Y008
X248
Y016
Y024
Y032
Y04
X24Y032
Y024
Y016
Y008
X232
Y016
Y024
X224Y016
Y008
X216
X4
X408
X416001
X408Y016
X4
Y024
X405Y065
Y07
X4Y128
Y136
X408
X448Y104
X640001Y136
X696001
X704001
Y128
X712001
Y12
X720001Y112
Y104
Y096
Y088
Y08
Y072
X760001Y088
X728001Y144
X720001
X648001Y008
X640001
Y016
X632001Y008
X952001
X960001
X968001
X976001
X984001
X992001
X1000001
X1008001
X1016001
X1024001
X1032001
X1040001
X1048001
X1056001
X1064001
X1072001
X1080001
X1088001
X1096001
X1104001
X1112001
X1120001
X1128001
X1136001
X1144001
X1152001
X1160001
X1168001
X1176001
X1184001
Y016
Y024
Y032
Y04
Y048
Y056
Y064
Y072
Y08
Y088
Y096
Y104
Y112
Y12
Y128
Y136
Y144
X1176001
Y136
Y128
Y12
Y112
Y104
Y096
Y088
Y08
Y072
Y064
Y056
Y048
Y04
Y032
Y024
Y016
X1168001
Y024
Y032
Y04
Y048
Y056
Y064
Y072
Y08
Y088
Y096
Y104
Y112
Y12
Y128
Y136
Y144
X1160001
Y136
Y128
Y12
Y112
Y104
Y096
Y088
Y08
Y072
Y064
Y056
Y048
Y04
Y032
Y024
Y016
X1152001
Y024
Y032
Y04
Y048
Y056
Y064
Y072
Y08
Y088
Y096
Y104
Y112
Y12
Y128
Y136
Y144
X1144001
Y136
Y128
Y12
Y112
Y104
Y096
Y088
Y08
Y072
Y064
Y056
Y048
Y04
Y032
Y024
Y016
X1136001
Y024
Y032
Y04
Y048
Y056
Y064
Y072
Y08
Y088
Y096
Y104
Y112
Y12
Y128
Y136
Y144
X1128001
Y136
Y128
Y12
Y112
Y104
Y096
Y088
Y08
Y072
Y064
Y056
Y048
Y04
Y032
Y024
Y016
X1120001
Y024
Y032
Y04
Y048
Y056
Y064
Y072
Y08
Y088
Y096
Y104
Y112
Y12
Y128
Y136
Y144
X1112001
Y136
Y128
Y12
Y112
Y104
Y096
Y088
Y08
Y072
Y064
Y056
Y048
Y04
Y032
Y024
Y016
X1104001
Y024
Y032
Y04
Y048
Y056
Y064
Y072
Y08
Y088
Y096
Y104
Y112
Y12
Y128
Y136
Y144
X1096001
Y136
Y128
Y12
Y112
Y104
Y096
Y088
Y08
Y072
Y064
Y056
Y048
Y04
Y032
Y024
Y016
X1088001
Y024
Y032
Y04
Y048
Y056
Y064
Y072
Y08
Y088
Y096
Y104
Y112
Y12
Y128
Y136
Y144
X1080001
Y136
Y128
Y12
Y112
Y104
Y096
Y088
Y08
Y072
Y064
Y056
Y048
Y04
Y032
Y024
Y016
X1072001
Y024
Y032
Y04
Y048
Y056
Y064
Y072
Y08
Y088
Y096
Y104
Y112
Y12
Y128
Y136
Y144
X1064001
Y136
Y128
Y12
Y112
Y104
Y096
Y088
Y08
Y072
Y064
Y056
Y048
Y04
Y032
Y024
Y016
X1056001
Y024
Y032
Y04
Y048
Y056
Y064
Y072
Y08
Y088
Y096
Y104
Y112
Y12
Y128
Y136
Y144
X1048001
Y136
Y128
Y12
Y112
Y104
Y096
Y088
Y08
Y072
Y064
Y056
Y048
Y04
Y032
Y024
Y016
X1040001
Y024
Y032
Y04
Y048
Y056
Y064
Y072
Y08
Y088
Y096
Y104
Y112
Y12
Y128
Y136
Y144
X1032001
Y136
Y128
Y12
Y112
Y104
Y096
Y088
Y08
Y072
Y064
Y056
Y048
Y04
Y032
Y024
Y016
X1024001
Y024
Y032
Y04
Y048
Y056
Y064
Y072
Y08
Y088
Y096
Y104
Y112
Y12
Y128
Y136
Y144
X1016001
Y136
Y128
Y12
Y112
Y104
Y096
Y088
Y08
Y072
Y064
Y056
Y048
Y04
Y032
Y024
Y016
X1008001
Y024
Y032
Y04
Y048
Y056
Y064
Y072
Y08
Y088
Y096
Y104
Y112
Y12
Y128
Y136
Y144
X1000001
Y136
Y128
Y12
Y112
Y104
Y096
Y088
Y08
Y072
Y064
Y056
Y048
Y04
Y032
Y024
Y016
X992001
Y024
Y032
Y04
Y048
Y056
Y064
Y072
Y08
Y088
Y096
Y104
Y112
Y12
Y128
Y136
Y144
X984001
Y136
Y128
Y12
Y112
Y104
Y096
Y088
Y08
Y072
Y064
Y056
Y048
Y04
Y032
Y024
Y016
X976001
Y024
Y032
Y04
Y048
Y056
Y064
Y072
Y08
Y088
Y096
Y104
Y112
Y12
Y128
Y136
Y144
X968001
Y136
Y128
Y12
Y112
Y104
Y096
Y088
Y08
Y072
Y064
Y056
Y048
Y04
Y032
Y024
Y016
X960001
Y024
Y032
Y04
Y048
Y056
Y064
Y072
Y08
Y088
Y096
Y104
Y112
Y12
Y128
Y136
Y144
X952001
X944001
X936001
X928001
X920001
Y136
Y128
Y12
Y112
Y104
Y096
X928001
X936001
X944001
X952001
Y104
X912001
Y112
Y12
Y128
Y136
Y144
Y096
X904001
X1192001
X1200001
X1208001
X1216001
X1224001
X1232001
X1240002
X1248001
X1256002
X1264001
X1272001
X1280002
X1288002
X1296001
X1304001
X1312001
X1320002
X1328002
X1336002
X1344002
X1352002
X1360002
X1368002
X1376002
X1384002
X1392002
X1400002
X1408002
X1416002
X1424002
X1432002
X1440002
X1448002
X1456002
X1464002
X1472002
X1480002
X1488002
X1496002
X1504002
X1512002
X1520002
X1528002
X1536002
X1544002
X1552002
X1560002
X1568002
X1576002
X1584002
Y104
Y112
Y12
Y128
Y136
X1576002
Y144
X1568002
Y136
Y128
X1576002
Y12
Y112
Y104
X1568002
Y112
Y12
X1560002
Y128
Y136
Y144
X1552002
Y136
Y128
Y12
Y112
X1560002
Y104
X1552002
X1544002
Y112
Y12
Y128
Y136
Y144
X1536002
Y136
Y128
Y12
Y112
Y104
X1528002
Y112
Y12
Y128
Y136
Y144
X1520002
Y136
Y128
Y12
Y112
Y104
X1512002
Y112
Y12
Y128
Y136
Y144
X1504002
Y136
Y128
Y12
Y112
Y104
X1496002
Y112
Y12
Y128
Y136
Y144
X1488002
Y136
Y128
Y12
Y112
Y104
X1480002
Y112
Y12
Y128
Y136
Y144
X1472002
Y136
Y128
Y12
Y112
Y104
X1464002
Y112
Y12
Y128
Y136
Y144
X1456002
Y136
Y128
Y12
Y112
Y104
X1448002
Y112
Y12
Y128
Y136
Y144
X1440002
Y136
Y128
Y12
Y112
Y104
X1432002
Y112
Y12
Y128
Y136
Y144
X1424002
Y136
Y128
Y12
Y112
Y104
X1416002
Y112
Y12
Y128
Y136
Y144
X1408002
Y136
Y128
Y12
Y112
Y104
X1400002
Y112
Y12
Y128
Y136
Y144
X1392002
Y136
Y128
Y12
Y112
Y104
X1384002
Y112
Y12
Y128
Y136
Y144
X1376002
Y136
Y128
Y12
Y112
Y104
X1368002
Y112
Y12
Y128
Y136
Y144
X1360002
Y136
Y128
Y12
Y112
Y104
X1352002
Y112
Y12
Y128
Y136
Y144
X1344002
Y136
Y128
Y12
Y112
Y104
X1336002
Y112
Y12
Y128
Y136
Y144
X1328002
Y136
Y128
Y12
Y112
Y104
X1320002
Y112
Y12
Y128
Y136
Y144
X1312001
Y136
Y128
Y12
Y112
Y104
X1304001
Y112
Y12
Y128
Y136
Y144
X1296001
Y136
Y128
Y12
Y112
Y104
X1288002
Y112
Y12
Y128
Y136
Y144
X1280002
Y136
Y128
Y12
Y112
Y104
X1272001
Y112
Y12
Y128
Y136
Y144
X1264001
Y136
Y128
Y12
Y112
Y104
X1256002
Y112
Y12
Y128
Y136
Y144
X1248001
Y136
Y128
Y12
Y112
Y104
X1240002
Y112
Y12
Y128
Y136
Y144
X1232001
Y136
Y128
Y12
Y112
Y104
X1224001
Y112
Y12
Y128
Y136
Y144
X1216001
Y136
Y128
Y12
Y112
Y104
X1208001
Y112
Y12
Y128
Y136
Y144
X1200001
Y136
Y128
Y12
Y112
Y104
X1192001
Y112
Y12
Y128
Y136
Y144
Y088
X1200001
X1208001
X1216001
X1224001
X1232001
X1240002
X1248001
X1256002
X1264001
X1272001
X1280002
X1288002
X1296001
X1304001
X1312001
X1320002
X1328002
X1336002
X1344002
X1352002
X1360002
X1368002
X1376002
X1384002
X1392002
X1400002
X1408002
X1416002
X1424002
X1432002
X1440002
X1448002
X1456002
X1464002
X1472002
X1480002
X1488002
X1496002
X1504002
X1512002
X1520002
X1528002
X1536002
X1544002
X1552002
X1560002
X1568002
X1576002
X1584002
Y08
Y072
Y064
Y056
Y048
Y04
Y032
Y024
Y016
X1576002
Y024
Y032
Y04
Y048
Y056
Y064
Y072
Y08
X1568002
Y072
Y064
Y056
Y048
Y04
Y032
Y024
Y016
Y008
X1560002
Y016
Y024
Y032
Y04
Y048
Y056
Y064
Y072
Y08
X1552002
Y072
Y064
Y056
Y048
Y04
Y032
Y024
Y016
Y008
X1544002
Y016
Y024
Y032
Y04
Y048
Y056
Y064
Y072
Y08
X1536002
Y072
Y064
Y056
Y048
Y04
Y032
Y024
Y016
Y008
X1528002
Y016
Y024
Y032
Y04
Y048
Y056
Y064
Y072
Y08
X1520002
Y072
Y064
Y056
Y048
Y04
Y032
Y024
Y016
Y008
X1512002
Y016
Y024
Y032
Y04
Y048
Y056
Y064
Y072
Y08
X1504002
Y072
Y064
Y056
Y048
Y04
Y032
Y024
Y016
Y008
X1496002
Y016
Y024
Y032
Y04
Y048
Y056
Y064
Y072
Y08
X1488002
Y072
Y064
Y056
Y048
Y04
Y032
Y024
Y016
Y008
X1480002
Y016
Y024
Y032
Y04
Y048
Y056
Y064
Y072
Y08
X1472002
Y072
Y064
Y056
Y048
Y04
Y032
Y024
Y016
Y008
X1464002
Y016
Y024
Y032
Y04
Y048
Y056
Y064
Y072
Y08
X1456002
Y072
Y064
Y056
Y048
Y04
Y032
Y024
Y016
Y008
X1448002
Y016
Y024
Y032
Y04
Y048
Y056
Y064
Y072
Y08
X1440002
Y072
Y064
Y056
Y048
Y04
Y032
Y024
Y016
Y008
X1432002
Y016
Y024
Y032
Y04
Y048
Y056
Y064
Y072
Y08
X1424002
Y072
Y064
Y056
Y048
Y04
Y032
Y024
Y016
Y008
X1416002
Y016
Y024
Y032
Y04
Y048
Y056
Y064
Y072
Y08
X1408002
Y072
Y064
Y056
Y048
Y04
Y032
Y024
Y016
Y008
X1400002
Y016
Y024
Y032
Y04
Y048
Y056
Y064
Y072
Y08
X1392002
Y072
Y064
Y056
Y048
Y04
Y032
Y024
Y016
Y008
X1384002
Y016
Y024
Y032
Y04
Y048
Y056
Y064
Y072
Y08
X1376002
Y072
Y064
Y056
Y048
Y04
Y032
Y024
Y016
Y008
X1368002
Y016
Y024
Y032
Y04
Y048
Y056
Y064
Y072
Y08
X1360002
Y072
Y064
Y056
Y048
Y04
Y032
Y024
Y016
Y008
X1352002
Y016
Y024
Y032
Y04
Y048
Y056
Y064
Y072
Y08
X1344002
Y072
Y064
Y056
Y048
Y04
Y032
Y024
Y016
Y008
X1336002
Y016
Y024
Y032
Y04
Y048
Y056
Y064
Y072
Y08
X1328002
Y072
Y064
Y056
Y048
Y04
Y032
Y024
Y016
Y008
X1320002
Y016
Y024
Y032
Y04
Y048
Y056
Y064
Y072
Y08
X1312001
Y072
Y064
Y056
Y048
Y04
Y032
Y024
Y016
Y008
X1304001
Y016
Y024
Y032
Y04
Y048
Y056
Y064
Y072
Y08
X1296001
Y072
Y064
Y056
Y048
Y04
Y032
Y024
Y016
Y008
X1288002
Y016
Y024
Y032
Y04
Y048
Y056
Y064
Y072
Y08
X1280002
Y072
Y064
Y056
Y048
Y04
Y032
Y024
Y016
Y008
X1272001
Y016
Y024
Y032
Y04
Y048
Y056
Y064
Y072
Y08
X1264001
Y072
Y064
Y056
Y048
Y04
Y032
Y024
Y016
Y008
X1256002
Y016
Y024
Y032
Y04
Y048
Y056
Y064
Y072
Y08
X1248001
Y072
Y064
Y056
Y048
Y04
Y032
Y024
Y016
Y008
X1240002
Y016
Y024
Y032
Y04
Y048
Y056
Y064
Y072
Y08
X1232001
Y072
Y064
Y056
Y048
Y04
Y032
Y024
Y016
Y008
X1224001
Y016
Y024
Y032
Y04
Y048
Y056
Y064
Y072
Y08
X1216001
Y072
Y064
Y056
Y048
Y04
Y032
Y024
Y016
Y008
X1208001
Y016
Y024
Y032
Y04
Y048
Y056
Y064
Y072
Y08
X1200001
Y072
Y064
Y056
Y048
Y04
Y032
Y024
Y016
Y008
X1192001
Y016
Y024
Y032
Y04
Y048
Y056
Y064
Y072
Y08
X1592002
X1600002
X1608002
X1616002
Y088
Y096
Y104
X1608002
Y112
Y12
X1600002
Y128
X1592002
Y136
Y12
Y112
X1600002
Y104
Y096
X1608002
Y088
X1600002
X1592002
Y096
Y104
Y072
X1600002
X1608002
X1616002
Y064
Y056
Y048
X1608002
Y056
Y064
X1600002
Y056
Y048
Y04
X1608002
X1600002Y032
X1592002
Y04
Y048
Y056
Y064
Y024
M30
