M48
;Layer_Color=9474304
;FILE_FORMAT=2:4
METRIC,LZ
;TYPE=PLATED
T1F00S00C0.2000
T2F00S00C0.3000
T3F00S00C0.5000
T4F00S00C1.1000
T5F00S00C1.2000
T6F00S00C1.8000
T7F00S00C3.2000
%
T01
X016Y016
X008Y024
X0Y032
X-008Y04
Y048
Y056
Y064
Y072
Y08
Y088
Y096
Y104
Y112
X01Y115
X02
X03
Y105
X02
Y095
X03
Y085
X02
Y075
X03
Y065
X02
Y055
X03
Y045
X02
Y035
X03
Y025
X01Y045
Y055
Y065
Y075
Y085
Y095
Y105
X02Y125
X03
Y135
X-016Y096
Y088
Y08
Y072
Y064
Y056
X324Y064
X335
X346
Y075
X335
X324
Y086
X335
X346
X1064001Y016
Y008
X1072001
X1056001
X1224001
X1232001
X1240002
X1232001Y016
X1400002
Y008
X1408002
X1392002
X1616002Y048
Y056
Y064
Y072
Y08
Y088
Y096
Y104
X1608002Y12
X1600002Y128
X1592002Y136
T02
X33Y015
Y025
Y035
X34
X35
Y025
X34
Y015
X35
X335Y12
X313401Y13825
X29Y135
X37Y1345
X43Y075
X73Y065
Y055
Y045
Y035
Y025
X745
Y035
Y045
Y055
Y065
X76
Y055
Y045
Y035
Y025
X775
Y035
X79
Y025
X76Y075
Y085
Y095
Y105
Y115
Y125
X775
Y115
Y105
X79Y115
Y125
X702418Y137582
X815Y125
Y115
X83
Y125
X845
Y115
Y105
Y095
Y085
Y075
Y065
Y055
Y045
Y035
Y025
X86
Y035
Y045
Y055
Y065
Y075
Y085
Y095
Y105
Y115
X875Y095
Y085
Y075
Y065
Y055
Y045
Y035
Y025
X83
Y035
X815
Y025
X83Y105
X1575
Y095
Y085
Y075
Y065
Y055
Y045
Y035
X1585
Y025
X1575
Y015
X1585Y045
Y055
Y065
Y075
Y085
Y095
Y105
Y115
X1575
Y125
X1585
X1575Y135
X1595Y115
Y105
Y095
Y085
Y075
Y065
Y055
Y045
Y035
T03
X7825Y055
X775Y075
X7825Y095
X8025Y1025
X8225Y095
X83Y075
X8225Y055
X8025Y0475
T04
X4473Y03
X4727
X505Y0623
Y0877
X4717Y129
X4463
T05
X139925Y0375
Y0625
Y0875
Y1125
T06
X070075Y0375
Y11243
T07
X8025Y075
M30
