M48
;Layer_Color=9474304
;FILE_FORMAT=2:4
METRIC,LZ
;TYPE=PLATED
T1F00S00C0.2000
T2F00S00C0.3000
%
T01
X03Y025
Y035
X02
Y045
X03
Y055
X02
X01
Y045
Y065
Y075
X02
X03
Y065
X02
Y085
X03
Y095
X02
Y105
X03
Y115
X02
Y125
X03
Y135
X01Y115
Y105
Y095
Y085
T02
X73Y025
Y035
Y045
Y055
Y065
Y075
Y085
Y095
X745
Y085
Y075
Y065
Y055
Y045
Y035
Y025
X76
Y035
Y045
Y055
Y065
Y075
Y085
Y095
Y105
Y115
Y125
X775
Y115
Y105
X79Y115
Y125
X745Y115
Y105
X775Y035
Y025
X79
Y035
X815
Y025
X815Y015
X83
X83Y025
Y035
X845
Y045
Y055
Y065
Y075
Y085
Y095
Y105
Y115
Y125
X83
Y115
Y105
X815Y115
Y125
X86Y115
Y105
Y095
Y085
Y075
Y065
Y055
Y045
Y035
Y025
X86Y015
X845
X845Y025
X875
Y035
Y045
Y055
Y065
Y075
Y085
Y095
X1575
Y085
Y075
Y065
Y055
Y045
Y035
X1585
Y025
X1575
Y015
X1585Y045
Y055
Y065
Y075
Y085
Y095
Y105
X1575
Y115
X1585
Y125
X1575
Y135
X1595Y115
Y105
Y095
Y085
Y075
Y065
Y055
Y045
Y035
M30
