M48
;Layer_Color=9474304
;FILE_FORMAT=4:4
METRIC,LZ
;TYPE=PLATED
T1F00S00C0.2000
T2F00S00C0.3000
T3F00S00C0.5000
T4F00S00C1.1000
T5F00S00C1.2000
T6F00S00C1.8000
T7F00S00C3.2000
%
T01
X-00008Y00048
Y00056
Y00064
Y00072
Y0008
Y00088
Y00096
Y00104
X0001Y00105
X0002
X0003
Y00095
Y00085
X0002
Y00095
X0001
Y00085
Y00075
X0002
X0003
Y00065
X0002
Y00055
X0003
Y00045
X0002
Y00035
X0003
Y00025
X0001Y00045
Y00055
Y00065
Y00115
X0002
X0003
Y00125
X0002
X0003Y00135
X00324Y00086
X00335
Y00075
X00324
Y00064
X00335
X00346
Y00075
Y00086
X01064001Y00016
Y00008
X01072001
X01056001
X01224001
X01232001
X01240002
X01232001Y00016
X01400002
Y00008
X01408002
X01392002
X01616002Y00056
Y00064
Y00072
Y0008
Y00088
Y00096
T02
X0033Y00015
Y00025
Y00035
X0034
X0035
Y00025
X0034
Y00015
X0035
X00335Y0012
X00313401Y0013825
X0029Y00135
X0037Y001345
X0043Y00075
X0073Y00065
Y00055
Y00045
Y00035
Y00025
X00745
Y00035
Y00045
Y00055
Y00065
X0076
Y00055
Y00045
Y00035
Y00025
X00775
Y00035
X0079
Y00025
X0076Y00075
Y00085
Y00095
Y00105
Y00115
Y00125
X00775
Y00115
Y00105
X0079Y00115
Y00125
X00702418Y00137582
X00815Y00125
Y00115
X0083
Y00125
X00845
Y00115
Y00105
Y00095
Y00085
Y00075
Y00065
Y00055
Y00045
Y00035
Y00025
X0086
Y00035
Y00045
Y00055
Y00065
Y00075
Y00085
Y00095
Y00105
Y00115
X00875Y00095
Y00085
Y00075
Y00065
Y00055
Y00045
Y00035
Y00025
X0083
Y00035
X00815
Y00025
X0083Y00105
X01575
Y00095
Y00085
Y00075
Y00065
Y00055
Y00045
Y00035
X01585
Y00025
X01575
Y00015
X01585Y00045
Y00055
Y00065
Y00075
Y00085
Y00095
Y00105
Y00115
X01575
Y00125
X01585
X01575Y00135
X01595Y00115
Y00105
Y00095
Y00085
Y00075
Y00065
Y00055
Y00045
Y00035
T03
X007825Y00055
X00775Y00075
X007825Y00095
X008025Y001025
X008225Y00095
X0083Y00075
X008225Y00055
X008025Y000475
T04
X004473Y0003
X004727
X00505Y000623
Y000877
X004717Y00129
X004463
T05
X00139925Y000375
Y000625
Y000875
Y001125
T06
X00070075Y000375
Y0011243
T07
X008025Y00075
M30
