M48
;Layer_Color=9474304
;FILE_FORMAT=2:4
METRIC,LZ
;TYPE=PLATED
T1F00S00C0.2000
T2F00S00C0.3000
T3F00S00C0.5000
T4F00S00C0.8000
T5F00S00C1.2000
T6F00S00C1.6000
T7F00S00C3.2000
%
T01
X17Y34
T02
X02Y14
X03Y21
X083377Y230945
X1Y28
X14Y33
X148558Y348558
X12365Y385809
X08Y364
X1885Y39
X25Y37
X224874Y3445
X202074Y306456
X29Y3
Y344
X341Y393017
X46Y39
X4705Y2546
X415219Y436802
X361677Y459723
X3435Y445521
X3Y46
X262567Y459784
X22Y48
X1815Y48625
X18Y52
X16
X128024Y52009
X11Y49
X1Y42
X2225
X21Y52
X3015Y519158
T03
X03Y08
X05Y0725
X07Y08
X0775Y1
X07Y12
X05Y1275
X03Y12
X0225Y1
X4225
X43Y08
X45Y0725
X47Y08
X4775Y1
X47Y12
X45Y1275
X43Y12
Y48
X45Y4725
X47Y48
X4775Y5
X47Y52
X45Y5275
X43Y52
X4225Y5
X0775
X07Y52
X05Y5275
X03Y52
X0225Y5
X03Y48
X05Y4725
X07Y48
T04
X1046Y1092
Y1346
X1554
Y1092
Y2108
X1046
X04Y2696
Y295
Y3204
Y38
Y4054
Y4308
T05
X21475Y15015
X23975
Y17515
X21475
X26475
Y15015
T06
X215Y0791
X265
T07
X05Y1
X45
Y5
X05
M30
