G04*
G04 #@! TF.GenerationSoftware,Altium Limited,Altium Designer,23.0.1 (38)*
G04*
G04 Layer_Color=32768*
%FSLAX44Y44*%
%MOMM*%
G71*
G04*
G04 #@! TF.SameCoordinates,5FDB3813-EBBD-42B4-A80F-D19D9E75F149*
G04*
G04*
G04 #@! TF.FilePolarity,Positive*
G04*
G01*
G75*
%ADD10C,0.1000*%
%ADD38C,0.2000*%
%ADD52C,0.0500*%
%ADD53R,0.8070X6.0000*%
D10*
X326500Y58500D02*
G03*
X326500Y58500I-5000J0D01*
G01*
X190000Y79750D02*
X250000D01*
X190000Y139750D02*
X250000D01*
X190000Y79750D02*
Y139750D01*
X250000Y79750D02*
Y139750D01*
X220000Y104750D02*
Y114750D01*
X215000Y109750D02*
X225000D01*
X880000Y140000D02*
X950000D01*
X910000Y80000D02*
X920000D01*
X915000Y75000D02*
Y85000D01*
X880000Y17500D02*
Y140000D01*
X950000Y17500D02*
Y140000D01*
X880000Y17500D02*
X950000D01*
X730000Y125000D02*
X740000D01*
X735000Y120000D02*
Y130000D01*
X740000Y85750D02*
Y95750D01*
X735000Y90750D02*
X745000D01*
X635000Y115000D02*
Y125000D01*
X630000Y120000D02*
X640000D01*
X635000Y30000D02*
Y40000D01*
X630000Y35000D02*
X640000D01*
X465000Y75000D02*
X475000D01*
X470000Y70000D02*
Y80000D01*
X445000Y70000D02*
Y80000D01*
X440000Y75000D02*
X450000D01*
X415000Y70000D02*
Y80000D01*
X410000Y75000D02*
X420000D01*
X354000Y19000D02*
Y29000D01*
X349000Y24000D02*
X359000D01*
X354000Y119000D02*
Y129000D01*
X349000Y124000D02*
X359000D01*
X330000Y75000D02*
X340000D01*
X335000Y70000D02*
Y80000D01*
X312500Y49500D02*
Y100500D01*
X357500Y49500D02*
Y100500D01*
X312500Y49500D02*
X357500D01*
X312500Y100500D02*
X357500D01*
X300000Y123500D02*
Y127500D01*
X298000Y125500D02*
X302000D01*
X280000Y123000D02*
Y127000D01*
X278000Y125000D02*
X282000D01*
X270000Y50000D02*
Y60000D01*
X265000Y55000D02*
X275000D01*
X215000Y45250D02*
X225000D01*
X220000Y40250D02*
Y50250D01*
X190000Y15250D02*
Y75250D01*
X250000Y15250D02*
Y75250D01*
X190000Y15250D02*
X250000D01*
X190000Y75250D02*
X250000D01*
X260500Y106998D02*
Y100000D01*
X255835D01*
X248837D02*
X253502D01*
X248837Y104665D01*
Y105831D01*
X250003Y106998D01*
X252336D01*
X253502Y105831D01*
X932834Y129835D02*
X928169D01*
X927002Y131001D01*
Y133334D01*
X928169Y134500D01*
X932834D01*
X934000Y133334D01*
Y131001D01*
X931668Y132167D02*
X934000Y129835D01*
Y131001D02*
X932834Y129835D01*
X934000Y127502D02*
Y125169D01*
Y126336D01*
X927002D01*
X928169Y127502D01*
X718500Y133500D02*
Y126502D01*
X721999D01*
X723165Y127669D01*
Y130001D01*
X721999Y131167D01*
X718500D01*
X720833D02*
X723165Y133500D01*
X728997D02*
Y126502D01*
X725498Y130001D01*
X730163D01*
X731500Y74250D02*
X738498D01*
Y77749D01*
X737331Y78915D01*
X734999D01*
X733832Y77749D01*
Y74250D01*
Y76583D02*
X731500Y78915D01*
X738498Y85913D02*
Y81248D01*
X734999D01*
X736165Y83580D01*
Y84747D01*
X734999Y85913D01*
X732666D01*
X731500Y84747D01*
Y82414D01*
X732666Y81248D01*
X651500Y111500D02*
Y118498D01*
X648001D01*
X646835Y117331D01*
Y114999D01*
X648001Y113833D01*
X651500D01*
X649167D02*
X646835Y111500D01*
X644502Y118498D02*
X639837D01*
Y117331D01*
X644502Y112666D01*
Y111500D01*
X651500Y26500D02*
Y33498D01*
X648001D01*
X646835Y32332D01*
Y29999D01*
X648001Y28833D01*
X651500D01*
X649167D02*
X646835Y26500D01*
X639837Y33498D02*
X642170Y32332D01*
X644502Y29999D01*
Y27666D01*
X643336Y26500D01*
X641003D01*
X639837Y27666D01*
Y28833D01*
X641003Y29999D01*
X644502D01*
X509502Y94535D02*
Y96867D01*
Y95701D01*
X515334D01*
X516500Y96867D01*
Y98034D01*
X515334Y99200D01*
X516500Y88703D02*
X509502D01*
X513001Y92202D01*
Y87537D01*
X478535Y124498D02*
X480867D01*
X479701D01*
Y118666D01*
X480867Y117500D01*
X482034D01*
X483200Y118666D01*
X476202Y123331D02*
X475036Y124498D01*
X472703D01*
X471537Y123331D01*
Y122165D01*
X472703Y120999D01*
X473870D01*
X472703D01*
X471537Y119833D01*
Y118666D01*
X472703Y117500D01*
X475036D01*
X476202Y118666D01*
X440465Y34502D02*
X438133D01*
X439299D01*
Y40334D01*
X438133Y41500D01*
X436966D01*
X435800Y40334D01*
X447463Y41500D02*
X442798D01*
X447463Y36835D01*
Y35668D01*
X446297Y34502D01*
X443964D01*
X442798Y35668D01*
X481500Y96500D02*
X474502D01*
Y93001D01*
X475668Y91835D01*
X478001D01*
X479167Y93001D01*
Y96500D01*
Y94167D02*
X481500Y91835D01*
Y84837D02*
Y89502D01*
X476835Y84837D01*
X475668D01*
X474502Y86003D01*
Y88336D01*
X475668Y89502D01*
X433500Y53500D02*
X440498D01*
Y56999D01*
X439332Y58165D01*
X436999D01*
X435833Y56999D01*
Y53500D01*
Y55833D02*
X433500Y58165D01*
Y60498D02*
Y62830D01*
Y61664D01*
X440498D01*
X439332Y60498D01*
X403500Y53500D02*
X410498D01*
Y56999D01*
X409332Y58165D01*
X406999D01*
X405833Y56999D01*
Y53500D01*
Y55833D02*
X403500Y58165D01*
X409332Y60498D02*
X410498Y61664D01*
Y63997D01*
X409332Y65163D01*
X408165D01*
X406999Y63997D01*
Y62830D01*
Y63997D01*
X405833Y65163D01*
X404666D01*
X403500Y63997D01*
Y61664D01*
X404666Y60498D01*
X377585Y14332D02*
X378751Y15498D01*
X381084D01*
X382250Y14332D01*
Y9666D01*
X381084Y8500D01*
X378751D01*
X377585Y9666D01*
X371753Y8500D02*
Y15498D01*
X375252Y11999D01*
X370587D01*
X377585Y114332D02*
X378751Y115498D01*
X381084D01*
X382250Y114332D01*
Y109666D01*
X381084Y108500D01*
X378751D01*
X377585Y109666D01*
X370587Y115498D02*
X375252D01*
Y111999D01*
X372920Y113165D01*
X371753D01*
X370587Y111999D01*
Y109666D01*
X371753Y108500D01*
X374086D01*
X375252Y109666D01*
X294752Y86832D02*
Y93830D01*
X299417D01*
X306415Y86832D02*
X301750D01*
Y93830D01*
X306415D01*
X301750Y90331D02*
X304083D01*
X308748Y86832D02*
Y93830D01*
X312247D01*
X313413Y92664D01*
Y87999D01*
X312247Y86832D01*
X308748D01*
X315746Y94996D02*
X320411D01*
X322743Y86832D02*
Y93830D01*
X326242D01*
X327408Y92664D01*
Y87999D01*
X326242Y86832D01*
X322743D01*
X329741Y93830D02*
Y86832D01*
X333240D01*
X334406Y87999D01*
Y90331D01*
X333240Y91497D01*
X329741D01*
X332074D02*
X334406Y93830D01*
X336739D02*
X339071D01*
X337905D01*
Y86832D01*
X336739Y87999D01*
X298832Y115165D02*
X299998Y113999D01*
Y111666D01*
X298832Y110500D01*
X294166D01*
X293000Y111666D01*
Y113999D01*
X294166Y115165D01*
X293000Y122163D02*
Y117498D01*
X297665Y122163D01*
X298832D01*
X299998Y120997D01*
Y118664D01*
X298832Y117498D01*
X278831Y114665D02*
X279998Y113499D01*
Y111166D01*
X278831Y110000D01*
X274166D01*
X273000Y111166D01*
Y113499D01*
X274166Y114665D01*
X273000Y116998D02*
Y119330D01*
Y118164D01*
X279998D01*
X278831Y116998D01*
X260331Y31415D02*
X261498Y30249D01*
Y27916D01*
X260331Y26750D01*
X255666D01*
X254500Y27916D01*
Y30249D01*
X255666Y31415D01*
X260331Y33748D02*
X261498Y34914D01*
Y37247D01*
X260331Y38413D01*
X259165D01*
X257999Y37247D01*
Y36080D01*
Y37247D01*
X256833Y38413D01*
X255666D01*
X254500Y37247D01*
Y34914D01*
X255666Y33748D01*
X179500Y48002D02*
Y55000D01*
X184165D01*
X186498D02*
X188830D01*
X187664D01*
Y48002D01*
X186498Y49169D01*
X37748Y43665D02*
Y41333D01*
Y42499D01*
X31916D01*
X30750Y41333D01*
Y40166D01*
X31916Y39000D01*
X30750Y45998D02*
Y48330D01*
Y47164D01*
X37748D01*
X36581Y45998D01*
D38*
X495615Y75450D02*
X513865D01*
X505250Y66268D02*
Y84518D01*
X450268Y128750D02*
X468518D01*
X459450Y120135D02*
Y138385D01*
X450482Y30250D02*
X468732D01*
X459550Y20615D02*
Y38865D01*
D52*
X180000Y146750D02*
X262500D01*
Y72500D02*
Y146750D01*
X180000Y72500D02*
X262500D01*
X180000D02*
Y146750D01*
X935000Y84500D02*
Y135500D01*
X895000Y84500D02*
Y135500D01*
Y84500D02*
X935000D01*
X895000Y135500D02*
X935000D01*
X717500Y134500D02*
X752500D01*
X717500Y115500D02*
X752500D01*
Y134500D01*
X717500Y115500D02*
Y134500D01*
X730500Y73250D02*
Y108250D01*
X749500Y73250D02*
Y108250D01*
X730500D02*
X749500D01*
X730500Y73250D02*
X749500D01*
X652500Y110500D02*
Y129500D01*
X617500Y110500D02*
Y129500D01*
X652500D01*
X617500Y110500D02*
X652500D01*
Y25500D02*
Y44500D01*
X617500Y25500D02*
Y44500D01*
X652500D01*
X617500Y25500D02*
X652500D01*
X491999Y100200D02*
X517500D01*
X491999Y50199D02*
X517500D01*
X491999D02*
Y100200D01*
X517500Y50199D02*
Y100200D01*
X434199Y116500D02*
X484200D01*
X434199Y142001D02*
X484200D01*
X434199Y116500D02*
Y142001D01*
X484200Y116500D02*
Y142001D01*
X434800Y42500D02*
X484801D01*
X434800Y16999D02*
X484801D01*
Y42500D01*
X434800Y16999D02*
Y42500D01*
X482500Y52500D02*
Y97500D01*
X457500Y52500D02*
Y97500D01*
Y52500D02*
X482500D01*
X457500Y97500D02*
X482500D01*
X432500Y52500D02*
X457500D01*
X432500Y97500D02*
X457500D01*
Y52500D02*
Y97500D01*
X432500Y52500D02*
Y97500D01*
X402500Y52500D02*
X427500D01*
X402500Y97500D02*
X427500D01*
Y52500D02*
Y97500D01*
X402500Y52500D02*
Y97500D01*
X324750Y7500D02*
X383250D01*
X324750Y40500D02*
X383250D01*
X324750Y7500D02*
Y40500D01*
X383250Y7500D02*
Y40500D01*
X324750Y107500D02*
X383250D01*
X324750Y140500D02*
X383250D01*
X324750Y107500D02*
Y140500D01*
X383250Y107500D02*
Y140500D01*
X291750Y44500D02*
Y105500D01*
X378250Y44500D02*
Y105500D01*
X291750Y44500D02*
X378250D01*
X291750Y105500D02*
X378250D01*
X292000Y109500D02*
X308000D01*
X292000Y141500D02*
X308000D01*
Y109500D02*
Y141500D01*
X292000Y109500D02*
Y141500D01*
X272000Y109000D02*
X288000D01*
X272000Y141000D02*
X288000D01*
Y109000D02*
Y141000D01*
X272000Y109000D02*
Y141000D01*
X253500Y25750D02*
X286500D01*
X253500Y84250D02*
X286500D01*
Y25750D02*
Y84250D01*
X253500Y25750D02*
Y84250D01*
X260000Y8250D02*
Y82500D01*
X177500D02*
X260000D01*
X177500Y8250D02*
Y82500D01*
Y8250D02*
X260000D01*
X21175Y20250D02*
Y129750D01*
X156675Y20250D02*
Y129750D01*
X21175D02*
X156675D01*
X21175Y20250D02*
X156675D01*
X21175D02*
Y129750D01*
X142925Y20250D02*
Y129750D01*
X21175D02*
X142925D01*
X21175Y20250D02*
X142925D01*
X82675Y68000D02*
Y83000D01*
X75175Y75500D02*
X90175D01*
D53*
X245965Y109750D02*
D03*
X194035Y45250D02*
D03*
M02*
