G04*
G04 #@! TF.GenerationSoftware,Altium Limited,Altium Designer,23.0.1 (38)*
G04*
G04 Layer_Color=255*
%FSLAX44Y44*%
%MOMM*%
G71*
G04*
G04 #@! TF.SameCoordinates,5FDB3813-EBBD-42B4-A80F-D19D9E75F149*
G04*
G04*
G04 #@! TF.FilePolarity,Positive*
G04*
G01*
G75*
G04:AMPARAMS|DCode=11|XSize=0.65mm|YSize=3.45mm|CornerRadius=0.1625mm|HoleSize=0mm|Usage=FLASHONLY|Rotation=180.000|XOffset=0mm|YOffset=0mm|HoleType=Round|Shape=RoundedRectangle|*
%AMROUNDEDRECTD11*
21,1,0.6500,3.1250,0,0,180.0*
21,1,0.3250,3.4500,0,0,180.0*
1,1,0.3250,-0.1625,1.5625*
1,1,0.3250,0.1625,1.5625*
1,1,0.3250,0.1625,-1.5625*
1,1,0.3250,-0.1625,-1.5625*
%
%ADD11ROUNDEDRECTD11*%
%ADD18C,1.8000*%
%ADD19C,2.0000*%
G04:AMPARAMS|DCode=20|XSize=2mm|YSize=2mm|CornerRadius=0.5mm|HoleSize=0mm|Usage=FLASHONLY|Rotation=90.000|XOffset=0mm|YOffset=0mm|HoleType=Round|Shape=RoundedRectangle|*
%AMROUNDEDRECTD20*
21,1,2.0000,1.0000,0,0,90.0*
21,1,1.0000,2.0000,0,0,90.0*
1,1,1.0000,0.5000,0.5000*
1,1,1.0000,0.5000,-0.5000*
1,1,1.0000,-0.5000,-0.5000*
1,1,1.0000,-0.5000,0.5000*
%
%ADD20ROUNDEDRECTD20*%
%ADD21C,7.0000*%
D11*
X1044179Y75000D02*
D03*
X1072119D02*
D03*
X362450D02*
D03*
X390390D02*
D03*
X1583415D02*
D03*
X1555475D02*
D03*
X1412983D02*
D03*
X1385043D02*
D03*
X1242551D02*
D03*
X1214611D02*
D03*
X901686D02*
D03*
X873746D02*
D03*
X731254D02*
D03*
X703314D02*
D03*
X560822D02*
D03*
X532882D02*
D03*
X219958D02*
D03*
X192018D02*
D03*
X49526D02*
D03*
X21586D02*
D03*
D18*
X505000Y62300D02*
D03*
Y87700D02*
D03*
X471700Y129000D02*
D03*
X446300D02*
D03*
X447300Y30000D02*
D03*
X472700D02*
D03*
X70075Y37500D02*
D03*
Y112430D02*
D03*
D19*
X139925Y37500D02*
D03*
Y87500D02*
D03*
Y62500D02*
D03*
D20*
Y112500D02*
D03*
D21*
X802500Y75000D02*
D03*
M02*
