G04*
G04 #@! TF.GenerationSoftware,Altium Limited,Altium Designer,23.0.1 (38)*
G04*
G04 Layer_Physical_Order=3*
G04 Layer_Color=16440176*
%FSLAX44Y44*%
%MOMM*%
G71*
G04*
G04 #@! TF.SameCoordinates,5FDB3813-EBBD-42B4-A80F-D19D9E75F149*
G04*
G04*
G04 #@! TF.FilePolarity,Positive*
G04*
G01*
G75*
%ADD18C,1.8000*%
%ADD19C,2.0000*%
G04:AMPARAMS|DCode=20|XSize=2mm|YSize=2mm|CornerRadius=0.5mm|HoleSize=0mm|Usage=FLASHONLY|Rotation=90.000|XOffset=0mm|YOffset=0mm|HoleType=Round|Shape=RoundedRectangle|*
%AMROUNDEDRECTD20*
21,1,2.0000,1.0000,0,0,90.0*
21,1,1.0000,2.0000,0,0,90.0*
1,1,1.0000,0.5000,0.5000*
1,1,1.0000,0.5000,-0.5000*
1,1,1.0000,-0.5000,-0.5000*
1,1,1.0000,-0.5000,0.5000*
%
%ADD20ROUNDEDRECTD20*%
%ADD21C,7.0000*%
%ADD22C,0.5000*%
%ADD23C,0.7000*%
G36*
X1550000Y152500D02*
X1554212D01*
X1562583Y151557D01*
X1570795Y149682D01*
X1578746Y146900D01*
X1586336Y143245D01*
X1593469Y138763D01*
X1600055Y133511D01*
X1606011Y127555D01*
X1611263Y120969D01*
X1615745Y113836D01*
X1619400Y106247D01*
X1622182Y98295D01*
X1624057Y90083D01*
X1625000Y81712D01*
Y73288D01*
X1624057Y64917D01*
X1622182Y56705D01*
X1619400Y48754D01*
X1615745Y41164D01*
X1611263Y34031D01*
X1606011Y27445D01*
X1600055Y21489D01*
X1593469Y16237D01*
X1586336Y11755D01*
X1578746Y8100D01*
X1570795Y5318D01*
X1562583Y3443D01*
X1554212Y2500D01*
X1550000D01*
X52500Y2500D01*
X48288D01*
X39917Y3443D01*
X31705Y5318D01*
X23753Y8100D01*
X16164Y11755D01*
X9031Y16236D01*
X2445Y21489D01*
X-3511Y27445D01*
X-8763Y34031D01*
X-13245Y41164D01*
X-16900Y48753D01*
X-19682Y56705D01*
X-21557Y64917D01*
X-22500Y73288D01*
X-22500Y81712D01*
X-21557Y90083D01*
X-19682Y98295D01*
X-16900Y106247D01*
X-13245Y113836D01*
X-8763Y120969D01*
X-3511Y127555D01*
X2445Y133511D01*
X9031Y138763D01*
X16164Y143245D01*
X23753Y146900D01*
X31705Y149682D01*
X39917Y151557D01*
X48288Y152500D01*
X52500D01*
X1550000Y152500D01*
D02*
G37*
%LPC*%
G36*
X291094Y140500D02*
X288906D01*
X286884Y139663D01*
X285337Y138116D01*
X284500Y136094D01*
Y133906D01*
X285337Y131884D01*
X286884Y130337D01*
X288906Y129500D01*
X291094D01*
X293116Y130337D01*
X294663Y131884D01*
X295500Y133906D01*
Y136094D01*
X294663Y138116D01*
X293116Y139663D01*
X291094Y140500D01*
D02*
G37*
G36*
X30895Y139500D02*
X29105D01*
X27451Y138815D01*
X26185Y137549D01*
X25500Y135895D01*
Y134105D01*
X26185Y132451D01*
X27451Y131185D01*
X28686Y130673D01*
Y129327D01*
X27451Y128815D01*
X26185Y127549D01*
X25673Y126314D01*
X24327D01*
X23815Y127549D01*
X22549Y128815D01*
X20895Y129500D01*
X19105D01*
X17451Y128815D01*
X16185Y127549D01*
X15500Y125895D01*
Y124105D01*
X16185Y122451D01*
X17451Y121185D01*
X18686Y120673D01*
Y119327D01*
X17451Y118815D01*
X16185Y117549D01*
X15673Y116313D01*
X14327D01*
X13815Y117549D01*
X12549Y118815D01*
X10895Y119500D01*
X9105D01*
X7451Y118815D01*
X6185Y117549D01*
X5500Y115895D01*
Y114105D01*
X6185Y112451D01*
X7451Y111185D01*
X8687Y110673D01*
Y109327D01*
X7451Y108815D01*
X6185Y107549D01*
X5500Y105895D01*
Y104105D01*
X6185Y102451D01*
X7451Y101185D01*
X8687Y100673D01*
Y99327D01*
X7451Y98815D01*
X6185Y97549D01*
X5500Y95895D01*
Y94105D01*
X6185Y92451D01*
X7451Y91185D01*
X8686Y90673D01*
Y89327D01*
X7451Y88815D01*
X6185Y87549D01*
X5500Y85895D01*
Y84105D01*
X6185Y82451D01*
X7451Y81185D01*
X8687Y80673D01*
Y79327D01*
X7451Y78815D01*
X6185Y77549D01*
X5500Y75895D01*
Y74105D01*
X6185Y72451D01*
X7451Y71185D01*
X8687Y70673D01*
Y69327D01*
X7451Y68815D01*
X6185Y67549D01*
X5500Y65895D01*
Y64105D01*
X6185Y62451D01*
X7451Y61185D01*
X8687Y60673D01*
Y59327D01*
X7451Y58815D01*
X6185Y57549D01*
X5500Y55895D01*
Y54105D01*
X6185Y52451D01*
X7451Y51185D01*
X8686Y50673D01*
Y49327D01*
X7451Y48815D01*
X6185Y47549D01*
X5500Y45895D01*
Y44105D01*
X6185Y42451D01*
X7451Y41185D01*
X9105Y40500D01*
X10895D01*
X12549Y41185D01*
X13815Y42451D01*
X14327Y43686D01*
X15673D01*
X16185Y42451D01*
X17451Y41185D01*
X18686Y40673D01*
Y39327D01*
X17451Y38815D01*
X16185Y37549D01*
X15500Y35895D01*
Y34105D01*
X16185Y32451D01*
X17451Y31185D01*
X19105Y30500D01*
X20895D01*
X22549Y31185D01*
X23815Y32451D01*
X24327Y33686D01*
X25673D01*
X26185Y32451D01*
X27451Y31185D01*
X28686Y30673D01*
Y29327D01*
X27451Y28815D01*
X26185Y27549D01*
X25500Y25895D01*
Y24105D01*
X26185Y22451D01*
X27451Y21185D01*
X29105Y20500D01*
X30895D01*
X32549Y21185D01*
X33815Y22451D01*
X34500Y24105D01*
Y25895D01*
X33815Y27549D01*
X32549Y28815D01*
X31314Y29327D01*
Y30673D01*
X32549Y31185D01*
X33815Y32451D01*
X34500Y34105D01*
Y35895D01*
X33815Y37549D01*
X32549Y38815D01*
X31314Y39327D01*
Y40673D01*
X32549Y41185D01*
X33815Y42451D01*
X34500Y44105D01*
Y45895D01*
X33815Y47549D01*
X32549Y48815D01*
X31314Y49327D01*
Y50673D01*
X32549Y51185D01*
X33815Y52451D01*
X34500Y54105D01*
Y55895D01*
X33815Y57549D01*
X32549Y58815D01*
X31314Y59327D01*
Y60673D01*
X32549Y61185D01*
X33815Y62451D01*
X34500Y64105D01*
Y65895D01*
X33815Y67549D01*
X32549Y68815D01*
X31314Y69327D01*
Y70673D01*
X32549Y71185D01*
X33815Y72451D01*
X34500Y74105D01*
Y75895D01*
X33815Y77549D01*
X32549Y78815D01*
X31314Y79327D01*
Y80673D01*
X32549Y81185D01*
X33815Y82451D01*
X34500Y84105D01*
Y85895D01*
X33815Y87549D01*
X32549Y88815D01*
X31314Y89327D01*
Y90673D01*
X32549Y91185D01*
X33815Y92451D01*
X34500Y94105D01*
Y95895D01*
X33815Y97549D01*
X32549Y98815D01*
X31314Y99327D01*
Y100673D01*
X32549Y101185D01*
X33815Y102451D01*
X34500Y104105D01*
Y105895D01*
X33815Y107549D01*
X32549Y108815D01*
X31314Y109327D01*
Y110673D01*
X32549Y111185D01*
X33815Y112451D01*
X34500Y114105D01*
Y115895D01*
X33815Y117549D01*
X32549Y118815D01*
X31314Y119327D01*
Y120673D01*
X32549Y121185D01*
X33815Y122451D01*
X34500Y124105D01*
Y125895D01*
X33815Y127549D01*
X32549Y128815D01*
X31314Y129327D01*
Y130673D01*
X32549Y131185D01*
X33815Y132451D01*
X34500Y134105D01*
Y135895D01*
X33815Y137549D01*
X32549Y138815D01*
X30895Y139500D01*
D02*
G37*
G36*
X473148Y140000D02*
X470252D01*
X467454Y139250D01*
X464946Y137802D01*
X462898Y135754D01*
X461450Y133246D01*
X460700Y130448D01*
Y127552D01*
X461450Y124754D01*
X462898Y122246D01*
X464946Y120198D01*
X467454Y118750D01*
X470252Y118000D01*
X473148D01*
X475946Y118750D01*
X478454Y120198D01*
X480502Y122246D01*
X481950Y124754D01*
X482700Y127552D01*
Y130448D01*
X481950Y133246D01*
X480502Y135754D01*
X478454Y137802D01*
X475946Y139250D01*
X473148Y140000D01*
D02*
G37*
G36*
X447748D02*
X444852D01*
X442054Y139250D01*
X439546Y137802D01*
X437498Y135754D01*
X436050Y133246D01*
X435300Y130448D01*
Y127552D01*
X436050Y124754D01*
X437498Y122246D01*
X439546Y120198D01*
X442054Y118750D01*
X444852Y118000D01*
X447748D01*
X450546Y118750D01*
X453054Y120198D01*
X455102Y122246D01*
X456550Y124754D01*
X457300Y127552D01*
Y130448D01*
X456550Y133246D01*
X455102Y135754D01*
X453054Y137802D01*
X450546Y139250D01*
X447748Y140000D01*
D02*
G37*
G36*
X336094Y125500D02*
X333906D01*
X331884Y124663D01*
X330337Y123116D01*
X329500Y121094D01*
Y118906D01*
X330337Y116884D01*
X331884Y115337D01*
X333906Y114500D01*
X336094D01*
X338116Y115337D01*
X339663Y116884D01*
X340500Y118906D01*
Y121094D01*
X339663Y123116D01*
X338116Y124663D01*
X336094Y125500D01*
D02*
G37*
G36*
X816094Y130500D02*
X813906D01*
X811885Y129663D01*
X810337Y128116D01*
X809500Y126094D01*
Y123906D01*
X810337Y121884D01*
X811392Y120830D01*
X811742Y120000D01*
X811392Y119170D01*
X810337Y118116D01*
X809500Y116094D01*
Y113906D01*
X810337Y111884D01*
X811885Y110337D01*
X813906Y109500D01*
X816094D01*
X818115Y110337D01*
X819663Y111884D01*
X820500Y113906D01*
Y116094D01*
X819663Y118116D01*
X818608Y119170D01*
X818258Y120000D01*
X818608Y120830D01*
X819663Y121884D01*
X820500Y123906D01*
Y126094D01*
X819663Y128116D01*
X818115Y129663D01*
X816094Y130500D01*
D02*
G37*
G36*
X791094D02*
X788906D01*
X786885Y129663D01*
X785337Y128116D01*
X784500Y126094D01*
Y123906D01*
X785337Y121884D01*
X786392Y120830D01*
X786742Y120000D01*
X786392Y119170D01*
X785337Y118116D01*
X784500Y116094D01*
Y113906D01*
X785337Y111884D01*
X786885Y110337D01*
X788906Y109500D01*
X791094D01*
X793115Y110337D01*
X794663Y111884D01*
X795500Y113906D01*
Y116094D01*
X794663Y118116D01*
X793608Y119170D01*
X793258Y120000D01*
X793608Y120830D01*
X794663Y121884D01*
X795500Y123906D01*
Y126094D01*
X794663Y128116D01*
X793115Y129663D01*
X791094Y130500D01*
D02*
G37*
G36*
X71523Y123430D02*
X68627D01*
X65829Y122680D01*
X63321Y121232D01*
X61273Y119184D01*
X59825Y116676D01*
X59075Y113878D01*
Y110982D01*
X59825Y108184D01*
X61273Y105676D01*
X63321Y103628D01*
X65829Y102180D01*
X68627Y101430D01*
X71523D01*
X74321Y102180D01*
X76829Y103628D01*
X78877Y105676D01*
X80325Y108184D01*
X81075Y110982D01*
Y113878D01*
X80325Y116676D01*
X78877Y119184D01*
X76829Y121232D01*
X74321Y122680D01*
X71523Y123430D01*
D02*
G37*
G36*
X144925Y124560D02*
X134925D01*
X133098Y124320D01*
X131395Y123615D01*
X129932Y122493D01*
X128811Y121030D01*
X128105Y119327D01*
X127865Y117500D01*
Y107500D01*
X128105Y105673D01*
X128811Y103970D01*
X129932Y102507D01*
X131395Y101385D01*
X133098Y100680D01*
X134925Y100440D01*
X144925D01*
X146752Y100680D01*
X148455Y101385D01*
X149917Y102507D01*
X151039Y103970D01*
X151745Y105673D01*
X151985Y107500D01*
Y117500D01*
X151745Y119327D01*
X151039Y121030D01*
X149917Y122493D01*
X148455Y123615D01*
X146752Y124320D01*
X144925Y124560D01*
D02*
G37*
G36*
X831094Y130500D02*
X828906D01*
X826885Y129663D01*
X825337Y128116D01*
X824500Y126094D01*
Y123906D01*
X825337Y121884D01*
X826392Y120830D01*
X826742Y120000D01*
X826392Y119170D01*
X825337Y118116D01*
X824500Y116094D01*
Y113906D01*
X825337Y111884D01*
X826392Y110830D01*
X826742Y110000D01*
X826392Y109170D01*
X825337Y108116D01*
X824500Y106094D01*
Y103906D01*
X825337Y101884D01*
X826885Y100337D01*
X828906Y99500D01*
X831094D01*
X833115Y100337D01*
X834663Y101884D01*
X835500Y103906D01*
Y106094D01*
X834663Y108116D01*
X833608Y109170D01*
X833258Y110000D01*
X833608Y110830D01*
X834663Y111884D01*
X835500Y113906D01*
Y116094D01*
X834663Y118116D01*
X833608Y119170D01*
X833258Y120000D01*
X833608Y120830D01*
X834663Y121884D01*
X835500Y123906D01*
Y126094D01*
X834663Y128116D01*
X833115Y129663D01*
X831094Y130500D01*
D02*
G37*
G36*
X776094D02*
X773906D01*
X771885Y129663D01*
X770337Y128116D01*
X769500Y126094D01*
Y123906D01*
X770337Y121884D01*
X771392Y120830D01*
X771742Y120000D01*
X771392Y119170D01*
X770337Y118116D01*
X769500Y116094D01*
Y113906D01*
X770337Y111884D01*
X771392Y110830D01*
X771742Y110000D01*
X771392Y109170D01*
X770337Y108116D01*
X769500Y106094D01*
Y103906D01*
X770337Y101884D01*
X771885Y100337D01*
X773906Y99500D01*
X776094D01*
X778115Y100337D01*
X779663Y101884D01*
X780500Y103906D01*
Y106094D01*
X779663Y108116D01*
X778608Y109170D01*
X778258Y110000D01*
X778608Y110830D01*
X779663Y111884D01*
X780500Y113906D01*
Y116094D01*
X779663Y118116D01*
X778608Y119170D01*
X778258Y120000D01*
X778608Y120830D01*
X779663Y121884D01*
X780500Y123906D01*
Y126094D01*
X779663Y128116D01*
X778115Y129663D01*
X776094Y130500D01*
D02*
G37*
G36*
X506448Y98700D02*
X503552D01*
X500754Y97950D01*
X498246Y96502D01*
X496198Y94454D01*
X494750Y91946D01*
X494000Y89148D01*
Y86252D01*
X494750Y83454D01*
X496198Y80946D01*
X498246Y78898D01*
X500754Y77450D01*
X503552Y76700D01*
X506448D01*
X509246Y77450D01*
X511754Y78898D01*
X513802Y80946D01*
X515250Y83454D01*
X516000Y86252D01*
Y89148D01*
X515250Y91946D01*
X513802Y94454D01*
X511754Y96502D01*
X509246Y97950D01*
X506448Y98700D01*
D02*
G37*
G36*
X351094Y40500D02*
X348906D01*
X346884Y39663D01*
X345830Y38608D01*
X345000Y38258D01*
X344170Y38608D01*
X343116Y39663D01*
X341094Y40500D01*
X338906D01*
X336884Y39663D01*
X335830Y38608D01*
X335000Y38258D01*
X334170Y38608D01*
X333116Y39663D01*
X331094Y40500D01*
X328906D01*
X326884Y39663D01*
X325337Y38115D01*
X324500Y36094D01*
Y33906D01*
X325337Y31885D01*
X326392Y30830D01*
X326742Y30000D01*
X326392Y29170D01*
X325337Y28115D01*
X324500Y26094D01*
Y23906D01*
X325337Y21885D01*
X326392Y20830D01*
X326742Y20000D01*
X326392Y19170D01*
X325337Y18116D01*
X324500Y16094D01*
Y13906D01*
X325337Y11884D01*
X326884Y10337D01*
X328906Y9500D01*
X331094D01*
X333116Y10337D01*
X334170Y11392D01*
X335000Y11742D01*
X335830Y11392D01*
X336884Y10337D01*
X338906Y9500D01*
X341094D01*
X343116Y10337D01*
X344170Y11392D01*
X345000Y11742D01*
X345830Y11392D01*
X346884Y10337D01*
X348906Y9500D01*
X351094D01*
X353116Y10337D01*
X354663Y11884D01*
X355500Y13906D01*
Y16094D01*
X354663Y18116D01*
X353608Y19170D01*
X353258Y20000D01*
X353608Y20830D01*
X354663Y21885D01*
X355500Y23906D01*
Y26094D01*
X354663Y28115D01*
X353608Y29170D01*
X353258Y30000D01*
X353608Y30830D01*
X354663Y31885D01*
X355500Y33906D01*
Y36094D01*
X354663Y38115D01*
X353116Y39663D01*
X351094Y40500D01*
D02*
G37*
G36*
X1576094Y140500D02*
X1573906D01*
X1571884Y139663D01*
X1570337Y138116D01*
X1569500Y136094D01*
Y133906D01*
X1570337Y131884D01*
X1571392Y130830D01*
X1571742Y130000D01*
X1571392Y129170D01*
X1570337Y128116D01*
X1569500Y126094D01*
Y123906D01*
X1570337Y121884D01*
X1571392Y120830D01*
X1571742Y120000D01*
X1571392Y119170D01*
X1570337Y118116D01*
X1569500Y116094D01*
Y113906D01*
X1570337Y111884D01*
X1571392Y110830D01*
X1571742Y110000D01*
X1571392Y109170D01*
X1570337Y108116D01*
X1569500Y106094D01*
Y103906D01*
X1570337Y101884D01*
X1571392Y100830D01*
X1571742Y100000D01*
X1571392Y99170D01*
X1570337Y98116D01*
X1569500Y96094D01*
Y93906D01*
X1570337Y91884D01*
X1571392Y90830D01*
X1571742Y90000D01*
X1571392Y89170D01*
X1570337Y88116D01*
X1569500Y86094D01*
Y83906D01*
X1570337Y81884D01*
X1571392Y80830D01*
X1571742Y80000D01*
X1571392Y79170D01*
X1570337Y78116D01*
X1569500Y76094D01*
Y73906D01*
X1570337Y71884D01*
X1571392Y70830D01*
X1571742Y70000D01*
X1571392Y69170D01*
X1570337Y68116D01*
X1569500Y66094D01*
Y63906D01*
X1570337Y61884D01*
X1571392Y60830D01*
X1571742Y60000D01*
X1571392Y59170D01*
X1570337Y58116D01*
X1569500Y56094D01*
Y53906D01*
X1570337Y51884D01*
X1571392Y50830D01*
X1571742Y50000D01*
X1571392Y49170D01*
X1570337Y48116D01*
X1569500Y46094D01*
Y43906D01*
X1570337Y41884D01*
X1571392Y40830D01*
X1571742Y40000D01*
X1571392Y39170D01*
X1570337Y38115D01*
X1569500Y36094D01*
Y33906D01*
X1570337Y31885D01*
X1571392Y30830D01*
X1571742Y30000D01*
X1571392Y29170D01*
X1570337Y28115D01*
X1569500Y26094D01*
Y23906D01*
X1570337Y21885D01*
X1571392Y20830D01*
X1571742Y20000D01*
X1571392Y19170D01*
X1570337Y18116D01*
X1569500Y16094D01*
Y13906D01*
X1570337Y11884D01*
X1571884Y10337D01*
X1573906Y9500D01*
X1576094D01*
X1578116Y10337D01*
X1579663Y11884D01*
X1580500Y13906D01*
Y16094D01*
X1579663Y18116D01*
X1578608Y19170D01*
X1578258Y20000D01*
X1578608Y20830D01*
X1579170Y21392D01*
X1580000Y21742D01*
X1580830Y21392D01*
X1581884Y20337D01*
X1583906Y19500D01*
X1586094D01*
X1588116Y20337D01*
X1589663Y21885D01*
X1590500Y23906D01*
Y26094D01*
X1589663Y28115D01*
X1588608Y29170D01*
X1588258Y30000D01*
X1588608Y30830D01*
X1589170Y31392D01*
X1590000Y31742D01*
X1590830Y31392D01*
X1591884Y30337D01*
X1593906Y29500D01*
X1596094D01*
X1598116Y30337D01*
X1599663Y31885D01*
X1600500Y33906D01*
Y36094D01*
X1599663Y38115D01*
X1598608Y39170D01*
X1598258Y40000D01*
X1598608Y40830D01*
X1599663Y41884D01*
X1600500Y43906D01*
Y46094D01*
X1599663Y48116D01*
X1598608Y49170D01*
X1598258Y50000D01*
X1598608Y50830D01*
X1599663Y51884D01*
X1600500Y53906D01*
Y56094D01*
X1599663Y58116D01*
X1598608Y59170D01*
X1598258Y60000D01*
X1598608Y60830D01*
X1599663Y61884D01*
X1600500Y63906D01*
Y66094D01*
X1599663Y68116D01*
X1598608Y69170D01*
X1598258Y70000D01*
X1598608Y70830D01*
X1599663Y71884D01*
X1600500Y73906D01*
Y76094D01*
X1599663Y78116D01*
X1598608Y79170D01*
X1598258Y80000D01*
X1598608Y80830D01*
X1599663Y81884D01*
X1600500Y83906D01*
Y86094D01*
X1599663Y88116D01*
X1598608Y89170D01*
X1598258Y90000D01*
X1598608Y90830D01*
X1599663Y91884D01*
X1600500Y93906D01*
Y96094D01*
X1599663Y98116D01*
X1598608Y99170D01*
X1598258Y100000D01*
X1598608Y100830D01*
X1599663Y101884D01*
X1600500Y103906D01*
Y106094D01*
X1599663Y108116D01*
X1598608Y109170D01*
X1598258Y110000D01*
X1598608Y110830D01*
X1599663Y111884D01*
X1600500Y113906D01*
Y116094D01*
X1599663Y118116D01*
X1598116Y119663D01*
X1596094Y120500D01*
X1593906D01*
X1591884Y119663D01*
X1590830Y118608D01*
X1590000Y118258D01*
X1589170Y118608D01*
X1588608Y119170D01*
X1588258Y120000D01*
X1588608Y120830D01*
X1589663Y121884D01*
X1590500Y123906D01*
Y126094D01*
X1589663Y128116D01*
X1588116Y129663D01*
X1586094Y130500D01*
X1583906D01*
X1581884Y129663D01*
X1580830Y128608D01*
X1580000Y128258D01*
X1579170Y128608D01*
X1578608Y129170D01*
X1578258Y130000D01*
X1578608Y130830D01*
X1579663Y131884D01*
X1580500Y133906D01*
Y136094D01*
X1579663Y138116D01*
X1578116Y139663D01*
X1576094Y140500D01*
D02*
G37*
G36*
X71523Y48500D02*
X68627D01*
X65829Y47750D01*
X63321Y46302D01*
X61273Y44254D01*
X59825Y41746D01*
X59075Y38948D01*
Y36052D01*
X59825Y33254D01*
X61273Y30746D01*
X63321Y28698D01*
X65829Y27250D01*
X68627Y26500D01*
X71523D01*
X74321Y27250D01*
X76829Y28698D01*
X78877Y30746D01*
X80325Y33254D01*
X81075Y36052D01*
Y38948D01*
X80325Y41746D01*
X78877Y44254D01*
X76829Y46302D01*
X74321Y47750D01*
X71523Y48500D01*
D02*
G37*
G36*
X141505Y74500D02*
X138345D01*
X135293Y73682D01*
X132557Y72102D01*
X130323Y69868D01*
X128743Y67132D01*
X127925Y64080D01*
Y60920D01*
X128743Y57868D01*
X130323Y55132D01*
X132557Y52898D01*
X135293Y51318D01*
X137758Y50657D01*
Y49343D01*
X135293Y48682D01*
X132557Y47102D01*
X130323Y44868D01*
X128743Y42132D01*
X127925Y39080D01*
Y35920D01*
X128743Y32868D01*
X130323Y30132D01*
X132557Y27898D01*
X135293Y26318D01*
X138345Y25500D01*
X141505D01*
X144557Y26318D01*
X147293Y27898D01*
X149527Y30132D01*
X151107Y32868D01*
X151925Y35920D01*
Y39080D01*
X151107Y42132D01*
X149527Y44868D01*
X147293Y47102D01*
X144557Y48682D01*
X142092Y49343D01*
Y50657D01*
X144557Y51318D01*
X147293Y52898D01*
X149527Y55132D01*
X151107Y57868D01*
X151925Y60920D01*
Y64080D01*
X151107Y67132D01*
X149527Y69868D01*
X147293Y72102D01*
X144557Y73682D01*
X141505Y74500D01*
D02*
G37*
G36*
X876094Y100500D02*
X873906D01*
X871885Y99663D01*
X870337Y98116D01*
X869500Y96094D01*
Y93906D01*
X870337Y91884D01*
X871392Y90830D01*
X871742Y90000D01*
X871392Y89170D01*
X870337Y88116D01*
X869500Y86094D01*
Y83906D01*
X870337Y81884D01*
X871392Y80830D01*
X871742Y80000D01*
X871392Y79170D01*
X870337Y78116D01*
X869500Y76094D01*
Y73906D01*
X870337Y71884D01*
X871392Y70830D01*
X871742Y70000D01*
X871392Y69170D01*
X870337Y68116D01*
X869500Y66094D01*
Y63906D01*
X870337Y61884D01*
X871392Y60830D01*
X871742Y60000D01*
X871392Y59170D01*
X870337Y58116D01*
X869500Y56094D01*
Y53906D01*
X870337Y51884D01*
X871392Y50830D01*
X871742Y50000D01*
X871392Y49170D01*
X870337Y48116D01*
X869500Y46094D01*
Y43906D01*
X870337Y41884D01*
X871392Y40830D01*
X871742Y40000D01*
X871392Y39170D01*
X870337Y38115D01*
X869500Y36094D01*
Y33906D01*
X870337Y31885D01*
X871392Y30830D01*
X871742Y30000D01*
X871392Y29170D01*
X870337Y28115D01*
X869500Y26094D01*
Y23906D01*
X870337Y21885D01*
X871885Y20337D01*
X873906Y19500D01*
X876094D01*
X878115Y20337D01*
X879663Y21885D01*
X880500Y23906D01*
Y26094D01*
X879663Y28115D01*
X878608Y29170D01*
X878258Y30000D01*
X878608Y30830D01*
X879663Y31885D01*
X880500Y33906D01*
Y36094D01*
X879663Y38115D01*
X878608Y39170D01*
X878258Y40000D01*
X878608Y40830D01*
X879663Y41884D01*
X880500Y43906D01*
Y46094D01*
X879663Y48116D01*
X878608Y49170D01*
X878258Y50000D01*
X878608Y50830D01*
X879663Y51884D01*
X880500Y53906D01*
Y56094D01*
X879663Y58116D01*
X878608Y59170D01*
X878258Y60000D01*
X878608Y60830D01*
X879663Y61884D01*
X880500Y63906D01*
Y66094D01*
X879663Y68116D01*
X878608Y69170D01*
X878258Y70000D01*
X878608Y70830D01*
X879663Y71884D01*
X880500Y73906D01*
Y76094D01*
X879663Y78116D01*
X878608Y79170D01*
X878258Y80000D01*
X878608Y80830D01*
X879663Y81884D01*
X880500Y83906D01*
Y86094D01*
X879663Y88116D01*
X878608Y89170D01*
X878258Y90000D01*
X878608Y90830D01*
X879663Y91884D01*
X880500Y93906D01*
Y96094D01*
X879663Y98116D01*
X878115Y99663D01*
X876094Y100500D01*
D02*
G37*
G36*
X861094Y120500D02*
X858906D01*
X856885Y119663D01*
X855337Y118116D01*
X854500Y116094D01*
Y113906D01*
X855337Y111884D01*
X856392Y110830D01*
X856742Y110000D01*
X856392Y109170D01*
X855337Y108116D01*
X854500Y106094D01*
Y103906D01*
X855337Y101884D01*
X856392Y100830D01*
X856742Y100000D01*
X856392Y99170D01*
X855337Y98116D01*
X854500Y96094D01*
Y93906D01*
X855337Y91884D01*
X856392Y90830D01*
X856742Y90000D01*
X856392Y89170D01*
X855337Y88116D01*
X854500Y86094D01*
Y83906D01*
X855337Y81884D01*
X856392Y80830D01*
X856742Y80000D01*
X856392Y79170D01*
X855337Y78116D01*
X854500Y76094D01*
Y73906D01*
X855337Y71884D01*
X856392Y70830D01*
X856742Y70000D01*
X856392Y69170D01*
X855337Y68116D01*
X854500Y66094D01*
Y63906D01*
X855337Y61884D01*
X856392Y60830D01*
X856742Y60000D01*
X856392Y59170D01*
X855337Y58116D01*
X854500Y56094D01*
Y53906D01*
X855337Y51884D01*
X856392Y50830D01*
X856742Y50000D01*
X856392Y49170D01*
X855337Y48116D01*
X854500Y46094D01*
Y43906D01*
X855337Y41884D01*
X856392Y40830D01*
X856742Y40000D01*
X856392Y39170D01*
X855337Y38115D01*
X854500Y36094D01*
Y33906D01*
X855337Y31885D01*
X856392Y30830D01*
X856742Y30000D01*
X856392Y29170D01*
X855337Y28115D01*
X854500Y26094D01*
Y23906D01*
X855337Y21885D01*
X856885Y20337D01*
X858906Y19500D01*
X861094D01*
X863115Y20337D01*
X864663Y21885D01*
X865500Y23906D01*
Y26094D01*
X864663Y28115D01*
X863608Y29170D01*
X863258Y30000D01*
X863608Y30830D01*
X864663Y31885D01*
X865500Y33906D01*
Y36094D01*
X864663Y38115D01*
X863608Y39170D01*
X863258Y40000D01*
X863608Y40830D01*
X864663Y41884D01*
X865500Y43906D01*
Y46094D01*
X864663Y48116D01*
X863608Y49170D01*
X863258Y50000D01*
X863608Y50830D01*
X864663Y51884D01*
X865500Y53906D01*
Y56094D01*
X864663Y58116D01*
X863608Y59170D01*
X863258Y60000D01*
X863608Y60830D01*
X864663Y61884D01*
X865500Y63906D01*
Y66094D01*
X864663Y68116D01*
X863608Y69170D01*
X863258Y70000D01*
X863608Y70830D01*
X864663Y71884D01*
X865500Y73906D01*
Y76094D01*
X864663Y78116D01*
X863608Y79170D01*
X863258Y80000D01*
X863608Y80830D01*
X864663Y81884D01*
X865500Y83906D01*
Y86094D01*
X864663Y88116D01*
X863608Y89170D01*
X863258Y90000D01*
X863608Y90830D01*
X864663Y91884D01*
X865500Y93906D01*
Y96094D01*
X864663Y98116D01*
X863608Y99170D01*
X863258Y100000D01*
X863608Y100830D01*
X864663Y101884D01*
X865500Y103906D01*
Y106094D01*
X864663Y108116D01*
X863608Y109170D01*
X863258Y110000D01*
X863608Y110830D01*
X864663Y111884D01*
X865500Y113906D01*
Y116094D01*
X864663Y118116D01*
X863115Y119663D01*
X861094Y120500D01*
D02*
G37*
G36*
X846094Y130500D02*
X843906D01*
X841885Y129663D01*
X840337Y128116D01*
X839500Y126094D01*
Y123906D01*
X840337Y121884D01*
X841392Y120830D01*
X841742Y120000D01*
X841392Y119170D01*
X840337Y118116D01*
X839500Y116094D01*
Y113906D01*
X840337Y111884D01*
X841392Y110830D01*
X841742Y110000D01*
X841392Y109170D01*
X840337Y108116D01*
X839500Y106094D01*
Y103906D01*
X840337Y101884D01*
X841392Y100830D01*
X841742Y100000D01*
X841392Y99170D01*
X840337Y98116D01*
X839500Y96094D01*
Y93906D01*
X840337Y91884D01*
X841392Y90830D01*
X841742Y90000D01*
X841392Y89170D01*
X840337Y88116D01*
X839500Y86094D01*
Y83906D01*
X840337Y81884D01*
X841392Y80830D01*
X841742Y80000D01*
X841392Y79170D01*
X840337Y78116D01*
X839500Y76094D01*
Y73906D01*
X840337Y71884D01*
X841392Y70830D01*
X841742Y70000D01*
X841392Y69170D01*
X840337Y68116D01*
X839500Y66094D01*
Y63906D01*
X840337Y61884D01*
X841392Y60830D01*
X841742Y60000D01*
X841392Y59170D01*
X840337Y58116D01*
X839500Y56094D01*
Y53906D01*
X840337Y51884D01*
X841392Y50830D01*
X841742Y50000D01*
X841392Y49170D01*
X840337Y48116D01*
X839500Y46094D01*
Y43906D01*
X840337Y41884D01*
X841392Y40830D01*
X841742Y40000D01*
X841392Y39170D01*
X840337Y38115D01*
X839500Y36094D01*
Y33906D01*
X840337Y31885D01*
X841392Y30830D01*
X841742Y30000D01*
X841392Y29170D01*
X840337Y28115D01*
X839500Y26094D01*
Y23906D01*
X840337Y21885D01*
X841885Y20337D01*
X843906Y19500D01*
X846094D01*
X848115Y20337D01*
X849663Y21885D01*
X850500Y23906D01*
Y26094D01*
X849663Y28115D01*
X848608Y29170D01*
X848258Y30000D01*
X848608Y30830D01*
X849663Y31885D01*
X850500Y33906D01*
Y36094D01*
X849663Y38115D01*
X848608Y39170D01*
X848258Y40000D01*
X848608Y40830D01*
X849663Y41884D01*
X850500Y43906D01*
Y46094D01*
X849663Y48116D01*
X848608Y49170D01*
X848258Y50000D01*
X848608Y50830D01*
X849663Y51884D01*
X850500Y53906D01*
Y56094D01*
X849663Y58116D01*
X848608Y59170D01*
X848258Y60000D01*
X848608Y60830D01*
X849663Y61884D01*
X850500Y63906D01*
Y66094D01*
X849663Y68116D01*
X848608Y69170D01*
X848258Y70000D01*
X848608Y70830D01*
X849663Y71884D01*
X850500Y73906D01*
Y76094D01*
X849663Y78116D01*
X848608Y79170D01*
X848258Y80000D01*
X848608Y80830D01*
X849663Y81884D01*
X850500Y83906D01*
Y86094D01*
X849663Y88116D01*
X848608Y89170D01*
X848258Y90000D01*
X848608Y90830D01*
X849663Y91884D01*
X850500Y93906D01*
Y96094D01*
X849663Y98116D01*
X848608Y99170D01*
X848258Y100000D01*
X848608Y100830D01*
X849663Y101884D01*
X850500Y103906D01*
Y106094D01*
X849663Y108116D01*
X848608Y109170D01*
X848258Y110000D01*
X848608Y110830D01*
X849663Y111884D01*
X850500Y113906D01*
Y116094D01*
X849663Y118116D01*
X848608Y119170D01*
X848258Y120000D01*
X848608Y120830D01*
X849663Y121884D01*
X850500Y123906D01*
Y126094D01*
X849663Y128116D01*
X848115Y129663D01*
X846094Y130500D01*
D02*
G37*
G36*
X831094Y40500D02*
X828906D01*
X826885Y39663D01*
X825337Y38115D01*
X824500Y36094D01*
Y33906D01*
X825337Y31885D01*
X826392Y30830D01*
X826742Y30000D01*
X826392Y29170D01*
X825337Y28115D01*
X824500Y26094D01*
Y23906D01*
X825337Y21885D01*
X826885Y20337D01*
X828906Y19500D01*
X831094D01*
X833115Y20337D01*
X834663Y21885D01*
X835500Y23906D01*
Y26094D01*
X834663Y28115D01*
X833608Y29170D01*
X833258Y30000D01*
X833608Y30830D01*
X834663Y31885D01*
X835500Y33906D01*
Y36094D01*
X834663Y38115D01*
X833115Y39663D01*
X831094Y40500D01*
D02*
G37*
G36*
X816094D02*
X813906D01*
X811885Y39663D01*
X810337Y38115D01*
X809500Y36094D01*
Y33906D01*
X810337Y31885D01*
X811392Y30830D01*
X811742Y30000D01*
X811392Y29170D01*
X810337Y28115D01*
X809500Y26094D01*
Y23906D01*
X810337Y21885D01*
X811885Y20337D01*
X813906Y19500D01*
X816094D01*
X818115Y20337D01*
X819663Y21885D01*
X820500Y23906D01*
Y26094D01*
X819663Y28115D01*
X818608Y29170D01*
X818258Y30000D01*
X818608Y30830D01*
X819663Y31885D01*
X820500Y33906D01*
Y36094D01*
X819663Y38115D01*
X818115Y39663D01*
X816094Y40500D01*
D02*
G37*
G36*
X791094D02*
X788906D01*
X786885Y39663D01*
X785337Y38115D01*
X784500Y36094D01*
Y33906D01*
X785337Y31885D01*
X786392Y30830D01*
X786742Y30000D01*
X786392Y29170D01*
X785337Y28115D01*
X784500Y26094D01*
Y23906D01*
X785337Y21885D01*
X786885Y20337D01*
X788906Y19500D01*
X791094D01*
X793115Y20337D01*
X794663Y21885D01*
X795500Y23906D01*
Y26094D01*
X794663Y28115D01*
X793608Y29170D01*
X793258Y30000D01*
X793608Y30830D01*
X794663Y31885D01*
X795500Y33906D01*
Y36094D01*
X794663Y38115D01*
X793115Y39663D01*
X791094Y40500D01*
D02*
G37*
G36*
X776094D02*
X773906D01*
X771885Y39663D01*
X770337Y38115D01*
X769500Y36094D01*
Y33906D01*
X770337Y31885D01*
X771392Y30830D01*
X771742Y30000D01*
X771392Y29170D01*
X770337Y28115D01*
X769500Y26094D01*
Y23906D01*
X770337Y21885D01*
X771885Y20337D01*
X773906Y19500D01*
X776094D01*
X778115Y20337D01*
X779663Y21885D01*
X780500Y23906D01*
Y26094D01*
X779663Y28115D01*
X778608Y29170D01*
X778258Y30000D01*
X778608Y30830D01*
X779663Y31885D01*
X780500Y33906D01*
Y36094D01*
X779663Y38115D01*
X778115Y39663D01*
X776094Y40500D01*
D02*
G37*
G36*
X761094Y130500D02*
X758906D01*
X756885Y129663D01*
X755337Y128116D01*
X754500Y126094D01*
Y123906D01*
X755337Y121884D01*
X756392Y120830D01*
X756742Y120000D01*
X756392Y119170D01*
X755337Y118116D01*
X754500Y116094D01*
Y113906D01*
X755337Y111884D01*
X756392Y110830D01*
X756742Y110000D01*
X756392Y109170D01*
X755337Y108116D01*
X754500Y106094D01*
Y103906D01*
X755337Y101884D01*
X756392Y100830D01*
X756742Y100000D01*
X756392Y99170D01*
X755337Y98116D01*
X754500Y96094D01*
Y93906D01*
X755337Y91884D01*
X756392Y90830D01*
X756742Y90000D01*
X756392Y89170D01*
X755337Y88116D01*
X754500Y86094D01*
Y83906D01*
X755337Y81884D01*
X756392Y80830D01*
X756742Y80000D01*
X756392Y79170D01*
X755337Y78116D01*
X754500Y76094D01*
Y73906D01*
X755337Y71884D01*
X756392Y70830D01*
X756742Y70000D01*
X756392Y69170D01*
X755337Y68116D01*
X754500Y66094D01*
Y63906D01*
X755337Y61884D01*
X756392Y60830D01*
X756742Y60000D01*
X756392Y59170D01*
X755337Y58116D01*
X754500Y56094D01*
Y53906D01*
X755337Y51884D01*
X756392Y50830D01*
X756742Y50000D01*
X756392Y49170D01*
X755337Y48116D01*
X754500Y46094D01*
Y43906D01*
X755337Y41884D01*
X756392Y40830D01*
X756742Y40000D01*
X756392Y39170D01*
X755337Y38115D01*
X754500Y36094D01*
Y33906D01*
X755337Y31885D01*
X756392Y30830D01*
X756742Y30000D01*
X756392Y29170D01*
X755337Y28115D01*
X754500Y26094D01*
Y23906D01*
X755337Y21885D01*
X756885Y20337D01*
X758906Y19500D01*
X761094D01*
X763115Y20337D01*
X764663Y21885D01*
X765500Y23906D01*
Y26094D01*
X764663Y28115D01*
X763608Y29170D01*
X763258Y30000D01*
X763608Y30830D01*
X764663Y31885D01*
X765500Y33906D01*
Y36094D01*
X764663Y38115D01*
X763608Y39170D01*
X763258Y40000D01*
X763608Y40830D01*
X764663Y41884D01*
X765500Y43906D01*
Y46094D01*
X764663Y48116D01*
X763608Y49170D01*
X763258Y50000D01*
X763608Y50830D01*
X764663Y51884D01*
X765500Y53906D01*
Y56094D01*
X764663Y58116D01*
X763608Y59170D01*
X763258Y60000D01*
X763608Y60830D01*
X764663Y61884D01*
X765500Y63906D01*
Y66094D01*
X764663Y68116D01*
X763608Y69170D01*
X763258Y70000D01*
X763608Y70830D01*
X764663Y71884D01*
X765500Y73906D01*
Y76094D01*
X764663Y78116D01*
X763608Y79170D01*
X763258Y80000D01*
X763608Y80830D01*
X764663Y81884D01*
X765500Y83906D01*
Y86094D01*
X764663Y88116D01*
X763608Y89170D01*
X763258Y90000D01*
X763608Y90830D01*
X764663Y91884D01*
X765500Y93906D01*
Y96094D01*
X764663Y98116D01*
X763608Y99170D01*
X763258Y100000D01*
X763608Y100830D01*
X764663Y101884D01*
X765500Y103906D01*
Y106094D01*
X764663Y108116D01*
X763608Y109170D01*
X763258Y110000D01*
X763608Y110830D01*
X764663Y111884D01*
X765500Y113906D01*
Y116094D01*
X764663Y118116D01*
X763608Y119170D01*
X763258Y120000D01*
X763608Y120830D01*
X764663Y121884D01*
X765500Y123906D01*
Y126094D01*
X764663Y128116D01*
X763115Y129663D01*
X761094Y130500D01*
D02*
G37*
G36*
X746094Y70500D02*
X743906D01*
X741885Y69663D01*
X740337Y68116D01*
X739500Y66094D01*
Y63906D01*
X740337Y61884D01*
X741392Y60830D01*
X741742Y60000D01*
X741392Y59170D01*
X740337Y58116D01*
X739500Y56094D01*
Y53906D01*
X740337Y51884D01*
X741392Y50830D01*
X741742Y50000D01*
X741392Y49170D01*
X740337Y48116D01*
X739500Y46094D01*
Y43906D01*
X740337Y41884D01*
X741392Y40830D01*
X741742Y40000D01*
X741392Y39170D01*
X740337Y38115D01*
X739500Y36094D01*
Y33906D01*
X740337Y31885D01*
X741392Y30830D01*
X741742Y30000D01*
X741392Y29170D01*
X740337Y28115D01*
X739500Y26094D01*
Y23906D01*
X740337Y21885D01*
X741885Y20337D01*
X743906Y19500D01*
X746094D01*
X748115Y20337D01*
X749663Y21885D01*
X750500Y23906D01*
Y26094D01*
X749663Y28115D01*
X748608Y29170D01*
X748258Y30000D01*
X748608Y30830D01*
X749663Y31885D01*
X750500Y33906D01*
Y36094D01*
X749663Y38115D01*
X748608Y39170D01*
X748258Y40000D01*
X748608Y40830D01*
X749663Y41884D01*
X750500Y43906D01*
Y46094D01*
X749663Y48116D01*
X748608Y49170D01*
X748258Y50000D01*
X748608Y50830D01*
X749663Y51884D01*
X750500Y53906D01*
Y56094D01*
X749663Y58116D01*
X748608Y59170D01*
X748258Y60000D01*
X748608Y60830D01*
X749663Y61884D01*
X750500Y63906D01*
Y66094D01*
X749663Y68116D01*
X748115Y69663D01*
X746094Y70500D01*
D02*
G37*
G36*
X731094D02*
X728906D01*
X726885Y69663D01*
X725337Y68116D01*
X724500Y66094D01*
Y63906D01*
X725337Y61884D01*
X726392Y60830D01*
X726742Y60000D01*
X726392Y59170D01*
X725337Y58116D01*
X724500Y56094D01*
Y53906D01*
X725337Y51884D01*
X726392Y50830D01*
X726742Y50000D01*
X726392Y49170D01*
X725337Y48116D01*
X724500Y46094D01*
Y43906D01*
X725337Y41884D01*
X726392Y40830D01*
X726742Y40000D01*
X726392Y39170D01*
X725337Y38115D01*
X724500Y36094D01*
Y33906D01*
X725337Y31885D01*
X726392Y30830D01*
X726742Y30000D01*
X726392Y29170D01*
X725337Y28115D01*
X724500Y26094D01*
Y23906D01*
X725337Y21885D01*
X726885Y20337D01*
X728906Y19500D01*
X731094D01*
X733115Y20337D01*
X734663Y21885D01*
X735500Y23906D01*
Y26094D01*
X734663Y28115D01*
X733608Y29170D01*
X733258Y30000D01*
X733608Y30830D01*
X734663Y31885D01*
X735500Y33906D01*
Y36094D01*
X734663Y38115D01*
X733608Y39170D01*
X733258Y40000D01*
X733608Y40830D01*
X734663Y41884D01*
X735500Y43906D01*
Y46094D01*
X734663Y48116D01*
X733608Y49170D01*
X733258Y50000D01*
X733608Y50830D01*
X734663Y51884D01*
X735500Y53906D01*
Y56094D01*
X734663Y58116D01*
X733608Y59170D01*
X733258Y60000D01*
X733608Y60830D01*
X734663Y61884D01*
X735500Y63906D01*
Y66094D01*
X734663Y68116D01*
X733115Y69663D01*
X731094Y70500D01*
D02*
G37*
G36*
X474148Y41000D02*
X471252D01*
X468454Y40250D01*
X465946Y38802D01*
X463898Y36754D01*
X462450Y34246D01*
X461700Y31448D01*
Y28552D01*
X462450Y25754D01*
X463898Y23246D01*
X465946Y21198D01*
X468454Y19750D01*
X471252Y19000D01*
X474148D01*
X476946Y19750D01*
X479454Y21198D01*
X481502Y23246D01*
X482950Y25754D01*
X483700Y28552D01*
Y31448D01*
X482950Y34246D01*
X481502Y36754D01*
X479454Y38802D01*
X476946Y40250D01*
X474148Y41000D01*
D02*
G37*
G36*
X448748D02*
X445852D01*
X443054Y40250D01*
X440546Y38802D01*
X438498Y36754D01*
X437050Y34246D01*
X436300Y31448D01*
Y28552D01*
X437050Y25754D01*
X438498Y23246D01*
X440546Y21198D01*
X443054Y19750D01*
X445852Y19000D01*
X448748D01*
X451546Y19750D01*
X454054Y21198D01*
X456102Y23246D01*
X457550Y25754D01*
X458300Y28552D01*
Y31448D01*
X457550Y34246D01*
X456102Y36754D01*
X454054Y38802D01*
X451546Y40250D01*
X448748Y41000D01*
D02*
G37*
%LPD*%
D18*
X505000Y62300D02*
D03*
Y87700D02*
D03*
X471700Y129000D02*
D03*
X446300D02*
D03*
X447300Y30000D02*
D03*
X472700D02*
D03*
X70075Y37500D02*
D03*
Y112430D02*
D03*
D19*
X139925Y37500D02*
D03*
Y87500D02*
D03*
Y62500D02*
D03*
D20*
Y112500D02*
D03*
D21*
X802500Y75000D02*
D03*
D22*
X1616002Y96000D02*
D03*
Y88000D02*
D03*
Y80000D02*
D03*
Y72000D02*
D03*
Y64000D02*
D03*
Y56000D02*
D03*
X1408002Y8000D02*
D03*
X1400002Y16000D02*
D03*
Y8000D02*
D03*
X1392002D02*
D03*
X1240002D02*
D03*
X1232001Y16000D02*
D03*
Y8000D02*
D03*
X1224001D02*
D03*
X1072001D02*
D03*
X1064001Y16000D02*
D03*
Y8000D02*
D03*
X1056001D02*
D03*
X-8000Y104000D02*
D03*
Y96000D02*
D03*
Y88000D02*
D03*
Y80000D02*
D03*
Y72000D02*
D03*
Y64000D02*
D03*
Y56000D02*
D03*
Y48000D02*
D03*
X324000Y64000D02*
D03*
X335000D02*
D03*
X346000D02*
D03*
X324000Y75000D02*
D03*
X335000D02*
D03*
X346000D02*
D03*
X324000Y86000D02*
D03*
X335000D02*
D03*
X346000D02*
D03*
X30000Y35000D02*
D03*
Y45000D02*
D03*
Y55000D02*
D03*
Y65000D02*
D03*
Y75000D02*
D03*
Y85000D02*
D03*
Y95000D02*
D03*
Y105000D02*
D03*
Y115000D02*
D03*
Y125000D02*
D03*
Y25000D02*
D03*
X20000Y115000D02*
D03*
Y105000D02*
D03*
Y95000D02*
D03*
Y85000D02*
D03*
Y75000D02*
D03*
Y55000D02*
D03*
Y45000D02*
D03*
X10000Y55000D02*
D03*
Y65000D02*
D03*
Y75000D02*
D03*
Y85000D02*
D03*
Y95000D02*
D03*
Y105000D02*
D03*
X30000Y135000D02*
D03*
X20000Y125000D02*
D03*
X10000Y115000D02*
D03*
X20000Y65000D02*
D03*
Y35000D02*
D03*
X10000Y45000D02*
D03*
D23*
X702418Y137582D02*
D03*
X430000Y75000D02*
D03*
X313401Y138250D02*
D03*
X370000Y134500D02*
D03*
X290000Y135000D02*
D03*
X845000Y125000D02*
D03*
X830000D02*
D03*
X815000D02*
D03*
Y115000D02*
D03*
X830000D02*
D03*
X845000D02*
D03*
X830000Y105000D02*
D03*
X845000D02*
D03*
X860000D02*
D03*
X845000Y95000D02*
D03*
X860000D02*
D03*
X875000D02*
D03*
X845000Y85000D02*
D03*
X860000D02*
D03*
X875000D02*
D03*
X845000Y75000D02*
D03*
X860000D02*
D03*
X875000D02*
D03*
X845000Y65000D02*
D03*
X860000D02*
D03*
X875000D02*
D03*
X845000Y55000D02*
D03*
X860000D02*
D03*
X875000D02*
D03*
X845000Y45000D02*
D03*
X860000D02*
D03*
X875000D02*
D03*
X845000Y35000D02*
D03*
X860000D02*
D03*
X875000D02*
D03*
X845000Y25000D02*
D03*
X860000D02*
D03*
X875000D02*
D03*
X860000Y115000D02*
D03*
X830000Y25000D02*
D03*
Y35000D02*
D03*
X815000Y25000D02*
D03*
Y35000D02*
D03*
X790000D02*
D03*
Y25000D02*
D03*
X775000Y35000D02*
D03*
Y25000D02*
D03*
X730000D02*
D03*
X745000D02*
D03*
X760000D02*
D03*
X730000Y35000D02*
D03*
X745000D02*
D03*
X760000D02*
D03*
X730000Y45000D02*
D03*
X745000D02*
D03*
X760000D02*
D03*
X730000Y55000D02*
D03*
X745000D02*
D03*
X760000D02*
D03*
X730000Y65000D02*
D03*
X745000D02*
D03*
X760000D02*
D03*
Y75000D02*
D03*
Y85000D02*
D03*
Y95000D02*
D03*
Y105000D02*
D03*
X775000D02*
D03*
X760000Y115000D02*
D03*
X775000D02*
D03*
X790000D02*
D03*
Y125000D02*
D03*
X775000D02*
D03*
X760000D02*
D03*
X1595000Y35000D02*
D03*
X1585000D02*
D03*
Y25000D02*
D03*
X1575000Y35000D02*
D03*
Y25000D02*
D03*
Y15000D02*
D03*
Y45000D02*
D03*
X1585000D02*
D03*
X1595000D02*
D03*
X1575000Y55000D02*
D03*
X1585000D02*
D03*
X1595000D02*
D03*
X1575000Y65000D02*
D03*
X1585000D02*
D03*
X1595000D02*
D03*
X1575000Y75000D02*
D03*
X1585000D02*
D03*
X1595000D02*
D03*
X1575000Y85000D02*
D03*
X1585000D02*
D03*
X1595000D02*
D03*
X1575000Y95000D02*
D03*
X1585000D02*
D03*
X1595000D02*
D03*
X1575000Y105000D02*
D03*
X1585000D02*
D03*
X1595000D02*
D03*
Y115000D02*
D03*
X1585000D02*
D03*
X1575000D02*
D03*
X1585000Y125000D02*
D03*
X1575000D02*
D03*
Y135000D02*
D03*
X350000Y35000D02*
D03*
X340000D02*
D03*
X330000D02*
D03*
Y25000D02*
D03*
X340000D02*
D03*
X350000D02*
D03*
Y15000D02*
D03*
X340000D02*
D03*
X330000D02*
D03*
X335000Y120000D02*
D03*
X802500Y102500D02*
D03*
X782500Y95000D02*
D03*
X775000Y75000D02*
D03*
X782500Y55000D02*
D03*
X802500Y47500D02*
D03*
X822500Y55000D02*
D03*
X830000Y75000D02*
D03*
X822500Y95000D02*
D03*
M02*
