G04*
G04 #@! TF.GenerationSoftware,Altium Limited,Altium Designer,23.0.1 (38)*
G04*
G04 Layer_Color=128*
%FSLAX44Y44*%
%MOMM*%
G71*
G04*
G04 #@! TF.SameCoordinates,5FDB3813-EBBD-42B4-A80F-D19D9E75F149*
G04*
G04*
G04 #@! TF.FilePolarity,Positive*
G04*
G01*
G75*
%ADD54C,0.1270*%
D54*
X499500Y62300D02*
X510500D01*
X505000Y56800D02*
Y67800D01*
X499500Y87700D02*
X510500D01*
X505000Y82200D02*
Y93200D01*
X466200Y129000D02*
X477200D01*
X471700Y123500D02*
Y134500D01*
X440800Y129000D02*
X451800D01*
X446300Y123500D02*
Y134500D01*
X441800Y30000D02*
X452800D01*
X447300Y24500D02*
Y35500D01*
X467200Y30000D02*
X478200D01*
X472700Y24500D02*
Y35500D01*
X61075Y37500D02*
X79075D01*
X70075Y28500D02*
Y46500D01*
X61075Y112430D02*
X79075D01*
X70075Y103430D02*
Y121430D01*
X133925Y37500D02*
X145925D01*
X139925Y31500D02*
Y43500D01*
X133925Y112500D02*
X145925D01*
X139925Y106500D02*
Y118500D01*
X133925Y87500D02*
X145925D01*
X139925Y81500D02*
Y93500D01*
X133925Y62500D02*
X145925D01*
X139925Y56500D02*
Y68500D01*
X786500Y75000D02*
X818500D01*
X802500Y59000D02*
Y91000D01*
X1615002Y96000D02*
X1617002D01*
X1616002Y95000D02*
Y97000D01*
X1615002Y88000D02*
X1617002D01*
X1616002Y87000D02*
Y89000D01*
X1615002Y80000D02*
X1617002D01*
X1616002Y79000D02*
Y81000D01*
X1615002Y72000D02*
X1617002D01*
X1616002Y71000D02*
Y73000D01*
X1615002Y64000D02*
X1617002D01*
X1616002Y63000D02*
Y65000D01*
X1615002Y56000D02*
X1617002D01*
X1616002Y55000D02*
Y57000D01*
X1407002Y8000D02*
X1409002D01*
X1408002Y7000D02*
Y9000D01*
X1399002Y16000D02*
X1401002D01*
X1400002Y15000D02*
Y17000D01*
X1399002Y8000D02*
X1401002D01*
X1400002Y7000D02*
Y9000D01*
X1391002Y8000D02*
X1393002D01*
X1392002Y7000D02*
Y9000D01*
X1239001Y8000D02*
X1241002D01*
X1240002Y7000D02*
Y9000D01*
X1231001Y16000D02*
X1233001D01*
X1232001Y15000D02*
Y17000D01*
X1231001Y8000D02*
X1233001D01*
X1232001Y7000D02*
Y9000D01*
X1223001Y8000D02*
X1225001D01*
X1224001Y7000D02*
Y9000D01*
X1071001Y8000D02*
X1073001D01*
X1072001Y7000D02*
Y9000D01*
X1063001Y16000D02*
X1065001D01*
X1064001Y15000D02*
Y17000D01*
X1063001Y8000D02*
X1065001D01*
X1064001Y7000D02*
Y9000D01*
X1055001Y8000D02*
X1057001D01*
X1056001Y7000D02*
Y9000D01*
X-9000Y104000D02*
X-7000D01*
X-8000Y103000D02*
Y105000D01*
X-9000Y96000D02*
X-7000D01*
X-8000Y95000D02*
Y97000D01*
X-9000Y88000D02*
X-7000D01*
X-8000Y87000D02*
Y89000D01*
X-9000Y80000D02*
X-7000D01*
X-8000Y79000D02*
Y81000D01*
X-9000Y72000D02*
X-7000D01*
X-8000Y71000D02*
Y73000D01*
X-9000Y64000D02*
X-7000D01*
X-8000Y63000D02*
Y65000D01*
X-9000Y56000D02*
X-7000D01*
X-8000Y55000D02*
Y57000D01*
X-9000Y48000D02*
X-7000D01*
X-8000Y47000D02*
Y49000D01*
X700918Y137582D02*
X703918D01*
X702418Y136082D02*
Y139082D01*
X428500Y75000D02*
X431500D01*
X430000Y73500D02*
Y76500D01*
X311901Y138250D02*
X314901D01*
X313401Y136750D02*
Y139750D01*
X368500Y134500D02*
X371500D01*
X370000Y133000D02*
Y136000D01*
X323000Y64000D02*
X325000D01*
X324000Y63000D02*
Y65000D01*
X334000Y64000D02*
X336000D01*
X335000Y63000D02*
Y65000D01*
X345000Y64000D02*
X347000D01*
X346000Y63000D02*
Y65000D01*
X323000Y75000D02*
X325000D01*
X324000Y74000D02*
Y76000D01*
X334000Y75000D02*
X336000D01*
X335000Y74000D02*
Y76000D01*
X345000Y75000D02*
X347000D01*
X346000Y74000D02*
Y76000D01*
X323000Y86000D02*
X325000D01*
X324000Y85000D02*
Y87000D01*
X334000Y86000D02*
X336000D01*
X335000Y85000D02*
Y87000D01*
X345000Y86000D02*
X347000D01*
X346000Y85000D02*
Y87000D01*
X288500Y135000D02*
X291500D01*
X290000Y133500D02*
Y136500D01*
X843500Y125000D02*
X846500D01*
X845000Y123500D02*
Y126500D01*
X828500Y125000D02*
X831500D01*
X830000Y123500D02*
Y126500D01*
X813500Y125000D02*
X816500D01*
X815000Y123500D02*
Y126500D01*
X813500Y115000D02*
X816500D01*
X815000Y113500D02*
Y116500D01*
X828500Y115000D02*
X831500D01*
X830000Y113500D02*
Y116500D01*
X843500Y115000D02*
X846500D01*
X845000Y113500D02*
Y116500D01*
X828500Y105000D02*
X831500D01*
X830000Y103500D02*
Y106500D01*
X843500Y105000D02*
X846500D01*
X845000Y103500D02*
Y106500D01*
X858500Y105000D02*
X861500D01*
X860000Y103500D02*
Y106500D01*
X843500Y95000D02*
X846500D01*
X845000Y93500D02*
Y96500D01*
X858500Y95000D02*
X861500D01*
X860000Y93500D02*
Y96500D01*
X873500Y95000D02*
X876500D01*
X875000Y93500D02*
Y96500D01*
X843500Y85000D02*
X846500D01*
X845000Y83500D02*
Y86500D01*
X858500Y85000D02*
X861500D01*
X860000Y83500D02*
Y86500D01*
X873500Y85000D02*
X876500D01*
X875000Y83500D02*
Y86500D01*
X843500Y75000D02*
X846500D01*
X845000Y73500D02*
Y76500D01*
X858500Y75000D02*
X861500D01*
X860000Y73500D02*
Y76500D01*
X873500Y75000D02*
X876500D01*
X875000Y73500D02*
Y76500D01*
X843500Y65000D02*
X846500D01*
X845000Y63500D02*
Y66500D01*
X858500Y65000D02*
X861500D01*
X860000Y63500D02*
Y66500D01*
X873500Y65000D02*
X876500D01*
X875000Y63500D02*
Y66500D01*
X843500Y55000D02*
X846500D01*
X845000Y53500D02*
Y56500D01*
X858500Y55000D02*
X861500D01*
X860000Y53500D02*
Y56500D01*
X873500Y55000D02*
X876500D01*
X875000Y53500D02*
Y56500D01*
X843500Y45000D02*
X846500D01*
X845000Y43500D02*
Y46500D01*
X858500Y45000D02*
X861500D01*
X860000Y43500D02*
Y46500D01*
X873500Y45000D02*
X876500D01*
X875000Y43500D02*
Y46500D01*
X843500Y35000D02*
X846500D01*
X845000Y33500D02*
Y36500D01*
X858500Y35000D02*
X861500D01*
X860000Y33500D02*
Y36500D01*
X873500Y35000D02*
X876500D01*
X875000Y33500D02*
Y36500D01*
X843500Y25000D02*
X846500D01*
X845000Y23500D02*
Y26500D01*
X858500Y25000D02*
X861500D01*
X860000Y23500D02*
Y26500D01*
X873500Y25000D02*
X876500D01*
X875000Y23500D02*
Y26500D01*
X858500Y115000D02*
X861500D01*
X860000Y113500D02*
Y116500D01*
X828500Y25000D02*
X831500D01*
X830000Y23500D02*
Y26500D01*
X828500Y35000D02*
X831500D01*
X830000Y33500D02*
Y36500D01*
X813500Y25000D02*
X816500D01*
X815000Y23500D02*
Y26500D01*
X813500Y35000D02*
X816500D01*
X815000Y33500D02*
Y36500D01*
X788500Y35000D02*
X791500D01*
X790000Y33500D02*
Y36500D01*
X788500Y25000D02*
X791500D01*
X790000Y23500D02*
Y26500D01*
X773500Y35000D02*
X776500D01*
X775000Y33500D02*
Y36500D01*
X773500Y25000D02*
X776500D01*
X775000Y23500D02*
Y26500D01*
X728500Y25000D02*
X731500D01*
X730000Y23500D02*
Y26500D01*
X743500Y25000D02*
X746500D01*
X745000Y23500D02*
Y26500D01*
X758500Y25000D02*
X761500D01*
X760000Y23500D02*
Y26500D01*
X728500Y35000D02*
X731500D01*
X730000Y33500D02*
Y36500D01*
X743500Y35000D02*
X746500D01*
X745000Y33500D02*
Y36500D01*
X758500Y35000D02*
X761500D01*
X760000Y33500D02*
Y36500D01*
X728500Y45000D02*
X731500D01*
X730000Y43500D02*
Y46500D01*
X743500Y45000D02*
X746500D01*
X745000Y43500D02*
Y46500D01*
X758500Y45000D02*
X761500D01*
X760000Y43500D02*
Y46500D01*
X728500Y55000D02*
X731500D01*
X730000Y53500D02*
Y56500D01*
X743500Y55000D02*
X746500D01*
X745000Y53500D02*
Y56500D01*
X758500Y55000D02*
X761500D01*
X760000Y53500D02*
Y56500D01*
X728500Y65000D02*
X731500D01*
X730000Y63500D02*
Y66500D01*
X743500Y65000D02*
X746500D01*
X745000Y63500D02*
Y66500D01*
X758500Y65000D02*
X761500D01*
X760000Y63500D02*
Y66500D01*
X758500Y75000D02*
X761500D01*
X760000Y73500D02*
Y76500D01*
X758500Y85000D02*
X761500D01*
X760000Y83500D02*
Y86500D01*
X758500Y95000D02*
X761500D01*
X760000Y93500D02*
Y96500D01*
X758500Y105000D02*
X761500D01*
X760000Y103500D02*
Y106500D01*
X773500Y105000D02*
X776500D01*
X775000Y103500D02*
Y106500D01*
X758500Y115000D02*
X761500D01*
X760000Y113500D02*
Y116500D01*
X773500Y115000D02*
X776500D01*
X775000Y113500D02*
Y116500D01*
X788500Y115000D02*
X791500D01*
X790000Y113500D02*
Y116500D01*
X788500Y125000D02*
X791500D01*
X790000Y123500D02*
Y126500D01*
X773500Y125000D02*
X776500D01*
X775000Y123500D02*
Y126500D01*
X758500Y125000D02*
X761500D01*
X760000Y123500D02*
Y126500D01*
X1593500Y35000D02*
X1596500D01*
X1595000Y33500D02*
Y36500D01*
X1583500Y35000D02*
X1586500D01*
X1585000Y33500D02*
Y36500D01*
X1583500Y25000D02*
X1586500D01*
X1585000Y23500D02*
Y26500D01*
X1573500Y35000D02*
X1576500D01*
X1575000Y33500D02*
Y36500D01*
X1573500Y25000D02*
X1576500D01*
X1575000Y23500D02*
Y26500D01*
X1573500Y15000D02*
X1576500D01*
X1575000Y13500D02*
Y16500D01*
X1573500Y45000D02*
X1576500D01*
X1575000Y43500D02*
Y46500D01*
X1583500Y45000D02*
X1586500D01*
X1585000Y43500D02*
Y46500D01*
X1593500Y45000D02*
X1596500D01*
X1595000Y43500D02*
Y46500D01*
X1573500Y55000D02*
X1576500D01*
X1575000Y53500D02*
Y56500D01*
X1583500Y55000D02*
X1586500D01*
X1585000Y53500D02*
Y56500D01*
X1593500Y55000D02*
X1596500D01*
X1595000Y53500D02*
Y56500D01*
X1573500Y65000D02*
X1576500D01*
X1575000Y63500D02*
Y66500D01*
X1583500Y65000D02*
X1586500D01*
X1585000Y63500D02*
Y66500D01*
X1593500Y65000D02*
X1596500D01*
X1595000Y63500D02*
Y66500D01*
X1573500Y75000D02*
X1576500D01*
X1575000Y73500D02*
Y76500D01*
X1583500Y75000D02*
X1586500D01*
X1585000Y73500D02*
Y76500D01*
X1593500Y75000D02*
X1596500D01*
X1595000Y73500D02*
Y76500D01*
X1573500Y85000D02*
X1576500D01*
X1575000Y83500D02*
Y86500D01*
X1583500Y85000D02*
X1586500D01*
X1585000Y83500D02*
Y86500D01*
X1593500Y85000D02*
X1596500D01*
X1595000Y83500D02*
Y86500D01*
X1573500Y95000D02*
X1576500D01*
X1575000Y93500D02*
Y96500D01*
X1583500Y95000D02*
X1586500D01*
X1585000Y93500D02*
Y96500D01*
X1593500Y95000D02*
X1596500D01*
X1595000Y93500D02*
Y96500D01*
X1573500Y105000D02*
X1576500D01*
X1575000Y103500D02*
Y106500D01*
X1583500Y105000D02*
X1586500D01*
X1585000Y103500D02*
Y106500D01*
X1593500Y105000D02*
X1596500D01*
X1595000Y103500D02*
Y106500D01*
X1593500Y115000D02*
X1596500D01*
X1595000Y113500D02*
Y116500D01*
X1583500Y115000D02*
X1586500D01*
X1585000Y113500D02*
Y116500D01*
X1573500Y115000D02*
X1576500D01*
X1575000Y113500D02*
Y116500D01*
X1583500Y125000D02*
X1586500D01*
X1585000Y123500D02*
Y126500D01*
X1573500Y125000D02*
X1576500D01*
X1575000Y123500D02*
Y126500D01*
X1573500Y135000D02*
X1576500D01*
X1575000Y133500D02*
Y136500D01*
X348500Y35000D02*
X351500D01*
X350000Y33500D02*
Y36500D01*
X338500Y35000D02*
X341500D01*
X340000Y33500D02*
Y36500D01*
X328500Y35000D02*
X331500D01*
X330000Y33500D02*
Y36500D01*
X328500Y25000D02*
X331500D01*
X330000Y23500D02*
Y26500D01*
X338500Y25000D02*
X341500D01*
X340000Y23500D02*
Y26500D01*
X348500Y25000D02*
X351500D01*
X350000Y23500D02*
Y26500D01*
X348500Y15000D02*
X351500D01*
X350000Y13500D02*
Y16500D01*
X338500Y15000D02*
X341500D01*
X340000Y13500D02*
Y16500D01*
X328500Y15000D02*
X331500D01*
X330000Y13500D02*
Y16500D01*
X29000Y35000D02*
X31000D01*
X30000Y34000D02*
Y36000D01*
X29000Y45000D02*
X31000D01*
X30000Y44000D02*
Y46000D01*
X29000Y55000D02*
X31000D01*
X30000Y54000D02*
Y56000D01*
X29000Y65000D02*
X31000D01*
X30000Y64000D02*
Y66000D01*
X29000Y75000D02*
X31000D01*
X30000Y74000D02*
Y76000D01*
X29000Y85000D02*
X31000D01*
X30000Y84000D02*
Y86000D01*
X29000Y95000D02*
X31000D01*
X30000Y94000D02*
Y96000D01*
X29000Y105000D02*
X31000D01*
X30000Y104000D02*
Y106000D01*
X29000Y115000D02*
X31000D01*
X30000Y114000D02*
Y116000D01*
X29000Y125000D02*
X31000D01*
X30000Y124000D02*
Y126000D01*
X29000Y25000D02*
X31000D01*
X30000Y24000D02*
Y26000D01*
X19000Y115000D02*
X21000D01*
X20000Y114000D02*
Y116000D01*
X19000Y105000D02*
X21000D01*
X20000Y104000D02*
Y106000D01*
X19000Y95000D02*
X21000D01*
X20000Y94000D02*
Y96000D01*
X19000Y85000D02*
X21000D01*
X20000Y84000D02*
Y86000D01*
X19000Y75000D02*
X21000D01*
X20000Y74000D02*
Y76000D01*
X19000Y55000D02*
X21000D01*
X20000Y54000D02*
Y56000D01*
X19000Y45000D02*
X21000D01*
X20000Y44000D02*
Y46000D01*
X9000Y55000D02*
X11000D01*
X10000Y54000D02*
Y56000D01*
X9000Y65000D02*
X11000D01*
X10000Y64000D02*
Y66000D01*
X9000Y75000D02*
X11000D01*
X10000Y74000D02*
Y76000D01*
X9000Y85000D02*
X11000D01*
X10000Y84000D02*
Y86000D01*
X9000Y95000D02*
X11000D01*
X10000Y94000D02*
Y96000D01*
X9000Y105000D02*
X11000D01*
X10000Y104000D02*
Y106000D01*
X29000Y135000D02*
X31000D01*
X30000Y134000D02*
Y136000D01*
X19000Y125000D02*
X21000D01*
X20000Y124000D02*
Y126000D01*
X9000Y115000D02*
X11000D01*
X10000Y114000D02*
Y116000D01*
X19000Y65000D02*
X21000D01*
X20000Y64000D02*
Y66000D01*
X19000Y35000D02*
X21000D01*
X20000Y34000D02*
Y36000D01*
X9000Y45000D02*
X11000D01*
X10000Y44000D02*
Y46000D01*
X333500Y120000D02*
X336500D01*
X335000Y118500D02*
Y121500D01*
X800000Y102500D02*
X805000D01*
X802500Y100000D02*
Y105000D01*
X780000Y95000D02*
X785000D01*
X782500Y92500D02*
Y97500D01*
X772500Y75000D02*
X777500D01*
X775000Y72500D02*
Y77500D01*
X780000Y55000D02*
X785000D01*
X782500Y52500D02*
Y57500D01*
X800000Y47500D02*
X805000D01*
X802500Y45000D02*
Y50000D01*
X820000Y55000D02*
X825000D01*
X822500Y52500D02*
Y57500D01*
X827500Y75000D02*
X832500D01*
X830000Y72500D02*
Y77500D01*
X820000Y95000D02*
X825000D01*
X822500Y92500D02*
Y97500D01*
M02*
