G04*
G04 #@! TF.GenerationSoftware,Altium Limited,Altium Designer,23.0.1 (38)*
G04*
G04 Layer_Color=8388736*
%FSLAX44Y44*%
%MOMM*%
G71*
G04*
G04 #@! TF.SameCoordinates,5FDB3813-EBBD-42B4-A80F-D19D9E75F149*
G04*
G04*
G04 #@! TF.FilePolarity,Positive*
G04*
G01*
G75*
%ADD10C,0.1000*%
%ADD52C,0.0500*%
D10*
X1053148Y75000D02*
X1063148D01*
X1058149Y70000D02*
Y80000D01*
X371420Y75000D02*
X381420D01*
X376420Y70000D02*
Y80000D01*
X1569445Y70000D02*
Y80000D01*
X1564445Y75000D02*
X1574445D01*
X1399013Y70000D02*
Y80000D01*
X1394013Y75000D02*
X1404013D01*
X1228581Y70000D02*
Y80000D01*
X1223581Y75000D02*
X1233581D01*
X887716Y70000D02*
Y80000D01*
X882716Y75000D02*
X892716D01*
X717284Y70000D02*
Y80000D01*
X712284Y75000D02*
X722284D01*
X546852Y70000D02*
Y80000D01*
X541852Y75000D02*
X551852D01*
X205988Y70000D02*
Y80000D01*
X200988Y75000D02*
X210988D01*
X35556Y70000D02*
Y80000D01*
X30556Y75000D02*
X40556D01*
X1076898Y84252D02*
Y91250D01*
X1073400D01*
X1072233Y90084D01*
Y85419D01*
X1073400Y84252D01*
X1076898D01*
X1069901D02*
X1065236D01*
Y85419D01*
X1069901Y90084D01*
Y91250D01*
X395170Y84252D02*
Y91250D01*
X391671D01*
X390505Y90084D01*
Y85419D01*
X391671Y84252D01*
X395170D01*
X388172Y85419D02*
X387006Y84252D01*
X384673D01*
X383507Y85419D01*
Y86585D01*
X384673Y87751D01*
X385840D01*
X384673D01*
X383507Y88917D01*
Y90084D01*
X384673Y91250D01*
X387006D01*
X388172Y90084D01*
X1588195Y84252D02*
Y91250D01*
X1584696D01*
X1583530Y90084D01*
Y85419D01*
X1584696Y84252D01*
X1588195D01*
X1581197Y91250D02*
X1578865D01*
X1580031D01*
Y84252D01*
X1581197Y85419D01*
X1575366D02*
X1574199Y84252D01*
X1571867D01*
X1570701Y85419D01*
Y90084D01*
X1571867Y91250D01*
X1574199D01*
X1575366Y90084D01*
Y85419D01*
X1417763Y84252D02*
Y91250D01*
X1414264D01*
X1413098Y90084D01*
Y85419D01*
X1414264Y84252D01*
X1417763D01*
X1410765Y90084D02*
X1409599Y91250D01*
X1407266D01*
X1406100Y90084D01*
Y85419D01*
X1407266Y84252D01*
X1409599D01*
X1410765Y85419D01*
Y86585D01*
X1409599Y87751D01*
X1406100D01*
X1247331Y84252D02*
Y91250D01*
X1243832D01*
X1242665Y90084D01*
Y85419D01*
X1243832Y84252D01*
X1247331D01*
X1240333Y85419D02*
X1239167Y84252D01*
X1236834D01*
X1235668Y85419D01*
Y86585D01*
X1236834Y87751D01*
X1235668Y88917D01*
Y90084D01*
X1236834Y91250D01*
X1239167D01*
X1240333Y90084D01*
Y88917D01*
X1239167Y87751D01*
X1240333Y86585D01*
Y85419D01*
X1239167Y87751D02*
X1236834D01*
X906466Y84252D02*
Y91250D01*
X902968D01*
X901801Y90084D01*
Y85419D01*
X902968Y84252D01*
X906466D01*
X894803D02*
X897136Y85419D01*
X899469Y87751D01*
Y90084D01*
X898302Y91250D01*
X895970D01*
X894803Y90084D01*
Y88917D01*
X895970Y87751D01*
X899469D01*
X736034Y84252D02*
Y91250D01*
X732535D01*
X731369Y90084D01*
Y85419D01*
X732535Y84252D01*
X736034D01*
X724371D02*
X729036D01*
Y87751D01*
X726704Y86585D01*
X725538D01*
X724371Y87751D01*
Y90084D01*
X725538Y91250D01*
X727870D01*
X729036Y90084D01*
X565602Y84252D02*
Y91250D01*
X562103D01*
X560937Y90084D01*
Y85419D01*
X562103Y84252D01*
X565602D01*
X555106Y91250D02*
Y84252D01*
X558604Y87751D01*
X553939D01*
X224738Y84252D02*
Y91250D01*
X221239D01*
X220073Y90084D01*
Y85419D01*
X221239Y84252D01*
X224738D01*
X213075Y91250D02*
X217740D01*
X213075Y86585D01*
Y85419D01*
X214241Y84252D01*
X216574D01*
X217740Y85419D01*
X54306Y84252D02*
Y91250D01*
X50807D01*
X49641Y90084D01*
Y85419D01*
X50807Y84252D01*
X54306D01*
X47308Y91250D02*
X44975D01*
X46142D01*
Y84252D01*
X47308Y85419D01*
D52*
X1041648Y92250D02*
X1074399D01*
X1041648Y57749D02*
X1074399D01*
X1041648D02*
Y92250D01*
X1074399Y57749D02*
Y92250D01*
X1077648Y55500D02*
Y94500D01*
X1038649Y55500D02*
Y94500D01*
Y55500D02*
X1077648D01*
X1038649Y94500D02*
X1077648D01*
X359919Y92250D02*
X392670D01*
X359919Y57749D02*
X392670D01*
X359919D02*
Y92250D01*
X392670Y57749D02*
Y92250D01*
X395920Y55500D02*
Y94500D01*
X356920Y55500D02*
Y94500D01*
Y55500D02*
X395920D01*
X356920Y94500D02*
X395920D01*
X1549945D02*
X1588945D01*
X1549945Y55500D02*
X1588945D01*
X1549945D02*
Y94500D01*
X1588945Y55500D02*
Y94500D01*
X1585695Y57749D02*
Y92250D01*
X1552944Y57749D02*
Y92250D01*
Y57749D02*
X1585695D01*
X1552944Y92250D02*
X1585695D01*
X1379513Y94500D02*
X1418513D01*
X1379513Y55500D02*
X1418513D01*
X1379513D02*
Y94500D01*
X1418513Y55500D02*
Y94500D01*
X1415263Y57749D02*
Y92250D01*
X1382512Y57749D02*
Y92250D01*
Y57749D02*
X1415263D01*
X1382512Y92250D02*
X1415263D01*
X1209081Y94500D02*
X1248081D01*
X1209081Y55500D02*
X1248081D01*
X1209081D02*
Y94500D01*
X1248081Y55500D02*
Y94500D01*
X1244831Y57749D02*
Y92250D01*
X1212080Y57749D02*
Y92250D01*
Y57749D02*
X1244831D01*
X1212080Y92250D02*
X1244831D01*
X868216Y94500D02*
X907216D01*
X868216Y55500D02*
X907216D01*
X868216D02*
Y94500D01*
X907216Y55500D02*
Y94500D01*
X903966Y57749D02*
Y92250D01*
X871216Y57749D02*
Y92250D01*
Y57749D02*
X903966D01*
X871216Y92250D02*
X903966D01*
X697784Y94500D02*
X736784D01*
X697784Y55500D02*
X736784D01*
X697784D02*
Y94500D01*
X736784Y55500D02*
Y94500D01*
X733534Y57749D02*
Y92250D01*
X700783Y57749D02*
Y92250D01*
Y57749D02*
X733534D01*
X700783Y92250D02*
X733534D01*
X527352Y94500D02*
X566352D01*
X527352Y55500D02*
X566352D01*
X527352D02*
Y94500D01*
X566352Y55500D02*
Y94500D01*
X563102Y57749D02*
Y92250D01*
X530351Y57749D02*
Y92250D01*
Y57749D02*
X563102D01*
X530351Y92250D02*
X563102D01*
X186488Y94500D02*
X225488D01*
X186488Y55500D02*
X225488D01*
X186488D02*
Y94500D01*
X225488Y55500D02*
Y94500D01*
X222238Y57749D02*
Y92250D01*
X189487Y57749D02*
Y92250D01*
Y57749D02*
X222238D01*
X189487Y92250D02*
X222238D01*
X16056Y94500D02*
X55056D01*
X16056Y55500D02*
X55056D01*
X16056D02*
Y94500D01*
X55056Y55500D02*
Y94500D01*
X51806Y57749D02*
Y92250D01*
X19055Y57749D02*
Y92250D01*
Y57749D02*
X51806D01*
X19055Y92250D02*
X51806D01*
M02*
