G04*
G04 #@! TF.GenerationSoftware,Altium Limited,Altium Designer,23.0.1 (38)*
G04*
G04 Layer_Color=5220458*
%FSLAX44Y44*%
%MOMM*%
G71*
G04*
G04 #@! TF.SameCoordinates,DD02D24A-ECAD-49B1-A5EA-FBFF5525FC4D*
G04*
G04*
G04 #@! TF.FilePolarity,Positive*
G04*
G01*
G75*
%ADD39C,0.2500*%
%ADD40C,0.2000*%
G36*
X1186478Y89020D02*
X1186561Y88992D01*
X1186672Y88853D01*
X1186728Y88687D01*
Y88659D01*
Y88631D01*
Y86910D01*
X1186700Y86771D01*
X1186672Y86660D01*
X1186617Y86605D01*
X1186533Y86549D01*
X1186395Y86494D01*
X1184590D01*
X1184451Y86521D01*
X1184368Y86549D01*
X1184257Y86716D01*
X1184201Y86854D01*
Y86882D01*
Y86910D01*
Y88659D01*
X1184229Y88798D01*
X1184257Y88881D01*
X1184396Y88992D01*
X1184535Y89048D01*
X1186339D01*
X1186478Y89020D01*
D02*
G37*
G36*
X1270014D02*
X1270153Y88992D01*
X1270347Y88853D01*
X1270459Y88715D01*
X1270486Y88687D01*
Y88659D01*
X1271375Y86882D01*
X1271430Y86743D01*
Y86632D01*
X1271402Y86577D01*
X1271347Y86521D01*
X1271236Y86466D01*
X1269903D01*
X1269681Y86494D01*
X1269487Y86605D01*
X1269376Y86688D01*
X1269348Y86716D01*
X1267738Y88631D01*
X1267654Y88742D01*
Y88826D01*
Y88881D01*
Y88909D01*
X1267710Y88992D01*
X1267821Y89020D01*
X1267904Y89048D01*
X1269875D01*
X1270014Y89020D01*
D02*
G37*
G36*
X1125207Y85161D02*
X1125318Y85133D01*
X1125373Y85050D01*
X1125429Y84994D01*
X1125484Y84828D01*
Y84800D01*
Y84772D01*
Y75416D01*
X1125456Y75278D01*
X1125429Y75167D01*
X1125346Y75111D01*
X1125262Y75055D01*
X1125123Y75000D01*
X1123374D01*
X1123235Y75028D01*
X1123124Y75055D01*
X1123041Y75139D01*
X1122986Y75222D01*
X1122930Y75361D01*
Y75389D01*
Y75416D01*
Y81468D01*
X1122902Y81746D01*
X1122875Y81968D01*
X1122791Y82190D01*
X1122708Y82357D01*
X1122486Y82635D01*
X1122236Y82801D01*
X1121986Y82912D01*
X1121792Y82968D01*
X1121625Y82996D01*
X1120626D01*
X1120432Y82940D01*
X1120265Y82912D01*
X1120154Y82857D01*
X1120043Y82801D01*
X1119987Y82773D01*
X1119932Y82718D01*
X1119849Y82607D01*
X1119765Y82468D01*
X1119682Y82163D01*
X1119654Y82024D01*
Y81913D01*
Y81830D01*
Y81802D01*
Y75416D01*
X1119626Y75278D01*
X1119599Y75167D01*
X1119515Y75111D01*
X1119432Y75055D01*
X1119293Y75000D01*
X1117572D01*
X1117433Y75028D01*
X1117322Y75055D01*
X1117239Y75139D01*
X1117183Y75222D01*
X1117128Y75361D01*
Y75389D01*
Y75416D01*
Y81913D01*
X1117156Y82496D01*
X1117267Y82996D01*
X1117405Y83440D01*
X1117628Y83801D01*
X1117850Y84134D01*
X1118127Y84384D01*
X1118405Y84606D01*
X1118682Y84772D01*
X1118988Y84911D01*
X1119266Y85022D01*
X1119543Y85078D01*
X1119765Y85133D01*
X1119987Y85161D01*
X1120126Y85189D01*
X1120903D01*
X1121431Y85133D01*
X1121847Y85022D01*
X1122208Y84855D01*
X1122458Y84661D01*
X1122653Y84439D01*
X1122791Y84272D01*
X1122847Y84162D01*
X1122875Y84106D01*
X1122930D01*
Y84772D01*
X1122958Y84911D01*
X1122986Y85022D01*
X1123069Y85078D01*
X1123152Y85133D01*
X1123291Y85189D01*
X1125068D01*
X1125207Y85161D01*
D02*
G37*
G36*
X1323956Y85161D02*
X1324067Y85133D01*
X1324123Y85050D01*
X1324178Y84994D01*
X1324234Y84828D01*
Y84800D01*
Y84772D01*
Y75416D01*
X1324206Y75278D01*
X1324178Y75167D01*
X1324095Y75111D01*
X1324012Y75055D01*
X1323873Y75000D01*
X1322124D01*
X1321985Y75028D01*
X1321874Y75055D01*
X1321791Y75139D01*
X1321735Y75222D01*
X1321680Y75361D01*
Y75389D01*
Y75416D01*
Y81413D01*
X1321652Y81691D01*
X1321624Y81941D01*
X1321541Y82135D01*
X1321458Y82329D01*
X1321374Y82496D01*
X1321236Y82607D01*
X1320986Y82801D01*
X1320736Y82912D01*
X1320542Y82968D01*
X1320375Y82996D01*
X1318793D01*
X1318681Y83023D01*
X1318654Y83051D01*
X1318626D01*
X1318570Y83134D01*
X1318543Y83245D01*
Y83356D01*
Y83384D01*
Y84772D01*
X1318570Y84911D01*
X1318598Y85022D01*
X1318654Y85078D01*
X1318737Y85133D01*
X1318876Y85189D01*
X1319653D01*
X1320097Y85133D01*
X1320292Y85105D01*
X1320486Y85050D01*
X1320625Y84994D01*
X1320736Y84967D01*
X1320819Y84911D01*
X1320847D01*
X1321041Y84800D01*
X1321208Y84661D01*
X1321347Y84522D01*
X1321430Y84384D01*
X1321513Y84273D01*
X1321569Y84162D01*
X1321624Y84106D01*
Y84078D01*
X1321680D01*
Y84772D01*
X1321707Y84911D01*
X1321735Y85022D01*
X1321819Y85078D01*
X1321902Y85133D01*
X1322041Y85189D01*
X1323817D01*
X1323956Y85161D01*
D02*
G37*
G36*
X1306633D02*
X1306744Y85133D01*
X1306799Y85050D01*
X1306855Y84994D01*
X1306910Y84828D01*
Y84800D01*
Y84772D01*
Y75416D01*
X1306882Y75278D01*
X1306855Y75167D01*
X1306772Y75111D01*
X1306688Y75055D01*
X1306549Y75000D01*
X1304800D01*
X1304662Y75028D01*
X1304550Y75055D01*
X1304467Y75139D01*
X1304412Y75222D01*
X1304356Y75361D01*
Y75389D01*
Y75416D01*
Y81413D01*
X1304328Y81691D01*
X1304301Y81941D01*
X1304217Y82135D01*
X1304134Y82329D01*
X1304051Y82496D01*
X1303912Y82607D01*
X1303662Y82801D01*
X1303412Y82912D01*
X1303218Y82968D01*
X1303051Y82996D01*
X1301469D01*
X1301358Y83023D01*
X1301330Y83051D01*
X1301302D01*
X1301247Y83134D01*
X1301219Y83245D01*
Y83356D01*
Y83384D01*
Y84772D01*
X1301247Y84911D01*
X1301275Y85022D01*
X1301330Y85078D01*
X1301413Y85133D01*
X1301552Y85189D01*
X1302330D01*
X1302774Y85133D01*
X1302968Y85105D01*
X1303162Y85050D01*
X1303301Y84994D01*
X1303412Y84967D01*
X1303495Y84911D01*
X1303523D01*
X1303718Y84800D01*
X1303884Y84661D01*
X1304023Y84522D01*
X1304106Y84384D01*
X1304190Y84273D01*
X1304245Y84162D01*
X1304301Y84106D01*
Y84078D01*
X1304356D01*
Y84772D01*
X1304384Y84911D01*
X1304412Y85022D01*
X1304495Y85078D01*
X1304578Y85133D01*
X1304717Y85189D01*
X1306494D01*
X1306633Y85161D01*
D02*
G37*
G36*
X1264268Y85161D02*
X1264379Y85133D01*
X1264434Y85050D01*
X1264490Y84994D01*
X1264545Y84828D01*
Y84800D01*
Y84772D01*
Y75416D01*
X1264517Y75278D01*
X1264490Y75167D01*
X1264406Y75111D01*
X1264323Y75055D01*
X1264184Y75000D01*
X1262435D01*
X1262296Y75028D01*
X1262185Y75055D01*
X1262102Y75139D01*
X1262047Y75222D01*
X1261991Y75361D01*
Y75389D01*
Y75416D01*
Y81413D01*
X1261963Y81691D01*
X1261936Y81940D01*
X1261852Y82135D01*
X1261769Y82329D01*
X1261686Y82496D01*
X1261547Y82607D01*
X1261297Y82801D01*
X1261047Y82912D01*
X1260853Y82968D01*
X1260686Y82996D01*
X1259104D01*
X1258993Y83023D01*
X1258965Y83051D01*
X1258937D01*
X1258882Y83134D01*
X1258854Y83245D01*
Y83356D01*
Y83384D01*
Y84772D01*
X1258882Y84911D01*
X1258909Y85022D01*
X1258965Y85078D01*
X1259048Y85133D01*
X1259187Y85189D01*
X1259964D01*
X1260409Y85133D01*
X1260603Y85105D01*
X1260797Y85050D01*
X1260936Y84994D01*
X1261047Y84967D01*
X1261130Y84911D01*
X1261158D01*
X1261352Y84800D01*
X1261519Y84661D01*
X1261658Y84522D01*
X1261741Y84384D01*
X1261824Y84273D01*
X1261880Y84162D01*
X1261936Y84106D01*
Y84078D01*
X1261991D01*
Y84772D01*
X1262019Y84911D01*
X1262047Y85022D01*
X1262130Y85078D01*
X1262213Y85133D01*
X1262352Y85189D01*
X1264129D01*
X1264268Y85161D01*
D02*
G37*
G36*
X1076817Y87798D02*
X1077317Y87687D01*
X1077733Y87576D01*
X1078066Y87410D01*
X1078344Y87271D01*
X1078538Y87132D01*
X1078677Y87021D01*
X1078705Y86993D01*
X1078983Y86660D01*
X1079205Y86271D01*
X1079343Y85883D01*
X1079455Y85494D01*
X1079510Y85133D01*
X1079538Y84855D01*
X1079566Y84745D01*
Y84661D01*
Y84633D01*
Y84606D01*
Y83912D01*
X1079538Y83773D01*
X1079482Y83662D01*
X1079427Y83606D01*
X1079343Y83551D01*
X1079177Y83495D01*
X1077428D01*
X1077289Y83523D01*
X1077178Y83551D01*
X1077122Y83634D01*
X1077067Y83717D01*
X1077011Y83856D01*
Y83884D01*
Y83912D01*
Y84550D01*
Y84772D01*
X1076984Y84967D01*
X1076928Y85105D01*
X1076873Y85244D01*
X1076845Y85328D01*
X1076789Y85383D01*
X1076762Y85438D01*
X1076651Y85522D01*
X1076512Y85605D01*
X1076206Y85688D01*
X1076068Y85716D01*
X1074929D01*
X1074735Y85661D01*
X1074568Y85633D01*
X1074430Y85577D01*
X1074319Y85522D01*
X1074263Y85494D01*
X1074208Y85438D01*
X1074097Y85328D01*
X1074041Y85189D01*
X1073930Y84911D01*
Y84772D01*
X1073902Y84661D01*
Y84578D01*
Y84550D01*
Y83967D01*
X1073930Y83662D01*
X1074041Y83356D01*
X1074180Y83079D01*
X1074346Y82829D01*
X1074541Y82635D01*
X1074679Y82496D01*
X1074790Y82385D01*
X1074818Y82357D01*
X1078483Y79248D01*
X1078816Y78942D01*
X1079066Y78609D01*
X1079232Y78276D01*
X1079343Y77970D01*
X1079427Y77721D01*
X1079455Y77498D01*
X1079482Y77360D01*
Y77304D01*
Y75416D01*
X1079455Y75278D01*
X1079427Y75167D01*
X1079343Y75111D01*
X1079260Y75055D01*
X1079121Y75000D01*
X1071848D01*
X1071709Y75028D01*
X1071598Y75055D01*
X1071542Y75139D01*
X1071487Y75222D01*
X1071431Y75361D01*
Y75389D01*
Y75416D01*
Y76804D01*
X1071459Y76943D01*
X1071487Y77054D01*
X1071570Y77110D01*
X1071626Y77165D01*
X1071792Y77221D01*
X1076623D01*
Y77554D01*
X1076595Y77721D01*
X1076512Y77887D01*
X1076429Y77998D01*
X1076401Y78026D01*
X1072625Y81219D01*
X1072403Y81413D01*
X1072236Y81635D01*
X1071931Y82052D01*
X1071709Y82496D01*
X1071570Y82884D01*
X1071487Y83245D01*
X1071459Y83551D01*
X1071431Y83662D01*
Y83745D01*
Y83773D01*
Y83801D01*
Y84606D01*
X1071459Y85161D01*
X1071570Y85633D01*
X1071709Y86049D01*
X1071848Y86383D01*
X1072014Y86660D01*
X1072153Y86827D01*
X1072264Y86966D01*
X1072292Y86993D01*
X1072653Y87271D01*
X1073042Y87465D01*
X1073430Y87632D01*
X1073847Y87715D01*
X1074180Y87771D01*
X1074485Y87826D01*
X1076262D01*
X1076817Y87798D01*
D02*
G37*
G36*
X1056245D02*
X1056745Y87687D01*
X1057161Y87576D01*
X1057495Y87410D01*
X1057772Y87271D01*
X1057967Y87132D01*
X1058105Y87021D01*
X1058133Y86993D01*
X1058411Y86660D01*
X1058633Y86271D01*
X1058772Y85883D01*
X1058883Y85494D01*
X1058938Y85133D01*
X1058966Y84855D01*
X1058994Y84745D01*
Y84661D01*
Y84633D01*
Y84606D01*
Y83912D01*
X1058966Y83773D01*
X1058911Y83662D01*
X1058855Y83606D01*
X1058772Y83551D01*
X1058605Y83495D01*
X1056856D01*
X1056717Y83523D01*
X1056606Y83551D01*
X1056551Y83634D01*
X1056495Y83717D01*
X1056440Y83856D01*
Y83884D01*
Y83912D01*
Y84550D01*
Y84772D01*
X1056412Y84967D01*
X1056356Y85105D01*
X1056301Y85244D01*
X1056273Y85328D01*
X1056218Y85383D01*
X1056190Y85438D01*
X1056079Y85522D01*
X1055940Y85605D01*
X1055635Y85688D01*
X1055496Y85716D01*
X1054358D01*
X1054163Y85661D01*
X1053997Y85633D01*
X1053858Y85577D01*
X1053747Y85522D01*
X1053691Y85494D01*
X1053636Y85438D01*
X1053525Y85328D01*
X1053469Y85189D01*
X1053358Y84911D01*
Y84772D01*
X1053330Y84661D01*
Y84578D01*
Y84550D01*
Y83967D01*
X1053358Y83662D01*
X1053469Y83356D01*
X1053608Y83079D01*
X1053774Y82829D01*
X1053969Y82635D01*
X1054108Y82496D01*
X1054219Y82385D01*
X1054247Y82357D01*
X1057911Y79248D01*
X1058244Y78942D01*
X1058494Y78609D01*
X1058661Y78276D01*
X1058772Y77970D01*
X1058855Y77721D01*
X1058883Y77498D01*
X1058911Y77360D01*
Y77304D01*
Y75416D01*
X1058883Y75278D01*
X1058855Y75167D01*
X1058772Y75111D01*
X1058688Y75055D01*
X1058550Y75000D01*
X1051276D01*
X1051137Y75028D01*
X1051026Y75055D01*
X1050971Y75139D01*
X1050915Y75222D01*
X1050860Y75361D01*
Y75389D01*
Y75416D01*
Y76804D01*
X1050887Y76943D01*
X1050915Y77054D01*
X1050998Y77110D01*
X1051054Y77165D01*
X1051220Y77221D01*
X1056051D01*
Y77554D01*
X1056023Y77721D01*
X1055940Y77887D01*
X1055857Y77998D01*
X1055829Y78026D01*
X1052053Y81219D01*
X1051831Y81413D01*
X1051665Y81635D01*
X1051359Y82052D01*
X1051137Y82496D01*
X1050998Y82884D01*
X1050915Y83245D01*
X1050887Y83551D01*
X1050860Y83662D01*
Y83745D01*
Y83773D01*
Y83801D01*
Y84606D01*
X1050887Y85161D01*
X1050998Y85633D01*
X1051137Y86049D01*
X1051276Y86383D01*
X1051442Y86660D01*
X1051581Y86827D01*
X1051692Y86966D01*
X1051720Y86993D01*
X1052081Y87271D01*
X1052470Y87465D01*
X1052858Y87632D01*
X1053275Y87715D01*
X1053608Y87771D01*
X1053913Y87826D01*
X1055690D01*
X1056245Y87798D01*
D02*
G37*
G36*
X1046390D02*
X1046889Y87687D01*
X1047306Y87576D01*
X1047639Y87410D01*
X1047917Y87271D01*
X1048111Y87132D01*
X1048250Y87021D01*
X1048278Y86993D01*
X1048555Y86660D01*
X1048777Y86271D01*
X1048916Y85883D01*
X1049027Y85494D01*
X1049083Y85133D01*
X1049110Y84855D01*
X1049138Y84745D01*
Y84661D01*
Y84633D01*
Y84606D01*
Y83912D01*
X1049110Y83773D01*
X1049055Y83662D01*
X1048999Y83606D01*
X1048916Y83551D01*
X1048750Y83495D01*
X1047001D01*
X1046862Y83523D01*
X1046751Y83551D01*
X1046695Y83634D01*
X1046640Y83717D01*
X1046584Y83856D01*
Y83884D01*
Y83912D01*
Y84550D01*
Y84772D01*
X1046556Y84967D01*
X1046501Y85105D01*
X1046445Y85244D01*
X1046417Y85328D01*
X1046362Y85383D01*
X1046334Y85438D01*
X1046223Y85522D01*
X1046084Y85605D01*
X1045779Y85688D01*
X1045640Y85716D01*
X1044502D01*
X1044308Y85661D01*
X1044141Y85633D01*
X1044002Y85577D01*
X1043891Y85522D01*
X1043836Y85494D01*
X1043780Y85438D01*
X1043669Y85328D01*
X1043614Y85189D01*
X1043503Y84911D01*
Y84772D01*
X1043475Y84661D01*
Y84578D01*
Y84550D01*
Y83967D01*
X1043503Y83662D01*
X1043614Y83356D01*
X1043752Y83079D01*
X1043919Y82829D01*
X1044113Y82635D01*
X1044252Y82496D01*
X1044363Y82385D01*
X1044391Y82357D01*
X1048055Y79248D01*
X1048389Y78942D01*
X1048639Y78609D01*
X1048805Y78276D01*
X1048916Y77970D01*
X1048999Y77721D01*
X1049027Y77498D01*
X1049055Y77360D01*
Y77304D01*
Y75416D01*
X1049027Y75278D01*
X1048999Y75167D01*
X1048916Y75111D01*
X1048833Y75055D01*
X1048694Y75000D01*
X1041420D01*
X1041282Y75028D01*
X1041171Y75055D01*
X1041115Y75139D01*
X1041059Y75222D01*
X1041004Y75361D01*
Y75389D01*
Y75416D01*
Y76804D01*
X1041032Y76943D01*
X1041059Y77054D01*
X1041143Y77110D01*
X1041198Y77165D01*
X1041365Y77221D01*
X1046195D01*
Y77554D01*
X1046168Y77721D01*
X1046084Y77887D01*
X1046001Y77998D01*
X1045973Y78026D01*
X1042198Y81219D01*
X1041976Y81413D01*
X1041809Y81635D01*
X1041504Y82052D01*
X1041282Y82496D01*
X1041143Y82884D01*
X1041059Y83245D01*
X1041032Y83551D01*
X1041004Y83662D01*
Y83745D01*
Y83773D01*
Y83801D01*
Y84606D01*
X1041032Y85161D01*
X1041143Y85633D01*
X1041282Y86049D01*
X1041420Y86383D01*
X1041587Y86660D01*
X1041726Y86827D01*
X1041837Y86966D01*
X1041864Y86993D01*
X1042225Y87271D01*
X1042614Y87465D01*
X1043003Y87632D01*
X1043419Y87715D01*
X1043752Y87771D01*
X1044058Y87826D01*
X1045835D01*
X1046390Y87798D01*
D02*
G37*
G36*
X1089976Y82357D02*
X1090088Y82329D01*
X1090143Y82246D01*
X1090199Y82163D01*
X1090254Y82024D01*
Y81968D01*
Y81940D01*
Y80774D01*
X1090226Y80636D01*
X1090199Y80525D01*
X1090115Y80441D01*
X1090032Y80386D01*
X1089893Y80330D01*
X1086034D01*
X1085895Y80358D01*
X1085784Y80414D01*
X1085729Y80469D01*
X1085673Y80552D01*
X1085618Y80719D01*
Y80747D01*
Y80774D01*
Y81940D01*
X1085646Y82079D01*
X1085673Y82190D01*
X1085757Y82274D01*
X1085812Y82329D01*
X1085979Y82385D01*
X1089838D01*
X1089976Y82357D01*
D02*
G37*
G36*
X1196778Y85161D02*
X1196861Y85133D01*
X1196916Y85050D01*
X1196944Y84994D01*
Y84828D01*
Y84800D01*
Y84772D01*
X1194446Y75416D01*
X1194390Y75278D01*
X1194307Y75167D01*
X1194196Y75111D01*
X1194112Y75055D01*
X1193946Y75000D01*
X1191364D01*
X1191197Y75028D01*
X1191086Y75055D01*
X1190975Y75139D01*
X1190920Y75222D01*
X1190836Y75361D01*
X1190809Y75389D01*
Y75416D01*
X1188282Y84772D01*
X1188255Y84911D01*
X1188282Y85022D01*
X1188338Y85078D01*
X1188393Y85133D01*
X1188532Y85189D01*
X1190365D01*
X1190503Y85161D01*
X1190614Y85133D01*
X1190781Y84994D01*
X1190836Y84828D01*
X1190864Y84800D01*
Y84772D01*
X1192530Y77249D01*
X1192669D01*
X1194390Y84772D01*
X1194446Y84911D01*
X1194501Y85022D01*
X1194584Y85078D01*
X1194668Y85133D01*
X1194807Y85189D01*
X1196639D01*
X1196778Y85161D01*
D02*
G37*
G36*
X1342251Y87798D02*
X1342751Y87687D01*
X1343168Y87576D01*
X1343501Y87410D01*
X1343779Y87271D01*
X1343973Y87132D01*
X1344112Y87021D01*
X1344139Y86993D01*
X1344417Y86660D01*
X1344639Y86271D01*
X1344778Y85855D01*
X1344889Y85466D01*
X1344944Y85133D01*
X1344972Y84828D01*
X1345000Y84717D01*
Y84661D01*
Y84606D01*
Y84578D01*
Y78248D01*
X1344972Y77693D01*
X1344861Y77193D01*
X1344722Y76777D01*
X1344556Y76444D01*
X1344417Y76194D01*
X1344278Y75999D01*
X1344167Y75861D01*
X1344139Y75833D01*
X1343779Y75555D01*
X1343390Y75361D01*
X1343001Y75194D01*
X1342585Y75111D01*
X1342251Y75055D01*
X1341946Y75028D01*
X1341835Y75000D01*
X1339586D01*
X1339031Y75028D01*
X1338559Y75139D01*
X1338143Y75278D01*
X1337782Y75416D01*
X1337532Y75583D01*
X1337338Y75694D01*
X1337199Y75805D01*
X1337171Y75833D01*
X1336893Y76194D01*
X1336671Y76582D01*
X1336532Y76971D01*
X1336422Y77360D01*
X1336366Y77721D01*
X1336310Y77998D01*
Y78109D01*
Y78193D01*
Y78220D01*
Y78248D01*
Y81580D01*
X1336338Y81746D01*
X1336366Y81857D01*
X1336449Y81941D01*
X1336532Y81996D01*
X1336671Y82052D01*
X1340253D01*
X1340392Y82024D01*
X1340502Y81996D01*
X1340558Y81913D01*
X1340614Y81857D01*
X1340669Y81691D01*
Y81663D01*
Y81635D01*
Y80275D01*
X1340641Y80136D01*
X1340614Y80025D01*
X1340530Y79942D01*
X1340447Y79886D01*
X1340308Y79831D01*
X1339059D01*
X1338920Y79803D01*
X1338865Y79747D01*
X1338837Y79664D01*
Y79636D01*
Y78359D01*
Y78137D01*
X1338892Y77943D01*
X1338920Y77776D01*
X1338976Y77665D01*
X1339031Y77554D01*
X1339059Y77499D01*
X1339114Y77471D01*
Y77443D01*
X1339225Y77360D01*
X1339364Y77304D01*
X1339642Y77221D01*
X1339781D01*
X1339892Y77193D01*
X1341530D01*
X1341696Y77221D01*
X1341863Y77277D01*
X1341974Y77332D01*
X1342085Y77360D01*
X1342141Y77415D01*
X1342196Y77443D01*
X1342279Y77554D01*
X1342335Y77693D01*
X1342418Y77998D01*
Y78137D01*
X1342446Y78248D01*
Y78331D01*
Y78359D01*
Y84467D01*
Y84689D01*
X1342418Y84883D01*
X1342363Y85022D01*
X1342307Y85161D01*
X1342279Y85244D01*
X1342224Y85300D01*
X1342196Y85355D01*
X1342085Y85439D01*
X1341946Y85522D01*
X1341641Y85605D01*
X1341502Y85633D01*
X1339781D01*
X1339586Y85577D01*
X1339448Y85550D01*
X1339309Y85494D01*
X1339225Y85439D01*
X1339170Y85411D01*
X1339114Y85355D01*
X1339031Y85244D01*
X1338948Y85105D01*
X1338865Y84828D01*
X1338837Y84689D01*
Y84578D01*
Y84495D01*
Y84467D01*
Y83995D01*
X1338809Y83856D01*
X1338781Y83745D01*
X1338698Y83662D01*
X1338615Y83606D01*
X1338476Y83551D01*
X1336727D01*
X1336588Y83579D01*
X1336477Y83634D01*
X1336422Y83690D01*
X1336366Y83773D01*
X1336310Y83939D01*
Y83967D01*
Y83995D01*
Y84578D01*
X1336338Y85133D01*
X1336449Y85605D01*
X1336588Y86022D01*
X1336727Y86355D01*
X1336893Y86632D01*
X1337032Y86799D01*
X1337143Y86938D01*
X1337171Y86966D01*
X1337532Y87243D01*
X1337921Y87465D01*
X1338309Y87604D01*
X1338698Y87715D01*
X1339059Y87771D01*
X1339337Y87826D01*
X1341696D01*
X1342251Y87798D01*
D02*
G37*
G36*
X1331563Y85161D02*
X1332063Y85050D01*
X1332479Y84911D01*
X1332812Y84772D01*
X1333090Y84606D01*
X1333284Y84467D01*
X1333423Y84356D01*
X1333451Y84328D01*
X1333728Y83995D01*
X1333951Y83606D01*
X1334090Y83190D01*
X1334200Y82801D01*
X1334256Y82468D01*
X1334284Y82163D01*
X1334312Y82052D01*
Y81996D01*
Y81941D01*
Y81913D01*
Y78248D01*
X1334284Y77693D01*
X1334173Y77193D01*
X1334034Y76777D01*
X1333867Y76444D01*
X1333728Y76194D01*
X1333590Y75999D01*
X1333479Y75861D01*
X1333451Y75833D01*
X1333090Y75555D01*
X1332701Y75361D01*
X1332313Y75194D01*
X1331896Y75111D01*
X1331563Y75055D01*
X1331258Y75028D01*
X1331147Y75000D01*
X1326594D01*
X1326455Y75028D01*
X1326344Y75055D01*
X1326316Y75083D01*
X1326288D01*
X1326233Y75167D01*
X1326177Y75278D01*
Y75361D01*
Y75389D01*
Y76694D01*
X1326205Y76832D01*
X1326233Y76943D01*
X1326316Y77027D01*
X1326372Y77082D01*
X1326538Y77138D01*
X1330869D01*
X1331063Y77193D01*
X1331230Y77221D01*
X1331341Y77277D01*
X1331452Y77332D01*
X1331508Y77360D01*
X1331535Y77415D01*
X1331563D01*
X1331646Y77526D01*
X1331702Y77665D01*
X1331785Y77971D01*
Y78109D01*
X1331813Y78193D01*
Y78276D01*
Y78304D01*
Y78748D01*
X1331785Y78887D01*
X1331674Y78942D01*
X1331591Y78970D01*
X1326566D01*
X1326427Y78998D01*
X1326316Y79026D01*
X1326261Y79109D01*
X1326205Y79192D01*
X1326149Y79331D01*
Y79359D01*
Y79386D01*
Y81913D01*
X1326177Y82468D01*
X1326288Y82968D01*
X1326427Y83384D01*
X1326566Y83717D01*
X1326732Y83995D01*
X1326871Y84162D01*
X1326982Y84300D01*
X1327010Y84328D01*
X1327371Y84606D01*
X1327760Y84828D01*
X1328148Y84967D01*
X1328537Y85078D01*
X1328898Y85133D01*
X1329176Y85189D01*
X1331008D01*
X1331563Y85161D01*
D02*
G37*
G36*
X1314711D02*
X1315211Y85050D01*
X1315628Y84911D01*
X1315961Y84772D01*
X1316238Y84606D01*
X1316433Y84467D01*
X1316572Y84356D01*
X1316599Y84328D01*
X1316877Y83995D01*
X1317099Y83606D01*
X1317238Y83190D01*
X1317349Y82801D01*
X1317404Y82468D01*
X1317432Y82163D01*
X1317460Y82052D01*
Y81996D01*
Y81941D01*
Y81913D01*
Y78248D01*
X1317432Y77693D01*
X1317321Y77193D01*
X1317182Y76777D01*
X1317016Y76444D01*
X1316877Y76194D01*
X1316738Y75999D01*
X1316627Y75861D01*
X1316599Y75833D01*
X1316238Y75555D01*
X1315850Y75361D01*
X1315461Y75194D01*
X1315045Y75111D01*
X1314711Y75055D01*
X1314406Y75028D01*
X1314295Y75000D01*
X1313684D01*
X1313240Y75028D01*
X1313046Y75083D01*
X1312879Y75139D01*
X1312713Y75167D01*
X1312601Y75222D01*
X1312546Y75250D01*
X1312518D01*
X1312324Y75361D01*
X1312157Y75500D01*
X1312018Y75638D01*
X1311908Y75750D01*
X1311824Y75861D01*
X1311769Y75972D01*
X1311713Y76027D01*
Y76055D01*
X1311658D01*
Y75416D01*
X1311630Y75278D01*
X1311574Y75167D01*
X1311519Y75111D01*
X1311436Y75055D01*
X1311269Y75000D01*
X1309548D01*
X1309409Y75028D01*
X1309298Y75055D01*
X1309214Y75139D01*
X1309159Y75222D01*
X1309104Y75361D01*
Y75389D01*
Y75416D01*
Y84772D01*
X1309131Y84911D01*
X1309159Y85022D01*
X1309242Y85078D01*
X1309326Y85133D01*
X1309464Y85189D01*
X1314156D01*
X1314711Y85161D01*
D02*
G37*
G36*
X1293890Y89020D02*
X1294001Y88992D01*
X1294056Y88909D01*
X1294112Y88853D01*
X1294167Y88687D01*
Y88659D01*
Y88631D01*
Y84106D01*
X1294251D01*
X1294334Y84300D01*
X1294473Y84467D01*
X1294723Y84717D01*
X1294834Y84800D01*
X1294945Y84856D01*
X1295000Y84911D01*
X1295028D01*
X1295444Y85078D01*
X1295805Y85161D01*
X1295972Y85189D01*
X1297027D01*
X1297554Y85161D01*
X1298026Y85050D01*
X1298443Y84911D01*
X1298776Y84772D01*
X1299026Y84606D01*
X1299220Y84467D01*
X1299331Y84356D01*
X1299359Y84328D01*
X1299609Y83995D01*
X1299803Y83606D01*
X1299942Y83190D01*
X1300025Y82801D01*
X1300081Y82468D01*
X1300136Y82163D01*
Y82052D01*
Y81996D01*
Y81941D01*
Y81913D01*
Y78248D01*
X1300108Y77693D01*
X1300025Y77193D01*
X1299886Y76777D01*
X1299748Y76444D01*
X1299609Y76194D01*
X1299470Y75999D01*
X1299387Y75861D01*
X1299359Y75833D01*
X1299026Y75555D01*
X1298665Y75361D01*
X1298276Y75194D01*
X1297888Y75111D01*
X1297554Y75055D01*
X1297277Y75028D01*
X1297166Y75000D01*
X1296194D01*
X1295750Y75028D01*
X1295556Y75083D01*
X1295389Y75139D01*
X1295222Y75167D01*
X1295111Y75222D01*
X1295056Y75250D01*
X1295028D01*
X1294834Y75361D01*
X1294667Y75500D01*
X1294528Y75638D01*
X1294417Y75750D01*
X1294362Y75861D01*
X1294306Y75972D01*
X1294251Y76027D01*
Y76055D01*
X1294167D01*
Y75416D01*
X1294140Y75278D01*
X1294112Y75167D01*
X1294029Y75111D01*
X1293945Y75055D01*
X1293806Y75000D01*
X1292030D01*
X1291891Y75028D01*
X1291780Y75055D01*
X1291724Y75139D01*
X1291669Y75222D01*
X1291613Y75361D01*
Y75389D01*
Y75416D01*
Y88631D01*
X1291641Y88770D01*
X1291669Y88881D01*
X1291752Y88937D01*
X1291808Y88992D01*
X1291974Y89048D01*
X1293751D01*
X1293890Y89020D01*
D02*
G37*
G36*
X1284562Y87798D02*
X1284673Y87771D01*
X1284728Y87687D01*
X1284784Y87632D01*
X1284839Y87465D01*
Y87437D01*
Y87410D01*
Y75416D01*
X1284812Y75278D01*
X1284784Y75167D01*
X1284700Y75111D01*
X1284617Y75055D01*
X1284478Y75000D01*
X1282702D01*
X1282563Y75028D01*
X1282452Y75055D01*
X1282396Y75139D01*
X1282341Y75222D01*
X1282285Y75361D01*
Y75389D01*
Y75416D01*
Y79192D01*
X1282257Y79331D01*
X1282174Y79386D01*
X1282091Y79414D01*
X1279537D01*
X1278981Y79442D01*
X1278510Y79553D01*
X1278093Y79692D01*
X1277732Y79831D01*
X1277482Y79997D01*
X1277288Y80108D01*
X1277149Y80219D01*
X1277121Y80247D01*
X1276844Y80608D01*
X1276622Y80997D01*
X1276483Y81385D01*
X1276372Y81774D01*
X1276316Y82135D01*
X1276261Y82413D01*
Y82524D01*
Y82607D01*
Y82635D01*
Y82662D01*
Y84578D01*
X1276289Y85133D01*
X1276400Y85605D01*
X1276538Y86022D01*
X1276677Y86355D01*
X1276844Y86632D01*
X1276983Y86799D01*
X1277094Y86938D01*
X1277121Y86966D01*
X1277482Y87243D01*
X1277871Y87465D01*
X1278260Y87604D01*
X1278648Y87715D01*
X1279009Y87771D01*
X1279287Y87826D01*
X1284423D01*
X1284562Y87798D01*
D02*
G37*
G36*
X1271874Y85161D02*
X1272374Y85050D01*
X1272791Y84911D01*
X1273124Y84772D01*
X1273401Y84606D01*
X1273596Y84467D01*
X1273734Y84356D01*
X1273762Y84328D01*
X1274040Y83995D01*
X1274262Y83606D01*
X1274401Y83190D01*
X1274512Y82801D01*
X1274567Y82468D01*
X1274595Y82163D01*
X1274623Y82052D01*
Y81996D01*
Y81941D01*
Y81913D01*
Y78248D01*
X1274595Y77693D01*
X1274484Y77193D01*
X1274345Y76777D01*
X1274179Y76444D01*
X1274040Y76194D01*
X1273901Y75999D01*
X1273790Y75861D01*
X1273762Y75833D01*
X1273401Y75555D01*
X1273013Y75361D01*
X1272624Y75194D01*
X1272207Y75111D01*
X1271874Y75055D01*
X1271569Y75028D01*
X1271458Y75000D01*
X1266905D01*
X1266766Y75028D01*
X1266655Y75055D01*
X1266627Y75083D01*
X1266600D01*
X1266544Y75167D01*
X1266488Y75278D01*
Y75361D01*
Y75389D01*
Y76694D01*
X1266516Y76832D01*
X1266544Y76943D01*
X1266627Y77027D01*
X1266683Y77082D01*
X1266849Y77138D01*
X1271180D01*
X1271375Y77193D01*
X1271541Y77221D01*
X1271652Y77277D01*
X1271763Y77332D01*
X1271819Y77360D01*
X1271847Y77415D01*
X1271874D01*
X1271958Y77526D01*
X1272013Y77665D01*
X1272096Y77970D01*
Y78109D01*
X1272124Y78193D01*
Y78276D01*
Y78304D01*
Y78748D01*
X1272096Y78887D01*
X1271985Y78942D01*
X1271902Y78970D01*
X1266877D01*
X1266738Y78998D01*
X1266627Y79026D01*
X1266572Y79109D01*
X1266516Y79192D01*
X1266461Y79331D01*
Y79359D01*
Y79386D01*
Y81913D01*
X1266488Y82468D01*
X1266600Y82968D01*
X1266738Y83384D01*
X1266877Y83717D01*
X1267044Y83995D01*
X1267183Y84162D01*
X1267294Y84300D01*
X1267321Y84328D01*
X1267682Y84606D01*
X1268071Y84828D01*
X1268460Y84967D01*
X1268848Y85078D01*
X1269209Y85133D01*
X1269487Y85189D01*
X1271319D01*
X1271874Y85161D01*
D02*
G37*
G36*
X1255023D02*
X1255522Y85050D01*
X1255939Y84911D01*
X1256272Y84772D01*
X1256550Y84606D01*
X1256744Y84467D01*
X1256883Y84356D01*
X1256910Y84328D01*
X1257188Y83995D01*
X1257410Y83606D01*
X1257549Y83190D01*
X1257660Y82801D01*
X1257716Y82468D01*
X1257743Y82163D01*
X1257771Y82052D01*
Y81996D01*
Y81940D01*
Y81913D01*
Y78248D01*
X1257743Y77693D01*
X1257632Y77193D01*
X1257494Y76777D01*
X1257327Y76444D01*
X1257188Y76194D01*
X1257049Y75999D01*
X1256938Y75861D01*
X1256910Y75833D01*
X1256550Y75555D01*
X1256161Y75361D01*
X1255772Y75194D01*
X1255356Y75111D01*
X1255023Y75055D01*
X1254717Y75028D01*
X1254606Y75000D01*
X1250053D01*
X1249914Y75028D01*
X1249803Y75055D01*
X1249776Y75083D01*
X1249748D01*
X1249692Y75167D01*
X1249637Y75278D01*
Y75361D01*
Y75389D01*
Y76694D01*
X1249665Y76832D01*
X1249692Y76943D01*
X1249776Y77027D01*
X1249831Y77082D01*
X1249998Y77138D01*
X1254329D01*
X1254523Y77193D01*
X1254690Y77221D01*
X1254801Y77277D01*
X1254912Y77332D01*
X1254967Y77360D01*
X1254995Y77415D01*
X1255023D01*
X1255106Y77526D01*
X1255162Y77665D01*
X1255245Y77970D01*
Y78109D01*
X1255273Y78193D01*
Y78276D01*
Y78304D01*
Y78748D01*
X1255245Y78887D01*
X1255134Y78942D01*
X1255051Y78970D01*
X1250025D01*
X1249887Y78998D01*
X1249776Y79026D01*
X1249720Y79109D01*
X1249665Y79192D01*
X1249609Y79331D01*
Y79359D01*
Y79386D01*
Y81913D01*
X1249637Y82468D01*
X1249748Y82968D01*
X1249887Y83384D01*
X1250025Y83717D01*
X1250192Y83995D01*
X1250331Y84162D01*
X1250442Y84300D01*
X1250470Y84328D01*
X1250831Y84606D01*
X1251219Y84828D01*
X1251608Y84967D01*
X1251997Y85078D01*
X1252357Y85133D01*
X1252635Y85189D01*
X1254467D01*
X1255023Y85161D01*
D02*
G37*
G36*
X1247721D02*
X1247832Y85133D01*
X1247888Y85050D01*
X1247943Y84994D01*
X1247999Y84828D01*
Y84800D01*
Y84772D01*
Y83440D01*
X1247971Y83301D01*
X1247943Y83190D01*
X1247860Y83106D01*
X1247777Y83051D01*
X1247638Y82996D01*
X1243557D01*
Y82912D01*
X1247777Y77221D01*
X1247916Y77027D01*
X1247999Y76832D01*
X1248110Y76471D01*
X1248138Y76305D01*
X1248165Y76166D01*
Y76083D01*
Y76055D01*
Y75416D01*
X1248138Y75278D01*
X1248110Y75167D01*
X1248027Y75111D01*
X1247943Y75055D01*
X1247804Y75000D01*
X1240836D01*
X1240697Y75028D01*
X1240586Y75055D01*
X1240531Y75139D01*
X1240475Y75222D01*
X1240420Y75361D01*
Y75389D01*
Y75416D01*
Y76721D01*
X1240448Y76860D01*
X1240475Y76971D01*
X1240559Y77054D01*
X1240614Y77110D01*
X1240781Y77165D01*
X1244862D01*
Y77249D01*
X1240947Y82523D01*
X1240836Y82690D01*
X1240781Y82857D01*
X1240670Y83190D01*
Y83329D01*
X1240642Y83440D01*
Y83523D01*
Y83551D01*
Y84772D01*
X1240670Y84911D01*
X1240697Y85022D01*
X1240781Y85078D01*
X1240836Y85133D01*
X1241003Y85189D01*
X1247582D01*
X1247721Y85161D01*
D02*
G37*
G36*
X1230564Y87798D02*
X1231064Y87687D01*
X1231480Y87549D01*
X1231841Y87410D01*
X1232119Y87243D01*
X1232341Y87104D01*
X1232452Y86993D01*
X1232508Y86966D01*
X1232813Y86632D01*
X1233035Y86244D01*
X1233202Y85855D01*
X1233313Y85466D01*
X1233368Y85133D01*
X1233396Y84856D01*
X1233424Y84745D01*
Y84661D01*
Y84634D01*
Y84606D01*
Y84384D01*
X1233396Y83912D01*
X1233313Y83467D01*
X1233174Y83051D01*
X1233035Y82718D01*
X1232896Y82440D01*
X1232757Y82218D01*
X1232674Y82107D01*
X1232646Y82052D01*
X1232980Y81968D01*
X1233285Y81857D01*
X1233535Y81691D01*
X1233757Y81552D01*
X1233923Y81385D01*
X1234035Y81247D01*
X1234118Y81163D01*
X1234146Y81135D01*
X1234312Y80858D01*
X1234451Y80552D01*
X1234534Y80247D01*
X1234617Y79969D01*
X1234645Y79747D01*
X1234673Y79553D01*
Y79442D01*
Y79386D01*
Y78220D01*
X1234645Y77665D01*
X1234534Y77193D01*
X1234395Y76777D01*
X1234229Y76444D01*
X1234090Y76166D01*
X1233951Y75999D01*
X1233840Y75861D01*
X1233812Y75833D01*
X1233452Y75555D01*
X1233063Y75361D01*
X1232674Y75194D01*
X1232258Y75111D01*
X1231925Y75055D01*
X1231619Y75028D01*
X1231508Y75000D01*
X1230148D01*
X1229787Y75028D01*
X1229454Y75055D01*
X1229176Y75111D01*
X1228954Y75167D01*
X1228760Y75222D01*
X1228649Y75250D01*
X1228565Y75305D01*
X1228538D01*
X1228343Y75444D01*
X1228177Y75583D01*
X1228038Y75750D01*
X1227927Y75916D01*
X1227843Y76083D01*
X1227788Y76194D01*
X1227732Y76277D01*
Y76305D01*
X1226872Y75278D01*
X1226677Y75111D01*
X1226428Y75028D01*
X1226317D01*
X1226233Y75000D01*
X1224012D01*
X1223929Y75028D01*
X1223874Y75055D01*
X1223846Y75083D01*
Y75111D01*
X1223818Y75194D01*
X1223846Y75278D01*
X1223874Y75305D01*
X1223901Y75333D01*
X1227150Y79220D01*
X1224568D01*
X1224429Y79248D01*
X1224318Y79275D01*
X1224262Y79359D01*
X1224207Y79442D01*
X1224151Y79581D01*
Y79608D01*
Y79636D01*
Y80997D01*
X1224179Y81135D01*
X1224207Y81247D01*
X1224290Y81330D01*
X1224345Y81385D01*
X1224512Y81441D01*
X1229009D01*
X1229926Y82523D01*
X1230231Y82884D01*
X1230425Y83218D01*
X1230592Y83523D01*
X1230703Y83801D01*
X1230759Y83995D01*
X1230786Y84162D01*
X1230814Y84273D01*
Y84300D01*
Y84550D01*
Y84772D01*
X1230786Y84967D01*
X1230731Y85105D01*
X1230675Y85244D01*
X1230648Y85328D01*
X1230592Y85383D01*
X1230564Y85439D01*
X1230314Y85605D01*
X1230037Y85688D01*
X1229926Y85716D01*
X1229370D01*
X1229232Y85661D01*
X1228982Y85577D01*
X1228871Y85494D01*
X1228815Y85439D01*
X1228732Y85328D01*
X1228676Y85189D01*
X1228593Y84911D01*
X1228565Y84772D01*
Y84661D01*
Y84578D01*
Y84550D01*
Y83912D01*
X1228538Y83773D01*
X1228510Y83662D01*
X1228427Y83606D01*
X1228343Y83551D01*
X1228204Y83495D01*
X1226428D01*
X1226289Y83523D01*
X1226178Y83551D01*
X1226122Y83634D01*
X1226067Y83717D01*
X1226011Y83856D01*
Y83884D01*
Y83912D01*
Y84606D01*
X1226039Y85161D01*
X1226150Y85633D01*
X1226289Y86049D01*
X1226428Y86383D01*
X1226594Y86660D01*
X1226733Y86827D01*
X1226844Y86966D01*
X1226872Y86993D01*
X1227233Y87271D01*
X1227621Y87465D01*
X1228010Y87632D01*
X1228427Y87715D01*
X1228760Y87771D01*
X1229065Y87826D01*
X1229981D01*
X1230564Y87798D01*
D02*
G37*
G36*
X1217127D02*
X1217238Y87771D01*
X1217294Y87687D01*
X1217349Y87632D01*
X1217405Y87465D01*
Y87437D01*
Y87410D01*
Y75416D01*
X1217377Y75278D01*
X1217349Y75167D01*
X1217266Y75111D01*
X1217183Y75055D01*
X1217044Y75000D01*
X1212047D01*
X1211492Y75028D01*
X1211020Y75139D01*
X1210603Y75278D01*
X1210242Y75416D01*
X1209992Y75583D01*
X1209798Y75694D01*
X1209659Y75805D01*
X1209632Y75833D01*
X1209326Y76194D01*
X1209104Y76582D01*
X1208965Y76971D01*
X1208854Y77360D01*
X1208799Y77721D01*
X1208743Y77998D01*
Y78109D01*
Y78193D01*
Y78220D01*
Y78248D01*
Y84578D01*
X1208771Y85133D01*
X1208882Y85605D01*
X1209021Y86022D01*
X1209187Y86355D01*
X1209354Y86632D01*
X1209493Y86799D01*
X1209604Y86938D01*
X1209632Y86966D01*
X1209992Y87243D01*
X1210381Y87465D01*
X1210770Y87604D01*
X1211158Y87715D01*
X1211519Y87771D01*
X1211797Y87826D01*
X1216989D01*
X1217127Y87798D01*
D02*
G37*
G36*
X1203996Y85161D02*
X1204495Y85050D01*
X1204912Y84911D01*
X1205245Y84772D01*
X1205523Y84606D01*
X1205717Y84467D01*
X1205856Y84356D01*
X1205884Y84328D01*
X1206161Y83995D01*
X1206383Y83606D01*
X1206522Y83190D01*
X1206633Y82801D01*
X1206689Y82468D01*
X1206717Y82163D01*
X1206744Y82052D01*
Y81996D01*
Y81940D01*
Y81913D01*
Y78248D01*
X1206717Y77693D01*
X1206605Y77193D01*
X1206467Y76777D01*
X1206300Y76444D01*
X1206161Y76194D01*
X1206022Y75999D01*
X1205911Y75861D01*
X1205884Y75833D01*
X1205523Y75555D01*
X1205134Y75361D01*
X1204745Y75194D01*
X1204329Y75111D01*
X1203996Y75055D01*
X1203690Y75028D01*
X1203579Y75000D01*
X1202969D01*
X1202524Y75028D01*
X1202330Y75083D01*
X1202163Y75139D01*
X1201997Y75167D01*
X1201886Y75222D01*
X1201830Y75250D01*
X1201803D01*
X1201608Y75361D01*
X1201442Y75500D01*
X1201303Y75638D01*
X1201192Y75750D01*
X1201108Y75861D01*
X1201053Y75972D01*
X1200997Y76027D01*
Y76055D01*
X1200942D01*
Y75416D01*
X1200914Y75278D01*
X1200859Y75167D01*
X1200803Y75111D01*
X1200720Y75055D01*
X1200553Y75000D01*
X1198832D01*
X1198693Y75028D01*
X1198582Y75055D01*
X1198499Y75139D01*
X1198443Y75222D01*
X1198388Y75361D01*
Y75389D01*
Y75416D01*
Y84772D01*
X1198416Y84911D01*
X1198443Y85022D01*
X1198527Y85078D01*
X1198610Y85133D01*
X1198749Y85189D01*
X1203440D01*
X1203996Y85161D01*
D02*
G37*
G36*
X1186478D02*
X1186561Y85133D01*
X1186672Y84994D01*
X1186728Y84828D01*
Y84800D01*
Y84772D01*
Y75416D01*
X1186700Y75278D01*
X1186672Y75167D01*
X1186589Y75111D01*
X1186506Y75055D01*
X1186367Y75000D01*
X1184451D01*
X1184340Y75028D01*
X1184312Y75055D01*
X1184285D01*
X1184229Y75139D01*
X1184201Y75278D01*
Y75361D01*
Y75416D01*
Y84772D01*
X1184229Y84911D01*
X1184257Y85022D01*
X1184340Y85078D01*
X1184396Y85133D01*
X1184562Y85189D01*
X1186339D01*
X1186478Y85161D01*
D02*
G37*
G36*
X1175845Y89020D02*
X1175956Y88992D01*
X1176012Y88909D01*
X1176067Y88853D01*
X1176123Y88687D01*
Y88659D01*
Y88631D01*
Y84106D01*
X1176206D01*
X1176289Y84300D01*
X1176428Y84467D01*
X1176678Y84717D01*
X1176789Y84800D01*
X1176900Y84856D01*
X1176955Y84911D01*
X1176983D01*
X1177400Y85078D01*
X1177760Y85161D01*
X1177927Y85189D01*
X1178982D01*
X1179510Y85161D01*
X1179982Y85050D01*
X1180398Y84911D01*
X1180731Y84772D01*
X1180981Y84606D01*
X1181175Y84467D01*
X1181286Y84356D01*
X1181314Y84328D01*
X1181564Y83995D01*
X1181758Y83606D01*
X1181897Y83190D01*
X1181980Y82801D01*
X1182036Y82468D01*
X1182091Y82163D01*
Y82052D01*
Y81996D01*
Y81940D01*
Y81913D01*
Y78248D01*
X1182064Y77693D01*
X1181980Y77193D01*
X1181842Y76777D01*
X1181703Y76444D01*
X1181564Y76194D01*
X1181425Y75999D01*
X1181342Y75861D01*
X1181314Y75833D01*
X1180981Y75555D01*
X1180620Y75361D01*
X1180231Y75194D01*
X1179843Y75111D01*
X1179510Y75055D01*
X1179232Y75028D01*
X1179121Y75000D01*
X1178149D01*
X1177705Y75028D01*
X1177511Y75083D01*
X1177344Y75139D01*
X1177178Y75167D01*
X1177066Y75222D01*
X1177011Y75250D01*
X1176983D01*
X1176789Y75361D01*
X1176622Y75500D01*
X1176483Y75638D01*
X1176372Y75750D01*
X1176317Y75861D01*
X1176261Y75972D01*
X1176206Y76027D01*
Y76055D01*
X1176123D01*
Y75416D01*
X1176095Y75278D01*
X1176067Y75167D01*
X1175984Y75111D01*
X1175900Y75055D01*
X1175762Y75000D01*
X1173985D01*
X1173846Y75028D01*
X1173735Y75055D01*
X1173680Y75139D01*
X1173624Y75222D01*
X1173568Y75361D01*
Y75389D01*
Y75416D01*
Y88631D01*
X1173596Y88770D01*
X1173624Y88881D01*
X1173707Y88937D01*
X1173763Y88992D01*
X1173929Y89048D01*
X1175706D01*
X1175845Y89020D01*
D02*
G37*
G36*
X1166517Y87798D02*
X1166628Y87771D01*
X1166683Y87687D01*
X1166739Y87632D01*
X1166794Y87465D01*
Y87437D01*
Y87410D01*
Y75416D01*
X1166767Y75278D01*
X1166739Y75167D01*
X1166656Y75111D01*
X1166572Y75055D01*
X1166433Y75000D01*
X1164657D01*
X1164518Y75028D01*
X1164407Y75055D01*
X1164351Y75139D01*
X1164296Y75222D01*
X1164240Y75361D01*
Y75389D01*
Y75416D01*
Y79497D01*
X1164213Y79636D01*
X1164129Y79692D01*
X1164046Y79720D01*
X1162658D01*
X1160659Y75416D01*
X1160576Y75250D01*
X1160492Y75139D01*
X1160437Y75083D01*
X1160409Y75055D01*
X1160243Y75028D01*
X1160076Y75000D01*
X1158271D01*
X1158105Y75028D01*
X1157994Y75083D01*
X1157938Y75139D01*
X1157911Y75250D01*
Y75389D01*
X1157938Y75444D01*
Y75472D01*
X1160076Y79914D01*
Y79997D01*
X1159771Y80164D01*
X1159493Y80330D01*
X1159243Y80552D01*
X1159049Y80774D01*
X1158882Y81024D01*
X1158743Y81274D01*
X1158521Y81774D01*
X1158382Y82246D01*
X1158355Y82440D01*
X1158327Y82635D01*
X1158299Y82773D01*
Y82884D01*
Y82968D01*
Y82996D01*
Y84550D01*
X1158327Y85105D01*
X1158438Y85605D01*
X1158577Y86022D01*
X1158743Y86355D01*
X1158910Y86632D01*
X1159049Y86799D01*
X1159160Y86938D01*
X1159188Y86966D01*
X1159548Y87243D01*
X1159937Y87465D01*
X1160326Y87604D01*
X1160714Y87715D01*
X1161075Y87771D01*
X1161353Y87826D01*
X1166378D01*
X1166517Y87798D01*
D02*
G37*
G36*
X1153496Y85161D02*
X1153996Y85050D01*
X1154413Y84911D01*
X1154746Y84772D01*
X1155023Y84606D01*
X1155218Y84467D01*
X1155356Y84356D01*
X1155384Y84328D01*
X1155662Y83995D01*
X1155884Y83606D01*
X1156023Y83190D01*
X1156134Y82801D01*
X1156189Y82468D01*
X1156217Y82163D01*
X1156245Y82052D01*
Y81996D01*
Y81940D01*
Y81913D01*
Y78248D01*
X1156217Y77693D01*
X1156106Y77193D01*
X1155967Y76777D01*
X1155801Y76444D01*
X1155662Y76194D01*
X1155523Y75999D01*
X1155412Y75861D01*
X1155384Y75833D01*
X1155023Y75555D01*
X1154635Y75361D01*
X1154246Y75194D01*
X1153829Y75111D01*
X1153496Y75055D01*
X1153191Y75028D01*
X1153080Y75000D01*
X1148527D01*
X1148388Y75028D01*
X1148277Y75055D01*
X1148249Y75083D01*
X1148222D01*
X1148166Y75167D01*
X1148111Y75278D01*
Y75361D01*
Y75389D01*
Y76694D01*
X1148138Y76832D01*
X1148166Y76943D01*
X1148249Y77027D01*
X1148305Y77082D01*
X1148471Y77138D01*
X1152802D01*
X1152997Y77193D01*
X1153163Y77221D01*
X1153274Y77277D01*
X1153385Y77332D01*
X1153441Y77360D01*
X1153469Y77415D01*
X1153496D01*
X1153580Y77526D01*
X1153635Y77665D01*
X1153718Y77970D01*
Y78109D01*
X1153746Y78193D01*
Y78276D01*
Y78304D01*
Y78748D01*
X1153718Y78887D01*
X1153607Y78942D01*
X1153524Y78970D01*
X1148499D01*
X1148360Y78998D01*
X1148249Y79026D01*
X1148194Y79109D01*
X1148138Y79192D01*
X1148083Y79331D01*
Y79359D01*
Y79386D01*
Y81913D01*
X1148111Y82468D01*
X1148222Y82968D01*
X1148360Y83384D01*
X1148499Y83717D01*
X1148666Y83995D01*
X1148804Y84162D01*
X1148916Y84300D01*
X1148943Y84328D01*
X1149304Y84606D01*
X1149693Y84828D01*
X1150082Y84967D01*
X1150470Y85078D01*
X1150831Y85133D01*
X1151109Y85189D01*
X1152941D01*
X1153496Y85161D01*
D02*
G37*
G36*
X1140115Y89020D02*
X1140226Y88992D01*
X1140282Y88909D01*
X1140337Y88853D01*
X1140393Y88687D01*
Y88659D01*
Y88631D01*
Y84106D01*
X1140476D01*
X1140559Y84300D01*
X1140698Y84467D01*
X1140948Y84717D01*
X1141059Y84800D01*
X1141170Y84856D01*
X1141226Y84911D01*
X1141253D01*
X1141670Y85078D01*
X1142031Y85161D01*
X1142197Y85189D01*
X1143252D01*
X1143780Y85161D01*
X1144251Y85050D01*
X1144668Y84911D01*
X1145001Y84772D01*
X1145251Y84606D01*
X1145445Y84467D01*
X1145556Y84356D01*
X1145584Y84328D01*
X1145834Y83995D01*
X1146028Y83606D01*
X1146167Y83190D01*
X1146250Y82801D01*
X1146306Y82468D01*
X1146361Y82163D01*
Y82052D01*
Y81996D01*
Y81940D01*
Y81913D01*
Y78248D01*
X1146334Y77693D01*
X1146250Y77193D01*
X1146112Y76777D01*
X1145973Y76444D01*
X1145834Y76194D01*
X1145695Y75999D01*
X1145612Y75861D01*
X1145584Y75833D01*
X1145251Y75555D01*
X1144890Y75361D01*
X1144501Y75194D01*
X1144113Y75111D01*
X1143780Y75055D01*
X1143502Y75028D01*
X1143391Y75000D01*
X1142419D01*
X1141975Y75028D01*
X1141781Y75083D01*
X1141614Y75139D01*
X1141448Y75167D01*
X1141337Y75222D01*
X1141281Y75250D01*
X1141253D01*
X1141059Y75361D01*
X1140892Y75500D01*
X1140753Y75638D01*
X1140642Y75750D01*
X1140587Y75861D01*
X1140531Y75972D01*
X1140476Y76027D01*
Y76055D01*
X1140393D01*
Y75416D01*
X1140365Y75278D01*
X1140337Y75167D01*
X1140254Y75111D01*
X1140171Y75055D01*
X1140032Y75000D01*
X1138255D01*
X1138116Y75028D01*
X1138005Y75055D01*
X1137950Y75139D01*
X1137894Y75222D01*
X1137839Y75361D01*
Y75389D01*
Y75416D01*
Y88631D01*
X1137866Y88770D01*
X1137894Y88881D01*
X1137977Y88937D01*
X1138033Y88992D01*
X1138199Y89048D01*
X1139976D01*
X1140115Y89020D01*
D02*
G37*
G36*
X1133091Y85161D02*
X1133591Y85050D01*
X1134007Y84911D01*
X1134340Y84772D01*
X1134618Y84606D01*
X1134812Y84467D01*
X1134951Y84356D01*
X1134979Y84328D01*
X1135257Y83995D01*
X1135479Y83606D01*
X1135618Y83190D01*
X1135729Y82801D01*
X1135784Y82468D01*
X1135812Y82163D01*
X1135840Y82052D01*
Y81996D01*
Y81940D01*
Y81913D01*
Y78248D01*
X1135812Y77693D01*
X1135701Y77193D01*
X1135562Y76777D01*
X1135395Y76444D01*
X1135257Y76194D01*
X1135118Y75999D01*
X1135007Y75861D01*
X1134979Y75833D01*
X1134618Y75555D01*
X1134229Y75361D01*
X1133841Y75194D01*
X1133424Y75111D01*
X1133091Y75055D01*
X1132786Y75028D01*
X1132675Y75000D01*
X1130759D01*
X1130204Y75028D01*
X1129732Y75139D01*
X1129315Y75278D01*
X1128955Y75416D01*
X1128705Y75583D01*
X1128510Y75694D01*
X1128372Y75805D01*
X1128344Y75833D01*
X1128038Y76194D01*
X1127816Y76582D01*
X1127678Y76971D01*
X1127567Y77360D01*
X1127511Y77721D01*
X1127455Y77998D01*
Y78109D01*
Y78193D01*
Y78220D01*
Y78248D01*
Y81913D01*
X1127483Y82468D01*
X1127594Y82968D01*
X1127733Y83384D01*
X1127900Y83717D01*
X1128066Y83995D01*
X1128205Y84162D01*
X1128316Y84300D01*
X1128344Y84328D01*
X1128705Y84606D01*
X1129093Y84828D01*
X1129482Y84967D01*
X1129871Y85078D01*
X1130232Y85133D01*
X1130509Y85189D01*
X1132536D01*
X1133091Y85161D01*
D02*
G37*
G36*
X1108966Y89020D02*
X1109077Y88992D01*
X1109132Y88909D01*
X1109188Y88853D01*
X1109243Y88687D01*
Y88659D01*
Y88631D01*
Y84106D01*
X1109327D01*
X1109410Y84300D01*
X1109549Y84467D01*
X1109799Y84717D01*
X1109910Y84800D01*
X1110021Y84855D01*
X1110076Y84911D01*
X1110104D01*
X1110520Y85078D01*
X1110881Y85161D01*
X1111048Y85189D01*
X1112103D01*
X1112630Y85161D01*
X1113102Y85050D01*
X1113519Y84911D01*
X1113852Y84772D01*
X1114102Y84606D01*
X1114296Y84467D01*
X1114407Y84356D01*
X1114435Y84328D01*
X1114685Y83995D01*
X1114879Y83606D01*
X1115018Y83190D01*
X1115101Y82801D01*
X1115157Y82468D01*
X1115212Y82163D01*
Y82052D01*
Y81996D01*
Y81940D01*
Y81913D01*
Y78248D01*
X1115184Y77693D01*
X1115101Y77193D01*
X1114962Y76777D01*
X1114824Y76444D01*
X1114685Y76194D01*
X1114546Y75999D01*
X1114463Y75861D01*
X1114435Y75833D01*
X1114102Y75555D01*
X1113741Y75361D01*
X1113352Y75194D01*
X1112963Y75111D01*
X1112630Y75055D01*
X1112353Y75028D01*
X1112242Y75000D01*
X1111270D01*
X1110826Y75028D01*
X1110631Y75083D01*
X1110465Y75139D01*
X1110298Y75167D01*
X1110187Y75222D01*
X1110132Y75250D01*
X1110104D01*
X1109910Y75361D01*
X1109743Y75500D01*
X1109604Y75638D01*
X1109493Y75750D01*
X1109438Y75861D01*
X1109382Y75972D01*
X1109327Y76027D01*
Y76055D01*
X1109243D01*
Y75416D01*
X1109216Y75278D01*
X1109188Y75167D01*
X1109105Y75111D01*
X1109021Y75055D01*
X1108883Y75000D01*
X1107106D01*
X1106967Y75028D01*
X1106856Y75055D01*
X1106800Y75139D01*
X1106745Y75222D01*
X1106689Y75361D01*
Y75389D01*
Y75416D01*
Y88631D01*
X1106717Y88770D01*
X1106745Y88881D01*
X1106828Y88937D01*
X1106884Y88992D01*
X1107050Y89048D01*
X1108827D01*
X1108966Y89020D01*
D02*
G37*
G36*
X1101942Y85161D02*
X1102442Y85050D01*
X1102858Y84911D01*
X1103191Y84772D01*
X1103469Y84606D01*
X1103663Y84467D01*
X1103802Y84356D01*
X1103830Y84328D01*
X1104107Y83995D01*
X1104330Y83606D01*
X1104468Y83190D01*
X1104579Y82801D01*
X1104635Y82468D01*
X1104663Y82163D01*
X1104690Y82052D01*
Y81996D01*
Y81940D01*
Y81913D01*
Y78248D01*
X1104663Y77693D01*
X1104552Y77193D01*
X1104413Y76777D01*
X1104246Y76444D01*
X1104107Y76194D01*
X1103969Y75999D01*
X1103857Y75861D01*
X1103830Y75833D01*
X1103469Y75555D01*
X1103080Y75361D01*
X1102691Y75194D01*
X1102275Y75111D01*
X1101942Y75055D01*
X1101637Y75028D01*
X1101525Y75000D01*
X1099610D01*
X1099055Y75028D01*
X1098583Y75139D01*
X1098166Y75278D01*
X1097805Y75416D01*
X1097555Y75583D01*
X1097361Y75694D01*
X1097222Y75805D01*
X1097195Y75833D01*
X1096889Y76194D01*
X1096667Y76582D01*
X1096528Y76971D01*
X1096417Y77360D01*
X1096362Y77721D01*
X1096306Y77998D01*
Y78109D01*
Y78193D01*
Y78220D01*
Y78248D01*
Y81913D01*
X1096334Y82468D01*
X1096445Y82968D01*
X1096584Y83384D01*
X1096750Y83717D01*
X1096917Y83995D01*
X1097056Y84162D01*
X1097167Y84300D01*
X1097195Y84328D01*
X1097555Y84606D01*
X1097944Y84828D01*
X1098333Y84967D01*
X1098721Y85078D01*
X1099082Y85133D01*
X1099360Y85189D01*
X1101387D01*
X1101942Y85161D01*
D02*
G37*
G36*
X1066767Y87798D02*
X1067239Y87687D01*
X1067656Y87576D01*
X1067989Y87410D01*
X1068266Y87271D01*
X1068461Y87132D01*
X1068599Y87021D01*
X1068627Y86993D01*
X1068905Y86660D01*
X1069127Y86271D01*
X1069266Y85855D01*
X1069377Y85466D01*
X1069432Y85133D01*
X1069460Y84828D01*
X1069488Y84717D01*
Y84661D01*
Y84606D01*
Y84578D01*
Y78248D01*
X1069460Y77693D01*
X1069349Y77193D01*
X1069210Y76777D01*
X1069044Y76444D01*
X1068905Y76194D01*
X1068766Y75999D01*
X1068655Y75861D01*
X1068627Y75833D01*
X1068266Y75555D01*
X1067878Y75361D01*
X1067489Y75194D01*
X1067100Y75111D01*
X1066740Y75055D01*
X1066462Y75028D01*
X1066351Y75000D01*
X1064213D01*
X1063658Y75028D01*
X1063158Y75139D01*
X1062742Y75278D01*
X1062409Y75416D01*
X1062131Y75583D01*
X1061937Y75694D01*
X1061798Y75805D01*
X1061770Y75833D01*
X1061492Y76194D01*
X1061270Y76582D01*
X1061132Y76971D01*
X1061021Y77360D01*
X1060965Y77721D01*
X1060909Y77998D01*
Y78109D01*
Y78193D01*
Y78220D01*
Y78248D01*
Y84578D01*
X1060937Y85133D01*
X1061048Y85605D01*
X1061187Y86021D01*
X1061326Y86355D01*
X1061492Y86632D01*
X1061631Y86799D01*
X1061742Y86938D01*
X1061770Y86966D01*
X1062131Y87243D01*
X1062520Y87465D01*
X1062908Y87604D01*
X1063325Y87715D01*
X1063658Y87771D01*
X1063963Y87826D01*
X1066212D01*
X1066767Y87798D01*
D02*
G37*
G36*
X1442863Y93878D02*
X1443002Y93832D01*
X1443187Y93600D01*
X1443279Y93323D01*
Y93276D01*
Y93230D01*
Y90361D01*
X1443233Y90129D01*
X1443187Y89944D01*
X1443094Y89852D01*
X1442955Y89759D01*
X1442724Y89667D01*
X1439716D01*
X1439484Y89713D01*
X1439346Y89759D01*
X1439160Y90037D01*
X1439068Y90268D01*
Y90315D01*
Y90361D01*
Y93276D01*
X1439114Y93508D01*
X1439160Y93646D01*
X1439392Y93832D01*
X1439623Y93924D01*
X1442631D01*
X1442863Y93878D01*
D02*
G37*
G36*
X1417456D02*
X1417641Y93832D01*
X1417733Y93693D01*
X1417826Y93600D01*
X1417918Y93323D01*
Y93276D01*
Y93230D01*
Y71201D01*
X1417872Y70970D01*
X1417826Y70785D01*
X1417687Y70692D01*
X1417548Y70600D01*
X1417317Y70507D01*
X1414401D01*
X1414170Y70553D01*
X1413985Y70600D01*
X1413846Y70739D01*
X1413753Y70877D01*
X1413661Y71109D01*
Y71155D01*
Y71201D01*
Y81290D01*
X1413615Y81753D01*
X1413568Y82123D01*
X1413429Y82493D01*
X1413291Y82771D01*
X1412920Y83234D01*
X1412504Y83511D01*
X1412087Y83697D01*
X1411763Y83789D01*
X1411486Y83835D01*
X1409820D01*
X1409496Y83743D01*
X1409218Y83697D01*
X1409033Y83604D01*
X1408848Y83511D01*
X1408755Y83465D01*
X1408663Y83373D01*
X1408524Y83188D01*
X1408385Y82956D01*
X1408246Y82447D01*
X1408200Y82216D01*
Y82031D01*
Y81892D01*
Y81846D01*
Y71201D01*
X1408154Y70970D01*
X1408107Y70785D01*
X1407968Y70692D01*
X1407830Y70600D01*
X1407598Y70507D01*
X1404729D01*
X1404498Y70553D01*
X1404312Y70600D01*
X1404174Y70739D01*
X1404081Y70877D01*
X1403988Y71109D01*
Y71155D01*
Y71201D01*
Y82031D01*
X1404035Y83002D01*
X1404220Y83835D01*
X1404451Y84576D01*
X1404821Y85177D01*
X1405192Y85733D01*
X1405654Y86149D01*
X1406117Y86520D01*
X1406580Y86797D01*
X1407089Y87029D01*
X1407552Y87214D01*
X1408015Y87306D01*
X1408385Y87399D01*
X1408755Y87445D01*
X1408987Y87492D01*
X1410282D01*
X1411162Y87399D01*
X1411856Y87214D01*
X1412457Y86936D01*
X1412874Y86612D01*
X1413198Y86242D01*
X1413429Y85964D01*
X1413522Y85779D01*
X1413568Y85687D01*
X1413661D01*
Y93230D01*
X1413707Y93461D01*
X1413753Y93646D01*
X1413892Y93739D01*
X1414031Y93832D01*
X1414262Y93924D01*
X1417224D01*
X1417456Y93878D01*
D02*
G37*
G36*
X1526350Y87445D02*
X1526535Y87399D01*
X1526627Y87260D01*
X1526720Y87168D01*
X1526812Y86890D01*
Y86844D01*
Y86797D01*
Y71201D01*
X1526766Y70970D01*
X1526720Y70785D01*
X1526581Y70692D01*
X1526442Y70600D01*
X1526211Y70507D01*
X1523295D01*
X1523064Y70553D01*
X1522879Y70600D01*
X1522740Y70739D01*
X1522647Y70877D01*
X1522555Y71109D01*
Y71155D01*
Y71201D01*
Y81198D01*
X1522509Y81660D01*
X1522462Y82077D01*
X1522323Y82401D01*
X1522185Y82725D01*
X1522046Y83003D01*
X1521814Y83188D01*
X1521398Y83511D01*
X1520981Y83697D01*
X1520657Y83789D01*
X1520380Y83835D01*
X1517742D01*
X1517557Y83882D01*
X1517510Y83928D01*
X1517464D01*
X1517372Y84067D01*
X1517325Y84252D01*
Y84437D01*
Y84483D01*
Y86797D01*
X1517372Y87029D01*
X1517418Y87214D01*
X1517510Y87306D01*
X1517649Y87399D01*
X1517881Y87492D01*
X1519176D01*
X1519917Y87399D01*
X1520241Y87353D01*
X1520565Y87260D01*
X1520796Y87168D01*
X1520981Y87121D01*
X1521120Y87029D01*
X1521166D01*
X1521490Y86844D01*
X1521768Y86612D01*
X1521999Y86381D01*
X1522138Y86149D01*
X1522277Y85964D01*
X1522370Y85779D01*
X1522462Y85687D01*
Y85640D01*
X1522555D01*
Y86797D01*
X1522601Y87029D01*
X1522647Y87214D01*
X1522786Y87306D01*
X1522925Y87399D01*
X1523156Y87492D01*
X1526118D01*
X1526350Y87445D01*
D02*
G37*
G36*
X1430969Y87445D02*
X1431756Y87260D01*
X1432450Y87029D01*
X1433005Y86797D01*
X1433468Y86520D01*
X1433792Y86288D01*
X1434023Y86103D01*
X1434070Y86057D01*
X1434532Y85501D01*
X1434903Y84854D01*
X1435134Y84159D01*
X1435319Y83511D01*
X1435412Y82956D01*
X1435458Y82447D01*
X1435504Y82262D01*
Y82169D01*
Y82077D01*
Y82031D01*
Y76662D01*
X1435458Y75737D01*
X1435319Y74950D01*
X1435088Y74256D01*
X1434857Y73700D01*
X1434625Y73238D01*
X1434394Y72914D01*
X1434255Y72682D01*
X1434209Y72636D01*
X1433653Y72173D01*
X1433052Y71849D01*
X1432404Y71572D01*
X1431756Y71433D01*
X1431200Y71340D01*
X1430738Y71294D01*
X1430553Y71248D01*
X1429211D01*
X1428470Y71340D01*
X1428146Y71386D01*
X1427868Y71479D01*
X1427591Y71572D01*
X1427406Y71618D01*
X1427313Y71710D01*
X1427267D01*
X1426943Y71895D01*
X1426665Y72127D01*
X1426434Y72358D01*
X1426249Y72590D01*
X1426156Y72775D01*
X1426064Y72960D01*
X1425971Y73053D01*
Y73099D01*
X1425832D01*
Y70553D01*
Y70230D01*
X1425925Y69906D01*
X1425971Y69674D01*
X1426064Y69489D01*
X1426202Y69211D01*
X1426295Y69119D01*
X1426480Y68980D01*
X1426711Y68841D01*
X1427174Y68702D01*
X1427406D01*
X1427591Y68656D01*
X1433468D01*
X1433699Y68610D01*
X1433885Y68563D01*
X1434023Y68425D01*
X1434116Y68332D01*
X1434209Y68054D01*
Y68008D01*
Y67962D01*
Y65648D01*
X1434162Y65416D01*
X1434116Y65278D01*
X1434070Y65185D01*
Y65139D01*
X1433885Y65046D01*
X1433699Y65000D01*
X1427082D01*
X1426156Y65046D01*
X1425369Y65231D01*
X1424675Y65463D01*
X1424073Y65694D01*
X1423657Y65972D01*
X1423333Y66157D01*
X1423102Y66342D01*
X1423055Y66388D01*
X1422546Y66944D01*
X1422176Y67592D01*
X1421945Y68286D01*
X1421760Y68934D01*
X1421667Y69489D01*
X1421574Y69998D01*
Y70183D01*
Y70322D01*
Y70368D01*
Y70415D01*
Y86797D01*
X1421621Y87029D01*
X1421667Y87214D01*
X1421806Y87306D01*
X1421945Y87399D01*
X1422176Y87492D01*
X1430043D01*
X1430969Y87445D01*
D02*
G37*
G36*
X1544537Y91842D02*
X1544722Y91795D01*
X1544815Y91657D01*
X1544908Y91564D01*
X1545000Y91286D01*
Y91240D01*
Y91194D01*
Y71201D01*
X1544954Y70970D01*
X1544908Y70785D01*
X1544769Y70692D01*
X1544630Y70600D01*
X1544398Y70507D01*
X1535976D01*
X1535050Y70553D01*
X1534217Y70739D01*
X1533523Y70970D01*
X1532968Y71201D01*
X1532505Y71479D01*
X1532181Y71664D01*
X1531949Y71849D01*
X1531903Y71895D01*
X1531440Y72451D01*
X1531070Y73099D01*
X1530839Y73747D01*
X1530654Y74395D01*
X1530561Y74996D01*
X1530468Y75459D01*
Y75644D01*
Y75783D01*
Y75829D01*
Y75876D01*
Y77866D01*
X1530515Y78467D01*
X1530607Y78976D01*
X1530746Y79393D01*
X1530885Y79763D01*
X1531024Y80041D01*
X1531163Y80272D01*
X1531255Y80365D01*
X1531302Y80411D01*
X1531625Y80688D01*
X1531949Y80966D01*
X1532320Y81151D01*
X1532644Y81290D01*
X1532968Y81383D01*
X1533199Y81429D01*
X1533384Y81475D01*
X1533430D01*
X1532968Y81660D01*
X1532551Y81892D01*
X1532227Y82123D01*
X1531903Y82401D01*
X1531625Y82678D01*
X1531440Y83003D01*
X1531116Y83604D01*
X1530931Y84206D01*
X1530839Y84669D01*
X1530792Y84854D01*
Y84992D01*
Y85085D01*
Y85131D01*
Y86520D01*
X1530839Y87445D01*
X1531024Y88232D01*
X1531255Y88926D01*
X1531487Y89481D01*
X1531764Y89944D01*
X1531996Y90222D01*
X1532181Y90453D01*
X1532227Y90500D01*
X1532829Y90962D01*
X1533477Y91286D01*
X1534124Y91564D01*
X1534819Y91703D01*
X1535374Y91795D01*
X1535883Y91888D01*
X1544306D01*
X1544537Y91842D01*
D02*
G37*
G36*
X1510939Y87445D02*
X1511772Y87260D01*
X1512466Y87029D01*
X1513021Y86797D01*
X1513484Y86520D01*
X1513808Y86288D01*
X1514039Y86103D01*
X1514086Y86057D01*
X1514549Y85501D01*
X1514919Y84854D01*
X1515150Y84159D01*
X1515335Y83511D01*
X1515428Y82956D01*
X1515474Y82447D01*
X1515520Y82262D01*
Y82169D01*
Y82077D01*
Y82031D01*
Y75922D01*
X1515474Y74996D01*
X1515289Y74163D01*
X1515058Y73469D01*
X1514780Y72914D01*
X1514549Y72497D01*
X1514317Y72173D01*
X1514132Y71942D01*
X1514086Y71895D01*
X1513484Y71433D01*
X1512836Y71109D01*
X1512188Y70831D01*
X1511494Y70692D01*
X1510939Y70600D01*
X1510430Y70553D01*
X1510245Y70507D01*
X1509227D01*
X1508486Y70553D01*
X1508162Y70646D01*
X1507884Y70739D01*
X1507607Y70785D01*
X1507422Y70877D01*
X1507329Y70924D01*
X1507283D01*
X1506959Y71109D01*
X1506681Y71340D01*
X1506450Y71572D01*
X1506265Y71757D01*
X1506126Y71942D01*
X1506033Y72127D01*
X1505941Y72220D01*
Y72266D01*
X1505848D01*
Y71201D01*
X1505802Y70970D01*
X1505709Y70785D01*
X1505617Y70692D01*
X1505478Y70600D01*
X1505200Y70507D01*
X1502331D01*
X1502100Y70553D01*
X1501914Y70600D01*
X1501776Y70739D01*
X1501683Y70877D01*
X1501591Y71109D01*
Y71155D01*
Y71201D01*
Y86797D01*
X1501637Y87029D01*
X1501683Y87214D01*
X1501822Y87306D01*
X1501961Y87399D01*
X1502192Y87492D01*
X1510013D01*
X1510939Y87445D01*
D02*
G37*
G36*
X1497472Y93878D02*
X1497657Y93832D01*
X1497749Y93693D01*
X1497842Y93600D01*
X1497935Y93323D01*
Y93276D01*
Y93230D01*
Y71201D01*
X1497888Y70970D01*
X1497842Y70785D01*
X1497703Y70692D01*
X1497564Y70600D01*
X1497333Y70507D01*
X1494417D01*
X1494186Y70553D01*
X1494001Y70600D01*
X1493862Y70739D01*
X1493769Y70877D01*
X1493677Y71109D01*
Y71155D01*
Y71201D01*
Y93230D01*
X1493723Y93462D01*
X1493769Y93647D01*
X1493908Y93739D01*
X1494047Y93832D01*
X1494278Y93924D01*
X1497240D01*
X1497472Y93878D01*
D02*
G37*
G36*
X1488494Y87445D02*
X1488679Y87399D01*
X1489049Y87168D01*
X1489234Y86890D01*
X1489327Y86844D01*
Y86797D01*
X1493353Y79717D01*
X1493445Y79531D01*
Y79300D01*
Y78976D01*
X1493399Y78699D01*
X1493353Y78652D01*
Y78606D01*
X1489095Y71201D01*
X1488910Y70924D01*
X1488725Y70739D01*
X1488632Y70646D01*
X1488586Y70600D01*
X1488355Y70553D01*
X1488077Y70507D01*
X1484884D01*
X1484606Y70553D01*
X1484467Y70646D01*
X1484375Y70692D01*
X1484328Y70739D01*
X1484236Y70924D01*
Y71109D01*
X1484282Y71294D01*
X1484328Y71340D01*
X1488956Y79208D01*
Y79346D01*
X1484514Y86658D01*
X1484421Y86890D01*
X1484375Y87121D01*
X1484421Y87214D01*
Y87260D01*
X1484560Y87399D01*
X1484745Y87445D01*
X1484930Y87492D01*
X1488216D01*
X1488494Y87445D01*
D02*
G37*
G36*
X1477942D02*
X1478775Y87260D01*
X1479469Y87029D01*
X1480025Y86797D01*
X1480487Y86520D01*
X1480811Y86288D01*
X1481043Y86103D01*
X1481089Y86057D01*
X1481552Y85501D01*
X1481922Y84854D01*
X1482153Y84159D01*
X1482339Y83511D01*
X1482431Y82956D01*
X1482477Y82447D01*
X1482524Y82262D01*
Y82169D01*
Y82077D01*
Y82031D01*
Y75922D01*
X1482477Y74996D01*
X1482292Y74163D01*
X1482061Y73469D01*
X1481783Y72914D01*
X1481552Y72497D01*
X1481320Y72173D01*
X1481135Y71942D01*
X1481089Y71895D01*
X1480487Y71433D01*
X1479839Y71109D01*
X1479192Y70831D01*
X1478497Y70692D01*
X1477942Y70600D01*
X1477433Y70553D01*
X1477248Y70507D01*
X1469658Y70507D01*
X1469427Y70553D01*
X1469242Y70600D01*
X1469195Y70646D01*
X1469149D01*
X1469057Y70785D01*
X1468964Y70970D01*
Y71109D01*
Y71155D01*
Y73330D01*
X1469010Y73562D01*
X1469057Y73747D01*
X1469195Y73885D01*
X1469288Y73978D01*
X1469566Y74071D01*
X1476785Y74071D01*
X1477109Y74163D01*
X1477387Y74209D01*
X1477572Y74302D01*
X1477757Y74395D01*
X1477849Y74441D01*
X1477896Y74533D01*
X1477942D01*
X1478081Y74718D01*
X1478173Y74950D01*
X1478312Y75459D01*
Y75690D01*
X1478358Y75829D01*
Y75968D01*
Y76014D01*
Y76755D01*
X1478312Y76986D01*
X1478127Y77079D01*
X1477988Y77125D01*
X1469612Y77125D01*
X1469380Y77171D01*
X1469195Y77218D01*
X1469103Y77356D01*
X1469010Y77495D01*
X1468918Y77727D01*
Y77773D01*
Y77819D01*
Y82031D01*
X1468964Y82956D01*
X1469149Y83789D01*
X1469380Y84483D01*
X1469612Y85039D01*
X1469890Y85501D01*
X1470121Y85779D01*
X1470306Y86011D01*
X1470352Y86057D01*
X1470954Y86520D01*
X1471602Y86890D01*
X1472250Y87121D01*
X1472898Y87306D01*
X1473499Y87399D01*
X1473962Y87492D01*
X1477016D01*
X1477942Y87445D01*
D02*
G37*
G36*
X1457626Y91842D02*
X1457811Y91795D01*
X1457903Y91657D01*
X1457996Y91564D01*
X1458088Y91286D01*
Y91240D01*
Y91194D01*
Y71201D01*
X1458042Y70970D01*
X1457996Y70785D01*
X1457857Y70692D01*
X1457718Y70600D01*
X1457487Y70507D01*
X1446426D01*
X1446195Y70553D01*
X1446010Y70600D01*
X1445917Y70739D01*
X1445824Y70877D01*
X1445732Y71109D01*
Y71155D01*
Y71201D01*
Y73469D01*
X1445778Y73700D01*
X1445824Y73885D01*
X1445963Y73978D01*
X1446056Y74071D01*
X1446334Y74163D01*
X1453461D01*
X1453692Y74209D01*
X1453784Y74348D01*
X1453831Y74487D01*
Y74533D01*
Y91194D01*
X1453877Y91425D01*
X1453923Y91610D01*
X1454062Y91703D01*
X1454155Y91795D01*
X1454432Y91888D01*
X1457394D01*
X1457626Y91842D01*
D02*
G37*
G36*
X1442863Y87445D02*
X1443002Y87399D01*
X1443187Y87168D01*
X1443279Y86890D01*
Y86844D01*
Y86797D01*
Y71201D01*
X1443233Y70970D01*
X1443187Y70785D01*
X1443048Y70692D01*
X1442909Y70600D01*
X1442678Y70507D01*
X1439484D01*
X1439299Y70553D01*
X1439253Y70600D01*
X1439207D01*
X1439114Y70739D01*
X1439068Y70970D01*
Y71109D01*
Y71201D01*
Y86797D01*
X1439114Y87029D01*
X1439160Y87214D01*
X1439299Y87306D01*
X1439392Y87399D01*
X1439669Y87492D01*
X1442631D01*
X1442863Y87445D01*
D02*
G37*
G36*
X1399222Y91657D02*
X1399407Y91610D01*
X1399546Y91471D01*
X1399638Y91379D01*
X1399731Y91101D01*
Y91055D01*
Y91009D01*
Y87862D01*
X1399777Y87630D01*
X1399916Y87538D01*
X1400055Y87492D01*
X1401443D01*
X1401675Y87445D01*
X1401860Y87399D01*
X1401952Y87260D01*
X1402045Y87168D01*
X1402137Y86890D01*
Y86844D01*
Y86797D01*
Y84483D01*
X1402091Y84206D01*
X1402045Y84067D01*
X1401998Y83974D01*
Y83928D01*
X1401813Y83882D01*
X1401628Y83835D01*
X1400101D01*
X1399870Y83789D01*
X1399777Y83650D01*
X1399731Y83511D01*
Y83465D01*
Y75876D01*
X1399685Y74950D01*
X1399500Y74163D01*
X1399268Y73469D01*
X1398990Y72914D01*
X1398759Y72451D01*
X1398528Y72173D01*
X1398342Y71942D01*
X1398296Y71895D01*
X1397695Y71433D01*
X1397047Y71109D01*
X1396353Y70831D01*
X1395705Y70692D01*
X1395103Y70600D01*
X1394640Y70553D01*
X1394455Y70507D01*
X1392187D01*
X1391910Y70553D01*
X1391771Y70600D01*
X1391678Y70646D01*
X1391632D01*
X1391539Y70785D01*
X1391447Y70970D01*
Y71109D01*
Y71155D01*
Y73469D01*
X1391493Y73700D01*
X1391539Y73885D01*
X1391678Y73978D01*
X1391817Y74071D01*
X1392049Y74163D01*
X1393853D01*
X1394177Y74209D01*
X1394455Y74302D01*
X1394686Y74395D01*
X1394825Y74441D01*
X1394964Y74533D01*
X1395010Y74580D01*
X1395057D01*
X1395195Y74765D01*
X1395334Y74996D01*
X1395473Y75505D01*
Y75737D01*
X1395520Y75876D01*
Y76014D01*
Y76061D01*
Y83465D01*
X1395473Y83697D01*
X1395288Y83789D01*
X1395149Y83835D01*
X1392511D01*
X1392234Y83882D01*
X1392095Y83928D01*
X1392002Y83974D01*
X1391956D01*
X1391864Y84113D01*
X1391817Y84298D01*
Y84437D01*
Y84483D01*
Y86797D01*
X1391864Y87029D01*
X1391910Y87214D01*
X1392049Y87306D01*
X1392141Y87399D01*
X1392419Y87492D01*
X1395103D01*
X1395334Y87538D01*
X1395473Y87677D01*
X1395520Y87815D01*
Y87862D01*
Y91009D01*
X1395566Y91240D01*
X1395612Y91425D01*
X1395751Y91518D01*
X1395843Y91610D01*
X1396121Y91703D01*
X1398990D01*
X1399222Y91657D01*
D02*
G37*
G36*
X798614Y118176D02*
X798738Y118134D01*
X798794Y118106D01*
X798836Y118093D01*
X798863Y118065D01*
X798877D01*
X799779Y117496D01*
X799834Y117469D01*
X799862Y117427D01*
X799917Y117344D01*
X799931Y117274D01*
Y117261D01*
Y117247D01*
Y116428D01*
X799917Y116359D01*
X799903Y116318D01*
X799862Y116290D01*
X799751D01*
X799737Y116304D01*
X799723D01*
X798738Y116858D01*
Y112004D01*
X798725Y111935D01*
X798711Y111880D01*
X798669Y111852D01*
X798627Y111824D01*
X798558Y111796D01*
X797671D01*
X797601Y111810D01*
X797546Y111824D01*
X797532Y111838D01*
X797518D01*
X797490Y111880D01*
X797476Y111935D01*
Y111991D01*
Y112004D01*
Y117996D01*
X797490Y118065D01*
X797504Y118120D01*
X797546Y118148D01*
X797573Y118176D01*
X797657Y118204D01*
X798489D01*
X798614Y118176D01*
D02*
G37*
G36*
X805132Y118190D02*
X805187Y118176D01*
X805215Y118134D01*
X805243Y118106D01*
X805270Y118023D01*
Y118009D01*
Y117996D01*
Y112004D01*
X805257Y111935D01*
X805243Y111880D01*
X805201Y111852D01*
X805160Y111824D01*
X805090Y111796D01*
X804203D01*
X804133Y111810D01*
X804078Y111824D01*
X804050Y111866D01*
X804022Y111907D01*
X803995Y111977D01*
Y111991D01*
Y112004D01*
Y114334D01*
X803981Y114404D01*
X803939Y114431D01*
X803897Y114445D01*
X802192D01*
X802122Y114431D01*
X802095Y114390D01*
X802081Y114348D01*
Y114334D01*
Y112004D01*
X802067Y111935D01*
X802053Y111880D01*
X802011Y111852D01*
X801970Y111824D01*
X801900Y111796D01*
X801027D01*
X800957Y111810D01*
X800902Y111824D01*
X800874Y111866D01*
X800846Y111907D01*
X800819Y111977D01*
Y111991D01*
Y112004D01*
Y117996D01*
X800833Y118065D01*
X800846Y118120D01*
X800888Y118148D01*
X800916Y118176D01*
X800999Y118204D01*
X801873D01*
X801942Y118190D01*
X801998Y118176D01*
X802025Y118134D01*
X802053Y118106D01*
X802081Y118023D01*
Y118009D01*
Y117996D01*
Y115652D01*
X802095Y115583D01*
X802136Y115555D01*
X802178Y115541D01*
X803884D01*
X803953Y115555D01*
X803981Y115596D01*
X803995Y115638D01*
Y115652D01*
Y117996D01*
X804008Y118065D01*
X804022Y118120D01*
X804064Y118148D01*
X804092Y118176D01*
X804175Y118204D01*
X805062D01*
X805132Y118190D01*
D02*
G37*
G36*
X812385D02*
X812440Y118176D01*
X812468Y118134D01*
X812496Y118106D01*
X812524Y118023D01*
Y118009D01*
Y117996D01*
Y112004D01*
X812510Y111935D01*
X812496Y111880D01*
X812454Y111852D01*
X812413Y111824D01*
X812343Y111796D01*
X811497D01*
X811414Y111810D01*
X811359Y111824D01*
X811331Y111838D01*
X811317D01*
X811289Y111880D01*
X811275Y111935D01*
Y111991D01*
Y112004D01*
Y116747D01*
X811248D01*
X810208Y113391D01*
X810180Y113322D01*
X810138Y113266D01*
X810097Y113239D01*
X810055Y113211D01*
X809986Y113183D01*
X809112D01*
X809043Y113197D01*
X808987Y113211D01*
X808918Y113294D01*
X808876Y113364D01*
X808862Y113377D01*
Y113391D01*
X807850Y116734D01*
X807808D01*
Y112004D01*
X807794Y111935D01*
X807781Y111880D01*
X807739Y111852D01*
X807697Y111824D01*
X807628Y111796D01*
X806782D01*
X806713Y111810D01*
X806657Y111824D01*
X806629Y111866D01*
X806602Y111907D01*
X806574Y111977D01*
Y111991D01*
Y112004D01*
Y117996D01*
X806588Y118065D01*
X806602Y118120D01*
X806643Y118148D01*
X806671Y118176D01*
X806754Y118204D01*
X808252D01*
X808349Y118176D01*
X808405Y118134D01*
X808432Y118093D01*
X808446Y118065D01*
X809514Y114542D01*
X809570D01*
X810638Y118065D01*
X810679Y118148D01*
X810748Y118190D01*
X810790Y118204D01*
X812316D01*
X812385Y118190D01*
D02*
G37*
G36*
X52358Y138176D02*
X52483Y138134D01*
X52538Y138106D01*
X52580Y138093D01*
X52608Y138065D01*
X52622D01*
X53523Y137496D01*
X53579Y137469D01*
X53606Y137427D01*
X53662Y137344D01*
X53676Y137274D01*
Y137261D01*
Y137247D01*
Y136428D01*
X53662Y136359D01*
X53648Y136318D01*
X53606Y136290D01*
X53495D01*
X53481Y136304D01*
X53467D01*
X52483Y136858D01*
Y132004D01*
X52469Y131935D01*
X52455Y131880D01*
X52414Y131852D01*
X52372Y131824D01*
X52303Y131796D01*
X51415D01*
X51346Y131810D01*
X51290Y131824D01*
X51276Y131838D01*
X51262D01*
X51235Y131880D01*
X51221Y131935D01*
Y131991D01*
Y132004D01*
Y137996D01*
X51235Y138065D01*
X51249Y138120D01*
X51290Y138148D01*
X51318Y138176D01*
X51401Y138204D01*
X52233D01*
X52358Y138176D01*
D02*
G37*
G36*
X55617Y138190D02*
X55673Y138176D01*
X55714Y138134D01*
X55742Y138106D01*
X55770Y138023D01*
Y138010D01*
Y137996D01*
Y133475D01*
Y133364D01*
X55797Y133266D01*
X55811Y133183D01*
X55839Y133128D01*
X55867Y133072D01*
X55881Y133045D01*
X55908Y133031D01*
Y133017D01*
X55964Y132975D01*
X56033Y132948D01*
X56172Y132906D01*
X56241D01*
X56297Y132892D01*
X57046D01*
X57143Y132906D01*
X57226Y132934D01*
X57281Y132961D01*
X57337Y132975D01*
X57365Y133003D01*
X57378Y133017D01*
X57392D01*
X57434Y133072D01*
X57462Y133142D01*
X57503Y133294D01*
Y133364D01*
X57517Y133419D01*
Y133461D01*
Y133475D01*
Y134362D01*
X57531Y134431D01*
X57545Y134487D01*
X57586Y134515D01*
X57614Y134542D01*
X57697Y134570D01*
X58571D01*
X58640Y134556D01*
X58696Y134542D01*
X58724Y134501D01*
X58751Y134473D01*
X58779Y134390D01*
Y134376D01*
Y134362D01*
Y133419D01*
X58765Y133142D01*
X58710Y132892D01*
X58640Y132684D01*
X58571Y132518D01*
X58488Y132393D01*
X58432Y132296D01*
X58377Y132226D01*
X58363Y132212D01*
X58183Y132074D01*
X57989Y131977D01*
X57794Y131894D01*
X57586Y131852D01*
X57420Y131824D01*
X57267Y131810D01*
X57212Y131796D01*
X56144D01*
X55867Y131810D01*
X55617Y131866D01*
X55409Y131935D01*
X55243Y132004D01*
X55104Y132088D01*
X55021Y132143D01*
X54952Y132199D01*
X54938Y132212D01*
X54799Y132393D01*
X54688Y132587D01*
X54619Y132781D01*
X54563Y132975D01*
X54535Y133155D01*
X54508Y133294D01*
Y133350D01*
Y133391D01*
Y133405D01*
Y133419D01*
Y138010D01*
X54521Y138079D01*
X54535Y138120D01*
X54605Y138176D01*
X54688Y138204D01*
X55548D01*
X55617Y138190D01*
D02*
G37*
G36*
X594320Y123190D02*
X594375Y123176D01*
X594403Y123134D01*
X594431Y123106D01*
X594459Y123023D01*
Y123009D01*
Y122996D01*
Y117004D01*
X594445Y116935D01*
X594431Y116880D01*
X594389Y116852D01*
X594348Y116824D01*
X594278Y116796D01*
X593391D01*
X593321Y116810D01*
X593266Y116824D01*
X593238Y116866D01*
X593210Y116907D01*
X593183Y116977D01*
Y116990D01*
Y117004D01*
Y119043D01*
X593169Y119112D01*
X593127Y119140D01*
X593086Y119154D01*
X592392D01*
X591394Y117004D01*
X591352Y116921D01*
X591311Y116866D01*
X591283Y116838D01*
X591269Y116824D01*
X591186Y116810D01*
X591102Y116796D01*
X590201D01*
X590118Y116810D01*
X590062Y116838D01*
X590035Y116866D01*
X590021Y116921D01*
Y116990D01*
X590035Y117018D01*
Y117032D01*
X591102Y119251D01*
Y119293D01*
X590950Y119376D01*
X590811Y119459D01*
X590686Y119570D01*
X590589Y119681D01*
X590506Y119806D01*
X590437Y119931D01*
X590326Y120180D01*
X590257Y120416D01*
X590243Y120513D01*
X590229Y120610D01*
X590215Y120680D01*
Y120735D01*
Y120777D01*
Y120791D01*
Y121567D01*
X590229Y121845D01*
X590284Y122094D01*
X590354Y122302D01*
X590437Y122469D01*
X590520Y122607D01*
X590589Y122690D01*
X590645Y122760D01*
X590659Y122774D01*
X590839Y122912D01*
X591033Y123023D01*
X591227Y123093D01*
X591422Y123148D01*
X591602Y123176D01*
X591740Y123204D01*
X594251D01*
X594320Y123190D01*
D02*
G37*
G36*
X589314D02*
X589369Y123176D01*
X589397Y123134D01*
X589424Y123106D01*
X589452Y123023D01*
Y123009D01*
Y122996D01*
Y122261D01*
X589438Y122191D01*
X589424Y122136D01*
X589383Y122108D01*
X589341Y122080D01*
X589272Y122052D01*
X586886D01*
X588994Y117004D01*
X589022Y116935D01*
Y116880D01*
Y116852D01*
Y116838D01*
X588981Y116810D01*
X588939Y116796D01*
X587954D01*
X587857Y116810D01*
X587788Y116824D01*
X587733Y116852D01*
X587677Y116894D01*
X587622Y116949D01*
X587608Y116963D01*
Y116977D01*
X585680Y121623D01*
X585597Y121845D01*
X585569Y121942D01*
X585555Y122025D01*
X585541Y122080D01*
Y122122D01*
Y122150D01*
Y122163D01*
Y122996D01*
X585555Y123065D01*
X585569Y123120D01*
X585611Y123148D01*
X585638Y123176D01*
X585722Y123204D01*
X589244D01*
X589314Y123190D01*
D02*
G37*
G36*
X594667Y38190D02*
X594722Y38176D01*
X594750Y38134D01*
X594778Y38107D01*
X594805Y38023D01*
Y38009D01*
Y37996D01*
Y32004D01*
X594791Y31935D01*
X594778Y31880D01*
X594736Y31852D01*
X594694Y31824D01*
X594625Y31796D01*
X593737D01*
X593668Y31810D01*
X593613Y31824D01*
X593585Y31866D01*
X593557Y31907D01*
X593530Y31977D01*
Y31991D01*
Y32004D01*
Y34043D01*
X593516Y34112D01*
X593474Y34140D01*
X593432Y34154D01*
X592739D01*
X591740Y32004D01*
X591699Y31921D01*
X591657Y31866D01*
X591629Y31838D01*
X591616Y31824D01*
X591532Y31810D01*
X591449Y31796D01*
X590548D01*
X590465Y31810D01*
X590409Y31838D01*
X590381Y31866D01*
X590368Y31921D01*
Y31991D01*
X590381Y32018D01*
Y32032D01*
X591449Y34251D01*
Y34293D01*
X591297Y34376D01*
X591158Y34459D01*
X591033Y34570D01*
X590936Y34681D01*
X590853Y34806D01*
X590784Y34931D01*
X590673Y35180D01*
X590603Y35416D01*
X590589Y35513D01*
X590575Y35610D01*
X590562Y35680D01*
Y35735D01*
Y35777D01*
Y35791D01*
Y36567D01*
X590575Y36844D01*
X590631Y37094D01*
X590700Y37302D01*
X590784Y37469D01*
X590867Y37607D01*
X590936Y37690D01*
X590992Y37760D01*
X591005Y37774D01*
X591186Y37912D01*
X591380Y38023D01*
X591574Y38093D01*
X591768Y38148D01*
X591949Y38176D01*
X592087Y38204D01*
X594597D01*
X594667Y38190D01*
D02*
G37*
G36*
X588093D02*
X588343Y38134D01*
X588551Y38079D01*
X588717Y37996D01*
X588856Y37926D01*
X588953Y37857D01*
X589022Y37801D01*
X589036Y37788D01*
X589175Y37621D01*
X589286Y37427D01*
X589355Y37219D01*
X589411Y37025D01*
X589438Y36858D01*
X589452Y36706D01*
X589466Y36650D01*
Y36623D01*
Y36595D01*
Y36581D01*
Y33419D01*
X589452Y33142D01*
X589397Y32892D01*
X589327Y32684D01*
X589244Y32518D01*
X589175Y32393D01*
X589105Y32296D01*
X589050Y32226D01*
X589036Y32213D01*
X588856Y32074D01*
X588662Y31977D01*
X588467Y31893D01*
X588260Y31852D01*
X588093Y31824D01*
X587940Y31810D01*
X587885Y31796D01*
X586845D01*
X586568Y31810D01*
X586318Y31866D01*
X586110Y31935D01*
X585943Y32004D01*
X585805Y32088D01*
X585708Y32143D01*
X585638Y32199D01*
X585625Y32213D01*
X585486Y32379D01*
X585375Y32573D01*
X585305Y32781D01*
X585250Y32975D01*
X585222Y33142D01*
X585195Y33294D01*
Y33350D01*
Y33391D01*
Y33405D01*
Y33419D01*
Y34223D01*
X585209Y34501D01*
X585264Y34750D01*
X585333Y34958D01*
X585403Y35125D01*
X585486Y35264D01*
X585555Y35347D01*
X585611Y35416D01*
X585625Y35430D01*
X585805Y35569D01*
X585999Y35680D01*
X586193Y35749D01*
X586401Y35804D01*
X586568Y35832D01*
X586720Y35860D01*
X588204D01*
Y36525D01*
Y36637D01*
X588176Y36734D01*
X588162Y36803D01*
X588135Y36872D01*
X588107Y36914D01*
X588093Y36942D01*
X588065Y36969D01*
X588010Y37011D01*
X587940Y37053D01*
X587788Y37094D01*
X587719Y37108D01*
X585777D01*
X585708Y37122D01*
X585652Y37136D01*
X585625Y37177D01*
X585597Y37219D01*
X585569Y37288D01*
Y37302D01*
Y37316D01*
Y37996D01*
X585583Y38065D01*
X585597Y38120D01*
X585638Y38148D01*
X585666Y38176D01*
X585749Y38204D01*
X587816D01*
X588093Y38190D01*
D02*
G37*
G36*
X724210Y93190D02*
X724265Y93176D01*
X724307Y93134D01*
X724334Y93106D01*
X724362Y93023D01*
Y93009D01*
Y92996D01*
Y89834D01*
X724348Y89764D01*
X724320Y89723D01*
X724251Y89667D01*
X724168Y89639D01*
X723322D01*
X723266Y89653D01*
X723211Y89667D01*
X723114Y89750D01*
X723058Y89820D01*
X723031Y89834D01*
Y89847D01*
X722975Y89917D01*
X722906Y89972D01*
X722850Y90000D01*
X722781Y90028D01*
X722726Y90042D01*
X722684Y90056D01*
X722046D01*
X721935Y90028D01*
X721838Y90014D01*
X721769Y89986D01*
X721727Y89958D01*
X721685Y89931D01*
X721658Y89917D01*
Y89903D01*
X721602Y89834D01*
X721574Y89750D01*
X721519Y89556D01*
Y89459D01*
X721505Y89390D01*
Y89334D01*
Y89320D01*
Y88433D01*
Y88322D01*
X721533Y88225D01*
X721547Y88142D01*
X721574Y88086D01*
X721602Y88031D01*
X721630Y88003D01*
X721644Y87989D01*
X721658Y87975D01*
X721727Y87934D01*
X721796Y87906D01*
X721949Y87864D01*
X722018D01*
X722074Y87850D01*
X722712D01*
X722795Y87864D01*
X722878Y87892D01*
X722934Y87920D01*
X722989Y87934D01*
X723017Y87961D01*
X723045Y87975D01*
X723086Y88031D01*
X723128Y88100D01*
X723169Y88253D01*
Y88322D01*
X723183Y88377D01*
Y88419D01*
Y88433D01*
Y88613D01*
X723197Y88682D01*
X723211Y88738D01*
X723253Y88780D01*
X723280Y88807D01*
X723363Y88835D01*
X724237D01*
X724307Y88821D01*
X724362Y88807D01*
X724390Y88766D01*
X724417Y88724D01*
X724445Y88655D01*
Y88627D01*
Y88613D01*
Y88419D01*
X724431Y88142D01*
X724376Y87892D01*
X724307Y87684D01*
X724223Y87518D01*
X724154Y87393D01*
X724085Y87296D01*
X724029Y87226D01*
X724015Y87212D01*
X723835Y87074D01*
X723641Y86977D01*
X723447Y86894D01*
X723239Y86852D01*
X723072Y86824D01*
X722920Y86810D01*
X722864Y86796D01*
X721921D01*
X721644Y86810D01*
X721408Y86866D01*
X721200Y86935D01*
X721020Y87004D01*
X720895Y87088D01*
X720798Y87143D01*
X720729Y87199D01*
X720715Y87212D01*
X720576Y87393D01*
X720465Y87587D01*
X720396Y87781D01*
X720340Y87975D01*
X720312Y88155D01*
X720285Y88294D01*
Y88350D01*
Y88391D01*
Y88405D01*
Y88419D01*
Y89515D01*
X720299Y89792D01*
X720354Y90028D01*
X720423Y90236D01*
X720520Y90416D01*
X720645Y90569D01*
X720770Y90693D01*
X720909Y90791D01*
X721048Y90874D01*
X721200Y90943D01*
X721339Y90985D01*
X721464Y91026D01*
X721588Y91040D01*
X721685Y91054D01*
X721755Y91068D01*
X722254D01*
X722476Y91040D01*
X722670Y90985D01*
X722809Y90915D01*
X722920Y90818D01*
X723003Y90721D01*
X723045Y90652D01*
X723072Y90596D01*
X723086Y90569D01*
Y92039D01*
X720673D01*
X720604Y92052D01*
X720548Y92066D01*
X720520Y92108D01*
X720493Y92150D01*
X720465Y92219D01*
Y92233D01*
Y92247D01*
Y92996D01*
X720479Y93065D01*
X720493Y93120D01*
X720534Y93148D01*
X720562Y93176D01*
X720645Y93204D01*
X724140D01*
X724210Y93190D01*
D02*
G37*
G36*
X729577D02*
X729632Y93176D01*
X729660Y93134D01*
X729688Y93106D01*
X729715Y93023D01*
Y93009D01*
Y92996D01*
Y87004D01*
X729701Y86935D01*
X729688Y86880D01*
X729646Y86852D01*
X729604Y86824D01*
X729535Y86796D01*
X728647D01*
X728578Y86810D01*
X728523Y86824D01*
X728495Y86866D01*
X728467Y86907D01*
X728439Y86977D01*
Y86991D01*
Y87004D01*
Y89043D01*
X728426Y89112D01*
X728384Y89140D01*
X728342Y89154D01*
X727649D01*
X726650Y87004D01*
X726609Y86921D01*
X726567Y86866D01*
X726539Y86838D01*
X726525Y86824D01*
X726442Y86810D01*
X726359Y86796D01*
X725458D01*
X725374Y86810D01*
X725319Y86838D01*
X725291Y86866D01*
X725277Y86921D01*
Y86991D01*
X725291Y87018D01*
Y87032D01*
X726359Y89251D01*
Y89293D01*
X726207Y89376D01*
X726068Y89459D01*
X725943Y89570D01*
X725846Y89681D01*
X725763Y89806D01*
X725693Y89931D01*
X725583Y90180D01*
X725513Y90416D01*
X725499Y90513D01*
X725485Y90610D01*
X725471Y90680D01*
Y90735D01*
Y90777D01*
Y90791D01*
Y91567D01*
X725485Y91845D01*
X725541Y92094D01*
X725610Y92302D01*
X725693Y92469D01*
X725777Y92607D01*
X725846Y92690D01*
X725901Y92760D01*
X725915Y92774D01*
X726096Y92912D01*
X726290Y93023D01*
X726484Y93093D01*
X726678Y93148D01*
X726858Y93176D01*
X726997Y93204D01*
X729507D01*
X729577Y93190D01*
D02*
G37*
G36*
X739909Y143190D02*
X739965Y143176D01*
X739993Y143134D01*
X740020Y143106D01*
X740048Y143023D01*
Y143009D01*
Y142996D01*
Y137004D01*
X740034Y136935D01*
X740020Y136880D01*
X739979Y136852D01*
X739937Y136824D01*
X739868Y136796D01*
X738980D01*
X738911Y136810D01*
X738855Y136824D01*
X738828Y136866D01*
X738800Y136907D01*
X738772Y136977D01*
Y136991D01*
Y137004D01*
Y139043D01*
X738758Y139112D01*
X738717Y139140D01*
X738675Y139154D01*
X737982D01*
X736983Y137004D01*
X736942Y136921D01*
X736900Y136866D01*
X736872Y136838D01*
X736858Y136824D01*
X736775Y136810D01*
X736692Y136796D01*
X735790D01*
X735707Y136810D01*
X735652Y136838D01*
X735624Y136866D01*
X735610Y136921D01*
Y136991D01*
X735624Y137018D01*
Y137032D01*
X736692Y139251D01*
Y139293D01*
X736539Y139376D01*
X736401Y139459D01*
X736276Y139570D01*
X736179Y139681D01*
X736096Y139806D01*
X736026Y139931D01*
X735915Y140180D01*
X735846Y140416D01*
X735832Y140513D01*
X735818Y140610D01*
X735804Y140680D01*
Y140735D01*
Y140777D01*
Y140791D01*
Y141567D01*
X735818Y141845D01*
X735874Y142094D01*
X735943Y142302D01*
X736026Y142469D01*
X736109Y142607D01*
X736179Y142690D01*
X736234Y142760D01*
X736248Y142774D01*
X736428Y142912D01*
X736623Y143023D01*
X736817Y143093D01*
X737011Y143148D01*
X737191Y143176D01*
X737330Y143204D01*
X739840D01*
X739909Y143190D01*
D02*
G37*
G36*
X732490D02*
X732559Y143176D01*
X732615Y143148D01*
X732628Y143134D01*
X732698Y143079D01*
X732753Y142996D01*
X732795Y142926D01*
X732809Y142912D01*
Y142899D01*
X734806Y139209D01*
X734861Y139057D01*
X734889Y138890D01*
X734903Y138821D01*
Y138766D01*
Y138724D01*
Y138710D01*
Y138322D01*
X734889Y138211D01*
X734847Y138128D01*
X734820Y138072D01*
X734806Y138058D01*
X734709Y138003D01*
X734626Y137975D01*
X734556Y137961D01*
X732060D01*
Y137004D01*
X732046Y136935D01*
X732018Y136880D01*
X731991Y136852D01*
X731949Y136824D01*
X731866Y136796D01*
X731061D01*
X730992Y136810D01*
X730937Y136824D01*
X730923Y136838D01*
X730909D01*
X730881Y136880D01*
X730867Y136935D01*
Y136991D01*
Y137004D01*
Y137961D01*
X730146D01*
X730077Y137975D01*
X730035Y138003D01*
X729980Y138072D01*
X729952Y138155D01*
Y138169D01*
Y138183D01*
Y138863D01*
X729966Y138932D01*
X729980Y138974D01*
X730049Y139029D01*
X730118Y139057D01*
X730867D01*
Y142843D01*
X730881Y142954D01*
X730923Y143037D01*
X730964Y143093D01*
X730978Y143106D01*
X731061Y143162D01*
X731145Y143190D01*
X731214Y143204D01*
X732379D01*
X732490Y143190D01*
D02*
G37*
G36*
X413128Y108190D02*
X413377Y108134D01*
X413585Y108079D01*
X413752Y107996D01*
X413890Y107926D01*
X413988Y107857D01*
X414057Y107801D01*
X414071Y107788D01*
X414210Y107621D01*
X414320Y107427D01*
X414390Y107233D01*
X414445Y107039D01*
X414473Y106858D01*
X414487Y106720D01*
X414501Y106664D01*
Y106623D01*
Y106609D01*
Y106595D01*
Y106318D01*
X414487Y106248D01*
X414473Y106193D01*
X414431Y106165D01*
X414390Y106137D01*
X414320Y106110D01*
X413447D01*
X413377Y106123D01*
X413322Y106137D01*
X413280Y106179D01*
X413253Y106220D01*
X413225Y106290D01*
Y106304D01*
Y106318D01*
Y106567D01*
Y106678D01*
X413211Y106775D01*
X413183Y106845D01*
X413156Y106914D01*
X413142Y106955D01*
X413114Y106983D01*
X413100Y107011D01*
X413045Y107052D01*
X412975Y107094D01*
X412836Y107136D01*
X412767Y107150D01*
X412060D01*
X411963Y107122D01*
X411880Y107108D01*
X411810Y107080D01*
X411755Y107052D01*
X411727Y107039D01*
X411699Y107011D01*
X411644Y106955D01*
X411616Y106886D01*
X411561Y106747D01*
Y106678D01*
X411547Y106623D01*
Y106581D01*
Y106567D01*
Y106110D01*
Y105998D01*
X411575Y105901D01*
X411588Y105818D01*
X411616Y105763D01*
X411644Y105707D01*
X411672Y105680D01*
X411685Y105666D01*
X411699Y105652D01*
X411755Y105610D01*
X411824Y105583D01*
X411991Y105541D01*
X412060D01*
X412115Y105527D01*
X412684D01*
X412753Y105513D01*
X412809Y105499D01*
X412836Y105458D01*
X412864Y105416D01*
X412892Y105347D01*
Y105319D01*
Y105305D01*
Y104709D01*
X412878Y104639D01*
X412864Y104584D01*
X412823Y104556D01*
X412781Y104529D01*
X412712Y104501D01*
X412060D01*
X411963Y104473D01*
X411880Y104459D01*
X411810Y104431D01*
X411755Y104404D01*
X411727Y104390D01*
X411699Y104362D01*
X411644Y104307D01*
X411616Y104237D01*
X411561Y104085D01*
Y104029D01*
X411547Y103974D01*
Y103932D01*
Y103918D01*
Y103433D01*
Y103322D01*
X411575Y103225D01*
X411588Y103142D01*
X411616Y103086D01*
X411644Y103031D01*
X411672Y103003D01*
X411685Y102989D01*
X411699Y102975D01*
X411755Y102934D01*
X411824Y102906D01*
X411991Y102864D01*
X412060D01*
X412115Y102850D01*
X412767D01*
X412864Y102864D01*
X412934Y102892D01*
X413003Y102920D01*
X413045Y102934D01*
X413072Y102961D01*
X413100Y102975D01*
X413142Y103031D01*
X413169Y103100D01*
X413211Y103253D01*
Y103322D01*
X413225Y103377D01*
Y103419D01*
Y103433D01*
Y103682D01*
X413239Y103752D01*
X413253Y103807D01*
X413294Y103849D01*
X413336Y103877D01*
X413405Y103904D01*
X414293D01*
X414362Y103890D01*
X414417Y103877D01*
X414445Y103835D01*
X414473Y103793D01*
X414501Y103724D01*
Y103696D01*
Y103682D01*
Y103405D01*
X414487Y103128D01*
X414431Y102892D01*
X414362Y102684D01*
X414279Y102517D01*
X414210Y102379D01*
X414140Y102296D01*
X414085Y102226D01*
X414071Y102212D01*
X413890Y102074D01*
X413696Y101977D01*
X413502Y101894D01*
X413294Y101852D01*
X413128Y101824D01*
X412975Y101810D01*
X412920Y101796D01*
X411963D01*
X411685Y101810D01*
X411436Y101866D01*
X411228Y101935D01*
X411061Y102004D01*
X410923Y102088D01*
X410826Y102143D01*
X410756Y102199D01*
X410742Y102212D01*
X410604Y102379D01*
X410493Y102573D01*
X410423Y102767D01*
X410368Y102961D01*
X410340Y103142D01*
X410312Y103280D01*
Y103336D01*
Y103377D01*
Y103391D01*
Y103405D01*
Y103918D01*
X410326Y104085D01*
X410340Y104223D01*
X410382Y104362D01*
X410437Y104473D01*
X410493Y104570D01*
X410562Y104667D01*
X410701Y104806D01*
X410853Y104903D01*
X410978Y104958D01*
X411034Y104972D01*
X411075Y104986D01*
X411089Y105000D01*
X411103D01*
X410964Y105056D01*
X410840Y105125D01*
X410742Y105194D01*
X410645Y105277D01*
X410562Y105361D01*
X410507Y105458D01*
X410410Y105638D01*
X410354Y105818D01*
X410326Y105957D01*
X410312Y106012D01*
Y106054D01*
Y106082D01*
Y106096D01*
Y106595D01*
X410326Y106872D01*
X410382Y107108D01*
X410451Y107316D01*
X410521Y107482D01*
X410604Y107621D01*
X410673Y107704D01*
X410728Y107774D01*
X410742Y107788D01*
X410923Y107926D01*
X411117Y108023D01*
X411311Y108106D01*
X411519Y108148D01*
X411685Y108176D01*
X411838Y108204D01*
X412850D01*
X413128Y108190D01*
D02*
G37*
G36*
X419549D02*
X419604Y108176D01*
X419632Y108134D01*
X419660Y108106D01*
X419688Y108023D01*
Y108009D01*
Y107996D01*
Y102004D01*
X419674Y101935D01*
X419660Y101880D01*
X419618Y101852D01*
X419577Y101824D01*
X419507Y101796D01*
X418620D01*
X418550Y101810D01*
X418495Y101824D01*
X418467Y101866D01*
X418439Y101907D01*
X418412Y101977D01*
Y101991D01*
Y102004D01*
Y104043D01*
X418398Y104112D01*
X418356Y104140D01*
X418315Y104154D01*
X417621D01*
X416623Y102004D01*
X416581Y101921D01*
X416539Y101866D01*
X416512Y101838D01*
X416498Y101824D01*
X416415Y101810D01*
X416331Y101796D01*
X415430D01*
X415347Y101810D01*
X415291Y101838D01*
X415263Y101866D01*
X415250Y101921D01*
Y101991D01*
X415263Y102018D01*
Y102032D01*
X416331Y104251D01*
Y104293D01*
X416179Y104376D01*
X416040Y104459D01*
X415915Y104570D01*
X415818Y104681D01*
X415735Y104806D01*
X415666Y104931D01*
X415555Y105180D01*
X415485Y105416D01*
X415471Y105513D01*
X415458Y105610D01*
X415444Y105680D01*
Y105735D01*
Y105777D01*
Y105791D01*
Y106567D01*
X415458Y106845D01*
X415513Y107094D01*
X415583Y107302D01*
X415666Y107469D01*
X415749Y107607D01*
X415818Y107690D01*
X415874Y107760D01*
X415888Y107774D01*
X416068Y107912D01*
X416262Y108023D01*
X416456Y108093D01*
X416650Y108148D01*
X416831Y108176D01*
X416969Y108204D01*
X419479D01*
X419549Y108190D01*
D02*
G37*
G36*
X468038D02*
X468287Y108134D01*
X468495Y108079D01*
X468662Y107996D01*
X468800Y107926D01*
X468898Y107857D01*
X468967Y107801D01*
X468981Y107788D01*
X469119Y107621D01*
X469230Y107427D01*
X469300Y107233D01*
X469355Y107039D01*
X469383Y106858D01*
X469397Y106720D01*
X469411Y106664D01*
Y106623D01*
Y106609D01*
Y106595D01*
Y106248D01*
X469397Y106179D01*
X469369Y106123D01*
X469341Y106096D01*
X469300Y106068D01*
X469216Y106040D01*
X468343D01*
X468273Y106054D01*
X468218Y106068D01*
X468190Y106110D01*
X468162Y106151D01*
X468135Y106220D01*
Y106234D01*
Y106248D01*
Y106567D01*
Y106678D01*
X468121Y106775D01*
X468093Y106845D01*
X468065Y106914D01*
X468051Y106955D01*
X468024Y106983D01*
X468010Y107011D01*
X467954Y107052D01*
X467885Y107094D01*
X467733Y107136D01*
X467663Y107150D01*
X467095D01*
X466997Y107122D01*
X466914Y107108D01*
X466845Y107080D01*
X466790Y107052D01*
X466762Y107039D01*
X466734Y107011D01*
X466679Y106955D01*
X466651Y106886D01*
X466595Y106747D01*
Y106678D01*
X466581Y106623D01*
Y106581D01*
Y106567D01*
Y106276D01*
X466595Y106123D01*
X466651Y105971D01*
X466720Y105832D01*
X466803Y105707D01*
X466900Y105610D01*
X466970Y105541D01*
X467025Y105485D01*
X467039Y105471D01*
X468870Y103918D01*
X469036Y103766D01*
X469161Y103599D01*
X469244Y103433D01*
X469300Y103280D01*
X469341Y103155D01*
X469355Y103045D01*
X469369Y102975D01*
Y102948D01*
Y102004D01*
X469355Y101935D01*
X469341Y101880D01*
X469300Y101852D01*
X469258Y101824D01*
X469189Y101796D01*
X465555D01*
X465486Y101810D01*
X465430Y101824D01*
X465403Y101866D01*
X465375Y101907D01*
X465347Y101977D01*
Y101991D01*
Y102004D01*
Y102698D01*
X465361Y102767D01*
X465375Y102823D01*
X465416Y102850D01*
X465444Y102878D01*
X465527Y102906D01*
X467940D01*
Y103072D01*
X467927Y103155D01*
X467885Y103239D01*
X467844Y103294D01*
X467830Y103308D01*
X465943Y104903D01*
X465832Y105000D01*
X465749Y105111D01*
X465597Y105319D01*
X465486Y105541D01*
X465416Y105735D01*
X465375Y105915D01*
X465361Y106068D01*
X465347Y106123D01*
Y106165D01*
Y106179D01*
Y106193D01*
Y106595D01*
X465361Y106872D01*
X465416Y107108D01*
X465486Y107316D01*
X465555Y107482D01*
X465638Y107621D01*
X465708Y107704D01*
X465763Y107774D01*
X465777Y107788D01*
X465957Y107926D01*
X466152Y108023D01*
X466346Y108106D01*
X466554Y108148D01*
X466720Y108176D01*
X466873Y108204D01*
X467760D01*
X468038Y108190D01*
D02*
G37*
G36*
X474514D02*
X474570Y108176D01*
X474597Y108134D01*
X474625Y108106D01*
X474653Y108023D01*
Y108009D01*
Y107996D01*
Y102004D01*
X474639Y101935D01*
X474625Y101880D01*
X474584Y101852D01*
X474542Y101824D01*
X474473Y101796D01*
X473585D01*
X473516Y101810D01*
X473460Y101824D01*
X473432Y101866D01*
X473405Y101907D01*
X473377Y101977D01*
Y101991D01*
Y102004D01*
Y104043D01*
X473363Y104112D01*
X473321Y104140D01*
X473280Y104154D01*
X472587D01*
X471588Y102004D01*
X471546Y101921D01*
X471505Y101866D01*
X471477Y101838D01*
X471463Y101824D01*
X471380Y101810D01*
X471297Y101796D01*
X470395D01*
X470312Y101810D01*
X470257Y101838D01*
X470229Y101866D01*
X470215Y101921D01*
Y101991D01*
X470229Y102018D01*
Y102032D01*
X471297Y104251D01*
Y104293D01*
X471144Y104376D01*
X471006Y104459D01*
X470881Y104570D01*
X470784Y104681D01*
X470700Y104806D01*
X470631Y104931D01*
X470520Y105180D01*
X470451Y105416D01*
X470437Y105513D01*
X470423Y105610D01*
X470409Y105680D01*
Y105735D01*
Y105777D01*
Y105791D01*
Y106567D01*
X470423Y106845D01*
X470479Y107094D01*
X470548Y107302D01*
X470631Y107469D01*
X470714Y107607D01*
X470784Y107690D01*
X470839Y107760D01*
X470853Y107774D01*
X471033Y107912D01*
X471227Y108023D01*
X471422Y108093D01*
X471616Y108148D01*
X471796Y108176D01*
X471935Y108204D01*
X474445D01*
X474514Y108190D01*
D02*
G37*
G36*
X442386Y108176D02*
X442511Y108134D01*
X442566Y108106D01*
X442608Y108093D01*
X442635Y108065D01*
X442649D01*
X443551Y107496D01*
X443606Y107469D01*
X443634Y107427D01*
X443689Y107344D01*
X443703Y107274D01*
Y107261D01*
Y107247D01*
Y106428D01*
X443689Y106359D01*
X443676Y106318D01*
X443634Y106290D01*
X443523D01*
X443509Y106304D01*
X443495D01*
X442511Y106858D01*
Y102004D01*
X442497Y101935D01*
X442483Y101880D01*
X442441Y101852D01*
X442400Y101824D01*
X442330Y101796D01*
X441443D01*
X441373Y101810D01*
X441318Y101824D01*
X441304Y101838D01*
X441290D01*
X441263Y101880D01*
X441249Y101935D01*
Y101991D01*
Y102004D01*
Y107996D01*
X441263Y108065D01*
X441276Y108120D01*
X441318Y108148D01*
X441346Y108176D01*
X441429Y108204D01*
X442261D01*
X442386Y108176D01*
D02*
G37*
G36*
X448613Y108190D02*
X448668Y108176D01*
X448696Y108134D01*
X448724Y108106D01*
X448751Y108023D01*
Y108009D01*
Y107996D01*
Y102004D01*
X448737Y101935D01*
X448724Y101880D01*
X448682Y101852D01*
X448641Y101824D01*
X448571Y101796D01*
X447683D01*
X447614Y101810D01*
X447559Y101824D01*
X447531Y101866D01*
X447503Y101907D01*
X447476Y101977D01*
Y101991D01*
Y102004D01*
Y104043D01*
X447462Y104112D01*
X447420Y104140D01*
X447378Y104154D01*
X446685D01*
X445686Y102004D01*
X445645Y101921D01*
X445603Y101866D01*
X445575Y101838D01*
X445562Y101824D01*
X445479Y101810D01*
X445395Y101796D01*
X444494D01*
X444411Y101810D01*
X444355Y101838D01*
X444327Y101866D01*
X444314Y101921D01*
Y101991D01*
X444327Y102018D01*
Y102032D01*
X445395Y104251D01*
Y104293D01*
X445243Y104376D01*
X445104Y104459D01*
X444979Y104570D01*
X444882Y104681D01*
X444799Y104806D01*
X444730Y104931D01*
X444619Y105180D01*
X444549Y105416D01*
X444535Y105513D01*
X444521Y105610D01*
X444508Y105680D01*
Y105735D01*
Y105777D01*
Y105791D01*
Y106567D01*
X444521Y106845D01*
X444577Y107094D01*
X444646Y107302D01*
X444730Y107469D01*
X444813Y107607D01*
X444882Y107690D01*
X444938Y107760D01*
X444952Y107774D01*
X445132Y107912D01*
X445326Y108023D01*
X445520Y108093D01*
X445714Y108148D01*
X445895Y108176D01*
X446033Y108204D01*
X448543D01*
X448613Y108190D01*
D02*
G37*
G36*
X867268Y123835D02*
X867393Y123793D01*
X867448Y123765D01*
X867490Y123751D01*
X867518Y123724D01*
X867531D01*
X868433Y123155D01*
X868488Y123127D01*
X868516Y123086D01*
X868572Y123003D01*
X868585Y122933D01*
Y122919D01*
Y122905D01*
Y122087D01*
X868572Y122018D01*
X868558Y121976D01*
X868516Y121948D01*
X868405D01*
X868391Y121962D01*
X868377D01*
X867393Y122517D01*
Y117663D01*
X867379Y117594D01*
X867365Y117538D01*
X867323Y117511D01*
X867282Y117483D01*
X867213Y117455D01*
X866325D01*
X866255Y117469D01*
X866200Y117483D01*
X866186Y117497D01*
X866172D01*
X866145Y117538D01*
X866131Y117594D01*
Y117649D01*
Y117663D01*
Y123654D01*
X866145Y123724D01*
X866159Y123779D01*
X866200Y123807D01*
X866228Y123835D01*
X866311Y123862D01*
X867143D01*
X867268Y123835D01*
D02*
G37*
G36*
X872496Y123848D02*
X872746Y123793D01*
X872954Y123737D01*
X873120Y123654D01*
X873259Y123585D01*
X873356Y123516D01*
X873426Y123460D01*
X873439Y123446D01*
X873578Y123280D01*
X873689Y123086D01*
X873758Y122878D01*
X873814Y122683D01*
X873842Y122517D01*
X873855Y122365D01*
X873869Y122309D01*
Y122281D01*
Y122254D01*
Y122240D01*
Y119078D01*
X873855Y118800D01*
X873800Y118551D01*
X873731Y118343D01*
X873647Y118176D01*
X873578Y118052D01*
X873509Y117954D01*
X873453Y117885D01*
X873439Y117871D01*
X873259Y117732D01*
X873065Y117635D01*
X872871Y117552D01*
X872663Y117511D01*
X872496Y117483D01*
X872344Y117469D01*
X872288Y117455D01*
X871955D01*
X871304Y116346D01*
X871248Y116276D01*
X871193Y116221D01*
X871123Y116193D01*
X871068Y116165D01*
X870999Y116152D01*
X870957Y116138D01*
X870180D01*
X870111Y116152D01*
X870069Y116179D01*
X870042Y116193D01*
X870028Y116207D01*
X870000Y116263D01*
Y116318D01*
X870014Y116373D01*
X870028Y116387D01*
X870666Y117483D01*
X870458Y117538D01*
X870277Y117608D01*
X870125Y117691D01*
X870000Y117788D01*
X869903Y117857D01*
X869834Y117927D01*
X869792Y117982D01*
X869778Y117996D01*
X869667Y118162D01*
X869598Y118343D01*
X869542Y118523D01*
X869501Y118689D01*
X869473Y118842D01*
X869459Y118967D01*
Y119050D01*
Y119064D01*
Y119078D01*
Y122240D01*
X869473Y122517D01*
X869529Y122767D01*
X869598Y122975D01*
X869667Y123141D01*
X869750Y123280D01*
X869820Y123363D01*
X869875Y123432D01*
X869889Y123446D01*
X870069Y123585D01*
X870264Y123682D01*
X870458Y123765D01*
X870666Y123807D01*
X870832Y123835D01*
X870985Y123862D01*
X872219D01*
X872496Y123848D01*
D02*
G37*
G36*
X260376Y103731D02*
X260501Y103689D01*
X260556Y103661D01*
X260598Y103647D01*
X260625Y103620D01*
X260639D01*
X261541Y103051D01*
X261596Y103023D01*
X261624Y102982D01*
X261679Y102899D01*
X261693Y102829D01*
Y102815D01*
Y102801D01*
Y101983D01*
X261679Y101914D01*
X261665Y101872D01*
X261624Y101845D01*
X261513D01*
X261499Y101858D01*
X261485D01*
X260501Y102413D01*
Y97559D01*
X260487Y97490D01*
X260473Y97434D01*
X260431Y97407D01*
X260390Y97379D01*
X260320Y97351D01*
X259433D01*
X259363Y97365D01*
X259308Y97379D01*
X259294Y97393D01*
X259280D01*
X259252Y97434D01*
X259239Y97490D01*
Y97545D01*
Y97559D01*
Y103550D01*
X259252Y103620D01*
X259266Y103675D01*
X259308Y103703D01*
X259336Y103731D01*
X259419Y103758D01*
X260251D01*
X260376Y103731D01*
D02*
G37*
G36*
X290623Y103744D02*
X290678Y103731D01*
X290706Y103689D01*
X290734Y103661D01*
X290761Y103578D01*
Y103564D01*
Y103550D01*
Y97559D01*
X290748Y97490D01*
X290734Y97434D01*
X290692Y97407D01*
X290651Y97379D01*
X290581Y97351D01*
X287267D01*
X287197Y97365D01*
X287142Y97379D01*
X287114Y97421D01*
X287086Y97462D01*
X287059Y97531D01*
Y97545D01*
Y97559D01*
Y98239D01*
X287073Y98308D01*
X287086Y98364D01*
X287128Y98391D01*
X287156Y98419D01*
X287239Y98447D01*
X289375D01*
X289444Y98461D01*
X289472Y98502D01*
X289486Y98544D01*
Y98558D01*
Y103550D01*
X289499Y103620D01*
X289513Y103675D01*
X289555Y103703D01*
X289583Y103731D01*
X289666Y103758D01*
X290553D01*
X290623Y103744D01*
D02*
G37*
G36*
X286143D02*
X286199Y103731D01*
X286227Y103689D01*
X286254Y103661D01*
X286282Y103578D01*
Y103564D01*
Y103550D01*
Y97559D01*
X286268Y97490D01*
X286254Y97434D01*
X286213Y97407D01*
X286171Y97379D01*
X286102Y97351D01*
X282801D01*
X282732Y97365D01*
X282690Y97379D01*
X282635Y97462D01*
X282607Y97531D01*
Y97545D01*
Y97559D01*
Y98239D01*
X282621Y98308D01*
X282635Y98364D01*
X282662Y98391D01*
X282704Y98419D01*
X282773Y98447D01*
X284895D01*
X284965Y98461D01*
X284992Y98502D01*
X285006Y98544D01*
Y98558D01*
Y99944D01*
X284992Y100014D01*
X284951Y100042D01*
X284909Y100056D01*
X283175D01*
X283106Y100069D01*
X283051Y100083D01*
X283023Y100125D01*
X282995Y100166D01*
X282967Y100236D01*
Y100250D01*
Y100264D01*
Y100943D01*
X282981Y101012D01*
X282995Y101068D01*
X283037Y101096D01*
X283064Y101123D01*
X283148Y101151D01*
X284895D01*
X284965Y101165D01*
X284992Y101207D01*
X285006Y101248D01*
Y101262D01*
Y102552D01*
X284992Y102621D01*
X284951Y102649D01*
X284909Y102663D01*
X282801D01*
X282732Y102677D01*
X282690Y102690D01*
X282635Y102774D01*
X282607Y102843D01*
Y102857D01*
Y102871D01*
Y103550D01*
X282621Y103620D01*
X282635Y103675D01*
X282662Y103703D01*
X282704Y103731D01*
X282773Y103758D01*
X286074D01*
X286143Y103744D01*
D02*
G37*
G36*
X281359D02*
X281414Y103731D01*
X281442Y103689D01*
X281470Y103661D01*
X281497Y103578D01*
Y103564D01*
Y103550D01*
Y97559D01*
X281483Y97490D01*
X281470Y97434D01*
X281428Y97407D01*
X281386Y97379D01*
X281317Y97351D01*
X278821D01*
X278543Y97365D01*
X278308Y97421D01*
X278100Y97490D01*
X277919Y97559D01*
X277794Y97642D01*
X277697Y97698D01*
X277628Y97753D01*
X277614Y97767D01*
X277462Y97948D01*
X277351Y98142D01*
X277281Y98336D01*
X277226Y98530D01*
X277198Y98710D01*
X277170Y98849D01*
Y98904D01*
Y98946D01*
Y98960D01*
Y98974D01*
Y102136D01*
X277184Y102413D01*
X277240Y102649D01*
X277309Y102857D01*
X277392Y103023D01*
X277475Y103162D01*
X277545Y103245D01*
X277600Y103315D01*
X277614Y103328D01*
X277794Y103467D01*
X277989Y103578D01*
X278183Y103647D01*
X278377Y103703D01*
X278557Y103731D01*
X278696Y103758D01*
X281289D01*
X281359Y103744D01*
D02*
G37*
G36*
X272122D02*
X272178Y103731D01*
X272206Y103689D01*
X272233Y103661D01*
X272261Y103578D01*
Y103564D01*
Y103550D01*
Y97559D01*
X272247Y97490D01*
X272233Y97434D01*
X272192Y97407D01*
X272150Y97379D01*
X272081Y97351D01*
X269584D01*
X269307Y97365D01*
X269071Y97421D01*
X268863Y97490D01*
X268683Y97559D01*
X268558Y97642D01*
X268461Y97698D01*
X268392Y97753D01*
X268378Y97767D01*
X268225Y97948D01*
X268114Y98142D01*
X268045Y98336D01*
X267990Y98530D01*
X267962Y98710D01*
X267934Y98849D01*
Y98904D01*
Y98946D01*
Y98960D01*
Y98974D01*
Y102136D01*
X267948Y102413D01*
X268003Y102649D01*
X268073Y102857D01*
X268156Y103023D01*
X268239Y103162D01*
X268309Y103245D01*
X268364Y103315D01*
X268378Y103328D01*
X268558Y103467D01*
X268752Y103578D01*
X268946Y103647D01*
X269141Y103703D01*
X269321Y103731D01*
X269460Y103758D01*
X272053D01*
X272122Y103744D01*
D02*
G37*
G36*
X266603D02*
X266658Y103731D01*
X266686Y103689D01*
X266714Y103661D01*
X266741Y103578D01*
Y103564D01*
Y103550D01*
Y97559D01*
X266728Y97490D01*
X266714Y97434D01*
X266672Y97407D01*
X266630Y97379D01*
X266561Y97351D01*
X265674D01*
X265604Y97365D01*
X265549Y97379D01*
X265521Y97421D01*
X265493Y97462D01*
X265466Y97531D01*
Y97545D01*
Y97559D01*
Y99598D01*
X265452Y99667D01*
X265410Y99695D01*
X265368Y99709D01*
X264675D01*
X263676Y97559D01*
X263635Y97476D01*
X263593Y97421D01*
X263566Y97393D01*
X263552Y97379D01*
X263468Y97365D01*
X263385Y97351D01*
X262484D01*
X262401Y97365D01*
X262345Y97393D01*
X262317Y97421D01*
X262304Y97476D01*
Y97545D01*
X262317Y97573D01*
Y97587D01*
X263385Y99806D01*
Y99847D01*
X263233Y99931D01*
X263094Y100014D01*
X262969Y100125D01*
X262872Y100236D01*
X262789Y100361D01*
X262719Y100485D01*
X262609Y100735D01*
X262539Y100971D01*
X262525Y101068D01*
X262512Y101165D01*
X262498Y101234D01*
Y101290D01*
Y101331D01*
Y101345D01*
Y102122D01*
X262512Y102399D01*
X262567Y102649D01*
X262636Y102857D01*
X262719Y103023D01*
X262803Y103162D01*
X262872Y103245D01*
X262928Y103315D01*
X262941Y103328D01*
X263122Y103467D01*
X263316Y103578D01*
X263510Y103647D01*
X263704Y103703D01*
X263885Y103731D01*
X264023Y103758D01*
X266533D01*
X266603Y103744D01*
D02*
G37*
G36*
X276477Y96921D02*
X276532Y96907D01*
X276560Y96866D01*
X276588Y96824D01*
X276616Y96755D01*
Y96727D01*
Y96713D01*
Y96464D01*
X276602Y96394D01*
X276588Y96339D01*
X276546Y96297D01*
X276505Y96269D01*
X276435Y96242D01*
X273121D01*
X273051Y96256D01*
X272996Y96283D01*
X272968Y96311D01*
X272941Y96353D01*
X272913Y96436D01*
Y96450D01*
Y96464D01*
Y96713D01*
X272927Y96783D01*
X272941Y96838D01*
X272982Y96880D01*
X273010Y96907D01*
X273093Y96935D01*
X276408D01*
X276477Y96921D01*
D02*
G37*
G36*
X178530Y138190D02*
X178780Y138134D01*
X178988Y138079D01*
X179154Y137996D01*
X179293Y137926D01*
X179390Y137857D01*
X179459Y137801D01*
X179473Y137788D01*
X179612Y137621D01*
X179723Y137427D01*
X179792Y137233D01*
X179847Y137039D01*
X179875Y136858D01*
X179889Y136720D01*
X179903Y136664D01*
Y136623D01*
Y136609D01*
Y136595D01*
Y136248D01*
X179889Y136179D01*
X179861Y136123D01*
X179834Y136096D01*
X179792Y136068D01*
X179709Y136040D01*
X178835D01*
X178766Y136054D01*
X178710Y136068D01*
X178682Y136110D01*
X178655Y136151D01*
X178627Y136220D01*
Y136234D01*
Y136248D01*
Y136567D01*
Y136678D01*
X178613Y136775D01*
X178585Y136845D01*
X178558Y136914D01*
X178544Y136955D01*
X178516Y136983D01*
X178502Y137011D01*
X178447Y137052D01*
X178377Y137094D01*
X178225Y137136D01*
X178155Y137150D01*
X177587D01*
X177490Y137122D01*
X177407Y137108D01*
X177337Y137080D01*
X177282Y137052D01*
X177254Y137039D01*
X177226Y137011D01*
X177171Y136955D01*
X177143Y136886D01*
X177088Y136747D01*
Y136678D01*
X177074Y136623D01*
Y136581D01*
Y136567D01*
Y136276D01*
X177088Y136123D01*
X177143Y135971D01*
X177212Y135832D01*
X177296Y135707D01*
X177393Y135610D01*
X177462Y135541D01*
X177518Y135485D01*
X177531Y135471D01*
X179362Y133918D01*
X179529Y133766D01*
X179653Y133599D01*
X179736Y133433D01*
X179792Y133280D01*
X179834Y133155D01*
X179847Y133045D01*
X179861Y132975D01*
Y132948D01*
Y132004D01*
X179847Y131935D01*
X179834Y131880D01*
X179792Y131852D01*
X179750Y131824D01*
X179681Y131796D01*
X176047D01*
X175978Y131810D01*
X175923Y131824D01*
X175895Y131866D01*
X175867Y131907D01*
X175840Y131977D01*
Y131991D01*
Y132004D01*
Y132698D01*
X175853Y132767D01*
X175867Y132823D01*
X175909Y132850D01*
X175937Y132878D01*
X176020Y132906D01*
X178433D01*
Y133072D01*
X178419Y133155D01*
X178377Y133239D01*
X178336Y133294D01*
X178322Y133308D01*
X176436Y134903D01*
X176325Y135000D01*
X176242Y135111D01*
X176089Y135319D01*
X175978Y135541D01*
X175909Y135735D01*
X175867Y135915D01*
X175853Y136068D01*
X175840Y136123D01*
Y136165D01*
Y136179D01*
Y136193D01*
Y136595D01*
X175853Y136872D01*
X175909Y137108D01*
X175978Y137316D01*
X176047Y137483D01*
X176131Y137621D01*
X176200Y137704D01*
X176255Y137774D01*
X176269Y137788D01*
X176450Y137926D01*
X176644Y138023D01*
X176838Y138106D01*
X177046Y138148D01*
X177212Y138176D01*
X177365Y138204D01*
X178253D01*
X178530Y138190D01*
D02*
G37*
G36*
X184022D02*
X184077Y138176D01*
X184105Y138134D01*
X184133Y138106D01*
X184160Y138023D01*
Y138010D01*
Y137996D01*
Y132004D01*
X184147Y131935D01*
X184133Y131880D01*
X184091Y131852D01*
X184050Y131824D01*
X183980Y131796D01*
X180666D01*
X180596Y131810D01*
X180541Y131824D01*
X180513Y131866D01*
X180485Y131907D01*
X180458Y131977D01*
Y131991D01*
Y132004D01*
Y132684D01*
X180471Y132753D01*
X180485Y132809D01*
X180527Y132837D01*
X180555Y132864D01*
X180638Y132892D01*
X182774D01*
X182843Y132906D01*
X182871Y132948D01*
X182885Y132989D01*
Y133003D01*
Y137996D01*
X182899Y138065D01*
X182912Y138120D01*
X182954Y138148D01*
X182982Y138176D01*
X183065Y138204D01*
X183953D01*
X184022Y138190D01*
D02*
G37*
G36*
X177878Y73176D02*
X178003Y73134D01*
X178058Y73106D01*
X178100Y73093D01*
X178128Y73065D01*
X178142D01*
X179043Y72496D01*
X179098Y72469D01*
X179126Y72427D01*
X179182Y72344D01*
X179196Y72274D01*
Y72261D01*
Y72247D01*
Y71428D01*
X179182Y71359D01*
X179168Y71318D01*
X179126Y71290D01*
X179015D01*
X179002Y71304D01*
X178988D01*
X178003Y71858D01*
Y67004D01*
X177989Y66935D01*
X177975Y66880D01*
X177934Y66852D01*
X177892Y66824D01*
X177823Y66796D01*
X176935D01*
X176866Y66810D01*
X176810Y66824D01*
X176796Y66838D01*
X176782D01*
X176755Y66880D01*
X176741Y66935D01*
Y66991D01*
Y67004D01*
Y72996D01*
X176755Y73065D01*
X176769Y73120D01*
X176810Y73148D01*
X176838Y73176D01*
X176921Y73204D01*
X177753D01*
X177878Y73176D01*
D02*
G37*
G36*
X183120Y73190D02*
X183176Y73176D01*
X183204Y73134D01*
X183231Y73106D01*
X183259Y73023D01*
Y73010D01*
Y72996D01*
Y67004D01*
X183245Y66935D01*
X183231Y66880D01*
X183190Y66852D01*
X183148Y66824D01*
X183079Y66796D01*
X179764D01*
X179695Y66810D01*
X179639Y66824D01*
X179612Y66866D01*
X179584Y66907D01*
X179556Y66977D01*
Y66991D01*
Y67004D01*
Y67684D01*
X179570Y67753D01*
X179584Y67809D01*
X179625Y67836D01*
X179653Y67864D01*
X179736Y67892D01*
X181872D01*
X181942Y67906D01*
X181969Y67948D01*
X181983Y67989D01*
Y68003D01*
Y72996D01*
X181997Y73065D01*
X182011Y73120D01*
X182052Y73148D01*
X182080Y73176D01*
X182164Y73204D01*
X183051D01*
X183120Y73190D01*
D02*
G37*
G36*
X531914Y78190D02*
X531969Y78176D01*
X532011Y78134D01*
X532039Y78106D01*
X532066Y78023D01*
Y78009D01*
Y77996D01*
Y73474D01*
Y73363D01*
X532094Y73267D01*
X532108Y73183D01*
X532136Y73128D01*
X532164Y73072D01*
X532177Y73045D01*
X532205Y73031D01*
Y73017D01*
X532261Y72975D01*
X532330Y72948D01*
X532469Y72906D01*
X532538D01*
X532593Y72892D01*
X533342D01*
X533439Y72906D01*
X533523Y72934D01*
X533578Y72961D01*
X533633Y72975D01*
X533661Y73003D01*
X533675Y73017D01*
X533689D01*
X533731Y73072D01*
X533758Y73142D01*
X533800Y73294D01*
Y73363D01*
X533814Y73419D01*
Y73461D01*
Y73474D01*
Y74362D01*
X533828Y74431D01*
X533842Y74487D01*
X533883Y74515D01*
X533911Y74542D01*
X533994Y74570D01*
X534868D01*
X534937Y74556D01*
X534993Y74542D01*
X535020Y74501D01*
X535048Y74473D01*
X535076Y74390D01*
Y74376D01*
Y74362D01*
Y73419D01*
X535062Y73142D01*
X535006Y72892D01*
X534937Y72684D01*
X534868Y72518D01*
X534785Y72393D01*
X534729Y72296D01*
X534674Y72226D01*
X534660Y72213D01*
X534479Y72074D01*
X534285Y71977D01*
X534091Y71894D01*
X533883Y71852D01*
X533717Y71824D01*
X533564Y71810D01*
X533509Y71796D01*
X532441D01*
X532164Y71810D01*
X531914Y71866D01*
X531706Y71935D01*
X531539Y72004D01*
X531401Y72088D01*
X531317Y72143D01*
X531248Y72199D01*
X531234Y72213D01*
X531096Y72393D01*
X530985Y72587D01*
X530915Y72781D01*
X530860Y72975D01*
X530832Y73155D01*
X530804Y73294D01*
Y73350D01*
Y73391D01*
Y73405D01*
Y73419D01*
Y78009D01*
X530818Y78079D01*
X530832Y78120D01*
X530901Y78176D01*
X530985Y78204D01*
X531844D01*
X531914Y78190D01*
D02*
G37*
G36*
X527462D02*
X527531Y78176D01*
X527587Y78148D01*
X527601Y78134D01*
X527670Y78079D01*
X527726Y77996D01*
X527767Y77926D01*
X527781Y77912D01*
Y77899D01*
X529778Y74209D01*
X529834Y74057D01*
X529861Y73891D01*
X529875Y73821D01*
Y73766D01*
Y73724D01*
Y73710D01*
Y73322D01*
X529861Y73211D01*
X529820Y73128D01*
X529792Y73072D01*
X529778Y73058D01*
X529681Y73003D01*
X529598Y72975D01*
X529529Y72961D01*
X527032D01*
Y72004D01*
X527018Y71935D01*
X526991Y71880D01*
X526963Y71852D01*
X526921Y71824D01*
X526838Y71796D01*
X526034D01*
X525964Y71810D01*
X525909Y71824D01*
X525895Y71838D01*
X525881D01*
X525853Y71880D01*
X525840Y71935D01*
Y71991D01*
Y72004D01*
Y72961D01*
X525118D01*
X525049Y72975D01*
X525007Y73003D01*
X524952Y73072D01*
X524924Y73155D01*
Y73169D01*
Y73183D01*
Y73863D01*
X524938Y73932D01*
X524952Y73974D01*
X525021Y74029D01*
X525091Y74057D01*
X525840D01*
Y77843D01*
X525853Y77954D01*
X525895Y78037D01*
X525937Y78093D01*
X525950Y78106D01*
X526034Y78162D01*
X526117Y78190D01*
X526186Y78204D01*
X527351D01*
X527462Y78190D01*
D02*
G37*
G36*
X493100Y133190D02*
X493350Y133134D01*
X493558Y133079D01*
X493724Y132996D01*
X493863Y132926D01*
X493960Y132857D01*
X494029Y132801D01*
X494043Y132788D01*
X494182Y132621D01*
X494293Y132427D01*
X494362Y132233D01*
X494417Y132039D01*
X494445Y131858D01*
X494459Y131720D01*
X494473Y131664D01*
Y131623D01*
Y131609D01*
Y131595D01*
Y131318D01*
X494459Y131248D01*
X494445Y131193D01*
X494404Y131165D01*
X494362Y131137D01*
X494293Y131110D01*
X493419D01*
X493350Y131123D01*
X493294Y131137D01*
X493253Y131179D01*
X493225Y131220D01*
X493197Y131290D01*
Y131304D01*
Y131318D01*
Y131567D01*
Y131678D01*
X493183Y131775D01*
X493156Y131845D01*
X493128Y131914D01*
X493114Y131955D01*
X493086Y131983D01*
X493072Y132011D01*
X493017Y132052D01*
X492948Y132094D01*
X492809Y132136D01*
X492739Y132150D01*
X492032D01*
X491935Y132122D01*
X491852Y132108D01*
X491782Y132080D01*
X491727Y132052D01*
X491699Y132039D01*
X491672Y132011D01*
X491616Y131955D01*
X491588Y131886D01*
X491533Y131747D01*
Y131678D01*
X491519Y131623D01*
Y131581D01*
Y131567D01*
Y131110D01*
Y130998D01*
X491547Y130901D01*
X491561Y130818D01*
X491588Y130763D01*
X491616Y130707D01*
X491644Y130680D01*
X491658Y130666D01*
X491672Y130652D01*
X491727Y130610D01*
X491796Y130583D01*
X491963Y130541D01*
X492032D01*
X492088Y130527D01*
X492656D01*
X492726Y130513D01*
X492781Y130499D01*
X492809Y130458D01*
X492836Y130416D01*
X492864Y130347D01*
Y130319D01*
Y130305D01*
Y129709D01*
X492850Y129639D01*
X492836Y129584D01*
X492795Y129556D01*
X492753Y129529D01*
X492684Y129501D01*
X492032D01*
X491935Y129473D01*
X491852Y129459D01*
X491782Y129431D01*
X491727Y129404D01*
X491699Y129390D01*
X491672Y129362D01*
X491616Y129307D01*
X491588Y129237D01*
X491533Y129085D01*
Y129029D01*
X491519Y128974D01*
Y128932D01*
Y128918D01*
Y128433D01*
Y128322D01*
X491547Y128225D01*
X491561Y128142D01*
X491588Y128086D01*
X491616Y128031D01*
X491644Y128003D01*
X491658Y127989D01*
X491672Y127975D01*
X491727Y127934D01*
X491796Y127906D01*
X491963Y127864D01*
X492032D01*
X492088Y127850D01*
X492739D01*
X492836Y127864D01*
X492906Y127892D01*
X492975Y127920D01*
X493017Y127934D01*
X493045Y127961D01*
X493072Y127975D01*
X493114Y128031D01*
X493142Y128100D01*
X493183Y128253D01*
Y128322D01*
X493197Y128377D01*
Y128419D01*
Y128433D01*
Y128682D01*
X493211Y128752D01*
X493225Y128807D01*
X493266Y128849D01*
X493308Y128877D01*
X493377Y128904D01*
X494265D01*
X494334Y128890D01*
X494390Y128877D01*
X494417Y128835D01*
X494445Y128793D01*
X494473Y128724D01*
Y128696D01*
Y128682D01*
Y128405D01*
X494459Y128128D01*
X494404Y127892D01*
X494334Y127684D01*
X494251Y127518D01*
X494182Y127379D01*
X494112Y127296D01*
X494057Y127226D01*
X494043Y127212D01*
X493863Y127074D01*
X493669Y126977D01*
X493475Y126894D01*
X493266Y126852D01*
X493100Y126824D01*
X492948Y126810D01*
X492892Y126796D01*
X491935D01*
X491658Y126810D01*
X491408Y126866D01*
X491200Y126935D01*
X491034Y127004D01*
X490895Y127088D01*
X490798Y127143D01*
X490728Y127199D01*
X490715Y127212D01*
X490576Y127379D01*
X490465Y127573D01*
X490396Y127767D01*
X490340Y127961D01*
X490312Y128142D01*
X490285Y128280D01*
Y128336D01*
Y128377D01*
Y128391D01*
Y128405D01*
Y128918D01*
X490299Y129085D01*
X490312Y129223D01*
X490354Y129362D01*
X490410Y129473D01*
X490465Y129570D01*
X490534Y129667D01*
X490673Y129806D01*
X490826Y129903D01*
X490950Y129958D01*
X491006Y129972D01*
X491048Y129986D01*
X491061Y130000D01*
X491075D01*
X490937Y130056D01*
X490812Y130125D01*
X490715Y130194D01*
X490618Y130277D01*
X490534Y130361D01*
X490479Y130458D01*
X490382Y130638D01*
X490326Y130818D01*
X490299Y130957D01*
X490285Y131012D01*
Y131054D01*
Y131082D01*
Y131096D01*
Y131595D01*
X490299Y131872D01*
X490354Y132108D01*
X490423Y132316D01*
X490493Y132482D01*
X490576Y132621D01*
X490645Y132704D01*
X490701Y132774D01*
X490715Y132788D01*
X490895Y132926D01*
X491089Y133023D01*
X491283Y133106D01*
X491491Y133148D01*
X491658Y133176D01*
X491810Y133204D01*
X492823D01*
X493100Y133190D01*
D02*
G37*
G36*
X496553D02*
X496609Y133176D01*
X496650Y133134D01*
X496678Y133106D01*
X496706Y133023D01*
Y133009D01*
Y132996D01*
Y128475D01*
Y128364D01*
X496734Y128266D01*
X496747Y128183D01*
X496775Y128128D01*
X496803Y128072D01*
X496817Y128045D01*
X496844Y128031D01*
Y128017D01*
X496900Y127975D01*
X496969Y127948D01*
X497108Y127906D01*
X497177D01*
X497233Y127892D01*
X497982D01*
X498079Y127906D01*
X498162Y127934D01*
X498218Y127961D01*
X498273Y127975D01*
X498301Y128003D01*
X498315Y128017D01*
X498328D01*
X498370Y128072D01*
X498398Y128142D01*
X498439Y128294D01*
Y128364D01*
X498453Y128419D01*
Y128461D01*
Y128475D01*
Y129362D01*
X498467Y129431D01*
X498481Y129487D01*
X498523Y129515D01*
X498550Y129542D01*
X498633Y129570D01*
X499507D01*
X499577Y129556D01*
X499632Y129542D01*
X499660Y129501D01*
X499688Y129473D01*
X499715Y129390D01*
Y129376D01*
Y129362D01*
Y128419D01*
X499701Y128142D01*
X499646Y127892D01*
X499577Y127684D01*
X499507Y127518D01*
X499424Y127393D01*
X499369Y127296D01*
X499313Y127226D01*
X499299Y127212D01*
X499119Y127074D01*
X498925Y126977D01*
X498731Y126894D01*
X498523Y126852D01*
X498356Y126824D01*
X498204Y126810D01*
X498148Y126796D01*
X497080D01*
X496803Y126810D01*
X496553Y126866D01*
X496345Y126935D01*
X496179Y127004D01*
X496040Y127088D01*
X495957Y127143D01*
X495888Y127199D01*
X495874Y127212D01*
X495735Y127393D01*
X495624Y127587D01*
X495555Y127781D01*
X495499Y127975D01*
X495471Y128155D01*
X495444Y128294D01*
Y128350D01*
Y128391D01*
Y128405D01*
Y128419D01*
Y133009D01*
X495458Y133079D01*
X495471Y133120D01*
X495541Y133176D01*
X495624Y133204D01*
X496484D01*
X496553Y133190D01*
D02*
G37*
G36*
X493010Y33190D02*
X493260Y33134D01*
X493467Y33079D01*
X493634Y32996D01*
X493773Y32926D01*
X493870Y32857D01*
X493939Y32801D01*
X493953Y32787D01*
X494092Y32621D01*
X494203Y32427D01*
X494272Y32233D01*
X494327Y32039D01*
X494355Y31858D01*
X494369Y31720D01*
X494383Y31664D01*
Y31623D01*
Y31609D01*
Y31595D01*
Y31248D01*
X494369Y31179D01*
X494341Y31123D01*
X494314Y31096D01*
X494272Y31068D01*
X494189Y31040D01*
X493315D01*
X493246Y31054D01*
X493190Y31068D01*
X493162Y31109D01*
X493135Y31151D01*
X493107Y31220D01*
Y31234D01*
Y31248D01*
Y31567D01*
Y31678D01*
X493093Y31775D01*
X493065Y31844D01*
X493038Y31914D01*
X493024Y31955D01*
X492996Y31983D01*
X492982Y32011D01*
X492927Y32053D01*
X492857Y32094D01*
X492705Y32136D01*
X492635Y32150D01*
X492067D01*
X491970Y32122D01*
X491886Y32108D01*
X491817Y32080D01*
X491762Y32053D01*
X491734Y32039D01*
X491706Y32011D01*
X491651Y31955D01*
X491623Y31886D01*
X491568Y31747D01*
Y31678D01*
X491554Y31623D01*
Y31581D01*
Y31567D01*
Y31276D01*
X491568Y31123D01*
X491623Y30971D01*
X491692Y30832D01*
X491776Y30707D01*
X491873Y30610D01*
X491942Y30541D01*
X491997Y30485D01*
X492011Y30471D01*
X493842Y28918D01*
X494008Y28766D01*
X494133Y28599D01*
X494216Y28433D01*
X494272Y28280D01*
X494314Y28156D01*
X494327Y28045D01*
X494341Y27975D01*
Y27947D01*
Y27004D01*
X494327Y26935D01*
X494314Y26880D01*
X494272Y26852D01*
X494230Y26824D01*
X494161Y26796D01*
X490527D01*
X490458Y26810D01*
X490403Y26824D01*
X490375Y26866D01*
X490347Y26907D01*
X490319Y26977D01*
Y26990D01*
Y27004D01*
Y27698D01*
X490333Y27767D01*
X490347Y27823D01*
X490389Y27850D01*
X490416Y27878D01*
X490500Y27906D01*
X492913D01*
Y28072D01*
X492899Y28156D01*
X492857Y28239D01*
X492816Y28294D01*
X492802Y28308D01*
X490916Y29903D01*
X490805Y30000D01*
X490722Y30111D01*
X490569Y30319D01*
X490458Y30541D01*
X490389Y30735D01*
X490347Y30915D01*
X490333Y31068D01*
X490319Y31123D01*
Y31165D01*
Y31179D01*
Y31193D01*
Y31595D01*
X490333Y31872D01*
X490389Y32108D01*
X490458Y32316D01*
X490527Y32482D01*
X490611Y32621D01*
X490680Y32704D01*
X490736Y32774D01*
X490749Y32787D01*
X490930Y32926D01*
X491124Y33023D01*
X491318Y33107D01*
X491526Y33148D01*
X491692Y33176D01*
X491845Y33204D01*
X492733D01*
X493010Y33190D01*
D02*
G37*
G36*
X496519D02*
X496574Y33176D01*
X496616Y33134D01*
X496643Y33107D01*
X496671Y33023D01*
Y33009D01*
Y32996D01*
Y28475D01*
Y28363D01*
X496699Y28266D01*
X496713Y28183D01*
X496740Y28128D01*
X496768Y28072D01*
X496782Y28045D01*
X496810Y28031D01*
Y28017D01*
X496865Y27975D01*
X496935Y27947D01*
X497073Y27906D01*
X497143D01*
X497198Y27892D01*
X497947D01*
X498044Y27906D01*
X498127Y27934D01*
X498183Y27961D01*
X498238Y27975D01*
X498266Y28003D01*
X498280Y28017D01*
X498294D01*
X498335Y28072D01*
X498363Y28142D01*
X498405Y28294D01*
Y28363D01*
X498419Y28419D01*
Y28461D01*
Y28475D01*
Y29362D01*
X498432Y29431D01*
X498446Y29487D01*
X498488Y29515D01*
X498516Y29542D01*
X498599Y29570D01*
X499473D01*
X499542Y29556D01*
X499597Y29542D01*
X499625Y29501D01*
X499653Y29473D01*
X499681Y29390D01*
Y29376D01*
Y29362D01*
Y28419D01*
X499667Y28142D01*
X499611Y27892D01*
X499542Y27684D01*
X499473Y27517D01*
X499389Y27393D01*
X499334Y27296D01*
X499278Y27226D01*
X499264Y27212D01*
X499084Y27074D01*
X498890Y26977D01*
X498696Y26893D01*
X498488Y26852D01*
X498321Y26824D01*
X498169Y26810D01*
X498114Y26796D01*
X497046D01*
X496768Y26810D01*
X496519Y26866D01*
X496311Y26935D01*
X496144Y27004D01*
X496006Y27088D01*
X495922Y27143D01*
X495853Y27199D01*
X495839Y27212D01*
X495700Y27393D01*
X495589Y27587D01*
X495520Y27781D01*
X495465Y27975D01*
X495437Y28156D01*
X495409Y28294D01*
Y28350D01*
Y28391D01*
Y28405D01*
Y28419D01*
Y33009D01*
X495423Y33079D01*
X495437Y33120D01*
X495506Y33176D01*
X495589Y33204D01*
X496449D01*
X496519Y33190D01*
D02*
G37*
G36*
X389210Y128190D02*
X389265Y128176D01*
X389307Y128134D01*
X389334Y128106D01*
X389362Y128023D01*
Y128009D01*
Y127996D01*
Y124834D01*
X389348Y124764D01*
X389320Y124723D01*
X389251Y124667D01*
X389168Y124639D01*
X388322D01*
X388266Y124653D01*
X388211Y124667D01*
X388114Y124750D01*
X388058Y124820D01*
X388031Y124834D01*
Y124847D01*
X387975Y124917D01*
X387906Y124972D01*
X387850Y125000D01*
X387781Y125028D01*
X387726Y125042D01*
X387684Y125056D01*
X387046D01*
X386935Y125028D01*
X386838Y125014D01*
X386769Y124986D01*
X386727Y124958D01*
X386685Y124931D01*
X386658Y124917D01*
Y124903D01*
X386602Y124834D01*
X386575Y124750D01*
X386519Y124556D01*
Y124459D01*
X386505Y124390D01*
Y124334D01*
Y124320D01*
Y123433D01*
Y123322D01*
X386533Y123225D01*
X386547Y123142D01*
X386575Y123086D01*
X386602Y123031D01*
X386630Y123003D01*
X386644Y122989D01*
X386658Y122975D01*
X386727Y122934D01*
X386796Y122906D01*
X386949Y122864D01*
X387018D01*
X387074Y122850D01*
X387712D01*
X387795Y122864D01*
X387878Y122892D01*
X387934Y122920D01*
X387989Y122934D01*
X388017Y122961D01*
X388045Y122975D01*
X388086Y123031D01*
X388128Y123100D01*
X388169Y123253D01*
Y123322D01*
X388183Y123377D01*
Y123419D01*
Y123433D01*
Y123613D01*
X388197Y123682D01*
X388211Y123738D01*
X388253Y123780D01*
X388280Y123807D01*
X388363Y123835D01*
X389237D01*
X389307Y123821D01*
X389362Y123807D01*
X389390Y123766D01*
X389417Y123724D01*
X389445Y123655D01*
Y123627D01*
Y123613D01*
Y123419D01*
X389431Y123142D01*
X389376Y122892D01*
X389307Y122684D01*
X389223Y122518D01*
X389154Y122393D01*
X389085Y122296D01*
X389029Y122226D01*
X389015Y122212D01*
X388835Y122074D01*
X388641Y121977D01*
X388447Y121894D01*
X388239Y121852D01*
X388072Y121824D01*
X387920Y121810D01*
X387864Y121796D01*
X386921D01*
X386644Y121810D01*
X386408Y121866D01*
X386200Y121935D01*
X386020Y122004D01*
X385895Y122088D01*
X385798Y122143D01*
X385728Y122199D01*
X385715Y122212D01*
X385576Y122393D01*
X385465Y122587D01*
X385396Y122781D01*
X385340Y122975D01*
X385312Y123155D01*
X385285Y123294D01*
Y123350D01*
Y123391D01*
Y123405D01*
Y123419D01*
Y124515D01*
X385299Y124792D01*
X385354Y125028D01*
X385423Y125236D01*
X385521Y125416D01*
X385645Y125569D01*
X385770Y125693D01*
X385909Y125791D01*
X386048Y125874D01*
X386200Y125943D01*
X386339Y125985D01*
X386464Y126026D01*
X386588Y126040D01*
X386685Y126054D01*
X386755Y126068D01*
X387254D01*
X387476Y126040D01*
X387670Y125985D01*
X387809Y125915D01*
X387920Y125818D01*
X388003Y125721D01*
X388045Y125652D01*
X388072Y125596D01*
X388086Y125569D01*
Y127039D01*
X385673D01*
X385604Y127052D01*
X385548Y127066D01*
X385521Y127108D01*
X385493Y127150D01*
X385465Y127219D01*
Y127233D01*
Y127247D01*
Y127996D01*
X385479Y128065D01*
X385493Y128120D01*
X385534Y128148D01*
X385562Y128176D01*
X385645Y128204D01*
X389140D01*
X389210Y128190D01*
D02*
G37*
G36*
X393342D02*
X393592Y128134D01*
X393800Y128079D01*
X393966Y127996D01*
X394105Y127926D01*
X394202Y127857D01*
X394272Y127801D01*
X394285Y127788D01*
X394424Y127621D01*
X394535Y127427D01*
X394604Y127219D01*
X394660Y127025D01*
X394688Y126858D01*
X394701Y126706D01*
X394715Y126650D01*
Y126623D01*
Y126595D01*
Y126581D01*
Y123419D01*
X394701Y123142D01*
X394646Y122892D01*
X394577Y122684D01*
X394493Y122518D01*
X394424Y122393D01*
X394355Y122296D01*
X394299Y122226D01*
X394285Y122212D01*
X394105Y122074D01*
X393911Y121977D01*
X393717Y121894D01*
X393509Y121852D01*
X393342Y121824D01*
X393190Y121810D01*
X393134Y121796D01*
X391983D01*
X391706Y121810D01*
X391456Y121866D01*
X391248Y121935D01*
X391082Y122004D01*
X390943Y122088D01*
X390846Y122143D01*
X390777Y122199D01*
X390763Y122212D01*
X390624Y122393D01*
X390513Y122587D01*
X390444Y122781D01*
X390388Y122975D01*
X390361Y123155D01*
X390333Y123294D01*
Y123350D01*
Y123391D01*
Y123405D01*
Y123419D01*
Y123890D01*
X390347Y123960D01*
X390361Y124015D01*
X390402Y124057D01*
X390444Y124085D01*
X390513Y124112D01*
X391387D01*
X391456Y124099D01*
X391512Y124085D01*
X391539Y124043D01*
X391567Y124002D01*
X391595Y123932D01*
Y123904D01*
Y123890D01*
Y123475D01*
Y123364D01*
X391623Y123266D01*
X391637Y123183D01*
X391664Y123128D01*
X391692Y123072D01*
X391706Y123045D01*
X391734Y123031D01*
Y123017D01*
X391789Y122975D01*
X391858Y122948D01*
X392011Y122906D01*
X392080D01*
X392136Y122892D01*
X392982D01*
X393065Y122906D01*
X393148Y122934D01*
X393204Y122961D01*
X393259Y122975D01*
X393287Y123003D01*
X393315Y123017D01*
X393356Y123072D01*
X393384Y123142D01*
X393425Y123294D01*
Y123364D01*
X393439Y123419D01*
Y123461D01*
Y123475D01*
Y126525D01*
Y126636D01*
X393425Y126734D01*
X393398Y126803D01*
X393370Y126872D01*
X393356Y126914D01*
X393328Y126942D01*
X393315Y126969D01*
X393259Y127011D01*
X393190Y127052D01*
X393037Y127094D01*
X392968Y127108D01*
X392080D01*
X391983Y127080D01*
X391900Y127066D01*
X391844Y127039D01*
X391789Y127011D01*
X391761Y126997D01*
X391734Y126969D01*
X391692Y126914D01*
X391650Y126845D01*
X391609Y126706D01*
X391595Y126636D01*
Y126581D01*
Y126539D01*
Y126525D01*
Y126110D01*
X391581Y126040D01*
X391567Y125985D01*
X391525Y125943D01*
X391484Y125915D01*
X391415Y125888D01*
X390555D01*
X390485Y125901D01*
X390430Y125929D01*
X390388Y125957D01*
X390361Y125998D01*
X390333Y126082D01*
Y126096D01*
Y126110D01*
Y126581D01*
X390347Y126858D01*
X390402Y127094D01*
X390471Y127302D01*
X390541Y127469D01*
X390624Y127607D01*
X390693Y127690D01*
X390749Y127760D01*
X390763Y127774D01*
X390943Y127912D01*
X391137Y128023D01*
X391331Y128093D01*
X391539Y128148D01*
X391706Y128176D01*
X391858Y128204D01*
X393065D01*
X393342Y128190D01*
D02*
G37*
G36*
X393675Y23190D02*
X393925Y23134D01*
X394133Y23079D01*
X394299Y22996D01*
X394438Y22926D01*
X394535Y22857D01*
X394604Y22801D01*
X394618Y22788D01*
X394757Y22621D01*
X394868Y22427D01*
X394937Y22219D01*
X394993Y22025D01*
X395020Y21858D01*
X395034Y21706D01*
X395048Y21650D01*
Y21623D01*
Y21595D01*
Y21581D01*
Y18419D01*
X395034Y18142D01*
X394979Y17892D01*
X394909Y17684D01*
X394826Y17518D01*
X394757Y17393D01*
X394688Y17296D01*
X394632Y17226D01*
X394618Y17213D01*
X394438Y17074D01*
X394244Y16977D01*
X394050Y16894D01*
X393842Y16852D01*
X393675Y16824D01*
X393523Y16810D01*
X393467Y16796D01*
X392316D01*
X392039Y16810D01*
X391789Y16866D01*
X391581Y16935D01*
X391415Y17004D01*
X391276Y17088D01*
X391179Y17143D01*
X391110Y17199D01*
X391096Y17213D01*
X390957Y17393D01*
X390846Y17587D01*
X390777Y17781D01*
X390721Y17975D01*
X390693Y18155D01*
X390666Y18294D01*
Y18350D01*
Y18391D01*
Y18405D01*
Y18419D01*
Y18891D01*
X390680Y18960D01*
X390693Y19015D01*
X390735Y19057D01*
X390777Y19085D01*
X390846Y19112D01*
X391720D01*
X391789Y19099D01*
X391844Y19085D01*
X391872Y19043D01*
X391900Y19001D01*
X391928Y18932D01*
Y18904D01*
Y18891D01*
Y18475D01*
Y18363D01*
X391955Y18267D01*
X391969Y18183D01*
X391997Y18128D01*
X392025Y18072D01*
X392039Y18045D01*
X392066Y18031D01*
Y18017D01*
X392122Y17975D01*
X392191Y17947D01*
X392344Y17906D01*
X392413D01*
X392469Y17892D01*
X393315D01*
X393398Y17906D01*
X393481Y17934D01*
X393536Y17961D01*
X393592Y17975D01*
X393620Y18003D01*
X393647Y18017D01*
X393689Y18072D01*
X393717Y18142D01*
X393758Y18294D01*
Y18363D01*
X393772Y18419D01*
Y18461D01*
Y18475D01*
Y21525D01*
Y21637D01*
X393758Y21734D01*
X393731Y21803D01*
X393703Y21872D01*
X393689Y21914D01*
X393661Y21942D01*
X393647Y21969D01*
X393592Y22011D01*
X393523Y22053D01*
X393370Y22094D01*
X393301Y22108D01*
X392413D01*
X392316Y22080D01*
X392233Y22066D01*
X392177Y22039D01*
X392122Y22011D01*
X392094Y21997D01*
X392066Y21969D01*
X392025Y21914D01*
X391983Y21844D01*
X391942Y21706D01*
X391928Y21637D01*
Y21581D01*
Y21539D01*
Y21525D01*
Y21109D01*
X391914Y21040D01*
X391900Y20985D01*
X391858Y20943D01*
X391817Y20915D01*
X391747Y20888D01*
X390888D01*
X390818Y20902D01*
X390763Y20929D01*
X390721Y20957D01*
X390693Y20998D01*
X390666Y21082D01*
Y21096D01*
Y21109D01*
Y21581D01*
X390680Y21858D01*
X390735Y22094D01*
X390804Y22302D01*
X390874Y22469D01*
X390957Y22607D01*
X391026Y22690D01*
X391082Y22760D01*
X391096Y22774D01*
X391276Y22912D01*
X391470Y23023D01*
X391664Y23093D01*
X391872Y23148D01*
X392039Y23176D01*
X392191Y23204D01*
X393398D01*
X393675Y23190D01*
D02*
G37*
G36*
X387490D02*
X387559Y23176D01*
X387615Y23148D01*
X387629Y23134D01*
X387698Y23079D01*
X387753Y22996D01*
X387795Y22926D01*
X387809Y22912D01*
Y22898D01*
X389806Y19210D01*
X389861Y19057D01*
X389889Y18891D01*
X389903Y18821D01*
Y18766D01*
Y18724D01*
Y18710D01*
Y18322D01*
X389889Y18211D01*
X389847Y18128D01*
X389820Y18072D01*
X389806Y18058D01*
X389709Y18003D01*
X389626Y17975D01*
X389556Y17961D01*
X387060D01*
Y17004D01*
X387046Y16935D01*
X387018Y16880D01*
X386991Y16852D01*
X386949Y16824D01*
X386866Y16796D01*
X386061D01*
X385992Y16810D01*
X385937Y16824D01*
X385923Y16838D01*
X385909D01*
X385881Y16880D01*
X385867Y16935D01*
Y16991D01*
Y17004D01*
Y17961D01*
X385146D01*
X385077Y17975D01*
X385035Y18003D01*
X384980Y18072D01*
X384952Y18155D01*
Y18169D01*
Y18183D01*
Y18863D01*
X384966Y18932D01*
X384980Y18974D01*
X385049Y19029D01*
X385118Y19057D01*
X385867D01*
Y22843D01*
X385881Y22954D01*
X385923Y23037D01*
X385964Y23093D01*
X385978Y23107D01*
X386061Y23162D01*
X386145Y23190D01*
X386214Y23204D01*
X387379D01*
X387490Y23190D01*
D02*
G37*
G36*
X268128D02*
X268377Y23134D01*
X268585Y23079D01*
X268752Y22996D01*
X268890Y22926D01*
X268988Y22857D01*
X269057Y22801D01*
X269071Y22788D01*
X269209Y22621D01*
X269320Y22427D01*
X269390Y22233D01*
X269445Y22039D01*
X269473Y21858D01*
X269487Y21720D01*
X269501Y21664D01*
Y21623D01*
Y21609D01*
Y21595D01*
Y21318D01*
X269487Y21248D01*
X269473Y21193D01*
X269431Y21165D01*
X269390Y21137D01*
X269320Y21109D01*
X268447D01*
X268377Y21123D01*
X268322Y21137D01*
X268280Y21179D01*
X268253Y21220D01*
X268225Y21290D01*
Y21304D01*
Y21318D01*
Y21567D01*
Y21678D01*
X268211Y21775D01*
X268183Y21844D01*
X268155Y21914D01*
X268142Y21955D01*
X268114Y21983D01*
X268100Y22011D01*
X268044Y22053D01*
X267975Y22094D01*
X267836Y22136D01*
X267767Y22150D01*
X267060D01*
X266963Y22122D01*
X266880Y22108D01*
X266810Y22080D01*
X266755Y22053D01*
X266727Y22039D01*
X266699Y22011D01*
X266644Y21955D01*
X266616Y21886D01*
X266561Y21747D01*
Y21678D01*
X266547Y21623D01*
Y21581D01*
Y21567D01*
Y21109D01*
Y20998D01*
X266574Y20902D01*
X266588Y20818D01*
X266616Y20763D01*
X266644Y20707D01*
X266672Y20680D01*
X266685Y20666D01*
X266699Y20652D01*
X266755Y20610D01*
X266824Y20582D01*
X266991Y20541D01*
X267060D01*
X267115Y20527D01*
X267684D01*
X267753Y20513D01*
X267809Y20499D01*
X267836Y20458D01*
X267864Y20416D01*
X267892Y20347D01*
Y20319D01*
Y20305D01*
Y19709D01*
X267878Y19639D01*
X267864Y19584D01*
X267823Y19556D01*
X267781Y19528D01*
X267712Y19501D01*
X267060D01*
X266963Y19473D01*
X266880Y19459D01*
X266810Y19431D01*
X266755Y19404D01*
X266727Y19390D01*
X266699Y19362D01*
X266644Y19307D01*
X266616Y19237D01*
X266561Y19085D01*
Y19029D01*
X266547Y18974D01*
Y18932D01*
Y18918D01*
Y18433D01*
Y18322D01*
X266574Y18225D01*
X266588Y18142D01*
X266616Y18086D01*
X266644Y18031D01*
X266672Y18003D01*
X266685Y17989D01*
X266699Y17975D01*
X266755Y17934D01*
X266824Y17906D01*
X266991Y17864D01*
X267060D01*
X267115Y17850D01*
X267767D01*
X267864Y17864D01*
X267934Y17892D01*
X268003Y17920D01*
X268044Y17934D01*
X268072Y17961D01*
X268100Y17975D01*
X268142Y18031D01*
X268169Y18100D01*
X268211Y18253D01*
Y18322D01*
X268225Y18377D01*
Y18419D01*
Y18433D01*
Y18683D01*
X268239Y18752D01*
X268253Y18807D01*
X268294Y18849D01*
X268336Y18877D01*
X268405Y18904D01*
X269293D01*
X269362Y18891D01*
X269417Y18877D01*
X269445Y18835D01*
X269473Y18793D01*
X269501Y18724D01*
Y18696D01*
Y18683D01*
Y18405D01*
X269487Y18128D01*
X269431Y17892D01*
X269362Y17684D01*
X269279Y17518D01*
X269209Y17379D01*
X269140Y17296D01*
X269085Y17226D01*
X269071Y17213D01*
X268890Y17074D01*
X268696Y16977D01*
X268502Y16894D01*
X268294Y16852D01*
X268128Y16824D01*
X267975Y16810D01*
X267920Y16796D01*
X266963D01*
X266685Y16810D01*
X266436Y16866D01*
X266228Y16935D01*
X266061Y17004D01*
X265923Y17088D01*
X265826Y17143D01*
X265756Y17199D01*
X265742Y17213D01*
X265604Y17379D01*
X265493Y17573D01*
X265423Y17767D01*
X265368Y17961D01*
X265340Y18142D01*
X265312Y18280D01*
Y18336D01*
Y18377D01*
Y18391D01*
Y18405D01*
Y18918D01*
X265326Y19085D01*
X265340Y19223D01*
X265382Y19362D01*
X265437Y19473D01*
X265493Y19570D01*
X265562Y19667D01*
X265701Y19806D01*
X265853Y19903D01*
X265978Y19958D01*
X266034Y19972D01*
X266075Y19986D01*
X266089Y20000D01*
X266103D01*
X265964Y20055D01*
X265840Y20125D01*
X265742Y20194D01*
X265645Y20277D01*
X265562Y20361D01*
X265507Y20458D01*
X265410Y20638D01*
X265354Y20818D01*
X265326Y20957D01*
X265312Y21012D01*
Y21054D01*
Y21082D01*
Y21096D01*
Y21595D01*
X265326Y21872D01*
X265382Y22108D01*
X265451Y22316D01*
X265520Y22483D01*
X265604Y22621D01*
X265673Y22704D01*
X265728Y22774D01*
X265742Y22788D01*
X265923Y22926D01*
X266117Y23023D01*
X266311Y23107D01*
X266519Y23148D01*
X266685Y23176D01*
X266838Y23204D01*
X267850D01*
X268128Y23190D01*
D02*
G37*
G36*
X273314D02*
X273564Y23134D01*
X273772Y23079D01*
X273939Y22996D01*
X274077Y22926D01*
X274174Y22857D01*
X274244Y22801D01*
X274258Y22788D01*
X274396Y22621D01*
X274507Y22427D01*
X274577Y22219D01*
X274632Y22025D01*
X274660Y21858D01*
X274674Y21706D01*
X274688Y21650D01*
Y21623D01*
Y21595D01*
Y21581D01*
Y18419D01*
X274674Y18142D01*
X274618Y17892D01*
X274549Y17684D01*
X274466Y17518D01*
X274396Y17393D01*
X274327Y17296D01*
X274272Y17226D01*
X274258Y17213D01*
X274077Y17074D01*
X273883Y16977D01*
X273689Y16894D01*
X273481Y16852D01*
X273314Y16824D01*
X273162Y16810D01*
X273106Y16796D01*
X271955D01*
X271678Y16810D01*
X271428Y16866D01*
X271220Y16935D01*
X271054Y17004D01*
X270915Y17088D01*
X270818Y17143D01*
X270749Y17199D01*
X270735Y17213D01*
X270596Y17393D01*
X270485Y17587D01*
X270416Y17781D01*
X270361Y17975D01*
X270333Y18155D01*
X270305Y18294D01*
Y18350D01*
Y18391D01*
Y18405D01*
Y18419D01*
Y18891D01*
X270319Y18960D01*
X270333Y19015D01*
X270374Y19057D01*
X270416Y19085D01*
X270485Y19112D01*
X271359D01*
X271428Y19099D01*
X271484Y19085D01*
X271512Y19043D01*
X271539Y19001D01*
X271567Y18932D01*
Y18904D01*
Y18891D01*
Y18475D01*
Y18363D01*
X271595Y18267D01*
X271609Y18183D01*
X271637Y18128D01*
X271664Y18072D01*
X271678Y18045D01*
X271706Y18031D01*
Y18017D01*
X271761Y17975D01*
X271831Y17947D01*
X271983Y17906D01*
X272052D01*
X272108Y17892D01*
X272954D01*
X273037Y17906D01*
X273120Y17934D01*
X273176Y17961D01*
X273231Y17975D01*
X273259Y18003D01*
X273287Y18017D01*
X273328Y18072D01*
X273356Y18142D01*
X273398Y18294D01*
Y18363D01*
X273412Y18419D01*
Y18461D01*
Y18475D01*
Y21525D01*
Y21637D01*
X273398Y21734D01*
X273370Y21803D01*
X273342Y21872D01*
X273328Y21914D01*
X273301Y21942D01*
X273287Y21969D01*
X273231Y22011D01*
X273162Y22053D01*
X273009Y22094D01*
X272940Y22108D01*
X272052D01*
X271955Y22080D01*
X271872Y22066D01*
X271817Y22039D01*
X271761Y22011D01*
X271733Y21997D01*
X271706Y21969D01*
X271664Y21914D01*
X271623Y21844D01*
X271581Y21706D01*
X271567Y21637D01*
Y21581D01*
Y21539D01*
Y21525D01*
Y21109D01*
X271553Y21040D01*
X271539Y20985D01*
X271498Y20943D01*
X271456Y20915D01*
X271387Y20888D01*
X270527D01*
X270458Y20902D01*
X270402Y20929D01*
X270361Y20957D01*
X270333Y20998D01*
X270305Y21082D01*
Y21096D01*
Y21109D01*
Y21581D01*
X270319Y21858D01*
X270374Y22094D01*
X270444Y22302D01*
X270513Y22469D01*
X270596Y22607D01*
X270666Y22690D01*
X270721Y22760D01*
X270735Y22774D01*
X270915Y22912D01*
X271110Y23023D01*
X271304Y23093D01*
X271512Y23148D01*
X271678Y23176D01*
X271831Y23204D01*
X273037D01*
X273314Y23190D01*
D02*
G37*
G36*
X298038Y148190D02*
X298287Y148134D01*
X298495Y148079D01*
X298662Y147996D01*
X298800Y147926D01*
X298897Y147857D01*
X298967Y147801D01*
X298981Y147788D01*
X299119Y147621D01*
X299230Y147427D01*
X299300Y147233D01*
X299355Y147039D01*
X299383Y146858D01*
X299397Y146720D01*
X299411Y146664D01*
Y146623D01*
Y146609D01*
Y146595D01*
Y146248D01*
X299397Y146179D01*
X299369Y146123D01*
X299341Y146096D01*
X299300Y146068D01*
X299216Y146040D01*
X298343D01*
X298273Y146054D01*
X298218Y146068D01*
X298190Y146110D01*
X298162Y146151D01*
X298135Y146220D01*
Y146234D01*
Y146248D01*
Y146567D01*
Y146678D01*
X298121Y146775D01*
X298093Y146845D01*
X298065Y146914D01*
X298051Y146955D01*
X298024Y146983D01*
X298010Y147011D01*
X297954Y147052D01*
X297885Y147094D01*
X297733Y147136D01*
X297663Y147150D01*
X297095D01*
X296998Y147122D01*
X296914Y147108D01*
X296845Y147080D01*
X296789Y147052D01*
X296762Y147039D01*
X296734Y147011D01*
X296679Y146955D01*
X296651Y146886D01*
X296595Y146747D01*
Y146678D01*
X296581Y146623D01*
Y146581D01*
Y146567D01*
Y146276D01*
X296595Y146123D01*
X296651Y145971D01*
X296720Y145832D01*
X296803Y145707D01*
X296900Y145610D01*
X296970Y145541D01*
X297025Y145485D01*
X297039Y145471D01*
X298870Y143918D01*
X299036Y143766D01*
X299161Y143599D01*
X299244Y143433D01*
X299300Y143280D01*
X299341Y143155D01*
X299355Y143045D01*
X299369Y142975D01*
Y142948D01*
Y142004D01*
X299355Y141935D01*
X299341Y141880D01*
X299300Y141852D01*
X299258Y141824D01*
X299189Y141796D01*
X295555D01*
X295486Y141810D01*
X295430Y141824D01*
X295403Y141866D01*
X295375Y141907D01*
X295347Y141977D01*
Y141990D01*
Y142004D01*
Y142698D01*
X295361Y142767D01*
X295375Y142823D01*
X295417Y142850D01*
X295444Y142878D01*
X295527Y142906D01*
X297941D01*
Y143072D01*
X297927Y143155D01*
X297885Y143239D01*
X297843Y143294D01*
X297830Y143308D01*
X295944Y144903D01*
X295833Y145000D01*
X295749Y145111D01*
X295597Y145319D01*
X295486Y145541D01*
X295417Y145735D01*
X295375Y145915D01*
X295361Y146068D01*
X295347Y146123D01*
Y146165D01*
Y146179D01*
Y146193D01*
Y146595D01*
X295361Y146872D01*
X295417Y147108D01*
X295486Y147316D01*
X295555Y147482D01*
X295638Y147621D01*
X295708Y147704D01*
X295763Y147774D01*
X295777Y147788D01*
X295957Y147926D01*
X296152Y148023D01*
X296346Y148106D01*
X296554Y148148D01*
X296720Y148176D01*
X296873Y148204D01*
X297760D01*
X298038Y148190D01*
D02*
G37*
G36*
X303280D02*
X303529Y148134D01*
X303738Y148079D01*
X303904Y147996D01*
X304043Y147926D01*
X304140Y147857D01*
X304209Y147801D01*
X304223Y147788D01*
X304362Y147621D01*
X304473Y147427D01*
X304542Y147219D01*
X304597Y147025D01*
X304625Y146858D01*
X304639Y146706D01*
X304653Y146650D01*
Y146623D01*
Y146595D01*
Y146581D01*
Y143419D01*
X304639Y143142D01*
X304583Y142892D01*
X304514Y142684D01*
X304431Y142517D01*
X304362Y142393D01*
X304292Y142296D01*
X304237Y142226D01*
X304223Y142212D01*
X304043Y142074D01*
X303848Y141977D01*
X303654Y141894D01*
X303446Y141852D01*
X303280Y141824D01*
X303127Y141810D01*
X303072Y141796D01*
X301921D01*
X301643Y141810D01*
X301394Y141866D01*
X301186Y141935D01*
X301019Y142004D01*
X300881Y142088D01*
X300784Y142143D01*
X300714Y142199D01*
X300700Y142212D01*
X300562Y142393D01*
X300451Y142587D01*
X300381Y142781D01*
X300326Y142975D01*
X300298Y143155D01*
X300270Y143294D01*
Y143350D01*
Y143391D01*
Y143405D01*
Y143419D01*
Y143890D01*
X300284Y143960D01*
X300298Y144015D01*
X300340Y144057D01*
X300381Y144085D01*
X300451Y144112D01*
X301324D01*
X301394Y144099D01*
X301449Y144085D01*
X301477Y144043D01*
X301505Y144002D01*
X301532Y143932D01*
Y143904D01*
Y143890D01*
Y143475D01*
Y143364D01*
X301560Y143266D01*
X301574Y143183D01*
X301602Y143128D01*
X301630Y143072D01*
X301643Y143045D01*
X301671Y143031D01*
Y143017D01*
X301727Y142975D01*
X301796Y142948D01*
X301949Y142906D01*
X302018D01*
X302073Y142892D01*
X302919D01*
X303002Y142906D01*
X303086Y142934D01*
X303141Y142961D01*
X303197Y142975D01*
X303224Y143003D01*
X303252Y143017D01*
X303294Y143072D01*
X303321Y143142D01*
X303363Y143294D01*
Y143364D01*
X303377Y143419D01*
Y143461D01*
Y143475D01*
Y146525D01*
Y146636D01*
X303363Y146734D01*
X303335Y146803D01*
X303308Y146872D01*
X303294Y146914D01*
X303266Y146942D01*
X303252Y146969D01*
X303197Y147011D01*
X303127Y147052D01*
X302975Y147094D01*
X302905Y147108D01*
X302018D01*
X301921Y147080D01*
X301838Y147066D01*
X301782Y147039D01*
X301727Y147011D01*
X301699Y146997D01*
X301671Y146969D01*
X301630Y146914D01*
X301588Y146845D01*
X301546Y146706D01*
X301532Y146636D01*
Y146581D01*
Y146539D01*
Y146525D01*
Y146110D01*
X301519Y146040D01*
X301505Y145985D01*
X301463Y145943D01*
X301422Y145915D01*
X301352Y145888D01*
X300492D01*
X300423Y145901D01*
X300368Y145929D01*
X300326Y145957D01*
X300298Y145998D01*
X300270Y146082D01*
Y146096D01*
Y146110D01*
Y146581D01*
X300284Y146858D01*
X300340Y147094D01*
X300409Y147302D01*
X300478Y147469D01*
X300562Y147607D01*
X300631Y147690D01*
X300686Y147760D01*
X300700Y147774D01*
X300881Y147912D01*
X301075Y148023D01*
X301269Y148093D01*
X301477Y148148D01*
X301643Y148176D01*
X301796Y148204D01*
X303002D01*
X303280Y148190D01*
D02*
G37*
G36*
X277386Y148176D02*
X277511Y148134D01*
X277566Y148106D01*
X277608Y148093D01*
X277635Y148065D01*
X277649D01*
X278551Y147496D01*
X278606Y147469D01*
X278634Y147427D01*
X278689Y147344D01*
X278703Y147274D01*
Y147261D01*
Y147247D01*
Y146428D01*
X278689Y146359D01*
X278676Y146318D01*
X278634Y146290D01*
X278523D01*
X278509Y146304D01*
X278495D01*
X277511Y146858D01*
Y142004D01*
X277497Y141935D01*
X277483Y141880D01*
X277441Y141852D01*
X277400Y141824D01*
X277330Y141796D01*
X276443D01*
X276373Y141810D01*
X276318Y141824D01*
X276304Y141838D01*
X276290D01*
X276262Y141880D01*
X276249Y141935D01*
Y141990D01*
Y142004D01*
Y147996D01*
X276262Y148065D01*
X276276Y148120D01*
X276318Y148148D01*
X276346Y148176D01*
X276429Y148204D01*
X277261D01*
X277386Y148176D01*
D02*
G37*
G36*
X282378Y148190D02*
X282628Y148134D01*
X282836Y148079D01*
X283002Y147996D01*
X283141Y147926D01*
X283238Y147857D01*
X283308Y147801D01*
X283321Y147788D01*
X283460Y147621D01*
X283571Y147427D01*
X283640Y147219D01*
X283696Y147025D01*
X283724Y146858D01*
X283738Y146706D01*
X283751Y146650D01*
Y146623D01*
Y146595D01*
Y146581D01*
Y143419D01*
X283738Y143142D01*
X283682Y142892D01*
X283613Y142684D01*
X283529Y142517D01*
X283460Y142393D01*
X283391Y142296D01*
X283335Y142226D01*
X283321Y142212D01*
X283141Y142074D01*
X282947Y141977D01*
X282753Y141894D01*
X282545Y141852D01*
X282378Y141824D01*
X282226Y141810D01*
X282170Y141796D01*
X281019D01*
X280742Y141810D01*
X280492Y141866D01*
X280284Y141935D01*
X280118Y142004D01*
X279979Y142088D01*
X279882Y142143D01*
X279813Y142199D01*
X279799Y142212D01*
X279660Y142393D01*
X279549Y142587D01*
X279480Y142781D01*
X279424Y142975D01*
X279397Y143155D01*
X279369Y143294D01*
Y143350D01*
Y143391D01*
Y143405D01*
Y143419D01*
Y143890D01*
X279383Y143960D01*
X279397Y144015D01*
X279438Y144057D01*
X279480Y144085D01*
X279549Y144112D01*
X280423D01*
X280492Y144099D01*
X280548Y144085D01*
X280576Y144043D01*
X280603Y144002D01*
X280631Y143932D01*
Y143904D01*
Y143890D01*
Y143475D01*
Y143364D01*
X280659Y143266D01*
X280673Y143183D01*
X280700Y143128D01*
X280728Y143072D01*
X280742Y143045D01*
X280770Y143031D01*
Y143017D01*
X280825Y142975D01*
X280895Y142948D01*
X281047Y142906D01*
X281116D01*
X281172Y142892D01*
X282018D01*
X282101Y142906D01*
X282184Y142934D01*
X282240Y142961D01*
X282295Y142975D01*
X282323Y143003D01*
X282351Y143017D01*
X282392Y143072D01*
X282420Y143142D01*
X282462Y143294D01*
Y143364D01*
X282475Y143419D01*
Y143461D01*
Y143475D01*
Y146525D01*
Y146636D01*
X282462Y146734D01*
X282434Y146803D01*
X282406Y146872D01*
X282392Y146914D01*
X282365Y146942D01*
X282351Y146969D01*
X282295Y147011D01*
X282226Y147052D01*
X282073Y147094D01*
X282004Y147108D01*
X281116D01*
X281019Y147080D01*
X280936Y147066D01*
X280881Y147039D01*
X280825Y147011D01*
X280797Y146997D01*
X280770Y146969D01*
X280728Y146914D01*
X280686Y146845D01*
X280645Y146706D01*
X280631Y146636D01*
Y146581D01*
Y146539D01*
Y146525D01*
Y146110D01*
X280617Y146040D01*
X280603Y145985D01*
X280562Y145943D01*
X280520Y145915D01*
X280451Y145888D01*
X279591D01*
X279522Y145901D01*
X279466Y145929D01*
X279424Y145957D01*
X279397Y145998D01*
X279369Y146082D01*
Y146096D01*
Y146110D01*
Y146581D01*
X279383Y146858D01*
X279438Y147094D01*
X279508Y147302D01*
X279577Y147469D01*
X279660Y147607D01*
X279730Y147690D01*
X279785Y147760D01*
X279799Y147774D01*
X279979Y147912D01*
X280173Y148023D01*
X280368Y148093D01*
X280576Y148148D01*
X280742Y148176D01*
X280895Y148204D01*
X282101D01*
X282378Y148190D01*
D02*
G37*
%LPC*%
G36*
X1330869Y82996D02*
X1329564D01*
X1329370Y82968D01*
X1329231Y82912D01*
X1329092Y82885D01*
X1329009Y82829D01*
X1328954Y82773D01*
X1328898Y82746D01*
X1328815Y82635D01*
X1328759Y82496D01*
X1328676Y82190D01*
X1328648Y82052D01*
Y81941D01*
Y81857D01*
Y81830D01*
Y80886D01*
X1328676Y80747D01*
X1328759Y80691D01*
X1328842Y80663D01*
X1331563D01*
X1331702Y80691D01*
X1331757Y80774D01*
X1331785Y80858D01*
Y80886D01*
Y81830D01*
Y82052D01*
X1331757Y82246D01*
X1331702Y82413D01*
X1331646Y82551D01*
X1331619Y82635D01*
X1331563Y82690D01*
X1331535Y82746D01*
X1331424Y82829D01*
X1331286Y82885D01*
X1331008Y82968D01*
X1330869Y82996D01*
D02*
G37*
G36*
X1313990D02*
X1311880D01*
X1311741Y82968D01*
X1311685Y82885D01*
X1311658Y82801D01*
Y82773D01*
Y78692D01*
X1311685Y78443D01*
X1311713Y78193D01*
X1311769Y77998D01*
X1311880Y77832D01*
X1312074Y77554D01*
X1312324Y77388D01*
X1312574Y77277D01*
X1312796Y77221D01*
X1312962Y77193D01*
X1313990D01*
X1314184Y77221D01*
X1314350Y77277D01*
X1314462Y77332D01*
X1314573Y77360D01*
X1314628Y77415D01*
X1314656Y77443D01*
X1314684D01*
X1314767Y77554D01*
X1314823Y77693D01*
X1314906Y77998D01*
Y78137D01*
X1314933Y78248D01*
Y78331D01*
Y78359D01*
Y81802D01*
Y82024D01*
X1314906Y82218D01*
X1314850Y82385D01*
X1314795Y82496D01*
X1314767Y82607D01*
X1314711Y82662D01*
X1314684Y82718D01*
X1314573Y82801D01*
X1314434Y82885D01*
X1314128Y82968D01*
X1313990Y82996D01*
D02*
G37*
G36*
X1296666D02*
X1295528D01*
X1295278Y82968D01*
X1295084Y82940D01*
X1294889Y82857D01*
X1294750Y82746D01*
X1294501Y82524D01*
X1294334Y82246D01*
X1294251Y81941D01*
X1294195Y81719D01*
X1294167Y81524D01*
Y81496D01*
Y81469D01*
Y78692D01*
X1294195Y78443D01*
X1294223Y78193D01*
X1294279Y77998D01*
X1294389Y77832D01*
X1294584Y77554D01*
X1294834Y77388D01*
X1295084Y77277D01*
X1295306Y77221D01*
X1295472Y77193D01*
X1296666D01*
X1296860Y77221D01*
X1297027Y77277D01*
X1297138Y77332D01*
X1297249Y77360D01*
X1297305Y77415D01*
X1297332Y77443D01*
X1297360D01*
X1297443Y77554D01*
X1297499Y77693D01*
X1297582Y77998D01*
Y78137D01*
X1297610Y78248D01*
Y78331D01*
Y78359D01*
Y81802D01*
Y82024D01*
X1297582Y82218D01*
X1297527Y82385D01*
X1297471Y82496D01*
X1297443Y82607D01*
X1297388Y82662D01*
X1297360Y82718D01*
X1297249Y82801D01*
X1297110Y82885D01*
X1296805Y82968D01*
X1296666Y82996D01*
D02*
G37*
G36*
X1282091Y85633D02*
X1279731D01*
X1279537Y85577D01*
X1279398Y85550D01*
X1279259Y85494D01*
X1279176Y85439D01*
X1279120Y85411D01*
X1279065Y85355D01*
X1278981Y85244D01*
X1278898Y85105D01*
X1278815Y84828D01*
X1278787Y84689D01*
Y84578D01*
Y84495D01*
Y84467D01*
Y82773D01*
Y82551D01*
X1278843Y82385D01*
X1278870Y82218D01*
X1278926Y82107D01*
X1278981Y81996D01*
X1279009Y81941D01*
X1279065Y81885D01*
X1279176Y81802D01*
X1279315Y81746D01*
X1279592Y81663D01*
X1279731D01*
X1279842Y81635D01*
X1282063D01*
X1282202Y81663D01*
X1282257Y81746D01*
X1282285Y81802D01*
Y81830D01*
Y85411D01*
X1282257Y85550D01*
X1282174Y85605D01*
X1282091Y85633D01*
D02*
G37*
G36*
X1271180Y82996D02*
X1269875D01*
X1269681Y82968D01*
X1269542Y82912D01*
X1269404Y82884D01*
X1269320Y82829D01*
X1269265Y82773D01*
X1269209Y82746D01*
X1269126Y82635D01*
X1269070Y82496D01*
X1268987Y82190D01*
X1268959Y82052D01*
Y81940D01*
Y81857D01*
Y81830D01*
Y80886D01*
X1268987Y80747D01*
X1269070Y80691D01*
X1269154Y80663D01*
X1271874D01*
X1272013Y80691D01*
X1272069Y80774D01*
X1272096Y80858D01*
Y80886D01*
Y81830D01*
Y82052D01*
X1272069Y82246D01*
X1272013Y82413D01*
X1271958Y82551D01*
X1271930Y82635D01*
X1271874Y82690D01*
X1271847Y82746D01*
X1271736Y82829D01*
X1271597Y82884D01*
X1271319Y82968D01*
X1271180Y82996D01*
D02*
G37*
G36*
X1254329D02*
X1253024D01*
X1252830Y82968D01*
X1252691Y82912D01*
X1252552Y82884D01*
X1252469Y82829D01*
X1252413Y82773D01*
X1252357Y82746D01*
X1252274Y82635D01*
X1252219Y82496D01*
X1252135Y82190D01*
X1252108Y82052D01*
Y81940D01*
Y81857D01*
Y81830D01*
Y80886D01*
X1252135Y80747D01*
X1252219Y80691D01*
X1252302Y80663D01*
X1255023D01*
X1255162Y80691D01*
X1255217Y80774D01*
X1255245Y80858D01*
Y80886D01*
Y81830D01*
Y82052D01*
X1255217Y82246D01*
X1255162Y82413D01*
X1255106Y82551D01*
X1255078Y82635D01*
X1255023Y82690D01*
X1254995Y82746D01*
X1254884Y82829D01*
X1254745Y82884D01*
X1254467Y82968D01*
X1254329Y82996D01*
D02*
G37*
G36*
X1231453Y80552D02*
X1231369D01*
X1229204Y77998D01*
X1229287Y77721D01*
X1229398Y77526D01*
X1229537Y77387D01*
X1229704Y77304D01*
X1229870Y77249D01*
X1230009Y77193D01*
X1231230D01*
X1231425Y77249D01*
X1231591Y77277D01*
X1231730Y77332D01*
X1231814Y77387D01*
X1231897Y77415D01*
X1231925Y77471D01*
X1231952D01*
X1232036Y77582D01*
X1232119Y77721D01*
X1232202Y78026D01*
Y78165D01*
X1232230Y78248D01*
Y78331D01*
Y78359D01*
Y79220D01*
Y79470D01*
X1232202Y79692D01*
X1232174Y79858D01*
X1232147Y79997D01*
X1232119Y80108D01*
X1232091Y80191D01*
X1232063Y80247D01*
X1231980Y80358D01*
X1231869Y80414D01*
X1231647Y80525D01*
X1231536D01*
X1231453Y80552D01*
D02*
G37*
G36*
X1214657Y85633D02*
X1212241D01*
X1212047Y85577D01*
X1211880Y85550D01*
X1211769Y85494D01*
X1211658Y85439D01*
X1211603Y85411D01*
X1211547Y85355D01*
X1211464Y85244D01*
X1211380Y85105D01*
X1211297Y84828D01*
X1211270Y84689D01*
Y84578D01*
Y84495D01*
Y84467D01*
Y78359D01*
Y78137D01*
X1211325Y77943D01*
X1211353Y77776D01*
X1211408Y77665D01*
X1211464Y77554D01*
X1211492Y77499D01*
X1211547Y77471D01*
Y77443D01*
X1211658Y77360D01*
X1211797Y77304D01*
X1212102Y77221D01*
X1212241D01*
X1212352Y77193D01*
X1214629D01*
X1214768Y77221D01*
X1214823Y77304D01*
X1214851Y77387D01*
Y77415D01*
Y85411D01*
X1214823Y85550D01*
X1214740Y85605D01*
X1214657Y85633D01*
D02*
G37*
G36*
X1203274Y82996D02*
X1201164D01*
X1201025Y82968D01*
X1200970Y82884D01*
X1200942Y82801D01*
Y82773D01*
Y78692D01*
X1200970Y78443D01*
X1200997Y78193D01*
X1201053Y77998D01*
X1201164Y77832D01*
X1201358Y77554D01*
X1201608Y77387D01*
X1201858Y77277D01*
X1202080Y77221D01*
X1202247Y77193D01*
X1203274D01*
X1203468Y77221D01*
X1203635Y77277D01*
X1203746Y77332D01*
X1203857Y77360D01*
X1203913Y77415D01*
X1203940Y77443D01*
X1203968D01*
X1204051Y77554D01*
X1204107Y77693D01*
X1204190Y77998D01*
Y78137D01*
X1204218Y78248D01*
Y78331D01*
Y78359D01*
Y81802D01*
Y82024D01*
X1204190Y82218D01*
X1204135Y82385D01*
X1204079Y82496D01*
X1204051Y82607D01*
X1203996Y82662D01*
X1203968Y82718D01*
X1203857Y82801D01*
X1203718Y82884D01*
X1203413Y82968D01*
X1203274Y82996D01*
D02*
G37*
G36*
X1178621D02*
X1177483D01*
X1177233Y82968D01*
X1177039Y82940D01*
X1176844Y82857D01*
X1176705Y82746D01*
X1176456Y82523D01*
X1176289Y82246D01*
X1176206Y81940D01*
X1176150Y81718D01*
X1176123Y81524D01*
Y81496D01*
Y81469D01*
Y78692D01*
X1176150Y78443D01*
X1176178Y78193D01*
X1176234Y77998D01*
X1176345Y77832D01*
X1176539Y77554D01*
X1176789Y77387D01*
X1177039Y77277D01*
X1177261Y77221D01*
X1177427Y77193D01*
X1178621D01*
X1178816Y77221D01*
X1178982Y77277D01*
X1179093Y77332D01*
X1179204Y77360D01*
X1179260Y77415D01*
X1179287Y77443D01*
X1179315D01*
X1179398Y77554D01*
X1179454Y77693D01*
X1179537Y77998D01*
Y78137D01*
X1179565Y78248D01*
Y78331D01*
Y78359D01*
Y81802D01*
Y82024D01*
X1179537Y82218D01*
X1179482Y82385D01*
X1179426Y82496D01*
X1179398Y82607D01*
X1179343Y82662D01*
X1179315Y82718D01*
X1179204Y82801D01*
X1179065Y82884D01*
X1178760Y82968D01*
X1178621Y82996D01*
D02*
G37*
G36*
X1164046Y85633D02*
X1161853D01*
X1161658Y85577D01*
X1161492Y85550D01*
X1161353Y85494D01*
X1161270Y85439D01*
X1161187Y85411D01*
X1161131Y85355D01*
X1161020Y85244D01*
X1160964Y85105D01*
X1160853Y84800D01*
Y84689D01*
X1160826Y84578D01*
Y84495D01*
Y84467D01*
Y82912D01*
Y82690D01*
X1160881Y82523D01*
X1160909Y82357D01*
X1160964Y82246D01*
X1161020Y82135D01*
X1161075Y82079D01*
X1161103Y82052D01*
X1161131Y82024D01*
X1161270Y81940D01*
X1161409Y81885D01*
X1161714Y81802D01*
X1161853D01*
X1161964Y81774D01*
X1164018D01*
X1164157Y81802D01*
X1164213Y81885D01*
X1164240Y81968D01*
Y81996D01*
Y85411D01*
X1164213Y85550D01*
X1164129Y85605D01*
X1164046Y85633D01*
D02*
G37*
G36*
X1152802Y82996D02*
X1151497D01*
X1151303Y82968D01*
X1151164Y82912D01*
X1151025Y82884D01*
X1150942Y82829D01*
X1150887Y82773D01*
X1150831Y82746D01*
X1150748Y82635D01*
X1150692Y82496D01*
X1150609Y82190D01*
X1150581Y82052D01*
Y81940D01*
Y81857D01*
Y81830D01*
Y80886D01*
X1150609Y80747D01*
X1150692Y80691D01*
X1150776Y80663D01*
X1153496D01*
X1153635Y80691D01*
X1153691Y80774D01*
X1153718Y80858D01*
Y80886D01*
Y81830D01*
Y82052D01*
X1153691Y82246D01*
X1153635Y82413D01*
X1153580Y82551D01*
X1153552Y82635D01*
X1153496Y82690D01*
X1153469Y82746D01*
X1153357Y82829D01*
X1153219Y82884D01*
X1152941Y82968D01*
X1152802Y82996D01*
D02*
G37*
G36*
X1142891D02*
X1141753D01*
X1141503Y82968D01*
X1141309Y82940D01*
X1141114Y82857D01*
X1140976Y82746D01*
X1140726Y82523D01*
X1140559Y82246D01*
X1140476Y81940D01*
X1140420Y81718D01*
X1140393Y81524D01*
Y81496D01*
Y81469D01*
Y78692D01*
X1140420Y78443D01*
X1140448Y78193D01*
X1140504Y77998D01*
X1140615Y77832D01*
X1140809Y77554D01*
X1141059Y77387D01*
X1141309Y77277D01*
X1141531Y77221D01*
X1141697Y77193D01*
X1142891D01*
X1143085Y77221D01*
X1143252Y77277D01*
X1143363Y77332D01*
X1143474Y77360D01*
X1143530Y77415D01*
X1143558Y77443D01*
X1143585D01*
X1143669Y77554D01*
X1143724Y77693D01*
X1143807Y77998D01*
Y78137D01*
X1143835Y78248D01*
Y78331D01*
Y78359D01*
Y81802D01*
Y82024D01*
X1143807Y82218D01*
X1143752Y82385D01*
X1143696Y82496D01*
X1143669Y82607D01*
X1143613Y82662D01*
X1143585Y82718D01*
X1143474Y82801D01*
X1143335Y82884D01*
X1143030Y82968D01*
X1142891Y82996D01*
D02*
G37*
G36*
X1132397D02*
X1130926D01*
X1130731Y82968D01*
X1130565Y82912D01*
X1130454Y82884D01*
X1130343Y82829D01*
X1130287Y82773D01*
X1130232Y82746D01*
X1130148Y82635D01*
X1130065Y82496D01*
X1129982Y82190D01*
X1129954Y82052D01*
Y81940D01*
Y81857D01*
Y81830D01*
Y78331D01*
Y78109D01*
X1130010Y77915D01*
X1130037Y77748D01*
X1130093Y77637D01*
X1130148Y77526D01*
X1130176Y77471D01*
X1130232Y77443D01*
Y77415D01*
X1130343Y77332D01*
X1130481Y77277D01*
X1130787Y77193D01*
X1130926D01*
X1131037Y77165D01*
X1132397D01*
X1132591Y77193D01*
X1132730Y77249D01*
X1132869Y77304D01*
X1132952Y77332D01*
X1133008Y77387D01*
X1133063Y77415D01*
X1133147Y77526D01*
X1133202Y77665D01*
X1133286Y77970D01*
Y78109D01*
X1133313Y78220D01*
Y78304D01*
Y78331D01*
Y81830D01*
Y82052D01*
X1133286Y82246D01*
X1133230Y82413D01*
X1133174Y82551D01*
X1133147Y82635D01*
X1133091Y82690D01*
X1133063Y82746D01*
X1132952Y82829D01*
X1132813Y82884D01*
X1132536Y82968D01*
X1132397Y82996D01*
D02*
G37*
G36*
X1111742Y82996D02*
X1110604D01*
X1110354Y82968D01*
X1110160Y82940D01*
X1109965Y82857D01*
X1109826Y82746D01*
X1109576Y82523D01*
X1109410Y82246D01*
X1109327Y81940D01*
X1109271Y81718D01*
X1109243Y81524D01*
Y81496D01*
Y81468D01*
Y78692D01*
X1109271Y78443D01*
X1109299Y78193D01*
X1109354Y77998D01*
X1109465Y77832D01*
X1109660Y77554D01*
X1109910Y77387D01*
X1110160Y77277D01*
X1110382Y77221D01*
X1110548Y77193D01*
X1111742D01*
X1111936Y77221D01*
X1112103Y77277D01*
X1112214Y77332D01*
X1112325Y77360D01*
X1112381Y77415D01*
X1112408Y77443D01*
X1112436D01*
X1112519Y77554D01*
X1112575Y77693D01*
X1112658Y77998D01*
Y78137D01*
X1112686Y78248D01*
Y78331D01*
Y78359D01*
Y81802D01*
Y82024D01*
X1112658Y82218D01*
X1112603Y82385D01*
X1112547Y82496D01*
X1112519Y82607D01*
X1112464Y82662D01*
X1112436Y82718D01*
X1112325Y82801D01*
X1112186Y82884D01*
X1111881Y82968D01*
X1111742Y82996D01*
D02*
G37*
G36*
X1101248D02*
X1099777D01*
X1099582Y82968D01*
X1099416Y82912D01*
X1099305Y82884D01*
X1099193Y82829D01*
X1099138Y82773D01*
X1099082Y82746D01*
X1098999Y82635D01*
X1098916Y82496D01*
X1098833Y82190D01*
X1098805Y82052D01*
Y81940D01*
Y81857D01*
Y81830D01*
Y78331D01*
Y78109D01*
X1098860Y77915D01*
X1098888Y77748D01*
X1098944Y77637D01*
X1098999Y77526D01*
X1099027Y77471D01*
X1099082Y77443D01*
Y77415D01*
X1099193Y77332D01*
X1099332Y77277D01*
X1099638Y77193D01*
X1099777D01*
X1099887Y77165D01*
X1101248D01*
X1101442Y77193D01*
X1101581Y77249D01*
X1101720Y77304D01*
X1101803Y77332D01*
X1101859Y77387D01*
X1101914Y77415D01*
X1101998Y77526D01*
X1102053Y77665D01*
X1102136Y77970D01*
Y78109D01*
X1102164Y78220D01*
Y78304D01*
Y78331D01*
Y81830D01*
Y82052D01*
X1102136Y82246D01*
X1102081Y82413D01*
X1102025Y82551D01*
X1101998Y82635D01*
X1101942Y82690D01*
X1101914Y82746D01*
X1101803Y82829D01*
X1101664Y82884D01*
X1101387Y82968D01*
X1101248Y82996D01*
D02*
G37*
G36*
X1065990Y85633D02*
X1064380D01*
X1064185Y85577D01*
X1064046Y85550D01*
X1063908Y85494D01*
X1063824Y85438D01*
X1063769Y85411D01*
X1063713Y85355D01*
X1063630Y85244D01*
X1063547Y85105D01*
X1063464Y84828D01*
X1063436Y84689D01*
Y84578D01*
Y84495D01*
Y84467D01*
Y78359D01*
Y78137D01*
X1063491Y77943D01*
X1063519Y77776D01*
X1063575Y77665D01*
X1063630Y77554D01*
X1063658Y77498D01*
X1063713Y77471D01*
Y77443D01*
X1063824Y77360D01*
X1063963Y77304D01*
X1064241Y77221D01*
X1064380D01*
X1064491Y77193D01*
X1065990D01*
X1066184Y77221D01*
X1066351Y77277D01*
X1066462Y77332D01*
X1066573Y77360D01*
X1066628Y77415D01*
X1066656Y77443D01*
X1066684D01*
X1066767Y77554D01*
X1066823Y77693D01*
X1066906Y77998D01*
Y78137D01*
X1066934Y78248D01*
Y78331D01*
Y78359D01*
Y84467D01*
Y84689D01*
X1066906Y84883D01*
X1066851Y85022D01*
X1066795Y85161D01*
X1066767Y85244D01*
X1066712Y85300D01*
X1066684Y85355D01*
X1066573Y85438D01*
X1066434Y85522D01*
X1066129Y85605D01*
X1065990Y85633D01*
D02*
G37*
G36*
X1429720Y83835D02*
X1426202D01*
X1425971Y83789D01*
X1425878Y83650D01*
X1425832Y83511D01*
Y83465D01*
Y77449D01*
X1425878Y77032D01*
X1425925Y76616D01*
X1426064Y76292D01*
X1426202Y76014D01*
X1426573Y75552D01*
X1426989Y75274D01*
X1427406Y75089D01*
X1427776Y74996D01*
X1428053Y74950D01*
X1429720D01*
X1430043Y74996D01*
X1430321Y75089D01*
X1430506Y75181D01*
X1430691Y75228D01*
X1430784Y75320D01*
X1430830Y75366D01*
X1430876D01*
X1431015Y75552D01*
X1431108Y75783D01*
X1431247Y76292D01*
Y76523D01*
X1431293Y76708D01*
Y76847D01*
Y76894D01*
Y81846D01*
Y82216D01*
X1431247Y82540D01*
X1431154Y82817D01*
X1431062Y83002D01*
X1431015Y83188D01*
X1430923Y83280D01*
X1430876Y83373D01*
X1430691Y83511D01*
X1430460Y83650D01*
X1429951Y83789D01*
X1429720Y83835D01*
D02*
G37*
G36*
X1540418Y88371D02*
X1536577D01*
X1536253Y88278D01*
X1535976Y88232D01*
X1535791Y88139D01*
X1535605Y88047D01*
X1535513Y88001D01*
X1535420Y87908D01*
X1535235Y87723D01*
X1535143Y87492D01*
X1534957Y87029D01*
Y86797D01*
X1534911Y86612D01*
Y86473D01*
Y86427D01*
Y85131D01*
Y84761D01*
X1535004Y84483D01*
X1535050Y84206D01*
X1535143Y84021D01*
X1535235Y83835D01*
X1535328Y83743D01*
X1535374Y83697D01*
X1535420Y83650D01*
X1535652Y83511D01*
X1535883Y83419D01*
X1536392Y83280D01*
X1536624D01*
X1536809Y83234D01*
X1540372D01*
X1540603Y83280D01*
X1540696Y83419D01*
X1540742Y83511D01*
Y83558D01*
Y88001D01*
X1540696Y88232D01*
X1540557Y88324D01*
X1540418Y88371D01*
D02*
G37*
G36*
Y79763D02*
X1536346D01*
X1535976Y79717D01*
X1535698Y79624D01*
X1535467Y79578D01*
X1535328Y79485D01*
X1535189Y79393D01*
X1535096Y79346D01*
X1534911Y79161D01*
X1534819Y78930D01*
X1534634Y78467D01*
Y78236D01*
X1534587Y78051D01*
Y77912D01*
Y77866D01*
Y75968D01*
Y75598D01*
X1534680Y75274D01*
X1534726Y74996D01*
X1534819Y74811D01*
X1534911Y74626D01*
X1535004Y74533D01*
X1535050Y74487D01*
X1535096Y74441D01*
X1535282Y74302D01*
X1535513Y74209D01*
X1536068Y74071D01*
X1536300D01*
X1536485Y74024D01*
X1540372D01*
X1540603Y74071D01*
X1540696Y74209D01*
X1540742Y74348D01*
Y74395D01*
Y79393D01*
X1540696Y79624D01*
X1540557Y79717D01*
X1540418Y79763D01*
D02*
G37*
G36*
X1509736Y83835D02*
X1506218D01*
X1505987Y83789D01*
X1505894Y83650D01*
X1505848Y83511D01*
Y83465D01*
Y76662D01*
X1505894Y76246D01*
X1505941Y75829D01*
X1506033Y75505D01*
X1506218Y75228D01*
X1506542Y74765D01*
X1506959Y74487D01*
X1507375Y74302D01*
X1507746Y74209D01*
X1508023Y74163D01*
X1509736D01*
X1510060Y74209D01*
X1510337Y74302D01*
X1510522Y74395D01*
X1510707Y74441D01*
X1510800Y74533D01*
X1510846Y74580D01*
X1510892D01*
X1511031Y74765D01*
X1511124Y74996D01*
X1511263Y75505D01*
Y75737D01*
X1511309Y75922D01*
Y76061D01*
Y76107D01*
Y81846D01*
Y82216D01*
X1511263Y82540D01*
X1511170Y82817D01*
X1511078Y83003D01*
X1511031Y83188D01*
X1510939Y83280D01*
X1510892Y83373D01*
X1510707Y83511D01*
X1510476Y83650D01*
X1509967Y83789D01*
X1509736Y83835D01*
D02*
G37*
G36*
X1476785D02*
X1474610D01*
X1474286Y83789D01*
X1474055Y83697D01*
X1473823Y83650D01*
X1473684Y83558D01*
X1473592Y83465D01*
X1473499Y83419D01*
X1473360Y83234D01*
X1473268Y83003D01*
X1473129Y82493D01*
X1473083Y82262D01*
Y82077D01*
Y81938D01*
Y81892D01*
Y80318D01*
X1473129Y80087D01*
X1473268Y79994D01*
X1473407Y79948D01*
X1477942D01*
X1478173Y79994D01*
X1478266Y80133D01*
X1478312Y80272D01*
Y80318D01*
Y81892D01*
Y82262D01*
X1478266Y82586D01*
X1478173Y82864D01*
X1478081Y83095D01*
X1478035Y83234D01*
X1477942Y83326D01*
X1477896Y83419D01*
X1477711Y83558D01*
X1477479Y83650D01*
X1477016Y83789D01*
X1476785Y83835D01*
D02*
G37*
G36*
X593086Y122108D02*
X591990D01*
X591893Y122080D01*
X591810Y122066D01*
X591740Y122039D01*
X591699Y122011D01*
X591657Y121997D01*
X591629Y121969D01*
X591574Y121914D01*
X591546Y121845D01*
X591491Y121692D01*
Y121636D01*
X591477Y121581D01*
Y121539D01*
Y121525D01*
Y120749D01*
Y120638D01*
X591505Y120555D01*
X591519Y120471D01*
X591546Y120416D01*
X591574Y120361D01*
X591602Y120333D01*
X591616Y120319D01*
X591629Y120305D01*
X591699Y120264D01*
X591768Y120236D01*
X591921Y120194D01*
X591990D01*
X592046Y120180D01*
X593072D01*
X593141Y120194D01*
X593169Y120236D01*
X593183Y120277D01*
Y120291D01*
Y121997D01*
X593169Y122066D01*
X593127Y122094D01*
X593086Y122108D01*
D02*
G37*
G36*
X593432Y37108D02*
X592337D01*
X592240Y37080D01*
X592156Y37066D01*
X592087Y37039D01*
X592046Y37011D01*
X592004Y36997D01*
X591976Y36969D01*
X591921Y36914D01*
X591893Y36844D01*
X591838Y36692D01*
Y36637D01*
X591824Y36581D01*
Y36539D01*
Y36525D01*
Y35749D01*
Y35638D01*
X591851Y35555D01*
X591865Y35471D01*
X591893Y35416D01*
X591921Y35361D01*
X591949Y35333D01*
X591962Y35319D01*
X591976Y35305D01*
X592046Y35264D01*
X592115Y35236D01*
X592267Y35194D01*
X592337D01*
X592392Y35180D01*
X593419D01*
X593488Y35194D01*
X593516Y35236D01*
X593530Y35277D01*
Y35291D01*
Y36997D01*
X593516Y37066D01*
X593474Y37094D01*
X593432Y37108D01*
D02*
G37*
G36*
X588204Y34750D02*
X586942D01*
X586845Y34723D01*
X586762Y34709D01*
X586706Y34681D01*
X586651Y34653D01*
X586623Y34639D01*
X586595Y34612D01*
X586554Y34556D01*
X586512Y34487D01*
X586470Y34348D01*
X586457Y34279D01*
Y34223D01*
Y34182D01*
Y34168D01*
Y33475D01*
Y33363D01*
X586484Y33266D01*
X586498Y33183D01*
X586526Y33128D01*
X586554Y33072D01*
X586568Y33045D01*
X586595Y33031D01*
Y33017D01*
X586651Y32975D01*
X586720Y32947D01*
X586873Y32906D01*
X586942D01*
X586997Y32892D01*
X587733D01*
X587830Y32906D01*
X587913Y32934D01*
X587968Y32961D01*
X588024Y32975D01*
X588051Y33003D01*
X588065Y33017D01*
X588079D01*
X588121Y33072D01*
X588149Y33142D01*
X588190Y33294D01*
Y33363D01*
X588204Y33419D01*
Y33461D01*
Y33475D01*
Y34750D01*
D02*
G37*
G36*
X728342Y92108D02*
X727247D01*
X727150Y92080D01*
X727066Y92066D01*
X726997Y92039D01*
X726955Y92011D01*
X726914Y91997D01*
X726886Y91969D01*
X726831Y91914D01*
X726803Y91845D01*
X726747Y91692D01*
Y91636D01*
X726733Y91581D01*
Y91539D01*
Y91525D01*
Y90749D01*
Y90638D01*
X726761Y90555D01*
X726775Y90471D01*
X726803Y90416D01*
X726831Y90361D01*
X726858Y90333D01*
X726872Y90319D01*
X726886Y90305D01*
X726955Y90264D01*
X727025Y90236D01*
X727177Y90194D01*
X727247D01*
X727302Y90180D01*
X728328D01*
X728398Y90194D01*
X728426Y90236D01*
X728439Y90277D01*
Y90291D01*
Y91997D01*
X728426Y92066D01*
X728384Y92094D01*
X728342Y92108D01*
D02*
G37*
G36*
X738675Y142108D02*
X737579D01*
X737482Y142080D01*
X737399Y142066D01*
X737330Y142039D01*
X737288Y142011D01*
X737247Y141997D01*
X737219Y141969D01*
X737163Y141914D01*
X737136Y141845D01*
X737080Y141692D01*
Y141636D01*
X737066Y141581D01*
Y141539D01*
Y141525D01*
Y140749D01*
Y140638D01*
X737094Y140555D01*
X737108Y140471D01*
X737136Y140416D01*
X737163Y140361D01*
X737191Y140333D01*
X737205Y140319D01*
X737219Y140305D01*
X737288Y140264D01*
X737358Y140236D01*
X737510Y140194D01*
X737579D01*
X737635Y140180D01*
X738661D01*
X738731Y140194D01*
X738758Y140236D01*
X738772Y140277D01*
Y140291D01*
Y141997D01*
X738758Y142066D01*
X738717Y142094D01*
X738675Y142108D01*
D02*
G37*
G36*
X732060Y142136D02*
Y139057D01*
X733669D01*
X732060Y142136D01*
D02*
G37*
G36*
X418315Y107108D02*
X417219D01*
X417122Y107080D01*
X417039Y107066D01*
X416969Y107039D01*
X416928Y107011D01*
X416886Y106997D01*
X416858Y106969D01*
X416803Y106914D01*
X416775Y106845D01*
X416720Y106692D01*
Y106636D01*
X416706Y106581D01*
Y106539D01*
Y106525D01*
Y105749D01*
Y105638D01*
X416734Y105555D01*
X416747Y105471D01*
X416775Y105416D01*
X416803Y105361D01*
X416831Y105333D01*
X416844Y105319D01*
X416858Y105305D01*
X416928Y105264D01*
X416997Y105236D01*
X417150Y105194D01*
X417219D01*
X417274Y105180D01*
X418301D01*
X418370Y105194D01*
X418398Y105236D01*
X418412Y105277D01*
Y105291D01*
Y106997D01*
X418398Y107066D01*
X418356Y107094D01*
X418315Y107108D01*
D02*
G37*
G36*
X473280D02*
X472184D01*
X472087Y107080D01*
X472004Y107066D01*
X471935Y107039D01*
X471893Y107011D01*
X471851Y106997D01*
X471824Y106969D01*
X471768Y106914D01*
X471740Y106845D01*
X471685Y106692D01*
Y106636D01*
X471671Y106581D01*
Y106539D01*
Y106525D01*
Y105749D01*
Y105638D01*
X471699Y105555D01*
X471713Y105471D01*
X471740Y105416D01*
X471768Y105361D01*
X471796Y105333D01*
X471810Y105319D01*
X471824Y105305D01*
X471893Y105264D01*
X471962Y105236D01*
X472115Y105194D01*
X472184D01*
X472240Y105180D01*
X473266D01*
X473335Y105194D01*
X473363Y105236D01*
X473377Y105277D01*
Y105291D01*
Y106997D01*
X473363Y107066D01*
X473321Y107094D01*
X473280Y107108D01*
D02*
G37*
G36*
X447378D02*
X446283D01*
X446186Y107080D01*
X446102Y107066D01*
X446033Y107039D01*
X445992Y107011D01*
X445950Y106997D01*
X445922Y106969D01*
X445867Y106914D01*
X445839Y106845D01*
X445784Y106692D01*
Y106636D01*
X445770Y106581D01*
Y106539D01*
Y106525D01*
Y105749D01*
Y105638D01*
X445797Y105555D01*
X445811Y105471D01*
X445839Y105416D01*
X445867Y105361D01*
X445895Y105333D01*
X445908Y105319D01*
X445922Y105305D01*
X445992Y105264D01*
X446061Y105236D01*
X446213Y105194D01*
X446283D01*
X446338Y105180D01*
X447365D01*
X447434Y105194D01*
X447462Y105236D01*
X447476Y105277D01*
Y105291D01*
Y106997D01*
X447462Y107066D01*
X447420Y107094D01*
X447378Y107108D01*
D02*
G37*
G36*
X872122Y122767D02*
X871193D01*
X871096Y122739D01*
X871026Y122725D01*
X870957Y122697D01*
X870915Y122670D01*
X870888Y122656D01*
X870860Y122628D01*
X870818Y122573D01*
X870777Y122503D01*
X870735Y122365D01*
X870721Y122295D01*
Y122240D01*
Y122198D01*
Y122184D01*
Y119133D01*
Y119022D01*
X870749Y118925D01*
X870763Y118842D01*
X870790Y118786D01*
X870818Y118731D01*
X870832Y118703D01*
X870860Y118689D01*
Y118676D01*
X870915Y118634D01*
X870985Y118606D01*
X871123Y118565D01*
X871193D01*
X871248Y118551D01*
X872122D01*
X872219Y118565D01*
X872302Y118592D01*
X872358Y118620D01*
X872413Y118634D01*
X872441Y118662D01*
X872455Y118676D01*
X872469D01*
X872510Y118731D01*
X872538Y118800D01*
X872579Y118953D01*
Y119022D01*
X872593Y119078D01*
Y119119D01*
Y119133D01*
Y122184D01*
Y122295D01*
X872579Y122392D01*
X872552Y122462D01*
X872524Y122531D01*
X872510Y122573D01*
X872483Y122600D01*
X872469Y122628D01*
X872413Y122670D01*
X872344Y122711D01*
X872191Y122753D01*
X872122Y122767D01*
D02*
G37*
G36*
X280124Y102663D02*
X278918D01*
X278821Y102635D01*
X278738Y102621D01*
X278682Y102593D01*
X278627Y102566D01*
X278599Y102552D01*
X278571Y102524D01*
X278529Y102469D01*
X278488Y102399D01*
X278446Y102261D01*
X278432Y102191D01*
Y102136D01*
Y102094D01*
Y102080D01*
Y99029D01*
Y98918D01*
X278460Y98821D01*
X278474Y98738D01*
X278502Y98682D01*
X278529Y98627D01*
X278543Y98599D01*
X278571Y98585D01*
Y98572D01*
X278627Y98530D01*
X278696Y98502D01*
X278848Y98461D01*
X278918D01*
X278973Y98447D01*
X280110D01*
X280180Y98461D01*
X280208Y98502D01*
X280222Y98544D01*
Y98558D01*
Y102552D01*
X280208Y102621D01*
X280166Y102649D01*
X280124Y102663D01*
D02*
G37*
G36*
X270888D02*
X269681D01*
X269584Y102635D01*
X269501Y102621D01*
X269446Y102593D01*
X269390Y102566D01*
X269363Y102552D01*
X269335Y102524D01*
X269293Y102469D01*
X269252Y102399D01*
X269210Y102261D01*
X269196Y102191D01*
Y102136D01*
Y102094D01*
Y102080D01*
Y99029D01*
Y98918D01*
X269224Y98821D01*
X269238Y98738D01*
X269265Y98682D01*
X269293Y98627D01*
X269307Y98599D01*
X269335Y98585D01*
Y98572D01*
X269390Y98530D01*
X269460Y98502D01*
X269612Y98461D01*
X269681D01*
X269737Y98447D01*
X270874D01*
X270944Y98461D01*
X270971Y98502D01*
X270985Y98544D01*
Y98558D01*
Y102552D01*
X270971Y102621D01*
X270930Y102649D01*
X270888Y102663D01*
D02*
G37*
G36*
X265368D02*
X264273D01*
X264176Y102635D01*
X264093Y102621D01*
X264023Y102593D01*
X263982Y102566D01*
X263940Y102552D01*
X263912Y102524D01*
X263857Y102469D01*
X263829Y102399D01*
X263773Y102247D01*
Y102191D01*
X263760Y102136D01*
Y102094D01*
Y102080D01*
Y101304D01*
Y101193D01*
X263787Y101110D01*
X263801Y101026D01*
X263829Y100971D01*
X263857Y100915D01*
X263885Y100888D01*
X263898Y100874D01*
X263912Y100860D01*
X263982Y100818D01*
X264051Y100791D01*
X264203Y100749D01*
X264273D01*
X264328Y100735D01*
X265354D01*
X265424Y100749D01*
X265452Y100791D01*
X265466Y100832D01*
Y100846D01*
Y102552D01*
X265452Y102621D01*
X265410Y102649D01*
X265368Y102663D01*
D02*
G37*
G36*
X527032Y77136D02*
Y74057D01*
X528641D01*
X527032Y77136D01*
D02*
G37*
G36*
X387060Y22136D02*
Y19057D01*
X388669D01*
X387060Y22136D01*
D02*
G37*
%LPD*%
D39*
X256750Y150500D02*
G03*
X256750Y150500I-1250J0D01*
G01*
X876250Y132500D02*
G03*
X876250Y132500I-1250J0D01*
G01*
X305750Y44500D02*
G03*
X305750Y44500I-1250J0D01*
G01*
X185750Y4500D02*
G03*
X185750Y4500I-1250J0D01*
G01*
D40*
X250000Y80000D02*
Y127500D01*
X190000Y93750D02*
Y140000D01*
X209000Y80000D02*
X250000D01*
X190000Y140000D02*
X231000D01*
X890000Y17500D02*
X940000D01*
X880000Y87500D02*
Y107500D01*
X890000Y140000D02*
X940000D01*
X950000Y87500D02*
Y107500D01*
X492100Y50200D02*
X517500D01*
Y100200D01*
X492100D02*
X517500D01*
X492100Y50200D02*
Y100200D01*
X434200Y141900D02*
X484200D01*
Y116500D02*
Y141900D01*
X434200Y116500D02*
X484200D01*
X434200D02*
Y141900D01*
X434800Y17100D02*
X484800D01*
X434800D02*
Y42500D01*
X484800D01*
Y17100D02*
Y42500D01*
X478750Y71000D02*
Y79000D01*
X461250Y71000D02*
Y79000D01*
X453750Y71000D02*
Y79000D01*
X436250Y71000D02*
Y79000D01*
X423750Y71000D02*
Y79000D01*
X406250Y71000D02*
Y79000D01*
X351000Y11000D02*
X357250D01*
X350750Y37000D02*
X357000D01*
X351000Y111000D02*
X357250D01*
X350750Y137000D02*
X357000D01*
X316500Y49500D02*
X353500D01*
X316500Y100500D02*
X353500D01*
X293500Y124000D02*
Y127000D01*
X306500Y124000D02*
Y127000D01*
X273500Y123500D02*
Y126500D01*
X286500Y123500D02*
Y126500D01*
X283000Y52000D02*
Y58250D01*
X257000Y51750D02*
Y58000D01*
X209000Y15000D02*
X250000D01*
X190000Y75000D02*
X231000D01*
X250000Y15000D02*
Y61250D01*
X190000Y27500D02*
Y75000D01*
X52295Y128940D02*
X156435D01*
X52295Y20990D02*
Y128940D01*
Y20990D02*
X156435D01*
Y67950D01*
Y32050D02*
Y128940D01*
M02*
