G04*
G04 #@! TF.GenerationSoftware,Altium Limited,Altium Designer,23.0.1 (38)*
G04*
G04 Layer_Color=65535*
%FSLAX44Y44*%
%MOMM*%
G71*
G04*
G04 #@! TF.SameCoordinates,5FDB3813-EBBD-42B4-A80F-D19D9E75F149*
G04*
G04*
G04 #@! TF.FilePolarity,Positive*
G04*
G01*
G75*
%ADD10C,0.1000*%
G36*
X1561290Y106201D02*
X1561456Y106174D01*
X1561664Y106118D01*
X1561858Y106049D01*
X1562052Y105938D01*
X1562233Y105799D01*
X1562247Y105785D01*
X1562302Y105716D01*
X1562371Y105633D01*
X1562455Y105494D01*
X1562524Y105328D01*
X1562593Y105120D01*
X1562649Y104884D01*
X1562663Y104607D01*
Y101445D01*
Y101431D01*
Y101417D01*
Y101375D01*
Y101320D01*
X1562635Y101181D01*
X1562607Y101001D01*
X1562552Y100807D01*
X1562482Y100612D01*
X1562371Y100418D01*
X1562233Y100238D01*
X1562219Y100224D01*
X1562149Y100169D01*
X1562052Y100113D01*
X1561914Y100030D01*
X1561747Y99961D01*
X1561539Y99891D01*
X1561290Y99836D01*
X1561012Y99822D01*
X1559944D01*
X1559889Y99836D01*
X1559750Y99850D01*
X1559570Y99878D01*
X1559376Y99919D01*
X1559182Y100002D01*
X1558987Y100099D01*
X1558807Y100238D01*
X1558793Y100252D01*
X1558738Y100321D01*
X1558669Y100418D01*
X1558599Y100543D01*
X1558516Y100710D01*
X1558447Y100918D01*
X1558391Y101167D01*
X1558377Y101445D01*
Y104607D01*
Y104621D01*
Y104648D01*
Y104676D01*
X1558391Y104731D01*
X1558405Y104884D01*
X1558433Y105050D01*
X1558488Y105245D01*
X1558557Y105453D01*
X1558669Y105647D01*
X1558807Y105813D01*
X1558821Y105827D01*
X1558890Y105883D01*
X1558987Y105952D01*
X1559126Y106021D01*
X1559292Y106104D01*
X1559501Y106160D01*
X1559736Y106215D01*
X1560014Y106229D01*
X1561137D01*
X1561290Y106201D01*
D02*
G37*
G36*
X1557101D02*
X1557129Y106174D01*
X1557171Y106146D01*
X1557184Y106090D01*
X1557198Y106021D01*
Y100030D01*
Y100016D01*
Y99961D01*
X1557184Y99905D01*
X1557157Y99864D01*
X1557143D01*
X1557129Y99850D01*
X1557074Y99836D01*
X1557004Y99822D01*
X1556117D01*
X1556047Y99850D01*
X1556006Y99878D01*
X1555964Y99905D01*
X1555950Y99961D01*
X1555936Y100030D01*
Y104884D01*
X1554952Y104329D01*
X1554938D01*
X1554924Y104315D01*
X1554813D01*
X1554771Y104343D01*
X1554758Y104385D01*
X1554744Y104454D01*
Y105272D01*
Y105286D01*
Y105300D01*
X1554758Y105369D01*
X1554813Y105453D01*
X1554841Y105494D01*
X1554896Y105522D01*
X1555798Y106090D01*
X1555812D01*
X1555839Y106118D01*
X1555881Y106132D01*
X1555936Y106160D01*
X1556061Y106201D01*
X1556186Y106229D01*
X1557018D01*
X1557101Y106201D01*
D02*
G37*
G36*
X1552580D02*
X1552760Y106174D01*
X1552955Y106118D01*
X1553149Y106049D01*
X1553343Y105938D01*
X1553523Y105799D01*
X1553537Y105785D01*
X1553593Y105716D01*
X1553662Y105633D01*
X1553745Y105494D01*
X1553828Y105328D01*
X1553898Y105120D01*
X1553953Y104884D01*
X1553967Y104607D01*
Y101445D01*
Y101431D01*
Y101417D01*
Y101375D01*
Y101320D01*
X1553939Y101181D01*
X1553912Y101001D01*
X1553856Y100807D01*
X1553787Y100612D01*
X1553676Y100418D01*
X1553523Y100238D01*
X1553509Y100224D01*
X1553440Y100169D01*
X1553343Y100113D01*
X1553218Y100030D01*
X1553038Y99961D01*
X1552830Y99891D01*
X1552594Y99836D01*
X1552317Y99822D01*
X1549820D01*
X1549751Y99850D01*
X1549709Y99878D01*
X1549668Y99905D01*
X1549654Y99961D01*
X1549640Y100030D01*
Y106021D01*
Y106035D01*
Y106049D01*
X1549668Y106132D01*
X1549696Y106160D01*
X1549723Y106201D01*
X1549779Y106215D01*
X1549848Y106229D01*
X1552442D01*
X1552580Y106201D01*
D02*
G37*
G36*
X1387416D02*
X1387583Y106174D01*
X1387791Y106132D01*
X1387985Y106049D01*
X1388179Y105952D01*
X1388359Y105813D01*
X1388373Y105799D01*
X1388429Y105730D01*
X1388498Y105647D01*
X1388581Y105508D01*
X1388651Y105342D01*
X1388720Y105134D01*
X1388775Y104884D01*
X1388789Y104607D01*
Y101445D01*
Y101431D01*
Y101417D01*
Y101375D01*
Y101320D01*
X1388761Y101167D01*
X1388734Y101001D01*
X1388678Y100807D01*
X1388609Y100599D01*
X1388498Y100405D01*
X1388359Y100238D01*
X1388345Y100224D01*
X1388276Y100169D01*
X1388179Y100113D01*
X1388040Y100030D01*
X1387874Y99961D01*
X1387666Y99891D01*
X1387416Y99836D01*
X1387139Y99822D01*
X1385003D01*
X1384920Y99850D01*
X1384878Y99878D01*
X1384851Y99905D01*
X1384823Y99961D01*
X1384809Y100030D01*
Y100710D01*
Y100723D01*
Y100737D01*
X1384837Y100821D01*
X1384864Y100848D01*
X1384906Y100890D01*
X1384962Y100904D01*
X1385031Y100918D01*
X1386986D01*
X1387042Y100932D01*
X1387111D01*
X1387250Y100973D01*
X1387319Y101001D01*
X1387375Y101042D01*
Y101056D01*
X1387402Y101070D01*
X1387416Y101098D01*
X1387444Y101153D01*
X1387472Y101209D01*
X1387486Y101292D01*
X1387513Y101389D01*
Y101500D01*
Y102096D01*
X1386085D01*
X1386029Y102110D01*
X1385877Y102124D01*
X1385710Y102152D01*
X1385502Y102193D01*
X1385308Y102277D01*
X1385114Y102374D01*
X1384934Y102513D01*
X1384920Y102526D01*
X1384864Y102596D01*
X1384795Y102693D01*
X1384726Y102831D01*
X1384642Y102998D01*
X1384573Y103206D01*
X1384518Y103442D01*
X1384504Y103719D01*
Y104607D01*
Y104621D01*
Y104648D01*
Y104676D01*
X1384518Y104731D01*
X1384532Y104884D01*
X1384559Y105050D01*
X1384615Y105245D01*
X1384684Y105453D01*
X1384795Y105647D01*
X1384934Y105813D01*
X1384948Y105827D01*
X1385017Y105883D01*
X1385114Y105952D01*
X1385253Y106021D01*
X1385419Y106104D01*
X1385627Y106160D01*
X1385877Y106215D01*
X1386154Y106229D01*
X1387264D01*
X1387416Y106201D01*
D02*
G37*
G36*
X1382146D02*
X1382327Y106174D01*
X1382521Y106118D01*
X1382715Y106049D01*
X1382909Y105938D01*
X1383089Y105799D01*
X1383103Y105785D01*
X1383159Y105716D01*
X1383228Y105633D01*
X1383311Y105494D01*
X1383394Y105328D01*
X1383464Y105120D01*
X1383519Y104884D01*
X1383533Y104607D01*
Y101445D01*
Y101431D01*
Y101417D01*
Y101375D01*
Y101320D01*
X1383505Y101181D01*
X1383478Y101001D01*
X1383422Y100807D01*
X1383353Y100612D01*
X1383242Y100418D01*
X1383089Y100238D01*
X1383075Y100224D01*
X1383006Y100169D01*
X1382909Y100113D01*
X1382784Y100030D01*
X1382604Y99961D01*
X1382396Y99891D01*
X1382160Y99836D01*
X1381883Y99822D01*
X1379386D01*
X1379317Y99850D01*
X1379276Y99878D01*
X1379234Y99905D01*
X1379220Y99961D01*
X1379206Y100030D01*
Y106021D01*
Y106035D01*
Y106049D01*
X1379234Y106132D01*
X1379262Y106160D01*
X1379289Y106201D01*
X1379345Y106215D01*
X1379414Y106229D01*
X1382007D01*
X1382146Y106201D01*
D02*
G37*
G36*
X1217162Y106215D02*
X1217329Y106188D01*
X1217523Y106132D01*
X1217731Y106063D01*
X1217925Y105966D01*
X1218092Y105841D01*
X1218106Y105827D01*
X1218161Y105772D01*
X1218230Y105674D01*
X1218314Y105550D01*
X1218383Y105383D01*
X1218452Y105189D01*
X1218508Y104953D01*
X1218522Y104690D01*
Y104260D01*
Y104246D01*
Y104177D01*
X1218508Y104094D01*
X1218494Y103982D01*
X1218480Y103858D01*
X1218452Y103719D01*
X1218397Y103580D01*
X1218341Y103455D01*
X1218327Y103442D01*
X1218314Y103400D01*
X1218272Y103345D01*
X1218216Y103289D01*
X1218064Y103150D01*
X1217981Y103081D01*
X1217870Y103040D01*
X1217884D01*
X1217897Y103026D01*
X1217967Y102984D01*
X1218078Y102901D01*
X1218203Y102790D01*
X1218314Y102623D01*
X1218425Y102415D01*
X1218466Y102291D01*
X1218494Y102152D01*
X1218522Y101986D01*
Y101819D01*
Y101375D01*
Y101361D01*
Y101348D01*
Y101306D01*
Y101250D01*
X1218494Y101112D01*
X1218466Y100945D01*
X1218411Y100751D01*
X1218341Y100557D01*
X1218230Y100377D01*
X1218092Y100210D01*
X1218078Y100196D01*
X1218008Y100155D01*
X1217925Y100085D01*
X1217787Y100016D01*
X1217620Y99947D01*
X1217412Y99878D01*
X1217162Y99836D01*
X1216885Y99822D01*
X1215693D01*
X1215540Y99850D01*
X1215374Y99878D01*
X1215165Y99919D01*
X1214971Y99988D01*
X1214777Y100085D01*
X1214597Y100210D01*
X1214583Y100224D01*
X1214528Y100280D01*
X1214472Y100377D01*
X1214389Y100502D01*
X1214320Y100668D01*
X1214250Y100862D01*
X1214195Y101098D01*
X1214181Y101375D01*
Y101833D01*
Y101847D01*
Y101875D01*
Y101916D01*
X1214195Y101986D01*
X1214222Y102138D01*
X1214264Y102332D01*
X1214347Y102526D01*
X1214458Y102734D01*
X1214625Y102901D01*
X1214722Y102984D01*
X1214833Y103040D01*
X1214805Y103053D01*
X1214735Y103095D01*
X1214625Y103178D01*
X1214514Y103303D01*
X1214389Y103455D01*
X1214278Y103677D01*
X1214236Y103802D01*
X1214209Y103941D01*
X1214195Y104094D01*
X1214181Y104260D01*
Y104690D01*
Y104704D01*
Y104718D01*
Y104759D01*
X1214195Y104815D01*
X1214209Y104953D01*
X1214236Y105120D01*
X1214278Y105300D01*
X1214361Y105494D01*
X1214458Y105674D01*
X1214597Y105841D01*
X1214611Y105855D01*
X1214680Y105896D01*
X1214777Y105966D01*
X1214916Y106035D01*
X1215082Y106104D01*
X1215290Y106174D01*
X1215540Y106215D01*
X1215817Y106229D01*
X1217010D01*
X1217162Y106215D01*
D02*
G37*
G36*
X1211712Y106201D02*
X1211892Y106174D01*
X1212087Y106118D01*
X1212281Y106049D01*
X1212475Y105938D01*
X1212655Y105799D01*
X1212669Y105785D01*
X1212725Y105716D01*
X1212794Y105633D01*
X1212877Y105494D01*
X1212960Y105328D01*
X1213030Y105120D01*
X1213085Y104884D01*
X1213099Y104607D01*
Y101445D01*
Y101431D01*
Y101417D01*
Y101375D01*
Y101320D01*
X1213071Y101181D01*
X1213044Y101001D01*
X1212988Y100807D01*
X1212919Y100612D01*
X1212808Y100418D01*
X1212655Y100238D01*
X1212641Y100224D01*
X1212572Y100169D01*
X1212475Y100113D01*
X1212350Y100030D01*
X1212170Y99961D01*
X1211962Y99891D01*
X1211726Y99836D01*
X1211449Y99822D01*
X1208952D01*
X1208883Y99850D01*
X1208841Y99878D01*
X1208800Y99905D01*
X1208786Y99961D01*
X1208772Y100030D01*
Y106021D01*
Y106035D01*
Y106049D01*
X1208800Y106132D01*
X1208828Y106160D01*
X1208855Y106201D01*
X1208911Y106215D01*
X1208980Y106229D01*
X1211573D01*
X1211712Y106201D01*
D02*
G37*
G36*
X1047214D02*
X1047242Y106174D01*
X1047283Y106146D01*
X1047297Y106090D01*
X1047311Y106021D01*
Y105189D01*
Y105175D01*
Y105147D01*
Y105106D01*
X1047297Y105050D01*
X1047283Y104967D01*
X1047255Y104870D01*
X1047172Y104648D01*
X1045245Y100002D01*
Y99988D01*
X1045231Y99975D01*
X1045175Y99919D01*
X1045120Y99878D01*
X1045064Y99850D01*
X1044995Y99836D01*
X1044898Y99822D01*
X1043913D01*
X1043872Y99836D01*
X1043830Y99864D01*
Y99878D01*
Y99905D01*
Y99961D01*
X1043858Y100030D01*
X1045966Y105078D01*
X1043580D01*
X1043511Y105106D01*
X1043469Y105134D01*
X1043428Y105161D01*
X1043414Y105217D01*
X1043400Y105286D01*
Y106021D01*
Y106035D01*
Y106049D01*
X1043428Y106132D01*
X1043456Y106160D01*
X1043483Y106201D01*
X1043539Y106215D01*
X1043608Y106229D01*
X1047131D01*
X1047214Y106201D01*
D02*
G37*
G36*
X1041278D02*
X1041459Y106174D01*
X1041653Y106118D01*
X1041847Y106049D01*
X1042041Y105938D01*
X1042221Y105799D01*
X1042235Y105785D01*
X1042291Y105716D01*
X1042360Y105633D01*
X1042443Y105494D01*
X1042526Y105328D01*
X1042596Y105120D01*
X1042651Y104884D01*
X1042665Y104607D01*
Y101445D01*
Y101431D01*
Y101417D01*
Y101375D01*
Y101320D01*
X1042637Y101181D01*
X1042610Y101001D01*
X1042554Y100807D01*
X1042485Y100612D01*
X1042374Y100418D01*
X1042221Y100238D01*
X1042207Y100224D01*
X1042138Y100169D01*
X1042041Y100113D01*
X1041916Y100030D01*
X1041736Y99961D01*
X1041528Y99891D01*
X1041292Y99836D01*
X1041015Y99822D01*
X1038518D01*
X1038449Y99850D01*
X1038408Y99878D01*
X1038366Y99905D01*
X1038352Y99961D01*
X1038338Y100030D01*
Y106021D01*
Y106035D01*
Y106049D01*
X1038366Y106132D01*
X1038394Y106160D01*
X1038421Y106201D01*
X1038477Y106215D01*
X1038546Y106229D01*
X1041140D01*
X1041278Y106201D01*
D02*
G37*
G36*
X877099D02*
X877127Y106174D01*
X877168Y106146D01*
X877182Y106090D01*
X877196Y106021D01*
Y105342D01*
Y105328D01*
Y105314D01*
X877168Y105245D01*
X877141Y105203D01*
X877113Y105161D01*
X877057Y105147D01*
X876988Y105134D01*
X875046D01*
X874977Y105120D01*
X874825Y105078D01*
X874755Y105036D01*
X874700Y104995D01*
X874672Y104967D01*
X874658Y104939D01*
X874630Y104898D01*
X874603Y104829D01*
X874589Y104759D01*
X874561Y104662D01*
Y104551D01*
Y103885D01*
X876045D01*
X876197Y103858D01*
X876364Y103830D01*
X876572Y103774D01*
X876766Y103705D01*
X876960Y103594D01*
X877141Y103455D01*
X877154Y103442D01*
X877210Y103372D01*
X877279Y103289D01*
X877362Y103150D01*
X877432Y102984D01*
X877501Y102776D01*
X877557Y102526D01*
X877570Y102249D01*
Y101445D01*
Y101431D01*
Y101417D01*
Y101375D01*
Y101320D01*
X877543Y101167D01*
X877515Y101001D01*
X877459Y100807D01*
X877390Y100599D01*
X877279Y100405D01*
X877141Y100238D01*
X877127Y100224D01*
X877057Y100169D01*
X876960Y100113D01*
X876822Y100030D01*
X876655Y99961D01*
X876447Y99891D01*
X876197Y99836D01*
X875920Y99822D01*
X874880D01*
X874825Y99836D01*
X874672Y99850D01*
X874505Y99878D01*
X874297Y99919D01*
X874103Y100002D01*
X873909Y100099D01*
X873729Y100238D01*
X873715Y100252D01*
X873660Y100321D01*
X873590Y100418D01*
X873521Y100543D01*
X873438Y100710D01*
X873368Y100918D01*
X873313Y101167D01*
X873299Y101445D01*
Y104607D01*
Y104621D01*
Y104648D01*
Y104676D01*
X873313Y104731D01*
X873327Y104884D01*
X873354Y105050D01*
X873410Y105245D01*
X873479Y105453D01*
X873590Y105647D01*
X873729Y105813D01*
X873743Y105827D01*
X873812Y105883D01*
X873909Y105952D01*
X874048Y106021D01*
X874214Y106104D01*
X874422Y106160D01*
X874672Y106215D01*
X874949Y106229D01*
X877016D01*
X877099Y106201D01*
D02*
G37*
G36*
X870844D02*
X871024Y106174D01*
X871219Y106118D01*
X871413Y106049D01*
X871607Y105938D01*
X871787Y105799D01*
X871801Y105785D01*
X871857Y105716D01*
X871926Y105633D01*
X872009Y105494D01*
X872092Y105328D01*
X872162Y105120D01*
X872217Y104884D01*
X872231Y104607D01*
Y101445D01*
Y101431D01*
Y101417D01*
Y101375D01*
Y101320D01*
X872203Y101181D01*
X872176Y101001D01*
X872120Y100807D01*
X872051Y100612D01*
X871940Y100418D01*
X871787Y100238D01*
X871773Y100224D01*
X871704Y100169D01*
X871607Y100113D01*
X871482Y100030D01*
X871302Y99961D01*
X871094Y99891D01*
X870858Y99836D01*
X870581Y99822D01*
X868084D01*
X868015Y99850D01*
X867973Y99878D01*
X867932Y99905D01*
X867918Y99961D01*
X867904Y100030D01*
Y106021D01*
Y106035D01*
Y106049D01*
X867932Y106132D01*
X867960Y106160D01*
X867987Y106201D01*
X868043Y106215D01*
X868112Y106229D01*
X870705D01*
X870844Y106201D01*
D02*
G37*
G36*
X706679D02*
X706706Y106174D01*
X706748Y106146D01*
X706762Y106090D01*
X706776Y106021D01*
Y105272D01*
Y105258D01*
Y105245D01*
X706748Y105175D01*
X706720Y105134D01*
X706693Y105092D01*
X706637Y105078D01*
X706568Y105064D01*
X704155D01*
Y103594D01*
X704169Y103622D01*
X704196Y103677D01*
X704238Y103747D01*
X704321Y103844D01*
X704432Y103941D01*
X704571Y104010D01*
X704765Y104066D01*
X704987Y104094D01*
X705486D01*
X705555Y104080D01*
X705652Y104066D01*
X705777Y104052D01*
X705902Y104010D01*
X706041Y103969D01*
X706193Y103899D01*
X706332Y103816D01*
X706471Y103719D01*
X706596Y103594D01*
X706720Y103442D01*
X706817Y103261D01*
X706887Y103053D01*
X706942Y102818D01*
X706956Y102540D01*
Y101445D01*
Y101431D01*
Y101417D01*
Y101375D01*
Y101320D01*
X706928Y101181D01*
X706901Y101001D01*
X706845Y100807D01*
X706776Y100612D01*
X706665Y100418D01*
X706526Y100238D01*
X706512Y100224D01*
X706443Y100169D01*
X706346Y100113D01*
X706221Y100030D01*
X706041Y99961D01*
X705833Y99891D01*
X705597Y99836D01*
X705320Y99822D01*
X704377D01*
X704321Y99836D01*
X704169Y99850D01*
X704002Y99878D01*
X703794Y99919D01*
X703600Y100002D01*
X703406Y100099D01*
X703225Y100238D01*
X703212Y100252D01*
X703156Y100321D01*
X703087Y100418D01*
X703018Y100543D01*
X702934Y100710D01*
X702865Y100918D01*
X702810Y101167D01*
X702796Y101445D01*
Y101639D01*
Y101653D01*
Y101680D01*
X702823Y101750D01*
X702851Y101791D01*
X702879Y101833D01*
X702934Y101847D01*
X703004Y101861D01*
X703877D01*
X703960Y101833D01*
X703988Y101805D01*
X704030Y101764D01*
X704044Y101708D01*
X704058Y101639D01*
Y101459D01*
Y101445D01*
Y101403D01*
X704072Y101348D01*
Y101278D01*
X704113Y101126D01*
X704155Y101056D01*
X704196Y101001D01*
X704224Y100987D01*
X704252Y100959D01*
X704307Y100945D01*
X704363Y100918D01*
X704446Y100890D01*
X704529Y100876D01*
X705167D01*
X705223Y100890D01*
X705292D01*
X705444Y100932D01*
X705514Y100959D01*
X705583Y101001D01*
X705597Y101015D01*
X705611Y101029D01*
X705639Y101056D01*
X705666Y101112D01*
X705694Y101167D01*
X705708Y101250D01*
X705736Y101348D01*
Y101459D01*
Y102346D01*
Y102360D01*
Y102415D01*
X705722Y102485D01*
Y102582D01*
X705666Y102776D01*
X705639Y102859D01*
X705583Y102928D01*
Y102942D01*
X705555Y102956D01*
X705514Y102984D01*
X705472Y103012D01*
X705403Y103040D01*
X705306Y103053D01*
X705195Y103081D01*
X704557D01*
X704515Y103067D01*
X704460Y103053D01*
X704390Y103026D01*
X704335Y102998D01*
X704266Y102942D01*
X704210Y102873D01*
Y102859D01*
X704182Y102845D01*
X704127Y102776D01*
X704030Y102693D01*
X703974Y102679D01*
X703919Y102665D01*
X703073D01*
X702990Y102693D01*
X702920Y102748D01*
X702893Y102790D01*
X702879Y102859D01*
Y106021D01*
Y106035D01*
Y106049D01*
X702906Y106132D01*
X702934Y106160D01*
X702976Y106201D01*
X703031Y106215D01*
X703101Y106229D01*
X706596D01*
X706679Y106201D01*
D02*
G37*
G36*
X700410D02*
X700591Y106174D01*
X700785Y106118D01*
X700979Y106049D01*
X701173Y105938D01*
X701353Y105799D01*
X701367Y105785D01*
X701423Y105716D01*
X701492Y105633D01*
X701575Y105494D01*
X701658Y105328D01*
X701728Y105120D01*
X701783Y104884D01*
X701797Y104607D01*
Y101445D01*
Y101431D01*
Y101417D01*
Y101375D01*
Y101320D01*
X701769Y101181D01*
X701742Y101001D01*
X701686Y100807D01*
X701617Y100612D01*
X701506Y100418D01*
X701353Y100238D01*
X701339Y100224D01*
X701270Y100169D01*
X701173Y100113D01*
X701048Y100030D01*
X700868Y99961D01*
X700660Y99891D01*
X700424Y99836D01*
X700147Y99822D01*
X697650D01*
X697581Y99850D01*
X697540Y99878D01*
X697498Y99905D01*
X697484Y99961D01*
X697470Y100030D01*
Y106021D01*
Y106035D01*
Y106049D01*
X697498Y106132D01*
X697526Y106160D01*
X697553Y106201D01*
X697609Y106215D01*
X697678Y106229D01*
X700272D01*
X700410Y106201D01*
D02*
G37*
G36*
X535995Y106215D02*
X536078Y106188D01*
X536161Y106132D01*
X536175Y106118D01*
X536217Y106063D01*
X536259Y105980D01*
X536273Y105869D01*
Y102083D01*
X537021D01*
X537091Y102055D01*
X537160Y101999D01*
X537174Y101958D01*
X537188Y101888D01*
Y101209D01*
Y101195D01*
Y101181D01*
X537160Y101098D01*
X537105Y101029D01*
X537063Y101001D01*
X536994Y100987D01*
X536273D01*
Y100030D01*
Y100016D01*
Y99961D01*
X536259Y99905D01*
X536231Y99864D01*
X536217D01*
X536203Y99850D01*
X536148Y99836D01*
X536078Y99822D01*
X535274D01*
X535191Y99850D01*
X535149Y99878D01*
X535121Y99905D01*
X535094Y99961D01*
X535080Y100030D01*
Y100987D01*
X532584D01*
X532514Y101001D01*
X532431Y101029D01*
X532334Y101084D01*
X532320Y101098D01*
X532292Y101153D01*
X532251Y101237D01*
X532237Y101348D01*
Y101736D01*
Y101750D01*
Y101791D01*
Y101847D01*
X532251Y101916D01*
X532278Y102083D01*
X532334Y102235D01*
X534331Y105924D01*
Y105938D01*
X534345Y105952D01*
X534386Y106021D01*
X534442Y106104D01*
X534511Y106160D01*
X534525Y106174D01*
X534580Y106201D01*
X534650Y106215D01*
X534761Y106229D01*
X535926D01*
X535995Y106215D01*
D02*
G37*
G36*
X529976Y106201D02*
X530157Y106174D01*
X530351Y106118D01*
X530545Y106049D01*
X530739Y105938D01*
X530919Y105799D01*
X530933Y105785D01*
X530989Y105716D01*
X531058Y105633D01*
X531141Y105494D01*
X531224Y105328D01*
X531294Y105120D01*
X531349Y104884D01*
X531363Y104607D01*
Y101445D01*
Y101431D01*
Y101417D01*
Y101375D01*
Y101320D01*
X531335Y101181D01*
X531308Y101001D01*
X531252Y100807D01*
X531183Y100612D01*
X531072Y100418D01*
X530919Y100238D01*
X530905Y100224D01*
X530836Y100169D01*
X530739Y100113D01*
X530614Y100030D01*
X530434Y99961D01*
X530226Y99891D01*
X529990Y99836D01*
X529713Y99822D01*
X527216D01*
X527147Y99850D01*
X527105Y99878D01*
X527064Y99905D01*
X527050Y99961D01*
X527036Y100030D01*
Y106021D01*
Y106035D01*
Y106049D01*
X527064Y106132D01*
X527092Y106160D01*
X527119Y106201D01*
X527175Y106215D01*
X527244Y106229D01*
X529837D01*
X529976Y106201D01*
D02*
G37*
G36*
X364660D02*
X364826Y106174D01*
X365034Y106132D01*
X365228Y106049D01*
X365422Y105952D01*
X365603Y105813D01*
X365617Y105799D01*
X365672Y105730D01*
X365741Y105647D01*
X365825Y105508D01*
X365894Y105342D01*
X365963Y105134D01*
X366019Y104898D01*
X366033Y104621D01*
Y104121D01*
Y104107D01*
Y104080D01*
Y104038D01*
X366019Y103982D01*
X365991Y103844D01*
X365936Y103664D01*
X365839Y103483D01*
X365783Y103386D01*
X365700Y103303D01*
X365603Y103220D01*
X365506Y103150D01*
X365381Y103081D01*
X365242Y103026D01*
X365256D01*
X365270Y103012D01*
X365312Y102998D01*
X365367Y102984D01*
X365492Y102928D01*
X365644Y102831D01*
X365783Y102693D01*
X365852Y102596D01*
X365908Y102499D01*
X365963Y102388D01*
X366005Y102249D01*
X366019Y102110D01*
X366033Y101944D01*
Y101431D01*
Y101417D01*
Y101403D01*
Y101361D01*
Y101306D01*
X366005Y101167D01*
X365977Y100987D01*
X365922Y100793D01*
X365852Y100599D01*
X365741Y100405D01*
X365603Y100238D01*
X365589Y100224D01*
X365519Y100169D01*
X365422Y100113D01*
X365284Y100030D01*
X365117Y99961D01*
X364909Y99891D01*
X364660Y99836D01*
X364382Y99822D01*
X363425D01*
X363370Y99836D01*
X363217Y99850D01*
X363051Y99878D01*
X362843Y99919D01*
X362649Y100002D01*
X362455Y100099D01*
X362274Y100238D01*
X362260Y100252D01*
X362205Y100321D01*
X362136Y100405D01*
X362066Y100543D01*
X361983Y100710D01*
X361914Y100918D01*
X361858Y101153D01*
X361844Y101431D01*
Y101708D01*
Y101722D01*
Y101750D01*
X361872Y101819D01*
X361900Y101861D01*
X361928Y101902D01*
X361983Y101916D01*
X362052Y101930D01*
X362940D01*
X363009Y101902D01*
X363051Y101875D01*
X363092Y101833D01*
X363106Y101777D01*
X363120Y101708D01*
Y101459D01*
Y101445D01*
Y101403D01*
X363134Y101348D01*
Y101278D01*
X363176Y101126D01*
X363204Y101056D01*
X363245Y101001D01*
X363273Y100987D01*
X363301Y100959D01*
X363342Y100945D01*
X363411Y100918D01*
X363481Y100890D01*
X363578Y100876D01*
X364230D01*
X364285Y100890D01*
X364355D01*
X364521Y100932D01*
X364590Y100959D01*
X364646Y101001D01*
X364660Y101015D01*
X364674Y101029D01*
X364701Y101056D01*
X364729Y101112D01*
X364757Y101167D01*
X364771Y101250D01*
X364798Y101348D01*
Y101459D01*
Y101944D01*
Y101958D01*
Y101999D01*
X364785Y102055D01*
Y102110D01*
X364729Y102263D01*
X364701Y102332D01*
X364646Y102388D01*
X364618Y102415D01*
X364590Y102429D01*
X364535Y102457D01*
X364465Y102485D01*
X364382Y102499D01*
X364285Y102526D01*
X363633D01*
X363564Y102554D01*
X363522Y102582D01*
X363481Y102610D01*
X363467Y102665D01*
X363453Y102734D01*
Y103331D01*
Y103345D01*
Y103372D01*
X363481Y103442D01*
X363509Y103483D01*
X363536Y103525D01*
X363592Y103539D01*
X363661Y103553D01*
X364230D01*
X364285Y103567D01*
X364355D01*
X364521Y103608D01*
X364590Y103636D01*
X364646Y103677D01*
X364660Y103691D01*
X364674Y103705D01*
X364701Y103733D01*
X364729Y103788D01*
X364757Y103844D01*
X364771Y103927D01*
X364798Y104024D01*
Y104135D01*
Y104593D01*
Y104607D01*
Y104648D01*
X364785Y104704D01*
Y104773D01*
X364729Y104912D01*
X364701Y104981D01*
X364646Y105036D01*
X364618Y105064D01*
X364590Y105078D01*
X364535Y105106D01*
X364465Y105134D01*
X364382Y105147D01*
X364285Y105175D01*
X363578D01*
X363509Y105161D01*
X363370Y105120D01*
X363301Y105078D01*
X363245Y105036D01*
X363231Y105009D01*
X363204Y104981D01*
X363190Y104939D01*
X363162Y104870D01*
X363134Y104801D01*
X363120Y104704D01*
Y104593D01*
Y104343D01*
Y104329D01*
Y104315D01*
X363092Y104246D01*
X363065Y104204D01*
X363023Y104163D01*
X362968Y104149D01*
X362898Y104135D01*
X362025D01*
X361955Y104163D01*
X361914Y104191D01*
X361872Y104218D01*
X361858Y104274D01*
X361844Y104343D01*
Y104621D01*
Y104634D01*
Y104648D01*
Y104690D01*
X361858Y104745D01*
X361872Y104884D01*
X361900Y105064D01*
X361955Y105258D01*
X362025Y105453D01*
X362136Y105647D01*
X362274Y105813D01*
X362288Y105827D01*
X362357Y105883D01*
X362455Y105952D01*
X362593Y106021D01*
X362760Y106104D01*
X362968Y106160D01*
X363217Y106215D01*
X363495Y106229D01*
X364507D01*
X364660Y106201D01*
D02*
G37*
G36*
X359542D02*
X359723Y106174D01*
X359917Y106118D01*
X360111Y106049D01*
X360305Y105938D01*
X360485Y105799D01*
X360499Y105785D01*
X360555Y105716D01*
X360624Y105633D01*
X360707Y105494D01*
X360790Y105328D01*
X360860Y105120D01*
X360915Y104884D01*
X360929Y104607D01*
Y101445D01*
Y101431D01*
Y101417D01*
Y101375D01*
Y101320D01*
X360901Y101181D01*
X360874Y101001D01*
X360818Y100807D01*
X360749Y100612D01*
X360638Y100418D01*
X360485Y100238D01*
X360471Y100224D01*
X360402Y100169D01*
X360305Y100113D01*
X360180Y100030D01*
X360000Y99961D01*
X359792Y99891D01*
X359556Y99836D01*
X359279Y99822D01*
X356782D01*
X356713Y99850D01*
X356671Y99878D01*
X356630Y99905D01*
X356616Y99961D01*
X356602Y100030D01*
Y106021D01*
Y106035D01*
Y106049D01*
X356630Y106132D01*
X356658Y106160D01*
X356685Y106201D01*
X356741Y106215D01*
X356810Y106229D01*
X359403D01*
X359542Y106201D01*
D02*
G37*
G36*
X194156D02*
X194323Y106174D01*
X194531Y106132D01*
X194725Y106049D01*
X194919Y105952D01*
X195099Y105813D01*
X195113Y105799D01*
X195169Y105730D01*
X195238Y105647D01*
X195321Y105508D01*
X195391Y105342D01*
X195460Y105134D01*
X195515Y104898D01*
X195529Y104621D01*
Y104218D01*
Y104204D01*
Y104191D01*
Y104149D01*
X195515Y104094D01*
X195502Y103941D01*
X195460Y103761D01*
X195391Y103567D01*
X195280Y103345D01*
X195127Y103137D01*
X195044Y103026D01*
X194933Y102928D01*
X193047Y101334D01*
X193033Y101320D01*
X192991Y101264D01*
X192950Y101181D01*
X192936Y101098D01*
Y100932D01*
X195349D01*
X195432Y100904D01*
X195460Y100876D01*
X195502Y100848D01*
X195515Y100793D01*
X195529Y100723D01*
Y100030D01*
Y100016D01*
Y100002D01*
X195502Y99933D01*
X195474Y99891D01*
X195446Y99850D01*
X195391Y99836D01*
X195321Y99822D01*
X191688D01*
X191618Y99850D01*
X191577Y99878D01*
X191535Y99905D01*
X191521Y99961D01*
X191507Y100030D01*
Y100973D01*
Y101001D01*
X191521Y101070D01*
X191535Y101181D01*
X191577Y101306D01*
X191632Y101459D01*
X191716Y101625D01*
X191840Y101791D01*
X192007Y101944D01*
X193837Y103497D01*
X193851Y103511D01*
X193907Y103567D01*
X193976Y103636D01*
X194073Y103733D01*
X194156Y103858D01*
X194226Y103996D01*
X194281Y104149D01*
X194295Y104302D01*
Y104593D01*
Y104607D01*
Y104648D01*
X194281Y104704D01*
Y104773D01*
X194226Y104912D01*
X194198Y104981D01*
X194142Y105036D01*
X194115Y105064D01*
X194087Y105078D01*
X194032Y105106D01*
X193962Y105134D01*
X193879Y105147D01*
X193782Y105175D01*
X193213D01*
X193144Y105161D01*
X192991Y105120D01*
X192922Y105078D01*
X192867Y105036D01*
X192853Y105009D01*
X192825Y104981D01*
X192811Y104939D01*
X192783Y104870D01*
X192756Y104801D01*
X192742Y104704D01*
Y104593D01*
Y104274D01*
Y104260D01*
Y104246D01*
X192714Y104177D01*
X192686Y104135D01*
X192659Y104094D01*
X192603Y104080D01*
X192534Y104066D01*
X191660D01*
X191577Y104094D01*
X191535Y104121D01*
X191507Y104149D01*
X191480Y104204D01*
X191466Y104274D01*
Y104621D01*
Y104634D01*
Y104648D01*
Y104690D01*
X191480Y104745D01*
X191494Y104884D01*
X191521Y105064D01*
X191577Y105258D01*
X191646Y105453D01*
X191757Y105647D01*
X191896Y105813D01*
X191910Y105827D01*
X191979Y105883D01*
X192076Y105952D01*
X192215Y106021D01*
X192381Y106104D01*
X192589Y106160D01*
X192839Y106215D01*
X193116Y106229D01*
X194004D01*
X194156Y106201D01*
D02*
G37*
G36*
X189108D02*
X189289Y106174D01*
X189483Y106118D01*
X189677Y106049D01*
X189871Y105938D01*
X190051Y105799D01*
X190065Y105785D01*
X190121Y105716D01*
X190190Y105633D01*
X190273Y105494D01*
X190356Y105328D01*
X190426Y105120D01*
X190481Y104884D01*
X190495Y104607D01*
Y101445D01*
Y101431D01*
Y101417D01*
Y101375D01*
Y101320D01*
X190467Y101181D01*
X190440Y101001D01*
X190384Y100807D01*
X190315Y100612D01*
X190204Y100418D01*
X190051Y100238D01*
X190037Y100224D01*
X189968Y100169D01*
X189871Y100113D01*
X189746Y100030D01*
X189566Y99961D01*
X189358Y99891D01*
X189122Y99836D01*
X188845Y99822D01*
X186348D01*
X186279Y99850D01*
X186238Y99878D01*
X186196Y99905D01*
X186182Y99961D01*
X186168Y100030D01*
Y106021D01*
Y106035D01*
Y106049D01*
X186196Y106132D01*
X186224Y106160D01*
X186251Y106201D01*
X186307Y106215D01*
X186376Y106229D01*
X188969D01*
X189108Y106201D01*
D02*
G37*
G36*
X23195D02*
X23223Y106174D01*
X23265Y106146D01*
X23279Y106090D01*
X23292Y106021D01*
Y100030D01*
Y100016D01*
Y99961D01*
X23279Y99905D01*
X23251Y99864D01*
X23237D01*
X23223Y99850D01*
X23168Y99836D01*
X23098Y99822D01*
X22211D01*
X22141Y99850D01*
X22100Y99878D01*
X22058Y99905D01*
X22044Y99961D01*
X22030Y100030D01*
Y104884D01*
X21046Y104329D01*
X21032D01*
X21018Y104315D01*
X20907D01*
X20865Y104343D01*
X20852Y104385D01*
X20838Y104454D01*
Y105272D01*
Y105286D01*
Y105300D01*
X20852Y105369D01*
X20907Y105453D01*
X20935Y105494D01*
X20990Y105522D01*
X21892Y106090D01*
X21906D01*
X21933Y106118D01*
X21975Y106132D01*
X22030Y106160D01*
X22155Y106201D01*
X22280Y106229D01*
X23112D01*
X23195Y106201D01*
D02*
G37*
G36*
X18674D02*
X18855Y106174D01*
X19049Y106118D01*
X19243Y106049D01*
X19437Y105938D01*
X19617Y105799D01*
X19631Y105785D01*
X19687Y105716D01*
X19756Y105633D01*
X19839Y105494D01*
X19922Y105328D01*
X19992Y105120D01*
X20047Y104884D01*
X20061Y104607D01*
Y101445D01*
Y101431D01*
Y101417D01*
Y101375D01*
Y101320D01*
X20033Y101181D01*
X20006Y101001D01*
X19950Y100807D01*
X19881Y100612D01*
X19770Y100418D01*
X19617Y100238D01*
X19603Y100224D01*
X19534Y100169D01*
X19437Y100113D01*
X19312Y100030D01*
X19132Y99961D01*
X18924Y99891D01*
X18688Y99836D01*
X18411Y99822D01*
X15914D01*
X15845Y99850D01*
X15804Y99878D01*
X15762Y99905D01*
X15748Y99961D01*
X15734Y100030D01*
Y106021D01*
Y106035D01*
Y106049D01*
X15762Y106132D01*
X15790Y106160D01*
X15817Y106201D01*
X15873Y106215D01*
X15942Y106229D01*
X18535D01*
X18674Y106201D01*
D02*
G37*
%LPC*%
G36*
X1560929Y105134D02*
X1560125D01*
X1560055Y105120D01*
X1559903Y105078D01*
X1559833Y105036D01*
X1559778Y104995D01*
X1559764Y104967D01*
X1559736Y104939D01*
X1559722Y104898D01*
X1559695Y104829D01*
X1559667Y104759D01*
X1559653Y104662D01*
Y104551D01*
Y101500D01*
Y101486D01*
Y101445D01*
X1559667Y101389D01*
Y101320D01*
X1559709Y101167D01*
X1559736Y101098D01*
X1559778Y101042D01*
X1559792D01*
X1559806Y101029D01*
X1559833Y101001D01*
X1559889Y100987D01*
X1559944Y100959D01*
X1560028Y100932D01*
X1560125Y100918D01*
X1560874D01*
X1560929Y100932D01*
X1560998D01*
X1561137Y100973D01*
X1561206Y101001D01*
X1561262Y101042D01*
Y101056D01*
X1561290Y101070D01*
X1561304Y101098D01*
X1561331Y101153D01*
X1561359Y101209D01*
X1561373Y101292D01*
X1561400Y101389D01*
Y101500D01*
Y104551D01*
Y104565D01*
Y104607D01*
Y104662D01*
X1561387Y104731D01*
X1561345Y104870D01*
X1561304Y104939D01*
X1561262Y104995D01*
X1561234Y105023D01*
X1561206Y105036D01*
X1561165Y105064D01*
X1561095Y105092D01*
X1561026Y105106D01*
X1560929Y105134D01*
D02*
G37*
G36*
X1552220D02*
X1551013D01*
X1550972Y105120D01*
X1550930Y105092D01*
X1550916Y105023D01*
Y101029D01*
Y101015D01*
X1550930Y100973D01*
X1550958Y100932D01*
X1551027Y100918D01*
X1552164D01*
X1552220Y100932D01*
X1552289D01*
X1552442Y100973D01*
X1552511Y101001D01*
X1552566Y101042D01*
Y101056D01*
X1552594Y101070D01*
X1552608Y101098D01*
X1552636Y101153D01*
X1552663Y101209D01*
X1552677Y101292D01*
X1552705Y101389D01*
Y101500D01*
Y104551D01*
Y104565D01*
Y104607D01*
Y104662D01*
X1552691Y104731D01*
X1552650Y104870D01*
X1552608Y104939D01*
X1552566Y104995D01*
X1552539Y105023D01*
X1552511Y105036D01*
X1552455Y105064D01*
X1552400Y105092D01*
X1552317Y105106D01*
X1552220Y105134D01*
D02*
G37*
G36*
X1387042D02*
X1386251D01*
X1386182Y105120D01*
X1386043Y105078D01*
X1385974Y105036D01*
X1385918Y104995D01*
X1385905Y104967D01*
X1385877Y104939D01*
X1385863Y104898D01*
X1385835Y104829D01*
X1385807Y104759D01*
X1385794Y104662D01*
Y104551D01*
Y103774D01*
Y103761D01*
Y103719D01*
X1385807Y103677D01*
Y103608D01*
X1385849Y103455D01*
X1385877Y103386D01*
X1385918Y103331D01*
X1385946Y103317D01*
X1385974Y103289D01*
X1386015Y103275D01*
X1386085Y103247D01*
X1386154Y103220D01*
X1386251Y103206D01*
X1387527D01*
Y104551D01*
Y104565D01*
Y104607D01*
Y104662D01*
X1387513Y104731D01*
X1387472Y104870D01*
X1387430Y104939D01*
X1387388Y104995D01*
X1387361Y105023D01*
X1387333Y105036D01*
X1387278Y105064D01*
X1387222Y105092D01*
X1387139Y105106D01*
X1387042Y105134D01*
D02*
G37*
G36*
X1381786D02*
X1380579D01*
X1380538Y105120D01*
X1380496Y105092D01*
X1380482Y105023D01*
Y101029D01*
Y101015D01*
X1380496Y100973D01*
X1380524Y100932D01*
X1380593Y100918D01*
X1381730D01*
X1381786Y100932D01*
X1381855D01*
X1382007Y100973D01*
X1382077Y101001D01*
X1382132Y101042D01*
Y101056D01*
X1382160Y101070D01*
X1382174Y101098D01*
X1382202Y101153D01*
X1382229Y101209D01*
X1382243Y101292D01*
X1382271Y101389D01*
Y101500D01*
Y104551D01*
Y104565D01*
Y104607D01*
Y104662D01*
X1382257Y104731D01*
X1382216Y104870D01*
X1382174Y104939D01*
X1382132Y104995D01*
X1382105Y105023D01*
X1382077Y105036D01*
X1382021Y105064D01*
X1381966Y105092D01*
X1381883Y105106D01*
X1381786Y105134D01*
D02*
G37*
G36*
X1216802Y105147D02*
X1215900D01*
X1215831Y105134D01*
X1215679Y105092D01*
X1215609Y105050D01*
X1215554Y105009D01*
X1215540Y104981D01*
X1215512Y104953D01*
X1215498Y104912D01*
X1215471Y104856D01*
X1215443Y104773D01*
X1215429Y104690D01*
Y104579D01*
Y104163D01*
Y104149D01*
Y104107D01*
X1215443Y104052D01*
Y103982D01*
X1215484Y103830D01*
X1215512Y103761D01*
X1215554Y103691D01*
X1215568D01*
X1215582Y103664D01*
X1215609Y103650D01*
X1215665Y103622D01*
X1215720Y103594D01*
X1215803Y103567D01*
X1215900Y103553D01*
X1216011Y103539D01*
X1216747D01*
X1216802Y103553D01*
X1216871D01*
X1217010Y103608D01*
X1217079Y103636D01*
X1217135Y103691D01*
Y103705D01*
X1217162Y103719D01*
X1217176Y103761D01*
X1217204Y103802D01*
X1217232Y103872D01*
X1217246Y103955D01*
X1217273Y104052D01*
Y104163D01*
Y104579D01*
Y104593D01*
Y104634D01*
Y104676D01*
X1217260Y104745D01*
X1217218Y104884D01*
X1217176Y104953D01*
X1217135Y105009D01*
X1217107Y105036D01*
X1217079Y105050D01*
X1217038Y105078D01*
X1216968Y105106D01*
X1216899Y105120D01*
X1216802Y105147D01*
D02*
G37*
G36*
Y102554D02*
X1215956D01*
X1215900Y102540D01*
X1215831D01*
X1215679Y102485D01*
X1215609Y102457D01*
X1215554Y102402D01*
X1215540Y102374D01*
X1215512Y102332D01*
X1215498Y102291D01*
X1215471Y102221D01*
X1215443Y102138D01*
X1215429Y102041D01*
Y101930D01*
Y101472D01*
Y101459D01*
Y101417D01*
X1215443Y101375D01*
Y101306D01*
X1215484Y101153D01*
X1215512Y101084D01*
X1215554Y101029D01*
X1215568D01*
X1215582Y101015D01*
X1215609Y100987D01*
X1215665Y100973D01*
X1215720Y100945D01*
X1215803Y100918D01*
X1215900Y100904D01*
X1216747D01*
X1216802Y100918D01*
X1216871D01*
X1217010Y100959D01*
X1217079Y100987D01*
X1217135Y101029D01*
X1217162Y101056D01*
X1217176Y101084D01*
X1217204Y101139D01*
X1217232Y101195D01*
X1217246Y101278D01*
X1217273Y101361D01*
Y101472D01*
Y101930D01*
Y101944D01*
Y101986D01*
Y102041D01*
X1217260Y102110D01*
X1217218Y102263D01*
X1217176Y102332D01*
X1217135Y102402D01*
Y102415D01*
X1217107Y102429D01*
X1217079Y102457D01*
X1217038Y102485D01*
X1216968Y102513D01*
X1216899Y102526D01*
X1216802Y102554D01*
D02*
G37*
G36*
X1211352Y105134D02*
X1210145D01*
X1210104Y105120D01*
X1210062Y105092D01*
X1210048Y105023D01*
Y101029D01*
Y101015D01*
X1210062Y100973D01*
X1210090Y100932D01*
X1210159Y100918D01*
X1211296D01*
X1211352Y100932D01*
X1211421D01*
X1211573Y100973D01*
X1211643Y101001D01*
X1211698Y101042D01*
Y101056D01*
X1211726Y101070D01*
X1211740Y101098D01*
X1211768Y101153D01*
X1211795Y101209D01*
X1211809Y101292D01*
X1211837Y101389D01*
Y101500D01*
Y104551D01*
Y104565D01*
Y104607D01*
Y104662D01*
X1211823Y104731D01*
X1211782Y104870D01*
X1211740Y104939D01*
X1211698Y104995D01*
X1211671Y105023D01*
X1211643Y105036D01*
X1211587Y105064D01*
X1211532Y105092D01*
X1211449Y105106D01*
X1211352Y105134D01*
D02*
G37*
G36*
X1040918D02*
X1039711D01*
X1039669Y105120D01*
X1039628Y105092D01*
X1039614Y105023D01*
Y101029D01*
Y101015D01*
X1039628Y100973D01*
X1039656Y100932D01*
X1039725Y100918D01*
X1040862D01*
X1040918Y100932D01*
X1040987D01*
X1041140Y100973D01*
X1041209Y101001D01*
X1041264Y101042D01*
Y101056D01*
X1041292Y101070D01*
X1041306Y101098D01*
X1041334Y101153D01*
X1041361Y101209D01*
X1041375Y101292D01*
X1041403Y101389D01*
Y101500D01*
Y104551D01*
Y104565D01*
Y104607D01*
Y104662D01*
X1041389Y104731D01*
X1041348Y104870D01*
X1041306Y104939D01*
X1041264Y104995D01*
X1041237Y105023D01*
X1041209Y105036D01*
X1041153Y105064D01*
X1041098Y105092D01*
X1041015Y105106D01*
X1040918Y105134D01*
D02*
G37*
G36*
X875823Y102776D02*
X874561D01*
Y101500D01*
Y101486D01*
Y101445D01*
X874575Y101389D01*
Y101320D01*
X874616Y101167D01*
X874644Y101098D01*
X874686Y101042D01*
X874700D01*
X874714Y101029D01*
X874741Y101001D01*
X874797Y100987D01*
X874852Y100959D01*
X874935Y100932D01*
X875033Y100918D01*
X875768D01*
X875823Y100932D01*
X875892D01*
X876045Y100973D01*
X876114Y101001D01*
X876170Y101042D01*
Y101056D01*
X876197Y101070D01*
X876211Y101098D01*
X876239Y101153D01*
X876267Y101209D01*
X876281Y101292D01*
X876308Y101389D01*
Y101500D01*
Y102193D01*
Y102207D01*
Y102249D01*
Y102304D01*
X876294Y102374D01*
X876253Y102513D01*
X876211Y102582D01*
X876170Y102637D01*
X876142Y102665D01*
X876114Y102679D01*
X876059Y102707D01*
X876003Y102734D01*
X875920Y102748D01*
X875823Y102776D01*
D02*
G37*
G36*
X870484Y105134D02*
X869277D01*
X869236Y105120D01*
X869194Y105092D01*
X869180Y105023D01*
Y101029D01*
Y101015D01*
X869194Y100973D01*
X869222Y100932D01*
X869291Y100918D01*
X870428D01*
X870484Y100932D01*
X870553D01*
X870705Y100973D01*
X870775Y101001D01*
X870830Y101042D01*
Y101056D01*
X870858Y101070D01*
X870872Y101098D01*
X870900Y101153D01*
X870927Y101209D01*
X870941Y101292D01*
X870969Y101389D01*
Y101500D01*
Y104551D01*
Y104565D01*
Y104607D01*
Y104662D01*
X870955Y104731D01*
X870914Y104870D01*
X870872Y104939D01*
X870830Y104995D01*
X870803Y105023D01*
X870775Y105036D01*
X870719Y105064D01*
X870664Y105092D01*
X870581Y105106D01*
X870484Y105134D01*
D02*
G37*
G36*
X700050D02*
X698843D01*
X698801Y105120D01*
X698760Y105092D01*
X698746Y105023D01*
Y101029D01*
Y101015D01*
X698760Y100973D01*
X698788Y100932D01*
X698857Y100918D01*
X699994D01*
X700050Y100932D01*
X700119D01*
X700272Y100973D01*
X700341Y101001D01*
X700396Y101042D01*
Y101056D01*
X700424Y101070D01*
X700438Y101098D01*
X700466Y101153D01*
X700493Y101209D01*
X700507Y101292D01*
X700535Y101389D01*
Y101500D01*
Y104551D01*
Y104565D01*
Y104607D01*
Y104662D01*
X700521Y104731D01*
X700480Y104870D01*
X700438Y104939D01*
X700396Y104995D01*
X700369Y105023D01*
X700341Y105036D01*
X700285Y105064D01*
X700230Y105092D01*
X700147Y105106D01*
X700050Y105134D01*
D02*
G37*
G36*
X535080Y105161D02*
X533471Y102083D01*
X535080D01*
Y105161D01*
D02*
G37*
G36*
X529616Y105134D02*
X528409D01*
X528368Y105120D01*
X528326Y105092D01*
X528312Y105023D01*
Y101029D01*
Y101015D01*
X528326Y100973D01*
X528354Y100932D01*
X528423Y100918D01*
X529560D01*
X529616Y100932D01*
X529685D01*
X529837Y100973D01*
X529907Y101001D01*
X529962Y101042D01*
Y101056D01*
X529990Y101070D01*
X530004Y101098D01*
X530032Y101153D01*
X530059Y101209D01*
X530073Y101292D01*
X530101Y101389D01*
Y101500D01*
Y104551D01*
Y104565D01*
Y104607D01*
Y104662D01*
X530087Y104731D01*
X530046Y104870D01*
X530004Y104939D01*
X529962Y104995D01*
X529935Y105023D01*
X529907Y105036D01*
X529851Y105064D01*
X529796Y105092D01*
X529713Y105106D01*
X529616Y105134D01*
D02*
G37*
G36*
X359182D02*
X357975D01*
X357934Y105120D01*
X357892Y105092D01*
X357878Y105023D01*
Y101029D01*
Y101015D01*
X357892Y100973D01*
X357920Y100932D01*
X357989Y100918D01*
X359126D01*
X359182Y100932D01*
X359251D01*
X359403Y100973D01*
X359473Y101001D01*
X359528Y101042D01*
Y101056D01*
X359556Y101070D01*
X359570Y101098D01*
X359598Y101153D01*
X359625Y101209D01*
X359639Y101292D01*
X359667Y101389D01*
Y101500D01*
Y104551D01*
Y104565D01*
Y104607D01*
Y104662D01*
X359653Y104731D01*
X359612Y104870D01*
X359570Y104939D01*
X359528Y104995D01*
X359501Y105023D01*
X359473Y105036D01*
X359417Y105064D01*
X359362Y105092D01*
X359279Y105106D01*
X359182Y105134D01*
D02*
G37*
G36*
X188748D02*
X187541D01*
X187500Y105120D01*
X187458Y105092D01*
X187444Y105023D01*
Y101029D01*
Y101015D01*
X187458Y100973D01*
X187486Y100932D01*
X187555Y100918D01*
X188692D01*
X188748Y100932D01*
X188817D01*
X188969Y100973D01*
X189039Y101001D01*
X189094Y101042D01*
Y101056D01*
X189122Y101070D01*
X189136Y101098D01*
X189164Y101153D01*
X189191Y101209D01*
X189205Y101292D01*
X189233Y101389D01*
Y101500D01*
Y104551D01*
Y104565D01*
Y104607D01*
Y104662D01*
X189219Y104731D01*
X189178Y104870D01*
X189136Y104939D01*
X189094Y104995D01*
X189067Y105023D01*
X189039Y105036D01*
X188983Y105064D01*
X188928Y105092D01*
X188845Y105106D01*
X188748Y105134D01*
D02*
G37*
G36*
X18314D02*
X17107D01*
X17066Y105120D01*
X17024Y105092D01*
X17010Y105023D01*
Y101029D01*
Y101015D01*
X17024Y100973D01*
X17052Y100932D01*
X17121Y100918D01*
X18258D01*
X18314Y100932D01*
X18383D01*
X18535Y100973D01*
X18605Y101001D01*
X18660Y101042D01*
Y101056D01*
X18688Y101070D01*
X18702Y101098D01*
X18730Y101153D01*
X18757Y101209D01*
X18771Y101292D01*
X18799Y101389D01*
Y101500D01*
Y104551D01*
Y104565D01*
Y104607D01*
Y104662D01*
X18785Y104731D01*
X18744Y104870D01*
X18702Y104939D01*
X18660Y104995D01*
X18633Y105023D01*
X18605Y105036D01*
X18549Y105064D01*
X18494Y105092D01*
X18411Y105106D01*
X18314Y105134D01*
D02*
G37*
%LPD*%
D10*
X1075648Y54000D02*
G03*
X1075648Y54000I-500J0D01*
G01*
X393920D02*
G03*
X393920Y54000I-500J0D01*
G01*
X1586945D02*
G03*
X1586945Y54000I-500J0D01*
G01*
X1416513D02*
G03*
X1416513Y54000I-500J0D01*
G01*
X1246081D02*
G03*
X1246081Y54000I-500J0D01*
G01*
X905216D02*
G03*
X905216Y54000I-500J0D01*
G01*
X734784D02*
G03*
X734784Y54000I-500J0D01*
G01*
X564352D02*
G03*
X564352Y54000I-500J0D01*
G01*
X223488D02*
G03*
X223488Y54000I-500J0D01*
G01*
X53056D02*
G03*
X53056Y54000I-500J0D01*
G01*
M02*
