G04*
G04 #@! TF.GenerationSoftware,Altium Limited,Altium Designer,22.11.1 (43)*
G04*
G04 Layer_Color=2752767*
%FSLAX44Y44*%
%MOMM*%
G71*
G04*
G04 #@! TF.SameCoordinates,75D7284C-96A1-4F7D-B096-18610DFFEBA5*
G04*
G04*
G04 #@! TF.FilePolarity,Positive*
G04*
G01*
G75*
%ADD69C,0.1270*%
%ADD70C,0.1693*%
D69*
X155400Y205720D02*
X157940Y208260D01*
X160480D01*
X157940Y210800D01*
X160480Y213340D01*
X157940D01*
X155400Y215880D01*
X152860Y213340D01*
X150320D01*
X152860Y210800D01*
X150320Y208260D01*
X152860D01*
X155400Y205720D01*
Y129520D02*
X157940Y132060D01*
X160480D01*
X157940Y134600D01*
X160480Y137140D01*
X157940D01*
X155400Y139680D01*
X152860Y137140D01*
X150320D01*
X152860Y134600D01*
X150320Y132060D01*
X152860D01*
X155400Y129520D01*
Y104120D02*
X157940Y106660D01*
X160480D01*
X157940Y109200D01*
X160480Y111740D01*
X157940D01*
X155400Y114280D01*
X152860Y111740D01*
X150320D01*
X152860Y109200D01*
X150320Y106660D01*
X152860D01*
X155400Y104120D01*
X104600Y205720D02*
X107140Y208260D01*
X109680D01*
X107140Y210800D01*
X109680Y213340D01*
X107140D01*
X104600Y215880D01*
X102060Y213340D01*
X99520D01*
X102060Y210800D01*
X99520Y208260D01*
X102060D01*
X104600Y205720D01*
Y129520D02*
X107140Y132060D01*
X109680D01*
X107140Y134600D01*
X109680Y137140D01*
X107140D01*
X104600Y139680D01*
X102060Y137140D01*
X99520D01*
X102060Y134600D01*
X99520Y132060D01*
X102060D01*
X104600Y129520D01*
Y104120D02*
X107140Y106660D01*
X109680D01*
X107140Y109200D01*
X109680Y111740D01*
X107140D01*
X104600Y114280D01*
X102060Y111740D01*
X99520D01*
X102060Y109200D01*
X99520Y106660D01*
X102060D01*
X104600Y104120D01*
X50000Y264120D02*
X44920Y274280D01*
X55080D01*
X50000Y264120D01*
Y314920D02*
X44920Y325080D01*
X55080D01*
X50000Y314920D01*
X24600Y289520D02*
X19520Y299680D01*
X29680D01*
X24600Y289520D01*
X50000Y374920D02*
X44920Y385080D01*
X55080D01*
X50000Y374920D01*
Y425720D02*
X44920Y435880D01*
X55080D01*
X50000Y425720D01*
X24600Y400320D02*
X19520Y410480D01*
X29680D01*
X24600Y400320D01*
X444920Y94920D02*
Y105080D01*
X455080D01*
Y94920D01*
X444920D01*
X44920D02*
Y105080D01*
X55080D01*
Y94920D01*
X44920D01*
X444920Y494920D02*
Y505080D01*
X455080D01*
Y494920D01*
X444920D01*
X44920D02*
Y505080D01*
X55080D01*
Y494920D01*
X44920D01*
X209670Y170070D02*
X212210D01*
X214750Y172610D01*
X217290Y170070D01*
X219830D01*
Y172610D01*
X217290Y175150D01*
X219830Y177690D01*
Y180230D01*
X217290D01*
X214750Y177690D01*
X212210Y180230D01*
X209670D01*
Y177690D01*
X212210Y175150D01*
X209670Y172610D01*
Y170070D01*
Y145070D02*
X212210D01*
X214750Y147610D01*
X217290Y145070D01*
X219830D01*
Y147610D01*
X217290Y150150D01*
X219830Y152690D01*
Y155230D01*
X217290D01*
X214750Y152690D01*
X212210Y155230D01*
X209670D01*
Y152690D01*
X212210Y150150D01*
X209670Y147610D01*
Y145070D01*
X234670Y170070D02*
X237210D01*
X239750Y172610D01*
X242290Y170070D01*
X244830D01*
Y172610D01*
X242290Y175150D01*
X244830Y177690D01*
Y180230D01*
X242290D01*
X239750Y177690D01*
X237210Y180230D01*
X234670D01*
Y177690D01*
X237210Y175150D01*
X234670Y172610D01*
Y170070D01*
X259670Y145070D02*
X262210D01*
X264750Y147610D01*
X267290Y145070D01*
X269830D01*
Y147610D01*
X267290Y150150D01*
X269830Y152690D01*
Y155230D01*
X267290D01*
X264750Y152690D01*
X262210Y155230D01*
X259670D01*
Y152690D01*
X262210Y150150D01*
X259670Y147610D01*
Y145070D01*
Y170070D02*
X262210D01*
X264750Y172610D01*
X267290Y170070D01*
X269830D01*
Y172610D01*
X267290Y175150D01*
X269830Y177690D01*
Y180230D01*
X267290D01*
X264750Y177690D01*
X262210Y180230D01*
X259670D01*
Y177690D01*
X262210Y175150D01*
X259670Y172610D01*
Y170070D01*
X234670Y145070D02*
X237210D01*
X239750Y147610D01*
X242290Y145070D01*
X244830D01*
Y147610D01*
X242290Y150150D01*
X244830Y152690D01*
Y155230D01*
X242290D01*
X239750Y152690D01*
X237210Y155230D01*
X234670D01*
Y152690D01*
X237210Y150150D01*
X234670Y147610D01*
Y145070D01*
X259920Y79100D02*
X265000Y84180D01*
X270080Y79100D01*
X265000Y74020D01*
X259920Y79100D01*
X209920D02*
X215000Y84180D01*
X220080Y79100D01*
X215000Y74020D01*
X209920Y79100D01*
X178960Y483710D02*
Y481170D01*
X184040D01*
Y483710D01*
X186580D01*
Y488790D01*
X184040D01*
Y491330D01*
X178960D01*
Y488790D01*
X176420D01*
Y483710D01*
X178960D01*
X340960Y442981D02*
Y440441D01*
X346040D01*
Y442981D01*
X348580D01*
Y448061D01*
X346040D01*
Y450601D01*
X340960D01*
Y448061D01*
X338420D01*
Y442981D01*
X340960D01*
X412679Y434262D02*
Y431722D01*
X417759D01*
Y434262D01*
X420299D01*
Y439342D01*
X417759D01*
Y441882D01*
X412679D01*
Y439342D01*
X410139D01*
Y434262D01*
X412679D01*
X467960Y252060D02*
Y249520D01*
X473040D01*
Y252060D01*
X475580D01*
Y257140D01*
X473040D01*
Y259680D01*
X467960D01*
Y257140D01*
X465420D01*
Y252060D01*
X467960D01*
X298960Y516618D02*
Y514078D01*
X304040D01*
Y516618D01*
X306580D01*
Y521698D01*
X304040D01*
Y524238D01*
X298960D01*
Y521698D01*
X296420D01*
Y516618D01*
X298960D01*
X457460Y387460D02*
Y384920D01*
X462540D01*
Y387460D01*
X465080D01*
Y392540D01*
X462540D01*
Y395080D01*
X457460D01*
Y392540D01*
X454920D01*
Y387460D01*
X457460D01*
X247460Y367460D02*
Y364920D01*
X252540D01*
Y367460D01*
X255080D01*
Y372540D01*
X252540D01*
Y375080D01*
X247460D01*
Y372540D01*
X244920D01*
Y367460D01*
X247460D01*
X146018Y346018D02*
Y343478D01*
X151098D01*
Y346018D01*
X153638D01*
Y351098D01*
X151098D01*
Y353638D01*
X146018D01*
Y351098D01*
X143478D01*
Y346018D01*
X146018D01*
X287460Y341460D02*
Y338920D01*
X292540D01*
Y341460D01*
X295080D01*
Y346540D01*
X292540D01*
Y349080D01*
X287460D01*
Y346540D01*
X284920D01*
Y341460D01*
X287460D01*
X157460Y517460D02*
Y514920D01*
X162540D01*
Y517460D01*
X165080D01*
Y522540D01*
X162540D01*
Y525080D01*
X157460D01*
Y522540D01*
X154920D01*
Y517460D01*
X157460D01*
X207460D02*
Y514920D01*
X212540D01*
Y517460D01*
X215080D01*
Y522540D01*
X212540D01*
Y525080D01*
X207460D01*
Y522540D01*
X204920D01*
Y517460D01*
X207460D01*
X97460Y277460D02*
Y274920D01*
X102540D01*
Y277460D01*
X105080D01*
Y282540D01*
X102540D01*
Y285080D01*
X97460D01*
Y282540D01*
X94920D01*
Y277460D01*
X97460D01*
X17460Y137460D02*
Y134920D01*
X22540D01*
Y137460D01*
X25080D01*
Y142540D01*
X22540D01*
Y145080D01*
X17460D01*
Y142540D01*
X14920D01*
Y137460D01*
X17460D01*
X27460Y207460D02*
Y204920D01*
X32540D01*
Y207460D01*
X35080D01*
Y212540D01*
X32540D01*
Y215080D01*
X27460D01*
Y212540D01*
X24920D01*
Y207460D01*
X27460D01*
X222334Y341960D02*
Y339420D01*
X227414D01*
Y341960D01*
X229954D01*
Y347040D01*
X227414D01*
Y349580D01*
X222334D01*
Y347040D01*
X219794D01*
Y341960D01*
X222334D01*
X77460Y361460D02*
Y358920D01*
X82540D01*
Y361460D01*
X85080D01*
Y366540D01*
X82540D01*
Y369080D01*
X77460D01*
Y366540D01*
X74920D01*
Y361460D01*
X77460D01*
X185960Y387460D02*
Y384920D01*
X191040D01*
Y387460D01*
X193580D01*
Y392540D01*
X191040D01*
Y395080D01*
X185960D01*
Y392540D01*
X183420D01*
Y387460D01*
X185960D01*
X199534Y303916D02*
Y301376D01*
X204614D01*
Y303916D01*
X207154D01*
Y308996D01*
X204614D01*
Y311536D01*
X199534D01*
Y308996D01*
X196994D01*
Y303916D01*
X199534D01*
X444920Y122420D02*
X447460Y127500D01*
X444920Y132580D01*
X450000Y130040D01*
X455080Y132580D01*
X452540Y127500D01*
X455080Y122420D01*
X450000Y124960D01*
X444920Y122420D01*
X464920Y114920D02*
X467460Y120000D01*
X464920Y125080D01*
X470000Y122540D01*
X475080Y125080D01*
X472540Y120000D01*
X475080Y114920D01*
X470000Y117460D01*
X464920Y114920D01*
X472420Y94920D02*
X474960Y100000D01*
X472420Y105080D01*
X477500Y102540D01*
X482580Y105080D01*
X480040Y100000D01*
X482580Y94920D01*
X477500Y97460D01*
X472420Y94920D01*
X464920Y74920D02*
X467460Y80000D01*
X464920Y85080D01*
X470000Y82540D01*
X475080Y85080D01*
X472540Y80000D01*
X475080Y74920D01*
X470000Y77460D01*
X464920Y74920D01*
X444920Y67420D02*
X447460Y72500D01*
X444920Y77580D01*
X450000Y75040D01*
X455080Y77580D01*
X452540Y72500D01*
X455080Y67420D01*
X450000Y69960D01*
X444920Y67420D01*
X424920Y74920D02*
X427460Y80000D01*
X424920Y85080D01*
X430000Y82540D01*
X435080Y85080D01*
X432540Y80000D01*
X435080Y74920D01*
X430000Y77460D01*
X424920Y74920D01*
X417420Y94920D02*
X419960Y100000D01*
X417420Y105080D01*
X422500Y102540D01*
X427580Y105080D01*
X425040Y100000D01*
X427580Y94920D01*
X422500Y97460D01*
X417420Y94920D01*
X424920Y114920D02*
X427460Y120000D01*
X424920Y125080D01*
X430000Y122540D01*
X435080Y125080D01*
X432540Y120000D01*
X435080Y114920D01*
X430000Y117460D01*
X424920Y114920D01*
X44920Y122420D02*
X47460Y127500D01*
X44920Y132580D01*
X50000Y130040D01*
X55080Y132580D01*
X52540Y127500D01*
X55080Y122420D01*
X50000Y124960D01*
X44920Y122420D01*
X64920Y114920D02*
X67460Y120000D01*
X64920Y125080D01*
X70000Y122540D01*
X75080Y125080D01*
X72540Y120000D01*
X75080Y114920D01*
X70000Y117460D01*
X64920Y114920D01*
X72420Y94920D02*
X74960Y100000D01*
X72420Y105080D01*
X77500Y102540D01*
X82580Y105080D01*
X80040Y100000D01*
X82580Y94920D01*
X77500Y97460D01*
X72420Y94920D01*
X64920Y74920D02*
X67460Y80000D01*
X64920Y85080D01*
X70000Y82540D01*
X75080Y85080D01*
X72540Y80000D01*
X75080Y74920D01*
X70000Y77460D01*
X64920Y74920D01*
X44920Y67420D02*
X47460Y72500D01*
X44920Y77580D01*
X50000Y75040D01*
X55080Y77580D01*
X52540Y72500D01*
X55080Y67420D01*
X50000Y69960D01*
X44920Y67420D01*
X24920Y74920D02*
X27460Y80000D01*
X24920Y85080D01*
X30000Y82540D01*
X35080Y85080D01*
X32540Y80000D01*
X35080Y74920D01*
X30000Y77460D01*
X24920Y74920D01*
X17420Y94920D02*
X19960Y100000D01*
X17420Y105080D01*
X22500Y102540D01*
X27580Y105080D01*
X25040Y100000D01*
X27580Y94920D01*
X22500Y97460D01*
X17420Y94920D01*
X24920Y114920D02*
X27460Y120000D01*
X24920Y125080D01*
X30000Y122540D01*
X35080Y125080D01*
X32540Y120000D01*
X35080Y114920D01*
X30000Y117460D01*
X24920Y114920D01*
X444920Y522420D02*
X447460Y527500D01*
X444920Y532580D01*
X450000Y530040D01*
X455080Y532580D01*
X452540Y527500D01*
X455080Y522420D01*
X450000Y524960D01*
X444920Y522420D01*
X464920Y514920D02*
X467460Y520000D01*
X464920Y525080D01*
X470000Y522540D01*
X475080Y525080D01*
X472540Y520000D01*
X475080Y514920D01*
X470000Y517460D01*
X464920Y514920D01*
X472420Y494920D02*
X474960Y500000D01*
X472420Y505080D01*
X477500Y502540D01*
X482580Y505080D01*
X480040Y500000D01*
X482580Y494920D01*
X477500Y497460D01*
X472420Y494920D01*
X464920Y474920D02*
X467460Y480000D01*
X464920Y485080D01*
X470000Y482540D01*
X475080Y485080D01*
X472540Y480000D01*
X475080Y474920D01*
X470000Y477460D01*
X464920Y474920D01*
X444920Y467420D02*
X447460Y472500D01*
X444920Y477580D01*
X450000Y475040D01*
X455080Y477580D01*
X452540Y472500D01*
X455080Y467420D01*
X450000Y469960D01*
X444920Y467420D01*
X424920Y474920D02*
X427460Y480000D01*
X424920Y485080D01*
X430000Y482540D01*
X435080Y485080D01*
X432540Y480000D01*
X435080Y474920D01*
X430000Y477460D01*
X424920Y474920D01*
X417420Y494920D02*
X419960Y500000D01*
X417420Y505080D01*
X422500Y502540D01*
X427580Y505080D01*
X425040Y500000D01*
X427580Y494920D01*
X422500Y497460D01*
X417420Y494920D01*
X424920Y514920D02*
X427460Y520000D01*
X424920Y525080D01*
X430000Y522540D01*
X435080Y525080D01*
X432540Y520000D01*
X435080Y514920D01*
X430000Y517460D01*
X424920Y514920D01*
X44920Y522420D02*
X47460Y527500D01*
X44920Y532580D01*
X50000Y530040D01*
X55080Y532580D01*
X52540Y527500D01*
X55080Y522420D01*
X50000Y524960D01*
X44920Y522420D01*
X64920Y514920D02*
X67460Y520000D01*
X64920Y525080D01*
X70000Y522540D01*
X75080Y525080D01*
X72540Y520000D01*
X75080Y514920D01*
X70000Y517460D01*
X64920Y514920D01*
X72420Y494920D02*
X74960Y500000D01*
X72420Y505080D01*
X77500Y502540D01*
X82580Y505080D01*
X80040Y500000D01*
X82580Y494920D01*
X77500Y497460D01*
X72420Y494920D01*
X64920Y474920D02*
X67460Y480000D01*
X64920Y485080D01*
X70000Y482540D01*
X75080Y485080D01*
X72540Y480000D01*
X75080Y474920D01*
X70000Y477460D01*
X64920Y474920D01*
X44920Y467420D02*
X47460Y472500D01*
X44920Y477580D01*
X50000Y475040D01*
X55080Y477580D01*
X52540Y472500D01*
X55080Y467420D01*
X50000Y469960D01*
X44920Y467420D01*
X24920Y474920D02*
X27460Y480000D01*
X24920Y485080D01*
X30000Y482540D01*
X35080Y485080D01*
X32540Y480000D01*
X35080Y474920D01*
X30000Y477460D01*
X24920Y474920D01*
X17420Y494920D02*
X19960Y500000D01*
X17420Y505080D01*
X22500Y502540D01*
X27580Y505080D01*
X25040Y500000D01*
X27580Y494920D01*
X22500Y497460D01*
X17420Y494920D01*
X24920Y514920D02*
X27460Y520000D01*
X24920Y525080D01*
X30000Y522540D01*
X35080Y525080D01*
X32540Y520000D01*
X35080Y514920D01*
X30000Y517460D01*
X24920Y514920D01*
X80837Y228405D02*
Y225865D01*
X85917D01*
Y228405D01*
X88457D01*
Y233485D01*
X85917D01*
Y236025D01*
X80837D01*
Y233485D01*
X78297D01*
Y228405D01*
X80837D01*
X260026Y457244D02*
Y454704D01*
X265107D01*
Y457244D01*
X267647D01*
Y462324D01*
X265107D01*
Y464864D01*
X260026D01*
Y462324D01*
X257486D01*
Y457244D01*
X260026D01*
X218960Y417460D02*
Y414920D01*
X224040D01*
Y417460D01*
X226580D01*
Y422540D01*
X224040D01*
Y425080D01*
X218960D01*
Y422540D01*
X216420D01*
Y417460D01*
X218960D01*
X338460Y390477D02*
Y387937D01*
X343540D01*
Y390477D01*
X346080D01*
Y395557D01*
X343540D01*
Y398097D01*
X338460D01*
Y395557D01*
X335920D01*
Y390477D01*
X338460D01*
X125484Y517550D02*
Y515010D01*
X130564D01*
Y517550D01*
X133104D01*
Y522630D01*
X130564D01*
Y525170D01*
X125484D01*
Y522630D01*
X122944D01*
Y517550D01*
X125484D01*
X177460Y517460D02*
Y514920D01*
X182540D01*
Y517460D01*
X185080D01*
Y522540D01*
X182540D01*
Y525080D01*
X177460D01*
Y522540D01*
X174920D01*
Y517460D01*
X177460D01*
X359137Y457183D02*
Y454643D01*
X364217D01*
Y457183D01*
X366757D01*
Y462263D01*
X364217D01*
Y464803D01*
X359137D01*
Y462263D01*
X356597D01*
Y457183D01*
X359137D01*
X187460Y417460D02*
Y414920D01*
X192540D01*
Y417460D01*
X195080D01*
Y422540D01*
X192540D01*
Y425080D01*
X187460D01*
Y422540D01*
X184920D01*
Y417460D01*
X187460D01*
X107460Y487460D02*
Y484920D01*
X112540D01*
Y487460D01*
X115080D01*
Y492540D01*
X112540D01*
Y495080D01*
X107460D01*
Y492540D01*
X104920D01*
Y487460D01*
X107460D01*
X97460Y417460D02*
Y414920D01*
X102540D01*
Y417460D01*
X105080D01*
Y422540D01*
X102540D01*
Y425080D01*
X97460D01*
Y422540D01*
X94920D01*
Y417460D01*
X97460D01*
X287460Y297460D02*
Y294920D01*
X292540D01*
Y297460D01*
X295080D01*
Y302540D01*
X292540D01*
Y305080D01*
X287460D01*
Y302540D01*
X284920D01*
Y297460D01*
X287460D01*
X217460Y477460D02*
Y474920D01*
X222540D01*
Y477460D01*
X225080D01*
Y482540D01*
X222540D01*
Y485080D01*
X217460D01*
Y482540D01*
X214920D01*
Y477460D01*
X217460D01*
X121110Y383269D02*
Y380729D01*
X126190D01*
Y383269D01*
X128730D01*
Y388349D01*
X126190D01*
Y390889D01*
X121110D01*
Y388349D01*
X118570D01*
Y383269D01*
X121110D01*
X297460Y457460D02*
Y454920D01*
X302540D01*
Y457460D01*
X305080D01*
Y462540D01*
X302540D01*
Y465080D01*
X297460D01*
Y462540D01*
X294920D01*
Y457460D01*
X297460D01*
X137460Y327460D02*
Y324920D01*
X142540D01*
Y327460D01*
X145080D01*
Y332540D01*
X142540D01*
Y335080D01*
X137460D01*
Y332540D01*
X134920D01*
Y327460D01*
X137460D01*
D70*
X175080Y340000D02*
G03*
X175080Y340000I-5080J0D01*
G01*
M02*
