G04*
G04 #@! TF.GenerationSoftware,Altium Limited,Altium Designer,22.11.1 (43)*
G04*
G04 Layer_Physical_Order=1*
G04 Layer_Color=255*
%FSLAX44Y44*%
%MOMM*%
G71*
G04*
G04 #@! TF.SameCoordinates,75D7284C-96A1-4F7D-B096-18610DFFEBA5*
G04*
G04*
G04 #@! TF.FilePolarity,Positive*
G04*
G01*
G75*
G04:AMPARAMS|DCode=15|XSize=0.6mm|YSize=1.45mm|CornerRadius=0.15mm|HoleSize=0mm|Usage=FLASHONLY|Rotation=0.000|XOffset=0mm|YOffset=0mm|HoleType=Round|Shape=RoundedRectangle|*
%AMROUNDEDRECTD15*
21,1,0.6000,1.1500,0,0,0.0*
21,1,0.3000,1.4500,0,0,0.0*
1,1,0.3000,0.1500,-0.5750*
1,1,0.3000,-0.1500,-0.5750*
1,1,0.3000,-0.1500,0.5750*
1,1,0.3000,0.1500,0.5750*
%
%ADD15ROUNDEDRECTD15*%
G04:AMPARAMS|DCode=16|XSize=11mm|YSize=11mm|CornerRadius=2.75mm|HoleSize=0mm|Usage=FLASHONLY|Rotation=270.000|XOffset=0mm|YOffset=0mm|HoleType=Round|Shape=RoundedRectangle|*
%AMROUNDEDRECTD16*
21,1,11.0000,5.5000,0,0,270.0*
21,1,5.5000,11.0000,0,0,270.0*
1,1,5.5000,-2.7500,-2.7500*
1,1,5.5000,-2.7500,2.7500*
1,1,5.5000,2.7500,2.7500*
1,1,5.5000,2.7500,-2.7500*
%
%ADD16ROUNDEDRECTD16*%
G04:AMPARAMS|DCode=17|XSize=1.05mm|YSize=3.1mm|CornerRadius=0.2625mm|HoleSize=0mm|Usage=FLASHONLY|Rotation=270.000|XOffset=0mm|YOffset=0mm|HoleType=Round|Shape=RoundedRectangle|*
%AMROUNDEDRECTD17*
21,1,1.0500,2.5750,0,0,270.0*
21,1,0.5250,3.1000,0,0,270.0*
1,1,0.5250,-1.2875,-0.2625*
1,1,0.5250,-1.2875,0.2625*
1,1,0.5250,1.2875,0.2625*
1,1,0.5250,1.2875,-0.2625*
%
%ADD17ROUNDEDRECTD17*%
%ADD18R,1.3500X1.1500*%
%ADD19R,1.9500X1.4000*%
%ADD20R,1.4000X1.9500*%
G04:AMPARAMS|DCode=21|XSize=0.65mm|YSize=1.25mm|CornerRadius=0.1625mm|HoleSize=0mm|Usage=FLASHONLY|Rotation=90.000|XOffset=0mm|YOffset=0mm|HoleType=Round|Shape=RoundedRectangle|*
%AMROUNDEDRECTD21*
21,1,0.6500,0.9250,0,0,90.0*
21,1,0.3250,1.2500,0,0,90.0*
1,1,0.3250,0.4625,0.1625*
1,1,0.3250,0.4625,-0.1625*
1,1,0.3250,-0.4625,-0.1625*
1,1,0.3250,-0.4625,0.1625*
%
%ADD21ROUNDEDRECTD21*%
G04:AMPARAMS|DCode=22|XSize=1.75mm|YSize=1.25mm|CornerRadius=0.3125mm|HoleSize=0mm|Usage=FLASHONLY|Rotation=90.000|XOffset=0mm|YOffset=0mm|HoleType=Round|Shape=RoundedRectangle|*
%AMROUNDEDRECTD22*
21,1,1.7500,0.6250,0,0,90.0*
21,1,1.1250,1.2500,0,0,90.0*
1,1,0.6250,0.3125,0.5625*
1,1,0.6250,0.3125,-0.5625*
1,1,0.6250,-0.3125,-0.5625*
1,1,0.6250,-0.3125,0.5625*
%
%ADD22ROUNDEDRECTD22*%
G04:AMPARAMS|DCode=23|XSize=1.3mm|YSize=1.1mm|CornerRadius=0.275mm|HoleSize=0mm|Usage=FLASHONLY|Rotation=270.000|XOffset=0mm|YOffset=0mm|HoleType=Round|Shape=RoundedRectangle|*
%AMROUNDEDRECTD23*
21,1,1.3000,0.5500,0,0,270.0*
21,1,0.7500,1.1000,0,0,270.0*
1,1,0.5500,-0.2750,-0.3750*
1,1,0.5500,-0.2750,0.3750*
1,1,0.5500,0.2750,0.3750*
1,1,0.5500,0.2750,-0.3750*
%
%ADD23ROUNDEDRECTD23*%
G04:AMPARAMS|DCode=24|XSize=1.2mm|YSize=1.1mm|CornerRadius=0.275mm|HoleSize=0mm|Usage=FLASHONLY|Rotation=180.000|XOffset=0mm|YOffset=0mm|HoleType=Round|Shape=RoundedRectangle|*
%AMROUNDEDRECTD24*
21,1,1.2000,0.5500,0,0,180.0*
21,1,0.6500,1.1000,0,0,180.0*
1,1,0.5500,-0.3250,0.2750*
1,1,0.5500,0.3250,0.2750*
1,1,0.5500,0.3250,-0.2750*
1,1,0.5500,-0.3250,-0.2750*
%
%ADD24ROUNDEDRECTD24*%
G04:AMPARAMS|DCode=25|XSize=1.7mm|YSize=2.5mm|CornerRadius=0.425mm|HoleSize=0mm|Usage=FLASHONLY|Rotation=270.000|XOffset=0mm|YOffset=0mm|HoleType=Round|Shape=RoundedRectangle|*
%AMROUNDEDRECTD25*
21,1,1.7000,1.6500,0,0,270.0*
21,1,0.8500,2.5000,0,0,270.0*
1,1,0.8500,-0.8250,-0.4250*
1,1,0.8500,-0.8250,0.4250*
1,1,0.8500,0.8250,0.4250*
1,1,0.8500,0.8250,-0.4250*
%
%ADD25ROUNDEDRECTD25*%
G04:AMPARAMS|DCode=26|XSize=3.3mm|YSize=2.3mm|CornerRadius=0.575mm|HoleSize=0mm|Usage=FLASHONLY|Rotation=180.000|XOffset=0mm|YOffset=0mm|HoleType=Round|Shape=RoundedRectangle|*
%AMROUNDEDRECTD26*
21,1,3.3000,1.1500,0,0,180.0*
21,1,2.1500,2.3000,0,0,180.0*
1,1,1.1500,-1.0750,0.5750*
1,1,1.1500,1.0750,0.5750*
1,1,1.1500,1.0750,-0.5750*
1,1,1.1500,-1.0750,-0.5750*
%
%ADD26ROUNDEDRECTD26*%
%ADD27R,1.6000X1.2000*%
%ADD28R,1.2000X1.6000*%
%ADD29R,2.0000X2.8000*%
%ADD56C,0.5000*%
%ADD57C,1.0000*%
%ADD58C,1.6000*%
%ADD59R,1.6000X1.6000*%
%ADD60R,1.2000X1.2000*%
%ADD61C,1.2000*%
%ADD62C,7.0000*%
%ADD63C,2.0000*%
G04:AMPARAMS|DCode=64|XSize=2mm|YSize=2mm|CornerRadius=0.5mm|HoleSize=0mm|Usage=FLASHONLY|Rotation=0.000|XOffset=0mm|YOffset=0mm|HoleType=Round|Shape=RoundedRectangle|*
%AMROUNDEDRECTD64*
21,1,2.0000,1.0000,0,0,0.0*
21,1,1.0000,2.0000,0,0,0.0*
1,1,1.0000,0.5000,-0.5000*
1,1,1.0000,-0.5000,-0.5000*
1,1,1.0000,-0.5000,0.5000*
1,1,1.0000,0.5000,0.5000*
%
%ADD64ROUNDEDRECTD64*%
%ADD65C,1.5240*%
%ADD66C,0.7000*%
%ADD67C,0.5000*%
G36*
X279030Y525051D02*
X279069Y525047D01*
X280970Y525000D01*
Y515000D01*
X279069Y514953D01*
X279030Y514949D01*
Y510280D01*
X278930Y511177D01*
X278631Y511979D01*
X278130Y512687D01*
X277430Y513301D01*
X276530Y513820D01*
X275431Y514245D01*
X275000Y514354D01*
X274569Y514245D01*
X273470Y513820D01*
X272570Y513301D01*
X271870Y512687D01*
X271369Y511979D01*
X271070Y511177D01*
X270970Y510280D01*
Y514949D01*
X270931Y514953D01*
X269030Y515000D01*
Y525000D01*
X270931Y525047D01*
X270970Y525051D01*
Y529720D01*
X271070Y528823D01*
X271369Y528021D01*
X271870Y527313D01*
X272570Y526699D01*
X273470Y526180D01*
X274569Y525755D01*
X275000Y525646D01*
X275431Y525755D01*
X276530Y526180D01*
X277430Y526699D01*
X278130Y527313D01*
X278631Y528021D01*
X278930Y528823D01*
X279030Y529720D01*
Y525051D01*
D02*
G37*
G36*
X329061Y515000D02*
X329011Y515475D01*
X328860Y515900D01*
X328608Y516275D01*
X328256Y516600D01*
X327803Y516875D01*
X327250Y517100D01*
X326596Y517275D01*
X325841Y517400D01*
X325003Y517473D01*
X324170Y517400D01*
X323419Y517275D01*
X322770Y517100D01*
X322220Y516875D01*
X321769Y516600D01*
X321419Y516275D01*
X321170Y515900D01*
X321020Y515475D01*
X320970Y515000D01*
Y525000D01*
X321020Y524525D01*
X321170Y524100D01*
X321419Y523725D01*
X321769Y523400D01*
X322220Y523125D01*
X322770Y522900D01*
X323419Y522725D01*
X324170Y522600D01*
X325003Y522527D01*
X325841Y522600D01*
X326596Y522725D01*
X327250Y522900D01*
X327803Y523125D01*
X328256Y523400D01*
X328608Y523725D01*
X328860Y524100D01*
X329011Y524525D01*
X329061Y525000D01*
Y515000D01*
D02*
G37*
G36*
X229061Y515970D02*
X229020Y516260D01*
X228899Y516521D01*
X228696Y516750D01*
X228411Y516949D01*
X228046Y517117D01*
X227599Y517255D01*
X227071Y517362D01*
X226462Y517439D01*
X225772Y517485D01*
X225000Y517500D01*
X224234Y517485D01*
X222945Y517362D01*
X222421Y517255D01*
X221977Y517117D01*
X221614Y516949D01*
X221332Y516750D01*
X221131Y516521D01*
X221010Y516260D01*
X220970Y515970D01*
Y524030D01*
X221010Y523740D01*
X221131Y523479D01*
X221332Y523250D01*
X221614Y523051D01*
X221977Y522883D01*
X222421Y522745D01*
X222945Y522638D01*
X223549Y522561D01*
X224234Y522515D01*
X225000Y522500D01*
X225772Y522515D01*
X227071Y522638D01*
X227599Y522745D01*
X228046Y522883D01*
X228411Y523051D01*
X228696Y523250D01*
X228899Y523479D01*
X229020Y523740D01*
X229061Y524030D01*
Y515970D01*
D02*
G37*
G36*
X307061Y514743D02*
X307332Y515379D01*
X307476Y515979D01*
X307479Y516508D01*
X307341Y516965D01*
X307061Y517351D01*
X314102Y510311D01*
X313715Y510591D01*
X313258Y510729D01*
X312729Y510726D01*
X312129Y510582D01*
X311458Y510296D01*
X310715Y509868D01*
X309901Y509300D01*
X309015Y508590D01*
X307031Y506745D01*
X303495Y510280D01*
X304488Y511309D01*
X306050Y513151D01*
X306618Y513965D01*
X307008Y514641D01*
X306860Y515058D01*
X306608Y515433D01*
X306256Y515758D01*
X305803Y516033D01*
X305250Y516258D01*
X304596Y516433D01*
X303841Y516558D01*
X302986Y516633D01*
X302031Y516658D01*
Y521658D01*
X302986Y521683D01*
X303841Y521758D01*
X304596Y521883D01*
X305250Y522058D01*
X305803Y522283D01*
X306256Y522558D01*
X306608Y522883D01*
X306860Y523258D01*
X307011Y523683D01*
X307061Y524158D01*
Y514743D01*
D02*
G37*
G36*
X154500Y526521D02*
X153198Y525219D01*
X152079Y523281D01*
X151500Y521119D01*
Y518881D01*
X152079Y516719D01*
X153198Y514781D01*
X154500Y513479D01*
Y507000D01*
X161977D01*
X162449Y505861D01*
X163651Y504294D01*
X172022Y495923D01*
X171536Y494750D01*
X154000D01*
Y487599D01*
X153896Y487596D01*
X153757Y487565D01*
X123238D01*
X123061Y487746D01*
X121332Y489652D01*
X120186Y491071D01*
X120086Y491214D01*
Y519964D01*
X122327Y522205D01*
X123500Y521719D01*
Y507000D01*
X132000D01*
Y520000D01*
X134500D01*
Y522500D01*
X145500D01*
Y529914D01*
X154500D01*
Y526521D01*
D02*
G37*
G36*
X368525Y510261D02*
X368100Y510110D01*
X367725Y509858D01*
X367400Y509506D01*
X367125Y509053D01*
X366900Y508500D01*
X366725Y507846D01*
X366600Y507091D01*
X366525Y506236D01*
X366500Y505280D01*
X361500D01*
X361475Y506236D01*
X361400Y507091D01*
X361275Y507846D01*
X361100Y508500D01*
X360875Y509053D01*
X360600Y509506D01*
X360275Y509858D01*
X359900Y510110D01*
X359475Y510261D01*
X359000Y510311D01*
X369000D01*
X368525Y510261D01*
D02*
G37*
G36*
X352000Y505250D02*
X356401D01*
X356404Y505147D01*
X356435Y505008D01*
Y497883D01*
X348644Y490092D01*
X348535Y490025D01*
X346756Y488376D01*
X346173Y487911D01*
X346023Y487807D01*
X341125D01*
X339395Y487579D01*
X337784Y486912D01*
X336400Y485850D01*
X335338Y484466D01*
X334670Y482854D01*
X334443Y481125D01*
Y477875D01*
X334670Y476146D01*
X335338Y474534D01*
X336400Y473150D01*
X337784Y472088D01*
X339395Y471421D01*
X341125Y471193D01*
X350375D01*
X352104Y471421D01*
X353716Y472088D01*
X355100Y473150D01*
X355726Y473965D01*
X355883Y474100D01*
X355913Y474159D01*
X355962Y474204D01*
X356051Y474390D01*
X356162Y474534D01*
X356418Y475151D01*
X356785Y475873D01*
X356790Y475939D01*
X356818Y475999D01*
X356878Y476233D01*
X356900Y476294D01*
X356966Y476441D01*
X357087Y476664D01*
X357268Y476953D01*
X357452Y477215D01*
X358703Y478694D01*
X359194Y479200D01*
X359279Y479331D01*
X369349Y489401D01*
X369349Y489401D01*
X370551Y490968D01*
X371307Y492792D01*
X371565Y494750D01*
X371565Y494750D01*
Y505008D01*
X371596Y505147D01*
X371599Y505250D01*
X376000D01*
Y528077D01*
X377173Y528563D01*
X379914Y525822D01*
Y490428D01*
X377012Y487527D01*
X376965Y487496D01*
X370128Y480785D01*
X367118Y478027D01*
X366675Y477663D01*
X366384Y477453D01*
X366284Y477412D01*
X365774Y477021D01*
X365578Y476903D01*
X365521Y476827D01*
X364900Y476350D01*
X363838Y474966D01*
X363171Y473354D01*
X362943Y471625D01*
Y469425D01*
X362813Y468359D01*
X361687Y468223D01*
X360558D01*
X358396Y467643D01*
X357779Y467287D01*
X357224D01*
X357076Y467320D01*
X356472Y467331D01*
X355396Y467417D01*
X355053Y467468D01*
X354713Y467538D01*
X354430Y467613D01*
X354204Y467689D01*
X354033Y467760D01*
X353912Y467821D01*
X353649Y467981D01*
X353277Y468117D01*
X352948Y468337D01*
X352452Y468436D01*
X352104Y468579D01*
X351961Y468598D01*
X351781Y468664D01*
X351537Y468654D01*
X350375Y468807D01*
X341125D01*
X339395Y468579D01*
X337784Y467912D01*
X336400Y466850D01*
X335338Y465466D01*
X334670Y463854D01*
X334443Y462125D01*
Y458875D01*
X334670Y457146D01*
X335338Y455534D01*
X336400Y454150D01*
X337531Y453282D01*
X337736Y452281D01*
X337705Y451746D01*
X336698Y450740D01*
X335579Y448802D01*
X335000Y446640D01*
Y444402D01*
X335579Y442240D01*
X336698Y440302D01*
X338281Y438719D01*
X340219Y437600D01*
X341418Y437279D01*
X341909Y435832D01*
X341615Y435449D01*
X340859Y433624D01*
X340708Y432474D01*
X340340Y431616D01*
X339332Y431422D01*
X338250Y431565D01*
X334992D01*
X334853Y431596D01*
X334750Y431599D01*
Y436000D01*
X308204D01*
X307370Y437270D01*
X307565Y438750D01*
X307565Y438750D01*
Y443500D01*
X317500D01*
Y454500D01*
Y465500D01*
X307000D01*
X305962Y466059D01*
X305219Y466802D01*
X303281Y467921D01*
X301119Y468500D01*
X298881D01*
X296719Y467921D01*
X294781Y466802D01*
X293198Y465219D01*
X292079Y463281D01*
X291500Y461119D01*
Y458881D01*
X292079Y456719D01*
X292435Y456102D01*
Y455504D01*
X291590Y454939D01*
X291165Y454850D01*
X289600Y455056D01*
X286600D01*
X284903Y454833D01*
X283322Y454178D01*
X281964Y453136D01*
X281536D01*
X280178Y454178D01*
X278597Y454833D01*
X276900Y455056D01*
X273900D01*
X272203Y454833D01*
X270622Y454178D01*
X269264Y453136D01*
X268836D01*
X267478Y454178D01*
X265897Y454833D01*
X265200Y454924D01*
Y451770D01*
X265320Y449904D01*
X265398Y449546D01*
X265486Y449269D01*
X265584Y449073D01*
X265200D01*
Y442750D01*
X260200D01*
Y449073D01*
X259816D01*
X259863Y449195D01*
X259906Y449408D01*
X259944Y449715D01*
X260004Y450605D01*
X260067Y454449D01*
X260200Y454455D01*
Y454924D01*
X259503Y454833D01*
X257922Y454178D01*
X256564Y453136D01*
X256136D01*
X254778Y454178D01*
X253197Y454833D01*
X251500Y455056D01*
X248500D01*
X246803Y454833D01*
X245222Y454178D01*
X243864Y453136D01*
X243436D01*
X242078Y454178D01*
X240497Y454833D01*
X238800Y455056D01*
X235800D01*
X234103Y454833D01*
X232522Y454178D01*
X232187Y453921D01*
X230653Y454310D01*
X230635Y454331D01*
X229449Y455877D01*
X229449Y455877D01*
X207227Y478099D01*
X206000Y479041D01*
Y482079D01*
X207270Y482388D01*
X211765Y477894D01*
X212079Y476719D01*
X213198Y474781D01*
X214781Y473198D01*
X216719Y472079D01*
X218881Y471500D01*
X221119D01*
X223281Y472079D01*
X225219Y473198D01*
X226802Y474781D01*
X227921Y476719D01*
X228500Y478881D01*
Y481119D01*
X227921Y483281D01*
X227509Y483994D01*
X228201Y485335D01*
X229378Y485822D01*
X229998Y486298D01*
X230950Y486760D01*
X231902Y486298D01*
X232522Y485822D01*
X234103Y485167D01*
X235800Y484944D01*
X238800D01*
X240497Y485167D01*
X242078Y485822D01*
X242698Y486298D01*
X243650Y486760D01*
X244602Y486298D01*
X245222Y485822D01*
X246803Y485167D01*
X248500Y484944D01*
X251500D01*
X253197Y485167D01*
X254778Y485822D01*
X255113Y486079D01*
X255453Y486117D01*
X256646Y485691D01*
X256665Y485669D01*
X257851Y484123D01*
X264823Y477151D01*
X264823Y477151D01*
X266390Y475949D01*
X268214Y475193D01*
X270172Y474935D01*
X293328D01*
X295286Y475193D01*
X297110Y475949D01*
X298677Y477151D01*
X299461Y477935D01*
X306758D01*
X306897Y477904D01*
X307000Y477901D01*
Y474500D01*
X333000D01*
Y496500D01*
X307000D01*
Y493099D01*
X306897Y493096D01*
X306758Y493065D01*
X299059D01*
X298975Y494335D01*
X300558Y494543D01*
X302382Y495299D01*
X303949Y496501D01*
X310391Y502943D01*
X310501Y503011D01*
X312350Y504729D01*
X312959Y505217D01*
X313006Y505250D01*
X313916D01*
X314102Y505213D01*
X314288Y505250D01*
X348000D01*
Y529914D01*
X352000D01*
Y505250D01*
D02*
G37*
G36*
X267725Y510261D02*
X267300Y510110D01*
X266925Y509858D01*
X266600Y509506D01*
X266325Y509053D01*
X266100Y508500D01*
X265925Y507846D01*
X265800Y507091D01*
X265725Y506236D01*
X265700Y505280D01*
X265628D01*
X265584Y503573D01*
X259816D01*
X259984Y503870D01*
X260134Y504230D01*
X260267Y504654D01*
X260382Y505141D01*
X260479Y505691D01*
X260614Y506928D01*
X260600Y507091D01*
X260475Y507846D01*
X260300Y508500D01*
X260075Y509053D01*
X259800Y509506D01*
X259475Y509858D01*
X259100Y510110D01*
X258675Y510261D01*
X258200Y510311D01*
X268200D01*
X267725Y510261D01*
D02*
G37*
G36*
X227104Y508153D02*
X227346Y503978D01*
X227411Y503732D01*
X227484Y503573D01*
X221716D01*
X221789Y503732D01*
X221854Y503978D01*
X221912Y504312D01*
X221962Y504734D01*
X222065Y506523D01*
X222100Y509099D01*
X227100D01*
X227104Y508153D01*
D02*
G37*
G36*
X290233Y504378D02*
X290392Y504372D01*
X295225Y504350D01*
X296098Y499350D01*
X295089Y499325D01*
X294192Y499250D01*
X293408Y499125D01*
X292736Y498950D01*
X292177Y498725D01*
X291730Y498450D01*
X291396Y498125D01*
X291174Y497750D01*
X291065Y497325D01*
X291068Y496850D01*
X290173Y504384D01*
X290233Y504378D01*
D02*
G37*
G36*
X208932Y492250D02*
X208882Y492725D01*
X208731Y493150D01*
X208479Y493525D01*
X208127Y493850D01*
X207675Y494125D01*
X207121Y494350D01*
X206467Y494525D01*
X205713Y494650D01*
X204858Y494725D01*
X203902Y494750D01*
Y499750D01*
X204858Y499775D01*
X205713Y499850D01*
X206467Y499975D01*
X207121Y500150D01*
X207675Y500375D01*
X208127Y500650D01*
X208479Y500975D01*
X208731Y501350D01*
X208882Y501775D01*
X208932Y502250D01*
Y492250D01*
D02*
G37*
G36*
X355536Y482751D02*
X354923Y482119D01*
X353414Y480334D01*
X353020Y479775D01*
X352682Y479234D01*
X352398Y478712D01*
X352169Y478207D01*
X351996Y477721D01*
X351877Y477253D01*
X344930Y482720D01*
X345354Y482478D01*
X345840Y482369D01*
X346390Y482393D01*
X347002Y482550D01*
X347678Y482840D01*
X348417Y483263D01*
X349218Y483819D01*
X350083Y484509D01*
X352001Y486286D01*
X355536Y482751D01*
D02*
G37*
G36*
X187031Y481250D02*
X186980Y481725D01*
X186831Y482150D01*
X186581Y482525D01*
X186231Y482850D01*
X185781Y483125D01*
X185231Y483350D01*
X184580Y483525D01*
X183831Y483650D01*
X182980Y483725D01*
X182031Y483750D01*
Y488750D01*
X182980Y488760D01*
X185231Y488905D01*
X185781Y488992D01*
X186231Y489099D01*
X186581Y489225D01*
X186831Y489370D01*
X186980Y489535D01*
X187031Y489720D01*
Y481250D01*
D02*
G37*
G36*
X312061Y480500D02*
X312011Y480975D01*
X311860Y481400D01*
X311608Y481775D01*
X311256Y482100D01*
X310803Y482375D01*
X310250Y482600D01*
X309596Y482775D01*
X308841Y482900D01*
X307986Y482975D01*
X307031Y483000D01*
Y488000D01*
X307986Y488025D01*
X308841Y488100D01*
X309596Y488225D01*
X310250Y488400D01*
X310803Y488625D01*
X311256Y488900D01*
X311608Y489225D01*
X311860Y489600D01*
X312011Y490025D01*
X312061Y490500D01*
Y480500D01*
D02*
G37*
G36*
X115074Y489765D02*
X115284Y489282D01*
X115628Y488697D01*
X116105Y488011D01*
X117459Y486335D01*
X119346Y484254D01*
X121768Y481768D01*
X118232Y478232D01*
X116939Y479510D01*
X111989Y483895D01*
X111303Y484372D01*
X110718Y484716D01*
X110235Y484926D01*
X109852Y485002D01*
X114998Y490148D01*
X115074Y489765D01*
D02*
G37*
G36*
X159031Y475000D02*
X158981Y475475D01*
X158830Y475900D01*
X158581Y476275D01*
X158230Y476600D01*
X157781Y476875D01*
X157231Y477100D01*
X156580Y477275D01*
X155830Y477400D01*
X154980Y477475D01*
X154031Y477500D01*
Y482500D01*
X154980Y482525D01*
X155830Y482600D01*
X156580Y482725D01*
X157231Y482900D01*
X157781Y483125D01*
X158230Y483400D01*
X158581Y483725D01*
X158830Y484100D01*
X158981Y484525D01*
X159031Y485000D01*
Y475000D01*
D02*
G37*
G36*
X198525Y470261D02*
X198100Y470110D01*
X197725Y469858D01*
X197400Y469506D01*
X197125Y469053D01*
X196900Y468500D01*
X196725Y467846D01*
X196600Y467091D01*
X196525Y466236D01*
X196500Y465280D01*
X191500D01*
X191475Y466236D01*
X191400Y467091D01*
X191275Y467846D01*
X191100Y468500D01*
X190875Y469053D01*
X190600Y469506D01*
X190275Y469858D01*
X189900Y470110D01*
X189475Y470261D01*
X189000Y470311D01*
X199000D01*
X198525Y470261D01*
D02*
G37*
G36*
X196525Y463764D02*
X196600Y462909D01*
X196725Y462154D01*
X196900Y461500D01*
X197125Y460947D01*
X197400Y460494D01*
X197725Y460142D01*
X198100Y459890D01*
X198525Y459739D01*
X199000Y459689D01*
X189000D01*
X189475Y459739D01*
X189900Y459890D01*
X190275Y460142D01*
X190600Y460494D01*
X190875Y460947D01*
X191100Y461500D01*
X191275Y462154D01*
X191400Y462909D01*
X191475Y463764D01*
X191500Y464720D01*
X196500D01*
X196525Y463764D01*
D02*
G37*
G36*
X351435Y463360D02*
X351909Y463121D01*
X352419Y462911D01*
X352963Y462728D01*
X353544Y462574D01*
X354160Y462447D01*
X354812Y462349D01*
X356223Y462237D01*
X356981Y462223D01*
X357001Y457223D01*
X350997Y457373D01*
Y463627D01*
X351435Y463360D01*
D02*
G37*
G36*
X387572Y476751D02*
X386285Y475446D01*
X381743Y470273D01*
X381554Y470000D01*
X381743Y469727D01*
X383182Y467928D01*
X385125Y465768D01*
X387572Y463249D01*
X380536Y456143D01*
X369003Y466873D01*
X375621Y470000D01*
X369003Y473127D01*
X369299Y473270D01*
X369785Y473620D01*
X370462Y474176D01*
X373636Y477086D01*
X380536Y483857D01*
X387572Y476751D01*
D02*
G37*
G36*
X422030Y458609D02*
X422061Y458888D01*
X422030Y449530D01*
X421931Y449715D01*
X421631Y449879D01*
X421130Y450025D01*
X420430Y450151D01*
X419530Y450258D01*
X417131Y450413D01*
X412030Y450500D01*
Y460500D01*
X413931Y460510D01*
X421130Y460975D01*
X421631Y461120D01*
X421931Y461285D01*
X422030Y461469D01*
Y458609D01*
D02*
G37*
G36*
X120311Y439000D02*
X120261Y439475D01*
X120110Y439900D01*
X119858Y440275D01*
X119506Y440600D01*
X119053Y440875D01*
X118500Y441100D01*
X117846Y441275D01*
X117092Y441400D01*
X116236Y441475D01*
X115626Y441491D01*
X115020Y441475D01*
X114170Y441400D01*
X113420Y441275D01*
X112769Y441100D01*
X112219Y440875D01*
X111770Y440600D01*
X111419Y440275D01*
X111170Y439900D01*
X111019Y439475D01*
X110969Y439000D01*
Y449000D01*
X111019Y448525D01*
X111170Y448100D01*
X111419Y447725D01*
X111770Y447400D01*
X112219Y447125D01*
X112769Y446900D01*
X113420Y446725D01*
X114170Y446600D01*
X115020Y446525D01*
X115626Y446509D01*
X116236Y446525D01*
X117092Y446600D01*
X117846Y446725D01*
X118500Y446900D01*
X119053Y447125D01*
X119506Y447400D01*
X119858Y447725D01*
X120110Y448100D01*
X120261Y448525D01*
X120311Y449000D01*
Y439000D01*
D02*
G37*
G36*
X98059Y452262D02*
X99901Y450700D01*
X100715Y450132D01*
X101458Y449704D01*
X102129Y449418D01*
X102729Y449274D01*
X103258Y449271D01*
X103715Y449409D01*
X104101Y449689D01*
X97061Y442648D01*
X97341Y443035D01*
X97479Y443492D01*
X97476Y444021D01*
X97332Y444621D01*
X97046Y445293D01*
X96618Y446035D01*
X96050Y446849D01*
X95339Y447735D01*
X93495Y449720D01*
X97030Y453255D01*
X98059Y452262D01*
D02*
G37*
G36*
X438076Y460914D02*
X438394Y460193D01*
X438924Y459307D01*
X439667Y458257D01*
X441788Y455662D01*
X444758Y452408D01*
X448576Y448495D01*
X440470Y442459D01*
X438409Y444450D01*
X434719Y447576D01*
X433089Y448713D01*
X431603Y449566D01*
X430261Y450134D01*
X429062Y450417D01*
X428007Y450416D01*
X427095Y450131D01*
X426327Y449561D01*
X437970Y461469D01*
X438076Y460914D01*
D02*
G37*
G36*
X403888Y433888D02*
X397524Y431060D01*
X398034Y431626D01*
X398430Y432191D01*
X398712Y432757D01*
X398882Y433323D01*
X398939Y433888D01*
X398882Y434454D01*
X398712Y435020D01*
X398430Y435586D01*
X398034Y436151D01*
X397524Y436717D01*
X399545Y441768D01*
X399895Y441457D01*
X400208Y441264D01*
X400485Y441187D01*
X400725Y441228D01*
X400927Y441385D01*
X401093Y441659D01*
X401222Y442050D01*
X401315Y442558D01*
X401370Y443182D01*
X401388Y443924D01*
X403888Y433888D01*
D02*
G37*
G36*
X348531Y447970D02*
Y440500D01*
X348480Y440975D01*
X348330Y441400D01*
X348080Y441775D01*
X347730Y442100D01*
X347281Y442375D01*
X346730Y442600D01*
X346081Y442775D01*
X345331Y442900D01*
X344481Y442975D01*
X343531Y443000D01*
Y448000D01*
X348531Y447970D01*
D02*
G37*
G36*
X391489Y444525D02*
X391640Y444100D01*
X391892Y443725D01*
X392244Y443400D01*
X392697Y443125D01*
X393250Y442900D01*
X393904Y442725D01*
X394659Y442600D01*
X395514Y442525D01*
X396469Y442500D01*
Y437500D01*
X395514Y437475D01*
X394659Y437400D01*
X393904Y437275D01*
X393250Y437100D01*
X392697Y436875D01*
X392244Y436600D01*
X391892Y436275D01*
X391640Y435900D01*
X391489Y435475D01*
X391439Y435000D01*
Y445000D01*
X391489Y444525D01*
D02*
G37*
G36*
X214711Y436268D02*
X214646Y436022D01*
X214588Y435688D01*
X214538Y435266D01*
X214435Y433478D01*
X214400Y430901D01*
X213307D01*
X212969Y429720D01*
X206900Y429689D01*
X207375Y429742D01*
X207800Y429894D01*
X208175Y430147D01*
X208500Y430500D01*
X208775Y430953D01*
X209000Y431506D01*
X209175Y432159D01*
X209300Y432912D01*
X209321Y433148D01*
X209154Y436022D01*
X209089Y436268D01*
X209016Y436427D01*
X214784D01*
X214711Y436268D01*
D02*
G37*
G36*
X459775Y549145D02*
X466106Y547448D01*
X472162Y544940D01*
X477838Y541663D01*
X483038Y537673D01*
X487673Y533038D01*
X491663Y527838D01*
X494940Y522162D01*
X497448Y516106D01*
X499145Y509775D01*
X500000Y503277D01*
Y500000D01*
Y100000D01*
Y96723D01*
X499145Y90225D01*
X497448Y83893D01*
X494940Y77838D01*
X491663Y72162D01*
X487673Y66962D01*
X483038Y62327D01*
X477838Y58337D01*
X472162Y55060D01*
X466106Y52552D01*
X459775Y50855D01*
X453277Y50000D01*
X46723D01*
X40224Y50855D01*
X33893Y52552D01*
X27838Y55060D01*
X22162Y58337D01*
X16962Y62327D01*
X12327Y66962D01*
X8337Y72162D01*
X5060Y77838D01*
X2552Y83893D01*
X856Y90225D01*
X0Y96723D01*
Y100000D01*
Y500000D01*
Y503277D01*
X856Y509775D01*
X2552Y516106D01*
X5060Y522162D01*
X8337Y527838D01*
X12327Y533038D01*
X16962Y537673D01*
X22162Y541663D01*
X27838Y544940D01*
X33893Y547448D01*
X40224Y549145D01*
X46723Y550000D01*
X120550D01*
X120815Y548735D01*
X118726Y547132D01*
X102868Y531274D01*
X101265Y529185D01*
X100257Y526753D01*
X99914Y524142D01*
Y490000D01*
X100257Y487389D01*
X101265Y484957D01*
X102868Y482868D01*
X104957Y481265D01*
X107389Y480257D01*
X108490Y480113D01*
X108554Y480075D01*
X108833Y479881D01*
X113454Y475786D01*
X114650Y474605D01*
X115082Y474321D01*
X116218Y473449D01*
X118042Y472693D01*
X120000Y472435D01*
X152744D01*
X154000Y471266D01*
Y466020D01*
X154000Y465250D01*
X154000Y463980D01*
Y452500D01*
X166000D01*
X178000D01*
Y463980D01*
X178000Y464750D01*
X178000Y466020D01*
Y477073D01*
X179270Y478048D01*
X180381Y477750D01*
X182000D01*
Y465250D01*
X182000D01*
Y464750D01*
X182000D01*
Y435250D01*
X192937D01*
X194000Y434750D01*
Y428972D01*
X193854Y428758D01*
X192730Y428068D01*
X191119Y428500D01*
X188881D01*
X186719Y427921D01*
X184781Y426802D01*
X183198Y425219D01*
X182079Y423281D01*
X181500Y421119D01*
Y418881D01*
X182079Y416719D01*
X182544Y415915D01*
X181909Y414815D01*
X165893D01*
X163936Y414557D01*
X162111Y413801D01*
X160544Y412599D01*
X160544Y412599D01*
X148738Y400793D01*
X147565Y401279D01*
Y408750D01*
X147307Y410708D01*
X146551Y412532D01*
X145349Y414099D01*
X144750Y414698D01*
Y428000D01*
X116000D01*
Y432000D01*
X144750D01*
Y456000D01*
X115250D01*
Y454750D01*
X104288D01*
X104101Y454787D01*
X103916Y454750D01*
X103007D01*
X101482Y456044D01*
X100572Y456922D01*
X100443Y457005D01*
X94599Y462849D01*
X93032Y464051D01*
X91208Y464807D01*
X89250Y465065D01*
X40000D01*
X38042Y464807D01*
X36218Y464051D01*
X34651Y462849D01*
X34651Y462849D01*
X4651Y432849D01*
X3449Y431282D01*
X2693Y429458D01*
X2435Y427500D01*
Y270000D01*
X2693Y268042D01*
X3449Y266218D01*
X4651Y264651D01*
X24651Y244651D01*
X26218Y243449D01*
X28042Y242693D01*
X30000Y242435D01*
X116867D01*
X134651Y224651D01*
X134651Y224651D01*
X136218Y223449D01*
X138042Y222693D01*
X140000Y222435D01*
X140000Y222435D01*
X147100D01*
X147370Y221427D01*
X147381Y221165D01*
X144997Y218782D01*
X143286Y215818D01*
X142400Y212512D01*
Y209088D01*
X143286Y205782D01*
X144997Y202818D01*
X147418Y200397D01*
X150382Y198686D01*
X153688Y197800D01*
X157112D01*
X160418Y198686D01*
X163382Y200397D01*
X165803Y202818D01*
X167514Y205782D01*
X168400Y209088D01*
Y212512D01*
X167514Y215818D01*
X165803Y218782D01*
X163419Y221165D01*
X163430Y221427D01*
X163701Y222435D01*
X176867D01*
X194651Y204651D01*
X196218Y203449D01*
X198042Y202693D01*
X200000Y202435D01*
X200328D01*
X200814Y201262D01*
X189651Y190099D01*
X188449Y188532D01*
X187693Y186708D01*
X187435Y184750D01*
Y165000D01*
X187693Y163042D01*
X188449Y161218D01*
X189651Y159651D01*
X196790Y152512D01*
X196850Y152412D01*
X197177Y152054D01*
X197373Y151803D01*
X198083Y150696D01*
X198363Y150184D01*
X200122Y146179D01*
X200553Y145013D01*
X200553Y145013D01*
X200553Y145013D01*
X200827Y144566D01*
X201457Y143045D01*
X203099Y140588D01*
X205188Y138499D01*
X207645Y136857D01*
X210375Y135726D01*
X213273Y135150D01*
X216227D01*
X219125Y135726D01*
X221855Y136857D01*
X224312Y138499D01*
X226401Y140588D01*
X226615Y140908D01*
X227885D01*
X228099Y140588D01*
X230188Y138499D01*
X232645Y136857D01*
X235375Y135726D01*
X238273Y135150D01*
X241227D01*
X244125Y135726D01*
X246855Y136857D01*
X249312Y138499D01*
X251401Y140588D01*
X253043Y143045D01*
X254174Y145775D01*
X254750Y148673D01*
Y151627D01*
X254174Y154525D01*
X253043Y157255D01*
X251401Y159712D01*
X249312Y161801D01*
X248992Y162015D01*
Y163285D01*
X249312Y163499D01*
X250068Y164255D01*
X251754Y164144D01*
X252618Y163018D01*
X254707Y161415D01*
X257139Y160407D01*
X259750Y160064D01*
X264791D01*
X264850Y160052D01*
X265725D01*
X267638Y159671D01*
X269440Y158925D01*
X271062Y157841D01*
X272441Y156462D01*
X273525Y154840D01*
X274272Y153038D01*
X274652Y151125D01*
Y150250D01*
X275040Y148299D01*
X276145Y146645D01*
X276395Y146395D01*
X278049Y145290D01*
X280000Y144902D01*
X380000D01*
X381951Y145290D01*
X383605Y146395D01*
X403605Y166395D01*
X404236Y167340D01*
X405764D01*
X406395Y166395D01*
X406395Y166395D01*
X416395Y156395D01*
X418049Y155290D01*
X420000Y154902D01*
X440000D01*
X441951Y155290D01*
X443605Y156395D01*
X448210Y161000D01*
X448250D01*
Y161040D01*
X450577Y163367D01*
X451750Y162881D01*
Y161000D01*
X464250D01*
Y180000D01*
X466750D01*
Y182500D01*
X481750D01*
Y199000D01*
X476500D01*
Y207500D01*
X465500D01*
Y210000D01*
X463000D01*
Y223000D01*
X455098D01*
Y227888D01*
X462112Y234902D01*
X480000D01*
X481951Y235290D01*
X483605Y236395D01*
X493605Y246395D01*
X494710Y248049D01*
X495098Y250000D01*
Y260019D01*
X494710Y261970D01*
X493605Y263624D01*
X488970Y268258D01*
X487316Y269364D01*
X485365Y269752D01*
X434654D01*
X432703Y269364D01*
X431049Y268258D01*
X424524Y261733D01*
X423350Y262219D01*
Y307500D01*
X422949Y312600D01*
X421755Y317574D01*
X419797Y322300D01*
X417124Y326662D01*
X413802Y330552D01*
X409912Y333874D01*
X405550Y336547D01*
X400824Y338505D01*
X395850Y339699D01*
X395457Y339730D01*
X395507Y341000D01*
X411500D01*
Y357500D01*
X396500D01*
X381500D01*
Y341000D01*
X380606Y340101D01*
X335750D01*
X330650Y339699D01*
X325676Y338505D01*
X320950Y336547D01*
X316588Y333874D01*
X312698Y330552D01*
X309376Y326662D01*
X306703Y322300D01*
X305996Y320593D01*
X304750Y320841D01*
Y328000D01*
X275886D01*
X275557Y328375D01*
Y331625D01*
X275886Y332000D01*
X304750D01*
Y354000D01*
Y373497D01*
X305250Y373935D01*
X361500D01*
X363458Y374193D01*
X365282Y374949D01*
X366849Y376151D01*
X375826Y385128D01*
X377028Y386694D01*
X377784Y388519D01*
X378041Y390477D01*
Y394618D01*
X378041Y394619D01*
X377784Y396577D01*
X377028Y398401D01*
X375826Y399968D01*
X375274Y400519D01*
X375760Y401693D01*
X378875D01*
X379798Y401814D01*
X379967Y401797D01*
X380209Y401868D01*
X380604Y401921D01*
X380952Y402064D01*
X381448Y402163D01*
X381515Y402208D01*
X384473Y402397D01*
X385243Y402402D01*
X385404Y402435D01*
X393500D01*
Y392500D01*
X404500D01*
X415500D01*
Y402710D01*
X417282Y403449D01*
X418849Y404651D01*
X425391Y411193D01*
X425501Y411261D01*
X427350Y412979D01*
X427958Y413467D01*
X428006Y413500D01*
X428915D01*
X429102Y413463D01*
X429288Y413500D01*
X431219D01*
X431705Y412327D01*
X429368Y409990D01*
X427765Y407901D01*
X426757Y405468D01*
X426432Y403000D01*
X424500D01*
Y389655D01*
X424414Y389000D01*
Y384147D01*
X424404Y384103D01*
X424358Y382356D01*
X424239Y381004D01*
X424062Y379940D01*
X423859Y379185D01*
X423784Y379000D01*
X415500D01*
Y387500D01*
X404500D01*
X400569D01*
X403602Y382061D01*
X403305Y382430D01*
X402917Y382639D01*
X402438Y382685D01*
X401868Y382571D01*
X401206Y382295D01*
X400454Y381857D01*
X399610Y381259D01*
X398675Y380499D01*
X396530Y378495D01*
X393500Y381952D01*
Y379000D01*
X381500D01*
Y362500D01*
X396500D01*
X411500D01*
Y377000D01*
X415000D01*
Y341000D01*
X423934D01*
X424009Y340815D01*
X424212Y340060D01*
X424389Y338996D01*
X424508Y337644D01*
X424554Y335897D01*
X424564Y335853D01*
Y331000D01*
X424907Y328390D01*
X425915Y325957D01*
X427518Y323868D01*
X444223Y307163D01*
X444248Y307123D01*
X447419Y303799D01*
X448908Y302061D01*
X449995Y300619D01*
X450313Y300132D01*
X450535Y299743D01*
X450748Y299292D01*
X450899Y299087D01*
X450965Y298930D01*
X451030Y298845D01*
X451110Y298649D01*
X451417Y298340D01*
X452187Y297337D01*
X453780Y296115D01*
X455634Y295346D01*
X457625Y295084D01*
X483375D01*
X485365Y295346D01*
X487220Y296115D01*
X488813Y297337D01*
X490035Y298930D01*
X490804Y300784D01*
X491066Y302775D01*
Y308025D01*
X490804Y310016D01*
X490035Y311870D01*
X488813Y313463D01*
X487220Y314685D01*
X485365Y315454D01*
X483375Y315716D01*
X467598D01*
X467596Y315767D01*
X467565Y315908D01*
Y339757D01*
X467596Y339896D01*
X467599Y340000D01*
X471750D01*
X471750Y340000D01*
X472987Y339920D01*
X474727Y339199D01*
X476750Y338933D01*
X477500D01*
Y349500D01*
X480000D01*
Y352000D01*
X491067D01*
Y352250D01*
X490801Y354273D01*
X490020Y356158D01*
X488777Y357777D01*
X487158Y359020D01*
X486451Y359313D01*
Y360687D01*
X487158Y360980D01*
X488777Y362223D01*
X490020Y363842D01*
X490801Y365727D01*
X491067Y367750D01*
Y373250D01*
X490801Y375273D01*
X490020Y377158D01*
X488777Y378777D01*
X487158Y380020D01*
X485273Y380801D01*
X483250Y381067D01*
X476750D01*
X474727Y380801D01*
X472987Y380080D01*
X471750Y380000D01*
X471750Y380000D01*
X471750Y380000D01*
X448250D01*
Y358500D01*
Y340000D01*
X452401D01*
X452404Y339896D01*
X452435Y339757D01*
Y329138D01*
X451262Y328652D01*
X444736Y335178D01*
Y335934D01*
X444748Y335990D01*
X444788Y341000D01*
X445000D01*
Y345232D01*
X445008Y345254D01*
X445000Y345438D01*
Y345685D01*
X445067Y346020D01*
X445000Y346363D01*
Y373637D01*
X445067Y373979D01*
X445045Y374094D01*
X445062Y374209D01*
X445000Y375526D01*
Y377000D01*
X446500D01*
Y381293D01*
X446523Y381362D01*
X446502Y381699D01*
X446567Y382030D01*
X446775Y382302D01*
X448149Y382393D01*
X449859Y382402D01*
X450021Y382435D01*
X456102D01*
X456719Y382079D01*
X458881Y381500D01*
X461119D01*
X463281Y382079D01*
X465219Y383198D01*
X466802Y384781D01*
X467921Y386719D01*
X468500Y388881D01*
Y391119D01*
X467921Y393281D01*
X466802Y395219D01*
X465219Y396802D01*
X463281Y397921D01*
X461119Y398500D01*
X458881D01*
X456719Y397921D01*
X456102Y397565D01*
X450021D01*
X449859Y397598D01*
X448067Y397608D01*
X447141Y397640D01*
X446827Y398921D01*
X457132Y409226D01*
X458735Y411315D01*
X459743Y413747D01*
X460086Y416358D01*
Y440000D01*
X459743Y442611D01*
X458735Y445043D01*
X457132Y447132D01*
X452255Y452010D01*
X452225Y452055D01*
X448466Y455908D01*
X445647Y458996D01*
X443726Y461345D01*
X443198Y462093D01*
X443000Y462424D01*
Y466500D01*
X438271D01*
X437912Y466567D01*
X437593Y466500D01*
X422691D01*
X422563Y466540D01*
X422295Y466515D01*
X422030Y466567D01*
X421691Y466500D01*
X417000D01*
Y465817D01*
X413753Y465607D01*
X412005Y465598D01*
X411948Y465586D01*
X392428D01*
X391258Y466757D01*
X391229Y466801D01*
X388850Y469250D01*
X388232Y469937D01*
X390019Y471972D01*
X391202Y473171D01*
X391233Y473219D01*
X397132Y479118D01*
X398735Y481207D01*
X399743Y483639D01*
X400086Y486250D01*
Y530000D01*
X399743Y532611D01*
X398735Y535043D01*
X397132Y537132D01*
X387132Y547132D01*
X385043Y548735D01*
X385308Y550000D01*
X453277D01*
X459775Y549145D01*
D02*
G37*
G36*
X423056Y433015D02*
X424894Y431460D01*
X425708Y430894D01*
X426450Y430470D01*
X427122Y430187D01*
X427723Y430045D01*
X428253D01*
X428713Y430187D01*
X429102Y430470D01*
X423147Y424515D01*
X429102Y418561D01*
X428715Y418841D01*
X428258Y418979D01*
X427729Y418976D01*
X427129Y418832D01*
X426457Y418546D01*
X425715Y418118D01*
X424901Y417550D01*
X424015Y416840D01*
X422030Y414995D01*
X418495Y418531D01*
X419488Y419558D01*
X421050Y421401D01*
X421618Y422215D01*
X422046Y422957D01*
X422332Y423629D01*
X422354Y423722D01*
X422030Y423399D01*
X422313Y423787D01*
X422455Y424247D01*
Y424777D01*
X422390Y425053D01*
X422341Y425215D01*
X422061Y425602D01*
X422322Y425340D01*
X422313Y425378D01*
X422030Y426050D01*
X421606Y426793D01*
X421041Y427606D01*
X420333Y428490D01*
X418495Y430470D01*
X422030Y434005D01*
X423056Y433015D01*
D02*
G37*
G36*
X290816Y436130D02*
X290666Y435770D01*
X290533Y435346D01*
X290418Y434859D01*
X290321Y434309D01*
X290180Y433016D01*
X290174Y432894D01*
X290200Y432541D01*
X290970Y433255D01*
X294505Y429720D01*
X293515Y428694D01*
X291959Y426856D01*
X291394Y426043D01*
X290970Y425300D01*
X290687Y424628D01*
X290545Y424027D01*
Y423497D01*
X290687Y423037D01*
X290970Y422649D01*
X283924Y429694D01*
X282600Y429689D01*
X283075Y429741D01*
X283500Y429893D01*
X283875Y430146D01*
X284200Y430498D01*
X284475Y430951D01*
X284700Y431504D01*
X284875Y432158D01*
X285000Y432911D01*
X285075Y433765D01*
X285100Y434720D01*
X285172D01*
X285216Y436427D01*
X290984D01*
X290816Y436130D01*
D02*
G37*
G36*
X350666Y427693D02*
X350678Y426889D01*
X350860Y424757D01*
X350969Y424140D01*
X351102Y423568D01*
X351260Y423043D01*
X351441Y422565D01*
X351647Y422133D01*
X351877Y421747D01*
X343166Y422720D01*
X343641Y422720D01*
X344066Y422832D01*
X344441Y423056D01*
X344766Y423391D01*
X345041Y423838D01*
X345266Y424397D01*
X345441Y425068D01*
X345566Y425850D01*
X345641Y426745D01*
X345666Y427751D01*
X350666Y427693D01*
D02*
G37*
G36*
X329739Y428525D02*
X329890Y428100D01*
X330142Y427725D01*
X330494Y427400D01*
X330947Y427125D01*
X331500Y426900D01*
X332154Y426725D01*
X332909Y426600D01*
X333764Y426525D01*
X334720Y426500D01*
Y421500D01*
X333764Y421475D01*
X332909Y421400D01*
X332154Y421275D01*
X331500Y421100D01*
X330947Y420875D01*
X330494Y420600D01*
X330142Y420275D01*
X329890Y419900D01*
X329739Y419475D01*
X329689Y419000D01*
Y429000D01*
X329739Y428525D01*
D02*
G37*
G36*
X227031Y415000D02*
X226980Y415475D01*
X226831Y415900D01*
X226581Y416275D01*
X226231Y416600D01*
X225781Y416875D01*
X225231Y417100D01*
X224580Y417275D01*
X223831Y417400D01*
X222980Y417475D01*
X222031Y417500D01*
Y422500D01*
X222980Y422525D01*
X223831Y422600D01*
X224580Y422725D01*
X225231Y422900D01*
X225781Y423125D01*
X226231Y423400D01*
X226581Y423725D01*
X226831Y424100D01*
X226980Y424525D01*
X227031Y425000D01*
Y415000D01*
D02*
G37*
G36*
X199030D02*
X198981Y415475D01*
X198831Y415900D01*
X198580Y416275D01*
X198230Y416600D01*
X197780Y416875D01*
X197230Y417100D01*
X196581Y417275D01*
X195830Y417400D01*
X194981Y417475D01*
X194030Y417500D01*
Y422500D01*
X194981Y422525D01*
X195830Y422600D01*
X196581Y422725D01*
X197230Y422900D01*
X197780Y423125D01*
X198230Y423400D01*
X198580Y423725D01*
X198831Y424100D01*
X198981Y424525D01*
X199030Y425000D01*
Y415000D01*
D02*
G37*
G36*
X305250Y431643D02*
Y412000D01*
X334750D01*
Y413214D01*
X336020Y413645D01*
X336400Y413150D01*
X337784Y412088D01*
X339395Y411421D01*
X341125Y411193D01*
X350375D01*
X351665Y411363D01*
X352812Y410625D01*
Y409375D01*
X351665Y408637D01*
X350375Y408807D01*
X348250D01*
Y400500D01*
X343250D01*
Y408807D01*
X341125D01*
X339395Y408579D01*
X337784Y407912D01*
X336400Y406850D01*
X336020Y406355D01*
X334750Y406786D01*
Y408000D01*
X322500D01*
Y396000D01*
X317500D01*
Y408000D01*
X305250D01*
Y407063D01*
X304750Y406000D01*
X296000D01*
Y421840D01*
X296005Y421853D01*
X296000Y421982D01*
Y422309D01*
X296068Y422649D01*
X296000Y422988D01*
Y423737D01*
X296007Y423747D01*
X297299Y425273D01*
X298172Y426179D01*
X298255Y426307D01*
X304077Y432129D01*
X305250Y431643D01*
D02*
G37*
G36*
X379723Y413008D02*
X380026Y412901D01*
X380405Y412807D01*
X380861Y412726D01*
X382004Y412600D01*
X383452Y412525D01*
X385208Y412500D01*
Y407500D01*
X384292Y407494D01*
X380861Y407274D01*
X380405Y407193D01*
X380026Y407099D01*
X379723Y406992D01*
X379497Y406873D01*
Y413127D01*
X379723Y413008D01*
D02*
G37*
G36*
X262687Y416963D02*
X262545Y416503D01*
Y415973D01*
X262687Y415372D01*
X262969Y414700D01*
X263394Y413957D01*
X263959Y413144D01*
X264667Y412260D01*
X266505Y410280D01*
X262969Y406745D01*
X261944Y407735D01*
X260106Y409291D01*
X259293Y409856D01*
X258550Y410280D01*
X257878Y410563D01*
X257277Y410705D01*
X256747D01*
X256287Y410563D01*
X255898Y410280D01*
X262969Y417351D01*
X262687Y416963D01*
D02*
G37*
G36*
X64000Y442500D02*
X76000D01*
X88000D01*
Y446393D01*
X89173Y446879D01*
X89693Y446359D01*
X89761Y446249D01*
X91479Y444400D01*
X91967Y443792D01*
X92000Y443744D01*
Y442835D01*
X91963Y442648D01*
X92000Y442462D01*
Y425250D01*
X92000Y425250D01*
Y424750D01*
X92000D01*
X92000Y423980D01*
Y422985D01*
X91500Y421119D01*
Y418881D01*
X92000Y417015D01*
Y397565D01*
X88000D01*
Y424750D01*
X88000D01*
Y425250D01*
X88000D01*
Y437500D01*
X76000D01*
X64000D01*
Y425250D01*
X64000D01*
Y424750D01*
X64000D01*
Y395250D01*
X68401D01*
X68404Y395147D01*
X68435Y395008D01*
Y390000D01*
Y376243D01*
X68404Y376104D01*
X68401Y376000D01*
X65250D01*
Y352000D01*
X82462D01*
X82648Y351963D01*
X82835Y352000D01*
X83743D01*
X85268Y350706D01*
X86178Y349828D01*
X86306Y349745D01*
X86879Y349173D01*
X86392Y348000D01*
X82500D01*
Y336000D01*
Y324000D01*
X93389D01*
X94281Y323096D01*
X94269Y322204D01*
X94181Y320682D01*
X94167Y320560D01*
X94161Y320539D01*
X94160Y320515D01*
X94131Y320352D01*
X94067Y320197D01*
X93974Y319488D01*
X93921Y319268D01*
X93934Y319187D01*
X93923Y319097D01*
X93918Y319073D01*
X93919Y319069D01*
X93844Y318500D01*
Y307000D01*
X94067Y305303D01*
X94722Y303722D01*
X95764Y302364D01*
X97122Y301322D01*
X98703Y300667D01*
X100400Y300444D01*
X103400D01*
X104724Y300618D01*
X105375Y299473D01*
X105151Y299249D01*
X103949Y297682D01*
X103193Y295858D01*
X103047Y294750D01*
X94000D01*
Y286021D01*
X93198Y285219D01*
X92079Y283281D01*
X91500Y281119D01*
Y278881D01*
X92079Y276719D01*
X93198Y274781D01*
X94000Y273979D01*
Y265250D01*
X118000D01*
Y284008D01*
X118065Y284500D01*
X118065Y284500D01*
Y289670D01*
X118067Y289682D01*
X118075Y290777D01*
X119949Y292651D01*
X120730Y293669D01*
X122000Y293238D01*
Y265250D01*
X135302D01*
X135901Y264651D01*
X137468Y263449D01*
X139292Y262693D01*
X141250Y262435D01*
X145070D01*
X145227Y262402D01*
X145250Y262402D01*
Y262000D01*
X149929D01*
X150261Y261933D01*
X150569Y261992D01*
X150881Y261968D01*
X150979Y262000D01*
X162462D01*
X162649Y261963D01*
X162834Y262000D01*
X163743D01*
X165269Y260706D01*
X166178Y259828D01*
X166307Y259745D01*
X166879Y259173D01*
X166393Y258000D01*
X162500D01*
Y248500D01*
X174750D01*
Y249643D01*
X175923Y250129D01*
X191401Y234651D01*
X191401Y234651D01*
X192968Y233449D01*
X194792Y232693D01*
X196750Y232435D01*
X202474D01*
X202614Y232404D01*
X203382Y232384D01*
X203920Y231085D01*
X205403Y229153D01*
X207335Y227670D01*
X209585Y226738D01*
X212000Y226420D01*
X228500D01*
X230915Y226738D01*
X233165Y227670D01*
X235097Y229153D01*
X236580Y231085D01*
X237512Y233335D01*
X237830Y235750D01*
Y242588D01*
X239015Y243990D01*
X239875Y244881D01*
X239958Y245010D01*
X241146Y246197D01*
X242348Y245604D01*
X242170Y244250D01*
Y242500D01*
X259750D01*
X277330D01*
Y244250D01*
X277012Y246665D01*
X276080Y248915D01*
X274597Y250847D01*
X274182Y251165D01*
X274614Y252435D01*
X276867D01*
X282435Y246867D01*
Y208133D01*
X278392Y204090D01*
X277189Y204684D01*
X277330Y205750D01*
Y207500D01*
X259750D01*
X242170D01*
Y205750D01*
X242488Y203335D01*
X243255Y201485D01*
X242631Y200215D01*
X237369D01*
X236745Y201485D01*
X237512Y203335D01*
X237830Y205750D01*
Y214250D01*
X237512Y216665D01*
X236580Y218915D01*
X235097Y220847D01*
X233165Y222330D01*
X230915Y223262D01*
X228500Y223580D01*
X212000D01*
X209585Y223262D01*
X207335Y222330D01*
X205403Y220847D01*
X203920Y218915D01*
X203820Y218674D01*
X202322Y218376D01*
X185349Y235349D01*
X183782Y236551D01*
X181958Y237307D01*
X180000Y237565D01*
X174750D01*
Y243500D01*
X160000D01*
X145250D01*
Y237565D01*
X143133D01*
X125349Y255349D01*
X123782Y256551D01*
X121958Y257307D01*
X120000Y257565D01*
X62007D01*
X61000Y258200D01*
Y274509D01*
X61040Y274637D01*
X61015Y274905D01*
X61068Y275170D01*
X61000Y275509D01*
Y280200D01*
X60317D01*
X60107Y283447D01*
X60098Y285196D01*
X60086Y285252D01*
Y297373D01*
X59743Y299983D01*
X58735Y302416D01*
X57132Y304505D01*
X53284Y308353D01*
X53612Y309580D01*
X54246Y309750D01*
X56754Y311198D01*
X58802Y313246D01*
X60250Y315754D01*
X61000Y318552D01*
Y321448D01*
X60250Y324246D01*
X58802Y326754D01*
X56754Y328802D01*
X54246Y330250D01*
X51448Y331000D01*
X48552D01*
X45754Y330250D01*
X45186Y329922D01*
X44086Y330557D01*
Y359822D01*
X47470Y363206D01*
X47500Y363224D01*
X50118Y365656D01*
X51188Y366526D01*
X52213Y367274D01*
X53144Y367870D01*
X53967Y368317D01*
X54670Y368625D01*
X55238Y368811D01*
X55667Y368898D01*
X56331Y368945D01*
X56530Y369000D01*
X61000D01*
Y373691D01*
X61068Y374030D01*
X61032Y374210D01*
X61055Y374392D01*
X61000Y374591D01*
Y391000D01*
X44591D01*
X44392Y391055D01*
X44210Y391032D01*
X44030Y391068D01*
X43691Y391000D01*
X39000D01*
Y386530D01*
X38945Y386331D01*
X38898Y385667D01*
X38811Y385238D01*
X38625Y384670D01*
X38317Y383968D01*
X37870Y383144D01*
X37274Y382213D01*
X36562Y381236D01*
X34526Y378850D01*
X33291Y377571D01*
X33263Y377528D01*
X26868Y371132D01*
X25265Y369043D01*
X24257Y366610D01*
X23914Y364000D01*
Y313373D01*
X24257Y310762D01*
X25265Y308330D01*
X26429Y306813D01*
X26264Y306287D01*
X25759Y305600D01*
X23152D01*
X20354Y304850D01*
X18835Y303973D01*
X17565Y304706D01*
Y395294D01*
X18835Y396027D01*
X20354Y395150D01*
X22100Y394682D01*
Y405400D01*
Y416118D01*
X20354Y415650D01*
X18835Y414773D01*
X17565Y415506D01*
Y424367D01*
X43133Y449935D01*
X64000D01*
Y442500D01*
D02*
G37*
G36*
X280280Y400970D02*
X280311Y393500D01*
X280259Y393975D01*
X280107Y394400D01*
X279854Y394775D01*
X279501Y395100D01*
X279048Y395375D01*
X278495Y395600D01*
X277842Y395775D01*
X277088Y395900D01*
X276234Y395975D01*
X275280Y396000D01*
Y401000D01*
X280280Y400970D01*
D02*
G37*
G36*
X441520Y394525D02*
X441670Y394100D01*
X441920Y393725D01*
X442270Y393400D01*
X442719Y393125D01*
X443270Y392900D01*
X443919Y392725D01*
X444494Y392629D01*
X447966Y392510D01*
X449830Y392500D01*
Y387500D01*
X447966Y387490D01*
X443657Y387204D01*
X443270Y387100D01*
X442719Y386875D01*
X442270Y386600D01*
X441920Y386275D01*
X441670Y385900D01*
X441520Y385475D01*
X441469Y385000D01*
Y387060D01*
X440441Y386992D01*
X439798Y386836D01*
X439328Y386659D01*
X439033Y386462D01*
Y393538D01*
X439328Y393341D01*
X439798Y393164D01*
X440441Y393008D01*
X441259Y392874D01*
X441469Y392853D01*
Y395000D01*
X441520Y394525D01*
D02*
G37*
G36*
X198056Y402265D02*
X199894Y400709D01*
X200707Y400144D01*
X201450Y399720D01*
X202122Y399437D01*
X202723Y399295D01*
X203253D01*
X203713Y399437D01*
X204102Y399720D01*
X197031Y392649D01*
X197313Y393037D01*
X197455Y393497D01*
Y394027D01*
X197313Y394628D01*
X197031Y395300D01*
X196606Y396043D01*
X196041Y396856D01*
X195333Y397740D01*
X193495Y399720D01*
X197031Y403255D01*
X198056Y402265D01*
D02*
G37*
G36*
X329739Y400525D02*
X329890Y400100D01*
X330142Y399725D01*
X330494Y399400D01*
X330947Y399125D01*
X331500Y398900D01*
X332154Y398725D01*
X332909Y398600D01*
X333764Y398525D01*
X334720Y398500D01*
Y393500D01*
X333764Y393475D01*
X332909Y393400D01*
X332154Y393275D01*
X331500Y393100D01*
X330947Y392875D01*
X330494Y392600D01*
X330142Y392275D01*
X329890Y391900D01*
X329739Y391475D01*
X329689Y391000D01*
Y401000D01*
X329739Y400525D01*
D02*
G37*
G36*
X236570Y386280D02*
X236147Y386522D01*
X235660Y386631D01*
X235110Y386607D01*
X234497Y386450D01*
X233822Y386160D01*
X233083Y385737D01*
X232282Y385181D01*
X231417Y384491D01*
X229499Y382714D01*
X225964Y386249D01*
X226577Y386881D01*
X228086Y388666D01*
X228480Y389225D01*
X228818Y389766D01*
X229102Y390288D01*
X229331Y390793D01*
X229504Y391279D01*
X229623Y391747D01*
X236570Y386280D01*
D02*
G37*
G36*
X182989Y394525D02*
X183140Y394100D01*
X183392Y393725D01*
X183744Y393400D01*
X184197Y393125D01*
X184750Y392900D01*
X185404Y392725D01*
X186159Y392600D01*
X187014Y392525D01*
X187969Y392500D01*
Y387500D01*
X187014Y387475D01*
X186159Y387400D01*
X185404Y387275D01*
X184750Y387100D01*
X184197Y386875D01*
X183744Y386600D01*
X183392Y386275D01*
X183140Y385900D01*
X182989Y385475D01*
X182939Y385000D01*
Y395000D01*
X182989Y394525D01*
D02*
G37*
G36*
X299437Y393713D02*
X299295Y393253D01*
Y392723D01*
X299437Y392122D01*
X299720Y391450D01*
X300144Y390707D01*
X300709Y389894D01*
X301417Y389010D01*
X303255Y387030D01*
X299720Y383495D01*
X298694Y384485D01*
X296856Y386041D01*
X296043Y386606D01*
X295300Y387030D01*
X294628Y387313D01*
X294027Y387455D01*
X293497D01*
X293037Y387313D01*
X292649Y387030D01*
X299720Y394101D01*
X299437Y393713D01*
D02*
G37*
G36*
X80525Y400261D02*
X80100Y400110D01*
X79725Y399858D01*
X79400Y399506D01*
X79125Y399053D01*
X78900Y398500D01*
X78725Y397846D01*
X78600Y397091D01*
X78552Y396540D01*
X78700Y395700D01*
X78950Y394950D01*
X79300Y394300D01*
X79750Y393750D01*
X80300Y393300D01*
X80950Y392950D01*
X81700Y392700D01*
X82550Y392550D01*
X83500Y392500D01*
Y387500D01*
X82550Y387450D01*
X81700Y387300D01*
X80950Y387050D01*
X80300Y386700D01*
X79750Y386250D01*
X79300Y385700D01*
X78950Y385050D01*
X78700Y384300D01*
X78550Y383450D01*
X78500Y382500D01*
X73500Y390000D01*
X77020Y395280D01*
X73500D01*
X73475Y396236D01*
X73400Y397091D01*
X73275Y397846D01*
X73100Y398500D01*
X72875Y399053D01*
X72600Y399506D01*
X72275Y399858D01*
X71900Y400110D01*
X71475Y400261D01*
X71000Y400311D01*
X81000D01*
X80525Y400261D01*
D02*
G37*
G36*
X395592Y377691D02*
X395655Y376903D01*
X395760Y376209D01*
X395907Y375606D01*
X396096Y375097D01*
X396328Y374680D01*
X396601Y374356D01*
X396916Y374124D01*
X397273Y373985D01*
X397673Y373939D01*
X388470D01*
X388869Y373985D01*
X389226Y374124D01*
X389541Y374356D01*
X389814Y374680D01*
X390046Y375097D01*
X390235Y375606D01*
X390382Y376209D01*
X390487Y376903D01*
X390550Y377691D01*
X390571Y378571D01*
X395571D01*
X395592Y377691D01*
D02*
G37*
G36*
X155204Y378153D02*
X155446Y373978D01*
X155511Y373732D01*
X155584Y373573D01*
X149816D01*
X149889Y373732D01*
X149954Y373978D01*
X150012Y374312D01*
X150062Y374734D01*
X150165Y376523D01*
X150200Y379099D01*
X155200D01*
X155204Y378153D01*
D02*
G37*
G36*
X142504D02*
X142746Y373978D01*
X142811Y373732D01*
X142884Y373573D01*
X137116D01*
X137189Y373732D01*
X137254Y373978D01*
X137312Y374312D01*
X137362Y374734D01*
X137465Y376523D01*
X137500Y379099D01*
X142500D01*
X142504Y378153D01*
D02*
G37*
G36*
X129804D02*
X130046Y373978D01*
X130111Y373732D01*
X130184Y373573D01*
X124416D01*
X124489Y373732D01*
X124554Y373978D01*
X124612Y374312D01*
X124662Y374734D01*
X124765Y376523D01*
X124800Y379099D01*
X129800D01*
X129804Y378153D01*
D02*
G37*
G36*
X270496Y381779D02*
X270669Y381293D01*
X270898Y380788D01*
X271182Y380266D01*
X271520Y379725D01*
X271914Y379166D01*
X272865Y377994D01*
X273423Y377381D01*
X274036Y376749D01*
X270501Y373214D01*
X269510Y374169D01*
X267718Y375681D01*
X266917Y376237D01*
X266178Y376660D01*
X265502Y376950D01*
X264890Y377107D01*
X264340Y377131D01*
X263853Y377022D01*
X263430Y376780D01*
X270377Y382247D01*
X270496Y381779D01*
D02*
G37*
G36*
X439591Y382030D02*
X441469D01*
X441095Y381931D01*
X440760Y381631D01*
X440465Y381130D01*
X440209Y380430D01*
X439992Y379530D01*
X439815Y378430D01*
X439777Y378071D01*
X439969Y373969D01*
X439522Y373969D01*
X439520Y373931D01*
X439500Y372030D01*
X429500D01*
X429506Y373949D01*
X424500Y373939D01*
X425450Y374041D01*
X426300Y374343D01*
X427050Y374846D01*
X427700Y375549D01*
X428250Y376451D01*
X428700Y377555D01*
X429050Y378858D01*
X429300Y380362D01*
X429450Y382066D01*
X429500Y383969D01*
X439500D01*
X439591Y382030D01*
D02*
G37*
G36*
X78525Y375019D02*
X78600Y374170D01*
X78725Y373419D01*
X78900Y372770D01*
X79125Y372220D01*
X79400Y371769D01*
X79725Y371419D01*
X80100Y371170D01*
X80525Y371020D01*
X81000Y370970D01*
X71000D01*
X71475Y371020D01*
X71900Y371170D01*
X72275Y371419D01*
X72600Y371769D01*
X72875Y372220D01*
X73100Y372770D01*
X73275Y373419D01*
X73400Y374170D01*
X73475Y375019D01*
X73500Y375970D01*
X78500D01*
X78525Y375019D01*
D02*
G37*
G36*
X175132Y362250D02*
X175082Y362725D01*
X174931Y363150D01*
X174679Y363525D01*
X174327Y363850D01*
X173875Y364125D01*
X173321Y364350D01*
X172667Y364525D01*
X171913Y364650D01*
X171750Y364664D01*
X171587Y364650D01*
X170833Y364525D01*
X170179Y364350D01*
X169625Y364125D01*
X169173Y363850D01*
X168820Y363525D01*
X168569Y363150D01*
X168418Y362725D01*
X168368Y362250D01*
Y372250D01*
X168418Y371775D01*
X168569Y371350D01*
X168820Y370975D01*
X169173Y370650D01*
X169625Y370375D01*
X170179Y370150D01*
X170833Y369975D01*
X171587Y369850D01*
X171750Y369836D01*
X171913Y369850D01*
X172667Y369975D01*
X173321Y370150D01*
X173875Y370375D01*
X174327Y370650D01*
X174680Y370975D01*
X174931Y371350D01*
X175082Y371775D01*
X175132Y372250D01*
Y362250D01*
D02*
G37*
G36*
X280280Y372970D02*
X280311Y366969D01*
X280274Y367165D01*
X280167Y367341D01*
X279988Y367495D01*
X279739Y367629D01*
X279418Y367742D01*
X279027Y367835D01*
X278564Y367907D01*
X278030Y367959D01*
X276750Y368000D01*
Y373000D01*
X280280Y372970D01*
D02*
G37*
G36*
X55970Y374030D02*
X54974Y373960D01*
X53934Y373748D01*
X52850Y373394D01*
X51723Y372899D01*
X50551Y372263D01*
X49335Y371485D01*
X48075Y370566D01*
X46771Y369505D01*
X44030Y366959D01*
X36959Y374030D01*
X38303Y375423D01*
X40566Y378075D01*
X41485Y379335D01*
X42263Y380551D01*
X42899Y381723D01*
X43394Y382850D01*
X43748Y383934D01*
X43960Y384974D01*
X44030Y385970D01*
X55970Y374030D01*
D02*
G37*
G36*
X466739Y374400D02*
X466890Y373975D01*
X467142Y373600D01*
X467494Y373275D01*
X467947Y373000D01*
X468500Y372775D01*
X469154Y372600D01*
X469908Y372475D01*
X470459Y372427D01*
X471084Y372474D01*
X471942Y372598D01*
X472681Y372772D01*
X473299Y372995D01*
X473798Y373268D01*
X474177Y373591D01*
X474436Y373963D01*
X474574Y374385D01*
X474593Y374856D01*
X475378Y365374D01*
X474846Y365755D01*
X474291Y366095D01*
X473715Y366395D01*
X473116Y366655D01*
X472495Y366875D01*
X471851Y367055D01*
X471186Y367195D01*
X470498Y367295D01*
X470314Y367310D01*
X469908Y367275D01*
X469154Y367150D01*
X468500Y366975D01*
X467947Y366750D01*
X467494Y366475D01*
X467142Y366150D01*
X466890Y365775D01*
X466739Y365350D01*
X466689Y364875D01*
Y374875D01*
X466739Y374400D01*
D02*
G37*
G36*
X182125Y380261D02*
X181700Y380110D01*
X181325Y379858D01*
X181000Y379506D01*
X180725Y379053D01*
X180500Y378500D01*
X180325Y377846D01*
X180211Y377160D01*
X180321Y375691D01*
X180418Y375141D01*
X180533Y374654D01*
X180666Y374230D01*
X180816Y373870D01*
X180984Y373573D01*
X180736D01*
X180746Y373511D01*
X180922Y373089D01*
X181203Y372717D01*
X181589Y372394D01*
X182079Y372121D01*
X182674Y371897D01*
X183373Y371724D01*
X184177Y371599D01*
X185085Y371525D01*
X186098Y371500D01*
Y366500D01*
X185125Y366475D01*
X184256Y366400D01*
X183491Y366275D01*
X182831Y366100D01*
X182276Y365875D01*
X181825Y365600D01*
X181479Y365275D01*
X181238Y364900D01*
X181100Y364475D01*
X181068Y364000D01*
X180690Y373573D01*
X175216D01*
X175194Y373587D01*
X175175Y373696D01*
X175158Y373900D01*
X175122Y375280D01*
X175100D01*
X175075Y376236D01*
X175000Y377091D01*
X174875Y377846D01*
X174700Y378500D01*
X174475Y379053D01*
X174200Y379506D01*
X173875Y379858D01*
X173500Y380110D01*
X173075Y380261D01*
X172600Y380311D01*
X182600D01*
X182125Y380261D01*
D02*
G37*
G36*
X241292Y373460D02*
X241652Y373311D01*
X242077Y373180D01*
X242568Y373066D01*
X243123Y372969D01*
X244429Y372829D01*
X245995Y372759D01*
X246875Y372750D01*
X246541Y367750D01*
X245589Y367746D01*
X245082Y367718D01*
X245536Y367249D01*
X242001Y363714D01*
X241010Y364669D01*
X239218Y366181D01*
X238417Y366737D01*
X237678Y367160D01*
X237003Y367450D01*
X236390Y367607D01*
X235840Y367631D01*
X235354Y367522D01*
X234930Y367280D01*
X240997Y372055D01*
Y373627D01*
X241292Y373460D01*
D02*
G37*
G36*
X142906Y360914D02*
X142925Y360809D01*
X142942Y360610D01*
X142980Y359457D01*
X142998Y356616D01*
X138000D01*
X137994Y357275D01*
X137860Y359297D01*
X137799Y359649D01*
X137726Y359939D01*
X137642Y360168D01*
X137547Y360335D01*
X137441Y360441D01*
X142884Y360927D01*
X142906Y360914D01*
D02*
G37*
G36*
X89409Y363715D02*
X89271Y363258D01*
X89274Y362729D01*
X89418Y362129D01*
X89704Y361457D01*
X90132Y360715D01*
X90700Y359901D01*
X91411Y359015D01*
X93255Y357030D01*
X89719Y353495D01*
X88692Y354488D01*
X86849Y356050D01*
X86035Y356618D01*
X85293Y357046D01*
X84621Y357332D01*
X84021Y357476D01*
X83492Y357479D01*
X83035Y357341D01*
X82648Y357061D01*
X89689Y364101D01*
X89409Y363715D01*
D02*
G37*
G36*
X294525Y358980D02*
X294100Y358830D01*
X293725Y358581D01*
X293400Y358231D01*
X293125Y357780D01*
X292900Y357230D01*
X292725Y356581D01*
X292600Y355830D01*
X292526Y354997D01*
X292600Y354159D01*
X292725Y353404D01*
X292900Y352750D01*
X293125Y352197D01*
X293400Y351744D01*
X293725Y351392D01*
X294100Y351140D01*
X294525Y350989D01*
X295000Y350939D01*
X285000D01*
X285475Y350989D01*
X285900Y351140D01*
X286275Y351392D01*
X286600Y351744D01*
X286875Y352197D01*
X287100Y352750D01*
X287275Y353404D01*
X287400Y354159D01*
X287474Y354997D01*
X287400Y355830D01*
X287275Y356581D01*
X287100Y357230D01*
X286875Y357780D01*
X286600Y358231D01*
X286275Y358581D01*
X285900Y358830D01*
X285475Y358980D01*
X285000Y359030D01*
X295000D01*
X294525Y358980D01*
D02*
G37*
G36*
X217989Y360025D02*
X218140Y359600D01*
X218392Y359225D01*
X218744Y358900D01*
X219197Y358625D01*
X219750Y358400D01*
X220404Y358225D01*
X221159Y358100D01*
X222014Y358025D01*
X222969Y358000D01*
Y353000D01*
X222014Y352975D01*
X221159Y352900D01*
X220404Y352775D01*
X219750Y352600D01*
X219197Y352375D01*
X218744Y352100D01*
X218392Y351775D01*
X218140Y351400D01*
X217989Y350975D01*
X217939Y350500D01*
Y360500D01*
X217989Y360025D01*
D02*
G37*
G36*
X202031Y349530D02*
X197031Y347500D01*
Y352500D01*
X197984Y352525D01*
X198837Y352600D01*
X199590Y352725D01*
X200243Y352900D01*
X200796Y353125D01*
X201249Y353400D01*
X201602Y353725D01*
X201855Y354100D01*
X202008Y354525D01*
X202061Y355000D01*
X202031Y349530D01*
D02*
G37*
G36*
X464525Y344981D02*
X464100Y344831D01*
X463725Y344580D01*
X463400Y344230D01*
X463125Y343781D01*
X462900Y343231D01*
X462725Y342580D01*
X462600Y341830D01*
X462525Y340980D01*
X462500Y340031D01*
X457500D01*
X457475Y340980D01*
X457400Y341830D01*
X457275Y342580D01*
X457100Y343231D01*
X456875Y343781D01*
X456600Y344230D01*
X456275Y344580D01*
X455900Y344831D01*
X455475Y344980D01*
X455000Y345031D01*
X465000D01*
X464525Y344981D01*
D02*
G37*
G36*
X233185Y342720D02*
X230503Y340038D01*
Y336373D01*
X230277Y336492D01*
X229974Y336599D01*
X229595Y336693D01*
X229139Y336774D01*
X227997Y336900D01*
X226548Y336975D01*
X224792Y337000D01*
Y342000D01*
X225708Y342006D01*
X226644Y342066D01*
X226365Y342350D01*
X229900Y345885D01*
X233185Y342720D01*
D02*
G37*
G36*
X439969Y346030D02*
X439909Y345930D01*
X439855Y345630D01*
X439807Y345131D01*
X439701Y342430D01*
X439650Y336030D01*
X429650D01*
X429600Y337934D01*
X429450Y339638D01*
X429200Y341142D01*
X428850Y342445D01*
X428400Y343548D01*
X427850Y344451D01*
X427200Y345154D01*
X426450Y345657D01*
X425600Y345959D01*
X424650Y346061D01*
X439969Y346030D01*
D02*
G37*
G36*
X266775Y337281D02*
X266850Y336413D01*
X266974Y335648D01*
X267149Y334984D01*
X267374Y334422D01*
X267648Y333963D01*
X267972Y333606D01*
X268346Y333350D01*
X268770Y333197D01*
X269244Y333146D01*
X259256D01*
X259730Y333197D01*
X260154Y333350D01*
X260528Y333606D01*
X260852Y333963D01*
X261126Y334422D01*
X261351Y334984D01*
X261525Y335648D01*
X261650Y336413D01*
X261725Y337281D01*
X261750Y338251D01*
X266750D01*
X266775Y337281D01*
D02*
G37*
G36*
X140453Y345965D02*
X140637Y345277D01*
X141756Y343339D01*
X143339Y341756D01*
X145277Y340637D01*
X147439Y340058D01*
X149677D01*
X151839Y340637D01*
X153777Y341756D01*
X155360Y343339D01*
X155901Y344277D01*
X156959Y344555D01*
X157504Y344512D01*
X158890Y343449D01*
X160714Y342693D01*
X162672Y342435D01*
X162672Y342435D01*
X190971D01*
X191457Y341262D01*
X177456Y327261D01*
X177321Y327173D01*
X176730Y326592D01*
X175711Y325657D01*
X174907Y325002D01*
X174685Y324843D01*
X174525Y324742D01*
X174500Y324729D01*
X174361Y324670D01*
X174229Y324580D01*
X173950Y324438D01*
X173322Y324178D01*
X173171Y324062D01*
X172976Y323969D01*
X172931Y323918D01*
X172870Y323887D01*
X172730Y323723D01*
X171964Y323136D01*
X171536D01*
X170178Y324178D01*
X168597Y324833D01*
X166900Y325056D01*
X163900D01*
X162203Y324833D01*
X160622Y324178D01*
X159264Y323136D01*
X158836D01*
X157478Y324178D01*
X155897Y324833D01*
X155200Y324924D01*
Y322659D01*
X155698D01*
X155584Y319073D01*
X155200Y319129D01*
Y312750D01*
Y300576D01*
X155897Y300667D01*
X157478Y301322D01*
X158836Y302364D01*
X159264D01*
X160622Y301322D01*
X162203Y300667D01*
X163900Y300444D01*
X166900D01*
X168597Y300667D01*
X170178Y301322D01*
X171536Y302364D01*
X171964D01*
X172764Y301751D01*
X172915Y301578D01*
X172983Y301544D01*
X173035Y301488D01*
X173213Y301406D01*
X173322Y301322D01*
X173979Y301050D01*
X174475Y300804D01*
X174517Y300777D01*
X174582Y300751D01*
X174697Y300694D01*
X174729Y300686D01*
X175265Y300342D01*
X175482Y300177D01*
X176988Y298856D01*
X177534Y298321D01*
X177668Y298234D01*
X178435Y297467D01*
Y294992D01*
X178404Y294853D01*
X178401Y294750D01*
X174000D01*
Y286000D01*
X146000D01*
Y294750D01*
X122746D01*
X121877Y295969D01*
X121907Y296042D01*
X122165Y298000D01*
Y300096D01*
X123188Y300908D01*
X123469Y300930D01*
X124103Y300667D01*
X125800Y300444D01*
X128800D01*
X130497Y300667D01*
X132078Y301322D01*
X133436Y302364D01*
X133864D01*
X135222Y301322D01*
X136803Y300667D01*
X138500Y300444D01*
X141500D01*
X143197Y300667D01*
X144778Y301322D01*
X146136Y302364D01*
X146564D01*
X147922Y301322D01*
X149503Y300667D01*
X150200Y300576D01*
Y312750D01*
Y324924D01*
X149503Y324833D01*
X148868Y324570D01*
X148630Y324579D01*
X147565Y325404D01*
Y326102D01*
X147921Y326719D01*
X148500Y328881D01*
Y331119D01*
X147921Y333281D01*
X146802Y335219D01*
X145219Y336802D01*
X143281Y337921D01*
X141119Y338500D01*
X138881D01*
X136719Y337921D01*
X134781Y336802D01*
X133198Y335219D01*
X132079Y333281D01*
X131500Y331119D01*
Y328881D01*
X132079Y326719D01*
X132435Y326102D01*
Y325404D01*
X131412Y324592D01*
X131131Y324570D01*
X130497Y324833D01*
X128800Y325056D01*
X125800D01*
X124103Y324833D01*
X122522Y324178D01*
X121164Y323136D01*
X120736D01*
X119378Y324178D01*
X117797Y324833D01*
X116100Y325056D01*
X113100D01*
X111403Y324833D01*
X110768Y324570D01*
X110530Y324579D01*
X109465Y325404D01*
Y344850D01*
X109465Y344850D01*
X109540Y344935D01*
X132528D01*
X134486Y345193D01*
X136310Y345949D01*
X137877Y347151D01*
X138572Y347846D01*
X140453Y345965D01*
D02*
G37*
G36*
X217989Y329025D02*
X218140Y328600D01*
X218392Y328225D01*
X218744Y327900D01*
X219197Y327625D01*
X219750Y327400D01*
X220404Y327225D01*
X221159Y327100D01*
X222014Y327025D01*
X222969Y327000D01*
Y322000D01*
X222014Y321975D01*
X221159Y321900D01*
X220404Y321775D01*
X219750Y321600D01*
X219197Y321375D01*
X218744Y321100D01*
X218392Y320775D01*
X218140Y320400D01*
X217989Y319975D01*
X217939Y319500D01*
Y329500D01*
X217989Y329025D01*
D02*
G37*
G36*
X142504Y323653D02*
X142746Y319478D01*
X142811Y319232D01*
X142884Y319073D01*
X137116D01*
X137189Y319232D01*
X137254Y319478D01*
X137312Y319812D01*
X137362Y320234D01*
X137465Y322023D01*
X137500Y324599D01*
X142500D01*
X142504Y323653D01*
D02*
G37*
G36*
X104404D02*
X104646Y319478D01*
X104711Y319232D01*
X104784Y319073D01*
X99016D01*
X99089Y319232D01*
X99154Y319478D01*
X99212Y319812D01*
X99262Y320234D01*
X99365Y322023D01*
X99400Y324599D01*
X104400D01*
X104404Y323653D01*
D02*
G37*
G36*
X175132Y307750D02*
X175082Y308225D01*
X174931Y308650D01*
X174679Y309025D01*
X174327Y309350D01*
X173875Y309625D01*
X173321Y309850D01*
X172667Y310025D01*
X171913Y310150D01*
X171750Y310164D01*
X171587Y310150D01*
X170833Y310025D01*
X170179Y309850D01*
X169625Y309625D01*
X169173Y309350D01*
X168820Y309025D01*
X168569Y308650D01*
X168418Y308225D01*
X168368Y307750D01*
Y317750D01*
X168418Y317275D01*
X168569Y316850D01*
X168820Y316475D01*
X169173Y316150D01*
X169625Y315875D01*
X170179Y315650D01*
X170833Y315475D01*
X171587Y315350D01*
X171750Y315336D01*
X171913Y315350D01*
X172667Y315475D01*
X173321Y315650D01*
X173875Y315875D01*
X174327Y316150D01*
X174680Y316475D01*
X174931Y316850D01*
X175082Y317275D01*
X175132Y317750D01*
Y307750D01*
D02*
G37*
G36*
X124332D02*
X124282Y308225D01*
X124131Y308650D01*
X123879Y309025D01*
X123527Y309350D01*
X123075Y309625D01*
X122521Y309850D01*
X121867Y310025D01*
X121113Y310150D01*
X120950Y310164D01*
X120787Y310150D01*
X120033Y310025D01*
X119379Y309850D01*
X118825Y309625D01*
X118373Y309350D01*
X118020Y309025D01*
X117769Y308650D01*
X117618Y308225D01*
X117568Y307750D01*
Y317750D01*
X117618Y317275D01*
X117769Y316850D01*
X118020Y316475D01*
X118373Y316150D01*
X118825Y315875D01*
X119379Y315650D01*
X120033Y315475D01*
X120787Y315350D01*
X120950Y315336D01*
X121113Y315350D01*
X121867Y315475D01*
X122521Y315650D01*
X123075Y315875D01*
X123527Y316150D01*
X123879Y316475D01*
X124131Y316850D01*
X124282Y317275D01*
X124332Y317750D01*
Y307750D01*
D02*
G37*
G36*
X212500Y313500D02*
X218066D01*
X218497Y312230D01*
X217574Y311522D01*
X217574Y311522D01*
X208651Y302599D01*
X207449Y301032D01*
X206693Y299208D01*
X206435Y297250D01*
Y294992D01*
X206404Y294853D01*
X206401Y294750D01*
X202000D01*
Y265250D01*
X226000D01*
Y294750D01*
X223857D01*
X223371Y295923D01*
X226056Y298608D01*
X240577D01*
X242535Y298866D01*
X244360Y299621D01*
X245926Y300824D01*
X254849Y309746D01*
X254849Y309746D01*
X256051Y311313D01*
X256807Y313137D01*
X257065Y315095D01*
Y321045D01*
X258335Y321863D01*
X259625Y321693D01*
X268875D01*
X270604Y321921D01*
X272216Y322588D01*
X273600Y323650D01*
X273980Y324145D01*
X275250Y323714D01*
Y304000D01*
X281028D01*
X281242Y303854D01*
X281932Y302730D01*
X281500Y301119D01*
Y298881D01*
X282079Y296719D01*
X283198Y294781D01*
X284781Y293198D01*
X286719Y292079D01*
X288881Y291500D01*
X291119D01*
X293281Y292079D01*
X295219Y293198D01*
X296802Y294781D01*
X297921Y296719D01*
X298500Y298881D01*
Y301119D01*
X298068Y302730D01*
X298758Y303854D01*
X298972Y304000D01*
X303150D01*
Y252500D01*
X303551Y247400D01*
X304745Y242426D01*
X306703Y237700D01*
X309376Y233338D01*
X312304Y229909D01*
X311719Y228639D01*
X306254D01*
X304303Y228251D01*
X302649Y227146D01*
X298738Y223235D01*
X297565Y223720D01*
Y250000D01*
X297307Y251958D01*
X296551Y253782D01*
X295349Y255349D01*
X295349Y255349D01*
X285349Y265349D01*
X283782Y266551D01*
X281958Y267307D01*
X280000Y267565D01*
X244250D01*
X244250Y267565D01*
X242292Y267307D01*
X240468Y266551D01*
X238901Y265349D01*
X238901Y265349D01*
X229313Y255761D01*
X229204Y255694D01*
X227387Y254008D01*
X226852Y253580D01*
X212000D01*
X209585Y253262D01*
X207335Y252330D01*
X205403Y250847D01*
X203920Y248915D01*
X203382Y247616D01*
X202614Y247596D01*
X202474Y247565D01*
X199883D01*
X183372Y264077D01*
X183857Y265250D01*
X198000D01*
Y294750D01*
X193599D01*
X193596Y294853D01*
X193565Y294992D01*
Y300600D01*
X193307Y302558D01*
X192551Y304382D01*
X191349Y305949D01*
X191349Y305949D01*
X188386Y308912D01*
X188304Y309040D01*
X187436Y309940D01*
X186784Y310676D01*
X186292Y311296D01*
X186156Y311492D01*
Y313184D01*
X186165Y313250D01*
X186165Y313250D01*
Y314233D01*
X186239Y314340D01*
X187475Y315807D01*
X188304Y316666D01*
X188360Y316754D01*
X188443Y316816D01*
X188492Y316901D01*
X195827Y324235D01*
X197000Y323749D01*
Y313500D01*
X207500D01*
Y313531D01*
X207500Y313531D01*
X202500D01*
X202495Y314480D01*
X202270Y318081D01*
X202199Y318330D01*
X202120Y318480D01*
X202031Y318531D01*
X207500D01*
Y324500D01*
X212500D01*
Y313500D01*
D02*
G37*
G36*
X184634Y320205D02*
X183687Y319223D01*
X182186Y317441D01*
X181632Y316642D01*
X181210Y315905D01*
X180919Y315228D01*
X180759Y314613D01*
X180731Y314059D01*
X180834Y313566D01*
X181068Y313134D01*
X176027Y319884D01*
X176348Y319975D01*
X176707Y320127D01*
X177102Y320340D01*
X177533Y320613D01*
X178002Y320948D01*
X179048Y321799D01*
X180240Y322895D01*
X180892Y323534D01*
X184634Y320205D01*
D02*
G37*
G36*
X294525Y308981D02*
X294100Y308831D01*
X293725Y308580D01*
X293400Y308230D01*
X293125Y307780D01*
X292900Y307230D01*
X292725Y306581D01*
X292600Y305830D01*
X292525Y304981D01*
X292500Y304030D01*
X287500D01*
X287475Y304981D01*
X287400Y305830D01*
X287275Y306581D01*
X287100Y307230D01*
X286875Y307780D01*
X286600Y308230D01*
X286275Y308580D01*
X285900Y308831D01*
X285475Y308981D01*
X285000Y309030D01*
X295000D01*
X294525Y308981D01*
D02*
G37*
G36*
X180838Y312136D02*
X180739Y311640D01*
X180770Y311083D01*
X180931Y310466D01*
X181223Y309789D01*
X181645Y309052D01*
X182197Y308254D01*
X182879Y307397D01*
X183691Y306479D01*
X184634Y305502D01*
X181098Y301966D01*
X180454Y302596D01*
X178704Y304132D01*
X178182Y304527D01*
X177229Y305139D01*
X176798Y305357D01*
X176397Y305516D01*
X176027Y305616D01*
X181068Y312573D01*
X180838Y312136D01*
D02*
G37*
G36*
X456933Y315858D02*
X457493Y315389D01*
X457500Y315625D01*
X462500Y315642D01*
X462525Y314626D01*
X462600Y313725D01*
X462725Y312937D01*
X462900Y312263D01*
X463125Y311703D01*
X463400Y311257D01*
X463725Y310925D01*
X463982Y310776D01*
X464199Y310682D01*
X464525Y310602D01*
X465000Y310611D01*
X464514Y310547D01*
X464855Y310400D01*
X466099Y310072D01*
X467230Y309997D01*
X468247Y310177D01*
X469150Y310611D01*
X455359Y301467D01*
X455061Y302097D01*
X454665Y302792D01*
X454170Y303550D01*
X452883Y305257D01*
X451201Y307220D01*
X447937Y310642D01*
X455008Y317713D01*
X456933Y315858D01*
D02*
G37*
G36*
X117411Y306268D02*
X117346Y306022D01*
X117288Y305688D01*
X117238Y305266D01*
X117135Y303477D01*
X117100Y300901D01*
X112100D01*
X112096Y301847D01*
X111854Y306022D01*
X111789Y306268D01*
X111716Y306427D01*
X117484D01*
X117411Y306268D01*
D02*
G37*
G36*
X216525Y293764D02*
X216600Y292908D01*
X216725Y292154D01*
X216900Y291500D01*
X217125Y290947D01*
X217400Y290494D01*
X217725Y290142D01*
X218100Y289890D01*
X218525Y289739D01*
X219000Y289689D01*
X209000D01*
X209475Y289739D01*
X209900Y289890D01*
X210275Y290142D01*
X210600Y290494D01*
X210875Y290947D01*
X211100Y291500D01*
X211275Y292154D01*
X211400Y292908D01*
X211475Y293764D01*
X211500Y294720D01*
X216500D01*
X216525Y293764D01*
D02*
G37*
G36*
X188525D02*
X188600Y292908D01*
X188725Y292154D01*
X188900Y291500D01*
X189125Y290947D01*
X189400Y290494D01*
X189725Y290142D01*
X190100Y289890D01*
X190525Y289739D01*
X191000Y289689D01*
X181000D01*
X181475Y289739D01*
X181900Y289890D01*
X182275Y290142D01*
X182600Y290494D01*
X182875Y290947D01*
X183100Y291500D01*
X183275Y292154D01*
X183400Y292908D01*
X183475Y293764D01*
X183500Y294720D01*
X188500D01*
X188525Y293764D01*
D02*
G37*
G36*
X112970Y289720D02*
X106320Y289689D01*
X106639Y289732D01*
X106924Y289860D01*
X107177Y290071D01*
X107395Y290366D01*
X107580Y290746D01*
X107731Y291209D01*
X107849Y291756D01*
X107933Y292386D01*
X107983Y293101D01*
X108000Y293900D01*
X113000D01*
X112970Y289720D01*
D02*
G37*
G36*
X39914Y293195D02*
Y285307D01*
X39903Y285257D01*
X39818Y280277D01*
X39813Y280200D01*
X39000D01*
Y275509D01*
X38932Y275170D01*
X38985Y274905D01*
X38960Y274637D01*
X39000Y274509D01*
Y258200D01*
X37993Y257565D01*
X33133D01*
X17565Y273133D01*
Y284494D01*
X18835Y285227D01*
X20354Y284350D01*
X22100Y283882D01*
Y294600D01*
X27100D01*
Y283882D01*
X28846Y284350D01*
X31354Y285798D01*
X33402Y287846D01*
X34850Y290354D01*
X35600Y293152D01*
Y295712D01*
X36735Y296373D01*
X39914Y293195D01*
D02*
G37*
G36*
X55010Y283270D02*
X55475Y276070D01*
X55620Y275569D01*
X55785Y275270D01*
X55970Y275170D01*
X44030D01*
X44215Y275270D01*
X44380Y275569D01*
X44525Y276070D01*
X44651Y276770D01*
X44758Y277670D01*
X44913Y280070D01*
X45000Y285170D01*
X55000D01*
X55010Y283270D01*
D02*
G37*
G36*
X150281Y267031D02*
X150231Y267120D01*
X150080Y267199D01*
X149831Y267270D01*
X149480Y267331D01*
X149031Y267383D01*
X147080Y267481D01*
X145281Y267500D01*
Y272500D01*
X146235Y272525D01*
X147088Y272600D01*
X147842Y272725D01*
X148495Y272900D01*
X149049Y273125D01*
X149501Y273400D01*
X149854Y273725D01*
X150107Y274100D01*
X150259Y274525D01*
X150311Y275000D01*
X150281Y267031D01*
D02*
G37*
G36*
X169409Y273715D02*
X169271Y273258D01*
X169274Y272729D01*
X169418Y272129D01*
X169704Y271458D01*
X170132Y270715D01*
X170700Y269901D01*
X171411Y269015D01*
X173255Y267031D01*
X169720Y263495D01*
X168692Y264488D01*
X166849Y266050D01*
X166035Y266618D01*
X165292Y267046D01*
X164621Y267332D01*
X164021Y267476D01*
X163492Y267479D01*
X163035Y267341D01*
X162649Y267061D01*
X169689Y274102D01*
X169409Y273715D01*
D02*
G37*
G36*
X236208Y248422D02*
X235231Y247410D01*
X233696Y245595D01*
X233138Y244792D01*
X232720Y244058D01*
X232441Y243394D01*
X232303Y242800D01*
X232304Y242275D01*
X232445Y241820D01*
X232725Y241435D01*
X225685Y248475D01*
X226070Y248195D01*
X226525Y248054D01*
X227050Y248053D01*
X227644Y248191D01*
X228308Y248470D01*
X229042Y248888D01*
X229845Y249446D01*
X230718Y250143D01*
X232672Y251958D01*
X236208Y248422D01*
D02*
G37*
G36*
X207873Y235004D02*
X207822Y235478D01*
X207668Y235903D01*
X207411Y236277D01*
X207052Y236601D01*
X206591Y236876D01*
X206027Y237101D01*
X205360Y237275D01*
X204590Y237400D01*
X203719Y237475D01*
X202744Y237500D01*
Y242500D01*
X203719Y242525D01*
X204590Y242600D01*
X205360Y242725D01*
X206027Y242899D01*
X206591Y243124D01*
X207052Y243399D01*
X207411Y243723D01*
X207668Y244097D01*
X207822Y244522D01*
X207873Y244996D01*
Y235004D01*
D02*
G37*
G36*
Y205004D02*
X207822Y205478D01*
X207668Y205903D01*
X207411Y206277D01*
X207052Y206601D01*
X206591Y206876D01*
X206027Y207101D01*
X205360Y207275D01*
X204590Y207400D01*
X203719Y207475D01*
X202744Y207500D01*
Y212500D01*
X203719Y212525D01*
X204590Y212600D01*
X205360Y212725D01*
X206027Y212899D01*
X206591Y213124D01*
X207052Y213399D01*
X207411Y213723D01*
X207668Y214097D01*
X207822Y214522D01*
X207873Y214996D01*
Y205004D01*
D02*
G37*
G36*
X330650Y220301D02*
X335750Y219900D01*
X374703D01*
X380300Y215773D01*
Y204227D01*
X372442Y196368D01*
X334845D01*
X328680Y202533D01*
Y217899D01*
X330249Y220397D01*
X330650Y220301D01*
D02*
G37*
G36*
X227607Y184471D02*
X227053Y183853D01*
X226558Y183168D01*
X226123Y182415D01*
X225748Y181594D01*
X225432Y180706D01*
X225176Y179750D01*
X224980Y178726D01*
X224844Y177635D01*
X224767Y176476D01*
X224750Y175250D01*
X214850Y185149D01*
X216076Y185167D01*
X218326Y185380D01*
X219350Y185576D01*
X220306Y185832D01*
X221194Y186148D01*
X222015Y186523D01*
X222768Y186958D01*
X223454Y187453D01*
X224071Y188007D01*
X227607Y184471D01*
D02*
G37*
G36*
X490000Y260019D02*
Y250000D01*
X480000Y240000D01*
X460000D01*
X450000Y230000D01*
Y170000D01*
X440000Y160000D01*
X420000D01*
X410000Y170000D01*
X410000D01*
Y190000D01*
X397658Y202342D01*
X395480D01*
Y220272D01*
X395850Y220301D01*
X400824Y221495D01*
X405550Y223453D01*
X409912Y226126D01*
X413802Y229448D01*
X417124Y233338D01*
X419797Y237700D01*
X421755Y242426D01*
X422949Y247400D01*
X423350Y252500D01*
Y253351D01*
X434654Y264654D01*
X485365D01*
X490000Y260019D01*
D02*
G37*
G36*
X320000Y220287D02*
Y200000D01*
X330000Y190000D01*
X390000D01*
X400000Y180000D01*
Y170000D01*
X380000Y150000D01*
X280000D01*
X279750Y150250D01*
Y151627D01*
X279174Y154525D01*
X278043Y157255D01*
X276401Y159712D01*
X274312Y161801D01*
X271855Y163443D01*
X269125Y164573D01*
X266227Y165150D01*
X264850D01*
X254750Y175250D01*
Y176627D01*
X254174Y179525D01*
X253308Y181616D01*
X255043Y185085D01*
X277650D01*
X279608Y185343D01*
X281432Y186099D01*
X282999Y187301D01*
X285698Y190000D01*
X300000D01*
Y217287D01*
X306254Y223541D01*
X316746D01*
X320000Y220287D01*
D02*
G37*
G36*
X203452Y160155D02*
X204155Y159666D01*
X204898Y159281D01*
X205680Y159000D01*
X206501Y158823D01*
X207361Y158749D01*
X208260Y158780D01*
X209198Y158914D01*
X210175Y159153D01*
X211192Y159495D01*
X205335Y146779D01*
X204851Y148090D01*
X202942Y152435D01*
X202471Y153297D01*
X201537Y154753D01*
X201075Y155346D01*
X200614Y155850D01*
X202787Y160749D01*
X203452Y160155D01*
D02*
G37*
%LPC*%
G36*
X145500Y517500D02*
X137000D01*
Y507000D01*
X145500D01*
Y517500D01*
D02*
G37*
G36*
X333000Y465500D02*
X322500D01*
Y457000D01*
X333000D01*
Y465500D01*
D02*
G37*
G36*
Y452000D02*
X322500D01*
Y443500D01*
X333000D01*
Y452000D01*
D02*
G37*
G36*
X178000Y447500D02*
X168500D01*
Y435250D01*
X178000D01*
Y447500D01*
D02*
G37*
G36*
X163500D02*
X154000D01*
Y435250D01*
X163500D01*
Y447500D01*
D02*
G37*
G36*
X397679Y387500D02*
X393500D01*
Y382543D01*
X394467Y383537D01*
X397243Y386839D01*
X397679Y387500D01*
D02*
G37*
G36*
X491067Y347000D02*
X482500D01*
Y338933D01*
X483250D01*
X485273Y339199D01*
X487158Y339980D01*
X488777Y341223D01*
X490020Y342841D01*
X490801Y344727D01*
X491067Y346750D01*
Y347000D01*
D02*
G37*
G36*
X476500Y223000D02*
X468000D01*
Y212500D01*
X476500D01*
Y223000D01*
D02*
G37*
G36*
X106312Y223800D02*
X102888D01*
X99582Y222914D01*
X96618Y221203D01*
X94197Y218782D01*
X92486Y215818D01*
X91600Y212512D01*
Y209088D01*
X92486Y205782D01*
X94197Y202818D01*
X96618Y200397D01*
X99582Y198686D01*
X102888Y197800D01*
X106312D01*
X109618Y198686D01*
X112582Y200397D01*
X115003Y202818D01*
X116714Y205782D01*
X117600Y209088D01*
Y212512D01*
X116714Y215818D01*
X115003Y218782D01*
X112582Y221203D01*
X109618Y222914D01*
X106312Y223800D01*
D02*
G37*
G36*
X17500Y196000D02*
X5250D01*
Y186500D01*
X17500D01*
Y196000D01*
D02*
G37*
G36*
X84496Y239445D02*
X82258D01*
X80096Y238865D01*
X78158Y237746D01*
X76575Y236164D01*
X75457Y234226D01*
X75272Y233538D01*
X68651Y226916D01*
X67449Y225350D01*
X66693Y223525D01*
X66435Y221567D01*
Y214992D01*
X66404Y214853D01*
X66401Y214750D01*
X62000D01*
Y185250D01*
X86000D01*
Y214750D01*
X81599D01*
X81596Y214853D01*
X81565Y214992D01*
Y218434D01*
X85970Y222840D01*
X86658Y223024D01*
X88596Y224143D01*
X90179Y225725D01*
X91298Y227664D01*
X91877Y229825D01*
Y232064D01*
X91298Y234226D01*
X90179Y236164D01*
X88596Y237746D01*
X86658Y238865D01*
X84496Y239445D01*
D02*
G37*
G36*
X17500Y181500D02*
X5250D01*
Y172000D01*
X17500D01*
Y181500D01*
D02*
G37*
G36*
X481750Y177500D02*
X469250D01*
Y161000D01*
X481750D01*
Y177500D01*
D02*
G37*
G36*
X31119Y218500D02*
X28881D01*
X26719Y217921D01*
X24781Y216802D01*
X23198Y215219D01*
X22079Y213281D01*
X21500Y211119D01*
Y208881D01*
X22079Y206719D01*
X23198Y204781D01*
X24781Y203198D01*
X26719Y202079D01*
X28881Y201500D01*
X31119D01*
X32730Y201932D01*
X33854Y201242D01*
X34000Y201028D01*
Y196000D01*
X22500D01*
Y184000D01*
Y172000D01*
X33675D01*
X34443Y171125D01*
Y168000D01*
X5250D01*
Y144000D01*
X11028D01*
X11242Y143854D01*
X11932Y142730D01*
X11500Y141119D01*
Y138881D01*
X12079Y136719D01*
X13198Y134781D01*
X14781Y133198D01*
X16719Y132079D01*
X18881Y131500D01*
X21119D01*
X23281Y132079D01*
X25219Y133198D01*
X26802Y134781D01*
X27921Y136719D01*
X28500Y138881D01*
Y141119D01*
X28068Y142730D01*
X28758Y143854D01*
X28972Y144000D01*
X34750D01*
Y144204D01*
X34769Y144221D01*
X36020Y144645D01*
X36400Y144150D01*
X37784Y143088D01*
X39395Y142421D01*
X41125Y142193D01*
X50375D01*
X52105Y142421D01*
X53716Y143088D01*
X55100Y144150D01*
X56162Y145534D01*
X56830Y147146D01*
X57057Y148875D01*
Y152125D01*
X56830Y153855D01*
X56162Y155466D01*
X55100Y156850D01*
X53716Y157912D01*
X52105Y158580D01*
X50375Y158807D01*
X45410D01*
X44128Y159923D01*
X44449Y160984D01*
X44612Y161193D01*
X50375D01*
X52105Y161420D01*
X53716Y162088D01*
X55100Y163150D01*
X56162Y164534D01*
X56830Y166145D01*
X57057Y167875D01*
Y171125D01*
X56830Y172854D01*
X56162Y174466D01*
X55100Y175850D01*
X53716Y176912D01*
X53498Y177003D01*
X53492Y177062D01*
X53471Y177882D01*
X53440Y178021D01*
Y185008D01*
X53471Y185147D01*
X53474Y185250D01*
X58000D01*
Y214750D01*
X45948D01*
X45349Y215349D01*
X43782Y216551D01*
X41958Y217307D01*
X40000Y217565D01*
X33898D01*
X33281Y217921D01*
X31119Y218500D01*
D02*
G37*
G36*
X380750Y122593D02*
X372500D01*
Y108500D01*
X391593D01*
Y111750D01*
X391223Y114556D01*
X390140Y117171D01*
X388417Y119417D01*
X386171Y121140D01*
X383556Y122223D01*
X380750Y122593D01*
D02*
G37*
G36*
X367500D02*
X359250D01*
X356444Y122223D01*
X353829Y121140D01*
X351583Y119417D01*
X349860Y117171D01*
X348777Y114556D01*
X348407Y111750D01*
Y108500D01*
X367500D01*
Y122593D01*
D02*
G37*
G36*
X157112Y147600D02*
X153688D01*
X150382Y146714D01*
X147418Y145003D01*
X144997Y142582D01*
X143286Y139618D01*
X142400Y136312D01*
Y135063D01*
X142303Y134625D01*
X142289Y133940D01*
X142249Y133469D01*
X142184Y133053D01*
X142099Y132692D01*
X141998Y132377D01*
X141884Y132102D01*
X141756Y131856D01*
X141613Y131631D01*
X141448Y131417D01*
X141109Y131047D01*
X141046Y130944D01*
X134551Y124449D01*
X133349Y122882D01*
X132593Y121058D01*
X132335Y119100D01*
Y90100D01*
X132593Y88142D01*
X133349Y86318D01*
X134551Y84751D01*
X134756Y84546D01*
X134825Y84434D01*
X136640Y82488D01*
X136933Y82125D01*
Y76250D01*
X137199Y74227D01*
X137980Y72342D01*
X139223Y70723D01*
X140842Y69480D01*
X142727Y68699D01*
X144750Y68433D01*
X150250D01*
X152273Y68699D01*
X154158Y69480D01*
X155777Y70723D01*
X157020Y72342D01*
X157801Y74227D01*
X158067Y76250D01*
Y83750D01*
X157801Y85773D01*
X157020Y87658D01*
X155777Y89277D01*
X154158Y90520D01*
X152273Y91300D01*
X151779Y91366D01*
X151719Y91392D01*
X151553Y91395D01*
X150250Y91567D01*
X149753D01*
X149524Y91716D01*
X147465Y93444D01*
Y97500D01*
X148565Y98135D01*
X150382Y97086D01*
X153688Y96200D01*
X157112D01*
X160418Y97086D01*
X163382Y98797D01*
X165803Y101218D01*
X167514Y104182D01*
X168400Y107488D01*
Y110912D01*
X167514Y114218D01*
X165803Y117182D01*
X163382Y119603D01*
X160587Y121216D01*
X160496Y121900D01*
X160587Y122584D01*
X163382Y124197D01*
X165803Y126618D01*
X167514Y129582D01*
X168400Y132888D01*
Y136312D01*
X167514Y139618D01*
X165803Y142582D01*
X163382Y145003D01*
X160418Y146714D01*
X157112Y147600D01*
D02*
G37*
G36*
X391593Y103500D02*
X372500D01*
Y89407D01*
X380750D01*
X383556Y89777D01*
X386171Y90860D01*
X388417Y92583D01*
X390140Y94829D01*
X391223Y97444D01*
X391593Y100250D01*
Y103500D01*
D02*
G37*
G36*
X367500D02*
X348407D01*
Y100250D01*
X348777Y97444D01*
X349860Y94829D01*
X351583Y92583D01*
X353829Y90860D01*
X356444Y89777D01*
X359250Y89407D01*
X367500D01*
Y103500D01*
D02*
G37*
G36*
X78875Y168307D02*
X69625D01*
X67895Y168079D01*
X66284Y167412D01*
X64900Y166350D01*
X63838Y164966D01*
X63170Y163354D01*
X62943Y161625D01*
Y158375D01*
X63170Y156645D01*
X63838Y155034D01*
X64900Y153650D01*
X66284Y152588D01*
X67895Y151920D01*
X69625Y151693D01*
X74942D01*
X75000Y151685D01*
X75000Y151685D01*
X76519D01*
X77979Y150446D01*
X78902Y149554D01*
X78972Y149509D01*
X79022Y149441D01*
X79118Y149384D01*
X90246Y138256D01*
X90309Y138153D01*
X90648Y137783D01*
X90813Y137569D01*
X90956Y137344D01*
X91084Y137098D01*
X91198Y136823D01*
X91299Y136508D01*
X91384Y136147D01*
X91449Y135732D01*
X91489Y135260D01*
X91503Y134575D01*
X91600Y134137D01*
Y132888D01*
X92486Y129582D01*
X94197Y126618D01*
X96618Y124197D01*
X97878Y123470D01*
X97537Y122200D01*
X91600D01*
Y96200D01*
X112535D01*
Y92049D01*
X112097Y91663D01*
X111970Y91567D01*
X109750D01*
X107727Y91300D01*
X105842Y90520D01*
X104223Y89277D01*
X102980Y87658D01*
X102199Y85773D01*
X101933Y83750D01*
Y76250D01*
X102199Y74227D01*
X102980Y72342D01*
X104223Y70723D01*
X105842Y69480D01*
X107727Y68699D01*
X109750Y68433D01*
X115250D01*
X117273Y68699D01*
X119158Y69480D01*
X120777Y70723D01*
X122020Y72342D01*
X122801Y74227D01*
X123067Y76250D01*
Y80692D01*
X124407Y82277D01*
X125181Y83071D01*
X125216Y83126D01*
X125268Y83164D01*
X125335Y83272D01*
X125449Y83386D01*
X126651Y84953D01*
X127407Y86777D01*
X127665Y88735D01*
Y120306D01*
X127665Y120307D01*
X127407Y122264D01*
X126651Y124089D01*
X125449Y125656D01*
X125449Y125656D01*
X119312Y131793D01*
X119247Y131899D01*
X118904Y132271D01*
X118713Y132513D01*
X118535Y132781D01*
X118366Y133082D01*
X118208Y133421D01*
X118060Y133806D01*
X117926Y134240D01*
X117809Y134728D01*
X117712Y135271D01*
X117622Y135997D01*
X117600Y136065D01*
Y136312D01*
X116714Y139618D01*
X115003Y142582D01*
X112582Y145003D01*
X109618Y146714D01*
X106312Y147600D01*
X105063D01*
X104625Y147697D01*
X103940Y147711D01*
X103468Y147751D01*
X103053Y147816D01*
X102692Y147901D01*
X102377Y148002D01*
X102102Y148116D01*
X101856Y148244D01*
X101631Y148387D01*
X101417Y148552D01*
X101047Y148891D01*
X100944Y148954D01*
X89500Y160398D01*
X89405Y160540D01*
X87442Y162498D01*
X87422Y162512D01*
X87409Y162532D01*
X85354Y164544D01*
X85299Y164599D01*
X85294Y164603D01*
X84152Y165721D01*
X84038Y165796D01*
X83955Y165904D01*
X83915Y165940D01*
X83600Y166350D01*
X82216Y167412D01*
X80604Y168079D01*
X78875Y168307D01*
D02*
G37*
G36*
X266712Y92100D02*
X263288D01*
X259982Y91214D01*
X257018Y89502D01*
X254597Y87082D01*
X252886Y84118D01*
X252000Y80811D01*
Y77389D01*
X252886Y74082D01*
X254597Y71118D01*
X257018Y68697D01*
X259982Y66986D01*
X263288Y66100D01*
X266712D01*
X270018Y66986D01*
X272982Y68697D01*
X275403Y71118D01*
X277114Y74082D01*
X278000Y77389D01*
Y80811D01*
X277114Y84118D01*
X275403Y87082D01*
X272982Y89502D01*
X270018Y91214D01*
X266712Y92100D01*
D02*
G37*
G36*
X216712D02*
X213288D01*
X209982Y91214D01*
X207018Y89502D01*
X204597Y87082D01*
X202886Y84118D01*
X202000Y80811D01*
Y77389D01*
X202886Y74082D01*
X204597Y71118D01*
X207018Y68697D01*
X209982Y66986D01*
X213288Y66100D01*
X216712D01*
X220018Y66986D01*
X222982Y68697D01*
X225403Y71118D01*
X227114Y74082D01*
X228000Y77389D01*
Y80811D01*
X227114Y84118D01*
X225403Y87082D01*
X222982Y89502D01*
X220018Y91214D01*
X216712Y92100D01*
D02*
G37*
%LPD*%
G36*
X76525Y213764D02*
X76600Y212908D01*
X76725Y212154D01*
X76900Y211500D01*
X77125Y210947D01*
X77400Y210494D01*
X77725Y210142D01*
X78100Y209890D01*
X78525Y209739D01*
X79000Y209689D01*
X69000D01*
X69475Y209739D01*
X69900Y209890D01*
X70275Y210142D01*
X70600Y210494D01*
X70875Y210947D01*
X71100Y211500D01*
X71275Y212154D01*
X71400Y212908D01*
X71475Y213764D01*
X71500Y214720D01*
X76500D01*
X76525Y213764D01*
D02*
G37*
G36*
X50400Y190261D02*
X49975Y190110D01*
X49600Y189858D01*
X49275Y189506D01*
X49000Y189053D01*
X48775Y188500D01*
X48600Y187846D01*
X48475Y187092D01*
X48400Y186236D01*
X48375Y185280D01*
X43375D01*
X43350Y186236D01*
X43275Y187092D01*
X43150Y187846D01*
X42975Y188500D01*
X42750Y189053D01*
X42475Y189506D01*
X42150Y189858D01*
X41775Y190110D01*
X41350Y190261D01*
X40875Y190311D01*
X50875D01*
X50400Y190261D01*
D02*
G37*
G36*
X48400Y176778D02*
X48475Y175908D01*
X48600Y175140D01*
X48774Y174474D01*
X48998Y173910D01*
X49273Y173448D01*
X49597Y173088D01*
X49971Y172831D01*
X50395Y172675D01*
X50869Y172621D01*
X40881Y172671D01*
X41355Y172720D01*
X41779Y172870D01*
X42153Y173123D01*
X42477Y173478D01*
X42751Y173935D01*
X42976Y174494D01*
X43151Y175155D01*
X43275Y175918D01*
X43350Y176783D01*
X43375Y177751D01*
X48375D01*
X48400Y176778D01*
D02*
G37*
G36*
X29739Y160525D02*
X29890Y160100D01*
X30142Y159725D01*
X30494Y159400D01*
X30947Y159125D01*
X31500Y158900D01*
X32154Y158725D01*
X32908Y158600D01*
X33764Y158525D01*
X34720Y158500D01*
Y153500D01*
X33764Y153475D01*
X32908Y153400D01*
X32154Y153275D01*
X31500Y153100D01*
X30947Y152875D01*
X30494Y152600D01*
X30142Y152275D01*
X29890Y151900D01*
X29739Y151475D01*
X29689Y151000D01*
Y161000D01*
X29739Y160525D01*
D02*
G37*
G36*
X40367Y156437D02*
X42541Y154546D01*
X43122Y154135D01*
X43631Y153833D01*
X44069Y153640D01*
X44434Y153558D01*
X44728Y153584D01*
X44950Y153720D01*
X39623Y148253D01*
X39504Y148721D01*
X39330Y149207D01*
X39102Y149712D01*
X38818Y150234D01*
X38480Y150775D01*
X38087Y151334D01*
X37135Y152506D01*
X36577Y153119D01*
X35964Y153751D01*
X39499Y157286D01*
X40367Y156437D01*
D02*
G37*
G36*
X24525Y149011D02*
X24100Y148860D01*
X23725Y148608D01*
X23400Y148256D01*
X23125Y147803D01*
X22900Y147250D01*
X22725Y146596D01*
X22600Y145842D01*
X22525Y144986D01*
X22500Y144031D01*
X17500D01*
X17475Y144986D01*
X17400Y145842D01*
X17275Y146596D01*
X17100Y147250D01*
X16875Y147803D01*
X16600Y148256D01*
X16275Y148608D01*
X15900Y148860D01*
X15475Y149011D01*
X15000Y149061D01*
X25000D01*
X24525Y149011D01*
D02*
G37*
G36*
X155320Y126600D02*
X154469Y126583D01*
X153654Y126513D01*
X152874Y126390D01*
X152129Y126215D01*
X151420Y125988D01*
X150745Y125708D01*
X150106Y125376D01*
X149502Y124991D01*
X148934Y124554D01*
X148400Y124065D01*
X144865Y127600D01*
X145354Y128134D01*
X145791Y128702D01*
X146176Y129306D01*
X146508Y129945D01*
X146788Y130620D01*
X147015Y131329D01*
X147190Y132074D01*
X147313Y132854D01*
X147383Y133670D01*
X147400Y134520D01*
X155320Y126600D01*
D02*
G37*
G36*
X143223Y90348D02*
X146480Y87615D01*
X147390Y87020D01*
X148213Y86583D01*
X148947Y86304D01*
X149594Y86182D01*
X150153Y86219D01*
X150624Y86413D01*
X142037Y80922D01*
X142388Y81238D01*
X142582Y81639D01*
X142622Y82125D01*
X142506Y82696D01*
X142235Y83353D01*
X141810Y84094D01*
X141228Y84921D01*
X140492Y85832D01*
X138554Y87911D01*
X141961Y91574D01*
X143223Y90348D01*
D02*
G37*
G36*
X80426Y162219D02*
X80585Y162079D01*
X83841Y158890D01*
X85804Y156931D01*
X82444Y153220D01*
X81403Y154226D01*
X79544Y155805D01*
X78726Y156377D01*
X77983Y156805D01*
X77313Y157089D01*
X76719Y157228D01*
X76198Y157223D01*
X75752Y157074D01*
X75380Y156780D01*
X80377Y162247D01*
X80426Y162219D01*
D02*
G37*
G36*
X98134Y144646D02*
X98702Y144209D01*
X99306Y143824D01*
X99945Y143492D01*
X100620Y143212D01*
X101329Y142985D01*
X102074Y142810D01*
X102854Y142687D01*
X103670Y142617D01*
X104520Y142600D01*
X96600Y134680D01*
X96583Y135531D01*
X96513Y136346D01*
X96390Y137126D01*
X96215Y137871D01*
X95988Y138580D01*
X95708Y139255D01*
X95376Y139894D01*
X94991Y140498D01*
X94554Y141066D01*
X94065Y141600D01*
X97600Y145135D01*
X98134Y144646D01*
D02*
G37*
G36*
X112669Y134508D02*
X112818Y133681D01*
X113007Y132892D01*
X113239Y132141D01*
X113512Y131429D01*
X113827Y130754D01*
X114183Y130119D01*
X114581Y129521D01*
X115020Y128962D01*
X115501Y128441D01*
X112365Y124506D01*
X111822Y125003D01*
X111247Y125437D01*
X110641Y125808D01*
X110005Y126117D01*
X109337Y126363D01*
X108638Y126547D01*
X107908Y126668D01*
X107147Y126726D01*
X106355Y126722D01*
X105533Y126655D01*
X112563Y135374D01*
X112669Y134508D01*
D02*
G37*
G36*
X121529Y86628D02*
X120629Y85705D01*
X118655Y83370D01*
X118238Y82736D01*
X117942Y82175D01*
X117766Y81686D01*
X117711Y81270D01*
X117776Y80926D01*
X117963Y80654D01*
X111884Y86462D01*
X112165Y86286D01*
X112517Y86229D01*
X112938Y86289D01*
X113431Y86468D01*
X113993Y86766D01*
X114625Y87182D01*
X115328Y87716D01*
X116944Y89139D01*
X117858Y90028D01*
X121529Y86628D01*
D02*
G37*
%LPC*%
G36*
X286511Y429703D02*
X283934Y429694D01*
X284287Y429437D01*
X284747Y429295D01*
X285277D01*
X285878Y429437D01*
X286511Y429703D01*
D02*
G37*
G36*
X51448Y441800D02*
X48552D01*
X45754Y441050D01*
X43246Y439602D01*
X41198Y437554D01*
X39750Y435046D01*
X39000Y432248D01*
Y429352D01*
X39750Y426554D01*
X41198Y424046D01*
X43246Y421998D01*
X45754Y420550D01*
X48552Y419800D01*
X51448D01*
X54246Y420550D01*
X56754Y421998D01*
X58802Y424046D01*
X60250Y426554D01*
X61000Y429352D01*
Y432248D01*
X60250Y435046D01*
X58802Y437554D01*
X56754Y439602D01*
X54246Y441050D01*
X51448Y441800D01*
D02*
G37*
G36*
X27100Y416118D02*
Y407900D01*
X35318D01*
X34850Y409646D01*
X33402Y412154D01*
X31354Y414202D01*
X28846Y415650D01*
X27100Y416118D01*
D02*
G37*
G36*
X35318Y402900D02*
X27100D01*
Y394682D01*
X28846Y395150D01*
X31354Y396598D01*
X33402Y398646D01*
X34850Y401154D01*
X35318Y402900D01*
D02*
G37*
G36*
X77500Y348000D02*
X65250D01*
Y338500D01*
X77500D01*
Y348000D01*
D02*
G37*
G36*
Y333500D02*
X65250D01*
Y324000D01*
X77500D01*
Y333500D01*
D02*
G37*
G36*
X157500Y258000D02*
X145250D01*
Y248500D01*
X157500D01*
Y258000D01*
D02*
G37*
G36*
X277330Y237500D02*
X262250D01*
Y226420D01*
X268000D01*
X270415Y226738D01*
X272665Y227670D01*
X274597Y229153D01*
X276080Y231085D01*
X277012Y233335D01*
X277330Y235750D01*
Y237500D01*
D02*
G37*
G36*
X257250D02*
X242170D01*
Y235750D01*
X242488Y233335D01*
X243420Y231085D01*
X244903Y229153D01*
X246835Y227670D01*
X249085Y226738D01*
X251500Y226420D01*
X257250D01*
Y237500D01*
D02*
G37*
G36*
X268000Y223580D02*
X262250D01*
Y212500D01*
X277330D01*
Y214250D01*
X277012Y216665D01*
X276080Y218915D01*
X274597Y220847D01*
X272665Y222330D01*
X270415Y223262D01*
X268000Y223580D01*
D02*
G37*
G36*
X257250D02*
X251500D01*
X249085Y223262D01*
X246835Y222330D01*
X244903Y220847D01*
X243420Y218915D01*
X242488Y216665D01*
X242170Y214250D01*
Y212500D01*
X257250D01*
Y223580D01*
D02*
G37*
%LPD*%
D15*
X178100Y367250D02*
D03*
X165400D02*
D03*
X152700D02*
D03*
X140000D02*
D03*
X127300D02*
D03*
X114600D02*
D03*
X101900D02*
D03*
X178100Y312750D02*
D03*
X165400D02*
D03*
X152700D02*
D03*
X140000D02*
D03*
X127300D02*
D03*
X114600D02*
D03*
X101900D02*
D03*
X211900Y442750D02*
D03*
X224600D02*
D03*
X237300D02*
D03*
X250000D02*
D03*
X262700D02*
D03*
X275400D02*
D03*
X288100D02*
D03*
X211900Y497250D02*
D03*
X224600D02*
D03*
X237300D02*
D03*
X250000D02*
D03*
X262700D02*
D03*
X275400D02*
D03*
X288100D02*
D03*
D16*
X363250Y280000D02*
D03*
D17*
X470500Y305400D02*
D03*
Y280000D02*
D03*
Y254600D02*
D03*
D18*
X460000Y350750D02*
D03*
Y369250D02*
D03*
D19*
X20000Y184000D02*
D03*
Y156000D02*
D03*
X320000Y424000D02*
D03*
Y396000D02*
D03*
X290000Y316000D02*
D03*
Y344000D02*
D03*
Y366000D02*
D03*
Y394000D02*
D03*
X80000Y364000D02*
D03*
Y336000D02*
D03*
X160000Y274000D02*
D03*
Y246000D02*
D03*
X130000Y416000D02*
D03*
Y444000D02*
D03*
D20*
X46000Y200000D02*
D03*
X74000D02*
D03*
X284000Y420000D02*
D03*
X256000D02*
D03*
X166000Y480000D02*
D03*
X194000D02*
D03*
Y450000D02*
D03*
X166000D02*
D03*
X206000Y420000D02*
D03*
X234000D02*
D03*
X364000Y520000D02*
D03*
X336000D02*
D03*
X314000D02*
D03*
X286000D02*
D03*
X214000D02*
D03*
X186000D02*
D03*
X264000D02*
D03*
X236000D02*
D03*
X76000Y410000D02*
D03*
X104000D02*
D03*
X186000Y280000D02*
D03*
X214000D02*
D03*
X106000D02*
D03*
X134000D02*
D03*
X176000Y390000D02*
D03*
X204000D02*
D03*
X104000Y440000D02*
D03*
X76000D02*
D03*
D21*
X74250Y160000D02*
D03*
X45750Y150500D02*
D03*
Y169500D02*
D03*
X374250Y410000D02*
D03*
X345750Y400500D02*
D03*
Y419500D02*
D03*
X374250Y470000D02*
D03*
X345750Y460500D02*
D03*
Y479500D02*
D03*
X264250Y330000D02*
D03*
X235750Y320500D02*
D03*
Y339500D02*
D03*
X264250Y380000D02*
D03*
X235750Y370500D02*
D03*
Y389500D02*
D03*
D22*
X311500Y210000D02*
D03*
X340000D02*
D03*
D23*
X112500Y80000D02*
D03*
X147500D02*
D03*
X370000Y210000D02*
D03*
X405000D02*
D03*
D24*
X480000Y370500D02*
D03*
Y349500D02*
D03*
D25*
X259750Y240000D02*
D03*
X220250D02*
D03*
X259750Y210000D02*
D03*
X220250D02*
D03*
D26*
X370000Y106000D02*
D03*
Y174000D02*
D03*
D27*
X430000Y455500D02*
D03*
Y424500D02*
D03*
X320000Y485500D02*
D03*
Y454500D02*
D03*
X210000Y324500D02*
D03*
Y355500D02*
D03*
D28*
X354500Y440000D02*
D03*
X385500D02*
D03*
X165500Y520000D02*
D03*
X134500D02*
D03*
X435500Y390000D02*
D03*
X404500D02*
D03*
X434500Y210000D02*
D03*
X465500D02*
D03*
D29*
X396500Y360000D02*
D03*
X430000D02*
D03*
X466750Y180000D02*
D03*
X433250D02*
D03*
D56*
X214750Y175150D02*
X232250Y192650D01*
X250430D01*
X250430Y192650D02*
X277650D01*
X250430Y192650D02*
X250430Y192650D01*
X277650D02*
X290000Y205000D01*
X194000Y480000D02*
Y481750D01*
X189500Y486250D02*
X194000Y481750D01*
X181500Y486250D02*
X189500D01*
X263200Y497750D02*
Y520800D01*
X210000Y355500D02*
X238905D01*
X208000D02*
X210000D01*
X110000Y490000D02*
X120000Y480000D01*
X166000D01*
X194000Y450000D02*
Y477250D01*
X224100Y443250D02*
Y450528D01*
X194000Y477250D02*
X198500Y472750D01*
X194000Y477250D02*
Y480000D01*
X224100Y443250D02*
X224600Y442750D01*
X201878Y472750D02*
X224100Y450528D01*
X198500Y472750D02*
X201878D01*
X397777Y440000D02*
X403888Y433888D01*
X385500Y440000D02*
X397777D01*
X390750Y420750D02*
X403888Y433888D01*
X403888Y453888D02*
X428388D01*
X403888Y453888D02*
X403888Y453888D01*
X251500Y415500D02*
X256000Y420000D01*
Y417250D02*
Y420000D01*
X348166Y431666D02*
X354500Y438000D01*
X348166Y420084D02*
Y431666D01*
Y420084D02*
X348750Y419500D01*
X343500Y445521D02*
X343521Y445500D01*
X351000D01*
X354500Y442000D01*
Y438000D02*
Y442000D01*
X342750Y419500D02*
X348750D01*
X338250Y424000D02*
X342750Y419500D01*
X428388Y453888D02*
X430000Y455500D01*
X403888Y433888D02*
Y453888D01*
X365845Y420750D02*
X390750D01*
X361500Y381500D02*
X370477Y390477D01*
Y394619D01*
X360500Y404595D02*
X370477Y394619D01*
X360500Y404595D02*
Y415405D01*
X305250Y381500D02*
X361500D01*
X360500Y415405D02*
X365845Y420750D01*
X413500Y410000D02*
X428000Y424500D01*
X374250Y410000D02*
X413500D01*
X415698Y436802D02*
X428000Y424500D01*
X415219Y436802D02*
X415698D01*
X301500Y519158D02*
X313158D01*
X314000Y520000D01*
X434500Y389000D02*
X435500Y390000D01*
X460000D01*
X239000Y370250D02*
X264250Y345000D01*
X239000Y370250D02*
X249750D01*
X236000D02*
X239000D01*
X249750D02*
X250000Y370000D01*
X235750Y370500D02*
X236000Y370250D01*
X140500Y356616D02*
X148558Y348558D01*
X140000Y367250D02*
X140500Y366750D01*
Y356616D02*
Y366750D01*
X195000Y165000D02*
X213950Y146050D01*
X214750D01*
X20000Y140000D02*
Y156000D01*
X41500Y204250D02*
X45875Y199875D01*
X41500Y204250D02*
Y208500D01*
X40000Y210000D02*
X41500Y208500D01*
X30000Y210000D02*
X40000D01*
X200393Y339500D02*
X232750D01*
X235750D01*
X228133Y344117D02*
X232750Y339500D01*
X225257Y344117D02*
X228133D01*
X224874Y344500D02*
X225257Y344117D01*
X176000Y390000D02*
X188500D01*
X393071Y363429D02*
X396500Y360000D01*
X393071Y378571D02*
X399000Y384500D01*
X404500Y388000D02*
Y390000D01*
X401000Y384500D02*
X404500Y388000D01*
X393071Y363429D02*
Y378571D01*
X399000Y384500D02*
X401000D01*
X205000Y309923D02*
Y321000D01*
X208500Y324500D01*
X210000D01*
X202074Y306997D02*
X205000Y309923D01*
X202074Y306456D02*
Y306997D01*
X290000Y205000D02*
Y250000D01*
X195000Y165000D02*
Y184750D01*
X211330Y201080D01*
X74000Y200000D02*
Y221567D01*
X83377Y230945D01*
X20354Y300740D02*
Y304850D01*
Y300740D02*
X24600Y296494D01*
Y294600D02*
Y296494D01*
X342000Y399750D02*
X342750Y400500D01*
X342000Y396750D02*
Y399750D01*
X341383Y396133D02*
X342000Y396750D01*
X342750Y400500D02*
X345750D01*
X341383Y393400D02*
Y396133D01*
X341000Y393017D02*
X341383Y393400D01*
X153200Y322659D02*
X160000Y329459D01*
X152700Y312750D02*
X153200Y313250D01*
Y322659D01*
X160000Y329459D02*
Y330000D01*
X262567Y442883D02*
Y459784D01*
Y442883D02*
X262700Y442750D01*
X221500Y420000D02*
X234000D01*
X320000Y396000D02*
X338250D01*
X270172Y482500D02*
X293328D01*
X296328Y485500D02*
X320000D01*
X263200Y489472D02*
X270172Y482500D01*
X293328D02*
X296328Y485500D01*
X128024Y520090D02*
X128114Y520000D01*
X134500D01*
X180000D02*
X186000D01*
X152700Y394057D02*
X165893Y407250D01*
X204000Y390000D02*
Y392750D01*
X189500Y407250D02*
X204000Y392750D01*
X165893Y407250D02*
X189500D01*
X152700Y367250D02*
Y394057D01*
X82750Y364000D02*
X101900Y344850D01*
Y312750D02*
Y344850D01*
X80000Y364000D02*
X82750D01*
X202500Y350000D02*
X208000Y355500D01*
X153200Y359472D02*
X162672Y350000D01*
X202500D01*
X262700Y497250D02*
X263200Y497750D01*
X262700Y497250D02*
X263200Y496750D01*
Y489472D02*
Y496750D01*
X346500Y459750D02*
X351000D01*
X345750Y460500D02*
X346500Y459750D01*
X351000D02*
X351027Y459723D01*
X361677D01*
X190000Y420000D02*
X206000D01*
X228750Y324500D02*
X232750Y320500D01*
X235750D01*
X210000Y324500D02*
X228750D01*
X238905Y355500D02*
X249500Y344905D01*
Y315095D02*
Y344905D01*
X240577Y306173D02*
X249500Y315095D01*
X222923Y306173D02*
X240577D01*
X214000Y297250D02*
X222923Y306173D01*
X214000Y280000D02*
Y297250D01*
X292750Y394000D02*
X305250Y381500D01*
X290000Y394000D02*
X292750D01*
X211500Y400250D02*
X241607D01*
X251500Y410143D01*
Y415500D01*
X204000Y392750D02*
X211500Y400250D01*
X290000Y300000D02*
Y316000D01*
X211900Y497250D02*
X212400Y496750D01*
Y487956D02*
Y496750D01*
Y487956D02*
X220000Y480356D01*
Y480000D02*
Y480356D01*
X290000Y344000D02*
Y366000D01*
X123650Y385606D02*
Y385809D01*
Y385606D02*
X127300Y381956D01*
Y367250D02*
Y381956D01*
X178600Y313250D02*
Y317707D01*
X200393Y339500D01*
X178100Y312750D02*
X178600Y313250D01*
X256000Y417250D02*
X274750Y398500D01*
X285500D01*
X290000Y394000D01*
X224250Y240000D02*
X244250Y260000D01*
X220250Y240000D02*
X224250D01*
X244250Y260000D02*
X280000D01*
X290000Y250000D01*
X200000Y210000D02*
X217197D01*
X211330Y201080D02*
Y204133D01*
X217197Y210000D02*
X220250D01*
X211330Y204133D02*
X217197Y210000D01*
X196750Y240000D02*
X220250D01*
X162750Y274000D02*
X196750Y240000D01*
X160000Y274000D02*
X162750D01*
X134000Y277250D02*
X141250Y270000D01*
X156000D01*
X160000Y274000D01*
X134000Y277250D02*
Y280000D01*
X180000Y230000D02*
X200000Y210000D01*
X140000Y230000D02*
X180000D01*
X120000Y250000D02*
X140000Y230000D01*
X104000Y440000D02*
X108000Y444000D01*
X30000Y250000D02*
X120000D01*
X10000Y270000D02*
X30000Y250000D01*
X10000Y427500D02*
X40000Y457500D01*
X10000Y270000D02*
Y427500D01*
X40000Y457500D02*
X89250D01*
X104000Y440000D02*
Y442750D01*
X89250Y457500D02*
X104000Y442750D01*
X287600Y426350D02*
Y442250D01*
Y426350D02*
X300000Y438750D01*
X284000Y422750D02*
X287600Y426350D01*
X284000Y420000D02*
Y422750D01*
X300000Y438750D02*
Y460000D01*
X140000Y312750D02*
Y330000D01*
X76000Y368000D02*
Y390000D01*
X100000D01*
X114100Y375900D01*
X460000Y308141D02*
Y350750D01*
X460625Y369875D02*
X479375D01*
X480000Y370500D01*
X460000Y369250D02*
X460625Y369875D01*
X108000Y444000D02*
X130000D01*
X169000Y509643D02*
X181393Y497250D01*
X211900D01*
X165500Y520000D02*
X169000Y516500D01*
Y509643D02*
Y516500D01*
X225000Y520000D02*
X236000D01*
X214000D02*
X225000D01*
X224600Y497250D02*
Y519600D01*
X225000Y520000D01*
X298600Y501850D02*
X314000Y517250D01*
X288600Y501850D02*
X298600D01*
X288100Y501350D02*
X288600Y501850D01*
X314000Y517250D02*
Y520000D01*
X288100Y497250D02*
Y501350D01*
X314000Y520000D02*
X336000D01*
X345750Y479500D02*
X348750D01*
X364000Y494750D01*
Y520000D01*
X320000Y424000D02*
X338250D01*
X264250Y380000D02*
X267250D01*
X276750Y370500D01*
X285500D01*
X290000Y366000D01*
X264250Y330000D02*
Y345000D01*
X287600Y442250D02*
X288100Y442750D01*
X212250Y369000D02*
X232750Y389500D01*
X178600Y369000D02*
X212250D01*
X232750Y389500D02*
X235750D01*
X178100Y368500D02*
X178600Y369000D01*
X206000Y422750D02*
X211900Y428650D01*
Y442750D01*
X206000Y420000D02*
Y422750D01*
X211400Y443625D02*
X211900Y443125D01*
Y442750D02*
Y443125D01*
X132750Y416000D02*
X140000Y408750D01*
Y367250D02*
Y408750D01*
X114100Y367750D02*
X114600Y367250D01*
X114100Y367750D02*
Y375900D01*
X76000Y405850D02*
X77400D01*
X76000Y390000D02*
Y410000D01*
Y368000D02*
X80000Y364000D01*
X132528Y352500D02*
X139500Y359472D01*
X102400D02*
X109372Y352500D01*
X132528D01*
X102400Y359472D02*
Y366750D01*
X139500Y359472D02*
Y366750D01*
X140000Y367250D01*
X101900D02*
X102400Y366750D01*
X130000Y416000D02*
X132750D01*
X177600Y367750D02*
Y388400D01*
Y367750D02*
X178100Y367250D01*
X176000Y390000D02*
X177600Y388400D01*
X165400Y367250D02*
X178100D01*
X152700D02*
X153200Y366750D01*
Y359472D02*
Y366750D01*
X165400Y312750D02*
X178100D01*
Y308500D02*
X186000Y300600D01*
Y280000D02*
Y300600D01*
X178100Y308500D02*
Y312750D01*
X114600D02*
X127300D01*
X106000Y280000D02*
X110500Y284500D01*
Y293900D01*
X114600Y298000D01*
Y312750D01*
X45875Y169625D02*
Y199875D01*
X45750Y169500D02*
X45875Y169625D01*
X37250Y156000D02*
X42750Y150500D01*
X45750D01*
X20000Y156000D02*
X37250D01*
X144654Y82846D02*
X147500Y80000D01*
X139900Y90100D02*
X144654Y85346D01*
X139900Y90100D02*
Y119100D01*
X144654Y82846D02*
Y85346D01*
X139900Y119100D02*
X155400Y134600D01*
X112500Y80000D02*
Y81135D01*
X120100Y88735D01*
X105807Y134600D02*
X120100Y120307D01*
X104600Y134600D02*
X105807D01*
X120100Y88735D02*
Y120307D01*
X79950Y159250D02*
X104600Y134600D01*
X75000Y159250D02*
X79950D01*
X74250Y160000D02*
X75000Y159250D01*
D57*
X388250Y455500D02*
X424500D01*
X262000Y522000D02*
Y534142D01*
X256142Y540000D02*
X262000Y534142D01*
X125858Y540000D02*
X256142D01*
X110000Y524142D02*
X125858Y540000D01*
X110000Y490000D02*
Y524142D01*
X374250Y469500D02*
X388250Y455500D01*
X431000Y454500D02*
X435500D01*
X450000Y440000D01*
Y416358D02*
Y440000D01*
X436500Y402858D02*
X450000Y416358D01*
X430000Y455500D02*
X431000Y454500D01*
X435500Y390000D02*
X436500Y391000D01*
Y402858D01*
X34000Y364000D02*
X50000Y380000D01*
X34000Y313373D02*
Y364000D01*
Y313373D02*
X50000Y297373D01*
Y269200D02*
Y297373D01*
X264000Y520000D02*
X286000D01*
Y522750D01*
X295787Y532537D01*
Y532679D01*
X303108Y540000D01*
X380000D01*
X390000Y530000D01*
Y486250D02*
Y530000D01*
X374250Y470000D02*
Y470500D01*
X390000Y486250D01*
X374250Y469500D02*
Y470000D01*
X434500Y364500D02*
Y389000D01*
X430000Y360000D02*
X434500Y364500D01*
X434650Y331000D02*
X460250Y305400D01*
X430000Y360000D02*
X434650Y355350D01*
Y331000D02*
Y355350D01*
X155400Y109200D02*
X157024D01*
D58*
X155400Y210800D02*
D03*
Y134600D02*
D03*
Y109200D02*
D03*
X104600Y210800D02*
D03*
Y134600D02*
D03*
D59*
Y109200D02*
D03*
D60*
X50000Y269200D02*
D03*
Y380000D02*
D03*
D61*
Y320000D02*
D03*
X24600Y294600D02*
D03*
X50000Y430800D02*
D03*
X24600Y405400D02*
D03*
D62*
X450000Y100000D02*
D03*
X50000D02*
D03*
X450000Y500000D02*
D03*
X50000D02*
D03*
D63*
X214750Y175150D02*
D03*
Y150150D02*
D03*
X239750Y175150D02*
D03*
X264750Y150150D02*
D03*
X239750D02*
D03*
D64*
X264750Y175150D02*
D03*
D65*
X265000Y79100D02*
D03*
X215000D02*
D03*
D66*
X181500Y486250D02*
D03*
X343500Y445521D02*
D03*
X415219Y436802D02*
D03*
X470500Y254600D02*
D03*
X301500Y519158D02*
D03*
X460000Y390000D02*
D03*
X250000Y370000D02*
D03*
X148558Y348558D02*
D03*
X290000Y344000D02*
D03*
X160000Y520000D02*
D03*
X210000D02*
D03*
X100000Y280000D02*
D03*
X20000Y140000D02*
D03*
X30000Y210000D02*
D03*
X224874Y344500D02*
D03*
X80000Y364000D02*
D03*
X188500Y390000D02*
D03*
X202074Y306456D02*
D03*
X450000Y127500D02*
D03*
X470000Y120000D02*
D03*
X477500Y100000D02*
D03*
X470000Y80000D02*
D03*
X450000Y72500D02*
D03*
X430000Y80000D02*
D03*
X422500Y100000D02*
D03*
X430000Y120000D02*
D03*
X50000Y127500D02*
D03*
X70000Y120000D02*
D03*
X77500Y100000D02*
D03*
X70000Y80000D02*
D03*
X50000Y72500D02*
D03*
X30000Y80000D02*
D03*
X22500Y100000D02*
D03*
X30000Y120000D02*
D03*
X450000Y527500D02*
D03*
X470000Y520000D02*
D03*
X477500Y500000D02*
D03*
X470000Y480000D02*
D03*
X450000Y472500D02*
D03*
X430000Y480000D02*
D03*
X422500Y500000D02*
D03*
X430000Y520000D02*
D03*
X50000Y527500D02*
D03*
X70000Y520000D02*
D03*
X77500Y500000D02*
D03*
X70000Y480000D02*
D03*
X50000Y472500D02*
D03*
X30000Y480000D02*
D03*
X22500Y500000D02*
D03*
X30000Y520000D02*
D03*
X83377Y230945D02*
D03*
X262567Y459784D02*
D03*
X221500Y420000D02*
D03*
X341000Y393017D02*
D03*
X128024Y520090D02*
D03*
X180000Y520000D02*
D03*
X361677Y459723D02*
D03*
X190000Y420000D02*
D03*
X110000Y490000D02*
D03*
X100000Y420000D02*
D03*
X290000Y300000D02*
D03*
X220000Y480000D02*
D03*
X123650Y385809D02*
D03*
X300000Y460000D02*
D03*
X140000Y330000D02*
D03*
D67*
X170000Y340000D02*
D03*
M02*
