G04*
G04 #@! TF.GenerationSoftware,Altium Limited,Altium Designer,22.11.1 (43)*
G04*
G04 Layer_Color=255*
%FSLAX44Y44*%
%MOMM*%
G71*
G04*
G04 #@! TF.SameCoordinates,75D7284C-96A1-4F7D-B096-18610DFFEBA5*
G04*
G04*
G04 #@! TF.FilePolarity,Positive*
G04*
G01*
G75*
%ADD58C,1.6000*%
%ADD59R,1.6000X1.6000*%
%ADD60R,1.2000X1.2000*%
%ADD61C,1.2000*%
%ADD62C,7.0000*%
%ADD63C,2.0000*%
G04:AMPARAMS|DCode=64|XSize=2mm|YSize=2mm|CornerRadius=0.5mm|HoleSize=0mm|Usage=FLASHONLY|Rotation=0.000|XOffset=0mm|YOffset=0mm|HoleType=Round|Shape=RoundedRectangle|*
%AMROUNDEDRECTD64*
21,1,2.0000,1.0000,0,0,0.0*
21,1,1.0000,2.0000,0,0,0.0*
1,1,1.0000,0.5000,-0.5000*
1,1,1.0000,-0.5000,-0.5000*
1,1,1.0000,-0.5000,0.5000*
1,1,1.0000,0.5000,0.5000*
%
%ADD64ROUNDEDRECTD64*%
%ADD65C,1.5240*%
D58*
X155400Y210800D02*
D03*
Y134600D02*
D03*
Y109200D02*
D03*
X104600Y210800D02*
D03*
Y134600D02*
D03*
D59*
Y109200D02*
D03*
D60*
X50000Y269200D02*
D03*
Y380000D02*
D03*
D61*
Y320000D02*
D03*
X24600Y294600D02*
D03*
X50000Y430800D02*
D03*
X24600Y405400D02*
D03*
D62*
X450000Y100000D02*
D03*
X50000D02*
D03*
X450000Y500000D02*
D03*
X50000D02*
D03*
D63*
X360000Y410000D02*
D03*
X70000Y350000D02*
D03*
X240000Y390000D02*
D03*
X30000Y150000D02*
D03*
Y190000D02*
D03*
X77105Y146707D02*
D03*
X80000Y320000D02*
D03*
X180000Y150000D02*
D03*
X200000Y210000D02*
D03*
X180000Y110000D02*
D03*
X20000Y440000D02*
D03*
X440000Y280000D02*
D03*
X400000Y400000D02*
D03*
X290000Y190000D02*
D03*
X380000Y80000D02*
D03*
X270000Y390000D02*
D03*
X101900Y344850D02*
D03*
X200000Y520000D02*
D03*
X80000Y280000D02*
D03*
X370000Y520000D02*
D03*
X300000Y380000D02*
D03*
X200000Y390000D02*
D03*
X170000Y180000D02*
D03*
X264424Y355625D02*
D03*
X150000Y520000D02*
D03*
X321400Y500000D02*
D03*
X160000Y470000D02*
D03*
X214750Y175150D02*
D03*
Y150150D02*
D03*
X239750Y175150D02*
D03*
X264750Y150150D02*
D03*
X239750D02*
D03*
D64*
X264750Y175150D02*
D03*
D65*
X265000Y79100D02*
D03*
X215000D02*
D03*
M02*
