G04*
G04 #@! TF.GenerationSoftware,Altium Limited,Altium Designer,22.11.1 (43)*
G04*
G04 Layer_Color=255*
%FSLAX44Y44*%
%MOMM*%
G71*
G04*
G04 #@! TF.SameCoordinates,75D7284C-96A1-4F7D-B096-18610DFFEBA5*
G04*
G04*
G04 #@! TF.FilePolarity,Positive*
G04*
G01*
G75*
G04:AMPARAMS|DCode=15|XSize=0.6mm|YSize=1.45mm|CornerRadius=0.15mm|HoleSize=0mm|Usage=FLASHONLY|Rotation=0.000|XOffset=0mm|YOffset=0mm|HoleType=Round|Shape=RoundedRectangle|*
%AMROUNDEDRECTD15*
21,1,0.6000,1.1500,0,0,0.0*
21,1,0.3000,1.4500,0,0,0.0*
1,1,0.3000,0.1500,-0.5750*
1,1,0.3000,-0.1500,-0.5750*
1,1,0.3000,-0.1500,0.5750*
1,1,0.3000,0.1500,0.5750*
%
%ADD15ROUNDEDRECTD15*%
G04:AMPARAMS|DCode=16|XSize=11mm|YSize=11mm|CornerRadius=2.75mm|HoleSize=0mm|Usage=FLASHONLY|Rotation=270.000|XOffset=0mm|YOffset=0mm|HoleType=Round|Shape=RoundedRectangle|*
%AMROUNDEDRECTD16*
21,1,11.0000,5.5000,0,0,270.0*
21,1,5.5000,11.0000,0,0,270.0*
1,1,5.5000,-2.7500,-2.7500*
1,1,5.5000,-2.7500,2.7500*
1,1,5.5000,2.7500,2.7500*
1,1,5.5000,2.7500,-2.7500*
%
%ADD16ROUNDEDRECTD16*%
G04:AMPARAMS|DCode=17|XSize=1.05mm|YSize=3.1mm|CornerRadius=0.2625mm|HoleSize=0mm|Usage=FLASHONLY|Rotation=270.000|XOffset=0mm|YOffset=0mm|HoleType=Round|Shape=RoundedRectangle|*
%AMROUNDEDRECTD17*
21,1,1.0500,2.5750,0,0,270.0*
21,1,0.5250,3.1000,0,0,270.0*
1,1,0.5250,-1.2875,-0.2625*
1,1,0.5250,-1.2875,0.2625*
1,1,0.5250,1.2875,0.2625*
1,1,0.5250,1.2875,-0.2625*
%
%ADD17ROUNDEDRECTD17*%
%ADD18R,1.3500X1.1500*%
%ADD19R,1.9500X1.4000*%
%ADD20R,1.4000X1.9500*%
G04:AMPARAMS|DCode=21|XSize=0.65mm|YSize=1.25mm|CornerRadius=0.1625mm|HoleSize=0mm|Usage=FLASHONLY|Rotation=90.000|XOffset=0mm|YOffset=0mm|HoleType=Round|Shape=RoundedRectangle|*
%AMROUNDEDRECTD21*
21,1,0.6500,0.9250,0,0,90.0*
21,1,0.3250,1.2500,0,0,90.0*
1,1,0.3250,0.4625,0.1625*
1,1,0.3250,0.4625,-0.1625*
1,1,0.3250,-0.4625,-0.1625*
1,1,0.3250,-0.4625,0.1625*
%
%ADD21ROUNDEDRECTD21*%
G04:AMPARAMS|DCode=22|XSize=1.75mm|YSize=1.25mm|CornerRadius=0.3125mm|HoleSize=0mm|Usage=FLASHONLY|Rotation=90.000|XOffset=0mm|YOffset=0mm|HoleType=Round|Shape=RoundedRectangle|*
%AMROUNDEDRECTD22*
21,1,1.7500,0.6250,0,0,90.0*
21,1,1.1250,1.2500,0,0,90.0*
1,1,0.6250,0.3125,0.5625*
1,1,0.6250,0.3125,-0.5625*
1,1,0.6250,-0.3125,-0.5625*
1,1,0.6250,-0.3125,0.5625*
%
%ADD22ROUNDEDRECTD22*%
G04:AMPARAMS|DCode=23|XSize=1.3mm|YSize=1.1mm|CornerRadius=0.275mm|HoleSize=0mm|Usage=FLASHONLY|Rotation=270.000|XOffset=0mm|YOffset=0mm|HoleType=Round|Shape=RoundedRectangle|*
%AMROUNDEDRECTD23*
21,1,1.3000,0.5500,0,0,270.0*
21,1,0.7500,1.1000,0,0,270.0*
1,1,0.5500,-0.2750,-0.3750*
1,1,0.5500,-0.2750,0.3750*
1,1,0.5500,0.2750,0.3750*
1,1,0.5500,0.2750,-0.3750*
%
%ADD23ROUNDEDRECTD23*%
G04:AMPARAMS|DCode=24|XSize=1.2mm|YSize=1.1mm|CornerRadius=0.275mm|HoleSize=0mm|Usage=FLASHONLY|Rotation=180.000|XOffset=0mm|YOffset=0mm|HoleType=Round|Shape=RoundedRectangle|*
%AMROUNDEDRECTD24*
21,1,1.2000,0.5500,0,0,180.0*
21,1,0.6500,1.1000,0,0,180.0*
1,1,0.5500,-0.3250,0.2750*
1,1,0.5500,0.3250,0.2750*
1,1,0.5500,0.3250,-0.2750*
1,1,0.5500,-0.3250,-0.2750*
%
%ADD24ROUNDEDRECTD24*%
G04:AMPARAMS|DCode=25|XSize=1.7mm|YSize=2.5mm|CornerRadius=0.425mm|HoleSize=0mm|Usage=FLASHONLY|Rotation=270.000|XOffset=0mm|YOffset=0mm|HoleType=Round|Shape=RoundedRectangle|*
%AMROUNDEDRECTD25*
21,1,1.7000,1.6500,0,0,270.0*
21,1,0.8500,2.5000,0,0,270.0*
1,1,0.8500,-0.8250,-0.4250*
1,1,0.8500,-0.8250,0.4250*
1,1,0.8500,0.8250,0.4250*
1,1,0.8500,0.8250,-0.4250*
%
%ADD25ROUNDEDRECTD25*%
G04:AMPARAMS|DCode=26|XSize=3.3mm|YSize=2.3mm|CornerRadius=0.575mm|HoleSize=0mm|Usage=FLASHONLY|Rotation=180.000|XOffset=0mm|YOffset=0mm|HoleType=Round|Shape=RoundedRectangle|*
%AMROUNDEDRECTD26*
21,1,3.3000,1.1500,0,0,180.0*
21,1,2.1500,2.3000,0,0,180.0*
1,1,1.1500,-1.0750,0.5750*
1,1,1.1500,1.0750,0.5750*
1,1,1.1500,1.0750,-0.5750*
1,1,1.1500,-1.0750,-0.5750*
%
%ADD26ROUNDEDRECTD26*%
%ADD27R,1.6000X1.2000*%
%ADD28R,1.2000X1.6000*%
%ADD29R,2.0000X2.8000*%
%ADD58C,1.6000*%
%ADD59R,1.6000X1.6000*%
%ADD60R,1.2000X1.2000*%
%ADD61C,1.2000*%
%ADD62C,7.0000*%
%ADD63C,2.0000*%
G04:AMPARAMS|DCode=64|XSize=2mm|YSize=2mm|CornerRadius=0.5mm|HoleSize=0mm|Usage=FLASHONLY|Rotation=0.000|XOffset=0mm|YOffset=0mm|HoleType=Round|Shape=RoundedRectangle|*
%AMROUNDEDRECTD64*
21,1,2.0000,1.0000,0,0,0.0*
21,1,1.0000,2.0000,0,0,0.0*
1,1,1.0000,0.5000,-0.5000*
1,1,1.0000,-0.5000,-0.5000*
1,1,1.0000,-0.5000,0.5000*
1,1,1.0000,0.5000,0.5000*
%
%ADD64ROUNDEDRECTD64*%
%ADD65C,1.5240*%
D15*
X178100Y367250D02*
D03*
X165400D02*
D03*
X152700D02*
D03*
X140000D02*
D03*
X127300D02*
D03*
X114600D02*
D03*
X101900D02*
D03*
X178100Y312750D02*
D03*
X165400D02*
D03*
X152700D02*
D03*
X140000D02*
D03*
X127300D02*
D03*
X114600D02*
D03*
X101900D02*
D03*
X211900Y442750D02*
D03*
X224600D02*
D03*
X237300D02*
D03*
X250000D02*
D03*
X262700D02*
D03*
X275400D02*
D03*
X288100D02*
D03*
X211900Y497250D02*
D03*
X224600D02*
D03*
X237300D02*
D03*
X250000D02*
D03*
X262700D02*
D03*
X275400D02*
D03*
X288100D02*
D03*
D16*
X363250Y280000D02*
D03*
D17*
X470500Y305400D02*
D03*
Y280000D02*
D03*
Y254600D02*
D03*
D18*
X460000Y350750D02*
D03*
Y369250D02*
D03*
D19*
X20000Y184000D02*
D03*
Y156000D02*
D03*
X320000Y424000D02*
D03*
Y396000D02*
D03*
X290000Y316000D02*
D03*
Y344000D02*
D03*
Y366000D02*
D03*
Y394000D02*
D03*
X80000Y364000D02*
D03*
Y336000D02*
D03*
X160000Y274000D02*
D03*
Y246000D02*
D03*
X130000Y416000D02*
D03*
Y444000D02*
D03*
D20*
X46000Y200000D02*
D03*
X74000D02*
D03*
X284000Y420000D02*
D03*
X256000D02*
D03*
X166000Y480000D02*
D03*
X194000D02*
D03*
Y450000D02*
D03*
X166000D02*
D03*
X206000Y420000D02*
D03*
X234000D02*
D03*
X364000Y520000D02*
D03*
X336000D02*
D03*
X314000D02*
D03*
X286000D02*
D03*
X214000D02*
D03*
X186000D02*
D03*
X264000D02*
D03*
X236000D02*
D03*
X76000Y410000D02*
D03*
X104000D02*
D03*
X186000Y280000D02*
D03*
X214000D02*
D03*
X106000D02*
D03*
X134000D02*
D03*
X176000Y390000D02*
D03*
X204000D02*
D03*
X104000Y440000D02*
D03*
X76000D02*
D03*
D21*
X74250Y160000D02*
D03*
X45750Y150500D02*
D03*
Y169500D02*
D03*
X374250Y410000D02*
D03*
X345750Y400500D02*
D03*
Y419500D02*
D03*
X374250Y470000D02*
D03*
X345750Y460500D02*
D03*
Y479500D02*
D03*
X264250Y330000D02*
D03*
X235750Y320500D02*
D03*
Y339500D02*
D03*
X264250Y380000D02*
D03*
X235750Y370500D02*
D03*
Y389500D02*
D03*
D22*
X311500Y210000D02*
D03*
X340000D02*
D03*
D23*
X112500Y80000D02*
D03*
X147500D02*
D03*
X370000Y210000D02*
D03*
X405000D02*
D03*
D24*
X480000Y370500D02*
D03*
Y349500D02*
D03*
D25*
X259750Y240000D02*
D03*
X220250D02*
D03*
X259750Y210000D02*
D03*
X220250D02*
D03*
D26*
X370000Y106000D02*
D03*
Y174000D02*
D03*
D27*
X430000Y455500D02*
D03*
Y424500D02*
D03*
X320000Y485500D02*
D03*
Y454500D02*
D03*
X210000Y324500D02*
D03*
Y355500D02*
D03*
D28*
X354500Y440000D02*
D03*
X385500D02*
D03*
X165500Y520000D02*
D03*
X134500D02*
D03*
X435500Y390000D02*
D03*
X404500D02*
D03*
X434500Y210000D02*
D03*
X465500D02*
D03*
D29*
X396500Y360000D02*
D03*
X430000D02*
D03*
X466750Y180000D02*
D03*
X433250D02*
D03*
D58*
X155400Y210800D02*
D03*
Y134600D02*
D03*
Y109200D02*
D03*
X104600Y210800D02*
D03*
Y134600D02*
D03*
D59*
Y109200D02*
D03*
D60*
X50000Y269200D02*
D03*
Y380000D02*
D03*
D61*
Y320000D02*
D03*
X24600Y294600D02*
D03*
X50000Y430800D02*
D03*
X24600Y405400D02*
D03*
D62*
X450000Y100000D02*
D03*
X50000D02*
D03*
X450000Y500000D02*
D03*
X50000D02*
D03*
D63*
X214750Y175150D02*
D03*
Y150150D02*
D03*
X239750Y175150D02*
D03*
X264750Y150150D02*
D03*
X239750D02*
D03*
D64*
X264750Y175150D02*
D03*
D65*
X265000Y79100D02*
D03*
X215000D02*
D03*
M02*
