G04*
G04 #@! TF.GenerationSoftware,Altium Limited,Altium Designer,23.3.1 (30)*
G04*
G04 Layer_Color=8388736*
%FSLAX44Y44*%
%MOMM*%
G71*
G04*
G04 #@! TF.SameCoordinates,CF94DBF3-FF16-43C4-AECA-44031EA59DE8*
G04*
G04*
G04 #@! TF.FilePolarity,Negative*
G04*
G01*
G75*
G04:AMPARAMS|DCode=31|XSize=0.8032mm|YSize=1.6532mm|CornerRadius=0.2516mm|HoleSize=0mm|Usage=FLASHONLY|Rotation=0.000|XOffset=0mm|YOffset=0mm|HoleType=Round|Shape=RoundedRectangle|*
%AMROUNDEDRECTD31*
21,1,0.8032,1.1500,0,0,0.0*
21,1,0.3000,1.6532,0,0,0.0*
1,1,0.5032,0.1500,-0.5750*
1,1,0.5032,-0.1500,-0.5750*
1,1,0.5032,-0.1500,0.5750*
1,1,0.5032,0.1500,0.5750*
%
%ADD31ROUNDEDRECTD31*%
G04:AMPARAMS|DCode=32|XSize=11.2032mm|YSize=11.2032mm|CornerRadius=2.8516mm|HoleSize=0mm|Usage=FLASHONLY|Rotation=270.000|XOffset=0mm|YOffset=0mm|HoleType=Round|Shape=RoundedRectangle|*
%AMROUNDEDRECTD32*
21,1,11.2032,5.5000,0,0,270.0*
21,1,5.5000,11.2032,0,0,270.0*
1,1,5.7032,-2.7500,-2.7500*
1,1,5.7032,-2.7500,2.7500*
1,1,5.7032,2.7500,2.7500*
1,1,5.7032,2.7500,-2.7500*
%
%ADD32ROUNDEDRECTD32*%
G04:AMPARAMS|DCode=33|XSize=1.2532mm|YSize=3.3032mm|CornerRadius=0.3641mm|HoleSize=0mm|Usage=FLASHONLY|Rotation=270.000|XOffset=0mm|YOffset=0mm|HoleType=Round|Shape=RoundedRectangle|*
%AMROUNDEDRECTD33*
21,1,1.2532,2.5750,0,0,270.0*
21,1,0.5250,3.3032,0,0,270.0*
1,1,0.7282,-1.2875,-0.2625*
1,1,0.7282,-1.2875,0.2625*
1,1,0.7282,1.2875,0.2625*
1,1,0.7282,1.2875,-0.2625*
%
%ADD33ROUNDEDRECTD33*%
%ADD34R,1.5532X1.3532*%
%ADD35R,2.1532X1.6032*%
%ADD36R,1.6032X2.1532*%
G04:AMPARAMS|DCode=37|XSize=0.8532mm|YSize=1.4532mm|CornerRadius=0.2641mm|HoleSize=0mm|Usage=FLASHONLY|Rotation=90.000|XOffset=0mm|YOffset=0mm|HoleType=Round|Shape=RoundedRectangle|*
%AMROUNDEDRECTD37*
21,1,0.8532,0.9250,0,0,90.0*
21,1,0.3250,1.4532,0,0,90.0*
1,1,0.5282,0.4625,0.1625*
1,1,0.5282,0.4625,-0.1625*
1,1,0.5282,-0.4625,-0.1625*
1,1,0.5282,-0.4625,0.1625*
%
%ADD37ROUNDEDRECTD37*%
G04:AMPARAMS|DCode=38|XSize=1.9532mm|YSize=1.4532mm|CornerRadius=0.4141mm|HoleSize=0mm|Usage=FLASHONLY|Rotation=90.000|XOffset=0mm|YOffset=0mm|HoleType=Round|Shape=RoundedRectangle|*
%AMROUNDEDRECTD38*
21,1,1.9532,0.6250,0,0,90.0*
21,1,1.1250,1.4532,0,0,90.0*
1,1,0.8282,0.3125,0.5625*
1,1,0.8282,0.3125,-0.5625*
1,1,0.8282,-0.3125,-0.5625*
1,1,0.8282,-0.3125,0.5625*
%
%ADD38ROUNDEDRECTD38*%
G04:AMPARAMS|DCode=39|XSize=1.5032mm|YSize=1.3032mm|CornerRadius=0.3766mm|HoleSize=0mm|Usage=FLASHONLY|Rotation=270.000|XOffset=0mm|YOffset=0mm|HoleType=Round|Shape=RoundedRectangle|*
%AMROUNDEDRECTD39*
21,1,1.5032,0.5500,0,0,270.0*
21,1,0.7500,1.3032,0,0,270.0*
1,1,0.7532,-0.2750,-0.3750*
1,1,0.7532,-0.2750,0.3750*
1,1,0.7532,0.2750,0.3750*
1,1,0.7532,0.2750,-0.3750*
%
%ADD39ROUNDEDRECTD39*%
G04:AMPARAMS|DCode=40|XSize=1.4032mm|YSize=1.3032mm|CornerRadius=0.3766mm|HoleSize=0mm|Usage=FLASHONLY|Rotation=180.000|XOffset=0mm|YOffset=0mm|HoleType=Round|Shape=RoundedRectangle|*
%AMROUNDEDRECTD40*
21,1,1.4032,0.5500,0,0,180.0*
21,1,0.6500,1.3032,0,0,180.0*
1,1,0.7532,-0.3250,0.2750*
1,1,0.7532,0.3250,0.2750*
1,1,0.7532,0.3250,-0.2750*
1,1,0.7532,-0.3250,-0.2750*
%
%ADD40ROUNDEDRECTD40*%
G04:AMPARAMS|DCode=41|XSize=1.9032mm|YSize=2.7032mm|CornerRadius=0.5266mm|HoleSize=0mm|Usage=FLASHONLY|Rotation=270.000|XOffset=0mm|YOffset=0mm|HoleType=Round|Shape=RoundedRectangle|*
%AMROUNDEDRECTD41*
21,1,1.9032,1.6500,0,0,270.0*
21,1,0.8500,2.7032,0,0,270.0*
1,1,1.0532,-0.8250,-0.4250*
1,1,1.0532,-0.8250,0.4250*
1,1,1.0532,0.8250,0.4250*
1,1,1.0532,0.8250,-0.4250*
%
%ADD41ROUNDEDRECTD41*%
G04:AMPARAMS|DCode=42|XSize=5.2032mm|YSize=5.2032mm|CornerRadius=1.3516mm|HoleSize=0mm|Usage=FLASHONLY|Rotation=180.000|XOffset=0mm|YOffset=0mm|HoleType=Round|Shape=RoundedRectangle|*
%AMROUNDEDRECTD42*
21,1,5.2032,2.5000,0,0,180.0*
21,1,2.5000,5.2032,0,0,180.0*
1,1,2.7032,-1.2500,1.2500*
1,1,2.7032,1.2500,1.2500*
1,1,2.7032,1.2500,-1.2500*
1,1,2.7032,-1.2500,-1.2500*
%
%ADD42ROUNDEDRECTD42*%
G04:AMPARAMS|DCode=43|XSize=3.5032mm|YSize=2.5032mm|CornerRadius=0.6766mm|HoleSize=0mm|Usage=FLASHONLY|Rotation=180.000|XOffset=0mm|YOffset=0mm|HoleType=Round|Shape=RoundedRectangle|*
%AMROUNDEDRECTD43*
21,1,3.5032,1.1500,0,0,180.0*
21,1,2.1500,2.5032,0,0,180.0*
1,1,1.3532,-1.0750,0.5750*
1,1,1.3532,1.0750,0.5750*
1,1,1.3532,1.0750,-0.5750*
1,1,1.3532,-1.0750,-0.5750*
%
%ADD43ROUNDEDRECTD43*%
%ADD44R,1.8032X1.4032*%
%ADD45R,1.4032X1.8032*%
%ADD46R,2.2032X3.0032*%
%ADD47R,1.4032X1.4032*%
%ADD48C,1.4032*%
%ADD49C,1.8032*%
%ADD50R,1.8032X1.8032*%
%ADD51C,7.2032*%
%ADD52C,2.2032*%
G04:AMPARAMS|DCode=53|XSize=2.2032mm|YSize=2.2032mm|CornerRadius=0.6016mm|HoleSize=0mm|Usage=FLASHONLY|Rotation=0.000|XOffset=0mm|YOffset=0mm|HoleType=Round|Shape=RoundedRectangle|*
%AMROUNDEDRECTD53*
21,1,2.2032,1.0000,0,0,0.0*
21,1,1.0000,2.2032,0,0,0.0*
1,1,1.2032,0.5000,-0.5000*
1,1,1.2032,-0.5000,-0.5000*
1,1,1.2032,-0.5000,0.5000*
1,1,1.2032,0.5000,0.5000*
%
%ADD53ROUNDEDRECTD53*%
%ADD54C,1.7272*%
D31*
X288100Y497250D02*
D03*
X275400D02*
D03*
X262700D02*
D03*
X250000D02*
D03*
X237300D02*
D03*
X224600D02*
D03*
X211900D02*
D03*
X288100Y442750D02*
D03*
X275400D02*
D03*
X262700D02*
D03*
X250000D02*
D03*
X237300D02*
D03*
X224600D02*
D03*
X211900D02*
D03*
X178100Y367250D02*
D03*
X165400D02*
D03*
X152700D02*
D03*
X140000D02*
D03*
X127300D02*
D03*
X114600D02*
D03*
X101900D02*
D03*
X178100Y312750D02*
D03*
X165400D02*
D03*
X152700D02*
D03*
X140000D02*
D03*
X127300D02*
D03*
X114600D02*
D03*
X101900D02*
D03*
D32*
X363250Y280000D02*
D03*
D33*
X470500Y305400D02*
D03*
Y280000D02*
D03*
Y254600D02*
D03*
D34*
X460000Y350750D02*
D03*
Y369250D02*
D03*
D35*
X20000Y184000D02*
D03*
Y156000D02*
D03*
X320000Y424000D02*
D03*
Y396000D02*
D03*
X290000Y316000D02*
D03*
Y344000D02*
D03*
Y366000D02*
D03*
Y394000D02*
D03*
X80000Y364000D02*
D03*
Y336000D02*
D03*
X160000Y274000D02*
D03*
Y246000D02*
D03*
X130000Y416000D02*
D03*
Y444000D02*
D03*
D36*
X46000Y200000D02*
D03*
X74000D02*
D03*
X284000Y420000D02*
D03*
X256000D02*
D03*
X166000Y480000D02*
D03*
X194000D02*
D03*
Y450000D02*
D03*
X166000D02*
D03*
X234000Y420000D02*
D03*
X206000D02*
D03*
X364000Y520000D02*
D03*
X336000D02*
D03*
X314000D02*
D03*
X286000D02*
D03*
X214000D02*
D03*
X186000D02*
D03*
X264000D02*
D03*
X236000D02*
D03*
X76000Y410000D02*
D03*
X104000D02*
D03*
X186000Y280000D02*
D03*
X214000D02*
D03*
X106000D02*
D03*
X134000D02*
D03*
X176000Y390000D02*
D03*
X204000D02*
D03*
X104000Y440000D02*
D03*
X76000D02*
D03*
D37*
X74250Y160000D02*
D03*
X45750Y150500D02*
D03*
Y169500D02*
D03*
X374250Y410000D02*
D03*
X345750Y400500D02*
D03*
Y419500D02*
D03*
X374250Y470000D02*
D03*
X345750Y460500D02*
D03*
Y479500D02*
D03*
X264250Y330000D02*
D03*
X235750Y320500D02*
D03*
Y339500D02*
D03*
X264250Y380000D02*
D03*
X235750Y370500D02*
D03*
Y389500D02*
D03*
D38*
X311500Y210000D02*
D03*
X340000D02*
D03*
D39*
X112500Y80000D02*
D03*
X147500D02*
D03*
X370000Y210000D02*
D03*
X405000D02*
D03*
D40*
X480000Y370500D02*
D03*
Y349500D02*
D03*
D41*
X259750Y240000D02*
D03*
X220250D02*
D03*
X259750Y210000D02*
D03*
X220250D02*
D03*
D42*
X370000Y106000D02*
D03*
D43*
Y174000D02*
D03*
D44*
X430000Y455500D02*
D03*
Y424500D02*
D03*
X320000Y485500D02*
D03*
Y454500D02*
D03*
X210000Y324500D02*
D03*
Y355500D02*
D03*
D45*
X354500Y440000D02*
D03*
X385500D02*
D03*
X165500Y520000D02*
D03*
X134500D02*
D03*
X435500Y390000D02*
D03*
X404500D02*
D03*
X434500Y210000D02*
D03*
X465500D02*
D03*
D46*
X396500Y360000D02*
D03*
X430000D02*
D03*
X466750Y180000D02*
D03*
X433250D02*
D03*
D47*
X40000Y380000D02*
D03*
Y269600D02*
D03*
D48*
Y405400D02*
D03*
Y430800D02*
D03*
Y295000D02*
D03*
Y320400D02*
D03*
D49*
X155400Y210800D02*
D03*
Y134600D02*
D03*
Y109200D02*
D03*
X104600Y210800D02*
D03*
Y134600D02*
D03*
D50*
Y109200D02*
D03*
D51*
X450000Y100000D02*
D03*
X50000D02*
D03*
X450000Y500000D02*
D03*
X50000D02*
D03*
D52*
X214750Y175150D02*
D03*
Y150150D02*
D03*
X239750Y175150D02*
D03*
X264750Y150150D02*
D03*
X239750D02*
D03*
D53*
X264750Y175150D02*
D03*
D54*
X265000Y79100D02*
D03*
X215000D02*
D03*
M02*
