G04*
G04 #@! TF.GenerationSoftware,Altium Limited,Altium Designer,22.11.1 (43)*
G04*
G04 Layer_Color=8388736*
%FSLAX44Y44*%
%MOMM*%
G71*
G04*
G04 #@! TF.SameCoordinates,75D7284C-96A1-4F7D-B096-18610DFFEBA5*
G04*
G04*
G04 #@! TF.FilePolarity,Positive*
G04*
G01*
G75*
%ADD13C,0.1000*%
%ADD14C,0.2000*%
%ADD68C,0.0500*%
D13*
X135000Y340000D02*
X145000D01*
X140000Y335000D02*
Y345000D01*
X250000Y465000D02*
Y475000D01*
X245000Y470000D02*
X255000D01*
X405000Y280000D02*
X415000D01*
X410000Y275000D02*
Y285000D01*
X460000Y355000D02*
Y365000D01*
X455000Y360000D02*
X465000D01*
X15000Y170000D02*
X25000D01*
X20000Y165000D02*
Y175000D01*
X60000Y195000D02*
Y205000D01*
X55000Y200000D02*
X65000D01*
X270000Y415000D02*
Y425000D01*
X265000Y420000D02*
X275000D01*
X180000Y475000D02*
Y485000D01*
X175000Y480000D02*
X185000D01*
X180000Y445000D02*
Y455000D01*
X175000Y450000D02*
X185000D01*
X315000Y410000D02*
X325000D01*
X320000Y405000D02*
Y415000D01*
X220000Y415000D02*
Y425000D01*
X215000Y420000D02*
X225000D01*
X350000Y515000D02*
Y525000D01*
X345000Y520000D02*
X355000D01*
X300000Y515000D02*
Y525000D01*
X295000Y520000D02*
X305000D01*
X200000Y515000D02*
Y525000D01*
X195000Y520000D02*
X205000D01*
X250000Y515000D02*
Y525000D01*
X245000Y520000D02*
X255000D01*
X285000Y330000D02*
X295000D01*
X290000Y325000D02*
Y335000D01*
X285000Y380000D02*
X295000D01*
X290000Y375000D02*
Y385000D01*
X75000Y350000D02*
X85000D01*
X80000Y345000D02*
Y355000D01*
X90000Y405000D02*
Y415000D01*
X85000Y410000D02*
X95000D01*
X200000Y275000D02*
Y285000D01*
X195000Y280000D02*
X205000D01*
X155000Y260000D02*
X165000D01*
X160000Y255000D02*
Y265000D01*
X120000Y275000D02*
Y285000D01*
X115000Y280000D02*
X125000D01*
X190000Y385000D02*
Y395000D01*
X185000Y390000D02*
X195000D01*
X90000Y435000D02*
Y445000D01*
X85000Y440000D02*
X95000D01*
X125000Y430000D02*
X135000D01*
X130000Y425000D02*
Y435000D01*
X52000Y145000D02*
X68000D01*
X52000Y175000D02*
X68000D01*
Y145000D02*
Y175000D01*
X52000Y145000D02*
Y175000D01*
X55000Y160000D02*
X65000D01*
X60000Y155000D02*
Y165000D01*
X352000Y395000D02*
X368000D01*
X352000Y425000D02*
X368000D01*
Y395000D02*
Y425000D01*
X352000Y395000D02*
Y425000D01*
X355000Y410000D02*
X365000D01*
X360000Y405000D02*
Y415000D01*
X352000Y455000D02*
X368000D01*
X352000Y485000D02*
X368000D01*
Y455000D02*
Y485000D01*
X352000Y455000D02*
Y485000D01*
X355000Y470000D02*
X365000D01*
X360000Y465000D02*
Y475000D01*
X242000Y315000D02*
X258000D01*
X242000Y345000D02*
X258000D01*
Y315000D02*
Y345000D01*
X242000Y315000D02*
Y345000D01*
X245000Y330000D02*
X255000D01*
X250000Y325000D02*
Y335000D01*
X242000Y365000D02*
X258000D01*
X242000Y395000D02*
X258000D01*
Y365000D02*
Y395000D01*
X242000Y365000D02*
Y395000D01*
X245000Y380000D02*
X255000D01*
X250000Y375000D02*
Y385000D01*
X320750Y210000D02*
X330750D01*
X325750Y205000D02*
Y215000D01*
X116000Y89000D02*
X144000D01*
X116000Y71000D02*
X144000D01*
X116000D02*
Y89000D01*
X144000Y71000D02*
Y89000D01*
X130000Y75000D02*
Y85000D01*
X125000Y80000D02*
X135000D01*
X475000Y360000D02*
X485000D01*
X480000Y355000D02*
Y365000D01*
X373500Y219000D02*
X401500D01*
X373500Y201000D02*
X401500D01*
X373500D02*
Y219000D01*
X401500Y201000D02*
Y219000D01*
X387500Y205000D02*
Y215000D01*
X382500Y210000D02*
X392500D01*
X235000Y240000D02*
X245000D01*
X240000Y235000D02*
Y245000D01*
X235000Y210000D02*
X245000D01*
X240000Y205000D02*
Y215000D01*
X370000Y135000D02*
Y145000D01*
X365000Y140000D02*
X375000D01*
X425000Y440000D02*
X435000D01*
X430000Y435000D02*
Y445000D01*
X370000Y435000D02*
Y445000D01*
X365000Y440000D02*
X375000D01*
X150000Y515000D02*
Y525000D01*
X145000Y520000D02*
X155000D01*
X315000Y470000D02*
X325000D01*
X320000Y465000D02*
Y475000D01*
X205000Y340000D02*
X215000D01*
X210000Y335000D02*
Y345000D01*
X408250Y360000D02*
X418250D01*
X413250Y355000D02*
Y365000D01*
X420000Y385000D02*
Y395000D01*
X415000Y390000D02*
X425000D01*
X445000Y180000D02*
X455000D01*
X450000Y175000D02*
Y185000D01*
Y205000D02*
Y215000D01*
X445000Y210000D02*
X455000D01*
X125498Y378000D02*
X119666D01*
X118500Y376834D01*
Y374501D01*
X119666Y373335D01*
X125498D01*
X118500Y366337D02*
Y371002D01*
X123165Y366337D01*
X124332D01*
X125498Y367503D01*
Y369836D01*
X124332Y371002D01*
X134752Y123750D02*
X141750Y128415D01*
X134752D02*
X141750Y123750D01*
Y130748D02*
Y133080D01*
Y131914D01*
X134752D01*
X135919Y130748D01*
X235498Y508000D02*
X229666D01*
X228500Y506834D01*
Y504501D01*
X229666Y503335D01*
X235498D01*
X234331Y501002D02*
X235498Y499836D01*
Y497503D01*
X234331Y496337D01*
X233165D01*
X231999Y497503D01*
Y498670D01*
Y497503D01*
X230833Y496337D01*
X229666D01*
X228500Y497503D01*
Y499836D01*
X229666Y501002D01*
X452750Y304752D02*
Y310584D01*
X451584Y311750D01*
X449251D01*
X448085Y310584D01*
Y304752D01*
X445752Y311750D02*
X443420D01*
X444586D01*
Y304752D01*
X445752Y305919D01*
X451500Y376500D02*
X458498D01*
Y373001D01*
X457331Y371835D01*
X454999D01*
X453833Y373001D01*
Y376500D01*
Y374167D02*
X451500Y371835D01*
Y364837D02*
Y369502D01*
X456165Y364837D01*
X457331D01*
X458498Y366003D01*
Y368336D01*
X457331Y369502D01*
X451500Y359006D02*
X458498D01*
X454999Y362504D01*
Y357839D01*
X31500Y148500D02*
X24502D01*
Y151999D01*
X25669Y153165D01*
X28001D01*
X29167Y151999D01*
Y148500D01*
Y150833D02*
X31500Y153165D01*
Y160163D02*
Y155498D01*
X26835Y160163D01*
X25669D01*
X24502Y158997D01*
Y156664D01*
X25669Y155498D01*
Y162495D02*
X24502Y163662D01*
Y165994D01*
X25669Y167161D01*
X26835D01*
X28001Y165994D01*
Y164828D01*
Y165994D01*
X29167Y167161D01*
X30334D01*
X31500Y165994D01*
Y163662D01*
X30334Y162495D01*
X81500Y211500D02*
Y204502D01*
X78001D01*
X76835Y205669D01*
Y208001D01*
X78001Y209167D01*
X81500D01*
X79167D02*
X76835Y211500D01*
X69837D02*
X74502D01*
X69837Y206835D01*
Y205669D01*
X71003Y204502D01*
X73336D01*
X74502Y205669D01*
X62839Y211500D02*
X67505D01*
X62839Y206835D01*
Y205669D01*
X64006Y204502D01*
X66338D01*
X67505Y205669D01*
X248500Y408500D02*
Y415498D01*
X251999D01*
X253165Y414332D01*
Y411999D01*
X251999Y410833D01*
X248500D01*
X250833D02*
X253165Y408500D01*
X260163D02*
X255498D01*
X260163Y413165D01*
Y414332D01*
X258997Y415498D01*
X256664D01*
X255498Y414332D01*
X262495Y408500D02*
X264828D01*
X263662D01*
Y415498D01*
X262495Y414332D01*
X201500Y491500D02*
Y484502D01*
X198001D01*
X196835Y485668D01*
Y488001D01*
X198001Y489167D01*
X201500D01*
X199167D02*
X196835Y491500D01*
X194502D02*
X192170D01*
X193336D01*
Y484502D01*
X194502Y485668D01*
X188671Y490334D02*
X187505Y491500D01*
X185172D01*
X184006Y490334D01*
Y485668D01*
X185172Y484502D01*
X187505D01*
X188671Y485668D01*
Y486835D01*
X187505Y488001D01*
X184006D01*
X158500Y438500D02*
Y445498D01*
X161999D01*
X163165Y444331D01*
Y441999D01*
X161999Y440833D01*
X158500D01*
X160833D02*
X163165Y438500D01*
X170163D02*
X165498D01*
X170163Y443165D01*
Y444331D01*
X168997Y445498D01*
X166664D01*
X165498Y444331D01*
X172495D02*
X173662Y445498D01*
X175994D01*
X177161Y444331D01*
Y439666D01*
X175994Y438500D01*
X173662D01*
X172495Y439666D01*
Y444331D01*
X331500Y388500D02*
X324502D01*
Y391999D01*
X325668Y393165D01*
X328001D01*
X329167Y391999D01*
Y388500D01*
Y390833D02*
X331500Y393165D01*
Y395498D02*
Y397830D01*
Y396664D01*
X324502D01*
X325668Y395498D01*
Y401329D02*
X324502Y402495D01*
Y404828D01*
X325668Y405994D01*
X326835D01*
X328001Y404828D01*
X329167Y405994D01*
X330334D01*
X331500Y404828D01*
Y402495D01*
X330334Y401329D01*
X329167D01*
X328001Y402495D01*
X326835Y401329D01*
X325668D01*
X328001Y402495D02*
Y404828D01*
X241500Y431500D02*
Y424502D01*
X238001D01*
X236835Y425668D01*
Y428001D01*
X238001Y429167D01*
X241500D01*
X239167D02*
X236835Y431500D01*
X234502D02*
X232170D01*
X233336D01*
Y424502D01*
X234502Y425668D01*
X228671Y424502D02*
X224006D01*
Y425668D01*
X228671Y430334D01*
Y431500D01*
X328500Y508500D02*
Y515498D01*
X331999D01*
X333165Y514332D01*
Y511999D01*
X331999Y510833D01*
X328500D01*
X330833D02*
X333165Y508500D01*
X335498D02*
X337830D01*
X336664D01*
Y515498D01*
X335498Y514332D01*
X345994Y515498D02*
X343662Y514332D01*
X341329Y511999D01*
Y509666D01*
X342495Y508500D01*
X344828D01*
X345994Y509666D01*
Y510833D01*
X344828Y511999D01*
X341329D01*
X278500Y508500D02*
Y515498D01*
X281999D01*
X283165Y514332D01*
Y511999D01*
X281999Y510833D01*
X278500D01*
X280833D02*
X283165Y508500D01*
X285498D02*
X287830D01*
X286664D01*
Y515498D01*
X285498Y514332D01*
X295994Y515498D02*
X291329D01*
Y511999D01*
X293662Y513165D01*
X294828D01*
X295994Y511999D01*
Y509666D01*
X294828Y508500D01*
X292495D01*
X291329Y509666D01*
X178500Y508500D02*
Y515498D01*
X181999D01*
X183165Y514332D01*
Y511999D01*
X181999Y510833D01*
X178500D01*
X180833D02*
X183165Y508500D01*
X185498D02*
X187830D01*
X186664D01*
Y515498D01*
X185498Y514332D01*
X194828Y508500D02*
Y515498D01*
X191329Y511999D01*
X195994D01*
X228500Y508500D02*
Y515498D01*
X231999D01*
X233165Y514332D01*
Y511999D01*
X231999Y510833D01*
X228500D01*
X230833D02*
X233165Y508500D01*
X235498D02*
X237830D01*
X236664D01*
Y515498D01*
X235498Y514332D01*
X241329D02*
X242495Y515498D01*
X244828D01*
X245994Y514332D01*
Y513165D01*
X244828Y511999D01*
X243662D01*
X244828D01*
X245994Y510833D01*
Y509666D01*
X244828Y508500D01*
X242495D01*
X241329Y509666D01*
X278500Y351500D02*
X285498D01*
Y348001D01*
X284331Y346835D01*
X281999D01*
X280833Y348001D01*
Y351500D01*
Y349167D02*
X278500Y346835D01*
Y344502D02*
Y342170D01*
Y343336D01*
X285498D01*
X284331Y344502D01*
X278500Y334006D02*
Y338671D01*
X283165Y334006D01*
X284331D01*
X285498Y335172D01*
Y337505D01*
X284331Y338671D01*
X278500Y401500D02*
X285498D01*
Y398001D01*
X284331Y396835D01*
X281999D01*
X280833Y398001D01*
Y401500D01*
Y399167D02*
X278500Y396835D01*
Y394502D02*
Y392170D01*
Y393336D01*
X285498D01*
X284331Y394502D01*
X278500Y388671D02*
Y386338D01*
Y387505D01*
X285498D01*
X284331Y388671D01*
X61300Y304350D02*
Y297352D01*
X57801D01*
X56635Y298519D01*
Y300851D01*
X57801Y302017D01*
X61300D01*
X58967D02*
X56635Y304350D01*
X54302D02*
X51970D01*
X53136D01*
Y297352D01*
X54302Y298519D01*
X48471D02*
X47305Y297352D01*
X44972D01*
X43806Y298519D01*
Y303184D01*
X44972Y304350D01*
X47305D01*
X48471Y303184D01*
Y298519D01*
X61300Y415150D02*
Y408152D01*
X57801D01*
X56635Y409319D01*
Y411651D01*
X57801Y412817D01*
X61300D01*
X58967D02*
X56635Y415150D01*
X54302Y413984D02*
X53136Y415150D01*
X50803D01*
X49637Y413984D01*
Y409319D01*
X50803Y408152D01*
X53136D01*
X54302Y409319D01*
Y410485D01*
X53136Y411651D01*
X49637D01*
X91500Y328500D02*
X84502D01*
Y331999D01*
X85668Y333165D01*
X88001D01*
X89167Y331999D01*
Y328500D01*
Y330833D02*
X91500Y333165D01*
X85668Y335498D02*
X84502Y336664D01*
Y338997D01*
X85668Y340163D01*
X86835D01*
X88001Y338997D01*
X89167Y340163D01*
X90334D01*
X91500Y338997D01*
Y336664D01*
X90334Y335498D01*
X89167D01*
X88001Y336664D01*
X86835Y335498D01*
X85668D01*
X88001Y336664D02*
Y338997D01*
X111500Y421500D02*
Y414502D01*
X108001D01*
X106835Y415668D01*
Y418001D01*
X108001Y419167D01*
X111500D01*
X109167D02*
X106835Y421500D01*
X104502Y414502D02*
X99837D01*
Y415668D01*
X104502Y420334D01*
Y421500D01*
X221500Y291500D02*
Y284502D01*
X218001D01*
X216835Y285669D01*
Y288001D01*
X218001Y289167D01*
X221500D01*
X219167D02*
X216835Y291500D01*
X209837Y284502D02*
X212170Y285669D01*
X214502Y288001D01*
Y290334D01*
X213336Y291500D01*
X211003D01*
X209837Y290334D01*
Y289167D01*
X211003Y288001D01*
X214502D01*
X171500Y238500D02*
X164502D01*
Y241999D01*
X165669Y243165D01*
X168001D01*
X169167Y241999D01*
Y238500D01*
Y240833D02*
X171500Y243165D01*
X164502Y250163D02*
Y245498D01*
X168001D01*
X166835Y247830D01*
Y248997D01*
X168001Y250163D01*
X170334D01*
X171500Y248997D01*
Y246664D01*
X170334Y245498D01*
X141500Y291500D02*
Y284502D01*
X138001D01*
X136835Y285669D01*
Y288001D01*
X138001Y289167D01*
X141500D01*
X139167D02*
X136835Y291500D01*
X131003D02*
Y284502D01*
X134502Y288001D01*
X129837D01*
X211500Y401500D02*
Y394502D01*
X208001D01*
X206835Y395668D01*
Y398001D01*
X208001Y399167D01*
X211500D01*
X209167D02*
X206835Y401500D01*
X204502Y395668D02*
X203336Y394502D01*
X201003D01*
X199837Y395668D01*
Y396835D01*
X201003Y398001D01*
X202170D01*
X201003D01*
X199837Y399167D01*
Y400334D01*
X201003Y401500D01*
X203336D01*
X204502Y400334D01*
X68500Y428500D02*
Y435498D01*
X71999D01*
X73165Y434331D01*
Y431999D01*
X71999Y430833D01*
X68500D01*
X70833D02*
X73165Y428500D01*
X80163D02*
X75498D01*
X80163Y433165D01*
Y434331D01*
X78997Y435498D01*
X76664D01*
X75498Y434331D01*
X118500Y451500D02*
X125498D01*
Y448001D01*
X124331Y446835D01*
X121999D01*
X120833Y448001D01*
Y451500D01*
Y449167D02*
X118500Y446835D01*
Y444502D02*
Y442170D01*
Y443336D01*
X125498D01*
X124331Y444502D01*
X40165Y142166D02*
Y146832D01*
X38999Y147998D01*
X36666D01*
X35500Y146832D01*
Y142166D01*
X36666Y141000D01*
X38999D01*
X37833Y143333D02*
X40165Y141000D01*
X38999D02*
X40165Y142166D01*
X47163Y147998D02*
X42498D01*
Y144499D01*
X44830Y145665D01*
X45997D01*
X47163Y144499D01*
Y142166D01*
X45997Y141000D01*
X43664D01*
X42498Y142166D01*
X340165Y392166D02*
Y396832D01*
X338999Y397998D01*
X336666D01*
X335500Y396832D01*
Y392166D01*
X336666Y391000D01*
X338999D01*
X337833Y393333D02*
X340165Y391000D01*
X338999D02*
X340165Y392166D01*
X345997Y391000D02*
Y397998D01*
X342498Y394499D01*
X347163D01*
X340165Y452166D02*
Y456832D01*
X338999Y457998D01*
X336666D01*
X335500Y456832D01*
Y452166D01*
X336666Y451000D01*
X338999D01*
X337833Y453333D02*
X340165Y451000D01*
X338999D02*
X340165Y452166D01*
X342498Y456832D02*
X343664Y457998D01*
X345997D01*
X347163Y456832D01*
Y455665D01*
X345997Y454499D01*
X344830D01*
X345997D01*
X347163Y453333D01*
Y452166D01*
X345997Y451000D01*
X343664D01*
X342498Y452166D01*
X230165Y312166D02*
Y316831D01*
X228999Y317998D01*
X226666D01*
X225500Y316831D01*
Y312166D01*
X226666Y311000D01*
X228999D01*
X227833Y313333D02*
X230165Y311000D01*
X228999D02*
X230165Y312166D01*
X237163Y311000D02*
X232498D01*
X237163Y315665D01*
Y316831D01*
X235997Y317998D01*
X233664D01*
X232498Y316831D01*
X230165Y362166D02*
Y366832D01*
X228999Y367998D01*
X226666D01*
X225500Y366832D01*
Y362166D01*
X226666Y361000D01*
X228999D01*
X227833Y363333D02*
X230165Y361000D01*
X228999D02*
X230165Y362166D01*
X232498Y361000D02*
X234830D01*
X233664D01*
Y367998D01*
X232498Y366832D01*
X308415Y206498D02*
X303750D01*
Y202999D01*
X306083D01*
X303750D01*
Y199500D01*
X310748D02*
X313080D01*
X311914D01*
Y206498D01*
X310748Y205331D01*
X154500Y83502D02*
Y90500D01*
X151001D01*
X149835Y89334D01*
Y84669D01*
X151001Y83502D01*
X154500D01*
X142837D02*
X145170Y84669D01*
X147502Y87001D01*
Y89334D01*
X146336Y90500D01*
X144003D01*
X142837Y89334D01*
Y88167D01*
X144003Y87001D01*
X147502D01*
X481752Y340750D02*
X488750D01*
Y344249D01*
X487584Y345415D01*
X482919D01*
X481752Y344249D01*
Y340750D01*
Y352413D02*
Y347748D01*
X485251D01*
X484085Y350080D01*
Y351247D01*
X485251Y352413D01*
X487584D01*
X488750Y351247D01*
Y348914D01*
X487584Y347748D01*
X412000Y213502D02*
Y220500D01*
X408501D01*
X407335Y219334D01*
Y214669D01*
X408501Y213502D01*
X412000D01*
X401503Y220500D02*
Y213502D01*
X405002Y217001D01*
X400337D01*
X273250Y248502D02*
Y255500D01*
X269751D01*
X268585Y254334D01*
Y249669D01*
X269751Y248502D01*
X273250D01*
X266252Y249669D02*
X265086Y248502D01*
X262753D01*
X261587Y249669D01*
Y250835D01*
X262753Y252001D01*
X263920D01*
X262753D01*
X261587Y253167D01*
Y254334D01*
X262753Y255500D01*
X265086D01*
X266252Y254334D01*
X273250Y218502D02*
Y225500D01*
X269751D01*
X268585Y224334D01*
Y219669D01*
X269751Y218502D01*
X273250D01*
X261587Y225500D02*
X266252D01*
X261587Y220835D01*
Y219669D01*
X262753Y218502D01*
X265086D01*
X266252Y219669D01*
X391752Y96750D02*
X398750D01*
Y100249D01*
X397584Y101415D01*
X392919D01*
X391752Y100249D01*
Y96750D01*
X398750Y103748D02*
Y106080D01*
Y104914D01*
X391752D01*
X392919Y103748D01*
X434669Y422665D02*
X433502Y421499D01*
Y419166D01*
X434669Y418000D01*
X439334D01*
X440500Y419166D01*
Y421499D01*
X439334Y422665D01*
Y424998D02*
X440500Y426164D01*
Y428497D01*
X439334Y429663D01*
X434669D01*
X433502Y428497D01*
Y426164D01*
X434669Y424998D01*
X435835D01*
X437001Y426164D01*
Y429663D01*
X387335Y444669D02*
X388501Y443502D01*
X390834D01*
X392000Y444669D01*
Y449334D01*
X390834Y450500D01*
X388501D01*
X387335Y449334D01*
X385002Y444669D02*
X383836Y443502D01*
X381503D01*
X380337Y444669D01*
Y445835D01*
X381503Y447001D01*
X380337Y448167D01*
Y449334D01*
X381503Y450500D01*
X383836D01*
X385002Y449334D01*
Y448167D01*
X383836Y447001D01*
X385002Y445835D01*
Y444669D01*
X383836Y447001D02*
X381503D01*
X132665Y515331D02*
X131499Y516498D01*
X129166D01*
X128000Y515331D01*
Y510666D01*
X129166Y509500D01*
X131499D01*
X132665Y510666D01*
X134998Y516498D02*
X139663D01*
Y515331D01*
X134998Y510666D01*
Y509500D01*
X324669Y452665D02*
X323502Y451499D01*
Y449166D01*
X324669Y448000D01*
X329334D01*
X330500Y449166D01*
Y451499D01*
X329334Y452665D01*
X323502Y459663D02*
X324669Y457330D01*
X327001Y454998D01*
X329334D01*
X330500Y456164D01*
Y458497D01*
X329334Y459663D01*
X328167D01*
X327001Y458497D01*
Y454998D01*
X205331Y357335D02*
X206498Y358501D01*
Y360834D01*
X205331Y362000D01*
X200666D01*
X199500Y360834D01*
Y358501D01*
X200666Y357335D01*
X206498Y350337D02*
Y355002D01*
X202999D01*
X204165Y352670D01*
Y351503D01*
X202999Y350337D01*
X200666D01*
X199500Y351503D01*
Y353836D01*
X200666Y355002D01*
X389665Y350331D02*
X388499Y351498D01*
X386166D01*
X385000Y350331D01*
Y345666D01*
X386166Y344500D01*
X388499D01*
X389665Y345666D01*
X395497Y344500D02*
Y351498D01*
X391998Y347999D01*
X396663D01*
X402665Y385331D02*
X401499Y386498D01*
X399166D01*
X398000Y385331D01*
Y380666D01*
X399166Y379500D01*
X401499D01*
X402665Y380666D01*
X404998Y385331D02*
X406164Y386498D01*
X408497D01*
X409663Y385331D01*
Y384165D01*
X408497Y382999D01*
X407330D01*
X408497D01*
X409663Y381833D01*
Y380666D01*
X408497Y379500D01*
X406164D01*
X404998Y380666D01*
X473585Y189669D02*
X474751Y188502D01*
X477084D01*
X478250Y189669D01*
Y194334D01*
X477084Y195500D01*
X474751D01*
X473585Y194334D01*
X466587Y195500D02*
X471252D01*
X466587Y190835D01*
Y189669D01*
X467753Y188502D01*
X470086D01*
X471252Y189669D01*
X467335Y214669D02*
X468501Y213502D01*
X470834D01*
X472000Y214669D01*
Y219334D01*
X470834Y220500D01*
X468501D01*
X467335Y219334D01*
X465002Y220500D02*
X462670D01*
X463836D01*
Y213502D01*
X465002Y214669D01*
X217165Y86648D02*
X214833D01*
X215999D01*
Y80816D01*
X214833Y79650D01*
X213666D01*
X212500Y80816D01*
X219498Y79650D02*
X221830D01*
X220664D01*
Y86648D01*
X219498Y85482D01*
D14*
X229932Y102765D02*
X248182D01*
X239000Y94150D02*
Y112400D01*
D68*
X96750Y310000D02*
Y370000D01*
X183251Y310000D02*
Y370000D01*
X96750Y310000D02*
X183251D01*
X96750Y370000D02*
X183251D01*
X93500Y303000D02*
Y377000D01*
X186500Y303000D02*
Y377000D01*
X93500Y303000D02*
X186500D01*
X93500Y377000D02*
X186500D01*
X166100Y98450D02*
Y221701D01*
X93099Y98450D02*
Y221701D01*
X166100D01*
X93099Y98450D02*
X166100D01*
X129850Y153450D02*
Y168450D01*
X122350Y160825D02*
X137350D01*
X203500Y507000D02*
X296500D01*
X203500Y433000D02*
X296500D01*
Y507000D01*
X203500Y433000D02*
Y507000D01*
X206750Y500000D02*
X293251D01*
X206750Y440000D02*
X293251D01*
Y500000D01*
X206750Y440000D02*
Y500000D01*
X323999Y331000D02*
X476500D01*
X323999Y229249D02*
X476500D01*
X323999D02*
Y331000D01*
X476500Y229249D02*
Y331000D01*
X332000Y337500D02*
X488000D01*
X332000Y222500D02*
X488000D01*
X332000D02*
Y337500D01*
X488000Y222500D02*
Y337500D01*
X450500Y342500D02*
Y377500D01*
X469500Y342500D02*
Y377500D01*
X450500Y342500D02*
X469500D01*
X450500Y377500D02*
X469500D01*
X32500Y147500D02*
Y192500D01*
X7500Y147500D02*
Y192500D01*
X32500D01*
X7500Y147500D02*
X32500D01*
X37500Y212500D02*
X82500D01*
X37500Y187500D02*
X82500D01*
X37500D02*
Y212500D01*
X82500Y187500D02*
Y212500D01*
X247500Y407500D02*
X292500D01*
X247500Y432500D02*
X292500D01*
Y407500D02*
Y432500D01*
X247500Y407500D02*
Y432500D01*
X157500Y492500D02*
X202500D01*
X157500Y467500D02*
X202500D01*
X157500D02*
Y492500D01*
X202500Y467500D02*
Y492500D01*
X157500Y437500D02*
X202500D01*
X157500Y462500D02*
X202500D01*
Y437500D02*
Y462500D01*
X157500Y437500D02*
Y462500D01*
X332500Y387500D02*
Y432500D01*
X307500Y387500D02*
Y432500D01*
X332500D01*
X307500Y387500D02*
X332500D01*
X197500Y432500D02*
X242500D01*
X197500Y407500D02*
X242500D01*
X197500D02*
Y432500D01*
X242500Y407500D02*
Y432500D01*
X327500Y507500D02*
X372500D01*
X327500Y532500D02*
X372500D01*
Y507500D02*
Y532500D01*
X327500Y507500D02*
Y532500D01*
X277500Y507500D02*
X322500D01*
X277500Y532500D02*
X322500D01*
Y507500D02*
Y532500D01*
X277500Y507500D02*
Y532500D01*
X177500Y507500D02*
X222500D01*
X177500Y532500D02*
X222500D01*
Y507500D02*
Y532500D01*
X177500Y507500D02*
Y532500D01*
X227500Y507500D02*
X272500D01*
X227500Y532500D02*
X272500D01*
Y507500D02*
Y532500D01*
X227500Y507500D02*
Y532500D01*
X277500Y307500D02*
Y352500D01*
X302500Y307500D02*
Y352500D01*
X277500Y307500D02*
X302500D01*
X277500Y352500D02*
X302500D01*
X277500Y357500D02*
Y402500D01*
X302500Y357500D02*
Y402500D01*
X277500Y357500D02*
X302500D01*
X277500Y402500D02*
X302500D01*
X61500Y246449D02*
Y341950D01*
X12999Y246449D02*
Y341950D01*
Y246449D02*
X61500D01*
X12999Y341950D02*
X61500D01*
Y357249D02*
Y452750D01*
X12999Y357249D02*
Y452750D01*
Y357249D02*
X61500D01*
X12999Y452750D02*
X61500D01*
X92500Y327500D02*
Y372500D01*
X67500Y327500D02*
Y372500D01*
X92500D01*
X67500Y327500D02*
X92500D01*
X67500Y422500D02*
X112500D01*
X67500Y397500D02*
X112500D01*
X67500D02*
Y422500D01*
X112500Y397500D02*
Y422500D01*
X177500Y292500D02*
X222500D01*
X177500Y267500D02*
X222500D01*
X177500D02*
Y292500D01*
X222500Y267500D02*
Y292500D01*
X172500Y237500D02*
Y282500D01*
X147500Y237500D02*
Y282500D01*
X172500D01*
X147500Y237500D02*
X172500D01*
X97500Y292500D02*
X142500D01*
X97500Y267500D02*
X142500D01*
X97500D02*
Y292500D01*
X142500Y267500D02*
Y292500D01*
X167500Y402500D02*
X212500D01*
X167500Y377500D02*
X212500D01*
X167500D02*
Y402500D01*
X212500Y377500D02*
Y402500D01*
X67500Y427500D02*
X112500D01*
X67500Y452500D02*
X112500D01*
Y427500D02*
Y452500D01*
X67500Y427500D02*
Y452500D01*
X117500Y407500D02*
Y452500D01*
X142500Y407500D02*
Y452500D01*
X117500Y407500D02*
X142500D01*
X117500Y452500D02*
X142500D01*
X34500Y140000D02*
Y180000D01*
X85500Y140000D02*
Y180000D01*
X34500D02*
X85500D01*
X34500Y140000D02*
X85500D01*
X334500Y390000D02*
Y430000D01*
X385500Y390000D02*
Y430000D01*
X334500D02*
X385500D01*
X334500Y390000D02*
X385500D01*
X334500Y450000D02*
Y490000D01*
X385500Y450000D02*
Y490000D01*
X334500D02*
X385500D01*
X334500Y450000D02*
X385500D01*
X224500Y310000D02*
Y350000D01*
X275500Y310000D02*
Y350000D01*
X224500D02*
X275500D01*
X224500Y310000D02*
X275500D01*
X224500Y360000D02*
Y400000D01*
X275500Y360000D02*
Y400000D01*
X224500D02*
X275500D01*
X224500Y360000D02*
X275500D01*
X309000Y202000D02*
X344001D01*
X309000Y217750D02*
X344001D01*
Y202000D02*
Y217750D01*
X309000Y202000D02*
Y217750D01*
X302750Y198500D02*
Y221500D01*
X348750Y198500D02*
Y221500D01*
X302750D02*
X348750D01*
X302750Y198500D02*
X348750D01*
X104500Y91500D02*
X155500D01*
X104500Y68750D02*
X155500D01*
X104500D02*
Y91500D01*
X155500Y68750D02*
Y91500D01*
X490000Y339750D02*
Y380250D01*
X470000Y339750D02*
Y380250D01*
X490000D01*
X470000Y339750D02*
X490000D01*
X471999Y342250D02*
X488000D01*
X471999Y377251D02*
X488000D01*
X471999Y342250D02*
Y377251D01*
X488000Y342250D02*
Y377251D01*
X362000Y221500D02*
X413000D01*
X362000Y198750D02*
X413000D01*
X362000D02*
Y221500D01*
X413000Y198750D02*
Y221500D01*
X214750Y254500D02*
X265750D01*
X214750Y224999D02*
X265750D01*
X214750D02*
Y254500D01*
X265750Y224999D02*
Y254500D01*
X274250Y223500D02*
Y256500D01*
X205750Y223500D02*
Y256500D01*
Y223500D02*
X274250D01*
X205750Y256500D02*
X274250D01*
X214750Y224500D02*
X265750D01*
X214750Y195000D02*
X265750D01*
X214750D02*
Y224500D01*
X265750Y195000D02*
Y224500D01*
X274250Y193500D02*
Y226500D01*
X205750Y193500D02*
Y226500D01*
Y193500D02*
X274250D01*
X205750Y226500D02*
X274250D01*
X399750Y95750D02*
Y184500D01*
X340500Y95750D02*
Y184500D01*
X399750D01*
X340500Y95750D02*
X399750D01*
X336000Y91750D02*
X404000D01*
X336000Y188250D02*
X404000D01*
X336000Y91750D02*
Y188250D01*
X404000Y91750D02*
Y188250D01*
X441500Y417000D02*
Y463000D01*
X418500Y417000D02*
Y463000D01*
X441500D01*
X418500Y417000D02*
X441500D01*
X347000Y451500D02*
X393000D01*
X347000Y428500D02*
X393000D01*
X347000D02*
Y451500D01*
X393000Y428500D02*
Y451500D01*
X127000Y508500D02*
X173000D01*
X127000Y531500D02*
X173000D01*
Y508500D02*
Y531500D01*
X127000Y508500D02*
Y531500D01*
X331500Y447000D02*
Y493000D01*
X308500Y447000D02*
Y493000D01*
X331500D01*
X308500Y447000D02*
X331500D01*
X198500Y317000D02*
Y363000D01*
X221500Y317000D02*
Y363000D01*
X198500Y317000D02*
X221500D01*
X198500Y363000D02*
X221500D01*
X384000Y343500D02*
Y376500D01*
X442500Y343500D02*
Y376500D01*
X384000D02*
X442500D01*
X384000Y343500D02*
X442500D01*
X397000Y378500D02*
X443000D01*
X397000Y401500D02*
X443000D01*
Y378500D02*
Y401500D01*
X397000Y378500D02*
Y401500D01*
X479250Y163500D02*
Y196500D01*
X420750Y163500D02*
Y196500D01*
Y163500D02*
X479250D01*
X420750Y196500D02*
X479250D01*
X427000Y221500D02*
X473000D01*
X427000Y198500D02*
X473000D01*
X427000D02*
Y221500D01*
X473000Y198500D02*
Y221500D01*
X206750Y18400D02*
Y181401D01*
X271751Y18400D02*
Y181401D01*
X206750D02*
X271751D01*
X206750Y18400D02*
X271751D01*
M02*
