G04*
G04 #@! TF.GenerationSoftware,Altium Limited,Altium Designer,22.11.1 (43)*
G04*
G04 Layer_Color=16711935*
%FSLAX44Y44*%
%MOMM*%
G71*
G04*
G04 #@! TF.SameCoordinates,75D7284C-96A1-4F7D-B096-18610DFFEBA5*
G04*
G04*
G04 #@! TF.FilePolarity,Negative*
G04*
G01*
G75*
%ADD45C,1.8032*%
%ADD46R,1.8032X1.8032*%
%ADD47R,1.4032X1.4032*%
%ADD48C,1.4032*%
%ADD49C,7.2032*%
%ADD50C,2.2032*%
G04:AMPARAMS|DCode=51|XSize=2.2032mm|YSize=2.2032mm|CornerRadius=0.6016mm|HoleSize=0mm|Usage=FLASHONLY|Rotation=0.000|XOffset=0mm|YOffset=0mm|HoleType=Round|Shape=RoundedRectangle|*
%AMROUNDEDRECTD51*
21,1,2.2032,1.0000,0,0,0.0*
21,1,1.0000,2.2032,0,0,0.0*
1,1,1.2032,0.5000,-0.5000*
1,1,1.2032,-0.5000,-0.5000*
1,1,1.2032,-0.5000,0.5000*
1,1,1.2032,0.5000,0.5000*
%
%ADD51ROUNDEDRECTD51*%
%ADD52C,1.7272*%
%ADD55C,0.9032*%
G36*
X434660Y213844D02*
X437132D01*
Y213745D01*
X438517D01*
Y213646D01*
X439604D01*
Y213547D01*
X440494D01*
Y213449D01*
X441384D01*
Y213350D01*
X442373D01*
Y213251D01*
X443065D01*
Y213152D01*
X443560D01*
Y213053D01*
X444252D01*
Y212954D01*
X444845D01*
Y212855D01*
X445439D01*
Y212756D01*
X445933D01*
Y212658D01*
X446428D01*
Y212559D01*
X446922D01*
Y212460D01*
X447515D01*
Y212361D01*
X448010D01*
Y212262D01*
X448405D01*
Y212163D01*
X448801D01*
Y212064D01*
X449197D01*
Y211965D01*
X449691D01*
Y211866D01*
X450185D01*
Y211768D01*
X450482D01*
Y211669D01*
X450877D01*
Y211570D01*
X451273D01*
Y211471D01*
X451669D01*
Y211372D01*
X451965D01*
Y211273D01*
X452262D01*
Y211174D01*
X452658D01*
Y211075D01*
X453053D01*
Y210977D01*
X453350D01*
Y210878D01*
X453745D01*
Y210779D01*
X453943D01*
Y210680D01*
X454339D01*
Y210581D01*
X454635D01*
Y210482D01*
X454932D01*
Y210383D01*
X455130D01*
Y210284D01*
X455426D01*
Y210185D01*
X455723D01*
Y210086D01*
X456020D01*
Y209988D01*
X456316D01*
Y209889D01*
X456514D01*
Y209790D01*
X456811D01*
Y209691D01*
X457107D01*
Y209592D01*
X457305D01*
Y209493D01*
X457602D01*
Y209394D01*
X457800D01*
Y209295D01*
X457997D01*
Y209196D01*
X458294D01*
Y209098D01*
X458492D01*
Y208999D01*
X458788D01*
Y208900D01*
X458986D01*
Y208801D01*
X459184D01*
Y208702D01*
X459481D01*
Y208603D01*
X459678D01*
Y208504D01*
X459876D01*
Y208405D01*
X460173D01*
Y208307D01*
X460371D01*
Y208208D01*
X460568D01*
Y208109D01*
X460766D01*
Y208010D01*
X460964D01*
Y207911D01*
X461162D01*
Y207812D01*
X461359D01*
Y207713D01*
X461557D01*
Y207614D01*
X461755D01*
Y207515D01*
X462052D01*
Y207416D01*
X462151D01*
Y207318D01*
X462348D01*
Y207219D01*
X462546D01*
Y207120D01*
X462744D01*
Y207021D01*
X462942D01*
Y206922D01*
X463139D01*
Y206823D01*
X463337D01*
Y206724D01*
X463436D01*
Y206527D01*
X463337D01*
Y206625D01*
X463041D01*
Y206724D01*
X462744D01*
Y206823D01*
X462546D01*
Y206922D01*
X462348D01*
Y207021D01*
X462052D01*
Y207120D01*
X461854D01*
Y207219D01*
X461656D01*
Y207318D01*
X461458D01*
Y207416D01*
X461162D01*
Y207515D01*
X460865D01*
Y207614D01*
X460667D01*
Y207713D01*
X460371D01*
Y207812D01*
X460173D01*
Y207911D01*
X459876D01*
Y208010D01*
X459580D01*
Y208109D01*
X459283D01*
Y208208D01*
X458986D01*
Y208307D01*
X458690D01*
Y208405D01*
X458393D01*
Y208504D01*
X458195D01*
Y208603D01*
X457898D01*
Y208702D01*
X457602D01*
Y208801D01*
X457305D01*
Y208900D01*
X457009D01*
Y208999D01*
X456712D01*
Y209098D01*
X456415D01*
Y209196D01*
X456119D01*
Y209295D01*
X455822D01*
Y209394D01*
X455426D01*
Y209493D01*
X455130D01*
Y209592D01*
X454833D01*
Y209691D01*
X454536D01*
Y209790D01*
X454240D01*
Y209889D01*
X453844D01*
Y209988D01*
X453548D01*
Y210086D01*
X453152D01*
Y210185D01*
X452855D01*
Y210284D01*
X452460D01*
Y210383D01*
X452064D01*
Y210482D01*
X451669D01*
Y210581D01*
X451273D01*
Y210680D01*
X450976D01*
Y210779D01*
X450482D01*
Y210878D01*
X450086D01*
Y210977D01*
X449691D01*
Y211075D01*
X449197D01*
Y211174D01*
X448801D01*
Y211273D01*
X448307D01*
Y211372D01*
X447812D01*
Y211471D01*
X447416D01*
Y211570D01*
X446922D01*
Y211669D01*
X446329D01*
Y211768D01*
X445834D01*
Y211866D01*
X445340D01*
Y211965D01*
X444845D01*
Y212064D01*
X444252D01*
Y212163D01*
X443659D01*
Y212262D01*
X442967D01*
Y212361D01*
X442373D01*
Y212460D01*
X441780D01*
Y212559D01*
X440989D01*
Y212658D01*
X440297D01*
Y212756D01*
X439506D01*
Y212855D01*
X438616D01*
Y212954D01*
X437825D01*
Y213053D01*
X436737D01*
Y213152D01*
X435649D01*
Y213251D01*
X434364D01*
Y213350D01*
X433078D01*
Y213449D01*
X431298D01*
Y213547D01*
X428628D01*
Y213646D01*
X428727D01*
Y213745D01*
X429221D01*
Y213844D01*
X432089D01*
Y213943D01*
X434660D01*
Y213844D01*
D02*
G37*
G36*
X417849Y203065D02*
X420124D01*
Y202967D01*
X422003D01*
Y202868D01*
X423288D01*
Y202769D01*
X424376D01*
Y202670D01*
X425563D01*
Y202571D01*
X426551D01*
Y202472D01*
X427540D01*
Y202373D01*
X428529D01*
Y202274D01*
X429122D01*
Y202176D01*
X429913D01*
Y202077D01*
X430803D01*
Y201978D01*
X431496D01*
Y201879D01*
X432089D01*
Y201780D01*
X432682D01*
Y201681D01*
X433375D01*
Y201582D01*
X433968D01*
Y201483D01*
X434660D01*
Y201384D01*
X435253D01*
Y201286D01*
X435352D01*
Y201088D01*
X433770D01*
Y201187D01*
X431891D01*
Y201286D01*
X430012D01*
Y201384D01*
X427441D01*
Y201483D01*
X424870D01*
Y201582D01*
X422003D01*
Y201681D01*
X412608D01*
Y201582D01*
X409246D01*
Y201483D01*
X406774D01*
Y201384D01*
X404796D01*
Y201286D01*
X403115D01*
Y201187D01*
X401731D01*
Y201088D01*
X400643D01*
Y200989D01*
X399456D01*
Y200890D01*
X398369D01*
Y200791D01*
X397380D01*
Y200692D01*
X396589D01*
Y200593D01*
X395798D01*
Y200494D01*
X395006D01*
Y200396D01*
X394215D01*
Y200297D01*
X393523D01*
Y200198D01*
X393029D01*
Y199901D01*
X393128D01*
Y199506D01*
X393227D01*
Y199209D01*
X393326D01*
Y198912D01*
X393424D01*
Y198517D01*
X393523D01*
Y198220D01*
X393622D01*
Y197923D01*
X393523D01*
Y198022D01*
X393424D01*
Y198121D01*
X393326D01*
Y198220D01*
X393227D01*
Y198418D01*
X393128D01*
Y198517D01*
X393029D01*
Y198715D01*
X392930D01*
Y198813D01*
X392831D01*
Y199011D01*
X392732D01*
Y199110D01*
X392633D01*
Y199308D01*
X392534D01*
Y199407D01*
X392435D01*
Y199604D01*
X392337D01*
Y199802D01*
X392238D01*
Y199901D01*
X392139D01*
Y200099D01*
X392040D01*
Y200198D01*
X391941D01*
Y200396D01*
X391842D01*
Y200494D01*
X391743D01*
Y200692D01*
X391644D01*
Y200791D01*
X391545D01*
Y200989D01*
X391447D01*
Y201088D01*
X391545D01*
Y201187D01*
X391941D01*
Y201286D01*
X392337D01*
Y201384D01*
X392831D01*
Y201483D01*
X393326D01*
Y201582D01*
X393820D01*
Y201681D01*
X394413D01*
Y201780D01*
X395006D01*
Y201879D01*
X395501D01*
Y201978D01*
X396193D01*
Y202077D01*
X396885D01*
Y202176D01*
X397676D01*
Y202274D01*
X398369D01*
Y202373D01*
X399061D01*
Y202472D01*
X400050D01*
Y202571D01*
X400940D01*
Y202670D01*
X402126D01*
Y202769D01*
X403115D01*
Y202868D01*
X404500D01*
Y202967D01*
X406082D01*
Y203065D01*
X408653D01*
Y203164D01*
X417849D01*
Y203065D01*
D02*
G37*
G36*
X373449Y203659D02*
X374141D01*
Y203560D01*
X374735D01*
Y203461D01*
X375130D01*
Y203362D01*
X375526D01*
Y203263D01*
X375822D01*
Y203164D01*
X376119D01*
Y203065D01*
X376416D01*
Y202967D01*
X376712D01*
Y202868D01*
X377009D01*
Y202769D01*
X377207D01*
Y202670D01*
X377405D01*
Y202571D01*
X377603D01*
Y202472D01*
X377800D01*
Y202373D01*
X377998D01*
Y202274D01*
X378196D01*
Y202176D01*
X378394D01*
Y202077D01*
X378591D01*
Y201978D01*
X378690D01*
Y201879D01*
X378888D01*
Y201780D01*
X378987D01*
Y201681D01*
X379185D01*
Y201582D01*
X379283D01*
Y201483D01*
X379481D01*
Y201384D01*
X379580D01*
Y201286D01*
X379778D01*
Y201187D01*
X379877D01*
Y201088D01*
X379976D01*
Y200989D01*
X380173D01*
Y200890D01*
X380272D01*
Y200791D01*
X380371D01*
Y200692D01*
X380470D01*
Y200593D01*
X380569D01*
Y200494D01*
X380668D01*
Y200396D01*
X380767D01*
Y200297D01*
X380866D01*
Y200198D01*
X381063D01*
Y200000D01*
X381162D01*
Y199901D01*
X381261D01*
Y199802D01*
X381360D01*
Y199604D01*
X381261D01*
Y199703D01*
X381162D01*
Y199802D01*
X381063D01*
Y199901D01*
X380866D01*
Y200000D01*
X380767D01*
Y200099D01*
X380668D01*
Y200198D01*
X380569D01*
Y200297D01*
X380371D01*
Y200396D01*
X380272D01*
Y200494D01*
X380173D01*
Y200593D01*
X380075D01*
Y200692D01*
X379877D01*
Y200791D01*
X379778D01*
Y200890D01*
X379580D01*
Y200989D01*
X379481D01*
Y201088D01*
X379283D01*
Y201187D01*
X379086D01*
Y201286D01*
X378987D01*
Y201384D01*
X378789D01*
Y201483D01*
X378591D01*
Y201582D01*
X378394D01*
Y201681D01*
X378196D01*
Y201780D01*
X377998D01*
Y201879D01*
X377701D01*
Y201978D01*
X377504D01*
Y202077D01*
X377306D01*
Y202176D01*
X377009D01*
Y202274D01*
X376712D01*
Y202373D01*
X376416D01*
Y202472D01*
X376119D01*
Y202571D01*
X375724D01*
Y202670D01*
X375328D01*
Y202769D01*
X374735D01*
Y202868D01*
X373944D01*
Y202967D01*
X371570D01*
Y202868D01*
X370680D01*
Y202769D01*
X370186D01*
Y202670D01*
X369692D01*
Y202571D01*
X369395D01*
Y202472D01*
X369098D01*
Y202373D01*
X368703D01*
Y202274D01*
X368406D01*
Y202176D01*
X368208D01*
Y202077D01*
X367911D01*
Y201978D01*
X367714D01*
Y201879D01*
X367516D01*
Y201780D01*
X367219D01*
Y201681D01*
X367121D01*
Y201582D01*
X366923D01*
Y201483D01*
X366725D01*
Y201384D01*
X366527D01*
Y201286D01*
X366329D01*
Y201187D01*
X366231D01*
Y201088D01*
X366033D01*
Y200989D01*
X365835D01*
Y200890D01*
X365736D01*
Y200791D01*
X365538D01*
Y200692D01*
X365439D01*
Y200593D01*
X365340D01*
Y200494D01*
X365143D01*
Y200396D01*
X365044D01*
Y200297D01*
X364945D01*
Y200198D01*
X364747D01*
Y200099D01*
X364648D01*
Y200000D01*
X364549D01*
Y199901D01*
X364450D01*
Y199802D01*
X364352D01*
Y199703D01*
X364253D01*
Y199604D01*
X364154D01*
Y199506D01*
X364055D01*
Y199407D01*
X363956D01*
Y199308D01*
X363857D01*
Y199209D01*
X363758D01*
Y199110D01*
X363659D01*
Y199011D01*
X363560D01*
Y198912D01*
X363462D01*
Y198813D01*
X363363D01*
Y198715D01*
X363264D01*
Y198517D01*
X363165D01*
Y198418D01*
X363066D01*
Y198319D01*
X362967D01*
Y198220D01*
X362868D01*
Y198022D01*
X362769D01*
Y197923D01*
X362671D01*
Y197824D01*
X362572D01*
Y197627D01*
X362473D01*
Y197528D01*
X362374D01*
Y197330D01*
X362275D01*
Y197231D01*
X362176D01*
Y197033D01*
X362077D01*
Y196836D01*
X361978D01*
Y196737D01*
X361880D01*
Y196539D01*
X361781D01*
Y196341D01*
X361682D01*
Y196143D01*
X361583D01*
Y195946D01*
X361484D01*
Y195748D01*
X361385D01*
Y195649D01*
Y195451D01*
X361286D01*
Y195254D01*
X361187D01*
Y194957D01*
X361088D01*
Y194759D01*
X360989D01*
Y194462D01*
X360891D01*
Y194067D01*
X360792D01*
Y193671D01*
X360693D01*
Y193276D01*
X360594D01*
Y193177D01*
X360495D01*
Y193078D01*
X359506D01*
Y193177D01*
X359308D01*
Y193473D01*
X359407D01*
Y193869D01*
X359506D01*
Y194166D01*
X359605D01*
Y194561D01*
X359704D01*
Y194858D01*
X359803D01*
Y195056D01*
X359902D01*
Y195352D01*
X360001D01*
Y195649D01*
X360099D01*
Y195847D01*
X360198D01*
Y196045D01*
X360297D01*
Y196242D01*
X360396D01*
Y196440D01*
X360495D01*
Y196638D01*
X360594D01*
Y196836D01*
X360693D01*
Y197033D01*
X360792D01*
Y197231D01*
X360891D01*
Y197429D01*
X360989D01*
Y197528D01*
X361088D01*
Y197726D01*
X361187D01*
Y197824D01*
X361286D01*
Y198022D01*
X361385D01*
Y198121D01*
X361484D01*
Y198319D01*
X361583D01*
Y198418D01*
X361682D01*
Y198517D01*
X361781D01*
Y198715D01*
X361880D01*
Y198813D01*
X361978D01*
Y198912D01*
X362077D01*
Y199110D01*
X362176D01*
Y199209D01*
X362275D01*
Y199308D01*
X362374D01*
Y199407D01*
X362473D01*
Y199506D01*
X362572D01*
Y199604D01*
X362671D01*
Y199703D01*
X362769D01*
Y199802D01*
X362868D01*
Y199901D01*
X362967D01*
Y200000D01*
X363066D01*
Y200099D01*
X363165D01*
Y200198D01*
X363264D01*
Y200297D01*
X363363D01*
Y200396D01*
X363462D01*
Y200494D01*
X363560D01*
Y200593D01*
X363659D01*
Y200692D01*
X363857D01*
Y200791D01*
X363956D01*
Y200890D01*
X364055D01*
Y200989D01*
X364154D01*
Y201088D01*
X364352D01*
Y201187D01*
X364450D01*
Y201286D01*
X364549D01*
Y201384D01*
X364747D01*
Y201483D01*
X364846D01*
Y201582D01*
X365044D01*
Y201681D01*
X365143D01*
Y201780D01*
X365340D01*
Y201879D01*
X365439D01*
Y201978D01*
X365637D01*
Y202077D01*
X365835D01*
Y202176D01*
X366033D01*
Y202274D01*
X366231D01*
Y202373D01*
X366428D01*
Y202472D01*
X366626D01*
Y202571D01*
X366824D01*
Y202670D01*
X367022D01*
Y202769D01*
X367318D01*
Y202868D01*
X367516D01*
Y202967D01*
X367813D01*
Y203065D01*
X368109D01*
Y203164D01*
X368406D01*
Y203263D01*
X368703D01*
Y203362D01*
X369098D01*
Y203461D01*
X369593D01*
Y203560D01*
X370186D01*
Y203659D01*
X370878D01*
Y203758D01*
X373449D01*
Y203659D01*
D02*
G37*
G36*
X427540Y224623D02*
X428430D01*
Y224524D01*
X429122D01*
Y224425D01*
X429815D01*
Y224326D01*
X430507D01*
Y224227D01*
X431100D01*
Y224128D01*
X431693D01*
Y224030D01*
X432089D01*
Y223931D01*
X432584D01*
Y223832D01*
X433078D01*
Y223733D01*
X433474D01*
Y223634D01*
X433869D01*
Y223535D01*
X434265D01*
Y223436D01*
X434561D01*
Y223337D01*
X434957D01*
Y223238D01*
X435352D01*
Y223139D01*
X435649D01*
Y223041D01*
X436045D01*
Y222942D01*
X436341D01*
Y222843D01*
X436638D01*
Y222744D01*
X437033D01*
Y222645D01*
X437231D01*
Y222546D01*
X437528D01*
Y222447D01*
X437825D01*
Y222348D01*
X438220D01*
Y222250D01*
X438517D01*
Y222151D01*
X438714D01*
Y222052D01*
X439011D01*
Y221953D01*
X439308D01*
Y221854D01*
X439506D01*
Y221755D01*
X439802D01*
Y221656D01*
X440000D01*
Y221557D01*
X440297D01*
Y221458D01*
X440593D01*
Y221360D01*
X440890D01*
Y221261D01*
X441088D01*
Y221162D01*
X441384D01*
Y221063D01*
X441582D01*
Y220964D01*
X441780D01*
Y220865D01*
X442077D01*
Y220766D01*
X442274D01*
Y220667D01*
X442472D01*
Y220569D01*
X442670D01*
Y220470D01*
X442967D01*
Y220371D01*
X443164D01*
Y220272D01*
X443362D01*
Y220173D01*
X443560D01*
Y220074D01*
X443857D01*
Y219975D01*
X444054D01*
Y219876D01*
X444252D01*
Y219777D01*
X444450D01*
Y219678D01*
X444648D01*
Y219580D01*
X444845D01*
Y219481D01*
X445043D01*
Y219382D01*
X445241D01*
Y219283D01*
X445439D01*
Y219184D01*
X445636D01*
Y219085D01*
X445933D01*
Y218986D01*
X446131D01*
Y218887D01*
X446329D01*
Y218789D01*
X446526D01*
Y218690D01*
X446724D01*
Y218591D01*
X446922D01*
Y218492D01*
X447120D01*
Y218393D01*
X447318D01*
Y218294D01*
X447515D01*
Y218195D01*
X447713D01*
Y218096D01*
X447911D01*
Y217997D01*
X448109D01*
Y217899D01*
X448307D01*
Y217800D01*
X448504D01*
Y217701D01*
X448702D01*
Y217602D01*
X448900D01*
Y217503D01*
X449098D01*
Y217404D01*
X449197D01*
Y217305D01*
X449394D01*
Y217206D01*
X449592D01*
Y217107D01*
X449790D01*
Y217008D01*
X449987D01*
Y216910D01*
X450185D01*
Y216811D01*
X450383D01*
Y216712D01*
X450581D01*
Y216613D01*
X450779D01*
Y216514D01*
X450877D01*
Y216415D01*
X451075D01*
Y216316D01*
X451273D01*
Y216217D01*
X451471D01*
Y216119D01*
X451669D01*
Y216020D01*
X451866D01*
Y215921D01*
X452064D01*
Y215822D01*
X452163D01*
Y215723D01*
X452460D01*
Y215624D01*
X452559D01*
Y215525D01*
X452756D01*
Y215426D01*
X452954D01*
Y215327D01*
X453152D01*
Y215229D01*
X453350D01*
Y215130D01*
X453548D01*
Y215031D01*
X453646D01*
Y214932D01*
X453844D01*
Y214833D01*
X454042D01*
Y214734D01*
X454240D01*
Y214635D01*
X454437D01*
Y214536D01*
X454536D01*
Y214438D01*
X454734D01*
Y214339D01*
X454932D01*
Y214240D01*
X455130D01*
Y214141D01*
X455327D01*
Y214042D01*
X455426D01*
Y213943D01*
X455624D01*
Y213844D01*
X455822D01*
Y213745D01*
X456020D01*
Y213646D01*
X456119D01*
Y213547D01*
X456316D01*
Y213449D01*
X456514D01*
Y213350D01*
X456712D01*
Y213251D01*
X456811D01*
Y213152D01*
X457009D01*
Y213053D01*
X457206D01*
Y212954D01*
X457404D01*
Y212855D01*
X457602D01*
Y212756D01*
X457701D01*
Y212658D01*
X457898D01*
Y212559D01*
X458096D01*
Y212460D01*
X458294D01*
Y212361D01*
X458393D01*
Y212262D01*
X458591D01*
Y212163D01*
X458788D01*
Y212064D01*
X458887D01*
Y211965D01*
X459085D01*
Y211866D01*
X459283D01*
Y211768D01*
X459481D01*
Y211669D01*
X459580D01*
Y211570D01*
X459777D01*
Y211471D01*
X459975D01*
Y211372D01*
X460173D01*
Y211273D01*
X460272D01*
Y211174D01*
X460470D01*
Y211075D01*
X460667D01*
Y210977D01*
X460865D01*
Y210878D01*
X460964D01*
Y210779D01*
X461162D01*
Y210680D01*
X461359D01*
Y210581D01*
X461458D01*
Y210482D01*
X461656D01*
Y210383D01*
X461854D01*
Y210284D01*
X461953D01*
Y210185D01*
X462151D01*
Y210086D01*
X462348D01*
Y209988D01*
X462546D01*
Y209889D01*
X462645D01*
Y209790D01*
X462843D01*
Y209691D01*
X463041D01*
Y209592D01*
X463238D01*
Y209493D01*
X463337D01*
Y209394D01*
X463535D01*
Y209295D01*
X463733D01*
Y209196D01*
X463931D01*
Y209098D01*
X464030D01*
Y208999D01*
X464227D01*
Y208900D01*
X464425D01*
Y208801D01*
X464524D01*
Y208702D01*
X464722D01*
Y208603D01*
X464920D01*
Y208504D01*
X465117D01*
Y208405D01*
X465216D01*
Y208307D01*
X465414D01*
Y208208D01*
X465612D01*
Y208109D01*
X465710D01*
Y208010D01*
X465908D01*
Y207911D01*
X466106D01*
Y207812D01*
X466205D01*
Y207713D01*
X466403D01*
Y207614D01*
X466600D01*
Y207515D01*
X466699D01*
Y207416D01*
X466897D01*
Y207318D01*
X467095D01*
Y207219D01*
X467194D01*
Y207120D01*
X467392D01*
Y207021D01*
X467589D01*
Y206922D01*
X467787D01*
Y206823D01*
X467886D01*
Y206724D01*
X468084D01*
Y206625D01*
X468282D01*
Y206527D01*
X468479D01*
Y206428D01*
X468578D01*
Y206329D01*
X468776D01*
Y206230D01*
X468974D01*
Y206131D01*
X469172D01*
Y206032D01*
X469369D01*
Y205933D01*
X469567D01*
Y205834D01*
X469765D01*
Y205735D01*
X469963D01*
Y205637D01*
X470062D01*
Y205538D01*
X470259D01*
Y205439D01*
X470457D01*
Y205340D01*
X470655D01*
Y205241D01*
X470853D01*
Y205142D01*
X471050D01*
Y205043D01*
X471248D01*
Y204944D01*
X471446D01*
Y204846D01*
X471644D01*
Y204747D01*
X471842D01*
Y204648D01*
X472039D01*
Y204549D01*
X472237D01*
Y204450D01*
X472435D01*
Y204351D01*
X472633D01*
Y204252D01*
X472929D01*
Y204153D01*
X473127D01*
Y204054D01*
X473325D01*
Y203955D01*
X473523D01*
Y203857D01*
X473720D01*
Y203758D01*
X473918D01*
Y203659D01*
X474215D01*
Y203560D01*
X474413D01*
Y203461D01*
X474709D01*
Y203362D01*
X474907D01*
Y203263D01*
X475105D01*
Y203164D01*
X475401D01*
Y203065D01*
X475599D01*
Y202967D01*
X475797D01*
Y202868D01*
X475896D01*
Y202769D01*
X476094D01*
Y202670D01*
X476292D01*
Y202571D01*
X476390D01*
Y202472D01*
X476489D01*
Y202373D01*
X476687D01*
Y202274D01*
X476786D01*
Y202176D01*
X476885D01*
Y202077D01*
X476984D01*
Y201978D01*
X477082D01*
Y201879D01*
X477181D01*
Y201780D01*
X477280D01*
Y201681D01*
X477379D01*
Y201582D01*
X477478D01*
Y201483D01*
X477577D01*
Y201384D01*
X477676D01*
Y201286D01*
X477775D01*
Y201088D01*
X477874D01*
Y200989D01*
X477972D01*
Y200890D01*
X478071D01*
Y200692D01*
X478170D01*
Y200494D01*
X478269D01*
Y200297D01*
X478368D01*
Y200099D01*
X478467D01*
Y199901D01*
X478566D01*
Y199110D01*
X478467D01*
Y199011D01*
X477577D01*
Y199110D01*
X471644D01*
Y199011D01*
X470062D01*
Y198912D01*
X469271D01*
Y198813D01*
X468578D01*
Y198715D01*
X467985D01*
Y198616D01*
X467491D01*
Y198517D01*
X467095D01*
Y198418D01*
X466798D01*
Y198319D01*
X466502D01*
Y198220D01*
X466304D01*
Y198121D01*
X466205D01*
Y198022D01*
X466007D01*
Y197923D01*
X465908D01*
Y197824D01*
X465710D01*
Y198022D01*
X465810D01*
Y198121D01*
X465908D01*
Y198220D01*
X466106D01*
Y198319D01*
X466205D01*
Y198418D01*
X466403D01*
Y198517D01*
X466600D01*
Y198616D01*
X466897D01*
Y198715D01*
X467194D01*
Y198813D01*
X467589D01*
Y198912D01*
X467985D01*
Y199011D01*
X468381D01*
Y199110D01*
X469073D01*
Y199209D01*
X470062D01*
Y199308D01*
X471149D01*
Y199407D01*
X472534D01*
Y199506D01*
X475401D01*
Y199604D01*
X475599D01*
Y199506D01*
X475797D01*
Y199604D01*
X476094D01*
Y199506D01*
X476489D01*
Y199604D01*
X476687D01*
Y199506D01*
X478071D01*
Y199802D01*
X477972D01*
Y200099D01*
X477874D01*
Y200198D01*
X477775D01*
Y200396D01*
X477676D01*
Y200494D01*
X477577D01*
Y200692D01*
X477478D01*
Y200791D01*
X477379D01*
Y200890D01*
X477280D01*
Y201088D01*
X477181D01*
Y201187D01*
X477082D01*
Y201286D01*
X476984D01*
Y201384D01*
X476885D01*
Y201483D01*
X476786D01*
Y201582D01*
X476588D01*
Y201681D01*
X476489D01*
Y201780D01*
X476390D01*
Y201879D01*
X476292D01*
Y201978D01*
X476094D01*
Y202077D01*
X475995D01*
Y202176D01*
X475797D01*
Y202274D01*
X475599D01*
Y202373D01*
X475401D01*
Y202472D01*
X475204D01*
Y202571D01*
X475006D01*
Y202670D01*
X474709D01*
Y202769D01*
X474511D01*
Y202868D01*
X474215D01*
Y202967D01*
X474017D01*
Y203065D01*
X473720D01*
Y203164D01*
X473523D01*
Y203263D01*
X473226D01*
Y203362D01*
X473028D01*
Y203461D01*
X472830D01*
Y203560D01*
X472633D01*
Y203659D01*
X472336D01*
Y203758D01*
X472138D01*
Y203857D01*
X471940D01*
Y203955D01*
X471743D01*
Y204054D01*
X471545D01*
Y204153D01*
X471248D01*
Y204252D01*
X471050D01*
Y204351D01*
X470853D01*
Y204450D01*
X470655D01*
Y204549D01*
X470457D01*
Y204648D01*
X470259D01*
Y204747D01*
X470062D01*
Y204846D01*
X469864D01*
Y204944D01*
X469666D01*
Y205043D01*
X469468D01*
Y205142D01*
X469271D01*
Y205241D01*
X469073D01*
Y205340D01*
X468875D01*
Y205439D01*
X468677D01*
Y205538D01*
X468479D01*
Y205637D01*
X468282D01*
Y205735D01*
X468084D01*
Y205834D01*
X467886D01*
Y205933D01*
X467787D01*
Y206032D01*
X467589D01*
Y206131D01*
X467392D01*
Y206230D01*
X467194D01*
Y206329D01*
X466996D01*
Y206428D01*
X466798D01*
Y206527D01*
X466600D01*
Y206625D01*
X466403D01*
Y206724D01*
X466304D01*
Y206823D01*
X466106D01*
Y206922D01*
X465908D01*
Y207021D01*
X465710D01*
Y207120D01*
X465513D01*
Y207219D01*
X465414D01*
Y207318D01*
X465216D01*
Y207416D01*
X465018D01*
Y207515D01*
X464821D01*
Y207614D01*
X464722D01*
Y207713D01*
X464524D01*
Y207812D01*
X464326D01*
Y207911D01*
X464227D01*
Y208010D01*
X464030D01*
Y208109D01*
X463832D01*
Y208208D01*
X463634D01*
Y208307D01*
X463436D01*
Y208405D01*
X463337D01*
Y208504D01*
X463139D01*
Y208603D01*
X462942D01*
Y208702D01*
X462744D01*
Y208801D01*
X462546D01*
Y208900D01*
X462348D01*
Y208999D01*
X462249D01*
Y209098D01*
X462052D01*
Y209196D01*
X461854D01*
Y209295D01*
X461656D01*
Y209394D01*
X461458D01*
Y209493D01*
X461359D01*
Y209592D01*
X461162D01*
Y209691D01*
X460964D01*
Y209790D01*
X460766D01*
Y209889D01*
X460568D01*
Y209988D01*
X460470D01*
Y210086D01*
X460272D01*
Y210185D01*
X460074D01*
Y210284D01*
X459876D01*
Y210383D01*
X459678D01*
Y210482D01*
X459580D01*
Y210581D01*
X459382D01*
Y210680D01*
X459184D01*
Y210779D01*
X458986D01*
Y210878D01*
X458887D01*
Y210977D01*
X458690D01*
Y211075D01*
X458492D01*
Y211174D01*
X458294D01*
Y211273D01*
X458096D01*
Y211372D01*
X457997D01*
Y211471D01*
X457800D01*
Y211570D01*
X457602D01*
Y211669D01*
X457404D01*
Y211768D01*
X457305D01*
Y211866D01*
X457107D01*
Y211965D01*
X456910D01*
Y212064D01*
X456712D01*
Y212163D01*
X456514D01*
Y212262D01*
X456316D01*
Y212361D01*
X456119D01*
Y212460D01*
X456020D01*
Y212559D01*
X455822D01*
Y212658D01*
X455624D01*
Y212756D01*
X455426D01*
Y212855D01*
X455229D01*
Y212954D01*
X455031D01*
Y213053D01*
X454932D01*
Y213152D01*
X454734D01*
Y213251D01*
X454536D01*
Y213350D01*
X454339D01*
Y213449D01*
X454141D01*
Y213547D01*
X453943D01*
Y213646D01*
X453745D01*
Y213745D01*
X453646D01*
Y213844D01*
X453449D01*
Y213943D01*
X453251D01*
Y214042D01*
X453053D01*
Y214141D01*
X452855D01*
Y214240D01*
X452658D01*
Y214339D01*
X452460D01*
Y214438D01*
X452361D01*
Y214536D01*
X452163D01*
Y214635D01*
X451965D01*
Y214734D01*
X451768D01*
Y214833D01*
X451570D01*
Y214932D01*
X451372D01*
Y215031D01*
X451174D01*
Y215130D01*
X450976D01*
Y215229D01*
X450779D01*
Y215327D01*
X450581D01*
Y215426D01*
X450383D01*
Y215525D01*
X450185D01*
Y215624D01*
X449987D01*
Y215723D01*
X449790D01*
Y215822D01*
X449592D01*
Y215921D01*
X449394D01*
Y216020D01*
X449197D01*
Y216119D01*
X448999D01*
Y216217D01*
X448801D01*
Y216316D01*
X448603D01*
Y216415D01*
X448405D01*
Y216514D01*
X448208D01*
Y216613D01*
X448010D01*
Y216712D01*
X447911D01*
Y216811D01*
X447614D01*
Y216910D01*
X447416D01*
Y217008D01*
X447219D01*
Y217107D01*
X447021D01*
Y217206D01*
X446823D01*
Y217305D01*
X446625D01*
Y217404D01*
X446428D01*
Y217503D01*
X446230D01*
Y217602D01*
X446032D01*
Y217701D01*
X445834D01*
Y217800D01*
X445636D01*
Y217899D01*
X445439D01*
Y217997D01*
X445142D01*
Y218096D01*
X444944D01*
Y218195D01*
X444747D01*
Y218294D01*
X444549D01*
Y218393D01*
X444351D01*
Y218492D01*
X444153D01*
Y218591D01*
X443955D01*
Y218690D01*
X443758D01*
Y218789D01*
X443461D01*
Y218887D01*
X443263D01*
Y218986D01*
X443065D01*
Y219085D01*
X442868D01*
Y219184D01*
X442571D01*
Y219283D01*
X442373D01*
Y219382D01*
X442077D01*
Y219481D01*
X441879D01*
Y219580D01*
X441681D01*
Y219678D01*
X441483D01*
Y219777D01*
X441187D01*
Y219876D01*
X440989D01*
Y219975D01*
X440692D01*
Y220074D01*
X440494D01*
Y220173D01*
X440198D01*
Y220272D01*
X439901D01*
Y220371D01*
X439604D01*
Y220470D01*
X439407D01*
Y220569D01*
X439110D01*
Y220667D01*
X438912D01*
Y220766D01*
X438616D01*
Y220865D01*
X438319D01*
Y220964D01*
X438022D01*
Y221063D01*
X437726D01*
Y221162D01*
X437429D01*
Y221261D01*
X437033D01*
Y221360D01*
X436836D01*
Y221458D01*
X436440D01*
Y221557D01*
X436143D01*
Y221656D01*
X435748D01*
Y221755D01*
X435451D01*
Y221854D01*
X435056D01*
Y221953D01*
X434759D01*
Y222052D01*
X434364D01*
Y222151D01*
X433968D01*
Y222250D01*
X433572D01*
Y222348D01*
X433177D01*
Y222447D01*
X432682D01*
Y222546D01*
X432188D01*
Y222645D01*
X431693D01*
Y222744D01*
X431199D01*
Y222843D01*
X430606D01*
Y222942D01*
X430012D01*
Y223041D01*
X429221D01*
Y223139D01*
X428331D01*
Y223238D01*
X427342D01*
Y223337D01*
X422695D01*
Y223238D01*
X422003D01*
Y223139D01*
X421805D01*
Y222942D01*
X421904D01*
Y222843D01*
X422003D01*
Y222744D01*
X422102D01*
Y222546D01*
X422200D01*
Y222447D01*
X422299D01*
Y222348D01*
X422398D01*
Y222151D01*
X422497D01*
Y222052D01*
X422596D01*
Y221854D01*
X422695D01*
Y221755D01*
X422794D01*
Y221656D01*
X422893D01*
Y221458D01*
X422991D01*
Y221360D01*
X423090D01*
Y221162D01*
X423189D01*
Y221063D01*
X423288D01*
Y220964D01*
X423387D01*
Y220766D01*
X423486D01*
Y220667D01*
X423585D01*
Y220569D01*
X423684D01*
Y220371D01*
X423783D01*
Y220272D01*
X423881D01*
Y220074D01*
X423980D01*
Y219975D01*
X424079D01*
Y219876D01*
X424178D01*
Y219678D01*
X424277D01*
Y219580D01*
X424376D01*
Y219481D01*
X424475D01*
Y219283D01*
X424574D01*
Y219184D01*
X424673D01*
Y219085D01*
X424771D01*
Y218887D01*
X424870D01*
Y218789D01*
X424969D01*
Y218591D01*
X425068D01*
Y218492D01*
X425167D01*
Y218393D01*
X425266D01*
Y218195D01*
X425365D01*
Y218096D01*
X425464D01*
Y217997D01*
X425563D01*
Y217899D01*
X425662D01*
Y217701D01*
X425760D01*
Y217602D01*
X425859D01*
Y217503D01*
X425958D01*
Y217305D01*
X426057D01*
Y217206D01*
X426156D01*
Y217107D01*
X426255D01*
Y216910D01*
X426354D01*
Y216811D01*
X426452D01*
Y216712D01*
X426551D01*
Y216514D01*
X426650D01*
Y216415D01*
X426749D01*
Y216217D01*
X426848D01*
Y216020D01*
X426947D01*
Y215723D01*
X427046D01*
Y215426D01*
X427145D01*
Y214438D01*
X427046D01*
Y214042D01*
X426947D01*
Y213844D01*
X426848D01*
Y213646D01*
X426749D01*
Y213449D01*
X426650D01*
Y213350D01*
X426551D01*
Y213152D01*
X426452D01*
Y213053D01*
X426354D01*
Y212954D01*
X426255D01*
Y212855D01*
X426156D01*
Y212756D01*
X426057D01*
Y212658D01*
X425958D01*
Y212559D01*
X425859D01*
Y212460D01*
X425760D01*
Y212361D01*
X425563D01*
Y212262D01*
X425464D01*
Y212163D01*
X425266D01*
Y212064D01*
X425167D01*
Y211965D01*
X424969D01*
Y211866D01*
X424870D01*
Y211768D01*
X424673D01*
Y211669D01*
X424475D01*
Y211570D01*
X424277D01*
Y211471D01*
X424079D01*
Y211372D01*
X423881D01*
Y211273D01*
X423684D01*
Y211174D01*
X423387D01*
Y211075D01*
X423189D01*
Y210977D01*
X422893D01*
Y210878D01*
X422695D01*
Y210779D01*
X422398D01*
Y210680D01*
X422102D01*
Y210581D01*
X421805D01*
Y210482D01*
X421508D01*
Y210383D01*
X421113D01*
Y210284D01*
X420717D01*
Y210185D01*
X420322D01*
Y210086D01*
X419926D01*
Y209988D01*
X419530D01*
Y209889D01*
X419036D01*
Y209790D01*
X418542D01*
Y209691D01*
X418146D01*
Y209592D01*
X417751D01*
Y209493D01*
X417256D01*
Y209394D01*
X416762D01*
Y209295D01*
X416267D01*
Y209196D01*
X415773D01*
Y209098D01*
X415377D01*
Y208999D01*
X414784D01*
Y208900D01*
X414290D01*
Y208801D01*
X413795D01*
Y208702D01*
X413301D01*
Y208603D01*
X412806D01*
Y208504D01*
X412213D01*
Y208405D01*
X411619D01*
Y208307D01*
X411125D01*
Y208208D01*
X410631D01*
Y208109D01*
X410037D01*
Y208010D01*
X409444D01*
Y207911D01*
X408851D01*
Y207812D01*
X408257D01*
Y207713D01*
X407763D01*
Y207614D01*
X407170D01*
Y207515D01*
X406576D01*
Y207416D01*
X405983D01*
Y207318D01*
X405291D01*
Y207219D01*
X404796D01*
Y207120D01*
X404203D01*
Y207021D01*
X403511D01*
Y206922D01*
X402918D01*
Y206823D01*
X402225D01*
Y206724D01*
X401731D01*
Y206625D01*
X401039D01*
Y206527D01*
X400346D01*
Y206428D01*
X399654D01*
Y206329D01*
X399061D01*
Y206230D01*
X398468D01*
Y206131D01*
X397775D01*
Y206032D01*
X397083D01*
Y205933D01*
X396391D01*
Y205834D01*
X395798D01*
Y205735D01*
X395105D01*
Y205637D01*
X394413D01*
Y205538D01*
X393523D01*
Y205439D01*
X392930D01*
Y205340D01*
X392238D01*
Y205241D01*
X391545D01*
Y205142D01*
X390754D01*
Y205043D01*
X389963D01*
Y204944D01*
X389271D01*
Y204846D01*
X388579D01*
Y204747D01*
X387293D01*
Y204846D01*
X386997D01*
Y204944D01*
X386799D01*
Y205043D01*
X386601D01*
Y205142D01*
X386502D01*
Y205241D01*
X386305D01*
Y205340D01*
X386206D01*
Y205439D01*
X386107D01*
Y205538D01*
X386008D01*
Y205735D01*
X385909D01*
Y205834D01*
X385810D01*
Y206032D01*
X385711D01*
Y206230D01*
X385612D01*
Y206428D01*
X385513D01*
Y206724D01*
X385415D01*
Y206922D01*
X385316D01*
Y207219D01*
X385217D01*
Y207416D01*
X384228D01*
Y207318D01*
X382646D01*
Y207219D01*
X380965D01*
Y207120D01*
X378987D01*
Y207021D01*
X377504D01*
Y206922D01*
X376416D01*
Y206823D01*
X375427D01*
Y206724D01*
X374339D01*
Y206625D01*
X373251D01*
Y206527D01*
X372065D01*
Y206428D01*
X370977D01*
Y206329D01*
X370285D01*
Y206230D01*
X369494D01*
Y206131D01*
X368703D01*
Y206032D01*
X367813D01*
Y205933D01*
X367121D01*
Y205834D01*
X366329D01*
Y205735D01*
X365637D01*
Y205637D01*
X364846D01*
Y205538D01*
X364055D01*
Y205439D01*
X363462D01*
Y205340D01*
X362967D01*
Y205241D01*
X362275D01*
Y205142D01*
X361682D01*
Y205043D01*
X361088D01*
Y204944D01*
X360396D01*
Y204846D01*
X359902D01*
Y204747D01*
X359308D01*
Y204648D01*
X358616D01*
Y204549D01*
X358122D01*
Y204450D01*
X357627D01*
Y204351D01*
X357133D01*
Y204252D01*
X356638D01*
Y204153D01*
X356144D01*
Y204054D01*
X355650D01*
Y203955D01*
X355155D01*
Y203857D01*
X354661D01*
Y203758D01*
X354166D01*
Y203659D01*
X353672D01*
Y203560D01*
X353177D01*
Y203461D01*
X352782D01*
Y203362D01*
X352287D01*
Y203263D01*
X351892D01*
Y203164D01*
X351496D01*
Y203065D01*
X351101D01*
Y202967D01*
X350705D01*
Y202868D01*
X350211D01*
Y202769D01*
X349815D01*
Y202670D01*
X349420D01*
Y202571D01*
X349024D01*
Y202472D01*
X348629D01*
Y202373D01*
X348233D01*
Y202274D01*
X347739D01*
Y202176D01*
X347343D01*
Y202077D01*
X347046D01*
Y201978D01*
X346651D01*
Y201879D01*
X346354D01*
Y201780D01*
X345959D01*
Y201681D01*
X345563D01*
Y201582D01*
X345266D01*
Y201483D01*
X344871D01*
Y201384D01*
X344574D01*
Y201286D01*
X344179D01*
Y201187D01*
X343783D01*
Y201088D01*
X343487D01*
Y200989D01*
X343091D01*
Y200890D01*
X342794D01*
Y200791D01*
X342399D01*
Y200692D01*
X342102D01*
Y200593D01*
X341805D01*
Y200494D01*
X341509D01*
Y200396D01*
X341212D01*
Y200297D01*
X340817D01*
Y200198D01*
X340619D01*
Y200099D01*
X340223D01*
Y200000D01*
X339927D01*
Y199901D01*
X339630D01*
Y199802D01*
X339333D01*
Y199703D01*
X339037D01*
Y199604D01*
X338740D01*
Y199506D01*
X338443D01*
Y199407D01*
X338147D01*
Y199308D01*
X337850D01*
Y199209D01*
X337553D01*
Y199110D01*
X337257D01*
Y199011D01*
X336960D01*
Y198912D01*
X336762D01*
Y198813D01*
X336466D01*
Y198715D01*
X336169D01*
Y198616D01*
X335872D01*
Y198517D01*
X335576D01*
Y198418D01*
X335279D01*
Y198319D01*
X335081D01*
Y198220D01*
X334785D01*
Y198121D01*
X334587D01*
Y198022D01*
X334290D01*
Y197923D01*
X334092D01*
Y197824D01*
X333796D01*
Y197726D01*
X333598D01*
Y197627D01*
X333301D01*
Y197528D01*
X333004D01*
Y197429D01*
X332807D01*
Y197330D01*
X332510D01*
Y197231D01*
X332312D01*
Y197132D01*
X332016D01*
Y197033D01*
X331818D01*
Y196935D01*
X331620D01*
Y196836D01*
X331323D01*
Y196737D01*
X331126D01*
Y196638D01*
X330928D01*
Y196539D01*
X330631D01*
Y196440D01*
X330434D01*
Y196341D01*
X330236D01*
Y196242D01*
X329939D01*
Y196143D01*
X329741D01*
Y196045D01*
X329543D01*
Y195946D01*
X329346D01*
Y195847D01*
X329148D01*
Y195748D01*
X328851D01*
Y195649D01*
X328653D01*
Y195550D01*
X328456D01*
Y195451D01*
X328258D01*
Y195352D01*
X328060D01*
Y195254D01*
X327763D01*
Y195154D01*
X327566D01*
Y195056D01*
X327368D01*
Y194957D01*
X327170D01*
Y194858D01*
X326973D01*
Y194759D01*
X326775D01*
Y194660D01*
X326577D01*
Y194561D01*
X326379D01*
Y194462D01*
X326280D01*
Y194363D01*
X325984D01*
Y194265D01*
X325786D01*
Y194166D01*
X325588D01*
Y194067D01*
X325489D01*
Y193968D01*
X325291D01*
Y193869D01*
X325094D01*
Y193770D01*
X324896D01*
Y193671D01*
X324698D01*
Y193572D01*
X324500D01*
Y193473D01*
X324401D01*
Y193375D01*
X324204D01*
Y193276D01*
X324006D01*
Y193177D01*
X323808D01*
Y193078D01*
X323709D01*
Y192979D01*
X323511D01*
Y192880D01*
X323314D01*
Y192781D01*
X323215D01*
Y192682D01*
X323116D01*
Y192584D01*
X323017D01*
Y192188D01*
X323116D01*
Y191792D01*
X323215D01*
Y191595D01*
X323314D01*
Y191397D01*
X323413D01*
Y191199D01*
X323511D01*
Y191001D01*
X323610D01*
Y190902D01*
X323709D01*
Y190705D01*
X323808D01*
Y190606D01*
X323907D01*
Y190507D01*
X324006D01*
Y190309D01*
X324105D01*
Y190210D01*
X324204D01*
Y190111D01*
X324302D01*
Y190012D01*
X324401D01*
Y189914D01*
X324500D01*
Y189815D01*
X324599D01*
Y189716D01*
X324698D01*
Y189617D01*
X324797D01*
Y189518D01*
X324896D01*
Y189419D01*
X324995D01*
Y189320D01*
X325094D01*
Y189221D01*
X325192D01*
Y189123D01*
X325291D01*
Y189024D01*
X325390D01*
Y188925D01*
X325489D01*
Y188826D01*
X325588D01*
Y188727D01*
X325687D01*
Y188628D01*
X325885D01*
Y188529D01*
X325984D01*
Y188430D01*
X326082D01*
Y188331D01*
X326181D01*
Y188232D01*
X326280D01*
Y188134D01*
X326478D01*
Y188035D01*
X326577D01*
Y187936D01*
X326676D01*
Y187837D01*
X326775D01*
Y187738D01*
X326973D01*
Y187639D01*
X327071D01*
Y187540D01*
X327170D01*
Y187441D01*
X327368D01*
Y187342D01*
X327467D01*
Y187244D01*
X327665D01*
Y187145D01*
X327763D01*
Y187046D01*
X327862D01*
Y186947D01*
X328060D01*
Y186848D01*
X328159D01*
Y186749D01*
X328357D01*
Y186650D01*
X328456D01*
Y186551D01*
X328653D01*
Y186453D01*
X328752D01*
Y186354D01*
X328950D01*
Y186255D01*
X329049D01*
Y186156D01*
X329247D01*
Y186057D01*
X329346D01*
Y185958D01*
X329543D01*
Y185859D01*
X329642D01*
Y185760D01*
X329840D01*
Y185662D01*
X330038D01*
Y185562D01*
X330137D01*
Y185464D01*
X330335D01*
Y185365D01*
X330434D01*
Y185266D01*
X330631D01*
Y185167D01*
X330829D01*
Y185068D01*
X330928D01*
Y184969D01*
X331126D01*
Y184870D01*
X331323D01*
Y184771D01*
X331422D01*
Y184673D01*
X331620D01*
Y184574D01*
X331818D01*
Y184475D01*
X332016D01*
Y184376D01*
X332115D01*
Y184277D01*
X332312D01*
Y184178D01*
X332510D01*
Y184079D01*
X332708D01*
Y183980D01*
X332906D01*
Y183881D01*
X333004D01*
Y183783D01*
X333202D01*
Y183684D01*
X333400D01*
Y183585D01*
X333598D01*
Y183486D01*
X333796D01*
Y183387D01*
X333993D01*
Y183288D01*
X334191D01*
Y183189D01*
X334290D01*
Y183090D01*
X334488D01*
Y182992D01*
X334686D01*
Y182893D01*
X334883D01*
Y182794D01*
X335081D01*
Y182695D01*
X335279D01*
Y182596D01*
X335477D01*
Y182497D01*
X335675D01*
Y182398D01*
X335872D01*
Y182299D01*
X336070D01*
Y182200D01*
X336268D01*
Y182101D01*
X336466D01*
Y182003D01*
X336663D01*
Y181904D01*
X336861D01*
Y181805D01*
X338839D01*
Y181706D01*
X341608D01*
Y181607D01*
X344179D01*
Y181508D01*
X348332D01*
Y181607D01*
X351101D01*
Y181706D01*
X353870D01*
Y181805D01*
X356638D01*
Y181904D01*
X359407D01*
Y182003D01*
X362176D01*
Y182101D01*
X365044D01*
Y182200D01*
X367813D01*
Y182299D01*
X370582D01*
Y182398D01*
X373449D01*
Y182497D01*
X381657D01*
Y185760D01*
X381756D01*
Y190012D01*
X381855D01*
Y190507D01*
X381954D01*
Y190804D01*
X382052D01*
Y191001D01*
X382151D01*
Y191298D01*
X382250D01*
Y191397D01*
X382349D01*
Y191595D01*
X382448D01*
Y191792D01*
X382547D01*
Y191891D01*
X382646D01*
Y191990D01*
X382744D01*
Y192089D01*
X382844D01*
Y192287D01*
X382942D01*
Y192386D01*
X383041D01*
Y192485D01*
X383239D01*
Y192584D01*
X383338D01*
Y192682D01*
X383437D01*
Y192781D01*
X383536D01*
Y192880D01*
X383733D01*
Y192979D01*
X383832D01*
Y193078D01*
X384030D01*
Y193177D01*
X384327D01*
Y193276D01*
X384525D01*
Y193375D01*
X384821D01*
Y193473D01*
X385513D01*
Y193572D01*
X386206D01*
Y193473D01*
X386799D01*
Y193375D01*
X387096D01*
Y193276D01*
X387392D01*
Y193177D01*
X387689D01*
Y193078D01*
X387887D01*
Y192979D01*
X388084D01*
Y192880D01*
X388183D01*
Y192781D01*
X388381D01*
Y192682D01*
X388480D01*
Y192584D01*
X388678D01*
Y192485D01*
X388777D01*
Y192386D01*
X388876D01*
Y192287D01*
X388974D01*
Y192188D01*
X389172D01*
Y192089D01*
X389271D01*
Y191990D01*
X389370D01*
Y191891D01*
X389469D01*
Y191792D01*
X389568D01*
Y191694D01*
X389963D01*
Y191792D01*
X390062D01*
Y196440D01*
X390161D01*
Y196539D01*
X390260D01*
Y196737D01*
X390359D01*
Y196836D01*
X390557D01*
Y196935D01*
X392435D01*
Y196836D01*
X392534D01*
Y196737D01*
X392633D01*
Y196638D01*
X392732D01*
Y196539D01*
X392831D01*
Y196440D01*
X392930D01*
Y184673D01*
X392831D01*
Y180519D01*
X392732D01*
Y180420D01*
X392633D01*
Y180223D01*
X392435D01*
Y180124D01*
X392337D01*
Y180025D01*
X390557D01*
Y180124D01*
X390359D01*
Y180223D01*
X390260D01*
Y180322D01*
X390161D01*
Y180420D01*
X390062D01*
Y180618D01*
X389963D01*
Y183585D01*
X390062D01*
Y187639D01*
X389963D01*
Y188232D01*
X389864D01*
Y188628D01*
X389766D01*
Y188826D01*
X389667D01*
Y189123D01*
X389568D01*
Y189320D01*
X389469D01*
Y189419D01*
X389370D01*
Y189617D01*
X389271D01*
Y189716D01*
X389172D01*
Y189914D01*
X389073D01*
Y190012D01*
X388974D01*
Y190111D01*
X388876D01*
Y190210D01*
X388777D01*
Y190309D01*
X388678D01*
Y190408D01*
X388579D01*
Y190507D01*
X388381D01*
Y190606D01*
X388282D01*
Y190705D01*
X388084D01*
Y190804D01*
X387887D01*
Y190902D01*
X387590D01*
Y191001D01*
X387195D01*
Y191100D01*
X386107D01*
Y191001D01*
X385810D01*
Y190902D01*
X385612D01*
Y190804D01*
X385513D01*
Y190705D01*
X385415D01*
Y190606D01*
X385217D01*
Y190507D01*
X385118D01*
Y190408D01*
X385019D01*
Y190210D01*
X384920D01*
Y190111D01*
X384821D01*
Y189914D01*
X384722D01*
Y189716D01*
X384623D01*
Y189518D01*
X384525D01*
Y189123D01*
X384426D01*
Y188628D01*
X384327D01*
Y180618D01*
X384228D01*
Y180519D01*
X384129D01*
Y180420D01*
X384030D01*
Y180322D01*
X383931D01*
Y180223D01*
X383733D01*
Y180124D01*
X383041D01*
Y180223D01*
X381162D01*
Y180322D01*
X379580D01*
Y180420D01*
X377701D01*
Y180519D01*
X375724D01*
Y180618D01*
X372559D01*
Y180717D01*
X368900D01*
Y180816D01*
X365340D01*
Y180915D01*
X361880D01*
Y181014D01*
X358320D01*
Y181113D01*
X354859D01*
Y181212D01*
X351299D01*
Y181310D01*
X347739D01*
Y181409D01*
X346552D01*
Y181310D01*
X345959D01*
Y181212D01*
X342498D01*
Y181113D01*
X339136D01*
Y181014D01*
X336663D01*
Y181113D01*
X336367D01*
Y181212D01*
X336169D01*
Y181310D01*
X335971D01*
Y181409D01*
X335773D01*
Y181508D01*
X335576D01*
Y181607D01*
X335378D01*
Y181706D01*
X335180D01*
Y181805D01*
X334982D01*
Y181904D01*
X334785D01*
Y182003D01*
X334587D01*
Y182101D01*
X334389D01*
Y182200D01*
X334191D01*
Y182299D01*
X333993D01*
Y182398D01*
X333796D01*
Y182497D01*
X333598D01*
Y182596D01*
X333400D01*
Y182695D01*
X333202D01*
Y182794D01*
X333004D01*
Y182893D01*
X332807D01*
Y182992D01*
X332609D01*
Y183090D01*
X332510D01*
Y183189D01*
X332312D01*
Y183288D01*
X332115D01*
Y183387D01*
X331917D01*
Y183486D01*
X331719D01*
Y183585D01*
X331521D01*
Y183684D01*
X331422D01*
Y183783D01*
X331225D01*
Y183881D01*
X331027D01*
Y183980D01*
X330829D01*
Y184079D01*
X330631D01*
Y184178D01*
X330532D01*
Y184277D01*
X330335D01*
Y184376D01*
X330137D01*
Y184475D01*
X329939D01*
Y184574D01*
X329840D01*
Y184673D01*
X329642D01*
Y184771D01*
X329543D01*
Y184870D01*
X329346D01*
Y184969D01*
X329148D01*
Y185068D01*
X329049D01*
Y185167D01*
X328851D01*
Y185266D01*
X328752D01*
Y185365D01*
X328555D01*
Y185464D01*
X328357D01*
Y185562D01*
X328258D01*
Y185662D01*
X328060D01*
Y185760D01*
X327961D01*
Y185859D01*
X327763D01*
Y185958D01*
X327665D01*
Y186057D01*
X327467D01*
Y186156D01*
X327368D01*
Y186255D01*
X327170D01*
Y186354D01*
X327071D01*
Y186453D01*
X326874D01*
Y186551D01*
X326775D01*
Y186650D01*
X326676D01*
Y186749D01*
X326478D01*
Y186848D01*
X326379D01*
Y186947D01*
X326181D01*
Y187046D01*
X326082D01*
Y187145D01*
X325984D01*
Y187244D01*
X325786D01*
Y187342D01*
X325687D01*
Y187441D01*
X325588D01*
Y187540D01*
X325489D01*
Y187639D01*
X325291D01*
Y187738D01*
X325192D01*
Y187837D01*
X325094D01*
Y187936D01*
X324995D01*
Y188035D01*
X324896D01*
Y188134D01*
X324698D01*
Y188232D01*
X324599D01*
Y188331D01*
X324500D01*
Y188430D01*
X324401D01*
Y188529D01*
X324302D01*
Y188628D01*
X324204D01*
Y188727D01*
X324105D01*
Y188826D01*
X324006D01*
Y188925D01*
X323907D01*
Y189024D01*
X323808D01*
Y189123D01*
X323709D01*
Y189221D01*
X323610D01*
Y189320D01*
X323511D01*
Y189419D01*
X323413D01*
Y189518D01*
X323314D01*
Y189716D01*
X323215D01*
Y189815D01*
X323116D01*
Y189914D01*
X323017D01*
Y190012D01*
X322918D01*
Y190210D01*
X322819D01*
Y190309D01*
X322720D01*
Y190507D01*
X322621D01*
Y190606D01*
X322523D01*
Y190804D01*
X322424D01*
Y191001D01*
X322325D01*
Y191199D01*
X322226D01*
Y191397D01*
X322127D01*
Y191595D01*
X322028D01*
Y191891D01*
X321929D01*
Y192880D01*
X322028D01*
Y193078D01*
X322127D01*
Y193276D01*
X322226D01*
Y193375D01*
X322325D01*
Y193473D01*
X322424D01*
Y193572D01*
X322523D01*
Y193671D01*
X322621D01*
Y193770D01*
X322819D01*
Y193869D01*
X323017D01*
Y193968D01*
X323116D01*
Y194067D01*
X323314D01*
Y194166D01*
X323511D01*
Y194265D01*
X323610D01*
Y194363D01*
X323808D01*
Y194462D01*
X324006D01*
Y194561D01*
X324204D01*
Y194660D01*
X324401D01*
Y194759D01*
X324500D01*
Y194858D01*
X324698D01*
Y194957D01*
X324896D01*
Y195056D01*
X325094D01*
Y195154D01*
X325291D01*
Y195254D01*
X325390D01*
Y195352D01*
X325588D01*
Y195451D01*
X325786D01*
Y195550D01*
X325984D01*
Y195649D01*
X326181D01*
Y195748D01*
X326379D01*
Y195847D01*
X326577D01*
Y195946D01*
X326775D01*
Y196045D01*
X326973D01*
Y196143D01*
X327170D01*
Y196242D01*
X327368D01*
Y196341D01*
X327566D01*
Y196440D01*
X327763D01*
Y196539D01*
X327961D01*
Y196638D01*
X328159D01*
Y196737D01*
X328357D01*
Y196836D01*
X328653D01*
Y196935D01*
X328851D01*
Y197033D01*
X329049D01*
Y197132D01*
X329247D01*
Y197231D01*
X329445D01*
Y197330D01*
X329642D01*
Y197429D01*
X329939D01*
Y197528D01*
X330137D01*
Y197627D01*
X330335D01*
Y197726D01*
X330532D01*
Y197824D01*
X330829D01*
Y197923D01*
X331027D01*
Y198022D01*
X331225D01*
Y198121D01*
X331422D01*
Y198220D01*
X331719D01*
Y198319D01*
X331917D01*
Y198418D01*
X332214D01*
Y198517D01*
X332411D01*
Y198616D01*
X332708D01*
Y198715D01*
X332906D01*
Y198813D01*
X333202D01*
Y198912D01*
X333400D01*
Y199011D01*
X333598D01*
Y199110D01*
X333895D01*
Y199209D01*
X334092D01*
Y199308D01*
X334389D01*
Y199407D01*
X334686D01*
Y199506D01*
X334883D01*
Y199604D01*
X335180D01*
Y199703D01*
X335477D01*
Y199802D01*
X335675D01*
Y199901D01*
X335971D01*
Y200000D01*
X336268D01*
Y200099D01*
X336466D01*
Y200198D01*
X336762D01*
Y200297D01*
X337059D01*
Y200396D01*
X337356D01*
Y200494D01*
X337553D01*
Y200593D01*
X337850D01*
Y200692D01*
X338147D01*
Y200791D01*
X338443D01*
Y200890D01*
X338740D01*
Y200989D01*
X339037D01*
Y201088D01*
X339333D01*
Y201187D01*
X339630D01*
Y201286D01*
X339927D01*
Y201384D01*
X340223D01*
Y201483D01*
X340520D01*
Y201582D01*
X340817D01*
Y201681D01*
X341113D01*
Y201780D01*
X341410D01*
Y201879D01*
X341707D01*
Y201978D01*
X342003D01*
Y202077D01*
X342399D01*
Y202176D01*
X342696D01*
Y202274D01*
X342992D01*
Y202373D01*
X343289D01*
Y202472D01*
X343684D01*
Y202571D01*
X344080D01*
Y202670D01*
X344376D01*
Y202769D01*
X344673D01*
Y202868D01*
X345069D01*
Y202967D01*
X345464D01*
Y203065D01*
X345761D01*
Y203164D01*
X346157D01*
Y203263D01*
X346453D01*
Y203362D01*
X346750D01*
Y203461D01*
X347145D01*
Y203560D01*
X347541D01*
Y203659D01*
X347937D01*
Y203758D01*
X348332D01*
Y203857D01*
X348727D01*
Y203955D01*
X349123D01*
Y204054D01*
X349519D01*
Y204153D01*
X349914D01*
Y204252D01*
X350310D01*
Y204351D01*
X350705D01*
Y204450D01*
X351200D01*
Y204549D01*
X351595D01*
Y204648D01*
X351892D01*
Y204747D01*
X352287D01*
Y204846D01*
X352782D01*
Y204944D01*
X353276D01*
Y205043D01*
X353771D01*
Y205142D01*
X354166D01*
Y205241D01*
X354661D01*
Y205340D01*
X355155D01*
Y205439D01*
X355650D01*
Y205538D01*
X356144D01*
Y205637D01*
X356540D01*
Y205735D01*
X357034D01*
Y205834D01*
X357528D01*
Y205933D01*
X358122D01*
Y206032D01*
X358616D01*
Y206131D01*
X359111D01*
Y206230D01*
X359803D01*
Y206329D01*
X360396D01*
Y206428D01*
X360989D01*
Y206527D01*
X361484D01*
Y206625D01*
X362077D01*
Y206724D01*
X362671D01*
Y206823D01*
X363264D01*
Y206922D01*
X363857D01*
Y207021D01*
X364450D01*
Y207120D01*
X365242D01*
Y207219D01*
X365934D01*
Y207318D01*
X366725D01*
Y207416D01*
X367516D01*
Y207515D01*
X368208D01*
Y207614D01*
X368900D01*
Y207713D01*
X369692D01*
Y207812D01*
X370483D01*
Y207911D01*
X371373D01*
Y208010D01*
X372361D01*
Y208109D01*
X373449D01*
Y208208D01*
X374537D01*
Y208307D01*
X375724D01*
Y208405D01*
X376614D01*
Y208504D01*
X377701D01*
Y208603D01*
X379283D01*
Y208702D01*
X381261D01*
Y208801D01*
X383041D01*
Y208900D01*
X384426D01*
Y208999D01*
X386305D01*
Y208801D01*
X386403D01*
Y208603D01*
Y208504D01*
X386502D01*
Y208208D01*
X386601D01*
Y208010D01*
X386700D01*
Y207713D01*
X386799D01*
Y207515D01*
X386898D01*
Y207219D01*
X386997D01*
Y206922D01*
X387096D01*
Y206724D01*
X387195D01*
Y206625D01*
X387293D01*
Y206527D01*
X387392D01*
Y206428D01*
X387590D01*
Y206329D01*
X388480D01*
Y206428D01*
X389172D01*
Y206527D01*
X389864D01*
Y206625D01*
X390557D01*
Y206724D01*
X391249D01*
Y206823D01*
X392040D01*
Y206922D01*
X392732D01*
Y207021D01*
X393424D01*
Y207120D01*
X394117D01*
Y207219D01*
X394809D01*
Y207318D01*
X395501D01*
Y207416D01*
X396193D01*
Y207515D01*
X396885D01*
Y207614D01*
X397578D01*
Y207713D01*
X398270D01*
Y207812D01*
X398863D01*
Y207911D01*
X399555D01*
Y208010D01*
X400149D01*
Y208109D01*
X400841D01*
Y208208D01*
X401533D01*
Y208307D01*
X402126D01*
Y208405D01*
X402819D01*
Y208504D01*
X403313D01*
Y208603D01*
X404005D01*
Y208702D01*
X404697D01*
Y208801D01*
X405291D01*
Y208900D01*
X405884D01*
Y208999D01*
X406379D01*
Y209098D01*
X407071D01*
Y209196D01*
X407664D01*
Y209295D01*
X408257D01*
Y209394D01*
X408752D01*
Y209493D01*
X409345D01*
Y209592D01*
X409938D01*
Y209691D01*
X410532D01*
Y209790D01*
X411026D01*
Y209889D01*
X411521D01*
Y209988D01*
X412114D01*
Y210086D01*
X412707D01*
Y210185D01*
X413202D01*
Y210284D01*
X413696D01*
Y210383D01*
X414191D01*
Y210482D01*
X414784D01*
Y210581D01*
X415278D01*
Y210680D01*
X415773D01*
Y210779D01*
X416267D01*
Y210878D01*
X416663D01*
Y210977D01*
X417157D01*
Y211075D01*
X417652D01*
Y211174D01*
X418146D01*
Y211273D01*
X418542D01*
Y211372D01*
X419036D01*
Y211471D01*
X419530D01*
Y211570D01*
X419926D01*
Y211669D01*
X420322D01*
Y211768D01*
X420618D01*
Y211866D01*
X421014D01*
Y211965D01*
X421409D01*
Y212064D01*
X421706D01*
Y212163D01*
X422003D01*
Y212262D01*
X422200D01*
Y212361D01*
X422497D01*
Y212460D01*
X422794D01*
Y212559D01*
X422991D01*
Y212658D01*
X423288D01*
Y212756D01*
X423486D01*
Y212855D01*
X423684D01*
Y212954D01*
X423881D01*
Y213053D01*
X424079D01*
Y213152D01*
X424178D01*
Y213251D01*
X424376D01*
Y213350D01*
X424574D01*
Y213449D01*
X424673D01*
Y213547D01*
X424771D01*
Y213646D01*
X424969D01*
Y213745D01*
X425068D01*
Y213844D01*
X425167D01*
Y213943D01*
X425266D01*
Y214042D01*
X425365D01*
Y214141D01*
X425464D01*
Y214339D01*
X425563D01*
Y214536D01*
X425662D01*
Y215130D01*
X425563D01*
Y215426D01*
X425464D01*
Y215624D01*
X425365D01*
Y215723D01*
X425266D01*
Y215921D01*
X425167D01*
Y216020D01*
X425068D01*
Y216217D01*
X424969D01*
Y216316D01*
X424870D01*
Y216415D01*
X424771D01*
Y216613D01*
X424673D01*
Y216712D01*
X424574D01*
Y216811D01*
X424475D01*
Y217008D01*
X424376D01*
Y217107D01*
X424277D01*
Y217305D01*
X424178D01*
Y217404D01*
X424079D01*
Y217503D01*
X423980D01*
Y217701D01*
X423881D01*
Y217800D01*
X423783D01*
Y217899D01*
X423684D01*
Y218096D01*
X423585D01*
Y218195D01*
X423486D01*
Y218294D01*
X423387D01*
Y218492D01*
X423288D01*
Y218591D01*
X423189D01*
Y218690D01*
X423090D01*
Y218887D01*
X422991D01*
Y218986D01*
X422893D01*
Y219184D01*
X422794D01*
Y219283D01*
X422695D01*
Y219382D01*
X422596D01*
Y219580D01*
X422497D01*
Y219678D01*
X422398D01*
Y219876D01*
X422299D01*
Y219975D01*
X422200D01*
Y220074D01*
X422102D01*
Y220272D01*
X422003D01*
Y220371D01*
X421904D01*
Y220569D01*
X421805D01*
Y220667D01*
X421706D01*
Y220766D01*
X421607D01*
Y220964D01*
X421508D01*
Y221063D01*
X421409D01*
Y221261D01*
X421310D01*
Y221360D01*
X421212D01*
Y221458D01*
X421113D01*
Y221656D01*
X421014D01*
Y221755D01*
X420915D01*
Y221953D01*
X420816D01*
Y222052D01*
X420717D01*
Y222250D01*
X420618D01*
Y222348D01*
X420519D01*
Y222447D01*
X420420D01*
Y222645D01*
X420322D01*
Y222744D01*
X420223D01*
Y222942D01*
X420124D01*
Y223041D01*
X420025D01*
Y223139D01*
X419926D01*
Y223337D01*
X419827D01*
Y223436D01*
X419728D01*
Y223634D01*
X419629D01*
Y223733D01*
X419530D01*
Y223832D01*
X419432D01*
Y224128D01*
X419629D01*
Y224227D01*
X420025D01*
Y224326D01*
X420519D01*
Y224425D01*
X420915D01*
Y224524D01*
X421508D01*
Y224623D01*
X422200D01*
Y224722D01*
X427540D01*
Y224623D01*
D02*
G37*
G36*
X358715Y191001D02*
X358814D01*
Y190902D01*
X358913D01*
Y183684D01*
X358814D01*
Y183486D01*
X357924D01*
Y183684D01*
X357825D01*
Y186156D01*
Y186255D01*
Y188925D01*
X357726D01*
Y188727D01*
X357627D01*
Y188529D01*
X357528D01*
Y188331D01*
X357430D01*
Y188232D01*
X357331D01*
Y188035D01*
X357232D01*
Y187837D01*
X357133D01*
Y187639D01*
X357034D01*
Y187441D01*
X356935D01*
Y187342D01*
X356836D01*
Y187145D01*
X356737D01*
Y186947D01*
X356638D01*
Y186848D01*
X356540D01*
Y186650D01*
X356441D01*
Y186453D01*
X356342D01*
Y186255D01*
X356243D01*
Y186156D01*
X356144D01*
Y185958D01*
X356045D01*
Y185760D01*
X355946D01*
Y185562D01*
X355847D01*
Y185464D01*
X355748D01*
Y185266D01*
X355650D01*
Y185068D01*
X355551D01*
Y184870D01*
X355452D01*
Y184771D01*
X355353D01*
Y184574D01*
X355254D01*
Y184376D01*
X355155D01*
Y184178D01*
X355056D01*
Y184079D01*
X354957D01*
Y183881D01*
X354859D01*
Y183684D01*
X354760D01*
Y183585D01*
X354661D01*
Y183486D01*
X353870D01*
Y183684D01*
X353771D01*
Y190902D01*
X353870D01*
Y191001D01*
X353969D01*
Y191100D01*
X354661D01*
Y191001D01*
X354760D01*
Y190804D01*
X354859D01*
Y185859D01*
X354760D01*
Y185562D01*
X354859D01*
Y185662D01*
X354957D01*
Y185859D01*
X355056D01*
Y186057D01*
X355155D01*
Y186255D01*
X355254D01*
Y186354D01*
X355353D01*
Y186551D01*
X355452D01*
Y186749D01*
X355551D01*
Y186947D01*
X355650D01*
Y187046D01*
X355748D01*
Y187244D01*
X355847D01*
Y187441D01*
X355946D01*
Y187639D01*
X356045D01*
Y187738D01*
X356144D01*
Y187936D01*
X356243D01*
Y188134D01*
X356342D01*
Y188331D01*
X356441D01*
Y188430D01*
X356540D01*
Y188628D01*
X356638D01*
Y188826D01*
X356737D01*
Y189024D01*
X356836D01*
Y189123D01*
X356935D01*
Y189320D01*
X357034D01*
Y189518D01*
X357133D01*
Y189716D01*
X357232D01*
Y189815D01*
X357331D01*
Y190012D01*
X357430D01*
Y190210D01*
X357528D01*
Y190408D01*
X357627D01*
Y190507D01*
X357726D01*
Y190705D01*
X357825D01*
Y190902D01*
X357924D01*
Y191001D01*
X358023D01*
Y191100D01*
X358715D01*
Y191001D01*
D02*
G37*
G36*
X366725D02*
X367022D01*
Y190902D01*
X367219D01*
Y190804D01*
X367318D01*
Y190705D01*
X367516D01*
Y190606D01*
X367615D01*
Y190507D01*
X367714D01*
Y190309D01*
X367813D01*
Y190210D01*
X367911D01*
Y190012D01*
X368010D01*
Y189320D01*
X368109D01*
Y185266D01*
X368010D01*
Y184574D01*
X367911D01*
Y184376D01*
X367813D01*
Y184178D01*
X367714D01*
Y184079D01*
X367615D01*
Y183980D01*
X367516D01*
Y183881D01*
X367417D01*
Y183783D01*
X367219D01*
Y183684D01*
X367121D01*
Y183585D01*
X366824D01*
Y183486D01*
X364352D01*
Y183585D01*
X364055D01*
Y183684D01*
X363857D01*
Y183783D01*
X363758D01*
Y183881D01*
X363560D01*
Y183980D01*
X363462D01*
Y184178D01*
X363363D01*
Y184277D01*
X363264D01*
Y184475D01*
X363165D01*
Y184771D01*
X363066D01*
Y185958D01*
X363165D01*
Y186057D01*
X364055D01*
Y185859D01*
X364154D01*
Y184771D01*
X364253D01*
Y184574D01*
X364450D01*
Y184475D01*
X364648D01*
Y184376D01*
X366428D01*
Y184475D01*
X366725D01*
Y184574D01*
X366824D01*
Y184673D01*
X366923D01*
Y184870D01*
X367022D01*
Y189716D01*
X366923D01*
Y189914D01*
X366824D01*
Y190012D01*
X366626D01*
Y190111D01*
X364450D01*
Y190012D01*
X364352D01*
Y189914D01*
X364253D01*
Y189815D01*
X364154D01*
Y188727D01*
X364055D01*
Y188529D01*
X363956D01*
Y188430D01*
X363264D01*
Y188529D01*
X363165D01*
Y188628D01*
X363066D01*
Y189716D01*
X363165D01*
Y190111D01*
X363264D01*
Y190210D01*
X363363D01*
Y190408D01*
X363462D01*
Y190507D01*
X363560D01*
Y190606D01*
X363659D01*
Y190705D01*
X363758D01*
Y190804D01*
X363956D01*
Y190902D01*
X364154D01*
Y191001D01*
X364450D01*
Y191100D01*
X366725D01*
Y191001D01*
D02*
G37*
G36*
X350903D02*
X351200D01*
Y190902D01*
X351496D01*
Y190804D01*
X351595D01*
Y190705D01*
X351793D01*
Y190606D01*
X351892D01*
Y190408D01*
X351991D01*
Y190309D01*
X352090D01*
Y190111D01*
X352189D01*
Y189914D01*
X352287D01*
Y184673D01*
X352189D01*
Y184376D01*
X352090D01*
Y184277D01*
X351991D01*
Y184079D01*
X351892D01*
Y183980D01*
X351793D01*
Y183881D01*
X351694D01*
Y183783D01*
X351496D01*
Y183684D01*
X351299D01*
Y183585D01*
X351101D01*
Y183486D01*
X348727D01*
Y183585D01*
X348431D01*
Y183684D01*
X348233D01*
Y183783D01*
X348134D01*
Y183881D01*
X348035D01*
Y183980D01*
X347937D01*
Y184079D01*
X347838D01*
Y184178D01*
X347739D01*
Y184277D01*
X347640D01*
Y184574D01*
X347541D01*
Y184969D01*
X347442D01*
Y187342D01*
X347541D01*
Y187441D01*
X347640D01*
Y187540D01*
X349815D01*
Y187441D01*
X349914D01*
Y186749D01*
X349815D01*
Y186650D01*
X348530D01*
Y184771D01*
X348629D01*
Y184673D01*
X348727D01*
Y184574D01*
X348826D01*
Y184475D01*
X349123D01*
Y184376D01*
X350705D01*
Y184475D01*
X351002D01*
Y184574D01*
X351101D01*
Y184673D01*
X351200D01*
Y184969D01*
X351299D01*
Y189617D01*
X351200D01*
Y189815D01*
X351101D01*
Y190012D01*
X350903D01*
Y190111D01*
X348925D01*
Y190012D01*
X348727D01*
Y189914D01*
X348629D01*
Y189716D01*
X348530D01*
Y188727D01*
X348431D01*
Y188628D01*
X348332D01*
Y188529D01*
X347640D01*
Y188628D01*
X347541D01*
Y188727D01*
X347442D01*
Y189617D01*
X347541D01*
Y190012D01*
X347640D01*
Y190210D01*
X347739D01*
Y190408D01*
X347838D01*
Y190507D01*
X347937D01*
Y190606D01*
X348035D01*
Y190705D01*
X348134D01*
Y190804D01*
X348332D01*
Y190902D01*
X348530D01*
Y191001D01*
X348826D01*
Y191100D01*
X350903D01*
Y191001D01*
D02*
G37*
G36*
X380272D02*
X380371D01*
Y183684D01*
X380272D01*
Y183486D01*
X379481D01*
Y183585D01*
X379382D01*
Y185068D01*
Y185167D01*
Y186453D01*
X377899D01*
Y186354D01*
X377800D01*
Y186156D01*
X377701D01*
Y185958D01*
X377603D01*
Y185760D01*
X377504D01*
Y185562D01*
X377405D01*
Y185266D01*
X377306D01*
Y185068D01*
X377207D01*
Y184870D01*
X377108D01*
Y184673D01*
X377009D01*
Y184475D01*
X376910D01*
Y184277D01*
X376811D01*
Y184079D01*
X376712D01*
Y183881D01*
X376614D01*
Y183684D01*
X376515D01*
Y183585D01*
X376416D01*
Y183486D01*
X375526D01*
Y183881D01*
X375625D01*
Y184079D01*
X375724D01*
Y184277D01*
X375822D01*
Y184475D01*
X375921D01*
Y184673D01*
X376020D01*
Y184870D01*
X376119D01*
Y185068D01*
X376218D01*
Y185266D01*
X376317D01*
Y185562D01*
X376416D01*
Y185760D01*
X376515D01*
Y185958D01*
X376614D01*
Y186156D01*
X376712D01*
Y186354D01*
X376811D01*
Y186551D01*
X376712D01*
Y186650D01*
X376515D01*
Y186749D01*
X376317D01*
Y186848D01*
X376218D01*
Y186947D01*
X376119D01*
Y187046D01*
X376020D01*
Y187145D01*
X375921D01*
Y187342D01*
X375822D01*
Y187639D01*
X375724D01*
Y189914D01*
X375822D01*
Y190111D01*
X375921D01*
Y190309D01*
X376020D01*
Y190408D01*
X376119D01*
Y190606D01*
X376218D01*
Y190705D01*
X376416D01*
Y190804D01*
X376515D01*
Y190902D01*
X376811D01*
Y191001D01*
X377108D01*
Y191100D01*
X380272D01*
Y191001D01*
D02*
G37*
G36*
X372361D02*
X372559D01*
Y190804D01*
X372658D01*
Y190507D01*
X372757D01*
Y190111D01*
X372856D01*
Y189815D01*
X372955D01*
Y189518D01*
X373054D01*
Y189221D01*
X373153D01*
Y188826D01*
X373251D01*
Y188529D01*
X373350D01*
Y188232D01*
X373449D01*
Y187837D01*
X373548D01*
Y187540D01*
X373647D01*
Y187244D01*
X373746D01*
Y186848D01*
X373845D01*
Y186551D01*
X373944D01*
Y186255D01*
X374043D01*
Y185958D01*
X374141D01*
Y185562D01*
X374240D01*
Y185266D01*
X374339D01*
Y184969D01*
X374438D01*
Y184673D01*
X374537D01*
Y184277D01*
X374636D01*
Y183980D01*
X374735D01*
Y183486D01*
X373845D01*
Y183585D01*
X373746D01*
Y183783D01*
X373647D01*
Y184178D01*
X373548D01*
Y184475D01*
X373449D01*
Y184771D01*
X373350D01*
Y184870D01*
Y184969D01*
Y185068D01*
X373251D01*
Y185266D01*
X373153D01*
Y185365D01*
X370582D01*
Y185266D01*
X370483D01*
Y184969D01*
X370384D01*
Y184673D01*
X370285D01*
Y184376D01*
X370186D01*
Y184079D01*
X370087D01*
Y183783D01*
X369988D01*
Y183585D01*
X369889D01*
Y183486D01*
X369098D01*
Y183585D01*
X368999D01*
Y183881D01*
X369098D01*
Y184178D01*
X369197D01*
Y184574D01*
X369296D01*
Y184870D01*
X369395D01*
Y185167D01*
X369494D01*
Y185464D01*
X369593D01*
Y185859D01*
X369692D01*
Y186156D01*
X369790D01*
Y186551D01*
X369889D01*
Y186848D01*
X369988D01*
Y187145D01*
X370087D01*
Y187540D01*
X370186D01*
Y187837D01*
X370285D01*
Y188134D01*
X370384D01*
Y188430D01*
X370483D01*
Y188727D01*
X370582D01*
Y189123D01*
X370680D01*
Y189419D01*
X370779D01*
Y189815D01*
X370878D01*
Y190111D01*
X370977D01*
Y190408D01*
X371076D01*
Y190705D01*
X371175D01*
Y190902D01*
X371274D01*
Y191001D01*
X371373D01*
Y191100D01*
X372361D01*
Y191001D01*
D02*
G37*
G36*
X361484D02*
X361583D01*
Y183585D01*
X361484D01*
Y183486D01*
X360693D01*
Y183585D01*
X360594D01*
Y188925D01*
Y189024D01*
Y191001D01*
X360792D01*
Y191100D01*
X361484D01*
Y191001D01*
D02*
G37*
G36*
X452361Y205933D02*
X453350D01*
Y205834D01*
X453943D01*
Y205735D01*
X454437D01*
Y205637D01*
X454833D01*
Y205538D01*
X455229D01*
Y205439D01*
X455624D01*
Y205340D01*
X455921D01*
Y205241D01*
X456217D01*
Y205142D01*
X456415D01*
Y205043D01*
X456712D01*
Y204944D01*
X456910D01*
Y204846D01*
X457206D01*
Y204747D01*
X457404D01*
Y204648D01*
X457602D01*
Y204549D01*
X457800D01*
Y204450D01*
X457997D01*
Y204351D01*
X458195D01*
Y204252D01*
X458393D01*
Y204153D01*
X458492D01*
Y204054D01*
X458690D01*
Y203955D01*
X458887D01*
Y203857D01*
X458986D01*
Y203758D01*
X459184D01*
Y203659D01*
X459283D01*
Y203560D01*
X459481D01*
Y203461D01*
X459580D01*
Y203362D01*
X459777D01*
Y203263D01*
X459876D01*
Y203164D01*
X459975D01*
Y203065D01*
X460173D01*
Y202967D01*
X460272D01*
Y202868D01*
X460371D01*
Y202769D01*
X460470D01*
Y202670D01*
X460568D01*
Y202571D01*
X460766D01*
Y202472D01*
X460865D01*
Y202373D01*
X460964D01*
Y202274D01*
X461063D01*
Y202176D01*
X461162D01*
Y202077D01*
X461261D01*
Y201978D01*
X461359D01*
Y201879D01*
X461458D01*
Y201780D01*
X461557D01*
Y201681D01*
X461656D01*
Y201582D01*
X461755D01*
Y201483D01*
X461854D01*
Y201384D01*
X461953D01*
Y201286D01*
X462052D01*
Y201187D01*
X462151D01*
Y200989D01*
X462249D01*
Y200890D01*
X462348D01*
Y200791D01*
X462447D01*
Y200692D01*
X462546D01*
Y200494D01*
X462645D01*
Y200396D01*
X462744D01*
Y200297D01*
X462843D01*
Y200198D01*
X462942D01*
Y200000D01*
X463041D01*
Y199901D01*
X463139D01*
Y199703D01*
X463238D01*
Y199604D01*
X463337D01*
Y199407D01*
X463436D01*
Y199308D01*
X463535D01*
Y199110D01*
X463634D01*
Y198912D01*
X463733D01*
Y198715D01*
X463832D01*
Y198616D01*
X463931D01*
Y198418D01*
X464030D01*
Y198220D01*
X464128D01*
Y198022D01*
X464227D01*
Y197824D01*
X464326D01*
Y197528D01*
X464425D01*
Y197330D01*
X464524D01*
Y197033D01*
X464623D01*
Y196836D01*
X464722D01*
Y196539D01*
X464821D01*
Y196242D01*
X464920D01*
Y195946D01*
X465018D01*
Y195550D01*
X465117D01*
Y195254D01*
X465216D01*
Y194759D01*
X465315D01*
Y194265D01*
X465414D01*
Y193572D01*
X465513D01*
Y192287D01*
X465612D01*
Y191397D01*
X465710D01*
Y191199D01*
X465810D01*
Y191100D01*
X465908D01*
Y190902D01*
X466007D01*
Y190804D01*
X466205D01*
Y190705D01*
X466403D01*
Y190606D01*
X466699D01*
Y190507D01*
X466897D01*
Y190408D01*
X467194D01*
Y190309D01*
X467589D01*
Y190210D01*
X468183D01*
Y190309D01*
X468381D01*
Y190408D01*
X468578D01*
Y190507D01*
X468677D01*
Y190606D01*
X468776D01*
Y190705D01*
X468974D01*
Y190804D01*
X469073D01*
Y190902D01*
X469172D01*
Y191001D01*
X469271D01*
Y191100D01*
X469369D01*
Y191199D01*
X469468D01*
Y191298D01*
X469567D01*
Y191397D01*
X469765D01*
Y191496D01*
X469864D01*
Y191595D01*
X470062D01*
Y191694D01*
X470160D01*
Y191792D01*
X470358D01*
Y191891D01*
X470556D01*
Y191990D01*
X470853D01*
Y192089D01*
X471149D01*
Y192188D01*
X471644D01*
Y192287D01*
X473621D01*
Y192188D01*
X474314D01*
Y192089D01*
X474808D01*
Y191990D01*
X475006D01*
Y191891D01*
X475105D01*
Y191792D01*
X475204D01*
Y191694D01*
X475303D01*
Y191595D01*
X475401D01*
Y190902D01*
X475303D01*
Y190507D01*
X475204D01*
Y190210D01*
X475105D01*
Y189518D01*
X475204D01*
Y189320D01*
X475303D01*
Y189221D01*
X475500D01*
Y189123D01*
X475698D01*
Y189024D01*
X475896D01*
Y188925D01*
X476193D01*
Y188826D01*
X476489D01*
Y188727D01*
X476786D01*
Y188628D01*
X477082D01*
Y188529D01*
X477379D01*
Y188430D01*
X477676D01*
Y188331D01*
X477972D01*
Y188232D01*
X478269D01*
Y188134D01*
X478566D01*
Y188035D01*
X478961D01*
Y187936D01*
X479258D01*
Y187837D01*
X479555D01*
Y187738D01*
X479851D01*
Y187639D01*
X480049D01*
Y187540D01*
X480346D01*
Y187441D01*
X480445D01*
Y187342D01*
X480642D01*
Y187244D01*
X480741D01*
Y187145D01*
X480840D01*
Y186947D01*
X480939D01*
Y186848D01*
X481038D01*
Y186453D01*
X480939D01*
Y186255D01*
X480840D01*
Y186156D01*
X480741D01*
Y186057D01*
X480544D01*
Y185958D01*
X480445D01*
Y185859D01*
X479654D01*
Y185958D01*
X479357D01*
Y186057D01*
X479060D01*
Y186156D01*
X478764D01*
Y186255D01*
X478467D01*
Y186354D01*
X478170D01*
Y186453D01*
X477874D01*
Y186551D01*
X477577D01*
Y186650D01*
X477280D01*
Y186749D01*
X476984D01*
Y186848D01*
X476687D01*
Y186947D01*
X476489D01*
Y187046D01*
X476193D01*
Y187145D01*
X475797D01*
Y187244D01*
X475500D01*
Y187342D01*
X475204D01*
Y187441D01*
X474511D01*
Y187342D01*
X474314D01*
Y187244D01*
X474215D01*
Y187145D01*
X474116D01*
Y186947D01*
X474017D01*
Y186749D01*
X473918D01*
Y186453D01*
X473819D01*
Y186156D01*
X473720D01*
Y185760D01*
X473621D01*
Y185464D01*
X473523D01*
Y185167D01*
X473424D01*
Y184771D01*
X473325D01*
Y184079D01*
X473424D01*
Y183881D01*
X473523D01*
Y183783D01*
X473621D01*
Y183684D01*
X473819D01*
Y183585D01*
X474116D01*
Y183486D01*
X474413D01*
Y183387D01*
X474709D01*
Y183288D01*
X475105D01*
Y183189D01*
X475401D01*
Y183090D01*
X475698D01*
Y182992D01*
X475995D01*
Y182893D01*
X476292D01*
Y182794D01*
X476588D01*
Y182695D01*
X476885D01*
Y182596D01*
X477181D01*
Y182497D01*
X477478D01*
Y182398D01*
X477775D01*
Y182299D01*
X478071D01*
Y182200D01*
X478368D01*
Y182101D01*
X478566D01*
Y182003D01*
X478764D01*
Y181904D01*
X478862D01*
Y181805D01*
X478961D01*
Y181706D01*
X479060D01*
Y181607D01*
X479159D01*
Y181409D01*
X479258D01*
Y180915D01*
X479159D01*
Y180816D01*
X479060D01*
Y180717D01*
X478961D01*
Y180618D01*
X478862D01*
Y180519D01*
X478665D01*
Y180420D01*
X478170D01*
Y180519D01*
X477676D01*
Y180618D01*
X477379D01*
Y180717D01*
X477082D01*
Y180816D01*
X476786D01*
Y180915D01*
X476489D01*
Y181014D01*
X476094D01*
Y181113D01*
X475797D01*
Y181212D01*
X475500D01*
Y181310D01*
X475204D01*
Y181409D01*
X474907D01*
Y181508D01*
X474610D01*
Y181607D01*
X474314D01*
Y181706D01*
X474017D01*
Y181805D01*
X473720D01*
Y181904D01*
X473424D01*
Y182003D01*
X472732D01*
Y181904D01*
X472633D01*
Y181805D01*
X472435D01*
Y181607D01*
X472336D01*
Y181508D01*
X472237D01*
Y181212D01*
X472138D01*
Y180915D01*
X472039D01*
Y180717D01*
X471940D01*
Y180618D01*
X471842D01*
Y180519D01*
X471743D01*
Y180420D01*
X471644D01*
Y180322D01*
X471545D01*
Y180223D01*
X470853D01*
Y180322D01*
X470655D01*
Y180420D01*
X470457D01*
Y180519D01*
X470259D01*
Y180618D01*
X470062D01*
Y180717D01*
X469864D01*
Y180816D01*
X469666D01*
Y180915D01*
X469567D01*
Y181014D01*
X469369D01*
Y181113D01*
X469172D01*
Y181212D01*
X469073D01*
Y181310D01*
X468974D01*
Y181409D01*
X468776D01*
Y181508D01*
X468677D01*
Y181607D01*
X468578D01*
Y181706D01*
X468479D01*
Y181805D01*
X468381D01*
Y181904D01*
X468282D01*
Y182003D01*
X468183D01*
Y182101D01*
X468084D01*
Y182200D01*
X467985D01*
Y182299D01*
X467886D01*
Y182497D01*
X467787D01*
Y182596D01*
X467688D01*
Y182695D01*
X467589D01*
Y182893D01*
X467491D01*
Y183090D01*
X467392D01*
Y183288D01*
X467293D01*
Y183486D01*
X467194D01*
Y183783D01*
X467095D01*
Y184277D01*
X466996D01*
Y185068D01*
X466897D01*
Y185365D01*
X466798D01*
Y185464D01*
X466699D01*
Y185662D01*
X466600D01*
Y185760D01*
X466403D01*
Y185859D01*
X466205D01*
Y185958D01*
X466007D01*
Y186057D01*
X465710D01*
Y186156D01*
X465315D01*
Y186255D01*
X464722D01*
Y186156D01*
X464524D01*
Y186057D01*
X464425D01*
Y185958D01*
X464326D01*
Y185859D01*
X464227D01*
Y185760D01*
X464128D01*
Y185562D01*
X464030D01*
Y185365D01*
X463931D01*
Y185167D01*
X463832D01*
Y185068D01*
X463733D01*
Y184870D01*
X463634D01*
Y184771D01*
X463535D01*
Y184574D01*
X463436D01*
Y184376D01*
X463337D01*
Y184277D01*
X463238D01*
Y184178D01*
X463139D01*
Y183980D01*
X463041D01*
Y183881D01*
X462942D01*
Y183684D01*
X462843D01*
Y183585D01*
X462744D01*
Y183486D01*
X462645D01*
Y183288D01*
X462546D01*
Y183189D01*
X462447D01*
Y183090D01*
X462348D01*
Y182992D01*
X462249D01*
Y182893D01*
X462151D01*
Y182695D01*
X462052D01*
Y182596D01*
X461953D01*
Y182497D01*
X461854D01*
Y182398D01*
X461755D01*
Y182299D01*
X461656D01*
Y182200D01*
X461557D01*
Y182101D01*
X461458D01*
Y182003D01*
X461359D01*
Y181904D01*
X461261D01*
Y181805D01*
X461162D01*
Y181706D01*
X461063D01*
Y181607D01*
X460964D01*
Y181508D01*
X460865D01*
Y181409D01*
X460766D01*
Y181310D01*
X460568D01*
Y181212D01*
X460470D01*
Y181113D01*
X460371D01*
Y181014D01*
X460272D01*
Y180915D01*
X460173D01*
Y180816D01*
X459975D01*
Y180717D01*
X459876D01*
Y180618D01*
X459777D01*
Y180519D01*
X459580D01*
Y180420D01*
X459481D01*
Y180322D01*
X459283D01*
Y180223D01*
X459184D01*
Y180124D01*
X458986D01*
Y180025D01*
X458788D01*
Y179926D01*
X458690D01*
Y179827D01*
X458492D01*
Y179728D01*
X458294D01*
Y179629D01*
X458096D01*
Y179531D01*
X457898D01*
Y179432D01*
X457701D01*
Y179333D01*
X457503D01*
Y179234D01*
X457305D01*
Y179135D01*
X457107D01*
Y179036D01*
X456910D01*
Y178937D01*
X456613D01*
Y178838D01*
X456415D01*
Y178739D01*
X456119D01*
Y178640D01*
X455822D01*
Y178542D01*
X455525D01*
Y178443D01*
X455229D01*
Y178344D01*
X454932D01*
Y178245D01*
X454536D01*
Y178146D01*
X454042D01*
Y178047D01*
X453548D01*
Y177948D01*
X452954D01*
Y177849D01*
X452262D01*
Y177750D01*
X449987D01*
Y177849D01*
X449098D01*
Y177948D01*
X448603D01*
Y178047D01*
X448109D01*
Y178146D01*
X447614D01*
Y178245D01*
X447219D01*
Y178344D01*
X446823D01*
Y178443D01*
X446526D01*
Y178542D01*
X446230D01*
Y178640D01*
X445933D01*
Y178739D01*
X445735D01*
Y178838D01*
X445439D01*
Y178937D01*
X445241D01*
Y179036D01*
X445043D01*
Y179135D01*
X444845D01*
Y179234D01*
X444648D01*
Y179333D01*
X444450D01*
Y179432D01*
X444252D01*
Y179531D01*
X444054D01*
Y179629D01*
X443857D01*
Y179728D01*
X443758D01*
Y179827D01*
X443560D01*
Y179926D01*
X443362D01*
Y180025D01*
X443263D01*
Y180124D01*
X443065D01*
Y180223D01*
X442967D01*
Y180322D01*
X442769D01*
Y180420D01*
X442670D01*
Y180519D01*
X442472D01*
Y180618D01*
X442373D01*
Y180717D01*
X442274D01*
Y180816D01*
X442175D01*
Y180915D01*
X441978D01*
Y181014D01*
X441879D01*
Y181113D01*
X441780D01*
Y181212D01*
X441681D01*
Y181310D01*
X441483D01*
Y181409D01*
X441384D01*
Y181508D01*
X441286D01*
Y181607D01*
X441187D01*
Y181706D01*
X441088D01*
Y181805D01*
X440989D01*
Y181904D01*
X440890D01*
Y182003D01*
X440791D01*
Y182101D01*
X440692D01*
Y182200D01*
X440593D01*
Y182299D01*
X440494D01*
Y182398D01*
X440396D01*
Y182497D01*
X440297D01*
Y182596D01*
X440198D01*
Y182695D01*
X440099D01*
Y182794D01*
X440000D01*
Y182992D01*
X439901D01*
Y183090D01*
X439802D01*
Y183189D01*
X439703D01*
Y183288D01*
X439604D01*
Y183486D01*
X439506D01*
Y183585D01*
X439407D01*
Y183684D01*
X439308D01*
Y183783D01*
X439209D01*
Y183980D01*
X439110D01*
Y184079D01*
X439011D01*
Y184277D01*
X438912D01*
Y184376D01*
X438813D01*
Y184574D01*
X438714D01*
Y184771D01*
X438616D01*
Y184870D01*
X438517D01*
Y185068D01*
X438418D01*
Y185266D01*
X438319D01*
Y185464D01*
X438220D01*
Y185562D01*
X438121D01*
Y185760D01*
X438022D01*
Y185958D01*
X437923D01*
Y186156D01*
X437825D01*
Y186453D01*
X437726D01*
Y186650D01*
X437627D01*
Y186947D01*
X437528D01*
Y187145D01*
X437429D01*
Y187441D01*
X437330D01*
Y187738D01*
X437231D01*
Y187837D01*
X437330D01*
Y188035D01*
X437429D01*
Y188134D01*
X437528D01*
Y188232D01*
X437627D01*
Y188331D01*
X437825D01*
Y188430D01*
X438121D01*
Y188529D01*
X438319D01*
Y188628D01*
X438616D01*
Y188727D01*
X438912D01*
Y188826D01*
X439209D01*
Y188925D01*
X439506D01*
Y189024D01*
X439901D01*
Y189123D01*
X440099D01*
Y189221D01*
X440396D01*
Y189320D01*
X440791D01*
Y189419D01*
X441483D01*
Y189320D01*
X441582D01*
Y189221D01*
X441681D01*
Y189123D01*
X441780D01*
Y189024D01*
X441879D01*
Y188925D01*
X441978D01*
Y188727D01*
X442077D01*
Y188628D01*
X442175D01*
Y188430D01*
X442274D01*
Y188232D01*
X442373D01*
Y188035D01*
X442472D01*
Y187837D01*
X442571D01*
Y187738D01*
X442670D01*
Y187540D01*
X442769D01*
Y187342D01*
X442868D01*
Y187244D01*
X442967D01*
Y187046D01*
X443065D01*
Y186947D01*
X443164D01*
Y186848D01*
X443263D01*
Y186650D01*
X443362D01*
Y186551D01*
X443461D01*
Y186453D01*
X443560D01*
Y186354D01*
X443659D01*
Y186156D01*
X443758D01*
Y186057D01*
X443857D01*
Y185958D01*
X443955D01*
Y185859D01*
X444054D01*
Y185760D01*
X444153D01*
Y185662D01*
X444252D01*
Y185562D01*
X444351D01*
Y185464D01*
X444450D01*
Y185365D01*
X444549D01*
Y185266D01*
X444648D01*
Y185167D01*
X444845D01*
Y185068D01*
X444944D01*
Y184969D01*
X445043D01*
Y184870D01*
X445241D01*
Y184771D01*
X445340D01*
Y184673D01*
X445439D01*
Y184574D01*
X445636D01*
Y184475D01*
X445735D01*
Y184376D01*
X445933D01*
Y184277D01*
X446131D01*
Y184178D01*
X446230D01*
Y184079D01*
X446428D01*
Y183980D01*
X446625D01*
Y183881D01*
X446724D01*
Y183783D01*
X446922D01*
Y183684D01*
X447219D01*
Y183585D01*
X447416D01*
Y183486D01*
X447614D01*
Y183387D01*
X447911D01*
Y183288D01*
X448208D01*
Y183189D01*
X448603D01*
Y183090D01*
X448999D01*
Y182992D01*
X449295D01*
Y182893D01*
X449889D01*
Y182794D01*
X452064D01*
Y182893D01*
X452855D01*
Y182992D01*
X453350D01*
Y183090D01*
X453745D01*
Y183189D01*
X454042D01*
Y183288D01*
X454437D01*
Y183387D01*
X454734D01*
Y183486D01*
X454932D01*
Y183585D01*
X455130D01*
Y183684D01*
X455327D01*
Y183783D01*
X455525D01*
Y183881D01*
X455723D01*
Y183980D01*
X455921D01*
Y184079D01*
X456119D01*
Y184178D01*
X456217D01*
Y184277D01*
X456415D01*
Y184376D01*
X456514D01*
Y184475D01*
X456613D01*
Y184574D01*
X456811D01*
Y184673D01*
X456910D01*
Y184771D01*
X457009D01*
Y184870D01*
X457107D01*
Y184969D01*
X457206D01*
Y185068D01*
X457305D01*
Y185167D01*
X457503D01*
Y185266D01*
X457602D01*
Y185365D01*
X457701D01*
Y185562D01*
X457800D01*
Y185662D01*
X457898D01*
Y185760D01*
X457997D01*
Y185859D01*
X458096D01*
Y185958D01*
X458195D01*
Y186057D01*
X458294D01*
Y186156D01*
X458393D01*
Y186255D01*
X458492D01*
Y186453D01*
X458591D01*
Y186551D01*
X458690D01*
Y186749D01*
X458788D01*
Y186848D01*
X458887D01*
Y186947D01*
X458986D01*
Y187145D01*
X459085D01*
Y187342D01*
X459184D01*
Y187540D01*
X459283D01*
Y187837D01*
X459184D01*
Y188035D01*
X459085D01*
Y188232D01*
X458887D01*
Y188331D01*
X458788D01*
Y188430D01*
X458492D01*
Y188529D01*
X458195D01*
Y188628D01*
X457800D01*
Y188727D01*
X457503D01*
Y188826D01*
X457206D01*
Y188925D01*
X456910D01*
Y189024D01*
X456514D01*
Y189123D01*
X456217D01*
Y189221D01*
X456020D01*
Y189320D01*
X455723D01*
Y189419D01*
X455426D01*
Y189518D01*
X455130D01*
Y189617D01*
X454734D01*
Y189716D01*
X454536D01*
Y189815D01*
X454240D01*
Y189914D01*
X453943D01*
Y190012D01*
X453548D01*
Y190111D01*
X453251D01*
Y190210D01*
X452954D01*
Y190309D01*
X452658D01*
Y190408D01*
X452361D01*
Y190507D01*
X452064D01*
Y190606D01*
X451669D01*
Y190705D01*
X451372D01*
Y190804D01*
X451075D01*
Y190902D01*
X450779D01*
Y191001D01*
X450383D01*
Y191100D01*
X450086D01*
Y191199D01*
X449790D01*
Y191298D01*
X449592D01*
Y191397D01*
X449197D01*
Y191496D01*
X448900D01*
Y191595D01*
X448504D01*
Y191694D01*
X448208D01*
Y191792D01*
X447911D01*
Y191891D01*
X447614D01*
Y191990D01*
X447318D01*
Y192089D01*
X447021D01*
Y192188D01*
X446724D01*
Y192287D01*
X446526D01*
Y192386D01*
X446230D01*
Y192485D01*
X445933D01*
Y192584D01*
X445636D01*
Y192682D01*
X445340D01*
Y192781D01*
X445043D01*
Y192880D01*
X444747D01*
Y192979D01*
X444351D01*
Y193078D01*
X444153D01*
Y193177D01*
X443857D01*
Y193276D01*
X443560D01*
Y193375D01*
X443164D01*
Y193473D01*
X442868D01*
Y193572D01*
X442571D01*
Y193671D01*
X442274D01*
Y193770D01*
X441978D01*
Y193869D01*
X441681D01*
Y193968D01*
X441384D01*
Y194067D01*
X441088D01*
Y194166D01*
X440791D01*
Y194265D01*
X440494D01*
Y194363D01*
X440099D01*
Y194462D01*
X439901D01*
Y194561D01*
X439604D01*
Y194660D01*
X439308D01*
Y194759D01*
X438912D01*
Y194858D01*
X438616D01*
Y194957D01*
X438319D01*
Y195056D01*
X438121D01*
Y195154D01*
X438022D01*
Y195254D01*
X437923D01*
Y195352D01*
X437825D01*
Y195748D01*
X437923D01*
Y196045D01*
X438022D01*
Y196341D01*
X438121D01*
Y196638D01*
X438220D01*
Y196836D01*
X438319D01*
Y197132D01*
X438418D01*
Y197330D01*
X438517D01*
Y197627D01*
X438616D01*
Y197824D01*
X438714D01*
Y198022D01*
X438813D01*
Y198220D01*
X438912D01*
Y198418D01*
X439011D01*
Y198616D01*
X439110D01*
Y198813D01*
X439209D01*
Y199011D01*
X439308D01*
Y199110D01*
X439407D01*
Y199308D01*
X439506D01*
Y199407D01*
X439604D01*
Y199604D01*
X439703D01*
Y199802D01*
X439802D01*
Y199901D01*
X439901D01*
Y200000D01*
X440000D01*
Y200198D01*
X440099D01*
Y200297D01*
X440198D01*
Y200396D01*
X440297D01*
Y200593D01*
X440396D01*
Y200692D01*
X440494D01*
Y200791D01*
X440593D01*
Y200890D01*
X440692D01*
Y201088D01*
X440791D01*
Y201187D01*
X440890D01*
Y201286D01*
X440989D01*
Y201384D01*
X441088D01*
Y201483D01*
X441187D01*
Y201582D01*
X441286D01*
Y201681D01*
X441384D01*
Y201780D01*
X441483D01*
Y201879D01*
X441582D01*
Y201978D01*
X441681D01*
Y202077D01*
X441780D01*
Y202176D01*
X441879D01*
Y202274D01*
X441978D01*
Y202373D01*
X442077D01*
Y202472D01*
X442175D01*
Y202571D01*
X442274D01*
Y202670D01*
X442472D01*
Y202769D01*
X442571D01*
Y202868D01*
X442670D01*
Y202967D01*
X442769D01*
Y203065D01*
X442967D01*
Y203164D01*
X443065D01*
Y203263D01*
X443164D01*
Y203362D01*
X443362D01*
Y203461D01*
X443461D01*
Y203560D01*
X443659D01*
Y203659D01*
X443758D01*
Y203758D01*
X443955D01*
Y203857D01*
X444054D01*
Y203955D01*
X444252D01*
Y204054D01*
X444450D01*
Y204153D01*
X444549D01*
Y204252D01*
X444747D01*
Y204351D01*
X444944D01*
Y204450D01*
X445142D01*
Y204549D01*
X445340D01*
Y204648D01*
X445538D01*
Y204747D01*
X445735D01*
Y204846D01*
X446032D01*
Y204944D01*
X446230D01*
Y205043D01*
X446526D01*
Y205142D01*
X446724D01*
Y205241D01*
X447021D01*
Y205340D01*
X447318D01*
Y205439D01*
X447713D01*
Y205538D01*
X448109D01*
Y205637D01*
X448405D01*
Y205735D01*
X448999D01*
Y205834D01*
X449691D01*
Y205933D01*
X450877D01*
Y206032D01*
X452361D01*
Y205933D01*
D02*
G37*
G36*
X400940Y193671D02*
X401830D01*
Y193572D01*
X402324D01*
Y193473D01*
X402720D01*
Y193375D01*
X402918D01*
Y193276D01*
X403214D01*
Y193177D01*
X403412D01*
Y193078D01*
X403610D01*
Y192979D01*
X403807D01*
Y192880D01*
X404005D01*
Y192781D01*
X404203D01*
Y192682D01*
X404302D01*
Y192584D01*
X404500D01*
Y192485D01*
X404599D01*
Y192386D01*
X404796D01*
Y192287D01*
X404895D01*
Y192188D01*
X404994D01*
Y192089D01*
X405192D01*
Y191990D01*
X405291D01*
Y191891D01*
X405390D01*
Y191792D01*
X405489D01*
Y191694D01*
X405587D01*
Y191595D01*
X405686D01*
Y191397D01*
X405785D01*
Y191298D01*
X405884D01*
Y191199D01*
X405983D01*
Y191100D01*
X406082D01*
Y190902D01*
X406181D01*
Y190804D01*
X406280D01*
Y190606D01*
X406379D01*
Y190408D01*
X406477D01*
Y190309D01*
X406576D01*
Y190111D01*
X406675D01*
Y189914D01*
X406774D01*
Y189617D01*
X406873D01*
Y189419D01*
X406972D01*
Y189123D01*
X407071D01*
Y188826D01*
X407170D01*
Y188430D01*
X407268D01*
Y187837D01*
X407367D01*
Y185760D01*
X407268D01*
Y185167D01*
X407170D01*
Y184771D01*
X407071D01*
Y184475D01*
X406972D01*
Y184277D01*
X406873D01*
Y183980D01*
X406774D01*
Y183783D01*
X406675D01*
Y183585D01*
X406576D01*
Y183486D01*
X406477D01*
Y183288D01*
X406379D01*
Y183090D01*
X406280D01*
Y182992D01*
X406181D01*
Y182794D01*
X406082D01*
Y182695D01*
X405983D01*
Y182596D01*
X405884D01*
Y182497D01*
X405785D01*
Y182299D01*
X405686D01*
Y182200D01*
X405587D01*
Y182101D01*
X405489D01*
Y182003D01*
X405390D01*
Y181904D01*
X405291D01*
Y181805D01*
X405192D01*
Y181706D01*
X405093D01*
Y181607D01*
X404994D01*
Y181508D01*
X404895D01*
Y181409D01*
X404697D01*
Y181310D01*
X404599D01*
Y181212D01*
X404500D01*
Y181113D01*
X404302D01*
Y181014D01*
X404203D01*
Y180915D01*
X404005D01*
Y180816D01*
X403807D01*
Y180717D01*
X403709D01*
Y180618D01*
X403511D01*
Y180519D01*
X403313D01*
Y180420D01*
X403115D01*
Y180322D01*
X402819D01*
Y180223D01*
X402522D01*
Y180124D01*
X393919D01*
Y180223D01*
X393820D01*
Y180322D01*
X393721D01*
Y180420D01*
X393622D01*
Y180618D01*
X393523D01*
Y182299D01*
X393622D01*
Y182398D01*
X393721D01*
Y182497D01*
X393820D01*
Y182596D01*
X393919D01*
Y182695D01*
X394018D01*
Y182794D01*
X396292D01*
Y182695D01*
X401138D01*
Y182794D01*
X401731D01*
Y182893D01*
X402028D01*
Y182992D01*
X402324D01*
Y183090D01*
X402522D01*
Y183189D01*
X402720D01*
Y183288D01*
X402819D01*
Y183387D01*
X402918D01*
Y183486D01*
X403016D01*
Y183585D01*
X403214D01*
Y183684D01*
X403313D01*
Y183881D01*
X403511D01*
Y184079D01*
X403610D01*
Y184178D01*
X403709D01*
Y184277D01*
X403807D01*
Y184376D01*
X403906D01*
Y184475D01*
X404005D01*
Y184574D01*
X404104D01*
Y184771D01*
X404203D01*
Y184870D01*
X404302D01*
Y185068D01*
X404401D01*
Y185266D01*
X404500D01*
Y185562D01*
X404599D01*
Y185859D01*
X404697D01*
Y186453D01*
X404796D01*
Y187540D01*
X404697D01*
Y187936D01*
X404599D01*
Y188331D01*
X404500D01*
Y188529D01*
X404401D01*
Y188727D01*
X404302D01*
Y188925D01*
X404203D01*
Y189123D01*
X404104D01*
Y189221D01*
X404005D01*
Y189320D01*
X403906D01*
Y189419D01*
X403807D01*
Y189617D01*
X403709D01*
Y189716D01*
X403610D01*
Y189815D01*
X403511D01*
Y189914D01*
X403313D01*
Y190012D01*
X403214D01*
Y190111D01*
X403115D01*
Y190210D01*
X403016D01*
Y190309D01*
X402819D01*
Y190408D01*
X402720D01*
Y190507D01*
X402522D01*
Y190606D01*
X402324D01*
Y190705D01*
X402126D01*
Y190804D01*
X401929D01*
Y190902D01*
X401533D01*
Y191001D01*
X400940D01*
Y191100D01*
X400247D01*
Y191001D01*
X399555D01*
Y190902D01*
X399160D01*
Y190804D01*
X398863D01*
Y190705D01*
X398567D01*
Y190606D01*
X398369D01*
Y190507D01*
X398072D01*
Y190408D01*
X397874D01*
Y190309D01*
X397676D01*
Y190210D01*
X397578D01*
Y190111D01*
X397083D01*
Y190210D01*
X396984D01*
Y190309D01*
X396885D01*
Y190408D01*
X396786D01*
Y192485D01*
X396885D01*
Y192682D01*
X396984D01*
Y192781D01*
X397083D01*
Y192880D01*
X397182D01*
Y192979D01*
X397281D01*
Y193078D01*
X397479D01*
Y193177D01*
X397775D01*
Y193276D01*
X397973D01*
Y193375D01*
X398270D01*
Y193473D01*
X398665D01*
Y193572D01*
X399160D01*
Y193671D01*
X400050D01*
Y193770D01*
X400940D01*
Y193671D01*
D02*
G37*
G36*
X418937Y193276D02*
X419432D01*
Y193177D01*
X419827D01*
Y193078D01*
X420223D01*
Y192979D01*
X420519D01*
Y192880D01*
X420717D01*
Y192781D01*
X420915D01*
Y192682D01*
X421113D01*
Y192584D01*
X421310D01*
Y192485D01*
X421508D01*
Y192386D01*
X421607D01*
Y192287D01*
X421706D01*
Y192188D01*
X421904D01*
Y192089D01*
X422003D01*
Y191990D01*
X422200D01*
Y191891D01*
X422299D01*
Y191792D01*
X422398D01*
Y191694D01*
X422497D01*
Y191595D01*
X422596D01*
Y191496D01*
X422695D01*
Y191397D01*
X422794D01*
Y191298D01*
X422893D01*
Y191199D01*
X422991D01*
Y191100D01*
X423090D01*
Y190902D01*
X423189D01*
Y190804D01*
X423288D01*
Y190705D01*
X423387D01*
Y190507D01*
X423486D01*
Y190408D01*
X423585D01*
Y190309D01*
X423684D01*
Y190111D01*
X423783D01*
Y189914D01*
X423881D01*
Y189716D01*
X423980D01*
Y189518D01*
X424079D01*
Y189320D01*
X424178D01*
Y189123D01*
X424277D01*
Y188826D01*
X424376D01*
Y188430D01*
X424475D01*
Y188134D01*
X424574D01*
Y187639D01*
X424673D01*
Y185167D01*
X424574D01*
Y184673D01*
X424475D01*
Y184376D01*
X424376D01*
Y184079D01*
X424277D01*
Y183684D01*
X424178D01*
Y183486D01*
X424079D01*
Y183189D01*
X423980D01*
Y183090D01*
X423881D01*
Y182893D01*
X423783D01*
Y182695D01*
X423684D01*
Y182596D01*
X423585D01*
Y182398D01*
X423486D01*
Y182299D01*
X423387D01*
Y182101D01*
X423288D01*
Y182003D01*
X423189D01*
Y181904D01*
X423090D01*
Y181805D01*
X422991D01*
Y181706D01*
X422893D01*
Y181508D01*
X422794D01*
Y181409D01*
X422695D01*
Y181310D01*
X422497D01*
Y181212D01*
X422398D01*
Y181113D01*
X422299D01*
Y181014D01*
X422200D01*
Y180915D01*
X422003D01*
Y180816D01*
X421904D01*
Y180717D01*
X421706D01*
Y180618D01*
X421508D01*
Y180519D01*
X421310D01*
Y180420D01*
X421014D01*
Y180322D01*
X420816D01*
Y180223D01*
X420420D01*
Y180124D01*
X419926D01*
Y180025D01*
X419234D01*
Y179926D01*
X416168D01*
Y180025D01*
X415872D01*
Y179926D01*
X415773D01*
Y180025D01*
X415575D01*
Y179926D01*
X415377D01*
Y180025D01*
X405686D01*
Y180124D01*
X405489D01*
Y180223D01*
X405390D01*
Y180322D01*
X405291D01*
Y180717D01*
X405390D01*
Y180816D01*
X405489D01*
Y180915D01*
X405686D01*
Y181014D01*
X405785D01*
Y181113D01*
X405884D01*
Y181212D01*
X405983D01*
Y181310D01*
X406082D01*
Y181508D01*
X406181D01*
Y181607D01*
X406280D01*
Y181706D01*
X406379D01*
Y181805D01*
X406477D01*
Y181904D01*
X406675D01*
Y182003D01*
X406774D01*
Y182101D01*
X406972D01*
Y182200D01*
X413795D01*
Y182101D01*
X418245D01*
Y182200D01*
X418937D01*
Y182299D01*
X419333D01*
Y182398D01*
X419530D01*
Y182497D01*
X419827D01*
Y182596D01*
X420025D01*
Y182695D01*
X420223D01*
Y182794D01*
X420420D01*
Y182893D01*
X420519D01*
Y182992D01*
X420717D01*
Y183090D01*
X420816D01*
Y183189D01*
X420915D01*
Y183288D01*
X421014D01*
Y183387D01*
X421113D01*
Y183486D01*
X421212D01*
Y183585D01*
X421310D01*
Y183684D01*
X421409D01*
Y183881D01*
X421508D01*
Y183980D01*
X421607D01*
Y184178D01*
X421706D01*
Y184376D01*
X421805D01*
Y184574D01*
X421904D01*
Y184771D01*
X422003D01*
Y185068D01*
X422102D01*
Y185562D01*
X422003D01*
Y185662D01*
X421904D01*
Y185760D01*
X421706D01*
Y185859D01*
X411916D01*
Y185958D01*
X411817D01*
Y186057D01*
X411619D01*
Y186255D01*
X411521D01*
Y186354D01*
X411422D01*
Y186551D01*
X411323D01*
Y186749D01*
X411422D01*
Y187540D01*
X411521D01*
Y187936D01*
X411619D01*
Y188331D01*
X411718D01*
Y188727D01*
X411817D01*
Y189024D01*
X411916D01*
Y189221D01*
X412015D01*
Y189518D01*
X412114D01*
Y189617D01*
X412213D01*
Y189914D01*
X412312D01*
Y190012D01*
X412411D01*
Y190210D01*
X412509D01*
Y190309D01*
X412608D01*
Y190507D01*
X412707D01*
Y190705D01*
X412806D01*
Y190804D01*
X412905D01*
Y190902D01*
X413004D01*
Y191001D01*
X413103D01*
Y191199D01*
X413202D01*
Y191298D01*
X413301D01*
Y191397D01*
X413400D01*
Y191496D01*
X413498D01*
Y191595D01*
X413597D01*
Y191694D01*
X413696D01*
Y191792D01*
X413894D01*
Y191891D01*
X413993D01*
Y191990D01*
X414092D01*
Y192089D01*
X414191D01*
Y192188D01*
X414388D01*
Y192287D01*
X414487D01*
Y192386D01*
X414685D01*
Y192485D01*
X414784D01*
Y192584D01*
X414982D01*
Y192682D01*
X415179D01*
Y192781D01*
X415377D01*
Y192880D01*
X415575D01*
Y192979D01*
X415872D01*
Y193078D01*
X416168D01*
Y193177D01*
X416564D01*
Y193276D01*
X416959D01*
Y193375D01*
X418937D01*
Y193276D01*
D02*
G37*
G36*
X433276Y196638D02*
X433572D01*
Y196539D01*
X433671D01*
Y196440D01*
X433770D01*
Y196143D01*
X433869D01*
Y195451D01*
X433968D01*
Y194561D01*
X433869D01*
Y194462D01*
X433968D01*
Y194265D01*
X433869D01*
Y193473D01*
X433968D01*
Y193276D01*
X434067D01*
Y193177D01*
X434166D01*
Y193078D01*
X434265D01*
Y192979D01*
X436440D01*
Y192880D01*
X436638D01*
Y192781D01*
X436836D01*
Y192682D01*
X436935D01*
Y192485D01*
X437033D01*
Y192287D01*
Y192188D01*
X437132D01*
Y192089D01*
X437033D01*
Y190705D01*
X436935D01*
Y190507D01*
X436836D01*
Y190408D01*
X436638D01*
Y190309D01*
X436440D01*
Y190210D01*
X434265D01*
Y190111D01*
X434067D01*
Y190012D01*
X433968D01*
Y189815D01*
X433869D01*
Y180618D01*
X433770D01*
Y180223D01*
X433671D01*
Y180124D01*
X433572D01*
Y180025D01*
X433474D01*
Y179926D01*
X433375D01*
Y179827D01*
X423288D01*
Y179926D01*
X423189D01*
Y180025D01*
X423090D01*
Y180519D01*
X423189D01*
Y180618D01*
X423288D01*
Y180717D01*
X423387D01*
Y180816D01*
X423486D01*
Y180915D01*
X423585D01*
Y181014D01*
X423684D01*
Y181113D01*
X423783D01*
Y181212D01*
X423881D01*
Y181310D01*
X423980D01*
Y181409D01*
X424079D01*
Y181508D01*
X424178D01*
Y181607D01*
X424277D01*
Y181706D01*
X424475D01*
Y181805D01*
X424574D01*
Y181904D01*
X424870D01*
Y182003D01*
X430606D01*
Y182101D01*
X430705D01*
Y182200D01*
X430803D01*
Y182299D01*
X430902D01*
Y182398D01*
X431001D01*
Y189914D01*
X430902D01*
Y190012D01*
X430803D01*
Y190111D01*
X430705D01*
Y190210D01*
X428134D01*
Y190309D01*
X427936D01*
Y190408D01*
X427738D01*
Y190606D01*
X427639D01*
Y190705D01*
X427540D01*
Y192485D01*
X427639D01*
Y192682D01*
X427738D01*
Y192781D01*
X427936D01*
Y192880D01*
X428134D01*
Y192979D01*
X430606D01*
Y193078D01*
X430803D01*
Y193177D01*
X430902D01*
Y193276D01*
X431001D01*
Y196143D01*
X431100D01*
Y196341D01*
X431199D01*
Y196440D01*
X431298D01*
Y196539D01*
X431397D01*
Y196638D01*
X431496D01*
Y196737D01*
X433276D01*
Y196638D01*
D02*
G37*
G36*
X472534Y173004D02*
X472435D01*
Y172905D01*
X472237D01*
Y172806D01*
X472039D01*
Y172707D01*
X471842D01*
Y172608D01*
X471644D01*
Y172509D01*
X471347D01*
Y172411D01*
X332609D01*
Y172509D01*
X332411D01*
Y172608D01*
X332214D01*
Y172707D01*
X332115D01*
Y172806D01*
X331917D01*
Y172905D01*
X331818D01*
Y173004D01*
X331521D01*
Y173103D01*
X472534D01*
Y173004D01*
D02*
G37*
%LPC*%
G36*
X379382Y190111D02*
X377108D01*
Y190012D01*
X376910D01*
Y189815D01*
X376811D01*
Y189716D01*
X376712D01*
Y188727D01*
Y188628D01*
Y187738D01*
X376811D01*
Y187639D01*
X376910D01*
Y187540D01*
X377009D01*
Y187441D01*
X377108D01*
Y187342D01*
X379382D01*
Y190111D01*
D02*
G37*
G36*
X371966Y189815D02*
X371867D01*
Y189716D01*
X371768D01*
Y189320D01*
X371669D01*
Y189024D01*
X371570D01*
Y188727D01*
X371471D01*
Y188430D01*
X371373D01*
Y188035D01*
X371274D01*
Y187639D01*
X371175D01*
Y187342D01*
X371076D01*
Y187046D01*
X370977D01*
Y186749D01*
X370878D01*
Y186354D01*
X370779D01*
Y186156D01*
X372955D01*
Y186453D01*
X372856D01*
Y186848D01*
X372757D01*
Y187145D01*
X372658D01*
Y187441D01*
X372559D01*
Y187837D01*
X372460D01*
Y188134D01*
X372361D01*
Y188430D01*
X372263D01*
Y188727D01*
X372164D01*
Y189123D01*
X372065D01*
Y189419D01*
X371966D01*
Y189815D01*
D02*
G37*
G36*
X452658Y200989D02*
X450284D01*
Y200890D01*
X449790D01*
Y200791D01*
X449394D01*
Y200692D01*
X448999D01*
Y200593D01*
X448702D01*
Y200494D01*
X448405D01*
Y200396D01*
X448208D01*
Y200297D01*
X448010D01*
Y200198D01*
X447812D01*
Y200099D01*
X447614D01*
Y200000D01*
X447416D01*
Y199901D01*
X447219D01*
Y199802D01*
X447021D01*
Y199703D01*
X446823D01*
Y199604D01*
X446724D01*
Y199506D01*
X446526D01*
Y199407D01*
X446428D01*
Y199308D01*
X446230D01*
Y199209D01*
X446131D01*
Y199110D01*
X445933D01*
Y199011D01*
X445834D01*
Y198912D01*
X445735D01*
Y198813D01*
X445538D01*
Y198715D01*
X445439D01*
Y198616D01*
X445340D01*
Y198517D01*
X445241D01*
Y198418D01*
X445142D01*
Y198319D01*
X445043D01*
Y198121D01*
X444944D01*
Y197824D01*
X445043D01*
Y197726D01*
X445142D01*
Y197627D01*
X445241D01*
Y197528D01*
X445439D01*
Y197429D01*
X445735D01*
Y197330D01*
X445933D01*
Y197231D01*
X446230D01*
Y197132D01*
X446526D01*
Y197033D01*
X446823D01*
Y196935D01*
X447120D01*
Y196836D01*
X447515D01*
Y196737D01*
X447812D01*
Y196638D01*
X448010D01*
Y196539D01*
X448307D01*
Y196440D01*
X448702D01*
Y196341D01*
X448999D01*
Y196242D01*
X449295D01*
Y196143D01*
X449592D01*
Y196045D01*
X449889D01*
Y195946D01*
X450284D01*
Y195847D01*
X450581D01*
Y195748D01*
X450877D01*
Y195649D01*
X451174D01*
Y195550D01*
X451471D01*
Y195451D01*
X451768D01*
Y195352D01*
X452064D01*
Y195254D01*
X452361D01*
Y195154D01*
X452559D01*
Y195056D01*
X452954D01*
Y194957D01*
X453251D01*
Y194858D01*
X453548D01*
Y194759D01*
X453844D01*
Y194660D01*
X454141D01*
Y194561D01*
X454437D01*
Y194462D01*
X454833D01*
Y194363D01*
X455130D01*
Y194265D01*
X455426D01*
Y194166D01*
X455723D01*
Y194067D01*
X456020D01*
Y193968D01*
X456415D01*
Y193869D01*
X456613D01*
Y193770D01*
X456910D01*
Y193671D01*
X457206D01*
Y193572D01*
X457503D01*
Y193473D01*
X457800D01*
Y193375D01*
X458096D01*
Y193276D01*
X458393D01*
Y193177D01*
X458690D01*
Y193078D01*
X458986D01*
Y192979D01*
X459382D01*
Y192880D01*
X459678D01*
Y192781D01*
X459975D01*
Y192880D01*
X460173D01*
Y192979D01*
X460272D01*
Y193177D01*
X460371D01*
Y193473D01*
X460272D01*
Y193968D01*
X460173D01*
Y194363D01*
X460074D01*
Y194759D01*
X459975D01*
Y195056D01*
X459876D01*
Y195254D01*
X459777D01*
Y195550D01*
X459678D01*
Y195748D01*
X459580D01*
Y195946D01*
X459481D01*
Y196143D01*
X459382D01*
Y196341D01*
X459283D01*
Y196539D01*
X459184D01*
Y196737D01*
X459085D01*
Y196935D01*
X458986D01*
Y197033D01*
X458887D01*
Y197231D01*
X458788D01*
Y197330D01*
X458690D01*
Y197429D01*
X458591D01*
Y197627D01*
X458492D01*
Y197726D01*
X458393D01*
Y197824D01*
X458294D01*
Y197923D01*
X458195D01*
Y198022D01*
X458096D01*
Y198220D01*
X457997D01*
Y198319D01*
X457898D01*
Y198418D01*
X457800D01*
Y198517D01*
X457602D01*
Y198616D01*
X457503D01*
Y198715D01*
X457404D01*
Y198813D01*
X457305D01*
Y198912D01*
X457206D01*
Y199011D01*
X457009D01*
Y199110D01*
X456910D01*
Y199209D01*
X456811D01*
Y199308D01*
X456613D01*
Y199407D01*
X456415D01*
Y199506D01*
X456316D01*
Y199604D01*
X456119D01*
Y199703D01*
X455921D01*
Y199802D01*
X455723D01*
Y199901D01*
X455525D01*
Y200000D01*
X455327D01*
Y200099D01*
X455130D01*
Y200198D01*
X454932D01*
Y200297D01*
X454635D01*
Y200396D01*
X454437D01*
Y200494D01*
X454141D01*
Y200593D01*
X453943D01*
Y200692D01*
X453548D01*
Y200791D01*
X453152D01*
Y200890D01*
X452658D01*
Y200989D01*
D02*
G37*
G36*
X418344Y190804D02*
X417652D01*
Y190705D01*
X417157D01*
Y190606D01*
X416762D01*
Y190507D01*
X416465D01*
Y190408D01*
X416267D01*
Y190309D01*
X416069D01*
Y190210D01*
X415970D01*
Y190111D01*
X415773D01*
Y190012D01*
X415575D01*
Y189914D01*
X415476D01*
Y189815D01*
X415377D01*
Y189716D01*
X415278D01*
Y189617D01*
X415179D01*
Y189518D01*
X415080D01*
Y189419D01*
X414982D01*
Y189320D01*
X414883D01*
Y189221D01*
X414784D01*
Y189123D01*
X414685D01*
Y189024D01*
X414586D01*
Y188826D01*
X414487D01*
Y188727D01*
X414388D01*
Y188430D01*
X414487D01*
Y188232D01*
X414685D01*
Y188134D01*
X420816D01*
Y188035D01*
X421409D01*
Y188134D01*
X421607D01*
Y188331D01*
X421706D01*
Y188628D01*
X421607D01*
Y188826D01*
X421508D01*
Y188925D01*
X421409D01*
Y189123D01*
X421310D01*
Y189221D01*
X421212D01*
Y189320D01*
X421113D01*
Y189419D01*
X421014D01*
Y189617D01*
X420915D01*
Y189716D01*
X420717D01*
Y189815D01*
X420618D01*
Y189914D01*
X420519D01*
Y190012D01*
X420420D01*
Y190111D01*
X420223D01*
Y190210D01*
X420025D01*
Y190309D01*
X419926D01*
Y190408D01*
X419629D01*
Y190507D01*
X419333D01*
Y190606D01*
X418937D01*
Y190705D01*
X418344D01*
Y190804D01*
D02*
G37*
%LPD*%
D45*
X155400Y210800D02*
D03*
Y134600D02*
D03*
Y109200D02*
D03*
X104600Y210800D02*
D03*
Y134600D02*
D03*
D46*
Y109200D02*
D03*
D47*
X50000Y269200D02*
D03*
Y380000D02*
D03*
D48*
Y320000D02*
D03*
X24600Y294600D02*
D03*
X50000Y430800D02*
D03*
X24600Y405400D02*
D03*
D49*
X450000Y100000D02*
D03*
X50000D02*
D03*
X450000Y500000D02*
D03*
X50000D02*
D03*
D50*
X360000Y410000D02*
D03*
X70000Y350000D02*
D03*
X240000Y390000D02*
D03*
X30000Y150000D02*
D03*
Y190000D02*
D03*
X77105Y146707D02*
D03*
X80000Y320000D02*
D03*
X180000Y150000D02*
D03*
X200000Y210000D02*
D03*
X180000Y110000D02*
D03*
X20000Y440000D02*
D03*
X440000Y280000D02*
D03*
X400000Y400000D02*
D03*
X290000Y190000D02*
D03*
X380000Y80000D02*
D03*
X270000Y390000D02*
D03*
X101900Y344850D02*
D03*
X200000Y520000D02*
D03*
X80000Y280000D02*
D03*
X370000Y520000D02*
D03*
X300000Y380000D02*
D03*
X200000Y390000D02*
D03*
X170000Y180000D02*
D03*
X264424Y355625D02*
D03*
X150000Y520000D02*
D03*
X321400Y500000D02*
D03*
X160000Y470000D02*
D03*
X214750Y175150D02*
D03*
Y150150D02*
D03*
X239750Y175150D02*
D03*
X264750Y150150D02*
D03*
X239750D02*
D03*
D51*
X264750Y175150D02*
D03*
D52*
X265000Y79100D02*
D03*
X215000D02*
D03*
D55*
X450000Y127500D02*
D03*
X470000Y120000D02*
D03*
X477500Y100000D02*
D03*
X470000Y80000D02*
D03*
X450000Y72500D02*
D03*
X430000Y80000D02*
D03*
X422500Y100000D02*
D03*
X430000Y120000D02*
D03*
X50000Y127500D02*
D03*
X70000Y120000D02*
D03*
X77500Y100000D02*
D03*
X70000Y80000D02*
D03*
X50000Y72500D02*
D03*
X30000Y80000D02*
D03*
X22500Y100000D02*
D03*
X30000Y120000D02*
D03*
X450000Y527500D02*
D03*
X470000Y520000D02*
D03*
X477500Y500000D02*
D03*
X470000Y480000D02*
D03*
X450000Y472500D02*
D03*
X430000Y480000D02*
D03*
X422500Y500000D02*
D03*
X430000Y520000D02*
D03*
X50000Y527500D02*
D03*
X70000Y520000D02*
D03*
X77500Y500000D02*
D03*
X70000Y480000D02*
D03*
X50000Y472500D02*
D03*
X30000Y480000D02*
D03*
X22500Y500000D02*
D03*
X30000Y520000D02*
D03*
M02*
