G04*
G04 #@! TF.GenerationSoftware,Altium Limited,Altium Designer,22.11.1 (43)*
G04*
G04 Layer_Physical_Order=2*
G04 Layer_Color=16711680*
%FSLAX44Y44*%
%MOMM*%
G71*
G04*
G04 #@! TF.SameCoordinates,75D7284C-96A1-4F7D-B096-18610DFFEBA5*
G04*
G04*
G04 #@! TF.FilePolarity,Positive*
G04*
G01*
G75*
%ADD56C,0.5000*%
%ADD57C,1.0000*%
%ADD58C,1.6000*%
%ADD59R,1.6000X1.6000*%
%ADD60R,1.2000X1.2000*%
%ADD61C,1.2000*%
%ADD62C,7.0000*%
%ADD63C,2.0000*%
G04:AMPARAMS|DCode=64|XSize=2mm|YSize=2mm|CornerRadius=0.5mm|HoleSize=0mm|Usage=FLASHONLY|Rotation=0.000|XOffset=0mm|YOffset=0mm|HoleType=Round|Shape=RoundedRectangle|*
%AMROUNDEDRECTD64*
21,1,2.0000,1.0000,0,0,0.0*
21,1,1.0000,2.0000,0,0,0.0*
1,1,1.0000,0.5000,-0.5000*
1,1,1.0000,-0.5000,-0.5000*
1,1,1.0000,-0.5000,0.5000*
1,1,1.0000,0.5000,0.5000*
%
%ADD64ROUNDEDRECTD64*%
%ADD65C,1.5240*%
%ADD66C,0.7000*%
%ADD67C,0.5000*%
G36*
X459775Y549145D02*
X466106Y547448D01*
X472162Y544940D01*
X477838Y541663D01*
X483038Y537673D01*
X487673Y533038D01*
X491663Y527838D01*
X494940Y522162D01*
X497448Y516106D01*
X499145Y509775D01*
X500000Y503277D01*
Y500000D01*
Y100000D01*
Y96723D01*
X499145Y90225D01*
X497448Y83893D01*
X494940Y77838D01*
X491663Y72162D01*
X487673Y66962D01*
X483038Y62327D01*
X477838Y58337D01*
X472162Y55060D01*
X466106Y52552D01*
X459775Y50855D01*
X453277Y50000D01*
X46723D01*
X40224Y50855D01*
X33893Y52552D01*
X27838Y55060D01*
X22162Y58337D01*
X16962Y62327D01*
X12327Y66962D01*
X8337Y72162D01*
X5060Y77838D01*
X2552Y83893D01*
X856Y90225D01*
X0Y96723D01*
Y100000D01*
Y500000D01*
Y503277D01*
X856Y509775D01*
X2552Y516106D01*
X5060Y522162D01*
X8337Y527838D01*
X12327Y533038D01*
X16962Y537673D01*
X22162Y541663D01*
X27838Y544940D01*
X33893Y547448D01*
X40224Y549145D01*
X46723Y550000D01*
X453277D01*
X459775Y549145D01*
D02*
G37*
%LPC*%
G36*
X371477Y535000D02*
X368523D01*
X365625Y534423D01*
X362895Y533293D01*
X360438Y531651D01*
X358349Y529562D01*
X356910Y527409D01*
X356828Y527320D01*
X356600Y527260D01*
X356250Y527201D01*
X355783Y527158D01*
X355063Y527137D01*
X355016Y527126D01*
X354969Y527133D01*
X354858Y527105D01*
X304681D01*
X302619Y527658D01*
X300381D01*
X298219Y527079D01*
X296281Y525960D01*
X294698Y524377D01*
X293579Y522439D01*
X293000Y520277D01*
Y518039D01*
X293579Y515877D01*
X294698Y513939D01*
X296281Y512356D01*
X298219Y511237D01*
X300381Y510658D01*
X302619D01*
X304781Y511237D01*
X306060Y511976D01*
X310366D01*
X310893Y510706D01*
X309748Y509562D01*
X308785Y508120D01*
X308512Y507849D01*
X308490Y507817D01*
X308401Y507785D01*
X308145Y507721D01*
X307777Y507660D01*
X307298Y507616D01*
X306573Y507596D01*
X306437Y507565D01*
X220000D01*
X218042Y507307D01*
X216218Y506551D01*
X214651Y505349D01*
X214651Y505349D01*
X184651Y475349D01*
X183449Y473782D01*
X182693Y471958D01*
X182435Y470000D01*
Y423898D01*
X182079Y423281D01*
X181500Y421119D01*
Y418881D01*
X182079Y416719D01*
X183198Y414781D01*
X184781Y413198D01*
X186719Y412079D01*
X188881Y411500D01*
X191119D01*
X193281Y412079D01*
X195219Y413198D01*
X196802Y414781D01*
X197921Y416719D01*
X198500Y418881D01*
Y421119D01*
X197921Y423281D01*
X197565Y423898D01*
Y466867D01*
X210327Y479629D01*
X211500Y479143D01*
Y478881D01*
X212079Y476719D01*
X213198Y474781D01*
X214781Y473198D01*
X216719Y472079D01*
X218881Y471500D01*
X221119D01*
X223281Y472079D01*
X223897Y472435D01*
X296867D01*
X299629Y469673D01*
X299143Y468500D01*
X298881D01*
X296719Y467921D01*
X294781Y466802D01*
X293198Y465219D01*
X292079Y463281D01*
X291500Y461119D01*
Y458881D01*
X292079Y456719D01*
X292435Y456102D01*
Y450701D01*
X246655Y404921D01*
X246539Y404848D01*
X246020Y404359D01*
X245680Y404080D01*
X245502Y403957D01*
X244375Y404423D01*
X241477Y405000D01*
X238523D01*
X235625Y404423D01*
X232895Y403293D01*
X230438Y401651D01*
X228349Y399562D01*
X226707Y397105D01*
X225576Y394375D01*
X225000Y391477D01*
Y388523D01*
X225576Y385625D01*
X226043Y384498D01*
X225920Y384320D01*
X225641Y383980D01*
X225152Y383461D01*
X225079Y383345D01*
X80784Y239050D01*
X80096Y238865D01*
X78158Y237746D01*
X76575Y236164D01*
X75457Y234226D01*
X74877Y232064D01*
Y231127D01*
X73607Y230601D01*
X60086Y244122D01*
Y253093D01*
X60097Y253143D01*
X60182Y258123D01*
X60187Y258200D01*
X61000D01*
Y262891D01*
X61068Y263230D01*
X61015Y263495D01*
X61040Y263763D01*
X61000Y263891D01*
Y280200D01*
X39000D01*
Y263891D01*
X38960Y263763D01*
X38985Y263495D01*
X38932Y263230D01*
X39000Y262891D01*
Y258200D01*
X39683D01*
X39893Y254953D01*
X39902Y253204D01*
X39914Y253148D01*
Y239944D01*
X40257Y237334D01*
X41265Y234901D01*
X42868Y232812D01*
X140342Y135338D01*
X140368Y135297D01*
X141982Y133613D01*
X142400Y133125D01*
Y132888D01*
X143286Y129582D01*
X144997Y126618D01*
X147418Y124197D01*
X150213Y122584D01*
X150304Y121900D01*
X150213Y121216D01*
X147418Y119603D01*
X144997Y117182D01*
X143286Y114218D01*
X142400Y110912D01*
Y107488D01*
X143286Y104182D01*
X144997Y101218D01*
X147418Y98797D01*
X150382Y97086D01*
X153688Y96200D01*
X157112D01*
X160418Y97086D01*
X163382Y98797D01*
X163543Y98958D01*
X164316Y99008D01*
X167556Y98756D01*
X168500Y98601D01*
X169387Y98406D01*
X170111Y98197D01*
X170666Y97991D01*
X171048Y97808D01*
X171538Y97504D01*
X171912Y97364D01*
X172895Y96707D01*
X175625Y95576D01*
X178523Y95000D01*
X181477D01*
X184375Y95576D01*
X187105Y96707D01*
X188088Y97364D01*
X188462Y97504D01*
X188952Y97808D01*
X189334Y97991D01*
X189889Y98197D01*
X190613Y98406D01*
X191500Y98601D01*
X192444Y98756D01*
X196629Y99081D01*
X198215Y99102D01*
X198268Y99114D01*
X219200D01*
X221811Y99457D01*
X224243Y100465D01*
X226332Y102068D01*
X244969Y120704D01*
X246572Y122793D01*
X247579Y125226D01*
X247923Y127837D01*
Y134477D01*
X247933Y134524D01*
X247955Y135469D01*
X248007Y136187D01*
X248085Y136781D01*
X248179Y137244D01*
X248274Y137572D01*
X248341Y137743D01*
X248391Y137782D01*
X248596Y138021D01*
X249312Y138499D01*
X251401Y140588D01*
X253043Y143045D01*
X254174Y145775D01*
X254750Y148673D01*
Y151627D01*
X254174Y154525D01*
X253043Y157255D01*
X251401Y159712D01*
X249312Y161801D01*
X248992Y162015D01*
Y163285D01*
X249312Y163499D01*
X250068Y164255D01*
X251754Y164144D01*
X252618Y163018D01*
X254707Y161415D01*
X257139Y160407D01*
X259750Y160064D01*
X269750D01*
X272360Y160407D01*
X274793Y161415D01*
X276882Y163018D01*
X278485Y165107D01*
X279493Y167539D01*
X279836Y170150D01*
Y171245D01*
X280612Y171347D01*
X282437Y172103D01*
X284003Y173305D01*
X284769Y174070D01*
X284887Y174145D01*
X285414Y174643D01*
X285783Y174950D01*
X286087Y175168D01*
X286313Y175304D01*
X286399Y175344D01*
X286436Y175337D01*
X286821Y175338D01*
X288523Y175000D01*
X291477D01*
X294375Y175576D01*
X297105Y176707D01*
X299562Y178349D01*
X301651Y180438D01*
X303293Y182895D01*
X304424Y185625D01*
X305000Y188523D01*
Y191477D01*
X304424Y194375D01*
X303293Y197105D01*
X301651Y199562D01*
X299562Y201651D01*
X297105Y203293D01*
X294375Y204424D01*
X291477Y205000D01*
X288523D01*
X285625Y204424D01*
X282895Y203293D01*
X280438Y201651D01*
X278349Y199562D01*
X276707Y197105D01*
X275576Y194375D01*
X275000Y191477D01*
Y190174D01*
X273730Y189325D01*
X272360Y189893D01*
X269750Y190236D01*
X259750D01*
X257139Y189893D01*
X254707Y188885D01*
X252618Y187282D01*
X251754Y186156D01*
X251753Y186155D01*
X251394Y186011D01*
X250212Y186358D01*
X250178Y186469D01*
X250076Y186917D01*
X249994Y187420D01*
X249864Y188992D01*
X249847Y189905D01*
X249836Y189954D01*
Y200250D01*
X249492Y202861D01*
X248485Y205293D01*
X246882Y207382D01*
X236332Y217932D01*
X234243Y219535D01*
X231810Y220543D01*
X229200Y220886D01*
X218268D01*
X218215Y220898D01*
X216542Y220920D01*
X215117Y220982D01*
X212492Y221236D01*
X211500Y221399D01*
X210613Y221594D01*
X209889Y221803D01*
X209334Y222009D01*
X208952Y222192D01*
X208462Y222496D01*
X208088Y222636D01*
X207105Y223293D01*
X204375Y224424D01*
X201477Y225000D01*
X198523D01*
X195625Y224424D01*
X192895Y223293D01*
X191912Y222636D01*
X191538Y222496D01*
X191048Y222192D01*
X190666Y222009D01*
X190111Y221803D01*
X189387Y221594D01*
X188500Y221399D01*
X187508Y221236D01*
X184883Y220982D01*
X183458Y220920D01*
X181785Y220898D01*
X181732Y220886D01*
X166604D01*
X166556Y220897D01*
X164227Y220948D01*
X163587Y220997D01*
X163382Y221203D01*
X160418Y222914D01*
X157112Y223800D01*
X153688D01*
X150382Y222914D01*
X147418Y221203D01*
X144997Y218782D01*
X143286Y215818D01*
X142400Y212512D01*
Y209088D01*
X143286Y205782D01*
X144997Y202818D01*
X147418Y200397D01*
X150382Y198686D01*
X153688Y197800D01*
X157112D01*
X160418Y198686D01*
X163382Y200397D01*
X163543Y200558D01*
X165717Y200697D01*
X166479Y200702D01*
X166535Y200714D01*
X180770D01*
X180818Y200703D01*
X182298Y200672D01*
X184967Y200429D01*
X186003Y200249D01*
X186990Y200013D01*
X187861Y199741D01*
X188623Y199438D01*
X189279Y199112D01*
X189838Y198769D01*
X190519Y198256D01*
X190730Y198154D01*
X192895Y196707D01*
X195625Y195576D01*
X198523Y195000D01*
X201477D01*
X204375Y195576D01*
X207105Y196707D01*
X209270Y198154D01*
X209481Y198256D01*
X210162Y198769D01*
X210721Y199112D01*
X211377Y199438D01*
X212139Y199741D01*
X213010Y200013D01*
X213997Y200249D01*
X215033Y200429D01*
X217702Y200672D01*
X219182Y200703D01*
X219230Y200714D01*
X225022D01*
X229664Y196072D01*
Y190039D01*
X229656Y190006D01*
X229583Y188101D01*
X229516Y187481D01*
X229424Y186917D01*
X229322Y186470D01*
X229221Y186142D01*
X229138Y185935D01*
X229094Y185853D01*
X228938Y185676D01*
X228761Y185374D01*
X228099Y184712D01*
X227885Y184392D01*
X226615D01*
X226401Y184712D01*
X224312Y186801D01*
X221855Y188443D01*
X219125Y189573D01*
X216227Y190150D01*
X213273D01*
X210375Y189573D01*
X207645Y188443D01*
X207266Y188190D01*
X206980Y188093D01*
X204837Y186862D01*
X204029Y186451D01*
X202358Y185724D01*
X201750Y185511D01*
X201176Y185347D01*
X200697Y185243D01*
X200322Y185192D01*
X199801Y185167D01*
X199692Y185140D01*
X185288D01*
X185154Y185171D01*
X184444Y185192D01*
X184070Y185229D01*
X183293Y187105D01*
X181651Y189562D01*
X179562Y191651D01*
X177105Y193293D01*
X174375Y194424D01*
X171477Y195000D01*
X168523D01*
X165625Y194424D01*
X162895Y193293D01*
X160438Y191651D01*
X158349Y189562D01*
X156707Y187105D01*
X155576Y184375D01*
X155000Y181477D01*
Y178523D01*
X155576Y175625D01*
X156707Y172895D01*
X158349Y170438D01*
X160438Y168349D01*
X162895Y166707D01*
X165625Y165576D01*
X168523Y165000D01*
X171477D01*
X174375Y165576D01*
X177105Y166707D01*
X179562Y168349D01*
X180309Y169095D01*
X180644Y169300D01*
X180852Y169492D01*
X180875Y169509D01*
X180951Y169553D01*
X181095Y169619D01*
X181318Y169698D01*
X181625Y169781D01*
X181947Y169844D01*
X183132Y169963D01*
X183820Y169978D01*
X183963Y170010D01*
X198364D01*
X198460Y169985D01*
X199034Y169953D01*
X199274Y169910D01*
X199493Y169843D01*
X199716Y169744D01*
X199964Y169596D01*
X200248Y169380D01*
X200572Y169076D01*
X200932Y168669D01*
X201320Y168148D01*
X201818Y167362D01*
X202137Y167027D01*
X203099Y165588D01*
X205188Y163499D01*
X205508Y163285D01*
Y162015D01*
X205188Y161801D01*
X204375Y160988D01*
X203976Y160726D01*
X203201Y159961D01*
X202548Y159382D01*
X201936Y158901D01*
X201371Y158513D01*
X200857Y158213D01*
X200397Y157993D01*
X199993Y157841D01*
X199640Y157746D01*
X199330Y157696D01*
X198771Y157665D01*
X198671Y157640D01*
X194943D01*
X194806Y157671D01*
X194081Y157691D01*
X193600Y157735D01*
X193228Y157796D01*
X192968Y157861D01*
X192860Y157899D01*
X192830Y157943D01*
X192549Y158218D01*
X191651Y159562D01*
X189562Y161651D01*
X187105Y163293D01*
X184375Y164424D01*
X181477Y165000D01*
X178523D01*
X175625Y164424D01*
X172895Y163293D01*
X170438Y161651D01*
X168349Y159562D01*
X166707Y157105D01*
X165576Y154375D01*
X165000Y151477D01*
Y148523D01*
X165576Y145625D01*
X166298Y143883D01*
X165221Y143163D01*
X163382Y145003D01*
X160418Y146714D01*
X157112Y147600D01*
X156832D01*
X155196Y149036D01*
X154656Y149569D01*
X154608Y149600D01*
X107286Y196922D01*
X107615Y198149D01*
X109618Y198686D01*
X112582Y200397D01*
X115003Y202818D01*
X116714Y205782D01*
X117600Y209088D01*
Y212512D01*
X116714Y215818D01*
X115003Y218782D01*
X112582Y221203D01*
X109618Y222914D01*
X106312Y223800D01*
X102888D01*
X99582Y222914D01*
X96618Y221203D01*
X94197Y218782D01*
X92486Y215818D01*
X91949Y213815D01*
X90723Y213486D01*
X83034Y221175D01*
X83560Y222445D01*
X84496D01*
X86658Y223024D01*
X88596Y224143D01*
X90179Y225725D01*
X91298Y227664D01*
X91482Y228351D01*
X236430Y373299D01*
X236552Y373377D01*
X237093Y373891D01*
X237502Y374240D01*
X237861Y374510D01*
X238165Y374707D01*
X238404Y374837D01*
X238575Y374912D01*
X238677Y374944D01*
X238708Y374951D01*
X238969Y374944D01*
X239302Y375000D01*
X241477D01*
X241622Y375029D01*
X242434Y373895D01*
X242079Y373281D01*
X241500Y371119D01*
Y368881D01*
X242079Y366719D01*
X243198Y364781D01*
X243520Y364459D01*
X242994Y363189D01*
X235999D01*
X235999Y363189D01*
X235020Y363060D01*
X234041Y362932D01*
X232216Y362176D01*
X230650Y360974D01*
X222281Y352605D01*
X221593Y352421D01*
X219655Y351302D01*
X218072Y349719D01*
X216953Y347781D01*
X216374Y345619D01*
Y343381D01*
X216953Y341219D01*
X218072Y339281D01*
X219655Y337698D01*
X221593Y336579D01*
X223755Y336000D01*
X225993D01*
X228155Y336579D01*
X230093Y337698D01*
X231676Y339281D01*
X232795Y341219D01*
X232979Y341907D01*
X239132Y348060D01*
X249461D01*
X249597Y348029D01*
X250322Y348008D01*
X250800Y347965D01*
X251169Y347904D01*
X251425Y347840D01*
X251514Y347808D01*
X251535Y347776D01*
X251808Y347505D01*
X252772Y346063D01*
X254862Y343973D01*
X257318Y342332D01*
X260048Y341201D01*
X262946Y340625D01*
X265901D01*
X268799Y341201D01*
X271529Y342332D01*
X273986Y343973D01*
X276075Y346063D01*
X277716Y348520D01*
X278847Y351249D01*
X279424Y354147D01*
Y357102D01*
X278847Y360000D01*
X277716Y362730D01*
X276075Y365187D01*
X273986Y367276D01*
X271529Y368918D01*
X268799Y370048D01*
X265901Y370625D01*
X263119D01*
X262538Y371388D01*
X262381Y371683D01*
X264769Y374070D01*
X264887Y374145D01*
X265414Y374643D01*
X265783Y374950D01*
X266087Y375168D01*
X266313Y375303D01*
X266399Y375344D01*
X266437Y375337D01*
X266821Y375338D01*
X268523Y375000D01*
X271477D01*
X274375Y375577D01*
X277105Y376707D01*
X279562Y378349D01*
X281651Y380438D01*
X283293Y382895D01*
X284424Y385625D01*
X285000Y388523D01*
Y391477D01*
X284424Y394375D01*
X283293Y397105D01*
X281651Y399562D01*
X279562Y401651D01*
X277105Y403293D01*
X274375Y404423D01*
X271477Y405000D01*
X269927D01*
X269401Y406270D01*
X305349Y442218D01*
X306551Y443785D01*
X307307Y445610D01*
X307565Y447567D01*
Y456102D01*
X307921Y456719D01*
X308500Y458881D01*
Y459143D01*
X309673Y459629D01*
X322435Y446867D01*
Y343133D01*
X287407Y308105D01*
X286719Y307921D01*
X284781Y306802D01*
X283198Y305219D01*
X282079Y303281D01*
X281500Y301119D01*
Y298881D01*
X282079Y296719D01*
X283198Y294781D01*
X284781Y293198D01*
X286719Y292079D01*
X288881Y291500D01*
X291119D01*
X293281Y292079D01*
X295219Y293198D01*
X296802Y294781D01*
X297921Y296719D01*
X298105Y297407D01*
X335349Y334651D01*
X335349Y334651D01*
X336551Y336218D01*
X337307Y338042D01*
X337565Y340000D01*
X337565Y340000D01*
Y437725D01*
X338835Y438399D01*
X340219Y437600D01*
X340907Y437416D01*
X346103Y432220D01*
X347669Y431018D01*
X348719Y430583D01*
X352435Y426867D01*
Y424963D01*
X352404Y424827D01*
X352384Y424102D01*
X352340Y423623D01*
X352279Y423255D01*
X352215Y422999D01*
X352183Y422910D01*
X352151Y422888D01*
X351880Y422615D01*
X350438Y421651D01*
X348349Y419562D01*
X346707Y417105D01*
X345576Y414375D01*
X345000Y411477D01*
Y408523D01*
X345576Y405625D01*
X346707Y402895D01*
X348349Y400438D01*
X350438Y398349D01*
X352895Y396707D01*
X355625Y395577D01*
X358523Y395000D01*
X361477D01*
X364375Y395577D01*
X367105Y396707D01*
X369562Y398349D01*
X371651Y400438D01*
X373293Y402895D01*
X374423Y405625D01*
X375000Y408523D01*
Y411477D01*
X374423Y414375D01*
X373293Y417105D01*
X371651Y419562D01*
X369562Y421651D01*
X368120Y422615D01*
X367849Y422888D01*
X367817Y422910D01*
X367785Y422999D01*
X367721Y423255D01*
X367660Y423623D01*
X367616Y424102D01*
X367596Y424827D01*
X367565Y424963D01*
Y430000D01*
X367307Y431958D01*
X366551Y433782D01*
X365349Y435349D01*
X357780Y442918D01*
X356213Y444120D01*
X355164Y444555D01*
X351605Y448114D01*
X351421Y448802D01*
X350302Y450740D01*
X348719Y452323D01*
X346781Y453442D01*
X344619Y454021D01*
X342381D01*
X340219Y453442D01*
X338480Y452438D01*
X337845Y452479D01*
X336959Y452797D01*
X336551Y453782D01*
X335349Y455349D01*
X335349Y455349D01*
X305349Y485349D01*
X303782Y486551D01*
X301958Y487307D01*
X300000Y487565D01*
X223897D01*
X223281Y487921D01*
X221119Y488500D01*
X220857D01*
X220371Y489673D01*
X223133Y492435D01*
X306437D01*
X306573Y492404D01*
X307298Y492384D01*
X307776Y492340D01*
X308145Y492279D01*
X308401Y492215D01*
X308490Y492183D01*
X308512Y492151D01*
X308785Y491880D01*
X309748Y490438D01*
X311838Y488349D01*
X314294Y486707D01*
X317024Y485576D01*
X319922Y485000D01*
X322877D01*
X324578Y485338D01*
X324963Y485337D01*
X325001Y485344D01*
X325086Y485303D01*
X325313Y485168D01*
X325616Y484950D01*
X325986Y484643D01*
X326512Y484145D01*
X326631Y484070D01*
X353572Y457130D01*
X353756Y456442D01*
X354875Y454504D01*
X356458Y452921D01*
X358396Y451802D01*
X359084Y451618D01*
X378870Y431832D01*
X378870Y431831D01*
X380437Y430629D01*
X382261Y429874D01*
X384219Y429616D01*
X384219Y429616D01*
X410666D01*
X411938Y428881D01*
X414100Y428302D01*
X416338D01*
X418500Y428881D01*
X420438Y430000D01*
X422021Y431583D01*
X423140Y433521D01*
X423719Y435683D01*
Y437921D01*
X423140Y440083D01*
X422021Y442021D01*
X420438Y443603D01*
X418500Y444722D01*
X416338Y445302D01*
X414100D01*
X412023Y444745D01*
X387352D01*
X369782Y462316D01*
X369598Y463004D01*
X368479Y464942D01*
X366896Y466524D01*
X364958Y467643D01*
X364270Y467828D01*
X337329Y494768D01*
X337255Y494887D01*
X336757Y495414D01*
X336449Y495783D01*
X336232Y496087D01*
X336096Y496313D01*
X336055Y496399D01*
X336063Y496437D01*
X336061Y496821D01*
X336400Y498523D01*
Y501477D01*
X335823Y504375D01*
X334692Y507105D01*
X333051Y509562D01*
X331907Y510706D01*
X332433Y511976D01*
X355170D01*
X355308Y511945D01*
X356037Y511925D01*
X356530Y511881D01*
X356918Y511819D01*
X357199Y511751D01*
X357377Y511691D01*
X357405Y511678D01*
X357479Y511577D01*
X357756Y511326D01*
X358349Y510438D01*
X360438Y508349D01*
X362895Y506707D01*
X365625Y505577D01*
X368523Y505000D01*
X371477D01*
X374375Y505577D01*
X377105Y506707D01*
X379562Y508349D01*
X381651Y510438D01*
X383293Y512895D01*
X384423Y515625D01*
X385000Y518523D01*
Y521477D01*
X384423Y524375D01*
X383293Y527105D01*
X381651Y529562D01*
X379562Y531651D01*
X377105Y533293D01*
X374375Y534423D01*
X371477Y535000D01*
D02*
G37*
G36*
X201477D02*
X198523D01*
X195625Y534423D01*
X192895Y533293D01*
X190438Y531651D01*
X188349Y529562D01*
X186707Y527105D01*
X185576Y524375D01*
X185000Y521477D01*
Y518523D01*
X185576Y515625D01*
X186707Y512895D01*
X188349Y510438D01*
X190438Y508349D01*
X192895Y506707D01*
X195625Y505577D01*
X198523Y505000D01*
X201477D01*
X204375Y505577D01*
X207105Y506707D01*
X209562Y508349D01*
X211651Y510438D01*
X212632Y511905D01*
X213281Y512079D01*
X215219Y513198D01*
X216802Y514781D01*
X217921Y516719D01*
X218500Y518881D01*
Y521119D01*
X217921Y523281D01*
X216802Y525219D01*
X215219Y526802D01*
X213281Y527921D01*
X212632Y528095D01*
X211651Y529562D01*
X209562Y531651D01*
X207105Y533293D01*
X204375Y534423D01*
X201477Y535000D01*
D02*
G37*
G36*
X151477D02*
X148523D01*
X145625Y534423D01*
X142895Y533293D01*
X140438Y531651D01*
X138349Y529562D01*
X136707Y527105D01*
X135576Y524375D01*
X135000Y521477D01*
Y518523D01*
X135576Y515625D01*
X136707Y512895D01*
X138349Y510438D01*
X140438Y508349D01*
X142895Y506707D01*
X145625Y505577D01*
X148523Y505000D01*
X151477D01*
X154375Y505577D01*
X157105Y506707D01*
X159562Y508349D01*
X161651Y510438D01*
X162632Y511905D01*
X163281Y512079D01*
X165219Y513198D01*
X166802Y514781D01*
X167921Y516719D01*
X168500Y518881D01*
Y521119D01*
X167921Y523281D01*
X166802Y525219D01*
X165219Y526802D01*
X163281Y527921D01*
X162632Y528095D01*
X161651Y529562D01*
X159562Y531651D01*
X157105Y533293D01*
X154375Y534423D01*
X151477Y535000D01*
D02*
G37*
G36*
X182619Y494750D02*
X180381D01*
X178219Y494171D01*
X176940Y493432D01*
X175867D01*
X173909Y493174D01*
X172085Y492419D01*
X170518Y491216D01*
X170518Y491216D01*
X165231Y485930D01*
X165113Y485855D01*
X164586Y485357D01*
X164217Y485050D01*
X163913Y484832D01*
X163687Y484697D01*
X163601Y484656D01*
X163563Y484663D01*
X163179Y484662D01*
X161477Y485000D01*
X158523D01*
X155625Y484423D01*
X152895Y483293D01*
X150438Y481651D01*
X148349Y479562D01*
X146707Y477105D01*
X145576Y474375D01*
X145000Y471477D01*
Y468523D01*
X145576Y465625D01*
X146707Y462895D01*
X148349Y460438D01*
X150438Y458349D01*
X152895Y456707D01*
X155625Y455577D01*
X158523Y455000D01*
X161477D01*
X164375Y455577D01*
X167105Y456707D01*
X169562Y458349D01*
X171651Y460438D01*
X173293Y462895D01*
X174424Y465625D01*
X175000Y468523D01*
Y471477D01*
X174662Y473179D01*
X174663Y473563D01*
X174656Y473601D01*
X174697Y473687D01*
X174832Y473913D01*
X175049Y474216D01*
X175357Y474586D01*
X175855Y475113D01*
X175930Y475232D01*
X178857Y478158D01*
X180381Y477750D01*
X182619D01*
X184781Y478329D01*
X186719Y479448D01*
X188302Y481031D01*
X189421Y482969D01*
X190000Y485131D01*
Y487369D01*
X189421Y489531D01*
X188302Y491469D01*
X186719Y493052D01*
X184781Y494171D01*
X182619Y494750D01*
D02*
G37*
G36*
X27100Y416118D02*
Y407900D01*
X35318D01*
X34850Y409646D01*
X33402Y412154D01*
X31354Y414202D01*
X28846Y415650D01*
X27100Y416118D01*
D02*
G37*
G36*
X22100D02*
X20354Y415650D01*
X17846Y414202D01*
X15798Y412154D01*
X14350Y409646D01*
X13882Y407900D01*
X22100D01*
Y416118D01*
D02*
G37*
G36*
X35318Y402900D02*
X27100D01*
Y394682D01*
X28846Y395150D01*
X31354Y396598D01*
X33402Y398646D01*
X34850Y401154D01*
X35318Y402900D01*
D02*
G37*
G36*
X22100D02*
X13882D01*
X14350Y401154D01*
X15798Y398646D01*
X17846Y396598D01*
X20354Y395150D01*
X22100Y394682D01*
Y402900D01*
D02*
G37*
G36*
X110000Y500086D02*
X107389Y499743D01*
X104957Y498735D01*
X102868Y497132D01*
X92868Y487132D01*
X91265Y485043D01*
X90257Y482611D01*
X89914Y480000D01*
Y420000D01*
X90257Y417389D01*
X91265Y414957D01*
X92868Y412868D01*
X111189Y394547D01*
X110703Y393373D01*
X98125D01*
X61949Y429549D01*
X61874Y429668D01*
X61563Y429997D01*
X61396Y430196D01*
X61275Y430363D01*
X61192Y430494D01*
X61142Y430590D01*
X61115Y430652D01*
X61105Y430685D01*
X61103Y430693D01*
X61094Y430927D01*
X61000Y431324D01*
Y432248D01*
X60250Y435046D01*
X58802Y437554D01*
X56754Y439602D01*
X54246Y441050D01*
X51448Y441800D01*
X49681D01*
X49243Y441869D01*
X49120Y441864D01*
X49108Y441869D01*
X49013Y441926D01*
X48875Y442025D01*
X48697Y442172D01*
X48374Y442476D01*
X48257Y442549D01*
X48221Y442586D01*
X48146Y442679D01*
X48106Y442700D01*
X45457Y445349D01*
X43891Y446551D01*
X42066Y447307D01*
X40108Y447565D01*
X34963D01*
X34827Y447596D01*
X34102Y447616D01*
X33623Y447660D01*
X33255Y447721D01*
X32999Y447785D01*
X32910Y447817D01*
X32888Y447849D01*
X32615Y448120D01*
X31651Y449562D01*
X29562Y451651D01*
X27105Y453293D01*
X24375Y454424D01*
X21477Y455000D01*
X18523D01*
X15625Y454424D01*
X12895Y453293D01*
X10438Y451651D01*
X8349Y449562D01*
X6707Y447105D01*
X5577Y444375D01*
X5000Y441477D01*
Y438523D01*
X5577Y435625D01*
X6707Y432895D01*
X8349Y430438D01*
X10438Y428349D01*
X12895Y426707D01*
X15625Y425577D01*
X18523Y425000D01*
X21477D01*
X24375Y425577D01*
X27105Y426707D01*
X29562Y428349D01*
X31651Y430438D01*
X32615Y431880D01*
X32888Y432151D01*
X32910Y432183D01*
X32999Y432215D01*
X33255Y432279D01*
X33623Y432340D01*
X34102Y432384D01*
X34827Y432404D01*
X34963Y432435D01*
X36975D01*
X37890Y431520D01*
X37966Y431399D01*
X38288Y431061D01*
X38477Y430839D01*
X38624Y430644D01*
X38734Y430476D01*
X38812Y430338D01*
X38864Y430229D01*
X38895Y430147D01*
X38913Y430087D01*
X38922Y430042D01*
X38951Y429789D01*
X39000Y429635D01*
Y429352D01*
X39750Y426554D01*
X41198Y424046D01*
X43246Y421998D01*
X45754Y420550D01*
X48552Y419800D01*
X49476D01*
X49873Y419706D01*
X50107Y419697D01*
X50116Y419695D01*
X50148Y419685D01*
X50210Y419659D01*
X50306Y419608D01*
X50437Y419525D01*
X50604Y419403D01*
X50802Y419237D01*
X51132Y418926D01*
X51251Y418851D01*
X78842Y391260D01*
X78356Y390086D01*
X66107D01*
X66057Y390097D01*
X61077Y390182D01*
X61000Y390187D01*
Y391000D01*
X56309D01*
X55970Y391068D01*
X55705Y391015D01*
X55437Y391040D01*
X55309Y391000D01*
X39000D01*
Y369000D01*
X55309D01*
X55437Y368960D01*
X55705Y368985D01*
X55970Y368932D01*
X56309Y369000D01*
X61000D01*
Y369683D01*
X64247Y369893D01*
X65996Y369902D01*
X66052Y369914D01*
X72176D01*
X72866Y368644D01*
X72079Y367281D01*
X71741Y366018D01*
X71686Y365971D01*
X71302Y365675D01*
X70969Y365450D01*
X70692Y365290D01*
X70477Y365187D01*
X70327Y365132D01*
X70241Y365109D01*
X70212Y365104D01*
X69929Y365092D01*
X69551Y365000D01*
X68523D01*
X65625Y364424D01*
X62895Y363293D01*
X60438Y361651D01*
X58349Y359562D01*
X56707Y357105D01*
X55577Y354375D01*
X55000Y351477D01*
Y348523D01*
X55577Y345625D01*
X56707Y342895D01*
X58349Y340438D01*
X60438Y338349D01*
X62895Y336707D01*
X65625Y335577D01*
X68523Y335000D01*
X71477D01*
X74375Y335577D01*
X77105Y336707D01*
X79562Y338349D01*
X81651Y340438D01*
X83293Y342895D01*
X84424Y345625D01*
X85000Y348523D01*
Y351477D01*
X84424Y354375D01*
X83638Y356273D01*
X83657Y356296D01*
X85219Y357198D01*
X86802Y358781D01*
X87921Y360719D01*
X88408Y362539D01*
X90814Y362223D01*
X134142D01*
X136753Y362566D01*
X139185Y363574D01*
X141274Y365177D01*
X147132Y371035D01*
X148735Y373124D01*
X149743Y375556D01*
X150086Y378167D01*
Y394142D01*
X149743Y396753D01*
X148735Y399185D01*
X147132Y401274D01*
X141274Y407132D01*
X139185Y408735D01*
X136753Y409743D01*
X134142Y410086D01*
X124178D01*
X110086Y424178D01*
Y475822D01*
X117132Y482868D01*
X118735Y484957D01*
X119743Y487389D01*
X120086Y490000D01*
X119743Y492611D01*
X118735Y495043D01*
X117132Y497132D01*
X115043Y498735D01*
X112611Y499743D01*
X110000Y500086D01*
D02*
G37*
G36*
X401477Y415000D02*
X398523D01*
X395625Y414423D01*
X392895Y413293D01*
X390438Y411651D01*
X388349Y409562D01*
X386707Y407105D01*
X385576Y404375D01*
X385000Y401477D01*
Y398523D01*
X385576Y395625D01*
X386707Y392895D01*
X388349Y390438D01*
X390438Y388349D01*
X392895Y386707D01*
X395625Y385576D01*
X398523Y385000D01*
X401477D01*
X404375Y385576D01*
X407105Y386707D01*
X409562Y388349D01*
X411651Y390438D01*
X412615Y391880D01*
X412888Y392151D01*
X412910Y392183D01*
X412999Y392215D01*
X413255Y392279D01*
X413623Y392340D01*
X414102Y392384D01*
X414826Y392404D01*
X414963Y392435D01*
X446867D01*
X451895Y387407D01*
X452079Y386719D01*
X453198Y384781D01*
X454781Y383198D01*
X456719Y382079D01*
X458881Y381500D01*
X461119D01*
X463281Y382079D01*
X465219Y383198D01*
X466802Y384781D01*
X467921Y386719D01*
X468500Y388881D01*
Y391119D01*
X467921Y393281D01*
X466802Y395219D01*
X465219Y396802D01*
X463281Y397921D01*
X462593Y398105D01*
X455349Y405349D01*
X453782Y406551D01*
X451958Y407307D01*
X450000Y407565D01*
X414963D01*
X414826Y407596D01*
X414102Y407616D01*
X413623Y407660D01*
X413255Y407721D01*
X412999Y407785D01*
X412910Y407817D01*
X412888Y407849D01*
X412615Y408120D01*
X411651Y409562D01*
X409562Y411651D01*
X407105Y413293D01*
X404375Y414423D01*
X401477Y415000D01*
D02*
G37*
G36*
X201477Y405000D02*
X198523D01*
X195625Y404423D01*
X192895Y403293D01*
X190438Y401651D01*
X188349Y399562D01*
X187639Y398500D01*
X187381D01*
X185219Y397921D01*
X183281Y396802D01*
X181698Y395219D01*
X180579Y393281D01*
X180000Y391119D01*
Y388881D01*
X180579Y386719D01*
X181698Y384781D01*
X183281Y383198D01*
X185219Y382079D01*
X187381Y381500D01*
X187639D01*
X188349Y380438D01*
X190438Y378349D01*
X192895Y376707D01*
X195625Y375577D01*
X198523Y375000D01*
X201477D01*
X204375Y375577D01*
X207105Y376707D01*
X209562Y378349D01*
X211651Y380438D01*
X213293Y382895D01*
X214424Y385625D01*
X215000Y388523D01*
Y391477D01*
X214424Y394375D01*
X213293Y397105D01*
X211651Y399562D01*
X209562Y401651D01*
X207105Y403293D01*
X204375Y404423D01*
X201477Y405000D01*
D02*
G37*
G36*
X301477Y395000D02*
X298523D01*
X295625Y394423D01*
X292895Y393293D01*
X290438Y391651D01*
X288349Y389562D01*
X286707Y387105D01*
X285576Y384375D01*
X285000Y381477D01*
Y378523D01*
X285576Y375625D01*
X286707Y372895D01*
X288349Y370438D01*
X290438Y368349D01*
X291880Y367385D01*
X292151Y367112D01*
X292183Y367090D01*
X292215Y367001D01*
X292279Y366745D01*
X292340Y366377D01*
X292384Y365898D01*
X292404Y365173D01*
X292435Y365037D01*
Y357133D01*
X287407Y352105D01*
X286719Y351921D01*
X284781Y350802D01*
X283198Y349219D01*
X282079Y347281D01*
X281500Y345119D01*
Y342881D01*
X282079Y340719D01*
X283198Y338781D01*
X284781Y337198D01*
X286719Y336079D01*
X288881Y335500D01*
X291119D01*
X293281Y336079D01*
X295219Y337198D01*
X296802Y338781D01*
X297921Y340719D01*
X298105Y341407D01*
X305349Y348651D01*
X305349Y348651D01*
X306551Y350218D01*
X307307Y352042D01*
X307565Y354000D01*
Y365037D01*
X307596Y365173D01*
X307616Y365898D01*
X307660Y366377D01*
X307721Y366745D01*
X307785Y367001D01*
X307817Y367090D01*
X307849Y367112D01*
X308120Y367385D01*
X309562Y368349D01*
X311651Y370438D01*
X313293Y372895D01*
X314424Y375625D01*
X315000Y378523D01*
Y381477D01*
X314424Y384375D01*
X313293Y387105D01*
X311651Y389562D01*
X309562Y391651D01*
X307105Y393293D01*
X304375Y394423D01*
X301477Y395000D01*
D02*
G37*
G36*
X103377Y359850D02*
X100423D01*
X97525Y359273D01*
X94795Y358143D01*
X92338Y356501D01*
X90249Y354412D01*
X88607Y351955D01*
X87477Y349225D01*
X86900Y346327D01*
Y343373D01*
X87477Y340475D01*
X88607Y337745D01*
X90249Y335288D01*
X92338Y333199D01*
X94795Y331557D01*
X97525Y330426D01*
X100423Y329850D01*
X103377D01*
X106275Y330426D01*
X109005Y331557D01*
X111462Y333199D01*
X113551Y335288D01*
X114515Y336730D01*
X114788Y337001D01*
X114810Y337033D01*
X114899Y337065D01*
X115155Y337129D01*
X115523Y337190D01*
X116002Y337234D01*
X116727Y337254D01*
X116863Y337285D01*
X133468D01*
X133995Y336015D01*
X133198Y335219D01*
X132079Y333281D01*
X131895Y332593D01*
X126867Y327565D01*
X95274D01*
X95135Y327596D01*
X94340Y327617D01*
X93788Y327664D01*
X93353Y327732D01*
X93040Y327806D01*
X92880Y327860D01*
X92875Y327868D01*
X92607Y328131D01*
X91651Y329562D01*
X89562Y331651D01*
X87105Y333293D01*
X84375Y334423D01*
X81477Y335000D01*
X78523D01*
X75625Y334423D01*
X72895Y333293D01*
X70438Y331651D01*
X68349Y329562D01*
X67385Y328120D01*
X67112Y327849D01*
X67091Y327817D01*
X67001Y327785D01*
X66745Y327721D01*
X66377Y327660D01*
X65898Y327616D01*
X65174Y327596D01*
X65037Y327565D01*
X59334D01*
X59197Y327596D01*
X58744Y327609D01*
X58485Y327631D01*
X58282Y327663D01*
X58130Y327698D01*
X58026Y327730D01*
X57964Y327755D01*
X57934Y327771D01*
X57926Y327775D01*
X57755Y327935D01*
X57407Y328149D01*
X56754Y328802D01*
X54246Y330250D01*
X51448Y331000D01*
X48552D01*
X45754Y330250D01*
X43246Y328802D01*
X41198Y326754D01*
X39750Y324246D01*
X39000Y321448D01*
Y318552D01*
X39750Y315754D01*
X41198Y313246D01*
X43246Y311198D01*
X45754Y309750D01*
X48552Y309000D01*
X51448D01*
X54246Y309750D01*
X56754Y311198D01*
X57407Y311851D01*
X57755Y312065D01*
X57926Y312225D01*
X57934Y312229D01*
X57964Y312245D01*
X58026Y312270D01*
X58130Y312302D01*
X58282Y312337D01*
X58485Y312369D01*
X58744Y312391D01*
X59197Y312404D01*
X59334Y312435D01*
X65037D01*
X65174Y312404D01*
X65898Y312384D01*
X66377Y312340D01*
X66745Y312279D01*
X67001Y312215D01*
X67091Y312183D01*
X67112Y312151D01*
X67385Y311880D01*
X68349Y310438D01*
X70438Y308349D01*
X72895Y306707D01*
X75625Y305576D01*
X78523Y305000D01*
X81477D01*
X84375Y305576D01*
X87105Y306707D01*
X89562Y308349D01*
X91651Y310438D01*
X92607Y311869D01*
X92875Y312132D01*
X92880Y312140D01*
X93040Y312194D01*
X93353Y312268D01*
X93788Y312335D01*
X94340Y312383D01*
X95135Y312404D01*
X95274Y312435D01*
X130000D01*
X131958Y312693D01*
X133782Y313449D01*
X135349Y314651D01*
X142593Y321895D01*
X143281Y322079D01*
X145219Y323198D01*
X146802Y324781D01*
X147921Y326719D01*
X148500Y328881D01*
Y331119D01*
X147921Y333281D01*
X146802Y335219D01*
X145818Y336203D01*
X146267Y337543D01*
X148091Y338299D01*
X149658Y339501D01*
X150412Y340255D01*
X151839Y340637D01*
X153777Y341756D01*
X155360Y343339D01*
X156479Y345277D01*
X157058Y347439D01*
Y349677D01*
X156479Y351839D01*
X155360Y353777D01*
X153777Y355360D01*
X151839Y356479D01*
X149677Y357058D01*
X147439D01*
X145277Y356479D01*
X143339Y355360D01*
X141756Y353777D01*
X140970Y352415D01*
X116863D01*
X116727Y352446D01*
X116002Y352466D01*
X115523Y352510D01*
X115155Y352571D01*
X114899Y352635D01*
X114810Y352667D01*
X114788Y352699D01*
X114515Y352970D01*
X113551Y354412D01*
X111462Y356501D01*
X109005Y358143D01*
X106275Y359273D01*
X103377Y359850D01*
D02*
G37*
G36*
X27100Y305318D02*
Y297100D01*
X35318D01*
X34850Y298846D01*
X33402Y301354D01*
X31354Y303402D01*
X28846Y304850D01*
X27100Y305318D01*
D02*
G37*
G36*
X22100D02*
X20354Y304850D01*
X17846Y303402D01*
X15798Y301354D01*
X14350Y298846D01*
X13882Y297100D01*
X22100D01*
Y305318D01*
D02*
G37*
G36*
X35318Y292100D02*
X27100D01*
Y283882D01*
X28846Y284350D01*
X31354Y285798D01*
X33402Y287846D01*
X34850Y290354D01*
X35318Y292100D01*
D02*
G37*
G36*
X22100D02*
X13882D01*
X14350Y290354D01*
X15798Y287846D01*
X17846Y285798D01*
X20354Y284350D01*
X22100Y283882D01*
Y292100D01*
D02*
G37*
G36*
X81477Y295000D02*
X78523D01*
X75625Y294424D01*
X72895Y293293D01*
X70438Y291651D01*
X68349Y289562D01*
X66707Y287105D01*
X65576Y284375D01*
X65000Y281477D01*
Y278523D01*
X65576Y275625D01*
X66707Y272895D01*
X68349Y270438D01*
X70438Y268349D01*
X72895Y266707D01*
X75625Y265576D01*
X78523Y265000D01*
X81477D01*
X84375Y265576D01*
X87105Y266707D01*
X89562Y268349D01*
X91651Y270438D01*
X92615Y271880D01*
X92888Y272151D01*
X92909Y272183D01*
X92999Y272215D01*
X93255Y272279D01*
X93623Y272340D01*
X94102Y272384D01*
X94826Y272404D01*
X94963Y272435D01*
X96103D01*
X96719Y272079D01*
X98881Y271500D01*
X101119D01*
X103281Y272079D01*
X105219Y273198D01*
X106802Y274781D01*
X107921Y276719D01*
X108500Y278881D01*
Y281119D01*
X107921Y283281D01*
X106802Y285219D01*
X105219Y286802D01*
X103281Y287921D01*
X101119Y288500D01*
X98881D01*
X96719Y287921D01*
X96103Y287565D01*
X94963D01*
X94826Y287596D01*
X94102Y287616D01*
X93623Y287660D01*
X93255Y287721D01*
X92999Y287785D01*
X92909Y287817D01*
X92888Y287848D01*
X92615Y288120D01*
X91651Y289562D01*
X89562Y291651D01*
X87105Y293293D01*
X84375Y294424D01*
X81477Y295000D01*
D02*
G37*
G36*
X441477D02*
X438523D01*
X435625Y294424D01*
X432895Y293293D01*
X430438Y291651D01*
X428349Y289562D01*
X426707Y287105D01*
X425577Y284375D01*
X425000Y281477D01*
Y278523D01*
X425577Y275625D01*
X426707Y272895D01*
X428349Y270438D01*
X430438Y268349D01*
X432895Y266707D01*
X435625Y265576D01*
X438523Y265000D01*
X441477D01*
X444375Y265576D01*
X447105Y266707D01*
X449562Y268349D01*
X451651Y270438D01*
X452615Y271880D01*
X452888Y272151D01*
X452910Y272183D01*
X452999Y272215D01*
X453255Y272279D01*
X453623Y272340D01*
X454102Y272384D01*
X454827Y272404D01*
X454963Y272435D01*
X456867D01*
X462935Y266367D01*
Y258498D01*
X462579Y257881D01*
X462000Y255719D01*
Y253481D01*
X462579Y251319D01*
X463698Y249381D01*
X465281Y247798D01*
X467219Y246679D01*
X469381Y246100D01*
X471619D01*
X473781Y246679D01*
X475719Y247798D01*
X477302Y249381D01*
X478421Y251319D01*
X479000Y253481D01*
Y255719D01*
X478421Y257881D01*
X478065Y258498D01*
Y269500D01*
X477807Y271458D01*
X477051Y273282D01*
X475849Y274849D01*
X465349Y285349D01*
X463782Y286551D01*
X461958Y287307D01*
X460000Y287565D01*
X454963D01*
X454827Y287596D01*
X454102Y287616D01*
X453623Y287660D01*
X453255Y287721D01*
X452999Y287785D01*
X452910Y287817D01*
X452888Y287848D01*
X452615Y288120D01*
X451651Y289562D01*
X449562Y291651D01*
X447105Y293293D01*
X444375Y294424D01*
X441477Y295000D01*
D02*
G37*
G36*
X31119Y218500D02*
X28881D01*
X26719Y217921D01*
X24781Y216802D01*
X23198Y215219D01*
X22079Y213281D01*
X21500Y211119D01*
Y208881D01*
X22079Y206719D01*
X22435Y206103D01*
Y204963D01*
X22404Y204827D01*
X22384Y204102D01*
X22340Y203623D01*
X22279Y203255D01*
X22215Y202999D01*
X22183Y202910D01*
X22151Y202888D01*
X21880Y202615D01*
X20438Y201651D01*
X18349Y199562D01*
X16707Y197105D01*
X15576Y194375D01*
X15000Y191477D01*
Y188523D01*
X15576Y185625D01*
X16707Y182895D01*
X18349Y180438D01*
X20438Y178349D01*
X22895Y176707D01*
X25625Y175576D01*
X28523Y175000D01*
X31477D01*
X34375Y175576D01*
X37105Y176707D01*
X39562Y178349D01*
X41651Y180438D01*
X43293Y182895D01*
X44423Y185625D01*
X45000Y188523D01*
Y191477D01*
X44423Y194375D01*
X43293Y197105D01*
X41651Y199562D01*
X39562Y201651D01*
X38120Y202615D01*
X37849Y202888D01*
X37817Y202910D01*
X37785Y202999D01*
X37721Y203255D01*
X37660Y203623D01*
X37616Y204102D01*
X37596Y204827D01*
X37565Y204963D01*
Y206103D01*
X37921Y206719D01*
X38500Y208881D01*
Y211119D01*
X37921Y213281D01*
X36802Y215219D01*
X35219Y216802D01*
X33281Y217921D01*
X31119Y218500D01*
D02*
G37*
G36*
X31477Y165000D02*
X28523D01*
X25625Y164424D01*
X22895Y163293D01*
X20438Y161651D01*
X18349Y159562D01*
X16707Y157105D01*
X15576Y154375D01*
X15000Y151477D01*
Y148523D01*
X15285Y147092D01*
X14781Y146802D01*
X13198Y145219D01*
X12079Y143281D01*
X11500Y141119D01*
Y138881D01*
X12079Y136719D01*
X13198Y134781D01*
X14781Y133198D01*
X16719Y132079D01*
X18881Y131500D01*
X21119D01*
X23281Y132079D01*
X25219Y133198D01*
X26802Y134781D01*
X27092Y135285D01*
X28523Y135000D01*
X31477D01*
X34375Y135576D01*
X37105Y136707D01*
X39562Y138349D01*
X41651Y140438D01*
X43293Y142895D01*
X44423Y145625D01*
X45000Y148523D01*
Y151477D01*
X44423Y154375D01*
X43293Y157105D01*
X41651Y159562D01*
X39562Y161651D01*
X37105Y163293D01*
X34375Y164424D01*
X31477Y165000D01*
D02*
G37*
G36*
X78583Y161707D02*
X75628D01*
X72730Y161131D01*
X70000Y160000D01*
X67543Y158358D01*
X65454Y156269D01*
X63812Y153812D01*
X62682Y151082D01*
X62105Y148185D01*
Y145230D01*
X62682Y142332D01*
X63812Y139602D01*
X65454Y137145D01*
X67543Y135056D01*
X70000Y133414D01*
X72730Y132284D01*
X75628Y131707D01*
X78583D01*
X81481Y132284D01*
X83821Y133253D01*
X83957Y133142D01*
X84474Y132655D01*
X84591Y132582D01*
X85817Y131356D01*
X87384Y130154D01*
X89209Y129398D01*
X91167Y129140D01*
X91460D01*
X91572Y129112D01*
X92069Y129089D01*
X92259Y129061D01*
X92388Y129028D01*
X92476Y128994D01*
X92547Y128956D01*
X92621Y128905D01*
X92716Y128823D01*
X92838Y128691D01*
X92988Y128491D01*
X93274Y128026D01*
X93565Y127714D01*
X94197Y126618D01*
X96618Y124197D01*
X97878Y123470D01*
X97537Y122200D01*
X91600D01*
Y96200D01*
X117600D01*
Y122200D01*
X111663D01*
X111322Y123470D01*
X112582Y124197D01*
X115003Y126618D01*
X116714Y129582D01*
X117600Y132888D01*
Y136312D01*
X116714Y139618D01*
X115003Y142582D01*
X112582Y145003D01*
X109618Y146714D01*
X106312Y147600D01*
X102888D01*
X99582Y146714D01*
X98517Y146099D01*
X98072Y145955D01*
X97380Y145567D01*
X96851Y145298D01*
X95670Y144793D01*
X95238Y144645D01*
X94781Y144514D01*
X94356Y144418D01*
X94180Y144389D01*
X94164Y144405D01*
X94085Y144530D01*
X93554Y145084D01*
X93171Y145524D01*
X92859Y145922D01*
X92616Y146272D01*
X92438Y146570D01*
X92319Y146808D01*
X92248Y146983D01*
X92215Y147094D01*
X92205Y147145D01*
X92180Y147433D01*
X92105Y147693D01*
Y148185D01*
X91529Y151082D01*
X90398Y153812D01*
X88756Y156269D01*
X86667Y158358D01*
X84210Y160000D01*
X81481Y161131D01*
X78583Y161707D01*
D02*
G37*
G36*
X382500Y94797D02*
Y82500D01*
X394797D01*
X394423Y84375D01*
X393293Y87105D01*
X391651Y89562D01*
X389562Y91651D01*
X387105Y93293D01*
X384375Y94424D01*
X382500Y94797D01*
D02*
G37*
G36*
X377500D02*
X375625Y94424D01*
X372895Y93293D01*
X370438Y91651D01*
X368349Y89562D01*
X366707Y87105D01*
X365577Y84375D01*
X365203Y82500D01*
X377500D01*
Y94797D01*
D02*
G37*
G36*
X266712Y92100D02*
X263288D01*
X259982Y91214D01*
X257018Y89502D01*
X254597Y87082D01*
X252886Y84118D01*
X252000Y80811D01*
Y77389D01*
X252886Y74082D01*
X254597Y71118D01*
X257018Y68697D01*
X259982Y66986D01*
X263288Y66100D01*
X266712D01*
X270018Y66986D01*
X272982Y68697D01*
X275403Y71118D01*
X277114Y74082D01*
X278000Y77389D01*
Y80811D01*
X277114Y84118D01*
X275403Y87082D01*
X272982Y89502D01*
X270018Y91214D01*
X266712Y92100D01*
D02*
G37*
G36*
X216712D02*
X213288D01*
X209982Y91214D01*
X207018Y89502D01*
X204597Y87082D01*
X202886Y84118D01*
X202000Y80811D01*
Y77389D01*
X202886Y74082D01*
X204597Y71118D01*
X207018Y68697D01*
X209982Y66986D01*
X213288Y66100D01*
X216712D01*
X220018Y66986D01*
X222982Y68697D01*
X225403Y71118D01*
X227114Y74082D01*
X228000Y77389D01*
Y80811D01*
X227114Y84118D01*
X225403Y87082D01*
X222982Y89502D01*
X220018Y91214D01*
X216712Y92100D01*
D02*
G37*
G36*
X394797Y77500D02*
X382500D01*
Y65203D01*
X384375Y65576D01*
X387105Y66707D01*
X389562Y68349D01*
X391651Y70438D01*
X393293Y72895D01*
X394423Y75625D01*
X394797Y77500D01*
D02*
G37*
G36*
X377500D02*
X365203D01*
X365577Y75625D01*
X366707Y72895D01*
X368349Y70438D01*
X370438Y68349D01*
X372895Y66707D01*
X375625Y65576D01*
X377500Y65203D01*
Y77500D01*
D02*
G37*
%LPD*%
G36*
X361578Y514608D02*
X361237Y515070D01*
X360835Y515484D01*
X360372Y515849D01*
X359850Y516165D01*
X359267Y516432D01*
X358624Y516651D01*
X357920Y516822D01*
X357156Y516944D01*
X356332Y517016D01*
X355448Y517041D01*
X355210Y522041D01*
X356095Y522066D01*
X356914Y522143D01*
X357668Y522271D01*
X358357Y522450D01*
X358980Y522680D01*
X359539Y522961D01*
X360032Y523293D01*
X360460Y523677D01*
X360822Y524111D01*
X361119Y524597D01*
X361578Y514608D01*
D02*
G37*
G36*
X312739Y495000D02*
X312419Y495475D01*
X312037Y495900D01*
X311591Y496275D01*
X311083Y496600D01*
X310512Y496875D01*
X309879Y497100D01*
X309182Y497275D01*
X308423Y497400D01*
X307602Y497475D01*
X306717Y497500D01*
Y502500D01*
X307602Y502525D01*
X308423Y502600D01*
X309182Y502725D01*
X309879Y502900D01*
X310512Y503125D01*
X311083Y503400D01*
X311591Y503725D01*
X312037Y504100D01*
X312419Y504525D01*
X312739Y505000D01*
Y495000D01*
D02*
G37*
G36*
X330949Y496850D02*
X330919Y496278D01*
X330969Y495698D01*
X331099Y495109D01*
X331308Y494511D01*
X331597Y493904D01*
X331965Y493288D01*
X332414Y492663D01*
X332942Y492029D01*
X333549Y491386D01*
X330014Y487850D01*
X329371Y488458D01*
X328737Y488986D01*
X328112Y489434D01*
X327496Y489803D01*
X326889Y490092D01*
X326290Y490301D01*
X325701Y490430D01*
X325121Y490480D01*
X324550Y490450D01*
X323988Y490341D01*
X331059Y497412D01*
X330949Y496850D01*
D02*
G37*
G36*
X362525Y423798D02*
X362600Y422976D01*
X362725Y422217D01*
X362900Y421521D01*
X363125Y420887D01*
X363400Y420317D01*
X363725Y419809D01*
X364100Y419363D01*
X364525Y418980D01*
X365000Y418660D01*
X355000D01*
X355475Y418980D01*
X355900Y419363D01*
X356275Y419809D01*
X356600Y420317D01*
X356875Y420887D01*
X357100Y421521D01*
X357275Y422217D01*
X357400Y422976D01*
X357475Y423798D01*
X357500Y424682D01*
X362500D01*
X362525Y423798D01*
D02*
G37*
G36*
X252930Y396962D02*
X252320Y396321D01*
X251780Y395687D01*
X251309Y395061D01*
X250908Y394443D01*
X250576Y393832D01*
X250314Y393228D01*
X250121Y392632D01*
X249998Y392043D01*
X249944Y391462D01*
X249960Y390888D01*
X244211Y399070D01*
X244731Y398876D01*
X245265Y398772D01*
X245812Y398756D01*
X246374Y398829D01*
X246949Y398991D01*
X247539Y399242D01*
X248141Y399582D01*
X248758Y400011D01*
X249389Y400530D01*
X250034Y401137D01*
X252930Y396962D01*
D02*
G37*
G36*
X267412Y380341D02*
X266850Y380450D01*
X266278Y380480D01*
X265698Y380430D01*
X265109Y380301D01*
X264511Y380092D01*
X263904Y379803D01*
X263288Y379434D01*
X262663Y378986D01*
X262029Y378458D01*
X261386Y377850D01*
X257850Y381386D01*
X258458Y382029D01*
X258986Y382663D01*
X259434Y383288D01*
X259803Y383904D01*
X260092Y384511D01*
X260301Y385109D01*
X260430Y385698D01*
X260480Y386278D01*
X260450Y386850D01*
X260341Y387412D01*
X267412Y380341D01*
D02*
G37*
G36*
X239112Y380039D02*
X238538Y380056D01*
X237957Y380002D01*
X237368Y379879D01*
X236772Y379686D01*
X236168Y379424D01*
X235557Y379092D01*
X234939Y378691D01*
X234313Y378220D01*
X233679Y377680D01*
X233038Y377070D01*
X228864Y379966D01*
X229471Y380611D01*
X229988Y381242D01*
X230418Y381858D01*
X230758Y382462D01*
X231009Y383051D01*
X231171Y383626D01*
X231244Y384188D01*
X231228Y384735D01*
X231124Y385269D01*
X230930Y385789D01*
X239112Y380039D01*
D02*
G37*
G36*
X255763Y350625D02*
X255443Y351100D01*
X255061Y351525D01*
X254615Y351900D01*
X254107Y352225D01*
X253536Y352500D01*
X252903Y352725D01*
X252206Y352900D01*
X251447Y353025D01*
X250625Y353100D01*
X249741Y353125D01*
Y358125D01*
X250625Y358150D01*
X251447Y358225D01*
X252206Y358350D01*
X252903Y358525D01*
X253536Y358750D01*
X254107Y359025D01*
X254615Y359350D01*
X255061Y359725D01*
X255443Y360150D01*
X255763Y360625D01*
Y350625D01*
D02*
G37*
G36*
X55785Y263130D02*
X55620Y262831D01*
X55475Y262330D01*
X55349Y261630D01*
X55242Y260730D01*
X55087Y258330D01*
X55000Y253230D01*
X45000D01*
X44990Y255131D01*
X44525Y262330D01*
X44380Y262831D01*
X44215Y263130D01*
X44030Y263230D01*
X55970D01*
X55785Y263130D01*
D02*
G37*
G36*
X161272Y216286D02*
X161515Y216184D01*
X161840Y216094D01*
X162248Y216016D01*
X162740Y215950D01*
X163973Y215854D01*
X166445Y215800D01*
Y205800D01*
X165538Y205794D01*
X162248Y205584D01*
X161840Y205506D01*
X161515Y205416D01*
X161272Y205314D01*
X161113Y205200D01*
Y216400D01*
X161272Y216286D01*
D02*
G37*
G36*
X206502Y217714D02*
X207340Y217312D01*
X208292Y216958D01*
X209358Y216651D01*
X210538Y216391D01*
X211832Y216178D01*
X214762Y215895D01*
X216397Y215824D01*
X218146Y215800D01*
X219075Y205800D01*
X217418Y205765D01*
X214363Y205487D01*
X212966Y205244D01*
X211657Y204932D01*
X210434Y204549D01*
X209298Y204098D01*
X208249Y203577D01*
X207287Y202986D01*
X206411Y202326D01*
X205777Y218162D01*
X206502Y217714D01*
D02*
G37*
G36*
X193589Y202326D02*
X192713Y202986D01*
X191751Y203577D01*
X190702Y204098D01*
X189566Y204549D01*
X188343Y204932D01*
X187034Y205244D01*
X185637Y205487D01*
X182582Y205765D01*
X180925Y205800D01*
X181854Y215800D01*
X183603Y215824D01*
X185238Y215895D01*
X188168Y216178D01*
X189462Y216391D01*
X190642Y216651D01*
X191708Y216958D01*
X192660Y217312D01*
X193498Y217714D01*
X194223Y218162D01*
X193589Y202326D01*
D02*
G37*
G36*
X244770Y188734D02*
X244930Y186799D01*
X245070Y185939D01*
X245250Y185151D01*
X245470Y184435D01*
X245730Y183792D01*
X246030Y183220D01*
X246370Y182719D01*
X246750Y182291D01*
X232750D01*
X233130Y182719D01*
X233470Y183220D01*
X233770Y183792D01*
X234030Y184435D01*
X234250Y185151D01*
X234430Y185939D01*
X234570Y186799D01*
X234670Y187731D01*
X234750Y189810D01*
X244750D01*
X244770Y188734D01*
D02*
G37*
G36*
X287412Y180341D02*
X286850Y180450D01*
X286278Y180480D01*
X285698Y180430D01*
X285109Y180301D01*
X284511Y180092D01*
X283904Y179803D01*
X283288Y179434D01*
X282663Y178986D01*
X282029Y178458D01*
X281386Y177850D01*
X278654Y180582D01*
Y176154D01*
X277889Y176140D01*
X276607Y176029D01*
X276090Y175931D01*
X275657Y175806D01*
X275306Y175653D01*
X275038Y175472D01*
X274853Y175264D01*
X274751Y175027D01*
X274732Y174762D01*
X274108Y182534D01*
X274174Y182272D01*
X274326Y182038D01*
X274564Y181831D01*
X274889Y181651D01*
X275300Y181499D01*
X275798Y181375D01*
X276382Y181278D01*
X277053Y181209D01*
X278061Y181175D01*
X277850Y181386D01*
X278458Y182029D01*
X278986Y182663D01*
X279434Y183288D01*
X279803Y183904D01*
X280092Y184511D01*
X280301Y185109D01*
X280430Y185698D01*
X280480Y186278D01*
X280450Y186850D01*
X280341Y187412D01*
X287412Y180341D01*
D02*
G37*
G36*
X179806Y182242D02*
X180075Y181787D01*
X180420Y181386D01*
X180843Y181038D01*
X181343Y180744D01*
X181921Y180503D01*
X182575Y180316D01*
X183306Y180182D01*
X184114Y180102D01*
X185000Y180075D01*
X183703Y175075D01*
X182818Y175055D01*
X181204Y174893D01*
X180474Y174751D01*
X179797Y174569D01*
X179172Y174346D01*
X178598Y174082D01*
X178077Y173778D01*
X177607Y173434D01*
X177189Y173049D01*
X179614Y182751D01*
X179806Y182242D01*
D02*
G37*
G36*
X206124Y170091D02*
X205524Y171038D01*
X204894Y171885D01*
X204233Y172633D01*
X203541Y173281D01*
X202819Y173829D01*
X202066Y174277D01*
X201283Y174626D01*
X200469Y174876D01*
X199625Y175025D01*
X198750Y175075D01*
X200047Y180075D01*
X200791Y180111D01*
X201581Y180219D01*
X202416Y180399D01*
X203295Y180651D01*
X204220Y180974D01*
X206205Y181838D01*
X207264Y182378D01*
X209519Y183673D01*
X206124Y170091D01*
D02*
G37*
G36*
X188946Y154592D02*
X189332Y154168D01*
X189780Y153795D01*
X190291Y153471D01*
X190864Y153197D01*
X191499Y152973D01*
X192197Y152799D01*
X192956Y152675D01*
X193778Y152600D01*
X194663Y152575D01*
X194701Y147575D01*
X193817Y147550D01*
X192996Y147475D01*
X192238Y147349D01*
X191542Y147173D01*
X190911Y146947D01*
X190342Y146671D01*
X189836Y146345D01*
X189393Y145969D01*
X189014Y145542D01*
X188697Y145065D01*
X188622Y155065D01*
X188946Y154592D01*
D02*
G37*
G36*
X207661Y143097D02*
X206773Y143947D01*
X205018Y145381D01*
X204151Y145963D01*
X203290Y146455D01*
X202436Y146859D01*
X201588Y147172D01*
X200748Y147396D01*
X199914Y147530D01*
X199087Y147575D01*
X199049Y152575D01*
X199879Y152620D01*
X200714Y152756D01*
X201554Y152982D01*
X202398Y153298D01*
X203246Y153705D01*
X204100Y154203D01*
X204957Y154790D01*
X205819Y155469D01*
X206685Y156237D01*
X207556Y157096D01*
X207661Y143097D01*
D02*
G37*
G36*
X151721Y145303D02*
X154199Y143127D01*
X154544Y142894D01*
X154840Y142729D01*
X155085Y142630D01*
X155281Y142599D01*
X147400Y134641D01*
X147367Y134831D01*
X147267Y135073D01*
X147100Y135365D01*
X146866Y135708D01*
X146564Y136101D01*
X145760Y137038D01*
X144049Y138824D01*
X151075Y145940D01*
X151721Y145303D01*
D02*
G37*
G36*
X245254Y141801D02*
X244795Y141443D01*
X244384Y141004D01*
X244021Y140487D01*
X243707Y139890D01*
X243441Y139213D01*
X243223Y138457D01*
X243054Y137622D01*
X242933Y136707D01*
X242861Y135712D01*
X242837Y134638D01*
X232837Y136925D01*
X232823Y138014D01*
X232625Y140837D01*
X232506Y141630D01*
X232188Y142992D01*
X231989Y143562D01*
X231764Y144058D01*
X231513Y144480D01*
X245254Y141801D01*
D02*
G37*
G36*
X174223Y101838D02*
X173498Y102286D01*
X172660Y102688D01*
X171708Y103042D01*
X170642Y103350D01*
X169462Y103609D01*
X168168Y103822D01*
X167085Y103906D01*
X164352Y104118D01*
X162248Y103984D01*
X161840Y103906D01*
X161515Y103816D01*
X161272Y103714D01*
X161113Y103600D01*
Y112172D01*
X160925Y114200D01*
X161113Y114208D01*
Y114800D01*
X161272Y114686D01*
X161515Y114584D01*
X161840Y114494D01*
X162248Y114416D01*
X162740Y114350D01*
X163334Y114304D01*
X164153Y114339D01*
X165637Y114513D01*
X167034Y114756D01*
X168343Y115069D01*
X169566Y115451D01*
X170702Y115902D01*
X171751Y116424D01*
X172713Y117014D01*
X173589Y117674D01*
X174223Y101838D01*
D02*
G37*
G36*
X187287Y117014D02*
X188249Y116424D01*
X189298Y115902D01*
X190434Y115451D01*
X191657Y115069D01*
X192966Y114756D01*
X194363Y114513D01*
X195847Y114339D01*
X199075Y114200D01*
X198146Y104200D01*
X196397Y104176D01*
X191832Y103822D01*
X190538Y103609D01*
X189358Y103350D01*
X188292Y103042D01*
X187340Y102688D01*
X186502Y102286D01*
X185777Y101838D01*
X186411Y117674D01*
X187287Y117014D01*
D02*
G37*
G36*
X172150Y478614D02*
X171542Y477971D01*
X171014Y477337D01*
X170566Y476712D01*
X170197Y476096D01*
X169908Y475489D01*
X169699Y474891D01*
X169570Y474302D01*
X169520Y473722D01*
X169550Y473150D01*
X169659Y472588D01*
X162588Y479659D01*
X163150Y479550D01*
X163722Y479520D01*
X164302Y479570D01*
X164891Y479699D01*
X165489Y479908D01*
X166096Y480197D01*
X166712Y480566D01*
X167337Y481014D01*
X167971Y481542D01*
X168614Y482150D01*
X172150Y478614D01*
D02*
G37*
G36*
X28980Y444525D02*
X29363Y444100D01*
X29808Y443725D01*
X30317Y443400D01*
X30887Y443125D01*
X31521Y442900D01*
X32217Y442725D01*
X32976Y442600D01*
X33798Y442525D01*
X34683Y442500D01*
Y437500D01*
X33798Y437475D01*
X32976Y437400D01*
X32217Y437275D01*
X31521Y437100D01*
X30887Y436875D01*
X30317Y436600D01*
X29808Y436275D01*
X29363Y435900D01*
X28980Y435475D01*
X28660Y435000D01*
Y445000D01*
X28980Y444525D01*
D02*
G37*
G36*
X45322Y438348D02*
X45768Y437979D01*
X46217Y437659D01*
X46670Y437387D01*
X47126Y437164D01*
X47584Y436989D01*
X48046Y436863D01*
X48511Y436785D01*
X48980Y436756D01*
X49451Y436775D01*
X44015Y430371D01*
X43961Y430840D01*
X43867Y431306D01*
X43733Y431769D01*
X43558Y432228D01*
X43343Y432683D01*
X43087Y433136D01*
X42791Y433585D01*
X42455Y434030D01*
X42079Y434472D01*
X41662Y434911D01*
X44879Y438765D01*
X45322Y438348D01*
D02*
G37*
G36*
X56017Y430266D02*
X56079Y429795D01*
X56185Y429328D01*
X56336Y428866D01*
X56530Y428406D01*
X56770Y427951D01*
X57053Y427499D01*
X57381Y427051D01*
X57754Y426606D01*
X58170Y426165D01*
X54635Y422630D01*
X54194Y423046D01*
X53749Y423419D01*
X53301Y423747D01*
X52849Y424030D01*
X52394Y424270D01*
X51934Y424464D01*
X51472Y424615D01*
X51005Y424721D01*
X50534Y424783D01*
X50060Y424800D01*
X56000Y430740D01*
X56017Y430266D01*
D02*
G37*
G36*
X56069Y385785D02*
X56370Y385620D01*
X56870Y385475D01*
X57569Y385349D01*
X58470Y385242D01*
X60869Y385087D01*
X65970Y385000D01*
Y375000D01*
X64069Y374990D01*
X56870Y374525D01*
X56370Y374380D01*
X56069Y374215D01*
X55970Y374030D01*
Y385970D01*
X56069Y385785D01*
D02*
G37*
G36*
X80645Y360568D02*
X80038Y359923D01*
X79523Y359295D01*
X79101Y358683D01*
X78771Y358088D01*
X78533Y357511D01*
X78388Y356949D01*
X78336Y356405D01*
X78376Y355877D01*
X78508Y355366D01*
X78733Y354872D01*
X70147Y359999D01*
X70715Y360023D01*
X71290Y360113D01*
X71873Y360268D01*
X72465Y360488D01*
X73064Y360773D01*
X73672Y361124D01*
X74288Y361539D01*
X74912Y362020D01*
X75544Y362567D01*
X76184Y363178D01*
X80645Y360568D01*
D02*
G37*
G36*
X408980Y404525D02*
X409363Y404100D01*
X409809Y403725D01*
X410317Y403400D01*
X410887Y403125D01*
X411521Y402900D01*
X412217Y402725D01*
X412976Y402600D01*
X413798Y402525D01*
X414682Y402500D01*
Y397500D01*
X413798Y397475D01*
X412976Y397400D01*
X412217Y397275D01*
X411521Y397100D01*
X410887Y396875D01*
X410317Y396600D01*
X409809Y396275D01*
X409363Y395900D01*
X408980Y395475D01*
X408660Y395000D01*
Y405000D01*
X408980Y404525D01*
D02*
G37*
G36*
X304525Y371020D02*
X304100Y370637D01*
X303725Y370191D01*
X303400Y369683D01*
X303125Y369113D01*
X302900Y368479D01*
X302725Y367783D01*
X302600Y367024D01*
X302525Y366202D01*
X302500Y365318D01*
X297500D01*
X297475Y366202D01*
X297400Y367024D01*
X297275Y367783D01*
X297100Y368479D01*
X296875Y369113D01*
X296600Y369683D01*
X296275Y370191D01*
X295900Y370637D01*
X295475Y371020D01*
X295000Y371340D01*
X305000D01*
X304525Y371020D01*
D02*
G37*
G36*
X110880Y349375D02*
X111263Y348950D01*
X111708Y348575D01*
X112217Y348250D01*
X112788Y347975D01*
X113421Y347750D01*
X114117Y347575D01*
X114876Y347450D01*
X115698Y347375D01*
X116582Y347350D01*
Y342350D01*
X115698Y342325D01*
X114876Y342250D01*
X114117Y342125D01*
X113421Y341950D01*
X112788Y341725D01*
X112217Y341450D01*
X111708Y341125D01*
X111263Y340750D01*
X110880Y340325D01*
X110560Y339850D01*
Y349850D01*
X110880Y349375D01*
D02*
G37*
G36*
X54633Y323877D02*
X55009Y323588D01*
X55414Y323333D01*
X55848Y323112D01*
X56310Y322925D01*
X56802Y322772D01*
X57322Y322653D01*
X57871Y322568D01*
X58448Y322517D01*
X59054Y322500D01*
Y317500D01*
X58448Y317483D01*
X57871Y317432D01*
X57322Y317347D01*
X56802Y317228D01*
X56310Y317075D01*
X55848Y316888D01*
X55414Y316667D01*
X55009Y316412D01*
X54633Y316123D01*
X54285Y315800D01*
Y324200D01*
X54633Y323877D01*
D02*
G37*
G36*
X88983Y324525D02*
X89376Y324100D01*
X89837Y323725D01*
X90367Y323400D01*
X90967Y323125D01*
X91635Y322900D01*
X92373Y322725D01*
X93180Y322600D01*
X94055Y322525D01*
X95000Y322500D01*
Y317500D01*
X94055Y317475D01*
X93180Y317400D01*
X92373Y317275D01*
X91635Y317100D01*
X90967Y316875D01*
X90367Y316600D01*
X89837Y316275D01*
X89376Y315900D01*
X88983Y315475D01*
X88660Y315000D01*
Y325000D01*
X88983Y324525D01*
D02*
G37*
G36*
X71340Y315000D02*
X71020Y315475D01*
X70637Y315900D01*
X70191Y316275D01*
X69683Y316600D01*
X69113Y316875D01*
X68479Y317100D01*
X67783Y317275D01*
X67024Y317400D01*
X66202Y317475D01*
X65318Y317500D01*
Y322500D01*
X66202Y322525D01*
X67024Y322600D01*
X67783Y322725D01*
X68479Y322900D01*
X69113Y323125D01*
X69683Y323400D01*
X70191Y323725D01*
X70637Y324100D01*
X71020Y324525D01*
X71340Y325000D01*
Y315000D01*
D02*
G37*
G36*
X88980Y284525D02*
X89363Y284100D01*
X89809Y283725D01*
X90317Y283400D01*
X90887Y283125D01*
X91521Y282900D01*
X92217Y282725D01*
X92976Y282600D01*
X93798Y282525D01*
X94682Y282500D01*
Y277500D01*
X93798Y277475D01*
X92976Y277400D01*
X92217Y277275D01*
X91521Y277100D01*
X90887Y276875D01*
X90317Y276600D01*
X89809Y276275D01*
X89363Y275900D01*
X88980Y275475D01*
X88660Y275000D01*
Y285000D01*
X88980Y284525D01*
D02*
G37*
G36*
X448980D02*
X449363Y284100D01*
X449809Y283725D01*
X450317Y283400D01*
X450887Y283125D01*
X451521Y282900D01*
X452217Y282725D01*
X452976Y282600D01*
X453798Y282525D01*
X454683Y282500D01*
Y277500D01*
X453798Y277475D01*
X452976Y277400D01*
X452217Y277275D01*
X451521Y277100D01*
X450887Y276875D01*
X450317Y276600D01*
X449809Y276275D01*
X449363Y275900D01*
X448980Y275475D01*
X448660Y275000D01*
Y285000D01*
X448980Y284525D01*
D02*
G37*
G36*
X32525Y203798D02*
X32600Y202976D01*
X32725Y202217D01*
X32900Y201521D01*
X33125Y200888D01*
X33400Y200317D01*
X33725Y199809D01*
X34100Y199363D01*
X34525Y198980D01*
X35000Y198660D01*
X25000D01*
X25475Y198980D01*
X25900Y199363D01*
X26275Y199809D01*
X26600Y200317D01*
X26875Y200888D01*
X27100Y201521D01*
X27275Y202217D01*
X27400Y202976D01*
X27475Y203798D01*
X27500Y204682D01*
X32500D01*
X32525Y203798D01*
D02*
G37*
G36*
X26493Y140635D02*
X26142Y140725D01*
X25763Y140742D01*
X25358Y140685D01*
X24926Y140554D01*
X24467Y140351D01*
X23981Y140074D01*
X23468Y139724D01*
X22928Y139300D01*
X22361Y138803D01*
X21768Y138232D01*
X18232Y141768D01*
X18803Y142361D01*
X19724Y143468D01*
X20074Y143981D01*
X20351Y144467D01*
X20554Y144926D01*
X20685Y145358D01*
X20742Y145763D01*
X20725Y146142D01*
X20635Y146493D01*
X26493Y140635D01*
D02*
G37*
G36*
X87149Y146441D02*
X87259Y145872D01*
X87432Y145295D01*
X87668Y144708D01*
X87967Y144113D01*
X88329Y143509D01*
X88753Y142896D01*
X89240Y142274D01*
X89790Y141644D01*
X90403Y141004D01*
X87969Y136367D01*
X87323Y136975D01*
X86697Y137488D01*
X86089Y137907D01*
X85500Y138231D01*
X84929Y138461D01*
X84377Y138597D01*
X83844Y138639D01*
X83330Y138586D01*
X82834Y138439D01*
X82357Y138197D01*
X87101Y147000D01*
X87149Y146441D01*
D02*
G37*
G36*
X97615Y130700D02*
X97205Y131366D01*
X96757Y131962D01*
X96271Y132488D01*
X95747Y132943D01*
X95185Y133329D01*
X94586Y133644D01*
X93949Y133889D01*
X93273Y134065D01*
X92561Y134170D01*
X91810Y134205D01*
X93258Y139205D01*
X93938Y139228D01*
X94628Y139297D01*
X95330Y139412D01*
X96044Y139573D01*
X96768Y139780D01*
X97504Y140033D01*
X99010Y140677D01*
X99780Y141069D01*
X100561Y141506D01*
X97615Y130700D01*
D02*
G37*
D56*
X181117Y485867D02*
X181500Y486250D01*
X160000Y470000D02*
X175867Y485867D01*
X181117D01*
X352431Y437569D02*
X360000Y430000D01*
X351452Y437569D02*
X352431D01*
X343500Y445521D02*
X351452Y437569D01*
X384219Y437180D02*
X415219D01*
X361677Y459723D02*
X384219Y437180D01*
X321400Y500000D02*
X361677Y459723D01*
X190000Y420000D02*
Y470000D01*
X220000Y500000D01*
X321400D01*
X360000Y410000D02*
Y430000D01*
X90000Y320000D02*
X130000D01*
X460000Y280000D02*
X470500Y269500D01*
X440000Y280000D02*
X460000D01*
X470500Y254600D02*
Y269500D01*
X301883Y519541D02*
X369541D01*
X301500Y519158D02*
X301883Y519541D01*
X369541D02*
X370000Y520000D01*
X450000Y400000D02*
X460000Y390000D01*
X400000Y400000D02*
X450000D01*
X250000Y370000D02*
X270000Y390000D01*
X250000Y370000D02*
Y370000D01*
X101900Y344850D02*
X144309D01*
X148017Y348558D01*
X148558D01*
X300000Y354000D02*
Y380000D01*
X290000Y344000D02*
X300000Y354000D01*
X180075Y150075D02*
X214675D01*
X180000Y150000D02*
X180075Y150075D01*
X214675D02*
X214750Y150150D01*
X20000Y440000D02*
X40108D01*
X49308Y430800D01*
X50000D01*
X150000Y520000D02*
X160000D01*
X200000D02*
X210000D01*
X80000Y280000D02*
X100000D01*
X20000Y140000D02*
X30000Y150000D01*
X20000Y140000D02*
Y140000D01*
X30000Y190000D02*
Y210000D01*
X235999Y355625D02*
X264424D01*
X224874Y344500D02*
X235999Y355625D01*
X80000Y363459D02*
Y364000D01*
X70000Y350000D02*
Y353459D01*
X80000Y363459D01*
X188500Y390000D02*
X200000D01*
X278654Y178654D02*
X290000Y190000D01*
X290000D01*
X268254Y178654D02*
X278654D01*
X264750Y175150D02*
X268254Y178654D01*
X91167Y136705D02*
X102495D01*
X104600Y134600D01*
X77105Y146707D02*
X81164D01*
X91167Y136705D01*
X170000Y180000D02*
X172425Y177575D01*
X212325D01*
X214750Y175150D01*
X330000Y340000D02*
Y450000D01*
X290000Y300000D02*
X330000Y340000D01*
X300000Y480000D02*
X330000Y450000D01*
X220000Y480000D02*
X300000D01*
X94991Y385809D02*
X123650D01*
X50000Y430800D02*
X94991Y385809D01*
X83377Y230945D02*
X300000Y447567D01*
Y460000D01*
X130000Y320000D02*
X140000Y330000D01*
X50000Y320000D02*
X90000D01*
D57*
X229200Y210800D02*
X239750Y200250D01*
Y175150D02*
Y200250D01*
X155400Y210800D02*
X229200D01*
X237837Y127837D02*
Y148237D01*
X219200Y109200D02*
X237837Y127837D01*
X155400Y109200D02*
X219200D01*
X237837Y148237D02*
X239750Y150150D01*
X100000Y420000D02*
Y480000D01*
X110000Y490000D01*
X90814Y372309D02*
X134142D01*
X140000Y378167D01*
X120000Y400000D02*
X134142D01*
X140000Y378167D02*
Y394142D01*
X134142Y400000D02*
X140000Y394142D01*
X100000Y420000D02*
X120000Y400000D01*
X50000Y380000D02*
X83122D01*
X90814Y372309D01*
X50000Y239944D02*
X155344Y134600D01*
X50000Y239944D02*
Y269200D01*
X155344Y134600D02*
X155400D01*
D58*
Y210800D02*
D03*
Y134600D02*
D03*
Y109200D02*
D03*
X104600Y210800D02*
D03*
Y134600D02*
D03*
D59*
Y109200D02*
D03*
D60*
X50000Y269200D02*
D03*
Y380000D02*
D03*
D61*
Y320000D02*
D03*
X24600Y294600D02*
D03*
X50000Y430800D02*
D03*
X24600Y405400D02*
D03*
D62*
X450000Y100000D02*
D03*
X50000D02*
D03*
X450000Y500000D02*
D03*
X50000D02*
D03*
D63*
X360000Y410000D02*
D03*
X70000Y350000D02*
D03*
X240000Y390000D02*
D03*
X30000Y150000D02*
D03*
Y190000D02*
D03*
X77105Y146707D02*
D03*
X80000Y320000D02*
D03*
X180000Y150000D02*
D03*
X200000Y210000D02*
D03*
X180000Y110000D02*
D03*
X20000Y440000D02*
D03*
X440000Y280000D02*
D03*
X400000Y400000D02*
D03*
X290000Y190000D02*
D03*
X380000Y80000D02*
D03*
X270000Y390000D02*
D03*
X101900Y344850D02*
D03*
X200000Y520000D02*
D03*
X80000Y280000D02*
D03*
X370000Y520000D02*
D03*
X300000Y380000D02*
D03*
X200000Y390000D02*
D03*
X170000Y180000D02*
D03*
X264424Y355625D02*
D03*
X150000Y520000D02*
D03*
X321400Y500000D02*
D03*
X160000Y470000D02*
D03*
X214750Y175150D02*
D03*
Y150150D02*
D03*
X239750Y175150D02*
D03*
X264750Y150150D02*
D03*
X239750D02*
D03*
D64*
X264750Y175150D02*
D03*
D65*
X265000Y79100D02*
D03*
X215000D02*
D03*
D66*
X181500Y486250D02*
D03*
X343500Y445521D02*
D03*
X415219Y436802D02*
D03*
X470500Y254600D02*
D03*
X301500Y519158D02*
D03*
X460000Y390000D02*
D03*
X250000Y370000D02*
D03*
X148558Y348558D02*
D03*
X290000Y344000D02*
D03*
X160000Y520000D02*
D03*
X210000D02*
D03*
X100000Y280000D02*
D03*
X20000Y140000D02*
D03*
X30000Y210000D02*
D03*
X224874Y344500D02*
D03*
X80000Y364000D02*
D03*
X188500Y390000D02*
D03*
X202074Y306456D02*
D03*
X450000Y127500D02*
D03*
X470000Y120000D02*
D03*
X477500Y100000D02*
D03*
X470000Y80000D02*
D03*
X450000Y72500D02*
D03*
X430000Y80000D02*
D03*
X422500Y100000D02*
D03*
X430000Y120000D02*
D03*
X50000Y127500D02*
D03*
X70000Y120000D02*
D03*
X77500Y100000D02*
D03*
X70000Y80000D02*
D03*
X50000Y72500D02*
D03*
X30000Y80000D02*
D03*
X22500Y100000D02*
D03*
X30000Y120000D02*
D03*
X450000Y527500D02*
D03*
X470000Y520000D02*
D03*
X477500Y500000D02*
D03*
X470000Y480000D02*
D03*
X450000Y472500D02*
D03*
X430000Y480000D02*
D03*
X422500Y500000D02*
D03*
X430000Y520000D02*
D03*
X50000Y527500D02*
D03*
X70000Y520000D02*
D03*
X77500Y500000D02*
D03*
X70000Y480000D02*
D03*
X50000Y472500D02*
D03*
X30000Y480000D02*
D03*
X22500Y500000D02*
D03*
X30000Y520000D02*
D03*
X83377Y230945D02*
D03*
X262567Y459784D02*
D03*
X221500Y420000D02*
D03*
X341000Y393017D02*
D03*
X128024Y520090D02*
D03*
X180000Y520000D02*
D03*
X361677Y459723D02*
D03*
X190000Y420000D02*
D03*
X110000Y490000D02*
D03*
X100000Y420000D02*
D03*
X290000Y300000D02*
D03*
X220000Y480000D02*
D03*
X123650Y385809D02*
D03*
X300000Y460000D02*
D03*
X140000Y330000D02*
D03*
D67*
X170000Y340000D02*
D03*
M02*
