G04*
G04 #@! TF.GenerationSoftware,Altium Limited,Altium Designer,22.11.1 (43)*
G04*
G04 Layer_Color=5220458*
%FSLAX44Y44*%
%MOMM*%
G71*
G04*
G04 #@! TF.SameCoordinates,75D7284C-96A1-4F7D-B096-18610DFFEBA5*
G04*
G04*
G04 #@! TF.FilePolarity,Positive*
G04*
G01*
G75*
G36*
X304073Y259020D02*
X304156Y258992D01*
X304267Y258853D01*
X304323Y258687D01*
Y258659D01*
Y258631D01*
Y256910D01*
X304295Y256771D01*
X304267Y256660D01*
X304212Y256605D01*
X304128Y256549D01*
X303990Y256493D01*
X302185D01*
X302046Y256521D01*
X301963Y256549D01*
X301852Y256716D01*
X301796Y256854D01*
Y256882D01*
Y256910D01*
Y258659D01*
X301824Y258798D01*
X301852Y258881D01*
X301991Y258992D01*
X302129Y259048D01*
X303934D01*
X304073Y259020D01*
D02*
G37*
G36*
X242802Y255161D02*
X242913Y255133D01*
X242968Y255050D01*
X243024Y254994D01*
X243079Y254828D01*
Y254800D01*
Y254772D01*
Y245416D01*
X243052Y245278D01*
X243024Y245167D01*
X242941Y245111D01*
X242857Y245056D01*
X242718Y245000D01*
X240969D01*
X240831Y245028D01*
X240720Y245056D01*
X240636Y245139D01*
X240581Y245222D01*
X240525Y245361D01*
Y245389D01*
Y245416D01*
Y251469D01*
X240497Y251746D01*
X240470Y251968D01*
X240386Y252190D01*
X240303Y252357D01*
X240081Y252635D01*
X239831Y252801D01*
X239581Y252912D01*
X239387Y252968D01*
X239220Y252995D01*
X238221D01*
X238027Y252940D01*
X237860Y252912D01*
X237749Y252857D01*
X237638Y252801D01*
X237582Y252773D01*
X237527Y252718D01*
X237444Y252607D01*
X237360Y252468D01*
X237277Y252163D01*
X237249Y252024D01*
Y251913D01*
Y251829D01*
Y251802D01*
Y245416D01*
X237222Y245278D01*
X237194Y245167D01*
X237111Y245111D01*
X237027Y245056D01*
X236888Y245000D01*
X235167D01*
X235028Y245028D01*
X234917Y245056D01*
X234834Y245139D01*
X234778Y245222D01*
X234723Y245361D01*
Y245389D01*
Y245416D01*
Y251913D01*
X234751Y252496D01*
X234862Y252995D01*
X235000Y253440D01*
X235223Y253801D01*
X235445Y254134D01*
X235722Y254384D01*
X236000Y254606D01*
X236278Y254772D01*
X236583Y254911D01*
X236861Y255022D01*
X237138Y255078D01*
X237360Y255133D01*
X237582Y255161D01*
X237721Y255189D01*
X238499D01*
X239026Y255133D01*
X239443Y255022D01*
X239803Y254856D01*
X240053Y254661D01*
X240248Y254439D01*
X240386Y254273D01*
X240442Y254161D01*
X240470Y254106D01*
X240525D01*
Y254772D01*
X240553Y254911D01*
X240581Y255022D01*
X240664Y255078D01*
X240747Y255133D01*
X240886Y255189D01*
X242663D01*
X242802Y255161D01*
D02*
G37*
G36*
X194412Y257798D02*
X194912Y257687D01*
X195328Y257576D01*
X195662Y257410D01*
X195939Y257271D01*
X196133Y257132D01*
X196272Y257021D01*
X196300Y256993D01*
X196578Y256660D01*
X196800Y256271D01*
X196939Y255883D01*
X197050Y255494D01*
X197105Y255133D01*
X197133Y254856D01*
X197161Y254744D01*
Y254661D01*
Y254634D01*
Y254606D01*
Y253912D01*
X197133Y253773D01*
X197077Y253662D01*
X197022Y253606D01*
X196939Y253551D01*
X196772Y253495D01*
X195023D01*
X194884Y253523D01*
X194773Y253551D01*
X194718Y253634D01*
X194662Y253717D01*
X194606Y253856D01*
Y253884D01*
Y253912D01*
Y254550D01*
Y254772D01*
X194579Y254967D01*
X194523Y255105D01*
X194468Y255244D01*
X194440Y255327D01*
X194384Y255383D01*
X194357Y255439D01*
X194246Y255522D01*
X194107Y255605D01*
X193801Y255688D01*
X193663Y255716D01*
X192524D01*
X192330Y255661D01*
X192164Y255633D01*
X192025Y255577D01*
X191914Y255522D01*
X191858Y255494D01*
X191803Y255439D01*
X191691Y255327D01*
X191636Y255189D01*
X191525Y254911D01*
Y254772D01*
X191497Y254661D01*
Y254578D01*
Y254550D01*
Y253967D01*
X191525Y253662D01*
X191636Y253356D01*
X191775Y253079D01*
X191941Y252829D01*
X192136Y252635D01*
X192274Y252496D01*
X192386Y252385D01*
X192413Y252357D01*
X196078Y249248D01*
X196411Y248942D01*
X196661Y248609D01*
X196828Y248276D01*
X196939Y247971D01*
X197022Y247721D01*
X197050Y247499D01*
X197077Y247360D01*
Y247304D01*
Y245416D01*
X197050Y245278D01*
X197022Y245167D01*
X196939Y245111D01*
X196855Y245056D01*
X196716Y245000D01*
X189443D01*
X189304Y245028D01*
X189193Y245056D01*
X189137Y245139D01*
X189082Y245222D01*
X189026Y245361D01*
Y245389D01*
Y245416D01*
Y246805D01*
X189054Y246943D01*
X189082Y247054D01*
X189165Y247110D01*
X189221Y247165D01*
X189387Y247221D01*
X194218D01*
Y247554D01*
X194190Y247721D01*
X194107Y247887D01*
X194023Y247998D01*
X193996Y248026D01*
X190220Y251219D01*
X189998Y251413D01*
X189831Y251635D01*
X189526Y252052D01*
X189304Y252496D01*
X189165Y252885D01*
X189082Y253245D01*
X189054Y253551D01*
X189026Y253662D01*
Y253745D01*
Y253773D01*
Y253801D01*
Y254606D01*
X189054Y255161D01*
X189165Y255633D01*
X189304Y256049D01*
X189443Y256383D01*
X189609Y256660D01*
X189748Y256827D01*
X189859Y256966D01*
X189887Y256993D01*
X190248Y257271D01*
X190637Y257465D01*
X191025Y257632D01*
X191442Y257715D01*
X191775Y257771D01*
X192080Y257826D01*
X193857D01*
X194412Y257798D01*
D02*
G37*
G36*
X173840D02*
X174340Y257687D01*
X174757Y257576D01*
X175090Y257410D01*
X175367Y257271D01*
X175562Y257132D01*
X175700Y257021D01*
X175728Y256993D01*
X176006Y256660D01*
X176228Y256271D01*
X176367Y255883D01*
X176478Y255494D01*
X176533Y255133D01*
X176561Y254856D01*
X176589Y254744D01*
Y254661D01*
Y254634D01*
Y254606D01*
Y253912D01*
X176561Y253773D01*
X176506Y253662D01*
X176450Y253606D01*
X176367Y253551D01*
X176200Y253495D01*
X174451D01*
X174312Y253523D01*
X174201Y253551D01*
X174146Y253634D01*
X174090Y253717D01*
X174035Y253856D01*
Y253884D01*
Y253912D01*
Y254550D01*
Y254772D01*
X174007Y254967D01*
X173951Y255105D01*
X173896Y255244D01*
X173868Y255327D01*
X173813Y255383D01*
X173785Y255439D01*
X173674Y255522D01*
X173535Y255605D01*
X173230Y255688D01*
X173091Y255716D01*
X171953D01*
X171758Y255661D01*
X171592Y255633D01*
X171453Y255577D01*
X171342Y255522D01*
X171286Y255494D01*
X171231Y255439D01*
X171120Y255327D01*
X171064Y255189D01*
X170953Y254911D01*
Y254772D01*
X170925Y254661D01*
Y254578D01*
Y254550D01*
Y253967D01*
X170953Y253662D01*
X171064Y253356D01*
X171203Y253079D01*
X171370Y252829D01*
X171564Y252635D01*
X171703Y252496D01*
X171814Y252385D01*
X171842Y252357D01*
X175506Y249248D01*
X175839Y248942D01*
X176089Y248609D01*
X176256Y248276D01*
X176367Y247971D01*
X176450Y247721D01*
X176478Y247499D01*
X176506Y247360D01*
Y247304D01*
Y245416D01*
X176478Y245278D01*
X176450Y245167D01*
X176367Y245111D01*
X176283Y245056D01*
X176145Y245000D01*
X168871D01*
X168732Y245028D01*
X168621Y245056D01*
X168566Y245139D01*
X168510Y245222D01*
X168455Y245361D01*
Y245389D01*
Y245416D01*
Y246805D01*
X168482Y246943D01*
X168510Y247054D01*
X168593Y247110D01*
X168649Y247165D01*
X168815Y247221D01*
X173646D01*
Y247554D01*
X173618Y247721D01*
X173535Y247887D01*
X173452Y247998D01*
X173424Y248026D01*
X169648Y251219D01*
X169426Y251413D01*
X169260Y251635D01*
X168954Y252052D01*
X168732Y252496D01*
X168593Y252885D01*
X168510Y253245D01*
X168482Y253551D01*
X168455Y253662D01*
Y253745D01*
Y253773D01*
Y253801D01*
Y254606D01*
X168482Y255161D01*
X168593Y255633D01*
X168732Y256049D01*
X168871Y256383D01*
X169038Y256660D01*
X169176Y256827D01*
X169287Y256966D01*
X169315Y256993D01*
X169676Y257271D01*
X170065Y257465D01*
X170453Y257632D01*
X170870Y257715D01*
X171203Y257771D01*
X171508Y257826D01*
X173285D01*
X173840Y257798D01*
D02*
G37*
G36*
X163985D02*
X164485Y257687D01*
X164901Y257576D01*
X165234Y257410D01*
X165512Y257271D01*
X165706Y257132D01*
X165845Y257021D01*
X165873Y256993D01*
X166150Y256660D01*
X166372Y256271D01*
X166511Y255883D01*
X166622Y255494D01*
X166678Y255133D01*
X166705Y254856D01*
X166733Y254744D01*
Y254661D01*
Y254634D01*
Y254606D01*
Y253912D01*
X166705Y253773D01*
X166650Y253662D01*
X166595Y253606D01*
X166511Y253551D01*
X166345Y253495D01*
X164596D01*
X164457Y253523D01*
X164346Y253551D01*
X164290Y253634D01*
X164235Y253717D01*
X164179Y253856D01*
Y253884D01*
Y253912D01*
Y254550D01*
Y254772D01*
X164151Y254967D01*
X164096Y255105D01*
X164040Y255244D01*
X164013Y255327D01*
X163957Y255383D01*
X163929Y255439D01*
X163818Y255522D01*
X163680Y255605D01*
X163374Y255688D01*
X163235Y255716D01*
X162097D01*
X161903Y255661D01*
X161736Y255633D01*
X161597Y255577D01*
X161486Y255522D01*
X161431Y255494D01*
X161375Y255439D01*
X161264Y255327D01*
X161209Y255189D01*
X161098Y254911D01*
Y254772D01*
X161070Y254661D01*
Y254578D01*
Y254550D01*
Y253967D01*
X161098Y253662D01*
X161209Y253356D01*
X161347Y253079D01*
X161514Y252829D01*
X161708Y252635D01*
X161847Y252496D01*
X161958Y252385D01*
X161986Y252357D01*
X165651Y249248D01*
X165984Y248942D01*
X166234Y248609D01*
X166400Y248276D01*
X166511Y247971D01*
X166595Y247721D01*
X166622Y247499D01*
X166650Y247360D01*
Y247304D01*
Y245416D01*
X166622Y245278D01*
X166595Y245167D01*
X166511Y245111D01*
X166428Y245056D01*
X166289Y245000D01*
X159015D01*
X158877Y245028D01*
X158765Y245056D01*
X158710Y245139D01*
X158654Y245222D01*
X158599Y245361D01*
Y245389D01*
Y245416D01*
Y246805D01*
X158627Y246943D01*
X158654Y247054D01*
X158738Y247110D01*
X158793Y247165D01*
X158960Y247221D01*
X163790D01*
Y247554D01*
X163763Y247721D01*
X163680Y247887D01*
X163596Y247998D01*
X163568Y248026D01*
X159793Y251219D01*
X159571Y251413D01*
X159404Y251635D01*
X159099Y252052D01*
X158877Y252496D01*
X158738Y252885D01*
X158654Y253245D01*
X158627Y253551D01*
X158599Y253662D01*
Y253745D01*
Y253773D01*
Y253801D01*
Y254606D01*
X158627Y255161D01*
X158738Y255633D01*
X158877Y256049D01*
X159015Y256383D01*
X159182Y256660D01*
X159321Y256827D01*
X159432Y256966D01*
X159460Y256993D01*
X159820Y257271D01*
X160209Y257465D01*
X160598Y257632D01*
X161014Y257715D01*
X161347Y257771D01*
X161653Y257826D01*
X163430D01*
X163985Y257798D01*
D02*
G37*
G36*
X207572Y252357D02*
X207682Y252329D01*
X207738Y252246D01*
X207794Y252163D01*
X207849Y252024D01*
Y251968D01*
Y251940D01*
Y250774D01*
X207821Y250636D01*
X207794Y250525D01*
X207710Y250441D01*
X207627Y250386D01*
X207488Y250330D01*
X203629D01*
X203490Y250358D01*
X203379Y250414D01*
X203324Y250469D01*
X203268Y250552D01*
X203213Y250719D01*
Y250747D01*
Y250774D01*
Y251940D01*
X203241Y252079D01*
X203268Y252190D01*
X203352Y252274D01*
X203407Y252329D01*
X203574Y252385D01*
X207433D01*
X207572Y252357D01*
D02*
G37*
G36*
X314373Y255161D02*
X314456Y255133D01*
X314512Y255050D01*
X314539Y254994D01*
Y254828D01*
Y254800D01*
Y254772D01*
X312041Y245416D01*
X311985Y245278D01*
X311902Y245167D01*
X311791Y245111D01*
X311707Y245056D01*
X311541Y245000D01*
X308959D01*
X308792Y245028D01*
X308681Y245056D01*
X308570Y245139D01*
X308515Y245222D01*
X308432Y245361D01*
X308404Y245389D01*
Y245416D01*
X305877Y254772D01*
X305850Y254911D01*
X305877Y255022D01*
X305933Y255078D01*
X305989Y255133D01*
X306127Y255189D01*
X307960D01*
X308098Y255161D01*
X308209Y255133D01*
X308376Y254994D01*
X308432Y254828D01*
X308459Y254800D01*
Y254772D01*
X310125Y247249D01*
X310264D01*
X311985Y254772D01*
X312041Y254911D01*
X312096Y255022D01*
X312180Y255078D01*
X312263Y255133D01*
X312402Y255189D01*
X314234D01*
X314373Y255161D01*
D02*
G37*
G36*
X334722Y257798D02*
X334833Y257771D01*
X334889Y257687D01*
X334944Y257632D01*
X335000Y257465D01*
Y257437D01*
Y257410D01*
Y245416D01*
X334972Y245278D01*
X334944Y245167D01*
X334861Y245111D01*
X334778Y245056D01*
X334639Y245000D01*
X329642D01*
X329087Y245028D01*
X328615Y245139D01*
X328198Y245278D01*
X327837Y245416D01*
X327588Y245583D01*
X327393Y245694D01*
X327254Y245805D01*
X327227Y245833D01*
X326921Y246194D01*
X326699Y246582D01*
X326560Y246971D01*
X326449Y247360D01*
X326394Y247721D01*
X326338Y247998D01*
Y248109D01*
Y248193D01*
Y248220D01*
Y248248D01*
Y254578D01*
X326366Y255133D01*
X326477Y255605D01*
X326616Y256022D01*
X326782Y256355D01*
X326949Y256632D01*
X327088Y256799D01*
X327199Y256938D01*
X327227Y256966D01*
X327588Y257243D01*
X327976Y257465D01*
X328365Y257604D01*
X328754Y257715D01*
X329114Y257771D01*
X329392Y257826D01*
X334584D01*
X334722Y257798D01*
D02*
G37*
G36*
X321591Y255161D02*
X322091Y255050D01*
X322507Y254911D01*
X322840Y254772D01*
X323118Y254606D01*
X323312Y254467D01*
X323451Y254356D01*
X323479Y254328D01*
X323756Y253995D01*
X323978Y253606D01*
X324117Y253190D01*
X324228Y252801D01*
X324284Y252468D01*
X324311Y252163D01*
X324339Y252052D01*
Y251996D01*
Y251940D01*
Y251913D01*
Y248248D01*
X324311Y247693D01*
X324201Y247193D01*
X324062Y246777D01*
X323895Y246444D01*
X323756Y246194D01*
X323618Y245999D01*
X323506Y245861D01*
X323479Y245833D01*
X323118Y245555D01*
X322729Y245361D01*
X322340Y245194D01*
X321924Y245111D01*
X321591Y245056D01*
X321286Y245028D01*
X321174Y245000D01*
X320564D01*
X320120Y245028D01*
X319925Y245083D01*
X319758Y245139D01*
X319592Y245167D01*
X319481Y245222D01*
X319425Y245250D01*
X319398D01*
X319203Y245361D01*
X319037Y245500D01*
X318898Y245639D01*
X318787Y245750D01*
X318704Y245861D01*
X318648Y245972D01*
X318592Y246027D01*
Y246055D01*
X318537D01*
Y245416D01*
X318509Y245278D01*
X318454Y245167D01*
X318398Y245111D01*
X318315Y245056D01*
X318148Y245000D01*
X316427D01*
X316288Y245028D01*
X316177Y245056D01*
X316094Y245139D01*
X316038Y245222D01*
X315983Y245361D01*
Y245389D01*
Y245416D01*
Y254772D01*
X316011Y254911D01*
X316038Y255022D01*
X316122Y255078D01*
X316205Y255133D01*
X316344Y255189D01*
X321036D01*
X321591Y255161D01*
D02*
G37*
G36*
X304073D02*
X304156Y255133D01*
X304267Y254994D01*
X304323Y254828D01*
Y254800D01*
Y254772D01*
Y245416D01*
X304295Y245278D01*
X304267Y245167D01*
X304184Y245111D01*
X304101Y245056D01*
X303962Y245000D01*
X302046D01*
X301935Y245028D01*
X301907Y245056D01*
X301880D01*
X301824Y245139D01*
X301796Y245278D01*
Y245361D01*
Y245416D01*
Y254772D01*
X301824Y254911D01*
X301852Y255022D01*
X301935Y255078D01*
X301991Y255133D01*
X302157Y255189D01*
X303934D01*
X304073Y255161D01*
D02*
G37*
G36*
X293440Y259020D02*
X293551Y258992D01*
X293607Y258909D01*
X293662Y258853D01*
X293718Y258687D01*
Y258659D01*
Y258631D01*
Y254106D01*
X293801D01*
X293884Y254300D01*
X294023Y254467D01*
X294273Y254717D01*
X294384Y254800D01*
X294495Y254856D01*
X294550Y254911D01*
X294578D01*
X294995Y255078D01*
X295356Y255161D01*
X295522Y255189D01*
X296577D01*
X297105Y255161D01*
X297577Y255050D01*
X297993Y254911D01*
X298326Y254772D01*
X298576Y254606D01*
X298770Y254467D01*
X298881Y254356D01*
X298909Y254328D01*
X299159Y253995D01*
X299353Y253606D01*
X299492Y253190D01*
X299575Y252801D01*
X299631Y252468D01*
X299687Y252163D01*
Y252052D01*
Y251996D01*
Y251940D01*
Y251913D01*
Y248248D01*
X299659Y247693D01*
X299575Y247193D01*
X299437Y246777D01*
X299298Y246444D01*
X299159Y246194D01*
X299020Y245999D01*
X298937Y245861D01*
X298909Y245833D01*
X298576Y245555D01*
X298215Y245361D01*
X297826Y245194D01*
X297438Y245111D01*
X297105Y245056D01*
X296827Y245028D01*
X296716Y245000D01*
X295744D01*
X295300Y245028D01*
X295106Y245083D01*
X294939Y245139D01*
X294773Y245167D01*
X294662Y245222D01*
X294606Y245250D01*
X294578D01*
X294384Y245361D01*
X294217Y245500D01*
X294079Y245639D01*
X293967Y245750D01*
X293912Y245861D01*
X293856Y245972D01*
X293801Y246027D01*
Y246055D01*
X293718D01*
Y245416D01*
X293690Y245278D01*
X293662Y245167D01*
X293579Y245111D01*
X293496Y245056D01*
X293357Y245000D01*
X291580D01*
X291441Y245028D01*
X291330Y245056D01*
X291275Y245139D01*
X291219Y245222D01*
X291164Y245361D01*
Y245389D01*
Y245416D01*
Y258631D01*
X291191Y258770D01*
X291219Y258881D01*
X291302Y258937D01*
X291358Y258992D01*
X291524Y259048D01*
X293301D01*
X293440Y259020D01*
D02*
G37*
G36*
X284112Y257798D02*
X284223Y257771D01*
X284279Y257687D01*
X284334Y257632D01*
X284389Y257465D01*
Y257437D01*
Y257410D01*
Y245416D01*
X284362Y245278D01*
X284334Y245167D01*
X284251Y245111D01*
X284167Y245056D01*
X284029Y245000D01*
X282252D01*
X282113Y245028D01*
X282002Y245056D01*
X281946Y245139D01*
X281891Y245222D01*
X281835Y245361D01*
Y245389D01*
Y245416D01*
Y249498D01*
X281808Y249636D01*
X281724Y249692D01*
X281641Y249720D01*
X280253D01*
X278254Y245416D01*
X278171Y245250D01*
X278088Y245139D01*
X278032Y245083D01*
X278004Y245056D01*
X277838Y245028D01*
X277671Y245000D01*
X275867D01*
X275700Y245028D01*
X275589Y245083D01*
X275533Y245139D01*
X275506Y245250D01*
Y245389D01*
X275533Y245444D01*
Y245472D01*
X277671Y249914D01*
Y249997D01*
X277366Y250164D01*
X277088Y250330D01*
X276838Y250552D01*
X276644Y250774D01*
X276477Y251024D01*
X276339Y251274D01*
X276116Y251774D01*
X275978Y252246D01*
X275950Y252440D01*
X275922Y252635D01*
X275894Y252773D01*
Y252885D01*
Y252968D01*
Y252995D01*
Y254550D01*
X275922Y255105D01*
X276033Y255605D01*
X276172Y256022D01*
X276339Y256355D01*
X276505Y256632D01*
X276644Y256799D01*
X276755Y256938D01*
X276783Y256966D01*
X277144Y257243D01*
X277532Y257465D01*
X277921Y257604D01*
X278310Y257715D01*
X278671Y257771D01*
X278948Y257826D01*
X283973D01*
X284112Y257798D01*
D02*
G37*
G36*
X271091Y255161D02*
X271591Y255050D01*
X272008Y254911D01*
X272341Y254772D01*
X272618Y254606D01*
X272813Y254467D01*
X272952Y254356D01*
X272979Y254328D01*
X273257Y253995D01*
X273479Y253606D01*
X273618Y253190D01*
X273729Y252801D01*
X273784Y252468D01*
X273812Y252163D01*
X273840Y252052D01*
Y251996D01*
Y251940D01*
Y251913D01*
Y248248D01*
X273812Y247693D01*
X273701Y247193D01*
X273562Y246777D01*
X273396Y246444D01*
X273257Y246194D01*
X273118Y245999D01*
X273007Y245861D01*
X272979Y245833D01*
X272618Y245555D01*
X272230Y245361D01*
X271841Y245194D01*
X271425Y245111D01*
X271091Y245056D01*
X270786Y245028D01*
X270675Y245000D01*
X266122D01*
X265983Y245028D01*
X265872Y245056D01*
X265844Y245083D01*
X265817D01*
X265761Y245167D01*
X265706Y245278D01*
Y245361D01*
Y245389D01*
Y246693D01*
X265733Y246832D01*
X265761Y246943D01*
X265844Y247027D01*
X265900Y247082D01*
X266066Y247138D01*
X270397D01*
X270592Y247193D01*
X270758Y247221D01*
X270869Y247276D01*
X270980Y247332D01*
X271036Y247360D01*
X271064Y247415D01*
X271091D01*
X271175Y247526D01*
X271230Y247665D01*
X271313Y247971D01*
Y248109D01*
X271341Y248193D01*
Y248276D01*
Y248304D01*
Y248748D01*
X271313Y248887D01*
X271203Y248942D01*
X271119Y248970D01*
X266094D01*
X265955Y248998D01*
X265844Y249025D01*
X265789Y249109D01*
X265733Y249192D01*
X265678Y249331D01*
Y249359D01*
Y249386D01*
Y251913D01*
X265706Y252468D01*
X265817Y252968D01*
X265955Y253384D01*
X266094Y253717D01*
X266261Y253995D01*
X266400Y254161D01*
X266511Y254300D01*
X266538Y254328D01*
X266899Y254606D01*
X267288Y254828D01*
X267677Y254967D01*
X268065Y255078D01*
X268426Y255133D01*
X268704Y255189D01*
X270536D01*
X271091Y255161D01*
D02*
G37*
G36*
X257710Y259020D02*
X257821Y258992D01*
X257877Y258909D01*
X257932Y258853D01*
X257988Y258687D01*
Y258659D01*
Y258631D01*
Y254106D01*
X258071D01*
X258154Y254300D01*
X258293Y254467D01*
X258543Y254717D01*
X258654Y254800D01*
X258765Y254856D01*
X258820Y254911D01*
X258848D01*
X259265Y255078D01*
X259626Y255161D01*
X259792Y255189D01*
X260847D01*
X261375Y255161D01*
X261847Y255050D01*
X262263Y254911D01*
X262596Y254772D01*
X262846Y254606D01*
X263040Y254467D01*
X263151Y254356D01*
X263179Y254328D01*
X263429Y253995D01*
X263623Y253606D01*
X263762Y253190D01*
X263846Y252801D01*
X263901Y252468D01*
X263957Y252163D01*
Y252052D01*
Y251996D01*
Y251940D01*
Y251913D01*
Y248248D01*
X263929Y247693D01*
X263846Y247193D01*
X263707Y246777D01*
X263568Y246444D01*
X263429Y246194D01*
X263290Y245999D01*
X263207Y245861D01*
X263179Y245833D01*
X262846Y245555D01*
X262485Y245361D01*
X262097Y245194D01*
X261708Y245111D01*
X261375Y245056D01*
X261097Y245028D01*
X260986Y245000D01*
X260014D01*
X259570Y245028D01*
X259376Y245083D01*
X259209Y245139D01*
X259043Y245167D01*
X258932Y245222D01*
X258876Y245250D01*
X258848D01*
X258654Y245361D01*
X258487Y245500D01*
X258349Y245639D01*
X258237Y245750D01*
X258182Y245861D01*
X258127Y245972D01*
X258071Y246027D01*
Y246055D01*
X257988D01*
Y245416D01*
X257960Y245278D01*
X257932Y245167D01*
X257849Y245111D01*
X257766Y245056D01*
X257627Y245000D01*
X255850D01*
X255711Y245028D01*
X255600Y245056D01*
X255545Y245139D01*
X255489Y245222D01*
X255434Y245361D01*
Y245389D01*
Y245416D01*
Y258631D01*
X255461Y258770D01*
X255489Y258881D01*
X255572Y258937D01*
X255628Y258992D01*
X255794Y259048D01*
X257571D01*
X257710Y259020D01*
D02*
G37*
G36*
X250686Y255161D02*
X251186Y255050D01*
X251602Y254911D01*
X251936Y254772D01*
X252213Y254606D01*
X252407Y254467D01*
X252546Y254356D01*
X252574Y254328D01*
X252852Y253995D01*
X253074Y253606D01*
X253213Y253190D01*
X253324Y252801D01*
X253379Y252468D01*
X253407Y252163D01*
X253435Y252052D01*
Y251996D01*
Y251940D01*
Y251913D01*
Y248248D01*
X253407Y247693D01*
X253296Y247193D01*
X253157Y246777D01*
X252990Y246444D01*
X252852Y246194D01*
X252713Y245999D01*
X252602Y245861D01*
X252574Y245833D01*
X252213Y245555D01*
X251824Y245361D01*
X251436Y245194D01*
X251019Y245111D01*
X250686Y245056D01*
X250381Y245028D01*
X250270Y245000D01*
X248354D01*
X247799Y245028D01*
X247327Y245139D01*
X246910Y245278D01*
X246550Y245416D01*
X246300Y245583D01*
X246105Y245694D01*
X245967Y245805D01*
X245939Y245833D01*
X245634Y246194D01*
X245411Y246582D01*
X245273Y246971D01*
X245161Y247360D01*
X245106Y247721D01*
X245051Y247998D01*
Y248109D01*
Y248193D01*
Y248220D01*
Y248248D01*
Y251913D01*
X245078Y252468D01*
X245189Y252968D01*
X245328Y253384D01*
X245495Y253717D01*
X245661Y253995D01*
X245800Y254161D01*
X245911Y254300D01*
X245939Y254328D01*
X246300Y254606D01*
X246688Y254828D01*
X247077Y254967D01*
X247466Y255078D01*
X247827Y255133D01*
X248104Y255189D01*
X250131D01*
X250686Y255161D01*
D02*
G37*
G36*
X226561Y259020D02*
X226672Y258992D01*
X226727Y258909D01*
X226783Y258853D01*
X226838Y258687D01*
Y258659D01*
Y258631D01*
Y254106D01*
X226922D01*
X227005Y254300D01*
X227144Y254467D01*
X227394Y254717D01*
X227505Y254800D01*
X227616Y254856D01*
X227671Y254911D01*
X227699D01*
X228116Y255078D01*
X228476Y255161D01*
X228643Y255189D01*
X229698D01*
X230225Y255161D01*
X230697Y255050D01*
X231114Y254911D01*
X231447Y254772D01*
X231697Y254606D01*
X231891Y254467D01*
X232002Y254356D01*
X232030Y254328D01*
X232280Y253995D01*
X232474Y253606D01*
X232613Y253190D01*
X232696Y252801D01*
X232752Y252468D01*
X232807Y252163D01*
Y252052D01*
Y251996D01*
Y251940D01*
Y251913D01*
Y248248D01*
X232780Y247693D01*
X232696Y247193D01*
X232558Y246777D01*
X232419Y246444D01*
X232280Y246194D01*
X232141Y245999D01*
X232058Y245861D01*
X232030Y245833D01*
X231697Y245555D01*
X231336Y245361D01*
X230947Y245194D01*
X230559Y245111D01*
X230225Y245056D01*
X229948Y245028D01*
X229837Y245000D01*
X228865D01*
X228421Y245028D01*
X228227Y245083D01*
X228060Y245139D01*
X227893Y245167D01*
X227782Y245222D01*
X227727Y245250D01*
X227699D01*
X227505Y245361D01*
X227338Y245500D01*
X227199Y245639D01*
X227088Y245750D01*
X227033Y245861D01*
X226977Y245972D01*
X226922Y246027D01*
Y246055D01*
X226838D01*
Y245416D01*
X226811Y245278D01*
X226783Y245167D01*
X226700Y245111D01*
X226616Y245056D01*
X226478Y245000D01*
X224701D01*
X224562Y245028D01*
X224451Y245056D01*
X224395Y245139D01*
X224340Y245222D01*
X224284Y245361D01*
Y245389D01*
Y245416D01*
Y258631D01*
X224312Y258770D01*
X224340Y258881D01*
X224423Y258937D01*
X224479Y258992D01*
X224645Y259048D01*
X226422D01*
X226561Y259020D01*
D02*
G37*
G36*
X219537Y255161D02*
X220037Y255050D01*
X220453Y254911D01*
X220786Y254772D01*
X221064Y254606D01*
X221258Y254467D01*
X221397Y254356D01*
X221425Y254328D01*
X221702Y253995D01*
X221924Y253606D01*
X222063Y253190D01*
X222174Y252801D01*
X222230Y252468D01*
X222258Y252163D01*
X222285Y252052D01*
Y251996D01*
Y251940D01*
Y251913D01*
Y248248D01*
X222258Y247693D01*
X222147Y247193D01*
X222008Y246777D01*
X221841Y246444D01*
X221702Y246194D01*
X221564Y245999D01*
X221453Y245861D01*
X221425Y245833D01*
X221064Y245555D01*
X220675Y245361D01*
X220287Y245194D01*
X219870Y245111D01*
X219537Y245056D01*
X219232Y245028D01*
X219121Y245000D01*
X217205D01*
X216650Y245028D01*
X216178Y245139D01*
X215761Y245278D01*
X215400Y245416D01*
X215151Y245583D01*
X214956Y245694D01*
X214817Y245805D01*
X214790Y245833D01*
X214484Y246194D01*
X214262Y246582D01*
X214123Y246971D01*
X214012Y247360D01*
X213957Y247721D01*
X213901Y247998D01*
Y248109D01*
Y248193D01*
Y248220D01*
Y248248D01*
Y251913D01*
X213929Y252468D01*
X214040Y252968D01*
X214179Y253384D01*
X214345Y253717D01*
X214512Y253995D01*
X214651Y254161D01*
X214762Y254300D01*
X214790Y254328D01*
X215151Y254606D01*
X215539Y254828D01*
X215928Y254967D01*
X216317Y255078D01*
X216677Y255133D01*
X216955Y255189D01*
X218982D01*
X219537Y255161D01*
D02*
G37*
G36*
X184362Y257798D02*
X184834Y257687D01*
X185251Y257576D01*
X185584Y257410D01*
X185861Y257271D01*
X186056Y257132D01*
X186195Y257021D01*
X186222Y256993D01*
X186500Y256660D01*
X186722Y256271D01*
X186861Y255855D01*
X186972Y255466D01*
X187027Y255133D01*
X187055Y254828D01*
X187083Y254717D01*
Y254661D01*
Y254606D01*
Y254578D01*
Y248248D01*
X187055Y247693D01*
X186944Y247193D01*
X186805Y246777D01*
X186639Y246444D01*
X186500Y246194D01*
X186361Y245999D01*
X186250Y245861D01*
X186222Y245833D01*
X185861Y245555D01*
X185473Y245361D01*
X185084Y245194D01*
X184695Y245111D01*
X184335Y245056D01*
X184057Y245028D01*
X183946Y245000D01*
X181808D01*
X181253Y245028D01*
X180753Y245139D01*
X180337Y245278D01*
X180004Y245416D01*
X179726Y245583D01*
X179532Y245694D01*
X179393Y245805D01*
X179365Y245833D01*
X179088Y246194D01*
X178865Y246582D01*
X178727Y246971D01*
X178615Y247360D01*
X178560Y247721D01*
X178505Y247998D01*
Y248109D01*
Y248193D01*
Y248220D01*
Y248248D01*
Y254578D01*
X178532Y255133D01*
X178643Y255605D01*
X178782Y256022D01*
X178921Y256355D01*
X179088Y256632D01*
X179226Y256799D01*
X179337Y256938D01*
X179365Y256966D01*
X179726Y257243D01*
X180115Y257465D01*
X180503Y257604D01*
X180920Y257715D01*
X181253Y257771D01*
X181558Y257826D01*
X183807D01*
X184362Y257798D01*
D02*
G37*
G36*
X348611Y339027D02*
X349167Y338888D01*
X349445Y338471D01*
X349722Y338194D01*
X350000Y337360D01*
Y337221D01*
Y337083D01*
Y277083D01*
X349861Y276389D01*
X349722Y275833D01*
X349306Y275556D01*
X348889Y275278D01*
X348195Y275000D01*
X322917D01*
X320139Y275139D01*
X317639Y275694D01*
X315556Y276389D01*
X313889Y277083D01*
X312500Y277917D01*
X311528Y278472D01*
X310834Y279028D01*
X310695Y279167D01*
X309306Y280833D01*
X308195Y282778D01*
X307500Y284722D01*
X306945Y286667D01*
X306667Y288472D01*
X306389Y289861D01*
Y290417D01*
Y290833D01*
Y290972D01*
Y291111D01*
Y297083D01*
X306528Y298889D01*
X306806Y300416D01*
X307223Y301666D01*
X307639Y302777D01*
X308056Y303611D01*
X308473Y304305D01*
X308750Y304583D01*
X308889Y304722D01*
X309862Y305555D01*
X310834Y306388D01*
X311945Y306944D01*
X312917Y307361D01*
X313889Y307638D01*
X314584Y307777D01*
X315139Y307916D01*
X315278D01*
X313889Y308472D01*
X312639Y309166D01*
X311667Y309861D01*
X310695Y310694D01*
X309862Y311527D01*
X309306Y312500D01*
X308334Y314305D01*
X307778Y316111D01*
X307500Y317500D01*
X307362Y318055D01*
Y318472D01*
Y318750D01*
Y318888D01*
Y323055D01*
X307500Y325833D01*
X308056Y328194D01*
X308750Y330277D01*
X309445Y331944D01*
X310278Y333333D01*
X310973Y334166D01*
X311528Y334860D01*
X311667Y334999D01*
X313473Y336388D01*
X315417Y337360D01*
X317362Y338194D01*
X319445Y338610D01*
X321111Y338888D01*
X322639Y339166D01*
X347917D01*
X348611Y339027D01*
D02*
G37*
G36*
X282223D02*
X284723Y338471D01*
X286806Y337777D01*
X288612Y337083D01*
X290001Y336249D01*
X290973Y335555D01*
X291528Y334999D01*
X291806Y334860D01*
X293195Y333194D01*
X294306Y331249D01*
X295001Y329166D01*
X295556Y327222D01*
X295834Y325555D01*
X295973Y324027D01*
X296112Y323472D01*
Y323194D01*
Y322916D01*
Y322777D01*
Y319305D01*
X295973Y317083D01*
X295695Y315138D01*
X295417Y313472D01*
X294862Y311944D01*
X294445Y310833D01*
X294167Y309861D01*
X293890Y309305D01*
X293751Y309166D01*
X292778Y307777D01*
X291806Y306666D01*
X290834Y305833D01*
X290001Y305138D01*
X289167Y304583D01*
X288473Y304166D01*
X288056Y304027D01*
X287917Y303888D01*
X285279Y302916D01*
X284029Y302639D01*
X282917Y302222D01*
X281806Y301944D01*
X281112Y301805D01*
X280556Y301666D01*
X280417D01*
X277501Y301111D01*
X276112Y300972D01*
X275001Y300833D01*
X274029Y300694D01*
X273334Y300555D01*
X272779D01*
X270418Y300139D01*
X269445Y299861D01*
X268612Y299444D01*
X267918Y299166D01*
X267362Y298889D01*
X267084Y298750D01*
X266945Y298611D01*
X266112Y297916D01*
X265557Y297222D01*
X265140Y296528D01*
X264862Y295833D01*
X264723Y295139D01*
X264584Y294583D01*
Y294305D01*
Y294166D01*
Y293055D01*
Y291666D01*
X264862Y290417D01*
X265001Y289444D01*
X265279Y288611D01*
X265557Y288055D01*
X265834Y287639D01*
X265973Y287500D01*
X266112Y287361D01*
X266807Y286944D01*
X267640Y286528D01*
X269445Y286111D01*
X270279D01*
X270973Y285972D01*
X277640Y285972D01*
X278751Y286250D01*
X279723Y286389D01*
X280556Y286667D01*
X281112Y286944D01*
X281529Y287083D01*
X281667Y287361D01*
X281806D01*
X282362Y287917D01*
X282640Y288750D01*
X283195Y290417D01*
Y291250D01*
X283334Y291944D01*
Y292361D01*
Y292500D01*
Y293333D01*
X283473Y294028D01*
X283612Y294583D01*
X284029Y294861D01*
X284306Y295139D01*
X285140Y295416D01*
X293890D01*
X294584Y295278D01*
X295140Y295139D01*
X295417Y294722D01*
X295695Y294444D01*
X295973Y293611D01*
Y293472D01*
Y293333D01*
Y291389D01*
X295834Y288611D01*
X295278Y286111D01*
X294584Y284028D01*
X293751Y282361D01*
X293056Y280972D01*
X292362Y280000D01*
X291806Y279305D01*
X291667Y279167D01*
X289862Y277778D01*
X287917Y276805D01*
X285834Y275972D01*
X283890Y275556D01*
X282084Y275278D01*
X280695Y275139D01*
X280140Y275000D01*
X268473Y275000D01*
X265695Y275139D01*
X263334Y275694D01*
X261251Y276389D01*
X259446Y277083D01*
X258196Y277917D01*
X257223Y278472D01*
X256529Y279028D01*
X256390Y279167D01*
X254862Y280972D01*
X253751Y282917D01*
X253057Y284861D01*
X252501Y286944D01*
X252223Y288611D01*
X251946Y290139D01*
Y290694D01*
Y291111D01*
Y291250D01*
Y291389D01*
Y294722D01*
X252085Y296805D01*
X252362Y298750D01*
X252640Y300416D01*
X253057Y301944D01*
X253612Y303055D01*
X253890Y303888D01*
X254168Y304444D01*
X254307Y304583D01*
X255279Y305972D01*
X256251Y307083D01*
X257223Y308055D01*
X258057Y308750D01*
X258890Y309305D01*
X259584Y309722D01*
X260001Y310000D01*
X260140D01*
X262640Y310972D01*
X265279Y311666D01*
X267779Y312222D01*
X270140Y312638D01*
X272084Y312916D01*
X273751Y313194D01*
X274307D01*
X274723Y313333D01*
X275140D01*
X276529Y313472D01*
X277779Y313750D01*
X278890Y314027D01*
X279862Y314444D01*
X280695Y314861D01*
X281390Y315416D01*
X282362Y316250D01*
X282917Y317222D01*
X283195Y318055D01*
X283334Y318611D01*
Y318750D01*
Y320694D01*
Y322222D01*
X283056Y323472D01*
X282917Y324583D01*
X282640Y325416D01*
X282362Y325972D01*
X282223Y326388D01*
X281945Y326527D01*
Y326666D01*
X281251Y327222D01*
X280417Y327499D01*
X278612Y328055D01*
X277779D01*
X277084Y328194D01*
X271112D01*
X270001Y327916D01*
X269029Y327777D01*
X268334Y327499D01*
X267779Y327222D01*
X267362Y327083D01*
X267084Y326805D01*
X266529Y326249D01*
X266251Y325416D01*
X265695Y323610D01*
Y322777D01*
X265557Y322222D01*
Y321666D01*
Y321527D01*
Y320972D01*
X265418Y320277D01*
X265140Y319722D01*
X264862Y319444D01*
X264445Y319166D01*
X263612Y318888D01*
X254862D01*
X254168Y319027D01*
X253612Y319166D01*
X253335Y319583D01*
X253057Y319999D01*
X252779Y320694D01*
Y320833D01*
Y320972D01*
Y322777D01*
X252918Y325555D01*
X253473Y328055D01*
X254168Y330138D01*
X255001Y331805D01*
X255835Y333194D01*
X256529Y334027D01*
X257085Y334721D01*
X257223Y334860D01*
X259029Y336249D01*
X260973Y337360D01*
X263057Y338055D01*
X265001Y338610D01*
X266807Y338888D01*
X268195Y339166D01*
X279445Y339166D01*
X282223Y339027D01*
D02*
G37*
G36*
X239168Y339027D02*
X239724Y338888D01*
X240001Y338471D01*
X240279Y338194D01*
X240557Y337360D01*
Y337221D01*
Y337083D01*
Y277083D01*
X240418Y276389D01*
X240279Y275833D01*
X239862Y275555D01*
X239446Y275278D01*
X238751Y275000D01*
X229863D01*
X229168Y275139D01*
X228613Y275278D01*
X228335Y275694D01*
X228057Y276111D01*
X227779Y276805D01*
Y276944D01*
Y277083D01*
Y295972D01*
X227640Y296666D01*
X227224Y296944D01*
X226807Y297083D01*
X214029D01*
X211252Y297222D01*
X208891Y297778D01*
X206807Y298472D01*
X205002Y299166D01*
X203752Y300000D01*
X202780Y300555D01*
X202085Y301111D01*
X201946Y301250D01*
X200557Y303055D01*
X199446Y305000D01*
X198752Y306944D01*
X198196Y308888D01*
X197918Y310694D01*
X197641Y312083D01*
Y312638D01*
Y313055D01*
Y313194D01*
Y313333D01*
Y322916D01*
X197780Y325694D01*
X198335Y328055D01*
X199030Y330138D01*
X199724Y331805D01*
X200557Y333194D01*
X201252Y334027D01*
X201807Y334721D01*
X201946Y334860D01*
X203752Y336249D01*
X205696Y337360D01*
X207641Y338055D01*
X209585Y338610D01*
X211391Y338888D01*
X212780Y339166D01*
X238474D01*
X239168Y339027D01*
D02*
G37*
G36*
X186113D02*
X186669Y338888D01*
X186946Y338471D01*
X187224Y338194D01*
X187502Y337360D01*
Y337221D01*
Y337083D01*
Y277083D01*
X187363Y276389D01*
X187224Y275833D01*
X186808Y275555D01*
X186391Y275278D01*
X185697Y275000D01*
X160697D01*
X157919Y275139D01*
X155558Y275694D01*
X153475Y276389D01*
X151669Y277083D01*
X150419Y277917D01*
X149447Y278472D01*
X148752Y279028D01*
X148614Y279167D01*
X147086Y280972D01*
X145975Y282917D01*
X145280Y284861D01*
X144725Y286805D01*
X144447Y288611D01*
X144169Y290000D01*
Y290555D01*
Y290972D01*
Y291111D01*
Y291250D01*
Y322916D01*
X144308Y325694D01*
X144864Y328055D01*
X145558Y330138D01*
X146391Y331805D01*
X147225Y333194D01*
X147919Y334027D01*
X148475Y334721D01*
X148614Y334860D01*
X150419Y336249D01*
X152364Y337360D01*
X154308Y338055D01*
X156252Y338610D01*
X158058Y338888D01*
X159447Y339166D01*
X185419D01*
X186113Y339027D01*
D02*
G37*
G36*
X359708Y432605D02*
X359958Y432550D01*
X360166Y432494D01*
X360332Y432411D01*
X360471Y432342D01*
X360568Y432272D01*
X360637Y432217D01*
X360651Y432203D01*
X360790Y432037D01*
X360901Y431843D01*
X360970Y431648D01*
X361026Y431454D01*
X361053Y431274D01*
X361067Y431135D01*
X361081Y431080D01*
Y431038D01*
Y431024D01*
Y431011D01*
Y430664D01*
X361067Y430594D01*
X361039Y430539D01*
X361012Y430511D01*
X360970Y430484D01*
X360887Y430456D01*
X360013D01*
X359944Y430470D01*
X359888Y430484D01*
X359861Y430525D01*
X359833Y430567D01*
X359805Y430636D01*
Y430650D01*
Y430664D01*
Y430983D01*
Y431094D01*
X359791Y431191D01*
X359763Y431260D01*
X359736Y431329D01*
X359722Y431371D01*
X359694Y431399D01*
X359680Y431427D01*
X359625Y431468D01*
X359556Y431510D01*
X359403Y431551D01*
X359334Y431565D01*
X358765D01*
X358668Y431538D01*
X358585Y431524D01*
X358515Y431496D01*
X358460Y431468D01*
X358432Y431454D01*
X358404Y431427D01*
X358349Y431371D01*
X358321Y431302D01*
X358266Y431163D01*
Y431094D01*
X358252Y431038D01*
Y430997D01*
Y430983D01*
Y430691D01*
X358266Y430539D01*
X358321Y430386D01*
X358391Y430248D01*
X358474Y430123D01*
X358571Y430026D01*
X358640Y429957D01*
X358696Y429901D01*
X358709Y429887D01*
X360540Y428334D01*
X360707Y428181D01*
X360831Y428015D01*
X360915Y427849D01*
X360970Y427696D01*
X361012Y427571D01*
X361026Y427460D01*
X361039Y427391D01*
Y427363D01*
Y426420D01*
X361026Y426351D01*
X361012Y426295D01*
X360970Y426268D01*
X360928Y426240D01*
X360859Y426212D01*
X357226D01*
X357156Y426226D01*
X357101Y426240D01*
X357073Y426281D01*
X357045Y426323D01*
X357018Y426392D01*
Y426406D01*
Y426420D01*
Y427113D01*
X357031Y427183D01*
X357045Y427238D01*
X357087Y427266D01*
X357115Y427294D01*
X357198Y427322D01*
X359611D01*
Y427488D01*
X359597Y427571D01*
X359556Y427654D01*
X359514Y427710D01*
X359500Y427724D01*
X357614Y429319D01*
X357503Y429416D01*
X357420Y429526D01*
X357267Y429735D01*
X357156Y429957D01*
X357087Y430151D01*
X357045Y430331D01*
X357031Y430484D01*
X357018Y430539D01*
Y430580D01*
Y430594D01*
Y430608D01*
Y431011D01*
X357031Y431288D01*
X357087Y431524D01*
X357156Y431732D01*
X357226Y431898D01*
X357309Y432037D01*
X357378Y432120D01*
X357434Y432189D01*
X357448Y432203D01*
X357628Y432342D01*
X357822Y432439D01*
X358016Y432522D01*
X358224Y432564D01*
X358391Y432592D01*
X358543Y432619D01*
X359431D01*
X359708Y432605D01*
D02*
G37*
G36*
X370969D02*
X371025Y432592D01*
X371052Y432550D01*
X371080Y432522D01*
X371108Y432439D01*
Y432425D01*
Y432411D01*
Y431732D01*
X371094Y431662D01*
X371080Y431607D01*
X371039Y431579D01*
X370997Y431551D01*
X370928Y431524D01*
X369763D01*
X369693Y431510D01*
X369666Y431468D01*
X369652Y431427D01*
Y431413D01*
Y426420D01*
X369638Y426351D01*
X369610Y426295D01*
X369582Y426268D01*
X369541Y426240D01*
X369458Y426212D01*
X368584D01*
X368515Y426226D01*
X368459Y426240D01*
X368431Y426281D01*
X368404Y426323D01*
X368376Y426392D01*
Y426406D01*
Y426420D01*
Y431413D01*
X368362Y431482D01*
X368320Y431510D01*
X368279Y431524D01*
X367128D01*
X367058Y431538D01*
X367003Y431551D01*
X366961Y431593D01*
X366934Y431634D01*
X366906Y431704D01*
Y431718D01*
Y431732D01*
Y432411D01*
X366920Y432481D01*
X366934Y432536D01*
X366975Y432564D01*
X367017Y432592D01*
X367086Y432619D01*
X370900D01*
X370969Y432605D01*
D02*
G37*
G36*
X366018D02*
X366074Y432592D01*
X366101Y432550D01*
X366129Y432522D01*
X366157Y432439D01*
Y432425D01*
Y432411D01*
Y426420D01*
X366143Y426351D01*
X366129Y426295D01*
X366087Y426268D01*
X366046Y426240D01*
X365977Y426212D01*
X365089D01*
X365020Y426226D01*
X364964Y426240D01*
X364936Y426281D01*
X364909Y426323D01*
X364881Y426392D01*
Y426406D01*
Y426420D01*
Y428306D01*
X364867Y428376D01*
X364826Y428403D01*
X364784Y428417D01*
X363508D01*
X363231Y428431D01*
X362995Y428486D01*
X362787Y428556D01*
X362607Y428625D01*
X362482Y428708D01*
X362385Y428764D01*
X362315Y428819D01*
X362301Y428833D01*
X362163Y429013D01*
X362052Y429208D01*
X361982Y429402D01*
X361927Y429596D01*
X361899Y429776D01*
X361871Y429915D01*
Y429970D01*
Y430012D01*
Y430026D01*
Y430040D01*
Y430997D01*
X361885Y431274D01*
X361941Y431510D01*
X362010Y431718D01*
X362080Y431884D01*
X362163Y432023D01*
X362232Y432106D01*
X362288Y432175D01*
X362301Y432189D01*
X362482Y432328D01*
X362676Y432439D01*
X362870Y432508D01*
X363064Y432564D01*
X363245Y432592D01*
X363383Y432619D01*
X365949D01*
X366018Y432605D01*
D02*
G37*
G36*
X356255D02*
X356310Y432592D01*
X356338Y432550D01*
X356366Y432522D01*
X356394Y432439D01*
Y432425D01*
Y432411D01*
Y431676D01*
X356380Y431607D01*
X356366Y431551D01*
X356324Y431524D01*
X356283Y431496D01*
X356213Y431468D01*
X353828D01*
X355936Y426420D01*
X355964Y426351D01*
Y426295D01*
Y426268D01*
Y426254D01*
X355922Y426226D01*
X355880Y426212D01*
X354896D01*
X354799Y426226D01*
X354729Y426240D01*
X354674Y426268D01*
X354618Y426309D01*
X354563Y426365D01*
X354549Y426378D01*
Y426392D01*
X352621Y431038D01*
X352538Y431260D01*
X352510Y431357D01*
X352496Y431440D01*
X352483Y431496D01*
Y431538D01*
Y431565D01*
Y431579D01*
Y432411D01*
X352496Y432481D01*
X352510Y432536D01*
X352552Y432564D01*
X352580Y432592D01*
X352663Y432619D01*
X356185D01*
X356255Y432605D01*
D02*
G37*
G36*
X73958Y169207D02*
X74208Y169152D01*
X74416Y169096D01*
X74582Y169013D01*
X74721Y168944D01*
X74818Y168874D01*
X74887Y168819D01*
X74901Y168805D01*
X75040Y168639D01*
X75151Y168445D01*
X75220Y168250D01*
X75276Y168056D01*
X75303Y167876D01*
X75317Y167737D01*
X75331Y167682D01*
Y167640D01*
Y167626D01*
Y167612D01*
Y167266D01*
X75317Y167196D01*
X75289Y167141D01*
X75262Y167113D01*
X75220Y167085D01*
X75137Y167058D01*
X74263D01*
X74194Y167072D01*
X74138Y167085D01*
X74111Y167127D01*
X74083Y167169D01*
X74055Y167238D01*
Y167252D01*
Y167266D01*
Y167585D01*
Y167696D01*
X74041Y167793D01*
X74014Y167862D01*
X73986Y167931D01*
X73972Y167973D01*
X73944Y168001D01*
X73930Y168029D01*
X73875Y168070D01*
X73805Y168112D01*
X73653Y168153D01*
X73584Y168167D01*
X73015D01*
X72918Y168139D01*
X72835Y168126D01*
X72765Y168098D01*
X72710Y168070D01*
X72682Y168056D01*
X72654Y168029D01*
X72599Y167973D01*
X72571Y167904D01*
X72516Y167765D01*
Y167696D01*
X72502Y167640D01*
Y167599D01*
Y167585D01*
Y167293D01*
X72516Y167141D01*
X72571Y166988D01*
X72641Y166850D01*
X72724Y166725D01*
X72821Y166628D01*
X72890Y166558D01*
X72946Y166503D01*
X72959Y166489D01*
X74790Y164936D01*
X74957Y164783D01*
X75081Y164617D01*
X75165Y164450D01*
X75220Y164298D01*
X75262Y164173D01*
X75276Y164062D01*
X75289Y163993D01*
Y163965D01*
Y163022D01*
X75276Y162953D01*
X75262Y162897D01*
X75220Y162869D01*
X75178Y162842D01*
X75109Y162814D01*
X71476D01*
X71406Y162828D01*
X71351Y162842D01*
X71323Y162883D01*
X71295Y162925D01*
X71268Y162994D01*
Y163008D01*
Y163022D01*
Y163715D01*
X71281Y163785D01*
X71295Y163840D01*
X71337Y163868D01*
X71365Y163896D01*
X71448Y163923D01*
X73861D01*
Y164090D01*
X73847Y164173D01*
X73805Y164256D01*
X73764Y164312D01*
X73750Y164326D01*
X71864Y165921D01*
X71753Y166018D01*
X71670Y166129D01*
X71517Y166337D01*
X71406Y166558D01*
X71337Y166753D01*
X71295Y166933D01*
X71281Y167085D01*
X71268Y167141D01*
Y167183D01*
Y167196D01*
Y167210D01*
Y167612D01*
X71281Y167890D01*
X71337Y168126D01*
X71406Y168334D01*
X71476Y168500D01*
X71559Y168639D01*
X71628Y168722D01*
X71684Y168791D01*
X71698Y168805D01*
X71878Y168944D01*
X72072Y169041D01*
X72266Y169124D01*
X72474Y169166D01*
X72641Y169193D01*
X72793Y169221D01*
X73681D01*
X73958Y169207D01*
D02*
G37*
G36*
X85219D02*
X85275Y169193D01*
X85302Y169152D01*
X85330Y169124D01*
X85358Y169041D01*
Y169027D01*
Y169013D01*
Y168334D01*
X85344Y168264D01*
X85330Y168209D01*
X85288Y168181D01*
X85247Y168153D01*
X85178Y168126D01*
X84013D01*
X83943Y168112D01*
X83916Y168070D01*
X83902Y168029D01*
Y168015D01*
Y163022D01*
X83888Y162953D01*
X83860Y162897D01*
X83832Y162869D01*
X83791Y162842D01*
X83708Y162814D01*
X82834D01*
X82765Y162828D01*
X82709Y162842D01*
X82681Y162883D01*
X82654Y162925D01*
X82626Y162994D01*
Y163008D01*
Y163022D01*
Y168015D01*
X82612Y168084D01*
X82570Y168112D01*
X82529Y168126D01*
X81378D01*
X81308Y168139D01*
X81253Y168153D01*
X81211Y168195D01*
X81184Y168237D01*
X81156Y168306D01*
Y168320D01*
Y168334D01*
Y169013D01*
X81170Y169083D01*
X81184Y169138D01*
X81225Y169166D01*
X81267Y169193D01*
X81336Y169221D01*
X85150D01*
X85219Y169207D01*
D02*
G37*
G36*
X80268D02*
X80324Y169193D01*
X80351Y169152D01*
X80379Y169124D01*
X80407Y169041D01*
Y169027D01*
Y169013D01*
Y163022D01*
X80393Y162953D01*
X80379Y162897D01*
X80337Y162869D01*
X80296Y162842D01*
X80227Y162814D01*
X79339D01*
X79270Y162828D01*
X79214Y162842D01*
X79186Y162883D01*
X79159Y162925D01*
X79131Y162994D01*
Y163008D01*
Y163022D01*
Y164908D01*
X79117Y164977D01*
X79075Y165005D01*
X79034Y165019D01*
X77758D01*
X77481Y165033D01*
X77245Y165088D01*
X77037Y165158D01*
X76856Y165227D01*
X76732Y165310D01*
X76635Y165366D01*
X76565Y165421D01*
X76551Y165435D01*
X76413Y165615D01*
X76302Y165810D01*
X76233Y166004D01*
X76177Y166198D01*
X76149Y166378D01*
X76122Y166517D01*
Y166572D01*
Y166614D01*
Y166628D01*
Y166642D01*
Y167599D01*
X76135Y167876D01*
X76191Y168112D01*
X76260Y168320D01*
X76329Y168486D01*
X76413Y168625D01*
X76482Y168708D01*
X76538Y168777D01*
X76551Y168791D01*
X76732Y168930D01*
X76926Y169041D01*
X77120Y169110D01*
X77314Y169166D01*
X77495Y169193D01*
X77633Y169221D01*
X80199D01*
X80268Y169207D01*
D02*
G37*
G36*
X68938D02*
X69187Y169152D01*
X69395Y169096D01*
X69562Y169013D01*
X69700Y168944D01*
X69798Y168874D01*
X69867Y168819D01*
X69881Y168805D01*
X70019Y168639D01*
X70130Y168445D01*
X70200Y168237D01*
X70255Y168042D01*
X70283Y167876D01*
X70297Y167723D01*
X70311Y167668D01*
Y167640D01*
Y167612D01*
Y167599D01*
Y164437D01*
X70297Y164159D01*
X70241Y163910D01*
X70172Y163702D01*
X70089Y163535D01*
X70019Y163410D01*
X69950Y163313D01*
X69895Y163244D01*
X69881Y163230D01*
X69700Y163091D01*
X69506Y162994D01*
X69312Y162911D01*
X69104Y162869D01*
X68938Y162842D01*
X68785Y162828D01*
X68730Y162814D01*
X67689D01*
X67412Y162828D01*
X67162Y162883D01*
X66954Y162953D01*
X66788Y163022D01*
X66649Y163105D01*
X66552Y163161D01*
X66483Y163216D01*
X66469Y163230D01*
X66330Y163396D01*
X66220Y163591D01*
X66150Y163799D01*
X66095Y163993D01*
X66067Y164159D01*
X66039Y164312D01*
Y164367D01*
Y164409D01*
Y164423D01*
Y164437D01*
Y165241D01*
X66053Y165518D01*
X66108Y165768D01*
X66178Y165976D01*
X66247Y166142D01*
X66330Y166281D01*
X66400Y166364D01*
X66455Y166434D01*
X66469Y166448D01*
X66649Y166586D01*
X66844Y166697D01*
X67038Y166766D01*
X67246Y166822D01*
X67412Y166850D01*
X67565Y166877D01*
X69049D01*
Y167543D01*
Y167654D01*
X69021Y167751D01*
X69007Y167820D01*
X68979Y167890D01*
X68952Y167931D01*
X68938Y167959D01*
X68910Y167987D01*
X68854Y168029D01*
X68785Y168070D01*
X68633Y168112D01*
X68563Y168126D01*
X66622D01*
X66552Y168139D01*
X66497Y168153D01*
X66469Y168195D01*
X66441Y168237D01*
X66414Y168306D01*
Y168320D01*
Y168334D01*
Y169013D01*
X66427Y169083D01*
X66441Y169138D01*
X66483Y169166D01*
X66511Y169193D01*
X66594Y169221D01*
X68660D01*
X68938Y169207D01*
D02*
G37*
G36*
X26714Y172509D02*
X26964Y172454D01*
X27172Y172398D01*
X27338Y172315D01*
X27477Y172246D01*
X27574Y172176D01*
X27643Y172121D01*
X27657Y172107D01*
X27796Y171941D01*
X27907Y171747D01*
X27976Y171552D01*
X28031Y171358D01*
X28059Y171178D01*
X28073Y171039D01*
X28087Y170984D01*
Y170942D01*
Y170928D01*
Y170914D01*
Y170568D01*
X28073Y170498D01*
X28045Y170443D01*
X28018Y170415D01*
X27976Y170387D01*
X27893Y170360D01*
X27019D01*
X26950Y170374D01*
X26894Y170387D01*
X26867Y170429D01*
X26839Y170471D01*
X26811Y170540D01*
Y170554D01*
Y170568D01*
Y170887D01*
Y170998D01*
X26797Y171095D01*
X26769Y171164D01*
X26742Y171233D01*
X26728Y171275D01*
X26700Y171303D01*
X26686Y171331D01*
X26631Y171372D01*
X26562Y171414D01*
X26409Y171455D01*
X26340Y171469D01*
X25771D01*
X25674Y171441D01*
X25591Y171428D01*
X25521Y171400D01*
X25466Y171372D01*
X25438Y171358D01*
X25410Y171331D01*
X25355Y171275D01*
X25327Y171206D01*
X25272Y171067D01*
Y170998D01*
X25258Y170942D01*
Y170901D01*
Y170887D01*
Y170595D01*
X25272Y170443D01*
X25327Y170290D01*
X25396Y170152D01*
X25480Y170027D01*
X25577Y169930D01*
X25646Y169860D01*
X25702Y169805D01*
X25715Y169791D01*
X27546Y168238D01*
X27713Y168085D01*
X27837Y167919D01*
X27921Y167752D01*
X27976Y167600D01*
X28018Y167475D01*
X28031Y167364D01*
X28045Y167295D01*
Y167267D01*
Y166324D01*
X28031Y166255D01*
X28018Y166199D01*
X27976Y166171D01*
X27935Y166144D01*
X27865Y166116D01*
X24232D01*
X24162Y166130D01*
X24107Y166144D01*
X24079Y166185D01*
X24051Y166227D01*
X24024Y166296D01*
Y166310D01*
Y166324D01*
Y167017D01*
X24037Y167087D01*
X24051Y167142D01*
X24093Y167170D01*
X24121Y167198D01*
X24204Y167225D01*
X26617D01*
Y167392D01*
X26603Y167475D01*
X26562Y167558D01*
X26520Y167614D01*
X26506Y167628D01*
X24620Y169223D01*
X24509Y169320D01*
X24426Y169431D01*
X24273Y169639D01*
X24162Y169860D01*
X24093Y170055D01*
X24051Y170235D01*
X24037Y170387D01*
X24024Y170443D01*
Y170485D01*
Y170498D01*
Y170512D01*
Y170914D01*
X24037Y171192D01*
X24093Y171428D01*
X24162Y171636D01*
X24232Y171802D01*
X24315Y171941D01*
X24384Y172024D01*
X24440Y172093D01*
X24453Y172107D01*
X24634Y172246D01*
X24828Y172343D01*
X25022Y172426D01*
X25230Y172468D01*
X25396Y172495D01*
X25549Y172523D01*
X26437D01*
X26714Y172509D01*
D02*
G37*
G36*
X22900D02*
X22956Y172495D01*
X22997Y172454D01*
X23025Y172426D01*
X23053Y172343D01*
Y172329D01*
Y172315D01*
Y169153D01*
X23039Y169084D01*
X23011Y169042D01*
X22942Y168987D01*
X22859Y168959D01*
X22013D01*
X21957Y168973D01*
X21902Y168987D01*
X21805Y169070D01*
X21749Y169139D01*
X21721Y169153D01*
Y169167D01*
X21666Y169236D01*
X21597Y169292D01*
X21541Y169320D01*
X21472Y169347D01*
X21416Y169361D01*
X21375Y169375D01*
X20737D01*
X20626Y169347D01*
X20529Y169333D01*
X20459Y169306D01*
X20418Y169278D01*
X20376Y169250D01*
X20348Y169236D01*
Y169223D01*
X20293Y169153D01*
X20265Y169070D01*
X20210Y168876D01*
Y168779D01*
X20196Y168709D01*
Y168654D01*
Y168640D01*
Y167752D01*
Y167642D01*
X20224Y167544D01*
X20238Y167461D01*
X20265Y167406D01*
X20293Y167350D01*
X20321Y167323D01*
X20335Y167309D01*
X20348Y167295D01*
X20418Y167253D01*
X20487Y167225D01*
X20640Y167184D01*
X20709D01*
X20765Y167170D01*
X21402D01*
X21486Y167184D01*
X21569Y167212D01*
X21624Y167239D01*
X21680Y167253D01*
X21708Y167281D01*
X21735Y167295D01*
X21777Y167350D01*
X21818Y167420D01*
X21860Y167572D01*
Y167642D01*
X21874Y167697D01*
Y167739D01*
Y167752D01*
Y167933D01*
X21888Y168002D01*
X21902Y168058D01*
X21943Y168099D01*
X21971Y168127D01*
X22054Y168155D01*
X22928D01*
X22997Y168141D01*
X23053Y168127D01*
X23080Y168085D01*
X23108Y168044D01*
X23136Y167974D01*
Y167947D01*
Y167933D01*
Y167739D01*
X23122Y167461D01*
X23067Y167212D01*
X22997Y167004D01*
X22914Y166837D01*
X22845Y166712D01*
X22775Y166615D01*
X22720Y166546D01*
X22706Y166532D01*
X22526Y166393D01*
X22332Y166296D01*
X22137Y166213D01*
X21929Y166171D01*
X21763Y166144D01*
X21611Y166130D01*
X21555Y166116D01*
X20612D01*
X20335Y166130D01*
X20099Y166185D01*
X19891Y166255D01*
X19711Y166324D01*
X19586Y166407D01*
X19489Y166463D01*
X19419Y166518D01*
X19405Y166532D01*
X19267Y166712D01*
X19156Y166907D01*
X19086Y167101D01*
X19031Y167295D01*
X19003Y167475D01*
X18975Y167614D01*
Y167669D01*
Y167711D01*
Y167725D01*
Y167739D01*
Y168834D01*
X18989Y169112D01*
X19045Y169347D01*
X19114Y169555D01*
X19211Y169736D01*
X19336Y169888D01*
X19461Y170013D01*
X19600Y170110D01*
X19738Y170193D01*
X19891Y170263D01*
X20029Y170304D01*
X20154Y170346D01*
X20279Y170360D01*
X20376Y170374D01*
X20445Y170387D01*
X20945D01*
X21167Y170360D01*
X21361Y170304D01*
X21500Y170235D01*
X21611Y170138D01*
X21694Y170041D01*
X21735Y169971D01*
X21763Y169916D01*
X21777Y169888D01*
Y171358D01*
X19364D01*
X19294Y171372D01*
X19239Y171386D01*
X19211Y171428D01*
X19183Y171469D01*
X19156Y171539D01*
Y171552D01*
Y171566D01*
Y172315D01*
X19170Y172384D01*
X19183Y172440D01*
X19225Y172468D01*
X19253Y172495D01*
X19336Y172523D01*
X22831D01*
X22900Y172509D01*
D02*
G37*
G36*
X37975D02*
X38031Y172495D01*
X38058Y172454D01*
X38086Y172426D01*
X38114Y172343D01*
Y172329D01*
Y172315D01*
Y171636D01*
X38100Y171566D01*
X38086Y171511D01*
X38045Y171483D01*
X38003Y171455D01*
X37934Y171428D01*
X36769D01*
X36699Y171414D01*
X36672Y171372D01*
X36658Y171331D01*
Y171317D01*
Y166324D01*
X36644Y166255D01*
X36616Y166199D01*
X36588Y166171D01*
X36547Y166144D01*
X36463Y166116D01*
X35590D01*
X35521Y166130D01*
X35465Y166144D01*
X35437Y166185D01*
X35410Y166227D01*
X35382Y166296D01*
Y166310D01*
Y166324D01*
Y171317D01*
X35368Y171386D01*
X35326Y171414D01*
X35285Y171428D01*
X34134D01*
X34064Y171441D01*
X34009Y171455D01*
X33967Y171497D01*
X33939Y171539D01*
X33912Y171608D01*
Y171622D01*
Y171636D01*
Y172315D01*
X33926Y172384D01*
X33939Y172440D01*
X33981Y172468D01*
X34023Y172495D01*
X34092Y172523D01*
X37906D01*
X37975Y172509D01*
D02*
G37*
G36*
X33024D02*
X33080Y172495D01*
X33107Y172454D01*
X33135Y172426D01*
X33163Y172343D01*
Y172329D01*
Y172315D01*
Y166324D01*
X33149Y166255D01*
X33135Y166199D01*
X33094Y166171D01*
X33052Y166144D01*
X32983Y166116D01*
X32095D01*
X32026Y166130D01*
X31970Y166144D01*
X31942Y166185D01*
X31915Y166227D01*
X31887Y166296D01*
Y166310D01*
Y166324D01*
Y168210D01*
X31873Y168279D01*
X31832Y168307D01*
X31790Y168321D01*
X30514D01*
X30237Y168335D01*
X30001Y168390D01*
X29793Y168460D01*
X29613Y168529D01*
X29488Y168612D01*
X29391Y168668D01*
X29321Y168723D01*
X29307Y168737D01*
X29169Y168917D01*
X29058Y169112D01*
X28988Y169306D01*
X28933Y169500D01*
X28905Y169680D01*
X28877Y169819D01*
Y169874D01*
Y169916D01*
Y169930D01*
Y169944D01*
Y170901D01*
X28891Y171178D01*
X28947Y171414D01*
X29016Y171622D01*
X29086Y171788D01*
X29169Y171927D01*
X29238Y172010D01*
X29294Y172079D01*
X29307Y172093D01*
X29488Y172232D01*
X29682Y172343D01*
X29876Y172412D01*
X30070Y172468D01*
X30250Y172495D01*
X30389Y172523D01*
X32955D01*
X33024Y172509D01*
D02*
G37*
G36*
X27476Y212387D02*
X27726Y212332D01*
X27934Y212276D01*
X28100Y212193D01*
X28239Y212124D01*
X28336Y212055D01*
X28405Y211999D01*
X28419Y211985D01*
X28558Y211819D01*
X28669Y211625D01*
X28738Y211430D01*
X28793Y211236D01*
X28821Y211056D01*
X28835Y210917D01*
X28849Y210862D01*
Y210820D01*
Y210806D01*
Y210793D01*
Y210446D01*
X28835Y210376D01*
X28807Y210321D01*
X28780Y210293D01*
X28738Y210266D01*
X28655Y210238D01*
X27781D01*
X27712Y210252D01*
X27656Y210266D01*
X27629Y210307D01*
X27601Y210349D01*
X27573Y210418D01*
Y210432D01*
Y210446D01*
Y210765D01*
Y210876D01*
X27559Y210973D01*
X27531Y211042D01*
X27504Y211111D01*
X27490Y211153D01*
X27462Y211181D01*
X27448Y211208D01*
X27393Y211250D01*
X27324Y211292D01*
X27171Y211333D01*
X27102Y211347D01*
X26533D01*
X26436Y211320D01*
X26353Y211306D01*
X26283Y211278D01*
X26228Y211250D01*
X26200Y211236D01*
X26172Y211208D01*
X26117Y211153D01*
X26089Y211084D01*
X26034Y210945D01*
Y210876D01*
X26020Y210820D01*
Y210779D01*
Y210765D01*
Y210473D01*
X26034Y210321D01*
X26089Y210168D01*
X26158Y210030D01*
X26242Y209905D01*
X26339Y209808D01*
X26408Y209739D01*
X26464Y209683D01*
X26477Y209669D01*
X28308Y208116D01*
X28475Y207963D01*
X28599Y207797D01*
X28683Y207631D01*
X28738Y207478D01*
X28780Y207353D01*
X28793Y207242D01*
X28807Y207173D01*
Y207145D01*
Y206202D01*
X28793Y206133D01*
X28780Y206077D01*
X28738Y206049D01*
X28696Y206022D01*
X28627Y205994D01*
X24994D01*
X24924Y206008D01*
X24869Y206022D01*
X24841Y206063D01*
X24813Y206105D01*
X24786Y206174D01*
Y206188D01*
Y206202D01*
Y206895D01*
X24799Y206965D01*
X24813Y207020D01*
X24855Y207048D01*
X24883Y207076D01*
X24966Y207104D01*
X27379D01*
Y207270D01*
X27365Y207353D01*
X27324Y207436D01*
X27282Y207492D01*
X27268Y207506D01*
X25382Y209100D01*
X25271Y209198D01*
X25188Y209308D01*
X25035Y209517D01*
X24924Y209739D01*
X24855Y209933D01*
X24813Y210113D01*
X24799Y210266D01*
X24786Y210321D01*
Y210362D01*
Y210376D01*
Y210390D01*
Y210793D01*
X24799Y211070D01*
X24855Y211306D01*
X24924Y211514D01*
X24994Y211680D01*
X25077Y211819D01*
X25146Y211902D01*
X25202Y211971D01*
X25215Y211985D01*
X25396Y212124D01*
X25590Y212221D01*
X25784Y212304D01*
X25992Y212346D01*
X26158Y212374D01*
X26311Y212401D01*
X27199D01*
X27476Y212387D01*
D02*
G37*
G36*
X38737D02*
X38793Y212374D01*
X38820Y212332D01*
X38848Y212304D01*
X38876Y212221D01*
Y212207D01*
Y212193D01*
Y211514D01*
X38862Y211444D01*
X38848Y211389D01*
X38807Y211361D01*
X38765Y211333D01*
X38696Y211306D01*
X37531D01*
X37461Y211292D01*
X37434Y211250D01*
X37420Y211208D01*
Y211195D01*
Y206202D01*
X37406Y206133D01*
X37378Y206077D01*
X37350Y206049D01*
X37309Y206022D01*
X37225Y205994D01*
X36352D01*
X36282Y206008D01*
X36227Y206022D01*
X36199Y206063D01*
X36172Y206105D01*
X36144Y206174D01*
Y206188D01*
Y206202D01*
Y211195D01*
X36130Y211264D01*
X36088Y211292D01*
X36047Y211306D01*
X34896D01*
X34826Y211320D01*
X34771Y211333D01*
X34729Y211375D01*
X34701Y211416D01*
X34674Y211486D01*
Y211500D01*
Y211514D01*
Y212193D01*
X34688Y212262D01*
X34701Y212318D01*
X34743Y212346D01*
X34785Y212374D01*
X34854Y212401D01*
X38668D01*
X38737Y212387D01*
D02*
G37*
G36*
X33786D02*
X33842Y212374D01*
X33869Y212332D01*
X33897Y212304D01*
X33925Y212221D01*
Y212207D01*
Y212193D01*
Y206202D01*
X33911Y206133D01*
X33897Y206077D01*
X33856Y206049D01*
X33814Y206022D01*
X33745Y205994D01*
X32857D01*
X32788Y206008D01*
X32732Y206022D01*
X32704Y206063D01*
X32677Y206105D01*
X32649Y206174D01*
Y206188D01*
Y206202D01*
Y208088D01*
X32635Y208158D01*
X32594Y208185D01*
X32552Y208199D01*
X31276D01*
X30999Y208213D01*
X30763Y208268D01*
X30555Y208338D01*
X30375Y208407D01*
X30250Y208490D01*
X30153Y208546D01*
X30083Y208601D01*
X30069Y208615D01*
X29931Y208795D01*
X29820Y208990D01*
X29750Y209184D01*
X29695Y209378D01*
X29667Y209558D01*
X29639Y209697D01*
Y209752D01*
Y209794D01*
Y209808D01*
Y209822D01*
Y210779D01*
X29653Y211056D01*
X29709Y211292D01*
X29778Y211500D01*
X29848Y211666D01*
X29931Y211805D01*
X30000Y211888D01*
X30056Y211957D01*
X30069Y211971D01*
X30250Y212110D01*
X30444Y212221D01*
X30638Y212290D01*
X30832Y212346D01*
X31012Y212374D01*
X31151Y212401D01*
X33717D01*
X33786Y212387D01*
D02*
G37*
G36*
X21610D02*
X21679Y212374D01*
X21734Y212346D01*
X21748Y212332D01*
X21818Y212276D01*
X21873Y212193D01*
X21915Y212124D01*
X21929Y212110D01*
Y212096D01*
X23926Y208407D01*
X23981Y208255D01*
X24009Y208088D01*
X24023Y208019D01*
Y207963D01*
Y207922D01*
Y207908D01*
Y207519D01*
X24009Y207409D01*
X23967Y207325D01*
X23940Y207270D01*
X23926Y207256D01*
X23829Y207201D01*
X23745Y207173D01*
X23676Y207159D01*
X21180D01*
Y206202D01*
X21166Y206133D01*
X21138Y206077D01*
X21110Y206049D01*
X21069Y206022D01*
X20986Y205994D01*
X20181D01*
X20112Y206008D01*
X20056Y206022D01*
X20043Y206036D01*
X20029D01*
X20001Y206077D01*
X19987Y206133D01*
Y206188D01*
Y206202D01*
Y207159D01*
X19266D01*
X19197Y207173D01*
X19155Y207201D01*
X19100Y207270D01*
X19072Y207353D01*
Y207367D01*
Y207381D01*
Y208060D01*
X19086Y208130D01*
X19100Y208171D01*
X19169Y208227D01*
X19238Y208255D01*
X19987D01*
Y212041D01*
X20001Y212152D01*
X20043Y212235D01*
X20084Y212290D01*
X20098Y212304D01*
X20181Y212360D01*
X20264Y212387D01*
X20334Y212401D01*
X21499D01*
X21610Y212387D01*
D02*
G37*
G36*
X231904Y412539D02*
X232154Y412484D01*
X232362Y412428D01*
X232528Y412345D01*
X232667Y412276D01*
X232764Y412206D01*
X232833Y412151D01*
X232847Y412137D01*
X232986Y411971D01*
X233097Y411777D01*
X233166Y411582D01*
X233222Y411388D01*
X233249Y411208D01*
X233263Y411069D01*
X233277Y411014D01*
Y410972D01*
Y410958D01*
Y410945D01*
Y410667D01*
X233263Y410598D01*
X233249Y410542D01*
X233208Y410514D01*
X233166Y410487D01*
X233097Y410459D01*
X232223D01*
X232154Y410473D01*
X232098Y410487D01*
X232057Y410528D01*
X232029Y410570D01*
X232001Y410639D01*
Y410653D01*
Y410667D01*
Y410917D01*
Y411028D01*
X231987Y411125D01*
X231960Y411194D01*
X231932Y411263D01*
X231918Y411305D01*
X231890Y411333D01*
X231877Y411361D01*
X231821Y411402D01*
X231752Y411444D01*
X231613Y411485D01*
X231544Y411499D01*
X230836D01*
X230739Y411471D01*
X230656Y411458D01*
X230587Y411430D01*
X230531Y411402D01*
X230504Y411388D01*
X230476Y411361D01*
X230420Y411305D01*
X230393Y411236D01*
X230337Y411097D01*
Y411028D01*
X230323Y410972D01*
Y410931D01*
Y410917D01*
Y410459D01*
Y410348D01*
X230351Y410251D01*
X230365Y410168D01*
X230393Y410112D01*
X230420Y410057D01*
X230448Y410029D01*
X230462Y410015D01*
X230476Y410001D01*
X230531Y409960D01*
X230601Y409932D01*
X230767Y409891D01*
X230836D01*
X230892Y409877D01*
X231460D01*
X231530Y409863D01*
X231585Y409849D01*
X231613Y409807D01*
X231641Y409766D01*
X231668Y409696D01*
Y409669D01*
Y409655D01*
Y409058D01*
X231655Y408989D01*
X231641Y408933D01*
X231599Y408906D01*
X231558Y408878D01*
X231488Y408850D01*
X230836D01*
X230739Y408823D01*
X230656Y408809D01*
X230587Y408781D01*
X230531Y408753D01*
X230504Y408739D01*
X230476Y408712D01*
X230420Y408656D01*
X230393Y408587D01*
X230337Y408434D01*
Y408379D01*
X230323Y408323D01*
Y408282D01*
Y408268D01*
Y407783D01*
Y407672D01*
X230351Y407574D01*
X230365Y407491D01*
X230393Y407436D01*
X230420Y407380D01*
X230448Y407353D01*
X230462Y407339D01*
X230476Y407325D01*
X230531Y407283D01*
X230601Y407256D01*
X230767Y407214D01*
X230836D01*
X230892Y407200D01*
X231544D01*
X231641Y407214D01*
X231710Y407242D01*
X231779Y407269D01*
X231821Y407283D01*
X231849Y407311D01*
X231877Y407325D01*
X231918Y407380D01*
X231946Y407450D01*
X231987Y407602D01*
Y407672D01*
X232001Y407727D01*
Y407769D01*
Y407783D01*
Y408032D01*
X232015Y408101D01*
X232029Y408157D01*
X232071Y408199D01*
X232112Y408226D01*
X232182Y408254D01*
X233069D01*
X233139Y408240D01*
X233194Y408226D01*
X233222Y408185D01*
X233249Y408143D01*
X233277Y408074D01*
Y408046D01*
Y408032D01*
Y407755D01*
X233263Y407477D01*
X233208Y407242D01*
X233139Y407034D01*
X233055Y406867D01*
X232986Y406729D01*
X232917Y406645D01*
X232861Y406576D01*
X232847Y406562D01*
X232667Y406423D01*
X232473Y406326D01*
X232279Y406243D01*
X232071Y406202D01*
X231904Y406174D01*
X231752Y406160D01*
X231696Y406146D01*
X230739D01*
X230462Y406160D01*
X230212Y406215D01*
X230004Y406285D01*
X229838Y406354D01*
X229699Y406437D01*
X229602Y406493D01*
X229533Y406548D01*
X229519Y406562D01*
X229380Y406729D01*
X229269Y406923D01*
X229200Y407117D01*
X229144Y407311D01*
X229117Y407491D01*
X229089Y407630D01*
Y407685D01*
Y407727D01*
Y407741D01*
Y407755D01*
Y408268D01*
X229103Y408434D01*
X229117Y408573D01*
X229158Y408712D01*
X229214Y408823D01*
X229269Y408920D01*
X229339Y409017D01*
X229477Y409155D01*
X229630Y409253D01*
X229755Y409308D01*
X229810Y409322D01*
X229852Y409336D01*
X229866Y409350D01*
X229879D01*
X229741Y409405D01*
X229616Y409474D01*
X229519Y409544D01*
X229422Y409627D01*
X229339Y409710D01*
X229283Y409807D01*
X229186Y409987D01*
X229131Y410168D01*
X229103Y410307D01*
X229089Y410362D01*
Y410404D01*
Y410431D01*
Y410445D01*
Y410945D01*
X229103Y411222D01*
X229158Y411458D01*
X229228Y411666D01*
X229297Y411832D01*
X229380Y411971D01*
X229450Y412054D01*
X229505Y412123D01*
X229519Y412137D01*
X229699Y412276D01*
X229893Y412373D01*
X230088Y412456D01*
X230296Y412498D01*
X230462Y412525D01*
X230614Y412553D01*
X231627D01*
X231904Y412539D01*
D02*
G37*
G36*
X236772D02*
X237022Y412484D01*
X237230Y412428D01*
X237396Y412345D01*
X237535Y412276D01*
X237632Y412206D01*
X237701Y412151D01*
X237715Y412137D01*
X237854Y411971D01*
X237965Y411777D01*
X238034Y411582D01*
X238090Y411388D01*
X238117Y411208D01*
X238131Y411069D01*
X238145Y411014D01*
Y410972D01*
Y410958D01*
Y410945D01*
Y410598D01*
X238131Y410528D01*
X238103Y410473D01*
X238076Y410445D01*
X238034Y410418D01*
X237951Y410390D01*
X237077D01*
X237008Y410404D01*
X236952Y410418D01*
X236925Y410459D01*
X236897Y410501D01*
X236869Y410570D01*
Y410584D01*
Y410598D01*
Y410917D01*
Y411028D01*
X236855Y411125D01*
X236828Y411194D01*
X236800Y411263D01*
X236786Y411305D01*
X236758Y411333D01*
X236744Y411361D01*
X236689Y411402D01*
X236619Y411444D01*
X236467Y411485D01*
X236398Y411499D01*
X235829D01*
X235732Y411471D01*
X235649Y411458D01*
X235579Y411430D01*
X235524Y411402D01*
X235496Y411388D01*
X235468Y411361D01*
X235413Y411305D01*
X235385Y411236D01*
X235330Y411097D01*
Y411028D01*
X235316Y410972D01*
Y410931D01*
Y410917D01*
Y410625D01*
X235330Y410473D01*
X235385Y410320D01*
X235455Y410182D01*
X235538Y410057D01*
X235635Y409960D01*
X235704Y409891D01*
X235760Y409835D01*
X235774Y409821D01*
X237604Y408268D01*
X237771Y408115D01*
X237895Y407949D01*
X237979Y407783D01*
X238034Y407630D01*
X238076Y407505D01*
X238090Y407394D01*
X238103Y407325D01*
Y407297D01*
Y406354D01*
X238090Y406285D01*
X238076Y406229D01*
X238034Y406202D01*
X237992Y406174D01*
X237923Y406146D01*
X234290D01*
X234220Y406160D01*
X234165Y406174D01*
X234137Y406215D01*
X234109Y406257D01*
X234082Y406326D01*
Y406340D01*
Y406354D01*
Y407047D01*
X234095Y407117D01*
X234109Y407172D01*
X234151Y407200D01*
X234179Y407228D01*
X234262Y407256D01*
X236675D01*
Y407422D01*
X236661Y407505D01*
X236619Y407588D01*
X236578Y407644D01*
X236564Y407658D01*
X234678Y409253D01*
X234567Y409350D01*
X234484Y409460D01*
X234331Y409669D01*
X234220Y409891D01*
X234151Y410085D01*
X234109Y410265D01*
X234095Y410418D01*
X234082Y410473D01*
Y410514D01*
Y410528D01*
Y410542D01*
Y410945D01*
X234095Y411222D01*
X234151Y411458D01*
X234220Y411666D01*
X234290Y411832D01*
X234373Y411971D01*
X234442Y412054D01*
X234498Y412123D01*
X234512Y412137D01*
X234692Y412276D01*
X234886Y412373D01*
X235080Y412456D01*
X235288Y412498D01*
X235455Y412525D01*
X235607Y412553D01*
X236495D01*
X236772Y412539D01*
D02*
G37*
G36*
X248033D02*
X248089Y412525D01*
X248116Y412484D01*
X248144Y412456D01*
X248172Y412373D01*
Y412359D01*
Y412345D01*
Y411666D01*
X248158Y411596D01*
X248144Y411541D01*
X248102Y411513D01*
X248061Y411485D01*
X247992Y411458D01*
X246827D01*
X246757Y411444D01*
X246730Y411402D01*
X246716Y411361D01*
Y411347D01*
Y406354D01*
X246702Y406285D01*
X246674Y406229D01*
X246646Y406202D01*
X246605Y406174D01*
X246521Y406146D01*
X245648D01*
X245578Y406160D01*
X245523Y406174D01*
X245495Y406215D01*
X245467Y406257D01*
X245440Y406326D01*
Y406340D01*
Y406354D01*
Y411347D01*
X245426Y411416D01*
X245384Y411444D01*
X245343Y411458D01*
X244192D01*
X244122Y411471D01*
X244067Y411485D01*
X244025Y411527D01*
X243997Y411568D01*
X243970Y411638D01*
Y411652D01*
Y411666D01*
Y412345D01*
X243984Y412415D01*
X243997Y412470D01*
X244039Y412498D01*
X244081Y412525D01*
X244150Y412553D01*
X247964D01*
X248033Y412539D01*
D02*
G37*
G36*
X243082D02*
X243138Y412525D01*
X243165Y412484D01*
X243193Y412456D01*
X243221Y412373D01*
Y412359D01*
Y412345D01*
Y406354D01*
X243207Y406285D01*
X243193Y406229D01*
X243151Y406202D01*
X243110Y406174D01*
X243041Y406146D01*
X242153D01*
X242084Y406160D01*
X242028Y406174D01*
X242000Y406215D01*
X241973Y406257D01*
X241945Y406326D01*
Y406340D01*
Y406354D01*
Y408240D01*
X241931Y408310D01*
X241889Y408337D01*
X241848Y408351D01*
X240572D01*
X240295Y408365D01*
X240059Y408420D01*
X239851Y408490D01*
X239671Y408559D01*
X239546Y408642D01*
X239449Y408698D01*
X239379Y408753D01*
X239365Y408767D01*
X239227Y408947D01*
X239116Y409142D01*
X239046Y409336D01*
X238991Y409530D01*
X238963Y409710D01*
X238936Y409849D01*
Y409904D01*
Y409946D01*
Y409960D01*
Y409974D01*
Y410931D01*
X238949Y411208D01*
X239005Y411444D01*
X239074Y411652D01*
X239144Y411818D01*
X239227Y411957D01*
X239296Y412040D01*
X239352Y412109D01*
X239365Y412123D01*
X239546Y412262D01*
X239740Y412373D01*
X239934Y412442D01*
X240128Y412498D01*
X240308Y412525D01*
X240447Y412553D01*
X243013D01*
X243082Y412539D01*
D02*
G37*
G36*
X159556Y492549D02*
X159806Y492494D01*
X160014Y492438D01*
X160180Y492355D01*
X160319Y492286D01*
X160416Y492216D01*
X160485Y492161D01*
X160499Y492147D01*
X160638Y491981D01*
X160749Y491787D01*
X160818Y491592D01*
X160874Y491398D01*
X160901Y491218D01*
X160915Y491079D01*
X160929Y491024D01*
Y490982D01*
Y490968D01*
Y490955D01*
Y490608D01*
X160915Y490538D01*
X160887Y490483D01*
X160860Y490455D01*
X160818Y490428D01*
X160735Y490400D01*
X159861D01*
X159792Y490414D01*
X159736Y490428D01*
X159709Y490469D01*
X159681Y490511D01*
X159653Y490580D01*
Y490594D01*
Y490608D01*
Y490927D01*
Y491038D01*
X159639Y491135D01*
X159612Y491204D01*
X159584Y491273D01*
X159570Y491315D01*
X159542Y491343D01*
X159528Y491371D01*
X159473Y491412D01*
X159403Y491454D01*
X159251Y491495D01*
X159182Y491509D01*
X158613D01*
X158516Y491482D01*
X158433Y491468D01*
X158363Y491440D01*
X158308Y491412D01*
X158280Y491398D01*
X158252Y491371D01*
X158197Y491315D01*
X158169Y491246D01*
X158114Y491107D01*
Y491038D01*
X158100Y490982D01*
Y490941D01*
Y490927D01*
Y490635D01*
X158114Y490483D01*
X158169Y490330D01*
X158238Y490192D01*
X158322Y490067D01*
X158419Y489970D01*
X158488Y489901D01*
X158544Y489845D01*
X158558Y489831D01*
X160388Y488278D01*
X160555Y488125D01*
X160679Y487959D01*
X160763Y487793D01*
X160818Y487640D01*
X160860Y487515D01*
X160874Y487404D01*
X160887Y487335D01*
Y487307D01*
Y486364D01*
X160874Y486295D01*
X160860Y486239D01*
X160818Y486212D01*
X160777Y486184D01*
X160707Y486156D01*
X157074D01*
X157004Y486170D01*
X156949Y486184D01*
X156921Y486225D01*
X156893Y486267D01*
X156866Y486336D01*
Y486350D01*
Y486364D01*
Y487057D01*
X156879Y487127D01*
X156893Y487182D01*
X156935Y487210D01*
X156963Y487238D01*
X157046Y487266D01*
X159459D01*
Y487432D01*
X159445Y487515D01*
X159403Y487598D01*
X159362Y487654D01*
X159348Y487668D01*
X157462Y489263D01*
X157351Y489360D01*
X157268Y489470D01*
X157115Y489679D01*
X157004Y489901D01*
X156935Y490095D01*
X156893Y490275D01*
X156879Y490428D01*
X156866Y490483D01*
Y490524D01*
Y490538D01*
Y490552D01*
Y490955D01*
X156879Y491232D01*
X156935Y491468D01*
X157004Y491676D01*
X157074Y491842D01*
X157157Y491981D01*
X157226Y492064D01*
X157282Y492133D01*
X157296Y492147D01*
X157476Y492286D01*
X157670Y492383D01*
X157864Y492466D01*
X158072Y492508D01*
X158238Y492536D01*
X158391Y492563D01*
X159279D01*
X159556Y492549D01*
D02*
G37*
G36*
X154633D02*
X154882Y492494D01*
X155090Y492438D01*
X155257Y492355D01*
X155395Y492286D01*
X155493Y492216D01*
X155562Y492161D01*
X155576Y492147D01*
X155715Y491981D01*
X155825Y491787D01*
X155895Y491592D01*
X155950Y491398D01*
X155978Y491218D01*
X155992Y491079D01*
X156006Y491024D01*
Y490982D01*
Y490968D01*
Y490955D01*
Y490608D01*
X155992Y490538D01*
X155964Y490483D01*
X155936Y490455D01*
X155895Y490428D01*
X155812Y490400D01*
X154938D01*
X154868Y490414D01*
X154813Y490428D01*
X154785Y490469D01*
X154758Y490511D01*
X154730Y490580D01*
Y490594D01*
Y490608D01*
Y490927D01*
Y491038D01*
X154716Y491135D01*
X154688Y491204D01*
X154661Y491273D01*
X154647Y491315D01*
X154619Y491343D01*
X154605Y491371D01*
X154550Y491412D01*
X154480Y491454D01*
X154328Y491495D01*
X154258Y491509D01*
X153690D01*
X153593Y491482D01*
X153509Y491468D01*
X153440Y491440D01*
X153385Y491412D01*
X153357Y491398D01*
X153329Y491371D01*
X153274Y491315D01*
X153246Y491246D01*
X153190Y491107D01*
Y491038D01*
X153177Y490982D01*
Y490941D01*
Y490927D01*
Y490635D01*
X153190Y490483D01*
X153246Y490330D01*
X153315Y490192D01*
X153399Y490067D01*
X153496Y489970D01*
X153565Y489901D01*
X153620Y489845D01*
X153634Y489831D01*
X155465Y488278D01*
X155631Y488125D01*
X155756Y487959D01*
X155839Y487793D01*
X155895Y487640D01*
X155936Y487515D01*
X155950Y487404D01*
X155964Y487335D01*
Y487307D01*
Y486364D01*
X155950Y486295D01*
X155936Y486239D01*
X155895Y486212D01*
X155853Y486184D01*
X155784Y486156D01*
X152150D01*
X152081Y486170D01*
X152025Y486184D01*
X151998Y486225D01*
X151970Y486267D01*
X151942Y486336D01*
Y486350D01*
Y486364D01*
Y487057D01*
X151956Y487127D01*
X151970Y487182D01*
X152012Y487210D01*
X152039Y487238D01*
X152123Y487266D01*
X154536D01*
Y487432D01*
X154522Y487515D01*
X154480Y487598D01*
X154439Y487654D01*
X154425Y487668D01*
X152539Y489263D01*
X152428Y489360D01*
X152345Y489470D01*
X152192Y489679D01*
X152081Y489901D01*
X152012Y490095D01*
X151970Y490275D01*
X151956Y490428D01*
X151942Y490483D01*
Y490524D01*
Y490538D01*
Y490552D01*
Y490955D01*
X151956Y491232D01*
X152012Y491468D01*
X152081Y491676D01*
X152150Y491842D01*
X152233Y491981D01*
X152303Y492064D01*
X152358Y492133D01*
X152372Y492147D01*
X152552Y492286D01*
X152747Y492383D01*
X152941Y492466D01*
X153149Y492508D01*
X153315Y492536D01*
X153468Y492563D01*
X154355D01*
X154633Y492549D01*
D02*
G37*
G36*
X170817D02*
X170873Y492536D01*
X170900Y492494D01*
X170928Y492466D01*
X170956Y492383D01*
Y492369D01*
Y492355D01*
Y491676D01*
X170942Y491606D01*
X170928Y491551D01*
X170886Y491523D01*
X170845Y491495D01*
X170776Y491468D01*
X169611D01*
X169541Y491454D01*
X169514Y491412D01*
X169500Y491371D01*
Y491357D01*
Y486364D01*
X169486Y486295D01*
X169458Y486239D01*
X169430Y486212D01*
X169389Y486184D01*
X169305Y486156D01*
X168432D01*
X168363Y486170D01*
X168307Y486184D01*
X168279Y486225D01*
X168251Y486267D01*
X168224Y486336D01*
Y486350D01*
Y486364D01*
Y491357D01*
X168210Y491426D01*
X168168Y491454D01*
X168127Y491468D01*
X166976D01*
X166906Y491482D01*
X166851Y491495D01*
X166809Y491537D01*
X166782Y491578D01*
X166754Y491648D01*
Y491662D01*
Y491676D01*
Y492355D01*
X166768Y492425D01*
X166782Y492480D01*
X166823Y492508D01*
X166865Y492536D01*
X166934Y492563D01*
X170748D01*
X170817Y492549D01*
D02*
G37*
G36*
X165866D02*
X165922Y492536D01*
X165949Y492494D01*
X165977Y492466D01*
X166005Y492383D01*
Y492369D01*
Y492355D01*
Y486364D01*
X165991Y486295D01*
X165977Y486239D01*
X165935Y486212D01*
X165894Y486184D01*
X165825Y486156D01*
X164937D01*
X164868Y486170D01*
X164812Y486184D01*
X164784Y486225D01*
X164757Y486267D01*
X164729Y486336D01*
Y486350D01*
Y486364D01*
Y488250D01*
X164715Y488320D01*
X164674Y488347D01*
X164632Y488361D01*
X163356D01*
X163079Y488375D01*
X162843Y488430D01*
X162635Y488500D01*
X162454Y488569D01*
X162330Y488652D01*
X162233Y488708D01*
X162163Y488763D01*
X162149Y488777D01*
X162011Y488957D01*
X161900Y489152D01*
X161831Y489346D01*
X161775Y489540D01*
X161747Y489720D01*
X161719Y489859D01*
Y489914D01*
Y489956D01*
Y489970D01*
Y489984D01*
Y490941D01*
X161733Y491218D01*
X161789Y491454D01*
X161858Y491662D01*
X161928Y491828D01*
X162011Y491967D01*
X162080Y492050D01*
X162136Y492119D01*
X162149Y492133D01*
X162330Y492272D01*
X162524Y492383D01*
X162718Y492452D01*
X162912Y492508D01*
X163092Y492536D01*
X163231Y492563D01*
X165797D01*
X165866Y492549D01*
D02*
G37*
G36*
X311600Y522508D02*
X311725Y522466D01*
X311781Y522438D01*
X311822Y522424D01*
X311850Y522397D01*
X311864D01*
X312765Y521828D01*
X312821Y521800D01*
X312848Y521759D01*
X312904Y521675D01*
X312918Y521606D01*
Y521592D01*
Y521578D01*
Y520760D01*
X312904Y520691D01*
X312890Y520649D01*
X312848Y520621D01*
X312738D01*
X312724Y520635D01*
X312710D01*
X311725Y521190D01*
Y516336D01*
X311711Y516267D01*
X311698Y516211D01*
X311656Y516184D01*
X311614Y516156D01*
X311545Y516128D01*
X310657D01*
X310588Y516142D01*
X310532Y516156D01*
X310519Y516170D01*
X310505D01*
X310477Y516211D01*
X310463Y516267D01*
Y516322D01*
Y516336D01*
Y522327D01*
X310477Y522397D01*
X310491Y522452D01*
X310532Y522480D01*
X310560Y522508D01*
X310644Y522535D01*
X311476D01*
X311600Y522508D01*
D02*
G37*
G36*
X316274Y522521D02*
X316524Y522466D01*
X316732Y522410D01*
X316898Y522327D01*
X317037Y522258D01*
X317134Y522188D01*
X317203Y522133D01*
X317217Y522119D01*
X317356Y521953D01*
X317467Y521759D01*
X317536Y521564D01*
X317591Y521370D01*
X317619Y521190D01*
X317633Y521051D01*
X317647Y520996D01*
Y520954D01*
Y520940D01*
Y520927D01*
Y520580D01*
X317633Y520510D01*
X317605Y520455D01*
X317578Y520427D01*
X317536Y520400D01*
X317453Y520372D01*
X316579D01*
X316510Y520386D01*
X316454Y520400D01*
X316427Y520441D01*
X316399Y520483D01*
X316371Y520552D01*
Y520566D01*
Y520580D01*
Y520899D01*
Y521010D01*
X316357Y521107D01*
X316329Y521176D01*
X316302Y521245D01*
X316288Y521287D01*
X316260Y521315D01*
X316246Y521343D01*
X316191Y521384D01*
X316122Y521426D01*
X315969Y521467D01*
X315900Y521481D01*
X315331D01*
X315234Y521454D01*
X315151Y521440D01*
X315081Y521412D01*
X315026Y521384D01*
X314998Y521370D01*
X314970Y521343D01*
X314915Y521287D01*
X314887Y521218D01*
X314832Y521079D01*
Y521010D01*
X314818Y520954D01*
Y520913D01*
Y520899D01*
Y520607D01*
X314832Y520455D01*
X314887Y520302D01*
X314956Y520164D01*
X315040Y520039D01*
X315137Y519942D01*
X315206Y519873D01*
X315262Y519817D01*
X315275Y519803D01*
X317106Y518250D01*
X317273Y518097D01*
X317397Y517931D01*
X317481Y517765D01*
X317536Y517612D01*
X317578Y517487D01*
X317591Y517376D01*
X317605Y517307D01*
Y517279D01*
Y516336D01*
X317591Y516267D01*
X317578Y516211D01*
X317536Y516184D01*
X317495Y516156D01*
X317425Y516128D01*
X313792D01*
X313722Y516142D01*
X313667Y516156D01*
X313639Y516197D01*
X313611Y516239D01*
X313584Y516308D01*
Y516322D01*
Y516336D01*
Y517029D01*
X313597Y517099D01*
X313611Y517154D01*
X313653Y517182D01*
X313681Y517210D01*
X313764Y517238D01*
X316177D01*
Y517404D01*
X316163Y517487D01*
X316122Y517570D01*
X316080Y517626D01*
X316066Y517640D01*
X314180Y519235D01*
X314069Y519332D01*
X313986Y519442D01*
X313833Y519651D01*
X313722Y519873D01*
X313653Y520067D01*
X313611Y520247D01*
X313597Y520400D01*
X313584Y520455D01*
Y520496D01*
Y520510D01*
Y520524D01*
Y520927D01*
X313597Y521204D01*
X313653Y521440D01*
X313722Y521648D01*
X313792Y521814D01*
X313875Y521953D01*
X313944Y522036D01*
X314000Y522105D01*
X314014Y522119D01*
X314194Y522258D01*
X314388Y522355D01*
X314582Y522438D01*
X314790Y522480D01*
X314956Y522508D01*
X315109Y522535D01*
X315997D01*
X316274Y522521D01*
D02*
G37*
G36*
X327535D02*
X327591Y522508D01*
X327618Y522466D01*
X327646Y522438D01*
X327674Y522355D01*
Y522341D01*
Y522327D01*
Y521648D01*
X327660Y521578D01*
X327646Y521523D01*
X327604Y521495D01*
X327563Y521467D01*
X327494Y521440D01*
X326329D01*
X326259Y521426D01*
X326232Y521384D01*
X326218Y521343D01*
Y521329D01*
Y516336D01*
X326204Y516267D01*
X326176Y516211D01*
X326148Y516184D01*
X326107Y516156D01*
X326023Y516128D01*
X325150D01*
X325080Y516142D01*
X325025Y516156D01*
X324997Y516197D01*
X324969Y516239D01*
X324942Y516308D01*
Y516322D01*
Y516336D01*
Y521329D01*
X324928Y521398D01*
X324886Y521426D01*
X324845Y521440D01*
X323694D01*
X323624Y521454D01*
X323569Y521467D01*
X323527Y521509D01*
X323499Y521550D01*
X323472Y521620D01*
Y521634D01*
Y521648D01*
Y522327D01*
X323486Y522397D01*
X323499Y522452D01*
X323541Y522480D01*
X323583Y522508D01*
X323652Y522535D01*
X327466D01*
X327535Y522521D01*
D02*
G37*
G36*
X322584D02*
X322640Y522508D01*
X322667Y522466D01*
X322695Y522438D01*
X322723Y522355D01*
Y522341D01*
Y522327D01*
Y516336D01*
X322709Y516267D01*
X322695Y516211D01*
X322654Y516184D01*
X322612Y516156D01*
X322543Y516128D01*
X321655D01*
X321586Y516142D01*
X321530Y516156D01*
X321502Y516197D01*
X321475Y516239D01*
X321447Y516308D01*
Y516322D01*
Y516336D01*
Y518222D01*
X321433Y518292D01*
X321391Y518319D01*
X321350Y518333D01*
X320074D01*
X319797Y518347D01*
X319561Y518402D01*
X319353Y518472D01*
X319172Y518541D01*
X319048Y518624D01*
X318951Y518680D01*
X318881Y518735D01*
X318867Y518749D01*
X318729Y518929D01*
X318618Y519124D01*
X318549Y519318D01*
X318493Y519512D01*
X318465Y519692D01*
X318438Y519831D01*
Y519886D01*
Y519928D01*
Y519942D01*
Y519956D01*
Y520913D01*
X318451Y521190D01*
X318507Y521426D01*
X318576Y521634D01*
X318645Y521800D01*
X318729Y521939D01*
X318798Y522022D01*
X318854Y522091D01*
X318867Y522105D01*
X319048Y522244D01*
X319242Y522355D01*
X319436Y522424D01*
X319630Y522480D01*
X319811Y522508D01*
X319949Y522535D01*
X322515D01*
X322584Y522521D01*
D02*
G37*
G36*
X369614Y542587D02*
X369864Y542532D01*
X370072Y542476D01*
X370238Y542393D01*
X370377Y542324D01*
X370474Y542254D01*
X370543Y542199D01*
X370557Y542185D01*
X370696Y542019D01*
X370807Y541825D01*
X370876Y541630D01*
X370932Y541436D01*
X370959Y541256D01*
X370973Y541117D01*
X370987Y541062D01*
Y541020D01*
Y541006D01*
Y540993D01*
Y540646D01*
X370973Y540576D01*
X370945Y540521D01*
X370918Y540493D01*
X370876Y540466D01*
X370793Y540438D01*
X369919D01*
X369850Y540452D01*
X369794Y540466D01*
X369767Y540507D01*
X369739Y540549D01*
X369711Y540618D01*
Y540632D01*
Y540646D01*
Y540965D01*
Y541076D01*
X369697Y541173D01*
X369669Y541242D01*
X369642Y541311D01*
X369628Y541353D01*
X369600Y541381D01*
X369586Y541409D01*
X369531Y541450D01*
X369462Y541492D01*
X369309Y541533D01*
X369240Y541547D01*
X368671D01*
X368574Y541520D01*
X368491Y541506D01*
X368421Y541478D01*
X368366Y541450D01*
X368338Y541436D01*
X368310Y541409D01*
X368255Y541353D01*
X368227Y541284D01*
X368172Y541145D01*
Y541076D01*
X368158Y541020D01*
Y540979D01*
Y540965D01*
Y540673D01*
X368172Y540521D01*
X368227Y540368D01*
X368297Y540230D01*
X368380Y540105D01*
X368477Y540008D01*
X368546Y539939D01*
X368602Y539883D01*
X368615Y539869D01*
X370446Y538316D01*
X370613Y538163D01*
X370737Y537997D01*
X370821Y537831D01*
X370876Y537678D01*
X370918Y537553D01*
X370932Y537442D01*
X370945Y537373D01*
Y537345D01*
Y536402D01*
X370932Y536333D01*
X370918Y536277D01*
X370876Y536250D01*
X370835Y536222D01*
X370765Y536194D01*
X367132D01*
X367062Y536208D01*
X367007Y536222D01*
X366979Y536263D01*
X366951Y536305D01*
X366924Y536374D01*
Y536388D01*
Y536402D01*
Y537095D01*
X366937Y537165D01*
X366951Y537220D01*
X366993Y537248D01*
X367021Y537276D01*
X367104Y537304D01*
X369517D01*
Y537470D01*
X369503Y537553D01*
X369462Y537636D01*
X369420Y537692D01*
X369406Y537706D01*
X367520Y539300D01*
X367409Y539398D01*
X367326Y539509D01*
X367173Y539717D01*
X367062Y539939D01*
X366993Y540133D01*
X366951Y540313D01*
X366937Y540466D01*
X366924Y540521D01*
Y540563D01*
Y540576D01*
Y540590D01*
Y540993D01*
X366937Y541270D01*
X366993Y541506D01*
X367062Y541714D01*
X367132Y541880D01*
X367215Y542019D01*
X367284Y542102D01*
X367340Y542171D01*
X367354Y542185D01*
X367534Y542324D01*
X367728Y542421D01*
X367922Y542504D01*
X368130Y542546D01*
X368297Y542574D01*
X368449Y542601D01*
X369337D01*
X369614Y542587D01*
D02*
G37*
G36*
X380875D02*
X380931Y542574D01*
X380958Y542532D01*
X380986Y542504D01*
X381014Y542421D01*
Y542407D01*
Y542393D01*
Y541714D01*
X381000Y541644D01*
X380986Y541589D01*
X380945Y541561D01*
X380903Y541533D01*
X380834Y541506D01*
X379669D01*
X379599Y541492D01*
X379572Y541450D01*
X379558Y541409D01*
Y541395D01*
Y536402D01*
X379544Y536333D01*
X379516Y536277D01*
X379488Y536250D01*
X379447Y536222D01*
X379364Y536194D01*
X378490D01*
X378420Y536208D01*
X378365Y536222D01*
X378337Y536263D01*
X378310Y536305D01*
X378282Y536374D01*
Y536388D01*
Y536402D01*
Y541395D01*
X378268Y541464D01*
X378226Y541492D01*
X378185Y541506D01*
X377034D01*
X376964Y541520D01*
X376909Y541533D01*
X376867Y541575D01*
X376839Y541617D01*
X376812Y541686D01*
Y541700D01*
Y541714D01*
Y542393D01*
X376826Y542463D01*
X376839Y542518D01*
X376881Y542546D01*
X376923Y542574D01*
X376992Y542601D01*
X380806D01*
X380875Y542587D01*
D02*
G37*
G36*
X375924D02*
X375980Y542574D01*
X376007Y542532D01*
X376035Y542504D01*
X376063Y542421D01*
Y542407D01*
Y542393D01*
Y536402D01*
X376049Y536333D01*
X376035Y536277D01*
X375993Y536250D01*
X375952Y536222D01*
X375883Y536194D01*
X374995D01*
X374926Y536208D01*
X374870Y536222D01*
X374842Y536263D01*
X374815Y536305D01*
X374787Y536374D01*
Y536388D01*
Y536402D01*
Y538288D01*
X374773Y538358D01*
X374731Y538385D01*
X374690Y538399D01*
X373414D01*
X373137Y538413D01*
X372901Y538468D01*
X372693Y538538D01*
X372513Y538607D01*
X372388Y538690D01*
X372291Y538746D01*
X372221Y538801D01*
X372207Y538815D01*
X372069Y538995D01*
X371958Y539190D01*
X371889Y539384D01*
X371833Y539578D01*
X371805Y539758D01*
X371777Y539897D01*
Y539952D01*
Y539994D01*
Y540008D01*
Y540022D01*
Y540979D01*
X371791Y541256D01*
X371847Y541492D01*
X371916Y541700D01*
X371986Y541866D01*
X372069Y542005D01*
X372138Y542088D01*
X372194Y542157D01*
X372207Y542171D01*
X372388Y542310D01*
X372582Y542421D01*
X372776Y542490D01*
X372970Y542546D01*
X373150Y542574D01*
X373289Y542601D01*
X375855D01*
X375924Y542587D01*
D02*
G37*
G36*
X364594D02*
X364829Y542532D01*
X365037Y542476D01*
X365204Y542393D01*
X365343Y542324D01*
X365440Y542254D01*
X365509Y542199D01*
X365523Y542185D01*
X365662Y542019D01*
X365773Y541825D01*
X365842Y541617D01*
X365897Y541422D01*
X365925Y541256D01*
X365939Y541103D01*
X365953Y541048D01*
Y541020D01*
Y540993D01*
Y540979D01*
Y537817D01*
X365939Y537539D01*
X365883Y537290D01*
X365814Y537082D01*
X365731Y536915D01*
X365662Y536790D01*
X365592Y536693D01*
X365537Y536624D01*
X365523Y536610D01*
X365343Y536471D01*
X365148Y536374D01*
X364954Y536291D01*
X364760Y536250D01*
X364580Y536222D01*
X364441Y536208D01*
X364386Y536194D01*
X363318D01*
X363040Y536208D01*
X362791Y536263D01*
X362583Y536333D01*
X362416Y536402D01*
X362278Y536485D01*
X362181Y536541D01*
X362111Y536596D01*
X362097Y536610D01*
X361959Y536790D01*
X361848Y536984D01*
X361778Y537179D01*
X361723Y537373D01*
X361695Y537553D01*
X361668Y537692D01*
Y537747D01*
Y537789D01*
Y537803D01*
Y537817D01*
Y540979D01*
X361681Y541256D01*
X361737Y541492D01*
X361806Y541700D01*
X361875Y541866D01*
X361959Y542005D01*
X362028Y542088D01*
X362084Y542157D01*
X362097Y542171D01*
X362278Y542310D01*
X362472Y542421D01*
X362666Y542490D01*
X362874Y542546D01*
X363040Y542574D01*
X363193Y542601D01*
X364316D01*
X364594Y542587D01*
D02*
G37*
G36*
X195366Y542574D02*
X195490Y542532D01*
X195546Y542504D01*
X195588Y542490D01*
X195615Y542463D01*
X195629D01*
X196531Y541894D01*
X196586Y541866D01*
X196614Y541825D01*
X196669Y541741D01*
X196683Y541672D01*
Y541658D01*
Y541644D01*
Y540826D01*
X196669Y540757D01*
X196655Y540715D01*
X196614Y540687D01*
X196503D01*
X196489Y540701D01*
X196475D01*
X195490Y541256D01*
Y536402D01*
X195477Y536333D01*
X195463Y536277D01*
X195421Y536250D01*
X195380Y536222D01*
X195310Y536194D01*
X194423D01*
X194353Y536208D01*
X194298Y536222D01*
X194284Y536236D01*
X194270D01*
X194242Y536277D01*
X194228Y536333D01*
Y536388D01*
Y536402D01*
Y542393D01*
X194242Y542463D01*
X194256Y542518D01*
X194298Y542546D01*
X194326Y542574D01*
X194409Y542601D01*
X195241D01*
X195366Y542574D01*
D02*
G37*
G36*
X206377Y542587D02*
X206433Y542574D01*
X206460Y542532D01*
X206488Y542504D01*
X206516Y542421D01*
Y542407D01*
Y542393D01*
Y541714D01*
X206502Y541644D01*
X206488Y541589D01*
X206446Y541561D01*
X206405Y541533D01*
X206336Y541506D01*
X205171D01*
X205101Y541492D01*
X205074Y541450D01*
X205060Y541409D01*
Y541395D01*
Y536402D01*
X205046Y536333D01*
X205018Y536277D01*
X204990Y536250D01*
X204949Y536222D01*
X204865Y536194D01*
X203992D01*
X203923Y536208D01*
X203867Y536222D01*
X203839Y536263D01*
X203811Y536305D01*
X203784Y536374D01*
Y536388D01*
Y536402D01*
Y541395D01*
X203770Y541464D01*
X203728Y541492D01*
X203687Y541506D01*
X202536D01*
X202466Y541520D01*
X202411Y541533D01*
X202369Y541575D01*
X202341Y541617D01*
X202314Y541686D01*
Y541700D01*
Y541714D01*
Y542393D01*
X202328Y542463D01*
X202341Y542518D01*
X202383Y542546D01*
X202425Y542574D01*
X202494Y542601D01*
X206308D01*
X206377Y542587D01*
D02*
G37*
G36*
X201426D02*
X201482Y542574D01*
X201509Y542532D01*
X201537Y542504D01*
X201565Y542421D01*
Y542407D01*
Y542393D01*
Y536402D01*
X201551Y536333D01*
X201537Y536277D01*
X201495Y536250D01*
X201454Y536222D01*
X201385Y536194D01*
X200497D01*
X200428Y536208D01*
X200372Y536222D01*
X200344Y536263D01*
X200317Y536305D01*
X200289Y536374D01*
Y536388D01*
Y536402D01*
Y538288D01*
X200275Y538358D01*
X200233Y538385D01*
X200192Y538399D01*
X198916D01*
X198639Y538413D01*
X198403Y538468D01*
X198195Y538538D01*
X198015Y538607D01*
X197890Y538690D01*
X197793Y538746D01*
X197723Y538801D01*
X197709Y538815D01*
X197571Y538995D01*
X197460Y539190D01*
X197390Y539384D01*
X197335Y539578D01*
X197307Y539758D01*
X197279Y539897D01*
Y539952D01*
Y539994D01*
Y540008D01*
Y540022D01*
Y540979D01*
X197293Y541256D01*
X197349Y541492D01*
X197418Y541700D01*
X197488Y541866D01*
X197571Y542005D01*
X197640Y542088D01*
X197696Y542157D01*
X197709Y542171D01*
X197890Y542310D01*
X198084Y542421D01*
X198278Y542490D01*
X198472Y542546D01*
X198652Y542574D01*
X198791Y542601D01*
X201357D01*
X201426Y542587D01*
D02*
G37*
G36*
X191788D02*
X192037Y542532D01*
X192245Y542476D01*
X192412Y542393D01*
X192550Y542324D01*
X192647Y542254D01*
X192717Y542199D01*
X192731Y542185D01*
X192869Y542019D01*
X192980Y541825D01*
X193050Y541617D01*
X193105Y541422D01*
X193133Y541256D01*
X193147Y541103D01*
X193161Y541048D01*
Y541020D01*
Y540993D01*
Y540979D01*
Y540091D01*
X193147Y539814D01*
X193091Y539578D01*
X193022Y539370D01*
X192939Y539203D01*
X192869Y539065D01*
X192800Y538968D01*
X192745Y538898D01*
X192731Y538885D01*
X192550Y538746D01*
X192356Y538649D01*
X192162Y538565D01*
X191954Y538524D01*
X191788Y538496D01*
X191635Y538482D01*
X191580Y538468D01*
X190151D01*
Y537872D01*
Y537761D01*
X190179Y537664D01*
X190193Y537581D01*
X190221Y537525D01*
X190248Y537470D01*
X190262Y537442D01*
X190290Y537428D01*
Y537414D01*
X190345Y537373D01*
X190415Y537345D01*
X190553Y537304D01*
X190623D01*
X190678Y537290D01*
X192634D01*
X192703Y537276D01*
X192758Y537262D01*
X192800Y537220D01*
X192828Y537192D01*
X192855Y537109D01*
Y537095D01*
Y537082D01*
Y536402D01*
X192842Y536333D01*
X192814Y536277D01*
X192786Y536250D01*
X192745Y536222D01*
X192661Y536194D01*
X190526D01*
X190248Y536208D01*
X189999Y536263D01*
X189791Y536333D01*
X189624Y536402D01*
X189485Y536485D01*
X189388Y536541D01*
X189319Y536596D01*
X189305Y536610D01*
X189167Y536777D01*
X189056Y536971D01*
X188986Y537179D01*
X188931Y537373D01*
X188903Y537539D01*
X188875Y537692D01*
Y537747D01*
Y537789D01*
Y537803D01*
Y537817D01*
Y540979D01*
X188889Y541256D01*
X188945Y541506D01*
X189014Y541714D01*
X189083Y541880D01*
X189167Y542019D01*
X189236Y542102D01*
X189291Y542171D01*
X189305Y542185D01*
X189485Y542324D01*
X189680Y542421D01*
X189874Y542504D01*
X190082Y542546D01*
X190248Y542574D01*
X190401Y542601D01*
X191510D01*
X191788Y542587D01*
D02*
G37*
G36*
X145582Y542574D02*
X145707Y542532D01*
X145762Y542504D01*
X145804Y542490D01*
X145831Y542463D01*
X145845D01*
X146747Y541894D01*
X146802Y541866D01*
X146830Y541825D01*
X146885Y541741D01*
X146899Y541672D01*
Y541658D01*
Y541644D01*
Y540826D01*
X146885Y540757D01*
X146871Y540715D01*
X146830Y540687D01*
X146719D01*
X146705Y540701D01*
X146691D01*
X145707Y541256D01*
Y536402D01*
X145693Y536333D01*
X145679Y536277D01*
X145637Y536250D01*
X145596Y536222D01*
X145526Y536194D01*
X144639D01*
X144569Y536208D01*
X144514Y536222D01*
X144500Y536236D01*
X144486D01*
X144458Y536277D01*
X144445Y536333D01*
Y536388D01*
Y536402D01*
Y542393D01*
X144458Y542463D01*
X144472Y542518D01*
X144514Y542546D01*
X144542Y542574D01*
X144625Y542601D01*
X145457D01*
X145582Y542574D01*
D02*
G37*
G36*
X156593Y542587D02*
X156649Y542574D01*
X156676Y542532D01*
X156704Y542504D01*
X156732Y542421D01*
Y542407D01*
Y542393D01*
Y541714D01*
X156718Y541644D01*
X156704Y541589D01*
X156663Y541561D01*
X156621Y541533D01*
X156552Y541506D01*
X155387D01*
X155317Y541492D01*
X155290Y541450D01*
X155276Y541409D01*
Y541395D01*
Y536402D01*
X155262Y536333D01*
X155234Y536277D01*
X155206Y536250D01*
X155165Y536222D01*
X155082Y536194D01*
X154208D01*
X154138Y536208D01*
X154083Y536222D01*
X154055Y536263D01*
X154028Y536305D01*
X154000Y536374D01*
Y536388D01*
Y536402D01*
Y541395D01*
X153986Y541464D01*
X153944Y541492D01*
X153903Y541506D01*
X152752D01*
X152682Y541520D01*
X152627Y541533D01*
X152585Y541575D01*
X152557Y541617D01*
X152530Y541686D01*
Y541700D01*
Y541714D01*
Y542393D01*
X152544Y542463D01*
X152557Y542518D01*
X152599Y542546D01*
X152641Y542574D01*
X152710Y542601D01*
X156524D01*
X156593Y542587D01*
D02*
G37*
G36*
X151642D02*
X151698Y542574D01*
X151725Y542532D01*
X151753Y542504D01*
X151781Y542421D01*
Y542407D01*
Y542393D01*
Y536402D01*
X151767Y536333D01*
X151753Y536277D01*
X151712Y536250D01*
X151670Y536222D01*
X151601Y536194D01*
X150713D01*
X150644Y536208D01*
X150588Y536222D01*
X150560Y536263D01*
X150533Y536305D01*
X150505Y536374D01*
Y536388D01*
Y536402D01*
Y538288D01*
X150491Y538358D01*
X150449Y538385D01*
X150408Y538399D01*
X149132D01*
X148855Y538413D01*
X148619Y538468D01*
X148411Y538538D01*
X148230Y538607D01*
X148106Y538690D01*
X148009Y538746D01*
X147939Y538801D01*
X147925Y538815D01*
X147787Y538995D01*
X147676Y539190D01*
X147606Y539384D01*
X147551Y539578D01*
X147523Y539758D01*
X147495Y539897D01*
Y539952D01*
Y539994D01*
Y540008D01*
Y540022D01*
Y540979D01*
X147509Y541256D01*
X147565Y541492D01*
X147634Y541700D01*
X147704Y541866D01*
X147787Y542005D01*
X147856Y542088D01*
X147912Y542157D01*
X147925Y542171D01*
X148106Y542310D01*
X148300Y542421D01*
X148494Y542490D01*
X148688Y542546D01*
X148869Y542574D01*
X149007Y542601D01*
X151573D01*
X151642Y542587D01*
D02*
G37*
G36*
X141906D02*
X142156Y542546D01*
X142364Y542476D01*
X142531Y542407D01*
X142669Y542338D01*
X142766Y542268D01*
X142836Y542227D01*
X142850Y542213D01*
X142988Y542047D01*
X143085Y541866D01*
X143169Y541672D01*
X143210Y541492D01*
X143238Y541325D01*
X143252Y541187D01*
X143266Y541131D01*
Y541090D01*
Y541076D01*
Y541062D01*
Y540632D01*
X143252Y540466D01*
X143238Y540313D01*
X143210Y540174D01*
X143169Y540049D01*
X143058Y539827D01*
X142933Y539675D01*
X142822Y539550D01*
X142711Y539467D01*
X142642Y539425D01*
X142614Y539412D01*
X142725Y539356D01*
X142822Y539273D01*
X142988Y539106D01*
X143099Y538898D01*
X143182Y538704D01*
X143224Y538510D01*
X143252Y538358D01*
X143266Y538288D01*
Y538246D01*
Y538219D01*
Y538205D01*
Y537747D01*
X143252Y537470D01*
X143196Y537234D01*
X143127Y537040D01*
X143058Y536874D01*
X142974Y536749D01*
X142919Y536652D01*
X142864Y536596D01*
X142850Y536582D01*
X142669Y536457D01*
X142475Y536360D01*
X142281Y536291D01*
X142073Y536250D01*
X141906Y536222D01*
X141754Y536194D01*
X140561D01*
X140284Y536208D01*
X140034Y536250D01*
X139826Y536319D01*
X139660Y536388D01*
X139521Y536457D01*
X139438Y536527D01*
X139369Y536568D01*
X139355Y536582D01*
X139216Y536749D01*
X139105Y536929D01*
X139036Y537123D01*
X138980Y537317D01*
X138953Y537484D01*
X138925Y537622D01*
Y537678D01*
Y537719D01*
Y537733D01*
Y537747D01*
Y538191D01*
Y538358D01*
X138953Y538524D01*
X138980Y538663D01*
X139022Y538787D01*
X139133Y538995D01*
X139244Y539162D01*
X139369Y539273D01*
X139480Y539356D01*
X139549Y539398D01*
X139563Y539412D01*
X139577D01*
X139466Y539453D01*
X139382Y539522D01*
X139230Y539661D01*
X139174Y539717D01*
X139133Y539772D01*
X139119Y539814D01*
X139105Y539827D01*
X139050Y539952D01*
X138994Y540091D01*
X138966Y540230D01*
X138953Y540354D01*
X138939Y540466D01*
X138925Y540549D01*
Y540618D01*
Y540632D01*
Y541062D01*
X138939Y541325D01*
X138994Y541561D01*
X139064Y541755D01*
X139133Y541922D01*
X139216Y542047D01*
X139285Y542144D01*
X139341Y542199D01*
X139355Y542213D01*
X139521Y542338D01*
X139715Y542435D01*
X139923Y542504D01*
X140118Y542560D01*
X140284Y542587D01*
X140436Y542601D01*
X141629D01*
X141906Y542587D01*
D02*
G37*
G36*
X294934Y402365D02*
X295058Y402324D01*
X295114Y402296D01*
X295156Y402282D01*
X295183Y402254D01*
X295197D01*
X296099Y401686D01*
X296154Y401658D01*
X296182Y401617D01*
X296237Y401533D01*
X296251Y401464D01*
Y401450D01*
Y401436D01*
Y400618D01*
X296237Y400549D01*
X296223Y400507D01*
X296182Y400479D01*
X296071D01*
X296057Y400493D01*
X296043D01*
X295058Y401048D01*
Y396194D01*
X295045Y396125D01*
X295031Y396069D01*
X294989Y396041D01*
X294947Y396014D01*
X294878Y395986D01*
X293991D01*
X293921Y396000D01*
X293866Y396014D01*
X293852Y396028D01*
X293838D01*
X293810Y396069D01*
X293797Y396125D01*
Y396180D01*
Y396194D01*
Y402185D01*
X293810Y402254D01*
X293824Y402310D01*
X293866Y402338D01*
X293894Y402365D01*
X293977Y402393D01*
X294809D01*
X294934Y402365D01*
D02*
G37*
G36*
X305945Y402379D02*
X306001Y402365D01*
X306028Y402324D01*
X306056Y402296D01*
X306084Y402213D01*
Y402199D01*
Y402185D01*
Y401506D01*
X306070Y401436D01*
X306056Y401381D01*
X306014Y401353D01*
X305973Y401325D01*
X305904Y401298D01*
X304739D01*
X304669Y401284D01*
X304642Y401242D01*
X304628Y401200D01*
Y401187D01*
Y396194D01*
X304614Y396125D01*
X304586Y396069D01*
X304558Y396041D01*
X304517Y396014D01*
X304433Y395986D01*
X303560D01*
X303491Y396000D01*
X303435Y396014D01*
X303407Y396055D01*
X303379Y396097D01*
X303352Y396166D01*
Y396180D01*
Y396194D01*
Y401187D01*
X303338Y401256D01*
X303296Y401284D01*
X303255Y401298D01*
X302104D01*
X302034Y401311D01*
X301979Y401325D01*
X301937Y401367D01*
X301910Y401409D01*
X301882Y401478D01*
Y401492D01*
Y401506D01*
Y402185D01*
X301896Y402254D01*
X301910Y402310D01*
X301951Y402338D01*
X301993Y402365D01*
X302062Y402393D01*
X305876D01*
X305945Y402379D01*
D02*
G37*
G36*
X300994D02*
X301050Y402365D01*
X301077Y402324D01*
X301105Y402296D01*
X301133Y402213D01*
Y402199D01*
Y402185D01*
Y396194D01*
X301119Y396125D01*
X301105Y396069D01*
X301063Y396041D01*
X301022Y396014D01*
X300953Y395986D01*
X300065D01*
X299996Y396000D01*
X299940Y396014D01*
X299912Y396055D01*
X299885Y396097D01*
X299857Y396166D01*
Y396180D01*
Y396194D01*
Y398080D01*
X299843Y398149D01*
X299802Y398177D01*
X299760Y398191D01*
X298484D01*
X298207Y398205D01*
X297971Y398260D01*
X297763Y398330D01*
X297582Y398399D01*
X297458Y398482D01*
X297361Y398538D01*
X297291Y398593D01*
X297277Y398607D01*
X297139Y398787D01*
X297028Y398982D01*
X296959Y399176D01*
X296903Y399370D01*
X296875Y399550D01*
X296847Y399689D01*
Y399744D01*
Y399786D01*
Y399800D01*
Y399814D01*
Y400771D01*
X296861Y401048D01*
X296917Y401284D01*
X296986Y401492D01*
X297055Y401658D01*
X297139Y401797D01*
X297208Y401880D01*
X297264Y401949D01*
X297277Y401963D01*
X297458Y402102D01*
X297652Y402213D01*
X297846Y402282D01*
X298040Y402338D01*
X298221Y402365D01*
X298359Y402393D01*
X300925D01*
X300994Y402379D01*
D02*
G37*
G36*
X292826D02*
X292881Y402365D01*
X292909Y402324D01*
X292937Y402296D01*
X292964Y402213D01*
Y402199D01*
Y402185D01*
Y401450D01*
X292950Y401381D01*
X292937Y401325D01*
X292895Y401298D01*
X292853Y401270D01*
X292784Y401242D01*
X290399D01*
X292507Y396194D01*
X292534Y396125D01*
Y396069D01*
Y396041D01*
Y396028D01*
X292493Y396000D01*
X292451Y395986D01*
X291467D01*
X291369Y396000D01*
X291300Y396014D01*
X291245Y396041D01*
X291189Y396083D01*
X291134Y396139D01*
X291120Y396152D01*
Y396166D01*
X289192Y400812D01*
X289109Y401034D01*
X289081Y401131D01*
X289067Y401214D01*
X289053Y401270D01*
Y401311D01*
Y401339D01*
Y401353D01*
Y402185D01*
X289067Y402254D01*
X289081Y402310D01*
X289123Y402338D01*
X289151Y402365D01*
X289234Y402393D01*
X292756D01*
X292826Y402379D01*
D02*
G37*
G36*
X265470Y412525D02*
X265595Y412484D01*
X265650Y412456D01*
X265692Y412442D01*
X265719Y412415D01*
X265733D01*
X266635Y411846D01*
X266690Y411818D01*
X266718Y411777D01*
X266773Y411693D01*
X266787Y411624D01*
Y411610D01*
Y411596D01*
Y410778D01*
X266773Y410709D01*
X266759Y410667D01*
X266718Y410639D01*
X266607D01*
X266593Y410653D01*
X266579D01*
X265595Y411208D01*
Y406354D01*
X265581Y406285D01*
X265567Y406229D01*
X265525Y406202D01*
X265483Y406174D01*
X265414Y406146D01*
X264527D01*
X264457Y406160D01*
X264402Y406174D01*
X264388Y406188D01*
X264374D01*
X264346Y406229D01*
X264333Y406285D01*
Y406340D01*
Y406354D01*
Y412345D01*
X264346Y412415D01*
X264360Y412470D01*
X264402Y412498D01*
X264429Y412525D01*
X264513Y412553D01*
X265345D01*
X265470Y412525D01*
D02*
G37*
G36*
X276481Y412539D02*
X276537Y412525D01*
X276564Y412484D01*
X276592Y412456D01*
X276620Y412373D01*
Y412359D01*
Y412345D01*
Y411666D01*
X276606Y411596D01*
X276592Y411541D01*
X276551Y411513D01*
X276509Y411485D01*
X276440Y411458D01*
X275275D01*
X275205Y411444D01*
X275178Y411402D01*
X275164Y411361D01*
Y411347D01*
Y406354D01*
X275150Y406285D01*
X275122Y406229D01*
X275094Y406202D01*
X275053Y406174D01*
X274970Y406146D01*
X274096D01*
X274027Y406160D01*
X273971Y406174D01*
X273943Y406215D01*
X273916Y406257D01*
X273888Y406326D01*
Y406340D01*
Y406354D01*
Y411347D01*
X273874Y411416D01*
X273832Y411444D01*
X273791Y411458D01*
X272640D01*
X272570Y411471D01*
X272515Y411485D01*
X272473Y411527D01*
X272446Y411568D01*
X272418Y411638D01*
Y411652D01*
Y411666D01*
Y412345D01*
X272432Y412415D01*
X272446Y412470D01*
X272487Y412498D01*
X272529Y412525D01*
X272598Y412553D01*
X276412D01*
X276481Y412539D01*
D02*
G37*
G36*
X271530D02*
X271586Y412525D01*
X271613Y412484D01*
X271641Y412456D01*
X271669Y412373D01*
Y412359D01*
Y412345D01*
Y406354D01*
X271655Y406285D01*
X271641Y406229D01*
X271600Y406202D01*
X271558Y406174D01*
X271489Y406146D01*
X270601D01*
X270532Y406160D01*
X270476Y406174D01*
X270448Y406215D01*
X270421Y406257D01*
X270393Y406326D01*
Y406340D01*
Y406354D01*
Y408240D01*
X270379Y408310D01*
X270338Y408337D01*
X270296Y408351D01*
X269020D01*
X268743Y408365D01*
X268507Y408420D01*
X268299Y408490D01*
X268118Y408559D01*
X267994Y408642D01*
X267897Y408698D01*
X267827Y408753D01*
X267813Y408767D01*
X267675Y408947D01*
X267564Y409142D01*
X267495Y409336D01*
X267439Y409530D01*
X267411Y409710D01*
X267383Y409849D01*
Y409904D01*
Y409946D01*
Y409960D01*
Y409974D01*
Y410931D01*
X267397Y411208D01*
X267453Y411444D01*
X267522Y411652D01*
X267591Y411818D01*
X267675Y411957D01*
X267744Y412040D01*
X267800Y412109D01*
X267813Y412123D01*
X267994Y412262D01*
X268188Y412373D01*
X268382Y412442D01*
X268576Y412498D01*
X268757Y412525D01*
X268895Y412553D01*
X271461D01*
X271530Y412539D01*
D02*
G37*
G36*
X261794D02*
X262044Y412484D01*
X262252Y412428D01*
X262419Y412345D01*
X262557Y412276D01*
X262654Y412206D01*
X262724Y412151D01*
X262738Y412137D01*
X262876Y411971D01*
X262987Y411777D01*
X263057Y411568D01*
X263112Y411374D01*
X263140Y411208D01*
X263154Y411055D01*
X263167Y411000D01*
Y410972D01*
Y410945D01*
Y410931D01*
Y407769D01*
X263154Y407491D01*
X263098Y407242D01*
X263029Y407034D01*
X262946Y406867D01*
X262876Y406742D01*
X262807Y406645D01*
X262752Y406576D01*
X262738Y406562D01*
X262557Y406423D01*
X262363Y406326D01*
X262169Y406243D01*
X261961Y406202D01*
X261794Y406174D01*
X261642Y406160D01*
X261586Y406146D01*
X260546D01*
X260269Y406160D01*
X260019Y406215D01*
X259811Y406285D01*
X259645Y406354D01*
X259506Y406437D01*
X259409Y406493D01*
X259340Y406548D01*
X259326Y406562D01*
X259187Y406729D01*
X259076Y406923D01*
X259007Y407131D01*
X258951Y407325D01*
X258924Y407491D01*
X258896Y407644D01*
Y407699D01*
Y407741D01*
Y407755D01*
Y407769D01*
Y408573D01*
X258910Y408850D01*
X258965Y409100D01*
X259035Y409308D01*
X259104Y409474D01*
X259187Y409613D01*
X259257Y409696D01*
X259312Y409766D01*
X259326Y409780D01*
X259506Y409918D01*
X259700Y410029D01*
X259895Y410098D01*
X260103Y410154D01*
X260269Y410182D01*
X260422Y410209D01*
X261905D01*
Y410875D01*
Y410986D01*
X261878Y411083D01*
X261864Y411152D01*
X261836Y411222D01*
X261808Y411263D01*
X261794Y411291D01*
X261767Y411319D01*
X261711Y411361D01*
X261642Y411402D01*
X261489Y411444D01*
X261420Y411458D01*
X259478D01*
X259409Y411471D01*
X259354Y411485D01*
X259326Y411527D01*
X259298Y411568D01*
X259270Y411638D01*
Y411652D01*
Y411666D01*
Y412345D01*
X259284Y412415D01*
X259298Y412470D01*
X259340Y412498D01*
X259368Y412525D01*
X259451Y412553D01*
X261517D01*
X261794Y412539D01*
D02*
G37*
G36*
X259882Y377981D02*
X260007Y377940D01*
X260062Y377912D01*
X260104Y377898D01*
X260131Y377870D01*
X260145D01*
X261047Y377302D01*
X261102Y377274D01*
X261130Y377233D01*
X261185Y377149D01*
X261199Y377080D01*
Y377066D01*
Y377052D01*
Y376234D01*
X261185Y376165D01*
X261171Y376123D01*
X261130Y376095D01*
X261019D01*
X261005Y376109D01*
X260991D01*
X260007Y376664D01*
Y371810D01*
X259993Y371741D01*
X259979Y371685D01*
X259937Y371657D01*
X259895Y371630D01*
X259826Y371602D01*
X258939D01*
X258869Y371616D01*
X258814Y371630D01*
X258800Y371644D01*
X258786D01*
X258758Y371685D01*
X258745Y371741D01*
Y371796D01*
Y371810D01*
Y377801D01*
X258758Y377870D01*
X258772Y377926D01*
X258814Y377954D01*
X258841Y377981D01*
X258925Y378009D01*
X259757D01*
X259882Y377981D01*
D02*
G37*
G36*
X257413Y377995D02*
X257469Y377981D01*
X257510Y377940D01*
X257538Y377912D01*
X257566Y377829D01*
Y377815D01*
Y377801D01*
Y374639D01*
X257552Y374570D01*
X257524Y374528D01*
X257455Y374473D01*
X257372Y374445D01*
X256525D01*
X256470Y374459D01*
X256415Y374473D01*
X256318Y374556D01*
X256262Y374625D01*
X256234Y374639D01*
Y374653D01*
X256179Y374722D01*
X256110Y374778D01*
X256054Y374806D01*
X255985Y374833D01*
X255929Y374847D01*
X255888Y374861D01*
X255250D01*
X255139Y374833D01*
X255042Y374819D01*
X254972Y374792D01*
X254931Y374764D01*
X254889Y374736D01*
X254861Y374722D01*
Y374709D01*
X254806Y374639D01*
X254778Y374556D01*
X254723Y374362D01*
Y374265D01*
X254709Y374195D01*
Y374140D01*
Y374126D01*
Y373238D01*
Y373128D01*
X254736Y373030D01*
X254750Y372947D01*
X254778Y372892D01*
X254806Y372836D01*
X254834Y372809D01*
X254847Y372795D01*
X254861Y372781D01*
X254931Y372739D01*
X255000Y372711D01*
X255153Y372670D01*
X255222D01*
X255277Y372656D01*
X255915D01*
X255998Y372670D01*
X256082Y372698D01*
X256137Y372725D01*
X256193Y372739D01*
X256220Y372767D01*
X256248Y372781D01*
X256290Y372836D01*
X256331Y372906D01*
X256373Y373058D01*
Y373128D01*
X256387Y373183D01*
Y373225D01*
Y373238D01*
Y373419D01*
X256401Y373488D01*
X256415Y373544D01*
X256456Y373585D01*
X256484Y373613D01*
X256567Y373641D01*
X257441D01*
X257510Y373627D01*
X257566Y373613D01*
X257593Y373571D01*
X257621Y373530D01*
X257649Y373460D01*
Y373433D01*
Y373419D01*
Y373225D01*
X257635Y372947D01*
X257579Y372698D01*
X257510Y372490D01*
X257427Y372323D01*
X257358Y372198D01*
X257288Y372101D01*
X257233Y372032D01*
X257219Y372018D01*
X257039Y371879D01*
X256845Y371782D01*
X256650Y371699D01*
X256442Y371657D01*
X256276Y371630D01*
X256123Y371616D01*
X256068Y371602D01*
X255125D01*
X254847Y371616D01*
X254612Y371671D01*
X254404Y371741D01*
X254223Y371810D01*
X254099Y371893D01*
X254002Y371949D01*
X253932Y372004D01*
X253918Y372018D01*
X253780Y372198D01*
X253669Y372393D01*
X253599Y372587D01*
X253544Y372781D01*
X253516Y372961D01*
X253488Y373100D01*
Y373155D01*
Y373197D01*
Y373211D01*
Y373225D01*
Y374320D01*
X253502Y374598D01*
X253558Y374833D01*
X253627Y375041D01*
X253724Y375222D01*
X253849Y375374D01*
X253974Y375499D01*
X254112Y375596D01*
X254251Y375679D01*
X254404Y375749D01*
X254542Y375790D01*
X254667Y375832D01*
X254792Y375846D01*
X254889Y375860D01*
X254958Y375873D01*
X255458D01*
X255679Y375846D01*
X255874Y375790D01*
X256012Y375721D01*
X256123Y375624D01*
X256206Y375527D01*
X256248Y375457D01*
X256276Y375402D01*
X256290Y375374D01*
Y376844D01*
X253877D01*
X253807Y376858D01*
X253752Y376872D01*
X253724Y376914D01*
X253696Y376955D01*
X253669Y377024D01*
Y377038D01*
Y377052D01*
Y377801D01*
X253682Y377870D01*
X253696Y377926D01*
X253738Y377954D01*
X253766Y377981D01*
X253849Y378009D01*
X257344D01*
X257413Y377995D01*
D02*
G37*
G36*
X270893D02*
X270949Y377981D01*
X270976Y377940D01*
X271004Y377912D01*
X271032Y377829D01*
Y377815D01*
Y377801D01*
Y377122D01*
X271018Y377052D01*
X271004Y376997D01*
X270963Y376969D01*
X270921Y376941D01*
X270852Y376914D01*
X269687D01*
X269617Y376900D01*
X269590Y376858D01*
X269576Y376816D01*
Y376803D01*
Y371810D01*
X269562Y371741D01*
X269534Y371685D01*
X269506Y371657D01*
X269465Y371630D01*
X269382Y371602D01*
X268508D01*
X268438Y371616D01*
X268383Y371630D01*
X268355Y371671D01*
X268328Y371713D01*
X268300Y371782D01*
Y371796D01*
Y371810D01*
Y376803D01*
X268286Y376872D01*
X268244Y376900D01*
X268203Y376914D01*
X267052D01*
X266982Y376927D01*
X266927Y376941D01*
X266885Y376983D01*
X266857Y377024D01*
X266830Y377094D01*
Y377108D01*
Y377122D01*
Y377801D01*
X266844Y377870D01*
X266857Y377926D01*
X266899Y377954D01*
X266941Y377981D01*
X267010Y378009D01*
X270824D01*
X270893Y377995D01*
D02*
G37*
G36*
X265942D02*
X265998Y377981D01*
X266025Y377940D01*
X266053Y377912D01*
X266081Y377829D01*
Y377815D01*
Y377801D01*
Y371810D01*
X266067Y371741D01*
X266053Y371685D01*
X266012Y371657D01*
X265970Y371630D01*
X265901Y371602D01*
X265013D01*
X264944Y371616D01*
X264888Y371630D01*
X264860Y371671D01*
X264833Y371713D01*
X264805Y371782D01*
Y371796D01*
Y371810D01*
Y373696D01*
X264791Y373765D01*
X264750Y373793D01*
X264708Y373807D01*
X263432D01*
X263155Y373821D01*
X262919Y373876D01*
X262711Y373946D01*
X262530Y374015D01*
X262406Y374098D01*
X262309Y374154D01*
X262239Y374209D01*
X262225Y374223D01*
X262087Y374403D01*
X261976Y374598D01*
X261907Y374792D01*
X261851Y374986D01*
X261823Y375166D01*
X261796Y375305D01*
Y375360D01*
Y375402D01*
Y375416D01*
Y375430D01*
Y376387D01*
X261809Y376664D01*
X261865Y376900D01*
X261934Y377108D01*
X262003Y377274D01*
X262087Y377413D01*
X262156Y377496D01*
X262212Y377565D01*
X262225Y377579D01*
X262406Y377718D01*
X262600Y377829D01*
X262794Y377898D01*
X262988Y377954D01*
X263169Y377981D01*
X263307Y378009D01*
X265873D01*
X265942Y377995D01*
D02*
G37*
G36*
X196128Y412525D02*
X196252Y412484D01*
X196308Y412456D01*
X196350Y412442D01*
X196377Y412415D01*
X196391D01*
X197293Y411846D01*
X197348Y411818D01*
X197376Y411777D01*
X197431Y411693D01*
X197445Y411624D01*
Y411610D01*
Y411596D01*
Y410778D01*
X197431Y410709D01*
X197417Y410667D01*
X197376Y410639D01*
X197265D01*
X197251Y410653D01*
X197237D01*
X196252Y411208D01*
Y406354D01*
X196239Y406285D01*
X196225Y406229D01*
X196183Y406202D01*
X196141Y406174D01*
X196072Y406146D01*
X195185D01*
X195115Y406160D01*
X195060Y406174D01*
X195046Y406188D01*
X195032D01*
X195004Y406229D01*
X194991Y406285D01*
Y406340D01*
Y406354D01*
Y412345D01*
X195004Y412415D01*
X195018Y412470D01*
X195060Y412498D01*
X195088Y412525D01*
X195171Y412553D01*
X196003D01*
X196128Y412525D01*
D02*
G37*
G36*
X207139Y412539D02*
X207195Y412525D01*
X207222Y412484D01*
X207250Y412456D01*
X207278Y412373D01*
Y412359D01*
Y412345D01*
Y411666D01*
X207264Y411596D01*
X207250Y411541D01*
X207208Y411513D01*
X207167Y411485D01*
X207098Y411458D01*
X205933D01*
X205863Y411444D01*
X205836Y411402D01*
X205822Y411361D01*
Y411347D01*
Y406354D01*
X205808Y406285D01*
X205780Y406229D01*
X205752Y406202D01*
X205711Y406174D01*
X205627Y406146D01*
X204754D01*
X204685Y406160D01*
X204629Y406174D01*
X204601Y406215D01*
X204573Y406257D01*
X204546Y406326D01*
Y406340D01*
Y406354D01*
Y411347D01*
X204532Y411416D01*
X204490Y411444D01*
X204449Y411458D01*
X203298D01*
X203228Y411471D01*
X203173Y411485D01*
X203131Y411527D01*
X203104Y411568D01*
X203076Y411638D01*
Y411652D01*
Y411666D01*
Y412345D01*
X203090Y412415D01*
X203104Y412470D01*
X203145Y412498D01*
X203187Y412525D01*
X203256Y412553D01*
X207070D01*
X207139Y412539D01*
D02*
G37*
G36*
X202188D02*
X202244Y412525D01*
X202271Y412484D01*
X202299Y412456D01*
X202327Y412373D01*
Y412359D01*
Y412345D01*
Y406354D01*
X202313Y406285D01*
X202299Y406229D01*
X202257Y406202D01*
X202216Y406174D01*
X202147Y406146D01*
X201259D01*
X201190Y406160D01*
X201134Y406174D01*
X201106Y406215D01*
X201079Y406257D01*
X201051Y406326D01*
Y406340D01*
Y406354D01*
Y408240D01*
X201037Y408310D01*
X200996Y408337D01*
X200954Y408351D01*
X199678D01*
X199401Y408365D01*
X199165Y408420D01*
X198957Y408490D01*
X198776Y408559D01*
X198652Y408642D01*
X198555Y408698D01*
X198485Y408753D01*
X198471Y408767D01*
X198333Y408947D01*
X198222Y409142D01*
X198153Y409336D01*
X198097Y409530D01*
X198069Y409710D01*
X198041Y409849D01*
Y409904D01*
Y409946D01*
Y409960D01*
Y409974D01*
Y410931D01*
X198055Y411208D01*
X198111Y411444D01*
X198180Y411652D01*
X198249Y411818D01*
X198333Y411957D01*
X198402Y412040D01*
X198458Y412109D01*
X198471Y412123D01*
X198652Y412262D01*
X198846Y412373D01*
X199040Y412442D01*
X199234Y412498D01*
X199415Y412525D01*
X199553Y412553D01*
X202119D01*
X202188Y412539D01*
D02*
G37*
G36*
X191607D02*
X191676Y412525D01*
X191731Y412498D01*
X191745Y412484D01*
X191815Y412428D01*
X191870Y412345D01*
X191912Y412276D01*
X191926Y412262D01*
Y412248D01*
X193923Y408559D01*
X193978Y408406D01*
X194006Y408240D01*
X194020Y408171D01*
Y408115D01*
Y408074D01*
Y408060D01*
Y407672D01*
X194006Y407561D01*
X193964Y407477D01*
X193937Y407422D01*
X193923Y407408D01*
X193825Y407353D01*
X193742Y407325D01*
X193673Y407311D01*
X191177D01*
Y406354D01*
X191163Y406285D01*
X191135Y406229D01*
X191107Y406202D01*
X191066Y406174D01*
X190982Y406146D01*
X190178D01*
X190109Y406160D01*
X190053Y406174D01*
X190039Y406188D01*
X190026D01*
X189998Y406229D01*
X189984Y406285D01*
Y406340D01*
Y406354D01*
Y407311D01*
X189263D01*
X189193Y407325D01*
X189152Y407353D01*
X189096Y407422D01*
X189069Y407505D01*
Y407519D01*
Y407533D01*
Y408212D01*
X189083Y408282D01*
X189096Y408323D01*
X189166Y408379D01*
X189235Y408406D01*
X189984D01*
Y412193D01*
X189998Y412304D01*
X190039Y412387D01*
X190081Y412442D01*
X190095Y412456D01*
X190178Y412512D01*
X190261Y412539D01*
X190331Y412553D01*
X191496D01*
X191607Y412539D01*
D02*
G37*
G36*
X75224Y302544D02*
X75349Y302502D01*
X75404Y302474D01*
X75446Y302460D01*
X75473Y302432D01*
X75487D01*
X76389Y301864D01*
X76444Y301836D01*
X76472Y301795D01*
X76527Y301711D01*
X76541Y301642D01*
Y301628D01*
Y301614D01*
Y300796D01*
X76527Y300727D01*
X76513Y300685D01*
X76472Y300657D01*
X76361D01*
X76347Y300671D01*
X76333D01*
X75349Y301226D01*
Y296372D01*
X75335Y296303D01*
X75321Y296247D01*
X75279Y296220D01*
X75237Y296192D01*
X75168Y296164D01*
X74281D01*
X74211Y296178D01*
X74156Y296192D01*
X74142Y296206D01*
X74128D01*
X74100Y296247D01*
X74086Y296303D01*
Y296358D01*
Y296372D01*
Y302363D01*
X74100Y302432D01*
X74114Y302488D01*
X74156Y302516D01*
X74184Y302544D01*
X74267Y302571D01*
X75099D01*
X75224Y302544D01*
D02*
G37*
G36*
X71701Y302557D02*
X71951Y302502D01*
X72159Y302446D01*
X72325Y302363D01*
X72464Y302294D01*
X72561Y302225D01*
X72630Y302169D01*
X72644Y302155D01*
X72783Y301989D01*
X72894Y301795D01*
X72963Y301600D01*
X73019Y301406D01*
X73046Y301226D01*
X73060Y301087D01*
X73074Y301032D01*
Y300990D01*
Y300976D01*
Y300963D01*
Y300685D01*
X73060Y300616D01*
X73046Y300560D01*
X73005Y300532D01*
X72963Y300505D01*
X72894Y300477D01*
X72020D01*
X71951Y300491D01*
X71895Y300505D01*
X71854Y300546D01*
X71826Y300588D01*
X71798Y300657D01*
Y300671D01*
Y300685D01*
Y300935D01*
Y301046D01*
X71784Y301143D01*
X71757Y301212D01*
X71729Y301281D01*
X71715Y301323D01*
X71687Y301351D01*
X71673Y301378D01*
X71618Y301420D01*
X71549Y301462D01*
X71410Y301503D01*
X71340Y301517D01*
X70633D01*
X70536Y301490D01*
X70453Y301476D01*
X70384Y301448D01*
X70328Y301420D01*
X70300Y301406D01*
X70273Y301378D01*
X70217Y301323D01*
X70189Y301254D01*
X70134Y301115D01*
Y301046D01*
X70120Y300990D01*
Y300949D01*
Y300935D01*
Y300477D01*
Y300366D01*
X70148Y300269D01*
X70162Y300186D01*
X70189Y300130D01*
X70217Y300075D01*
X70245Y300047D01*
X70259Y300033D01*
X70273Y300019D01*
X70328Y299978D01*
X70398Y299950D01*
X70564Y299909D01*
X70633D01*
X70689Y299895D01*
X71257D01*
X71327Y299881D01*
X71382Y299867D01*
X71410Y299825D01*
X71438Y299784D01*
X71465Y299714D01*
Y299687D01*
Y299673D01*
Y299076D01*
X71452Y299007D01*
X71438Y298951D01*
X71396Y298924D01*
X71354Y298896D01*
X71285Y298868D01*
X70633D01*
X70536Y298841D01*
X70453Y298827D01*
X70384Y298799D01*
X70328Y298771D01*
X70300Y298757D01*
X70273Y298730D01*
X70217Y298674D01*
X70189Y298605D01*
X70134Y298452D01*
Y298397D01*
X70120Y298341D01*
Y298300D01*
Y298286D01*
Y297801D01*
Y297689D01*
X70148Y297592D01*
X70162Y297509D01*
X70189Y297454D01*
X70217Y297398D01*
X70245Y297371D01*
X70259Y297357D01*
X70273Y297343D01*
X70328Y297301D01*
X70398Y297274D01*
X70564Y297232D01*
X70633D01*
X70689Y297218D01*
X71340D01*
X71438Y297232D01*
X71507Y297260D01*
X71576Y297287D01*
X71618Y297301D01*
X71646Y297329D01*
X71673Y297343D01*
X71715Y297398D01*
X71743Y297468D01*
X71784Y297620D01*
Y297689D01*
X71798Y297745D01*
Y297787D01*
Y297801D01*
Y298050D01*
X71812Y298119D01*
X71826Y298175D01*
X71867Y298216D01*
X71909Y298244D01*
X71979Y298272D01*
X72866D01*
X72935Y298258D01*
X72991Y298244D01*
X73019Y298203D01*
X73046Y298161D01*
X73074Y298092D01*
Y298064D01*
Y298050D01*
Y297773D01*
X73060Y297495D01*
X73005Y297260D01*
X72935Y297052D01*
X72852Y296885D01*
X72783Y296747D01*
X72713Y296663D01*
X72658Y296594D01*
X72644Y296580D01*
X72464Y296441D01*
X72270Y296344D01*
X72076Y296261D01*
X71867Y296220D01*
X71701Y296192D01*
X71549Y296178D01*
X71493Y296164D01*
X70536D01*
X70259Y296178D01*
X70009Y296233D01*
X69801Y296303D01*
X69635Y296372D01*
X69496Y296455D01*
X69399Y296511D01*
X69330Y296566D01*
X69316Y296580D01*
X69177Y296747D01*
X69066Y296941D01*
X68997Y297135D01*
X68941Y297329D01*
X68914Y297509D01*
X68886Y297648D01*
Y297703D01*
Y297745D01*
Y297759D01*
Y297773D01*
Y298286D01*
X68900Y298452D01*
X68914Y298591D01*
X68955Y298730D01*
X69011Y298841D01*
X69066Y298938D01*
X69135Y299035D01*
X69274Y299173D01*
X69427Y299270D01*
X69552Y299326D01*
X69607Y299340D01*
X69649Y299354D01*
X69662Y299368D01*
X69676D01*
X69538Y299423D01*
X69413Y299492D01*
X69316Y299562D01*
X69219Y299645D01*
X69135Y299728D01*
X69080Y299825D01*
X68983Y300005D01*
X68927Y300186D01*
X68900Y300324D01*
X68886Y300380D01*
Y300422D01*
Y300449D01*
Y300463D01*
Y300963D01*
X68900Y301240D01*
X68955Y301476D01*
X69025Y301684D01*
X69094Y301850D01*
X69177Y301989D01*
X69246Y302072D01*
X69302Y302141D01*
X69316Y302155D01*
X69496Y302294D01*
X69690Y302391D01*
X69884Y302474D01*
X70092Y302516D01*
X70259Y302544D01*
X70411Y302571D01*
X71424D01*
X71701Y302557D01*
D02*
G37*
G36*
X86235D02*
X86291Y302544D01*
X86318Y302502D01*
X86346Y302474D01*
X86374Y302391D01*
Y302377D01*
Y302363D01*
Y301684D01*
X86360Y301614D01*
X86346Y301559D01*
X86305Y301531D01*
X86263Y301503D01*
X86194Y301476D01*
X85029D01*
X84959Y301462D01*
X84932Y301420D01*
X84918Y301378D01*
Y301365D01*
Y296372D01*
X84904Y296303D01*
X84876Y296247D01*
X84848Y296220D01*
X84807Y296192D01*
X84724Y296164D01*
X83850D01*
X83780Y296178D01*
X83725Y296192D01*
X83697Y296233D01*
X83670Y296275D01*
X83642Y296344D01*
Y296358D01*
Y296372D01*
Y301365D01*
X83628Y301434D01*
X83586Y301462D01*
X83545Y301476D01*
X82394D01*
X82324Y301490D01*
X82269Y301503D01*
X82227Y301545D01*
X82199Y301586D01*
X82172Y301656D01*
Y301670D01*
Y301684D01*
Y302363D01*
X82186Y302432D01*
X82199Y302488D01*
X82241Y302516D01*
X82283Y302544D01*
X82352Y302571D01*
X86166D01*
X86235Y302557D01*
D02*
G37*
G36*
X81284D02*
X81340Y302544D01*
X81367Y302502D01*
X81395Y302474D01*
X81423Y302391D01*
Y302377D01*
Y302363D01*
Y296372D01*
X81409Y296303D01*
X81395Y296247D01*
X81354Y296220D01*
X81312Y296192D01*
X81243Y296164D01*
X80355D01*
X80286Y296178D01*
X80230Y296192D01*
X80202Y296233D01*
X80175Y296275D01*
X80147Y296344D01*
Y296358D01*
Y296372D01*
Y298258D01*
X80133Y298328D01*
X80091Y298355D01*
X80050Y298369D01*
X78774D01*
X78497Y298383D01*
X78261Y298438D01*
X78053Y298508D01*
X77873Y298577D01*
X77748Y298660D01*
X77651Y298716D01*
X77581Y298771D01*
X77567Y298785D01*
X77429Y298965D01*
X77318Y299160D01*
X77249Y299354D01*
X77193Y299548D01*
X77165Y299728D01*
X77137Y299867D01*
Y299922D01*
Y299964D01*
Y299978D01*
Y299992D01*
Y300949D01*
X77151Y301226D01*
X77207Y301462D01*
X77276Y301670D01*
X77345Y301836D01*
X77429Y301975D01*
X77498Y302058D01*
X77554Y302127D01*
X77567Y302141D01*
X77748Y302280D01*
X77942Y302391D01*
X78136Y302460D01*
X78330Y302516D01*
X78510Y302544D01*
X78649Y302571D01*
X81215D01*
X81284Y302557D01*
D02*
G37*
G36*
X97068Y367313D02*
X97192Y367272D01*
X97248Y367244D01*
X97290Y367230D01*
X97317Y367202D01*
X97331D01*
X98233Y366634D01*
X98288Y366606D01*
X98316Y366565D01*
X98371Y366481D01*
X98385Y366412D01*
Y366398D01*
Y366384D01*
Y365566D01*
X98371Y365497D01*
X98357Y365455D01*
X98316Y365427D01*
X98205D01*
X98191Y365441D01*
X98177D01*
X97192Y365996D01*
Y361142D01*
X97179Y361073D01*
X97165Y361017D01*
X97123Y360989D01*
X97081Y360962D01*
X97012Y360934D01*
X96125D01*
X96055Y360948D01*
X96000Y360962D01*
X95986Y360976D01*
X95972D01*
X95944Y361017D01*
X95931Y361073D01*
Y361128D01*
Y361142D01*
Y367133D01*
X95944Y367202D01*
X95958Y367258D01*
X96000Y367286D01*
X96027Y367313D01*
X96111Y367341D01*
X96943D01*
X97068Y367313D01*
D02*
G37*
G36*
X93490Y367327D02*
X93739Y367272D01*
X93947Y367216D01*
X94114Y367133D01*
X94252Y367064D01*
X94349Y366995D01*
X94419Y366939D01*
X94433Y366925D01*
X94571Y366759D01*
X94682Y366565D01*
X94752Y366370D01*
X94807Y366176D01*
X94835Y365996D01*
X94849Y365857D01*
X94863Y365802D01*
Y365760D01*
Y365746D01*
Y365732D01*
Y365386D01*
X94849Y365316D01*
X94821Y365261D01*
X94793Y365233D01*
X94752Y365205D01*
X94668Y365178D01*
X93795D01*
X93725Y365192D01*
X93670Y365205D01*
X93642Y365247D01*
X93614Y365289D01*
X93587Y365358D01*
Y365372D01*
Y365386D01*
Y365705D01*
Y365816D01*
X93573Y365913D01*
X93545Y365982D01*
X93517Y366051D01*
X93504Y366093D01*
X93476Y366121D01*
X93462Y366148D01*
X93406Y366190D01*
X93337Y366232D01*
X93184Y366273D01*
X93115Y366287D01*
X92547D01*
X92450Y366259D01*
X92366Y366246D01*
X92297Y366218D01*
X92241Y366190D01*
X92214Y366176D01*
X92186Y366148D01*
X92130Y366093D01*
X92103Y366024D01*
X92047Y365885D01*
Y365816D01*
X92033Y365760D01*
Y365719D01*
Y365705D01*
Y365414D01*
X92047Y365261D01*
X92103Y365108D01*
X92172Y364970D01*
X92255Y364845D01*
X92352Y364748D01*
X92422Y364678D01*
X92477Y364623D01*
X92491Y364609D01*
X94322Y363056D01*
X94488Y362903D01*
X94613Y362737D01*
X94696Y362570D01*
X94752Y362418D01*
X94793Y362293D01*
X94807Y362182D01*
X94821Y362113D01*
Y362085D01*
Y361142D01*
X94807Y361073D01*
X94793Y361017D01*
X94752Y360989D01*
X94710Y360962D01*
X94641Y360934D01*
X91007D01*
X90938Y360948D01*
X90882Y360962D01*
X90855Y361003D01*
X90827Y361045D01*
X90799Y361114D01*
Y361128D01*
Y361142D01*
Y361835D01*
X90813Y361905D01*
X90827Y361960D01*
X90869Y361988D01*
X90896Y362016D01*
X90979Y362043D01*
X93392D01*
Y362210D01*
X93379Y362293D01*
X93337Y362376D01*
X93295Y362432D01*
X93282Y362446D01*
X91396Y364040D01*
X91285Y364138D01*
X91201Y364249D01*
X91049Y364457D01*
X90938Y364678D01*
X90869Y364873D01*
X90827Y365053D01*
X90813Y365205D01*
X90799Y365261D01*
Y365303D01*
Y365316D01*
Y365330D01*
Y365732D01*
X90813Y366010D01*
X90869Y366246D01*
X90938Y366454D01*
X91007Y366620D01*
X91090Y366759D01*
X91160Y366842D01*
X91215Y366911D01*
X91229Y366925D01*
X91409Y367064D01*
X91603Y367161D01*
X91798Y367244D01*
X92006Y367286D01*
X92172Y367313D01*
X92325Y367341D01*
X93212D01*
X93490Y367327D01*
D02*
G37*
G36*
X108079D02*
X108135Y367313D01*
X108162Y367272D01*
X108190Y367244D01*
X108218Y367161D01*
Y367147D01*
Y367133D01*
Y366454D01*
X108204Y366384D01*
X108190Y366329D01*
X108148Y366301D01*
X108107Y366273D01*
X108038Y366246D01*
X106873D01*
X106803Y366232D01*
X106776Y366190D01*
X106762Y366148D01*
Y366135D01*
Y361142D01*
X106748Y361073D01*
X106720Y361017D01*
X106692Y360989D01*
X106651Y360962D01*
X106567Y360934D01*
X105694D01*
X105625Y360948D01*
X105569Y360962D01*
X105541Y361003D01*
X105513Y361045D01*
X105486Y361114D01*
Y361128D01*
Y361142D01*
Y366135D01*
X105472Y366204D01*
X105430Y366232D01*
X105389Y366246D01*
X104238D01*
X104168Y366259D01*
X104113Y366273D01*
X104071Y366315D01*
X104044Y366357D01*
X104016Y366426D01*
Y366440D01*
Y366454D01*
Y367133D01*
X104030Y367202D01*
X104044Y367258D01*
X104085Y367286D01*
X104127Y367313D01*
X104196Y367341D01*
X108010D01*
X108079Y367327D01*
D02*
G37*
G36*
X103128D02*
X103184Y367313D01*
X103211Y367272D01*
X103239Y367244D01*
X103267Y367161D01*
Y367147D01*
Y367133D01*
Y361142D01*
X103253Y361073D01*
X103239Y361017D01*
X103197Y360989D01*
X103156Y360962D01*
X103087Y360934D01*
X102199D01*
X102130Y360948D01*
X102074Y360962D01*
X102046Y361003D01*
X102019Y361045D01*
X101991Y361114D01*
Y361128D01*
Y361142D01*
Y363028D01*
X101977Y363097D01*
X101936Y363125D01*
X101894Y363139D01*
X100618D01*
X100341Y363153D01*
X100105Y363208D01*
X99897Y363278D01*
X99717Y363347D01*
X99592Y363430D01*
X99495Y363486D01*
X99425Y363541D01*
X99411Y363555D01*
X99273Y363735D01*
X99162Y363930D01*
X99093Y364124D01*
X99037Y364318D01*
X99009Y364498D01*
X98982Y364637D01*
Y364692D01*
Y364734D01*
Y364748D01*
Y364762D01*
Y365719D01*
X98995Y365996D01*
X99051Y366232D01*
X99120Y366440D01*
X99190Y366606D01*
X99273Y366745D01*
X99342Y366828D01*
X99398Y366897D01*
X99411Y366911D01*
X99592Y367050D01*
X99786Y367161D01*
X99980Y367230D01*
X100174Y367286D01*
X100354Y367313D01*
X100493Y367341D01*
X103059D01*
X103128Y367327D01*
D02*
G37*
G36*
X79796Y342421D02*
X79921Y342380D01*
X79976Y342352D01*
X80018Y342338D01*
X80045Y342310D01*
X80059D01*
X80961Y341742D01*
X81016Y341714D01*
X81044Y341673D01*
X81099Y341589D01*
X81113Y341520D01*
Y341506D01*
Y341492D01*
Y340674D01*
X81099Y340605D01*
X81085Y340563D01*
X81044Y340535D01*
X80933D01*
X80919Y340549D01*
X80905D01*
X79921Y341104D01*
Y336250D01*
X79907Y336181D01*
X79893Y336125D01*
X79851Y336097D01*
X79809Y336070D01*
X79740Y336042D01*
X78853D01*
X78783Y336056D01*
X78728Y336070D01*
X78714Y336084D01*
X78700D01*
X78672Y336125D01*
X78658Y336181D01*
Y336236D01*
Y336250D01*
Y342241D01*
X78672Y342310D01*
X78686Y342366D01*
X78728Y342394D01*
X78755Y342421D01*
X78839Y342449D01*
X79671D01*
X79796Y342421D01*
D02*
G37*
G36*
X76467D02*
X76592Y342380D01*
X76648Y342352D01*
X76689Y342338D01*
X76717Y342310D01*
X76731D01*
X77632Y341742D01*
X77688Y341714D01*
X77715Y341673D01*
X77771Y341589D01*
X77785Y341520D01*
Y341506D01*
Y341492D01*
Y340674D01*
X77771Y340605D01*
X77757Y340563D01*
X77715Y340535D01*
X77604D01*
X77591Y340549D01*
X77577D01*
X76592Y341104D01*
Y336250D01*
X76578Y336181D01*
X76564Y336125D01*
X76523Y336097D01*
X76481Y336070D01*
X76412Y336042D01*
X75524D01*
X75455Y336056D01*
X75399Y336070D01*
X75385Y336084D01*
X75372D01*
X75344Y336125D01*
X75330Y336181D01*
Y336236D01*
Y336250D01*
Y342241D01*
X75344Y342310D01*
X75358Y342366D01*
X75399Y342394D01*
X75427Y342421D01*
X75510Y342449D01*
X76342D01*
X76467Y342421D01*
D02*
G37*
G36*
X90807Y342435D02*
X90863Y342421D01*
X90890Y342380D01*
X90918Y342352D01*
X90946Y342269D01*
Y342255D01*
Y342241D01*
Y341562D01*
X90932Y341492D01*
X90918Y341437D01*
X90877Y341409D01*
X90835Y341381D01*
X90766Y341354D01*
X89601D01*
X89531Y341340D01*
X89504Y341298D01*
X89490Y341256D01*
Y341243D01*
Y336250D01*
X89476Y336181D01*
X89448Y336125D01*
X89420Y336097D01*
X89379Y336070D01*
X89296Y336042D01*
X88422D01*
X88352Y336056D01*
X88297Y336070D01*
X88269Y336111D01*
X88242Y336153D01*
X88214Y336222D01*
Y336236D01*
Y336250D01*
Y341243D01*
X88200Y341312D01*
X88158Y341340D01*
X88117Y341354D01*
X86966D01*
X86896Y341367D01*
X86841Y341381D01*
X86799Y341423D01*
X86771Y341465D01*
X86744Y341534D01*
Y341548D01*
Y341562D01*
Y342241D01*
X86758Y342310D01*
X86771Y342366D01*
X86813Y342394D01*
X86855Y342421D01*
X86924Y342449D01*
X90738D01*
X90807Y342435D01*
D02*
G37*
G36*
X85856D02*
X85912Y342421D01*
X85939Y342380D01*
X85967Y342352D01*
X85995Y342269D01*
Y342255D01*
Y342241D01*
Y336250D01*
X85981Y336181D01*
X85967Y336125D01*
X85926Y336097D01*
X85884Y336070D01*
X85815Y336042D01*
X84927D01*
X84858Y336056D01*
X84802Y336070D01*
X84774Y336111D01*
X84747Y336153D01*
X84719Y336222D01*
Y336236D01*
Y336250D01*
Y338136D01*
X84705Y338205D01*
X84663Y338233D01*
X84622Y338247D01*
X83346D01*
X83069Y338261D01*
X82833Y338316D01*
X82625Y338386D01*
X82444Y338455D01*
X82320Y338538D01*
X82223Y338594D01*
X82153Y338649D01*
X82139Y338663D01*
X82001Y338843D01*
X81890Y339038D01*
X81820Y339232D01*
X81765Y339426D01*
X81737Y339606D01*
X81709Y339745D01*
Y339800D01*
Y339842D01*
Y339856D01*
Y339870D01*
Y340827D01*
X81723Y341104D01*
X81779Y341340D01*
X81848Y341548D01*
X81917Y341714D01*
X82001Y341853D01*
X82070Y341936D01*
X82126Y342005D01*
X82139Y342019D01*
X82320Y342158D01*
X82514Y342269D01*
X82708Y342338D01*
X82902Y342394D01*
X83083Y342421D01*
X83221Y342449D01*
X85787D01*
X85856Y342435D01*
D02*
G37*
G36*
X15534Y462564D02*
X15659Y462522D01*
X15714Y462494D01*
X15756Y462480D01*
X15783Y462453D01*
X15797D01*
X16699Y461884D01*
X16754Y461856D01*
X16782Y461815D01*
X16837Y461731D01*
X16851Y461662D01*
Y461648D01*
Y461634D01*
Y460816D01*
X16837Y460747D01*
X16823Y460705D01*
X16782Y460677D01*
X16671D01*
X16657Y460691D01*
X16643D01*
X15659Y461246D01*
Y456392D01*
X15645Y456323D01*
X15631Y456267D01*
X15589Y456240D01*
X15547Y456212D01*
X15478Y456184D01*
X14591D01*
X14521Y456198D01*
X14466Y456212D01*
X14452Y456226D01*
X14438D01*
X14410Y456267D01*
X14397Y456323D01*
Y456378D01*
Y456392D01*
Y462383D01*
X14410Y462453D01*
X14424Y462508D01*
X14466Y462536D01*
X14493Y462564D01*
X14577Y462591D01*
X15409D01*
X15534Y462564D01*
D02*
G37*
G36*
X26545Y462577D02*
X26601Y462564D01*
X26628Y462522D01*
X26656Y462494D01*
X26684Y462411D01*
Y462397D01*
Y462383D01*
Y461704D01*
X26670Y461634D01*
X26656Y461579D01*
X26614Y461551D01*
X26573Y461523D01*
X26504Y461496D01*
X25339D01*
X25269Y461482D01*
X25242Y461440D01*
X25228Y461399D01*
Y461385D01*
Y456392D01*
X25214Y456323D01*
X25186Y456267D01*
X25158Y456240D01*
X25117Y456212D01*
X25034Y456184D01*
X24160D01*
X24090Y456198D01*
X24035Y456212D01*
X24007Y456253D01*
X23979Y456295D01*
X23952Y456364D01*
Y456378D01*
Y456392D01*
Y461385D01*
X23938Y461454D01*
X23896Y461482D01*
X23855Y461496D01*
X22704D01*
X22634Y461510D01*
X22579Y461523D01*
X22537Y461565D01*
X22510Y461606D01*
X22482Y461676D01*
Y461690D01*
Y461704D01*
Y462383D01*
X22496Y462453D01*
X22510Y462508D01*
X22551Y462536D01*
X22593Y462564D01*
X22662Y462591D01*
X26476D01*
X26545Y462577D01*
D02*
G37*
G36*
X21594D02*
X21650Y462564D01*
X21677Y462522D01*
X21705Y462494D01*
X21733Y462411D01*
Y462397D01*
Y462383D01*
Y456392D01*
X21719Y456323D01*
X21705Y456267D01*
X21663Y456240D01*
X21622Y456212D01*
X21553Y456184D01*
X20665D01*
X20596Y456198D01*
X20540Y456212D01*
X20512Y456253D01*
X20485Y456295D01*
X20457Y456364D01*
Y456378D01*
Y456392D01*
Y458278D01*
X20443Y458348D01*
X20401Y458375D01*
X20360Y458389D01*
X19084D01*
X18807Y458403D01*
X18571Y458458D01*
X18363Y458528D01*
X18182Y458597D01*
X18058Y458680D01*
X17961Y458736D01*
X17891Y458791D01*
X17877Y458805D01*
X17739Y458985D01*
X17628Y459180D01*
X17558Y459374D01*
X17503Y459568D01*
X17475Y459748D01*
X17448Y459887D01*
Y459942D01*
Y459984D01*
Y459998D01*
Y460012D01*
Y460969D01*
X17461Y461246D01*
X17517Y461482D01*
X17586Y461690D01*
X17656Y461856D01*
X17739Y461995D01*
X17808Y462078D01*
X17864Y462147D01*
X17877Y462161D01*
X18058Y462300D01*
X18252Y462411D01*
X18446Y462480D01*
X18640Y462536D01*
X18821Y462564D01*
X18959Y462591D01*
X21525D01*
X21594Y462577D01*
D02*
G37*
G36*
X11859D02*
X12094Y462522D01*
X12302Y462466D01*
X12469Y462383D01*
X12607Y462314D01*
X12704Y462244D01*
X12774Y462189D01*
X12788Y462175D01*
X12926Y462009D01*
X13037Y461815D01*
X13107Y461606D01*
X13162Y461412D01*
X13190Y461246D01*
X13204Y461093D01*
X13218Y461038D01*
Y461010D01*
Y460983D01*
Y460969D01*
Y457807D01*
X13204Y457529D01*
X13148Y457280D01*
X13079Y457072D01*
X12996Y456905D01*
X12926Y456780D01*
X12857Y456683D01*
X12802Y456614D01*
X12788Y456600D01*
X12607Y456461D01*
X12413Y456364D01*
X12219Y456281D01*
X12025Y456240D01*
X11845Y456212D01*
X11706Y456198D01*
X11651Y456184D01*
X10583D01*
X10305Y456198D01*
X10056Y456253D01*
X9848Y456323D01*
X9681Y456392D01*
X9542Y456475D01*
X9445Y456531D01*
X9376Y456586D01*
X9362Y456600D01*
X9224Y456780D01*
X9113Y456974D01*
X9043Y457169D01*
X8988Y457363D01*
X8960Y457543D01*
X8932Y457682D01*
Y457737D01*
Y457779D01*
Y457793D01*
Y457807D01*
Y460969D01*
X8946Y461246D01*
X9002Y461482D01*
X9071Y461690D01*
X9140Y461856D01*
X9224Y461995D01*
X9293Y462078D01*
X9348Y462147D01*
X9362Y462161D01*
X9542Y462300D01*
X9737Y462411D01*
X9931Y462480D01*
X10139Y462536D01*
X10305Y462564D01*
X10458Y462591D01*
X11581D01*
X11859Y462577D01*
D02*
G37*
G36*
X73281Y372407D02*
X73337Y372393D01*
X73364Y372352D01*
X73392Y372324D01*
X73420Y372241D01*
Y372227D01*
Y372213D01*
Y371534D01*
X73406Y371464D01*
X73392Y371409D01*
X73351Y371381D01*
X73309Y371353D01*
X73240Y371326D01*
X72075D01*
X72005Y371312D01*
X71978Y371270D01*
X71964Y371228D01*
Y371215D01*
Y366222D01*
X71950Y366153D01*
X71922Y366097D01*
X71894Y366069D01*
X71853Y366042D01*
X71769Y366014D01*
X70896D01*
X70827Y366028D01*
X70771Y366042D01*
X70743Y366083D01*
X70715Y366125D01*
X70688Y366194D01*
Y366208D01*
Y366222D01*
Y371215D01*
X70674Y371284D01*
X70632Y371312D01*
X70591Y371326D01*
X69440D01*
X69370Y371339D01*
X69315Y371353D01*
X69273Y371395D01*
X69246Y371437D01*
X69218Y371506D01*
Y371520D01*
Y371534D01*
Y372213D01*
X69232Y372282D01*
X69246Y372338D01*
X69287Y372366D01*
X69329Y372393D01*
X69398Y372421D01*
X73212D01*
X73281Y372407D01*
D02*
G37*
G36*
X68330D02*
X68386Y372393D01*
X68413Y372352D01*
X68441Y372324D01*
X68469Y372241D01*
Y372227D01*
Y372213D01*
Y366222D01*
X68455Y366153D01*
X68441Y366097D01*
X68400Y366069D01*
X68358Y366042D01*
X68289Y366014D01*
X67401D01*
X67332Y366028D01*
X67276Y366042D01*
X67248Y366083D01*
X67221Y366125D01*
X67193Y366194D01*
Y366208D01*
Y366222D01*
Y368108D01*
X67179Y368177D01*
X67137Y368205D01*
X67096Y368219D01*
X65820D01*
X65543Y368233D01*
X65307Y368288D01*
X65099Y368358D01*
X64918Y368427D01*
X64794Y368510D01*
X64697Y368566D01*
X64627Y368621D01*
X64613Y368635D01*
X64475Y368815D01*
X64364Y369010D01*
X64295Y369204D01*
X64239Y369398D01*
X64211Y369578D01*
X64184Y369717D01*
Y369772D01*
Y369814D01*
Y369828D01*
Y369842D01*
Y370799D01*
X64197Y371076D01*
X64253Y371312D01*
X64322Y371520D01*
X64391Y371686D01*
X64475Y371825D01*
X64544Y371908D01*
X64600Y371977D01*
X64613Y371991D01*
X64794Y372130D01*
X64988Y372241D01*
X65182Y372310D01*
X65376Y372366D01*
X65557Y372393D01*
X65695Y372421D01*
X68261D01*
X68330Y372407D01*
D02*
G37*
G36*
X62020D02*
X62270Y372352D01*
X62478Y372296D01*
X62644Y372213D01*
X62783Y372144D01*
X62880Y372075D01*
X62949Y372019D01*
X62963Y372005D01*
X63102Y371839D01*
X63213Y371645D01*
X63282Y371437D01*
X63337Y371242D01*
X63365Y371076D01*
X63379Y370923D01*
X63393Y370868D01*
Y370840D01*
Y370812D01*
Y370799D01*
Y369911D01*
X63379Y369634D01*
X63324Y369398D01*
X63254Y369190D01*
X63171Y369023D01*
X63102Y368885D01*
X63032Y368788D01*
X62977Y368718D01*
X62963Y368704D01*
X62783Y368566D01*
X62589Y368469D01*
X62394Y368386D01*
X62186Y368344D01*
X62020Y368316D01*
X61867Y368302D01*
X61812Y368288D01*
X60384D01*
Y367692D01*
Y367581D01*
X60411Y367484D01*
X60425Y367401D01*
X60453Y367345D01*
X60481Y367290D01*
X60494Y367262D01*
X60522Y367248D01*
Y367234D01*
X60578Y367193D01*
X60647Y367165D01*
X60786Y367123D01*
X60855D01*
X60911Y367110D01*
X62866D01*
X62935Y367096D01*
X62991Y367082D01*
X63032Y367040D01*
X63060Y367012D01*
X63088Y366929D01*
Y366915D01*
Y366902D01*
Y366222D01*
X63074Y366153D01*
X63046Y366097D01*
X63019Y366069D01*
X62977Y366042D01*
X62894Y366014D01*
X60758D01*
X60481Y366028D01*
X60231Y366083D01*
X60023Y366153D01*
X59857Y366222D01*
X59718Y366305D01*
X59621Y366361D01*
X59552Y366416D01*
X59538Y366430D01*
X59399Y366596D01*
X59288Y366791D01*
X59219Y366999D01*
X59163Y367193D01*
X59135Y367359D01*
X59108Y367512D01*
Y367567D01*
Y367609D01*
Y367623D01*
Y367637D01*
Y370799D01*
X59121Y371076D01*
X59177Y371326D01*
X59246Y371534D01*
X59316Y371700D01*
X59399Y371839D01*
X59468Y371922D01*
X59524Y371991D01*
X59538Y372005D01*
X59718Y372144D01*
X59912Y372241D01*
X60106Y372324D01*
X60314Y372366D01*
X60481Y372393D01*
X60633Y372421D01*
X61743D01*
X62020Y372407D01*
D02*
G37*
G36*
X410847Y422445D02*
X410903Y422431D01*
X410930Y422390D01*
X410958Y422362D01*
X410986Y422279D01*
Y422265D01*
Y422251D01*
Y421572D01*
X410972Y421502D01*
X410958Y421447D01*
X410916Y421419D01*
X410875Y421391D01*
X410806Y421364D01*
X409641D01*
X409571Y421350D01*
X409544Y421308D01*
X409530Y421267D01*
Y421253D01*
Y416260D01*
X409516Y416191D01*
X409488Y416135D01*
X409460Y416107D01*
X409419Y416080D01*
X409336Y416052D01*
X408462D01*
X408392Y416066D01*
X408337Y416080D01*
X408309Y416121D01*
X408282Y416163D01*
X408254Y416232D01*
Y416246D01*
Y416260D01*
Y421253D01*
X408240Y421322D01*
X408198Y421350D01*
X408157Y421364D01*
X407006D01*
X406936Y421377D01*
X406881Y421391D01*
X406839Y421433D01*
X406811Y421474D01*
X406784Y421544D01*
Y421558D01*
Y421572D01*
Y422251D01*
X406798Y422321D01*
X406811Y422376D01*
X406853Y422404D01*
X406895Y422431D01*
X406964Y422459D01*
X410778D01*
X410847Y422445D01*
D02*
G37*
G36*
X405896D02*
X405952Y422431D01*
X405979Y422390D01*
X406007Y422362D01*
X406035Y422279D01*
Y422265D01*
Y422251D01*
Y416260D01*
X406021Y416191D01*
X406007Y416135D01*
X405965Y416107D01*
X405924Y416080D01*
X405855Y416052D01*
X404967D01*
X404898Y416066D01*
X404842Y416080D01*
X404814Y416121D01*
X404787Y416163D01*
X404759Y416232D01*
Y416246D01*
Y416260D01*
Y418146D01*
X404745Y418215D01*
X404703Y418243D01*
X404662Y418257D01*
X403386D01*
X403109Y418271D01*
X402873Y418326D01*
X402665Y418396D01*
X402485Y418465D01*
X402360Y418548D01*
X402263Y418604D01*
X402193Y418659D01*
X402179Y418673D01*
X402041Y418853D01*
X401930Y419048D01*
X401861Y419242D01*
X401805Y419436D01*
X401777Y419616D01*
X401749Y419755D01*
Y419810D01*
Y419852D01*
Y419866D01*
Y419880D01*
Y420837D01*
X401763Y421114D01*
X401819Y421350D01*
X401888Y421558D01*
X401958Y421724D01*
X402041Y421863D01*
X402110Y421946D01*
X402166Y422015D01*
X402179Y422029D01*
X402360Y422168D01*
X402554Y422279D01*
X402748Y422348D01*
X402942Y422404D01*
X403122Y422431D01*
X403261Y422459D01*
X405827D01*
X405896Y422445D01*
D02*
G37*
G36*
X399489D02*
X399739Y422404D01*
X399947Y422334D01*
X400113Y422265D01*
X400252Y422196D01*
X400349Y422126D01*
X400418Y422085D01*
X400432Y422071D01*
X400571Y421904D01*
X400668Y421724D01*
X400751Y421530D01*
X400793Y421350D01*
X400820Y421183D01*
X400834Y421045D01*
X400848Y420989D01*
Y420947D01*
Y420934D01*
Y420920D01*
Y420490D01*
X400834Y420323D01*
X400820Y420171D01*
X400793Y420032D01*
X400751Y419907D01*
X400640Y419686D01*
X400515Y419533D01*
X400404Y419408D01*
X400293Y419325D01*
X400224Y419283D01*
X400196Y419269D01*
X400307Y419214D01*
X400404Y419131D01*
X400571Y418964D01*
X400682Y418756D01*
X400765Y418562D01*
X400807Y418368D01*
X400834Y418215D01*
X400848Y418146D01*
Y418105D01*
Y418077D01*
Y418063D01*
Y417605D01*
X400834Y417328D01*
X400779Y417092D01*
X400709Y416898D01*
X400640Y416732D01*
X400557Y416607D01*
X400501Y416510D01*
X400446Y416454D01*
X400432Y416440D01*
X400252Y416315D01*
X400058Y416218D01*
X399863Y416149D01*
X399655Y416107D01*
X399489Y416080D01*
X399336Y416052D01*
X398144D01*
X397866Y416066D01*
X397617Y416107D01*
X397409Y416177D01*
X397242Y416246D01*
X397104Y416315D01*
X397020Y416385D01*
X396951Y416426D01*
X396937Y416440D01*
X396799Y416607D01*
X396688Y416787D01*
X396618Y416981D01*
X396563Y417175D01*
X396535Y417342D01*
X396507Y417480D01*
Y417536D01*
Y417578D01*
Y417591D01*
Y417605D01*
Y418049D01*
Y418215D01*
X396535Y418382D01*
X396563Y418521D01*
X396604Y418645D01*
X396715Y418853D01*
X396826Y419020D01*
X396951Y419131D01*
X397062Y419214D01*
X397131Y419256D01*
X397145Y419269D01*
X397159D01*
X397048Y419311D01*
X396965Y419380D01*
X396812Y419519D01*
X396757Y419575D01*
X396715Y419630D01*
X396701Y419672D01*
X396688Y419686D01*
X396632Y419810D01*
X396577Y419949D01*
X396549Y420088D01*
X396535Y420213D01*
X396521Y420323D01*
X396507Y420407D01*
Y420476D01*
Y420490D01*
Y420920D01*
X396521Y421183D01*
X396577Y421419D01*
X396646Y421613D01*
X396715Y421780D01*
X396799Y421904D01*
X396868Y422001D01*
X396923Y422057D01*
X396937Y422071D01*
X397104Y422196D01*
X397298Y422293D01*
X397506Y422362D01*
X397700Y422418D01*
X397866Y422445D01*
X398019Y422459D01*
X399212D01*
X399489Y422445D01*
D02*
G37*
G36*
X450979Y302557D02*
X451035Y302544D01*
X451062Y302502D01*
X451090Y302474D01*
X451118Y302391D01*
Y302377D01*
Y302363D01*
Y301684D01*
X451104Y301614D01*
X451090Y301559D01*
X451049Y301531D01*
X451007Y301503D01*
X450938Y301476D01*
X449773D01*
X449703Y301462D01*
X449676Y301420D01*
X449662Y301378D01*
Y301365D01*
Y296372D01*
X449648Y296303D01*
X449620Y296247D01*
X449592Y296220D01*
X449551Y296192D01*
X449468Y296164D01*
X448594D01*
X448525Y296178D01*
X448469Y296192D01*
X448441Y296233D01*
X448414Y296275D01*
X448386Y296344D01*
Y296358D01*
Y296372D01*
Y301365D01*
X448372Y301434D01*
X448330Y301462D01*
X448289Y301476D01*
X447138D01*
X447068Y301490D01*
X447013Y301503D01*
X446971Y301545D01*
X446944Y301586D01*
X446916Y301656D01*
Y301670D01*
Y301684D01*
Y302363D01*
X446930Y302432D01*
X446944Y302488D01*
X446985Y302516D01*
X447027Y302544D01*
X447096Y302571D01*
X450910D01*
X450979Y302557D01*
D02*
G37*
G36*
X446028D02*
X446084Y302544D01*
X446111Y302502D01*
X446139Y302474D01*
X446167Y302391D01*
Y302377D01*
Y302363D01*
Y296372D01*
X446153Y296303D01*
X446139Y296247D01*
X446097Y296220D01*
X446056Y296192D01*
X445987Y296164D01*
X445099D01*
X445030Y296178D01*
X444974Y296192D01*
X444946Y296233D01*
X444919Y296275D01*
X444891Y296344D01*
Y296358D01*
Y296372D01*
Y298258D01*
X444877Y298328D01*
X444836Y298355D01*
X444794Y298369D01*
X443518D01*
X443241Y298383D01*
X443005Y298438D01*
X442797Y298508D01*
X442617Y298577D01*
X442492Y298660D01*
X442395Y298716D01*
X442325Y298771D01*
X442311Y298785D01*
X442173Y298965D01*
X442062Y299160D01*
X441992Y299354D01*
X441937Y299548D01*
X441909Y299728D01*
X441881Y299867D01*
Y299922D01*
Y299964D01*
Y299978D01*
Y299992D01*
Y300949D01*
X441895Y301226D01*
X441951Y301462D01*
X442020Y301670D01*
X442090Y301836D01*
X442173Y301975D01*
X442242Y302058D01*
X442298Y302127D01*
X442311Y302141D01*
X442492Y302280D01*
X442686Y302391D01*
X442880Y302460D01*
X443074Y302516D01*
X443255Y302544D01*
X443393Y302571D01*
X445959D01*
X446028Y302557D01*
D02*
G37*
G36*
X441188D02*
X441244Y302544D01*
X441271Y302502D01*
X441299Y302474D01*
X441327Y302391D01*
Y302377D01*
Y302363D01*
Y301628D01*
X441313Y301559D01*
X441299Y301503D01*
X441257Y301476D01*
X441216Y301448D01*
X441147Y301420D01*
X438761D01*
X440869Y296372D01*
X440897Y296303D01*
Y296247D01*
Y296220D01*
Y296206D01*
X440855Y296178D01*
X440814Y296164D01*
X439829D01*
X439732Y296178D01*
X439663Y296192D01*
X439607Y296220D01*
X439552Y296261D01*
X439496Y296317D01*
X439482Y296330D01*
Y296344D01*
X437555Y300990D01*
X437471Y301212D01*
X437444Y301309D01*
X437430Y301392D01*
X437416Y301448D01*
Y301490D01*
Y301517D01*
Y301531D01*
Y302363D01*
X437430Y302432D01*
X437444Y302488D01*
X437485Y302516D01*
X437513Y302544D01*
X437596Y302571D01*
X441119D01*
X441188Y302557D01*
D02*
G37*
G36*
X183263Y132377D02*
X183319Y132364D01*
X183346Y132322D01*
X183374Y132294D01*
X183402Y132211D01*
Y132197D01*
Y132183D01*
Y131504D01*
X183388Y131434D01*
X183374Y131379D01*
X183333Y131351D01*
X183291Y131323D01*
X183222Y131296D01*
X182057D01*
X181987Y131282D01*
X181960Y131240D01*
X181946Y131199D01*
Y131185D01*
Y126192D01*
X181932Y126123D01*
X181904Y126067D01*
X181876Y126039D01*
X181835Y126012D01*
X181751Y125984D01*
X180878D01*
X180809Y125998D01*
X180753Y126012D01*
X180725Y126053D01*
X180697Y126095D01*
X180670Y126164D01*
Y126178D01*
Y126192D01*
Y131185D01*
X180656Y131254D01*
X180614Y131282D01*
X180573Y131296D01*
X179422D01*
X179352Y131309D01*
X179297Y131323D01*
X179255Y131365D01*
X179228Y131406D01*
X179200Y131476D01*
Y131490D01*
Y131504D01*
Y132183D01*
X179214Y132253D01*
X179228Y132308D01*
X179269Y132336D01*
X179311Y132364D01*
X179380Y132391D01*
X183194D01*
X183263Y132377D01*
D02*
G37*
G36*
X178312D02*
X178368Y132364D01*
X178395Y132322D01*
X178423Y132294D01*
X178451Y132211D01*
Y132197D01*
Y132183D01*
Y126192D01*
X178437Y126123D01*
X178423Y126067D01*
X178382Y126039D01*
X178340Y126012D01*
X178271Y125984D01*
X177383D01*
X177314Y125998D01*
X177258Y126012D01*
X177230Y126053D01*
X177203Y126095D01*
X177175Y126164D01*
Y126178D01*
Y126192D01*
Y128078D01*
X177161Y128147D01*
X177120Y128175D01*
X177078Y128189D01*
X175802D01*
X175525Y128203D01*
X175289Y128258D01*
X175081Y128328D01*
X174900Y128397D01*
X174776Y128480D01*
X174679Y128536D01*
X174609Y128591D01*
X174595Y128605D01*
X174457Y128785D01*
X174346Y128980D01*
X174277Y129174D01*
X174221Y129368D01*
X174193Y129548D01*
X174165Y129687D01*
Y129742D01*
Y129784D01*
Y129798D01*
Y129812D01*
Y130769D01*
X174179Y131046D01*
X174235Y131282D01*
X174304Y131490D01*
X174373Y131656D01*
X174457Y131795D01*
X174526Y131878D01*
X174582Y131947D01*
X174595Y131961D01*
X174776Y132100D01*
X174970Y132211D01*
X175164Y132280D01*
X175358Y132336D01*
X175539Y132364D01*
X175677Y132391D01*
X178243D01*
X178312Y132377D01*
D02*
G37*
G36*
X171905D02*
X172155Y132322D01*
X172363Y132266D01*
X172529Y132183D01*
X172668Y132114D01*
X172765Y132044D01*
X172834Y131989D01*
X172848Y131975D01*
X172987Y131809D01*
X173098Y131615D01*
X173167Y131406D01*
X173223Y131212D01*
X173250Y131046D01*
X173264Y130893D01*
X173278Y130838D01*
Y130810D01*
Y130782D01*
Y130769D01*
Y127607D01*
X173264Y127329D01*
X173209Y127080D01*
X173139Y126872D01*
X173056Y126705D01*
X172987Y126580D01*
X172917Y126483D01*
X172862Y126414D01*
X172848Y126400D01*
X172668Y126261D01*
X172474Y126164D01*
X172279Y126081D01*
X172071Y126039D01*
X171905Y126012D01*
X171752Y125998D01*
X171697Y125984D01*
X170657D01*
X170379Y125998D01*
X170130Y126053D01*
X169922Y126123D01*
X169755Y126192D01*
X169617Y126275D01*
X169520Y126331D01*
X169450Y126386D01*
X169436Y126400D01*
X169298Y126566D01*
X169187Y126761D01*
X169117Y126969D01*
X169062Y127163D01*
X169034Y127329D01*
X169007Y127482D01*
Y127537D01*
Y127579D01*
Y127593D01*
Y127607D01*
Y128411D01*
X169020Y128688D01*
X169076Y128938D01*
X169145Y129146D01*
X169214Y129312D01*
X169298Y129451D01*
X169367Y129534D01*
X169422Y129604D01*
X169436Y129618D01*
X169617Y129756D01*
X169811Y129867D01*
X170005Y129937D01*
X170213Y129992D01*
X170379Y130020D01*
X170532Y130047D01*
X172016D01*
Y130713D01*
Y130824D01*
X171988Y130921D01*
X171974Y130990D01*
X171947Y131060D01*
X171919Y131101D01*
X171905Y131129D01*
X171877Y131157D01*
X171822Y131199D01*
X171752Y131240D01*
X171600Y131282D01*
X171530Y131296D01*
X169589D01*
X169520Y131309D01*
X169464Y131323D01*
X169436Y131365D01*
X169409Y131406D01*
X169381Y131476D01*
Y131490D01*
Y131504D01*
Y132183D01*
X169395Y132253D01*
X169409Y132308D01*
X169450Y132336D01*
X169478Y132364D01*
X169561Y132391D01*
X171628D01*
X171905Y132377D01*
D02*
G37*
G36*
X192924Y232453D02*
X192979Y232439D01*
X193021Y232398D01*
X193048Y232370D01*
X193076Y232287D01*
Y232273D01*
Y232259D01*
Y229097D01*
X193062Y229028D01*
X193034Y228986D01*
X192965Y228931D01*
X192882Y228903D01*
X192036D01*
X191980Y228917D01*
X191925Y228931D01*
X191828Y229014D01*
X191772Y229083D01*
X191745Y229097D01*
Y229111D01*
X191689Y229180D01*
X191620Y229236D01*
X191564Y229264D01*
X191495Y229291D01*
X191440Y229305D01*
X191398Y229319D01*
X190760D01*
X190649Y229291D01*
X190552Y229277D01*
X190483Y229250D01*
X190441Y229222D01*
X190399Y229194D01*
X190372Y229180D01*
Y229167D01*
X190316Y229097D01*
X190289Y229014D01*
X190233Y228820D01*
Y228723D01*
X190219Y228653D01*
Y228598D01*
Y228584D01*
Y227696D01*
Y227586D01*
X190247Y227488D01*
X190261Y227405D01*
X190289Y227350D01*
X190316Y227294D01*
X190344Y227267D01*
X190358Y227253D01*
X190372Y227239D01*
X190441Y227197D01*
X190510Y227169D01*
X190663Y227128D01*
X190732D01*
X190788Y227114D01*
X191426D01*
X191509Y227128D01*
X191592Y227156D01*
X191648Y227183D01*
X191703Y227197D01*
X191731Y227225D01*
X191759Y227239D01*
X191800Y227294D01*
X191842Y227364D01*
X191883Y227516D01*
Y227586D01*
X191897Y227641D01*
Y227683D01*
Y227696D01*
Y227877D01*
X191911Y227946D01*
X191925Y228002D01*
X191967Y228043D01*
X191994Y228071D01*
X192078Y228099D01*
X192951D01*
X193021Y228085D01*
X193076Y228071D01*
X193104Y228029D01*
X193132Y227988D01*
X193159Y227918D01*
Y227891D01*
Y227877D01*
Y227683D01*
X193145Y227405D01*
X193090Y227156D01*
X193021Y226948D01*
X192937Y226781D01*
X192868Y226656D01*
X192799Y226559D01*
X192743Y226490D01*
X192729Y226476D01*
X192549Y226337D01*
X192355Y226240D01*
X192161Y226157D01*
X191953Y226115D01*
X191786Y226088D01*
X191634Y226074D01*
X191578Y226060D01*
X190635D01*
X190358Y226074D01*
X190122Y226129D01*
X189914Y226199D01*
X189734Y226268D01*
X189609Y226351D01*
X189512Y226407D01*
X189443Y226462D01*
X189429Y226476D01*
X189290Y226656D01*
X189179Y226850D01*
X189110Y227045D01*
X189054Y227239D01*
X189027Y227419D01*
X188999Y227558D01*
Y227613D01*
Y227655D01*
Y227669D01*
Y227683D01*
Y228778D01*
X189013Y229056D01*
X189068Y229291D01*
X189137Y229499D01*
X189235Y229680D01*
X189359Y229832D01*
X189484Y229957D01*
X189623Y230054D01*
X189762Y230137D01*
X189914Y230207D01*
X190053Y230248D01*
X190178Y230290D01*
X190302Y230304D01*
X190399Y230318D01*
X190469Y230331D01*
X190968D01*
X191190Y230304D01*
X191384Y230248D01*
X191523Y230179D01*
X191634Y230082D01*
X191717Y229985D01*
X191759Y229915D01*
X191786Y229860D01*
X191800Y229832D01*
Y231302D01*
X189387D01*
X189318Y231316D01*
X189262Y231330D01*
X189235Y231372D01*
X189207Y231413D01*
X189179Y231483D01*
Y231496D01*
Y231510D01*
Y232259D01*
X189193Y232328D01*
X189207Y232384D01*
X189248Y232412D01*
X189276Y232439D01*
X189359Y232467D01*
X192854D01*
X192924Y232453D01*
D02*
G37*
G36*
X203075D02*
X203131Y232439D01*
X203158Y232398D01*
X203186Y232370D01*
X203214Y232287D01*
Y232273D01*
Y232259D01*
Y231580D01*
X203200Y231510D01*
X203186Y231455D01*
X203144Y231427D01*
X203103Y231399D01*
X203034Y231372D01*
X201869D01*
X201799Y231358D01*
X201772Y231316D01*
X201758Y231275D01*
Y231261D01*
Y226268D01*
X201744Y226199D01*
X201716Y226143D01*
X201688Y226115D01*
X201647Y226088D01*
X201563Y226060D01*
X200690D01*
X200620Y226074D01*
X200565Y226088D01*
X200537Y226129D01*
X200509Y226171D01*
X200482Y226240D01*
Y226254D01*
Y226268D01*
Y231261D01*
X200468Y231330D01*
X200426Y231358D01*
X200385Y231372D01*
X199234D01*
X199164Y231385D01*
X199109Y231399D01*
X199067Y231441D01*
X199039Y231483D01*
X199012Y231552D01*
Y231566D01*
Y231580D01*
Y232259D01*
X199026Y232328D01*
X199039Y232384D01*
X199081Y232412D01*
X199123Y232439D01*
X199192Y232467D01*
X203006D01*
X203075Y232453D01*
D02*
G37*
G36*
X198124D02*
X198180Y232439D01*
X198207Y232398D01*
X198235Y232370D01*
X198263Y232287D01*
Y232273D01*
Y232259D01*
Y226268D01*
X198249Y226199D01*
X198235Y226143D01*
X198193Y226115D01*
X198152Y226088D01*
X198083Y226060D01*
X197195D01*
X197126Y226074D01*
X197070Y226088D01*
X197042Y226129D01*
X197015Y226171D01*
X196987Y226240D01*
Y226254D01*
Y226268D01*
Y228154D01*
X196973Y228223D01*
X196931Y228251D01*
X196890Y228265D01*
X195614D01*
X195337Y228279D01*
X195101Y228334D01*
X194893Y228404D01*
X194713Y228473D01*
X194588Y228556D01*
X194491Y228612D01*
X194421Y228667D01*
X194407Y228681D01*
X194269Y228861D01*
X194158Y229056D01*
X194088Y229250D01*
X194033Y229444D01*
X194005Y229624D01*
X193978Y229763D01*
Y229818D01*
Y229860D01*
Y229874D01*
Y229888D01*
Y230845D01*
X193991Y231122D01*
X194047Y231358D01*
X194116Y231566D01*
X194186Y231732D01*
X194269Y231871D01*
X194338Y231954D01*
X194394Y232023D01*
X194407Y232037D01*
X194588Y232176D01*
X194782Y232287D01*
X194976Y232356D01*
X195170Y232412D01*
X195350Y232439D01*
X195489Y232467D01*
X198055D01*
X198124Y232453D01*
D02*
G37*
G36*
X183771Y172509D02*
X183827Y172495D01*
X183854Y172454D01*
X183882Y172426D01*
X183910Y172343D01*
Y172329D01*
Y172315D01*
Y171636D01*
X183896Y171566D01*
X183882Y171511D01*
X183841Y171483D01*
X183799Y171455D01*
X183730Y171428D01*
X182565D01*
X182495Y171414D01*
X182468Y171372D01*
X182454Y171331D01*
Y171317D01*
Y166324D01*
X182440Y166255D01*
X182412Y166199D01*
X182384Y166171D01*
X182343Y166144D01*
X182260Y166116D01*
X181386D01*
X181317Y166130D01*
X181261Y166144D01*
X181233Y166185D01*
X181206Y166227D01*
X181178Y166296D01*
Y166310D01*
Y166324D01*
Y171317D01*
X181164Y171386D01*
X181122Y171414D01*
X181081Y171428D01*
X179930D01*
X179860Y171441D01*
X179805Y171455D01*
X179763Y171497D01*
X179736Y171539D01*
X179708Y171608D01*
Y171622D01*
Y171636D01*
Y172315D01*
X179722Y172384D01*
X179736Y172440D01*
X179777Y172468D01*
X179819Y172495D01*
X179888Y172523D01*
X183702D01*
X183771Y172509D01*
D02*
G37*
G36*
X178820D02*
X178876Y172495D01*
X178903Y172454D01*
X178931Y172426D01*
X178959Y172343D01*
Y172329D01*
Y172315D01*
Y166324D01*
X178945Y166255D01*
X178931Y166199D01*
X178890Y166171D01*
X178848Y166144D01*
X178779Y166116D01*
X177891D01*
X177822Y166130D01*
X177766Y166144D01*
X177738Y166185D01*
X177711Y166227D01*
X177683Y166296D01*
Y166310D01*
Y166324D01*
Y168210D01*
X177669Y168279D01*
X177628Y168307D01*
X177586Y168321D01*
X176310D01*
X176033Y168335D01*
X175797Y168390D01*
X175589Y168460D01*
X175408Y168529D01*
X175284Y168612D01*
X175187Y168668D01*
X175117Y168723D01*
X175103Y168737D01*
X174965Y168917D01*
X174854Y169112D01*
X174785Y169306D01*
X174729Y169500D01*
X174701Y169680D01*
X174674Y169819D01*
Y169874D01*
Y169916D01*
Y169930D01*
Y169944D01*
Y170901D01*
X174687Y171178D01*
X174743Y171414D01*
X174812Y171622D01*
X174881Y171788D01*
X174965Y171927D01*
X175034Y172010D01*
X175090Y172079D01*
X175103Y172093D01*
X175284Y172232D01*
X175478Y172343D01*
X175672Y172412D01*
X175866Y172468D01*
X176047Y172495D01*
X176185Y172523D01*
X178751D01*
X178820Y172509D01*
D02*
G37*
G36*
X171567D02*
X171636Y172495D01*
X171692Y172468D01*
X171706Y172454D01*
X171775Y172398D01*
X171831Y172315D01*
X171872Y172246D01*
X171886Y172232D01*
Y172218D01*
X173883Y168529D01*
X173939Y168377D01*
X173966Y168210D01*
X173980Y168141D01*
Y168085D01*
Y168044D01*
Y168030D01*
Y167642D01*
X173966Y167531D01*
X173925Y167447D01*
X173897Y167392D01*
X173883Y167378D01*
X173786Y167323D01*
X173703Y167295D01*
X173633Y167281D01*
X171137D01*
Y166324D01*
X171123Y166255D01*
X171096Y166199D01*
X171068Y166171D01*
X171026Y166144D01*
X170943Y166116D01*
X170138D01*
X170069Y166130D01*
X170014Y166144D01*
X170000Y166158D01*
X169986D01*
X169958Y166199D01*
X169944Y166255D01*
Y166310D01*
Y166324D01*
Y167281D01*
X169223D01*
X169154Y167295D01*
X169112Y167323D01*
X169057Y167392D01*
X169029Y167475D01*
Y167489D01*
Y167503D01*
Y168182D01*
X169043Y168252D01*
X169057Y168293D01*
X169126Y168349D01*
X169195Y168377D01*
X169944D01*
Y172163D01*
X169958Y172274D01*
X170000Y172357D01*
X170042Y172412D01*
X170055Y172426D01*
X170138Y172482D01*
X170222Y172509D01*
X170291Y172523D01*
X171456D01*
X171567Y172509D01*
D02*
G37*
G36*
X161898Y202481D02*
X162147Y202426D01*
X162355Y202370D01*
X162522Y202287D01*
X162660Y202218D01*
X162757Y202148D01*
X162827Y202093D01*
X162841Y202079D01*
X162979Y201913D01*
X163090Y201719D01*
X163160Y201524D01*
X163215Y201330D01*
X163243Y201150D01*
X163257Y201011D01*
X163270Y200956D01*
Y200914D01*
Y200900D01*
Y200886D01*
Y200609D01*
X163257Y200540D01*
X163243Y200484D01*
X163201Y200457D01*
X163160Y200429D01*
X163090Y200401D01*
X162216D01*
X162147Y200415D01*
X162092Y200429D01*
X162050Y200470D01*
X162022Y200512D01*
X161995Y200581D01*
Y200595D01*
Y200609D01*
Y200859D01*
Y200970D01*
X161981Y201067D01*
X161953Y201136D01*
X161925Y201205D01*
X161911Y201247D01*
X161884Y201275D01*
X161870Y201303D01*
X161814Y201344D01*
X161745Y201386D01*
X161606Y201427D01*
X161537Y201441D01*
X160830D01*
X160733Y201413D01*
X160649Y201400D01*
X160580Y201372D01*
X160525Y201344D01*
X160497Y201330D01*
X160469Y201303D01*
X160414Y201247D01*
X160386Y201178D01*
X160330Y201039D01*
Y200970D01*
X160317Y200914D01*
Y200873D01*
Y200859D01*
Y200401D01*
Y200290D01*
X160344Y200193D01*
X160358Y200110D01*
X160386Y200054D01*
X160414Y199999D01*
X160441Y199971D01*
X160455Y199957D01*
X160469Y199943D01*
X160525Y199902D01*
X160594Y199874D01*
X160760Y199832D01*
X160830D01*
X160885Y199819D01*
X161454D01*
X161523Y199805D01*
X161579Y199791D01*
X161606Y199749D01*
X161634Y199708D01*
X161662Y199638D01*
Y199611D01*
Y199597D01*
Y199000D01*
X161648Y198931D01*
X161634Y198876D01*
X161592Y198848D01*
X161551Y198820D01*
X161481Y198792D01*
X160830D01*
X160733Y198765D01*
X160649Y198751D01*
X160580Y198723D01*
X160525Y198695D01*
X160497Y198681D01*
X160469Y198654D01*
X160414Y198598D01*
X160386Y198529D01*
X160330Y198376D01*
Y198321D01*
X160317Y198265D01*
Y198224D01*
Y198210D01*
Y197724D01*
Y197614D01*
X160344Y197516D01*
X160358Y197433D01*
X160386Y197378D01*
X160414Y197322D01*
X160441Y197295D01*
X160455Y197281D01*
X160469Y197267D01*
X160525Y197225D01*
X160594Y197197D01*
X160760Y197156D01*
X160830D01*
X160885Y197142D01*
X161537D01*
X161634Y197156D01*
X161703Y197184D01*
X161773Y197211D01*
X161814Y197225D01*
X161842Y197253D01*
X161870Y197267D01*
X161911Y197322D01*
X161939Y197392D01*
X161981Y197544D01*
Y197614D01*
X161995Y197669D01*
Y197711D01*
Y197724D01*
Y197974D01*
X162008Y198043D01*
X162022Y198099D01*
X162064Y198141D01*
X162106Y198168D01*
X162175Y198196D01*
X163062D01*
X163132Y198182D01*
X163187Y198168D01*
X163215Y198127D01*
X163243Y198085D01*
X163270Y198016D01*
Y197988D01*
Y197974D01*
Y197697D01*
X163257Y197419D01*
X163201Y197184D01*
X163132Y196976D01*
X163049Y196809D01*
X162979Y196670D01*
X162910Y196587D01*
X162854Y196518D01*
X162841Y196504D01*
X162660Y196365D01*
X162466Y196268D01*
X162272Y196185D01*
X162064Y196143D01*
X161898Y196116D01*
X161745Y196102D01*
X161689Y196088D01*
X160733D01*
X160455Y196102D01*
X160206Y196157D01*
X159998Y196227D01*
X159831Y196296D01*
X159692Y196379D01*
X159595Y196435D01*
X159526Y196490D01*
X159512Y196504D01*
X159374Y196670D01*
X159263Y196865D01*
X159193Y197059D01*
X159138Y197253D01*
X159110Y197433D01*
X159082Y197572D01*
Y197627D01*
Y197669D01*
Y197683D01*
Y197697D01*
Y198210D01*
X159096Y198376D01*
X159110Y198515D01*
X159152Y198654D01*
X159207Y198765D01*
X159263Y198862D01*
X159332Y198959D01*
X159471Y199097D01*
X159623Y199195D01*
X159748Y199250D01*
X159803Y199264D01*
X159845Y199278D01*
X159859Y199292D01*
X159873D01*
X159734Y199347D01*
X159609Y199416D01*
X159512Y199486D01*
X159415Y199569D01*
X159332Y199652D01*
X159276Y199749D01*
X159179Y199930D01*
X159124Y200110D01*
X159096Y200249D01*
X159082Y200304D01*
Y200346D01*
Y200373D01*
Y200387D01*
Y200886D01*
X159096Y201164D01*
X159152Y201400D01*
X159221Y201608D01*
X159290Y201774D01*
X159374Y201913D01*
X159443Y201996D01*
X159498Y202065D01*
X159512Y202079D01*
X159692Y202218D01*
X159887Y202315D01*
X160081Y202398D01*
X160289Y202440D01*
X160455Y202467D01*
X160608Y202495D01*
X161620D01*
X161898Y202481D01*
D02*
G37*
G36*
X173103D02*
X173159Y202467D01*
X173186Y202426D01*
X173214Y202398D01*
X173242Y202315D01*
Y202301D01*
Y202287D01*
Y201608D01*
X173228Y201538D01*
X173214Y201483D01*
X173172Y201455D01*
X173131Y201427D01*
X173062Y201400D01*
X171897D01*
X171827Y201386D01*
X171800Y201344D01*
X171786Y201303D01*
Y201289D01*
Y196296D01*
X171772Y196227D01*
X171744Y196171D01*
X171716Y196143D01*
X171675Y196116D01*
X171591Y196088D01*
X170718D01*
X170648Y196102D01*
X170593Y196116D01*
X170565Y196157D01*
X170537Y196199D01*
X170510Y196268D01*
Y196282D01*
Y196296D01*
Y201289D01*
X170496Y201358D01*
X170454Y201386D01*
X170413Y201400D01*
X169262D01*
X169192Y201413D01*
X169137Y201427D01*
X169095Y201469D01*
X169067Y201511D01*
X169040Y201580D01*
Y201594D01*
Y201608D01*
Y202287D01*
X169054Y202356D01*
X169067Y202412D01*
X169109Y202440D01*
X169151Y202467D01*
X169220Y202495D01*
X173034D01*
X173103Y202481D01*
D02*
G37*
G36*
X168152D02*
X168208Y202467D01*
X168235Y202426D01*
X168263Y202398D01*
X168291Y202315D01*
Y202301D01*
Y202287D01*
Y196296D01*
X168277Y196227D01*
X168263Y196171D01*
X168221Y196143D01*
X168180Y196116D01*
X168111Y196088D01*
X167223D01*
X167154Y196102D01*
X167098Y196116D01*
X167070Y196157D01*
X167043Y196199D01*
X167015Y196268D01*
Y196282D01*
Y196296D01*
Y198182D01*
X167001Y198251D01*
X166959Y198279D01*
X166918Y198293D01*
X165642D01*
X165365Y198307D01*
X165129Y198362D01*
X164921Y198432D01*
X164741Y198501D01*
X164616Y198584D01*
X164519Y198640D01*
X164449Y198695D01*
X164435Y198709D01*
X164297Y198889D01*
X164186Y199084D01*
X164116Y199278D01*
X164061Y199472D01*
X164033Y199652D01*
X164006Y199791D01*
Y199846D01*
Y199888D01*
Y199902D01*
Y199916D01*
Y200873D01*
X164019Y201150D01*
X164075Y201386D01*
X164144Y201594D01*
X164214Y201760D01*
X164297Y201899D01*
X164366Y201982D01*
X164422Y202051D01*
X164435Y202065D01*
X164616Y202204D01*
X164810Y202315D01*
X165004Y202384D01*
X165198Y202440D01*
X165378Y202467D01*
X165517Y202495D01*
X168083D01*
X168152Y202481D01*
D02*
G37*
G36*
X371646Y102405D02*
X371896Y102350D01*
X372104Y102294D01*
X372270Y102211D01*
X372409Y102142D01*
X372506Y102072D01*
X372575Y102017D01*
X372589Y102003D01*
X372728Y101837D01*
X372839Y101643D01*
X372908Y101448D01*
X372963Y101254D01*
X372991Y101074D01*
X373005Y100935D01*
X373019Y100880D01*
Y100838D01*
Y100824D01*
Y100810D01*
Y100464D01*
X373005Y100394D01*
X372977Y100339D01*
X372950Y100311D01*
X372908Y100283D01*
X372825Y100256D01*
X371951D01*
X371882Y100270D01*
X371826Y100283D01*
X371799Y100325D01*
X371771Y100367D01*
X371743Y100436D01*
Y100450D01*
Y100464D01*
Y100783D01*
Y100894D01*
X371729Y100991D01*
X371702Y101060D01*
X371674Y101129D01*
X371660Y101171D01*
X371632Y101199D01*
X371618Y101227D01*
X371563Y101268D01*
X371493Y101310D01*
X371341Y101351D01*
X371272Y101365D01*
X370703D01*
X370606Y101337D01*
X370523Y101324D01*
X370453Y101296D01*
X370398Y101268D01*
X370370Y101254D01*
X370342Y101227D01*
X370287Y101171D01*
X370259Y101102D01*
X370204Y100963D01*
Y100894D01*
X370190Y100838D01*
Y100797D01*
Y100783D01*
Y100492D01*
X370204Y100339D01*
X370259Y100186D01*
X370328Y100048D01*
X370412Y99923D01*
X370509Y99826D01*
X370578Y99756D01*
X370634Y99701D01*
X370648Y99687D01*
X372478Y98134D01*
X372645Y97981D01*
X372769Y97815D01*
X372853Y97648D01*
X372908Y97496D01*
X372950Y97371D01*
X372963Y97260D01*
X372977Y97191D01*
Y97163D01*
Y96220D01*
X372963Y96151D01*
X372950Y96095D01*
X372908Y96067D01*
X372867Y96040D01*
X372797Y96012D01*
X369164D01*
X369094Y96026D01*
X369039Y96040D01*
X369011Y96081D01*
X368983Y96123D01*
X368956Y96192D01*
Y96206D01*
Y96220D01*
Y96913D01*
X368969Y96983D01*
X368983Y97038D01*
X369025Y97066D01*
X369053Y97094D01*
X369136Y97121D01*
X371549D01*
Y97288D01*
X371535Y97371D01*
X371493Y97454D01*
X371452Y97510D01*
X371438Y97524D01*
X369552Y99118D01*
X369441Y99216D01*
X369358Y99326D01*
X369205Y99535D01*
X369094Y99756D01*
X369025Y99951D01*
X368983Y100131D01*
X368969Y100283D01*
X368956Y100339D01*
Y100380D01*
Y100394D01*
Y100408D01*
Y100810D01*
X368969Y101088D01*
X369025Y101324D01*
X369094Y101532D01*
X369164Y101698D01*
X369247Y101837D01*
X369316Y101920D01*
X369372Y101989D01*
X369385Y102003D01*
X369566Y102142D01*
X369760Y102239D01*
X369954Y102322D01*
X370162Y102364D01*
X370328Y102392D01*
X370481Y102419D01*
X371369D01*
X371646Y102405D01*
D02*
G37*
G36*
X382907D02*
X382963Y102392D01*
X382990Y102350D01*
X383018Y102322D01*
X383046Y102239D01*
Y102225D01*
Y102211D01*
Y101532D01*
X383032Y101462D01*
X383018Y101407D01*
X382976Y101379D01*
X382935Y101351D01*
X382866Y101324D01*
X381701D01*
X381631Y101310D01*
X381604Y101268D01*
X381590Y101227D01*
Y101213D01*
Y96220D01*
X381576Y96151D01*
X381548Y96095D01*
X381520Y96067D01*
X381479Y96040D01*
X381395Y96012D01*
X380522D01*
X380452Y96026D01*
X380397Y96040D01*
X380369Y96081D01*
X380341Y96123D01*
X380314Y96192D01*
Y96206D01*
Y96220D01*
Y101213D01*
X380300Y101282D01*
X380258Y101310D01*
X380217Y101324D01*
X379066D01*
X378996Y101337D01*
X378941Y101351D01*
X378899Y101393D01*
X378871Y101434D01*
X378844Y101504D01*
Y101518D01*
Y101532D01*
Y102211D01*
X378858Y102281D01*
X378871Y102336D01*
X378913Y102364D01*
X378955Y102392D01*
X379024Y102419D01*
X382838D01*
X382907Y102405D01*
D02*
G37*
G36*
X377956D02*
X378012Y102392D01*
X378039Y102350D01*
X378067Y102322D01*
X378095Y102239D01*
Y102225D01*
Y102211D01*
Y96220D01*
X378081Y96151D01*
X378067Y96095D01*
X378026Y96067D01*
X377984Y96040D01*
X377915Y96012D01*
X377027D01*
X376958Y96026D01*
X376902Y96040D01*
X376874Y96081D01*
X376847Y96123D01*
X376819Y96192D01*
Y96206D01*
Y96220D01*
Y98106D01*
X376805Y98175D01*
X376763Y98203D01*
X376722Y98217D01*
X375446D01*
X375169Y98231D01*
X374933Y98286D01*
X374725Y98356D01*
X374544Y98425D01*
X374420Y98508D01*
X374323Y98564D01*
X374253Y98619D01*
X374239Y98633D01*
X374101Y98813D01*
X373990Y99008D01*
X373921Y99202D01*
X373865Y99396D01*
X373837Y99576D01*
X373810Y99715D01*
Y99770D01*
Y99812D01*
Y99826D01*
Y99840D01*
Y100797D01*
X373823Y101074D01*
X373879Y101310D01*
X373948Y101518D01*
X374017Y101684D01*
X374101Y101823D01*
X374170Y101906D01*
X374226Y101975D01*
X374239Y101989D01*
X374420Y102128D01*
X374614Y102239D01*
X374808Y102308D01*
X375002Y102364D01*
X375182Y102392D01*
X375321Y102419D01*
X377887D01*
X377956Y102405D01*
D02*
G37*
G36*
X280202Y212374D02*
X280326Y212332D01*
X280382Y212304D01*
X280424Y212290D01*
X280451Y212262D01*
X280465D01*
X281367Y211694D01*
X281422Y211666D01*
X281450Y211625D01*
X281505Y211541D01*
X281519Y211472D01*
Y211458D01*
Y211444D01*
Y210626D01*
X281505Y210557D01*
X281491Y210515D01*
X281450Y210487D01*
X281339D01*
X281325Y210501D01*
X281311D01*
X280326Y211056D01*
Y206202D01*
X280313Y206133D01*
X280299Y206077D01*
X280257Y206049D01*
X280215Y206022D01*
X280146Y205994D01*
X279259D01*
X279189Y206008D01*
X279134Y206022D01*
X279120Y206036D01*
X279106D01*
X279078Y206077D01*
X279065Y206133D01*
Y206188D01*
Y206202D01*
Y212193D01*
X279078Y212262D01*
X279092Y212318D01*
X279134Y212346D01*
X279161Y212374D01*
X279245Y212401D01*
X280077D01*
X280202Y212374D01*
D02*
G37*
G36*
X291213Y212387D02*
X291269Y212374D01*
X291296Y212332D01*
X291324Y212304D01*
X291352Y212221D01*
Y212207D01*
Y212193D01*
Y211514D01*
X291338Y211444D01*
X291324Y211389D01*
X291283Y211361D01*
X291241Y211333D01*
X291172Y211306D01*
X290007D01*
X289937Y211292D01*
X289910Y211250D01*
X289896Y211208D01*
Y211195D01*
Y206202D01*
X289882Y206133D01*
X289854Y206077D01*
X289826Y206049D01*
X289785Y206022D01*
X289701Y205994D01*
X288828D01*
X288759Y206008D01*
X288703Y206022D01*
X288675Y206063D01*
X288647Y206105D01*
X288620Y206174D01*
Y206188D01*
Y206202D01*
Y211195D01*
X288606Y211264D01*
X288564Y211292D01*
X288523Y211306D01*
X287372D01*
X287302Y211320D01*
X287247Y211333D01*
X287205Y211375D01*
X287178Y211416D01*
X287150Y211486D01*
Y211500D01*
Y211514D01*
Y212193D01*
X287164Y212262D01*
X287178Y212318D01*
X287219Y212346D01*
X287261Y212374D01*
X287330Y212401D01*
X291144D01*
X291213Y212387D01*
D02*
G37*
G36*
X286262D02*
X286318Y212374D01*
X286345Y212332D01*
X286373Y212304D01*
X286401Y212221D01*
Y212207D01*
Y212193D01*
Y206202D01*
X286387Y206133D01*
X286373Y206077D01*
X286332Y206049D01*
X286290Y206022D01*
X286221Y205994D01*
X285333D01*
X285264Y206008D01*
X285208Y206022D01*
X285180Y206063D01*
X285153Y206105D01*
X285125Y206174D01*
Y206188D01*
Y206202D01*
Y208088D01*
X285111Y208158D01*
X285070Y208185D01*
X285028Y208199D01*
X283752D01*
X283475Y208213D01*
X283239Y208268D01*
X283031Y208338D01*
X282850Y208407D01*
X282726Y208490D01*
X282629Y208546D01*
X282559Y208601D01*
X282545Y208615D01*
X282407Y208795D01*
X282296Y208990D01*
X282227Y209184D01*
X282171Y209378D01*
X282143Y209558D01*
X282115Y209697D01*
Y209752D01*
Y209794D01*
Y209808D01*
Y209822D01*
Y210779D01*
X282129Y211056D01*
X282185Y211292D01*
X282254Y211500D01*
X282323Y211666D01*
X282407Y211805D01*
X282476Y211888D01*
X282532Y211957D01*
X282545Y211971D01*
X282726Y212110D01*
X282920Y212221D01*
X283114Y212290D01*
X283308Y212346D01*
X283489Y212374D01*
X283627Y212401D01*
X286193D01*
X286262Y212387D01*
D02*
G37*
%LPC*%
G36*
X332252Y255633D02*
X329836D01*
X329642Y255577D01*
X329475Y255550D01*
X329364Y255494D01*
X329253Y255439D01*
X329198Y255411D01*
X329142Y255355D01*
X329059Y255244D01*
X328976Y255105D01*
X328892Y254828D01*
X328865Y254689D01*
Y254578D01*
Y254495D01*
Y254467D01*
Y248359D01*
Y248137D01*
X328920Y247943D01*
X328948Y247776D01*
X329003Y247665D01*
X329059Y247554D01*
X329087Y247499D01*
X329142Y247471D01*
Y247443D01*
X329253Y247360D01*
X329392Y247304D01*
X329697Y247221D01*
X329836D01*
X329947Y247193D01*
X332224D01*
X332363Y247221D01*
X332418Y247304D01*
X332446Y247388D01*
Y247415D01*
Y255411D01*
X332418Y255550D01*
X332335Y255605D01*
X332252Y255633D01*
D02*
G37*
G36*
X320869Y252995D02*
X318759D01*
X318620Y252968D01*
X318565Y252885D01*
X318537Y252801D01*
Y252773D01*
Y248692D01*
X318565Y248442D01*
X318592Y248193D01*
X318648Y247998D01*
X318759Y247832D01*
X318953Y247554D01*
X319203Y247388D01*
X319453Y247276D01*
X319675Y247221D01*
X319842Y247193D01*
X320869D01*
X321063Y247221D01*
X321230Y247276D01*
X321341Y247332D01*
X321452Y247360D01*
X321508Y247415D01*
X321535Y247443D01*
X321563D01*
X321646Y247554D01*
X321702Y247693D01*
X321785Y247998D01*
Y248137D01*
X321813Y248248D01*
Y248332D01*
Y248359D01*
Y251802D01*
Y252024D01*
X321785Y252218D01*
X321730Y252385D01*
X321674Y252496D01*
X321646Y252607D01*
X321591Y252662D01*
X321563Y252718D01*
X321452Y252801D01*
X321313Y252885D01*
X321008Y252968D01*
X320869Y252995D01*
D02*
G37*
G36*
X296216D02*
X295078D01*
X294828Y252968D01*
X294634Y252940D01*
X294439Y252857D01*
X294301Y252746D01*
X294051Y252523D01*
X293884Y252246D01*
X293801Y251940D01*
X293745Y251718D01*
X293718Y251524D01*
Y251496D01*
Y251469D01*
Y248692D01*
X293745Y248442D01*
X293773Y248193D01*
X293829Y247998D01*
X293940Y247832D01*
X294134Y247554D01*
X294384Y247388D01*
X294634Y247276D01*
X294856Y247221D01*
X295022Y247193D01*
X296216D01*
X296411Y247221D01*
X296577Y247276D01*
X296688Y247332D01*
X296799Y247360D01*
X296855Y247415D01*
X296882Y247443D01*
X296910D01*
X296994Y247554D01*
X297049Y247693D01*
X297132Y247998D01*
Y248137D01*
X297160Y248248D01*
Y248332D01*
Y248359D01*
Y251802D01*
Y252024D01*
X297132Y252218D01*
X297077Y252385D01*
X297021Y252496D01*
X296994Y252607D01*
X296938Y252662D01*
X296910Y252718D01*
X296799Y252801D01*
X296660Y252885D01*
X296355Y252968D01*
X296216Y252995D01*
D02*
G37*
G36*
X281641Y255633D02*
X279448D01*
X279254Y255577D01*
X279087Y255550D01*
X278948Y255494D01*
X278865Y255439D01*
X278782Y255411D01*
X278726Y255355D01*
X278615Y255244D01*
X278559Y255105D01*
X278448Y254800D01*
Y254689D01*
X278421Y254578D01*
Y254495D01*
Y254467D01*
Y252912D01*
Y252690D01*
X278476Y252523D01*
X278504Y252357D01*
X278559Y252246D01*
X278615Y252135D01*
X278671Y252079D01*
X278698Y252052D01*
X278726Y252024D01*
X278865Y251940D01*
X279004Y251885D01*
X279309Y251802D01*
X279448D01*
X279559Y251774D01*
X281613D01*
X281752Y251802D01*
X281808Y251885D01*
X281835Y251968D01*
Y251996D01*
Y255411D01*
X281808Y255550D01*
X281724Y255605D01*
X281641Y255633D01*
D02*
G37*
G36*
X270397Y252995D02*
X269093D01*
X268898Y252968D01*
X268759Y252912D01*
X268621Y252885D01*
X268537Y252829D01*
X268482Y252773D01*
X268426Y252746D01*
X268343Y252635D01*
X268287Y252496D01*
X268204Y252190D01*
X268176Y252052D01*
Y251940D01*
Y251857D01*
Y251829D01*
Y250886D01*
X268204Y250747D01*
X268287Y250691D01*
X268371Y250664D01*
X271091D01*
X271230Y250691D01*
X271286Y250774D01*
X271313Y250858D01*
Y250886D01*
Y251829D01*
Y252052D01*
X271286Y252246D01*
X271230Y252412D01*
X271175Y252551D01*
X271147Y252635D01*
X271091Y252690D01*
X271064Y252746D01*
X270953Y252829D01*
X270814Y252885D01*
X270536Y252968D01*
X270397Y252995D01*
D02*
G37*
G36*
X260486D02*
X259348D01*
X259098Y252968D01*
X258904Y252940D01*
X258710Y252857D01*
X258571Y252746D01*
X258321Y252523D01*
X258154Y252246D01*
X258071Y251940D01*
X258015Y251718D01*
X257988Y251524D01*
Y251496D01*
Y251469D01*
Y248692D01*
X258015Y248442D01*
X258043Y248193D01*
X258099Y247998D01*
X258210Y247832D01*
X258404Y247554D01*
X258654Y247388D01*
X258904Y247276D01*
X259126Y247221D01*
X259293Y247193D01*
X260486D01*
X260681Y247221D01*
X260847Y247276D01*
X260958Y247332D01*
X261069Y247360D01*
X261125Y247415D01*
X261152Y247443D01*
X261180D01*
X261264Y247554D01*
X261319Y247693D01*
X261402Y247998D01*
Y248137D01*
X261430Y248248D01*
Y248332D01*
Y248359D01*
Y251802D01*
Y252024D01*
X261402Y252218D01*
X261347Y252385D01*
X261291Y252496D01*
X261264Y252607D01*
X261208Y252662D01*
X261180Y252718D01*
X261069Y252801D01*
X260930Y252885D01*
X260625Y252968D01*
X260486Y252995D01*
D02*
G37*
G36*
X249992D02*
X248521D01*
X248326Y252968D01*
X248160Y252912D01*
X248049Y252885D01*
X247938Y252829D01*
X247882Y252773D01*
X247827Y252746D01*
X247743Y252635D01*
X247660Y252496D01*
X247577Y252190D01*
X247549Y252052D01*
Y251940D01*
Y251857D01*
Y251829D01*
Y248332D01*
Y248109D01*
X247605Y247915D01*
X247632Y247749D01*
X247688Y247637D01*
X247743Y247526D01*
X247771Y247471D01*
X247827Y247443D01*
Y247415D01*
X247938Y247332D01*
X248076Y247276D01*
X248382Y247193D01*
X248521D01*
X248632Y247165D01*
X249992D01*
X250187Y247193D01*
X250325Y247249D01*
X250464Y247304D01*
X250547Y247332D01*
X250603Y247388D01*
X250658Y247415D01*
X250742Y247526D01*
X250797Y247665D01*
X250881Y247971D01*
Y248109D01*
X250908Y248220D01*
Y248304D01*
Y248332D01*
Y251829D01*
Y252052D01*
X250881Y252246D01*
X250825Y252412D01*
X250770Y252551D01*
X250742Y252635D01*
X250686Y252690D01*
X250658Y252746D01*
X250547Y252829D01*
X250409Y252885D01*
X250131Y252968D01*
X249992Y252995D01*
D02*
G37*
G36*
X229337D02*
X228199D01*
X227949Y252968D01*
X227755Y252940D01*
X227560Y252857D01*
X227421Y252746D01*
X227172Y252523D01*
X227005Y252246D01*
X226922Y251940D01*
X226866Y251718D01*
X226838Y251524D01*
Y251496D01*
Y251469D01*
Y248692D01*
X226866Y248442D01*
X226894Y248193D01*
X226950Y247998D01*
X227061Y247832D01*
X227255Y247554D01*
X227505Y247388D01*
X227755Y247276D01*
X227977Y247221D01*
X228143Y247193D01*
X229337D01*
X229531Y247221D01*
X229698Y247276D01*
X229809Y247332D01*
X229920Y247360D01*
X229976Y247415D01*
X230003Y247443D01*
X230031D01*
X230114Y247554D01*
X230170Y247693D01*
X230253Y247998D01*
Y248137D01*
X230281Y248248D01*
Y248332D01*
Y248359D01*
Y251802D01*
Y252024D01*
X230253Y252218D01*
X230198Y252385D01*
X230142Y252496D01*
X230114Y252607D01*
X230059Y252662D01*
X230031Y252718D01*
X229920Y252801D01*
X229781Y252885D01*
X229476Y252968D01*
X229337Y252995D01*
D02*
G37*
G36*
X218843D02*
X217372D01*
X217177Y252968D01*
X217011Y252912D01*
X216900Y252885D01*
X216789Y252829D01*
X216733Y252773D01*
X216677Y252746D01*
X216594Y252635D01*
X216511Y252496D01*
X216428Y252190D01*
X216400Y252052D01*
Y251940D01*
Y251857D01*
Y251829D01*
Y248332D01*
Y248109D01*
X216455Y247915D01*
X216483Y247749D01*
X216539Y247637D01*
X216594Y247526D01*
X216622Y247471D01*
X216677Y247443D01*
Y247415D01*
X216789Y247332D01*
X216927Y247276D01*
X217233Y247193D01*
X217372D01*
X217483Y247165D01*
X218843D01*
X219037Y247193D01*
X219176Y247249D01*
X219315Y247304D01*
X219398Y247332D01*
X219454Y247388D01*
X219509Y247415D01*
X219592Y247526D01*
X219648Y247665D01*
X219731Y247971D01*
Y248109D01*
X219759Y248220D01*
Y248304D01*
Y248332D01*
Y251829D01*
Y252052D01*
X219731Y252246D01*
X219676Y252412D01*
X219620Y252551D01*
X219592Y252635D01*
X219537Y252690D01*
X219509Y252746D01*
X219398Y252829D01*
X219259Y252885D01*
X218982Y252968D01*
X218843Y252995D01*
D02*
G37*
G36*
X183585Y255633D02*
X181975D01*
X181780Y255577D01*
X181642Y255550D01*
X181503Y255494D01*
X181420Y255439D01*
X181364Y255411D01*
X181308Y255355D01*
X181225Y255244D01*
X181142Y255105D01*
X181059Y254828D01*
X181031Y254689D01*
Y254578D01*
Y254495D01*
Y254467D01*
Y248359D01*
Y248137D01*
X181086Y247943D01*
X181114Y247776D01*
X181170Y247665D01*
X181225Y247554D01*
X181253Y247499D01*
X181308Y247471D01*
Y247443D01*
X181420Y247360D01*
X181558Y247304D01*
X181836Y247221D01*
X181975D01*
X182086Y247193D01*
X183585D01*
X183779Y247221D01*
X183946Y247276D01*
X184057Y247332D01*
X184168Y247360D01*
X184223Y247415D01*
X184251Y247443D01*
X184279D01*
X184362Y247554D01*
X184418Y247693D01*
X184501Y247998D01*
Y248137D01*
X184529Y248248D01*
Y248332D01*
Y248359D01*
Y254467D01*
Y254689D01*
X184501Y254883D01*
X184446Y255022D01*
X184390Y255161D01*
X184362Y255244D01*
X184307Y255300D01*
X184279Y255355D01*
X184168Y255439D01*
X184029Y255522D01*
X183724Y255605D01*
X183585Y255633D01*
D02*
G37*
G36*
X336250Y328610D02*
X324723D01*
X323750Y328333D01*
X322917Y328194D01*
X322361Y327916D01*
X321806Y327638D01*
X321528Y327499D01*
X321250Y327222D01*
X320695Y326666D01*
X320417Y325972D01*
X319862Y324583D01*
Y323888D01*
X319723Y323333D01*
Y322916D01*
Y322777D01*
Y318888D01*
Y317777D01*
X320000Y316944D01*
X320139Y316111D01*
X320417Y315555D01*
X320695Y315000D01*
X320973Y314722D01*
X321111Y314583D01*
X321250Y314444D01*
X321945Y314027D01*
X322639Y313750D01*
X324167Y313333D01*
X324861D01*
X325417Y313194D01*
X336111D01*
X336806Y313333D01*
X337084Y313750D01*
X337222Y314027D01*
Y314166D01*
Y327499D01*
X337084Y328194D01*
X336667Y328472D01*
X336250Y328610D01*
D02*
G37*
G36*
Y302777D02*
X324028D01*
X322917Y302639D01*
X322084Y302361D01*
X321389Y302222D01*
X320973Y301944D01*
X320556Y301666D01*
X320278Y301528D01*
X319723Y300972D01*
X319445Y300278D01*
X318889Y298889D01*
Y298194D01*
X318750Y297639D01*
Y297222D01*
Y297083D01*
Y291389D01*
Y290278D01*
X319028Y289305D01*
X319167Y288472D01*
X319445Y287917D01*
X319723Y287361D01*
X320000Y287083D01*
X320139Y286944D01*
X320278Y286805D01*
X320834Y286389D01*
X321528Y286111D01*
X323195Y285694D01*
X323889D01*
X324445Y285555D01*
X336111D01*
X336806Y285694D01*
X337084Y286111D01*
X337222Y286528D01*
Y286667D01*
Y301666D01*
X337084Y302361D01*
X336667Y302639D01*
X336250Y302777D01*
D02*
G37*
G36*
X226807Y328194D02*
X215002D01*
X214029Y327916D01*
X213335Y327777D01*
X212641Y327499D01*
X212224Y327222D01*
X211946Y327083D01*
X211668Y326805D01*
X211252Y326249D01*
X210835Y325555D01*
X210418Y324166D01*
X210280Y323472D01*
Y322916D01*
Y322499D01*
Y322360D01*
Y313888D01*
Y312777D01*
X210557Y311944D01*
X210696Y311111D01*
X210974Y310555D01*
X211252Y310000D01*
X211391Y309722D01*
X211668Y309444D01*
X212224Y309027D01*
X212918Y308750D01*
X214307Y308333D01*
X215002D01*
X215557Y308194D01*
X226668D01*
X227363Y308333D01*
X227640Y308750D01*
X227779Y309027D01*
Y309166D01*
Y327083D01*
X227640Y327777D01*
X227224Y328055D01*
X226807Y328194D01*
D02*
G37*
G36*
X173752D02*
X161669D01*
X160697Y327916D01*
X159863Y327777D01*
X159308Y327499D01*
X158752Y327222D01*
X158475Y327083D01*
X158197Y326805D01*
X157780Y326249D01*
X157364Y325555D01*
X156947Y324166D01*
X156808Y323472D01*
Y322916D01*
Y322499D01*
Y322360D01*
Y291805D01*
Y290694D01*
X157086Y289722D01*
X157225Y288889D01*
X157502Y288333D01*
X157780Y287778D01*
X157919Y287500D01*
X158197Y287361D01*
Y287222D01*
X158752Y286805D01*
X159447Y286528D01*
X160975Y286111D01*
X161669D01*
X162225Y285972D01*
X173613D01*
X174308Y286111D01*
X174585Y286528D01*
X174724Y286944D01*
Y287083D01*
Y327083D01*
X174585Y327777D01*
X174169Y328055D01*
X173752Y328194D01*
D02*
G37*
G36*
X364784Y431524D02*
X363605D01*
X363508Y431496D01*
X363439Y431482D01*
X363369Y431454D01*
X363328Y431427D01*
X363300Y431413D01*
X363272Y431385D01*
X363231Y431329D01*
X363189Y431260D01*
X363147Y431121D01*
X363134Y431052D01*
Y430997D01*
Y430955D01*
Y430941D01*
Y430095D01*
Y429984D01*
X363161Y429901D01*
X363175Y429818D01*
X363203Y429762D01*
X363231Y429707D01*
X363245Y429679D01*
X363272Y429651D01*
X363328Y429610D01*
X363397Y429582D01*
X363536Y429540D01*
X363605D01*
X363661Y429526D01*
X364770D01*
X364839Y429540D01*
X364867Y429582D01*
X364881Y429610D01*
Y429624D01*
Y431413D01*
X364867Y431482D01*
X364826Y431510D01*
X364784Y431524D01*
D02*
G37*
G36*
X79034Y168126D02*
X77855D01*
X77758Y168098D01*
X77689Y168084D01*
X77619Y168056D01*
X77578Y168029D01*
X77550Y168015D01*
X77522Y167987D01*
X77481Y167931D01*
X77439Y167862D01*
X77397Y167723D01*
X77383Y167654D01*
Y167599D01*
Y167557D01*
Y167543D01*
Y166697D01*
Y166586D01*
X77411Y166503D01*
X77425Y166420D01*
X77453Y166364D01*
X77481Y166309D01*
X77495Y166281D01*
X77522Y166253D01*
X77578Y166212D01*
X77647Y166184D01*
X77786Y166142D01*
X77855D01*
X77910Y166129D01*
X79020D01*
X79089Y166142D01*
X79117Y166184D01*
X79131Y166212D01*
Y166226D01*
Y168015D01*
X79117Y168084D01*
X79075Y168112D01*
X79034Y168126D01*
D02*
G37*
G36*
X69049Y165768D02*
X67787D01*
X67689Y165740D01*
X67606Y165726D01*
X67551Y165699D01*
X67495Y165671D01*
X67468Y165657D01*
X67440Y165629D01*
X67398Y165574D01*
X67357Y165504D01*
X67315Y165366D01*
X67301Y165296D01*
Y165241D01*
Y165199D01*
Y165186D01*
Y164492D01*
Y164381D01*
X67329Y164284D01*
X67343Y164201D01*
X67371Y164145D01*
X67398Y164090D01*
X67412Y164062D01*
X67440Y164048D01*
Y164034D01*
X67495Y163993D01*
X67565Y163965D01*
X67717Y163923D01*
X67787D01*
X67842Y163910D01*
X68577D01*
X68674Y163923D01*
X68757Y163951D01*
X68813Y163979D01*
X68868Y163993D01*
X68896Y164021D01*
X68910Y164034D01*
X68924D01*
X68965Y164090D01*
X68993Y164159D01*
X69035Y164312D01*
Y164381D01*
X69049Y164437D01*
Y164478D01*
Y164492D01*
Y165768D01*
D02*
G37*
G36*
X31790Y171428D02*
X30611D01*
X30514Y171400D01*
X30445Y171386D01*
X30375Y171358D01*
X30334Y171331D01*
X30306Y171317D01*
X30278Y171289D01*
X30237Y171233D01*
X30195Y171164D01*
X30153Y171025D01*
X30140Y170956D01*
Y170901D01*
Y170859D01*
Y170845D01*
Y169999D01*
Y169888D01*
X30167Y169805D01*
X30181Y169722D01*
X30209Y169666D01*
X30237Y169611D01*
X30250Y169583D01*
X30278Y169555D01*
X30334Y169514D01*
X30403Y169486D01*
X30542Y169444D01*
X30611D01*
X30666Y169431D01*
X31776D01*
X31845Y169444D01*
X31873Y169486D01*
X31887Y169514D01*
Y169528D01*
Y171317D01*
X31873Y171386D01*
X31832Y171414D01*
X31790Y171428D01*
D02*
G37*
G36*
X32552Y211306D02*
X31373D01*
X31276Y211278D01*
X31207Y211264D01*
X31137Y211236D01*
X31096Y211208D01*
X31068Y211195D01*
X31040Y211167D01*
X30999Y211111D01*
X30957Y211042D01*
X30915Y210903D01*
X30902Y210834D01*
Y210779D01*
Y210737D01*
Y210723D01*
Y209877D01*
Y209766D01*
X30929Y209683D01*
X30943Y209600D01*
X30971Y209544D01*
X30999Y209489D01*
X31012Y209461D01*
X31040Y209433D01*
X31096Y209392D01*
X31165Y209364D01*
X31304Y209322D01*
X31373D01*
X31428Y209308D01*
X32538D01*
X32607Y209322D01*
X32635Y209364D01*
X32649Y209392D01*
Y209406D01*
Y211195D01*
X32635Y211264D01*
X32594Y211292D01*
X32552Y211306D01*
D02*
G37*
G36*
X21180Y211333D02*
Y208255D01*
X22789D01*
X21180Y211333D01*
D02*
G37*
G36*
X241848Y411458D02*
X240669D01*
X240572Y411430D01*
X240503Y411416D01*
X240433Y411388D01*
X240392Y411361D01*
X240364Y411347D01*
X240336Y411319D01*
X240295Y411263D01*
X240253Y411194D01*
X240211Y411055D01*
X240198Y410986D01*
Y410931D01*
Y410889D01*
Y410875D01*
Y410029D01*
Y409918D01*
X240225Y409835D01*
X240239Y409752D01*
X240267Y409696D01*
X240295Y409641D01*
X240308Y409613D01*
X240336Y409585D01*
X240392Y409544D01*
X240461Y409516D01*
X240600Y409474D01*
X240669D01*
X240725Y409460D01*
X241834D01*
X241903Y409474D01*
X241931Y409516D01*
X241945Y409544D01*
Y409558D01*
Y411347D01*
X241931Y411416D01*
X241889Y411444D01*
X241848Y411458D01*
D02*
G37*
G36*
X164632Y491468D02*
X163453D01*
X163356Y491440D01*
X163287Y491426D01*
X163217Y491398D01*
X163176Y491371D01*
X163148Y491357D01*
X163120Y491329D01*
X163079Y491273D01*
X163037Y491204D01*
X162995Y491065D01*
X162981Y490996D01*
Y490941D01*
Y490899D01*
Y490885D01*
Y490039D01*
Y489928D01*
X163009Y489845D01*
X163023Y489762D01*
X163051Y489706D01*
X163079Y489651D01*
X163092Y489623D01*
X163120Y489595D01*
X163176Y489554D01*
X163245Y489526D01*
X163384Y489484D01*
X163453D01*
X163508Y489470D01*
X164618D01*
X164687Y489484D01*
X164715Y489526D01*
X164729Y489554D01*
Y489568D01*
Y491357D01*
X164715Y491426D01*
X164674Y491454D01*
X164632Y491468D01*
D02*
G37*
G36*
X321350Y521440D02*
X320171D01*
X320074Y521412D01*
X320005Y521398D01*
X319935Y521370D01*
X319894Y521343D01*
X319866Y521329D01*
X319838Y521301D01*
X319797Y521245D01*
X319755Y521176D01*
X319713Y521037D01*
X319699Y520968D01*
Y520913D01*
Y520871D01*
Y520857D01*
Y520011D01*
Y519900D01*
X319727Y519817D01*
X319741Y519734D01*
X319769Y519678D01*
X319797Y519623D01*
X319811Y519595D01*
X319838Y519567D01*
X319894Y519526D01*
X319963Y519498D01*
X320102Y519456D01*
X320171D01*
X320227Y519442D01*
X321336D01*
X321405Y519456D01*
X321433Y519498D01*
X321447Y519526D01*
Y519540D01*
Y521329D01*
X321433Y521398D01*
X321391Y521426D01*
X321350Y521440D01*
D02*
G37*
G36*
X374690Y541506D02*
X373511D01*
X373414Y541478D01*
X373345Y541464D01*
X373275Y541436D01*
X373234Y541409D01*
X373206Y541395D01*
X373178Y541367D01*
X373137Y541311D01*
X373095Y541242D01*
X373053Y541103D01*
X373040Y541034D01*
Y540979D01*
Y540937D01*
Y540923D01*
Y540077D01*
Y539966D01*
X373067Y539883D01*
X373081Y539800D01*
X373109Y539744D01*
X373137Y539689D01*
X373150Y539661D01*
X373178Y539633D01*
X373234Y539592D01*
X373303Y539564D01*
X373442Y539522D01*
X373511D01*
X373567Y539509D01*
X374676D01*
X374745Y539522D01*
X374773Y539564D01*
X374787Y539592D01*
Y539606D01*
Y541395D01*
X374773Y541464D01*
X374731Y541492D01*
X374690Y541506D01*
D02*
G37*
G36*
X364205D02*
X363401D01*
X363304Y541478D01*
X363235Y541464D01*
X363165Y541436D01*
X363124Y541409D01*
X363096Y541395D01*
X363068Y541367D01*
X363027Y541311D01*
X362985Y541242D01*
X362943Y541103D01*
X362929Y541034D01*
Y540979D01*
Y540937D01*
Y540923D01*
Y537872D01*
Y537761D01*
X362957Y537664D01*
X362971Y537581D01*
X362999Y537525D01*
X363027Y537470D01*
X363040Y537442D01*
X363068Y537428D01*
Y537414D01*
X363124Y537373D01*
X363193Y537345D01*
X363332Y537304D01*
X363401D01*
X363456Y537290D01*
X364205D01*
X364302Y537304D01*
X364386Y537331D01*
X364441Y537359D01*
X364497Y537373D01*
X364524Y537401D01*
X364538Y537414D01*
X364552D01*
X364594Y537470D01*
X364621Y537539D01*
X364663Y537692D01*
Y537761D01*
X364677Y537817D01*
Y537858D01*
Y537872D01*
Y540923D01*
Y541034D01*
X364663Y541131D01*
X364635Y541200D01*
X364608Y541270D01*
X364594Y541311D01*
X364566Y541339D01*
X364552Y541367D01*
X364497Y541409D01*
X364427Y541450D01*
X364275Y541492D01*
X364205Y541506D01*
D02*
G37*
G36*
X200192D02*
X199013D01*
X198916Y541478D01*
X198847Y541464D01*
X198777Y541436D01*
X198736Y541409D01*
X198708Y541395D01*
X198680Y541367D01*
X198639Y541311D01*
X198597Y541242D01*
X198555Y541103D01*
X198542Y541034D01*
Y540979D01*
Y540937D01*
Y540923D01*
Y540077D01*
Y539966D01*
X198569Y539883D01*
X198583Y539800D01*
X198611Y539744D01*
X198639Y539689D01*
X198652Y539661D01*
X198680Y539633D01*
X198736Y539592D01*
X198805Y539564D01*
X198944Y539522D01*
X199013D01*
X199069Y539509D01*
X200178D01*
X200247Y539522D01*
X200275Y539564D01*
X200289Y539592D01*
Y539606D01*
Y541395D01*
X200275Y541464D01*
X200233Y541492D01*
X200192Y541506D01*
D02*
G37*
G36*
X191413D02*
X190623D01*
X190526Y541478D01*
X190442Y541464D01*
X190387Y541436D01*
X190331Y541409D01*
X190304Y541395D01*
X190276Y541367D01*
X190234Y541311D01*
X190193Y541242D01*
X190151Y541103D01*
X190137Y541034D01*
Y540979D01*
Y540937D01*
Y540923D01*
Y539578D01*
X191413D01*
X191510Y539592D01*
X191580Y539619D01*
X191649Y539647D01*
X191691Y539661D01*
X191718Y539689D01*
X191746Y539703D01*
X191788Y539758D01*
X191815Y539827D01*
X191857Y539980D01*
Y540049D01*
X191871Y540091D01*
Y540133D01*
Y540146D01*
Y540923D01*
Y541034D01*
X191857Y541131D01*
X191829Y541200D01*
X191801Y541270D01*
X191788Y541311D01*
X191760Y541339D01*
X191746Y541367D01*
X191691Y541409D01*
X191621Y541450D01*
X191483Y541492D01*
X191413Y541506D01*
D02*
G37*
G36*
X150408D02*
X149229D01*
X149132Y541478D01*
X149063Y541464D01*
X148993Y541436D01*
X148952Y541409D01*
X148924Y541395D01*
X148896Y541367D01*
X148855Y541311D01*
X148813Y541242D01*
X148771Y541103D01*
X148757Y541034D01*
Y540979D01*
Y540937D01*
Y540923D01*
Y540077D01*
Y539966D01*
X148785Y539883D01*
X148799Y539800D01*
X148827Y539744D01*
X148855Y539689D01*
X148869Y539661D01*
X148896Y539633D01*
X148952Y539592D01*
X149021Y539564D01*
X149160Y539522D01*
X149229D01*
X149284Y539509D01*
X150394D01*
X150463Y539522D01*
X150491Y539564D01*
X150505Y539592D01*
Y539606D01*
Y541395D01*
X150491Y541464D01*
X150449Y541492D01*
X150408Y541506D01*
D02*
G37*
G36*
X141546Y541520D02*
X140645D01*
X140547Y541492D01*
X140478Y541478D01*
X140409Y541450D01*
X140367Y541422D01*
X140339Y541409D01*
X140312Y541381D01*
X140270Y541325D01*
X140229Y541256D01*
X140187Y541117D01*
X140173Y541048D01*
Y541006D01*
Y540965D01*
Y540951D01*
Y540535D01*
Y540424D01*
X140201Y540327D01*
X140215Y540244D01*
X140242Y540174D01*
X140270Y540133D01*
X140284Y540091D01*
X140312Y540077D01*
Y540063D01*
X140367Y540008D01*
X140436Y539980D01*
X140575Y539925D01*
X140645D01*
X140700Y539911D01*
X141435D01*
X141546Y539925D01*
X141643Y539939D01*
X141726Y539966D01*
X141782Y539994D01*
X141837Y540022D01*
X141865Y540036D01*
X141879Y540063D01*
X141893D01*
X141934Y540133D01*
X141962Y540202D01*
X142004Y540354D01*
Y540424D01*
X142017Y540479D01*
Y540521D01*
Y540535D01*
Y540951D01*
Y541062D01*
X142004Y541145D01*
X141976Y541228D01*
X141948Y541284D01*
X141934Y541325D01*
X141906Y541353D01*
X141893Y541381D01*
X141837Y541422D01*
X141768Y541464D01*
X141615Y541506D01*
X141546Y541520D01*
D02*
G37*
G36*
X141490Y538926D02*
X140645D01*
X140547Y538898D01*
X140478Y538885D01*
X140409Y538857D01*
X140367Y538829D01*
X140339Y538801D01*
X140312Y538787D01*
Y538773D01*
X140270Y538704D01*
X140229Y538635D01*
X140187Y538482D01*
X140173Y538413D01*
Y538358D01*
Y538316D01*
Y538302D01*
Y537844D01*
Y537733D01*
X140201Y537650D01*
X140215Y537567D01*
X140242Y537511D01*
X140270Y537456D01*
X140284Y537428D01*
X140312Y537401D01*
X140367Y537359D01*
X140436Y537331D01*
X140575Y537290D01*
X140645D01*
X140700Y537276D01*
X141546D01*
X141643Y537290D01*
X141726Y537317D01*
X141782Y537345D01*
X141837Y537359D01*
X141865Y537387D01*
X141879Y537401D01*
X141893D01*
X141934Y537456D01*
X141962Y537525D01*
X142004Y537678D01*
Y537747D01*
X142017Y537789D01*
Y537831D01*
Y537844D01*
Y538302D01*
Y538413D01*
X142004Y538510D01*
X141976Y538593D01*
X141948Y538663D01*
X141934Y538704D01*
X141906Y538746D01*
X141893Y538773D01*
X141837Y538829D01*
X141768Y538857D01*
X141615Y538912D01*
X141546D01*
X141490Y538926D01*
D02*
G37*
G36*
X299760Y401298D02*
X298581D01*
X298484Y401270D01*
X298415Y401256D01*
X298345Y401228D01*
X298304Y401200D01*
X298276Y401187D01*
X298248Y401159D01*
X298207Y401103D01*
X298165Y401034D01*
X298123Y400895D01*
X298109Y400826D01*
Y400771D01*
Y400729D01*
Y400715D01*
Y399869D01*
Y399758D01*
X298137Y399675D01*
X298151Y399592D01*
X298179Y399536D01*
X298207Y399481D01*
X298221Y399453D01*
X298248Y399425D01*
X298304Y399384D01*
X298373Y399356D01*
X298512Y399314D01*
X298581D01*
X298636Y399300D01*
X299746D01*
X299815Y399314D01*
X299843Y399356D01*
X299857Y399384D01*
Y399398D01*
Y401187D01*
X299843Y401256D01*
X299802Y401284D01*
X299760Y401298D01*
D02*
G37*
G36*
X270296Y411458D02*
X269117D01*
X269020Y411430D01*
X268951Y411416D01*
X268881Y411388D01*
X268840Y411361D01*
X268812Y411347D01*
X268784Y411319D01*
X268743Y411263D01*
X268701Y411194D01*
X268659Y411055D01*
X268645Y410986D01*
Y410931D01*
Y410889D01*
Y410875D01*
Y410029D01*
Y409918D01*
X268673Y409835D01*
X268687Y409752D01*
X268715Y409696D01*
X268743Y409641D01*
X268757Y409613D01*
X268784Y409585D01*
X268840Y409544D01*
X268909Y409516D01*
X269048Y409474D01*
X269117D01*
X269172Y409460D01*
X270282D01*
X270351Y409474D01*
X270379Y409516D01*
X270393Y409544D01*
Y409558D01*
Y411347D01*
X270379Y411416D01*
X270338Y411444D01*
X270296Y411458D01*
D02*
G37*
G36*
X261905Y409100D02*
X260644D01*
X260546Y409072D01*
X260463Y409058D01*
X260408Y409031D01*
X260352Y409003D01*
X260324Y408989D01*
X260297Y408961D01*
X260255Y408906D01*
X260214Y408837D01*
X260172Y408698D01*
X260158Y408628D01*
Y408573D01*
Y408531D01*
Y408517D01*
Y407824D01*
Y407713D01*
X260186Y407616D01*
X260200Y407533D01*
X260227Y407477D01*
X260255Y407422D01*
X260269Y407394D01*
X260297Y407380D01*
Y407366D01*
X260352Y407325D01*
X260422Y407297D01*
X260574Y407256D01*
X260644D01*
X260699Y407242D01*
X261434D01*
X261531Y407256D01*
X261614Y407283D01*
X261670Y407311D01*
X261725Y407325D01*
X261753Y407353D01*
X261767Y407366D01*
X261781D01*
X261822Y407422D01*
X261850Y407491D01*
X261892Y407644D01*
Y407713D01*
X261905Y407769D01*
Y407810D01*
Y407824D01*
Y409100D01*
D02*
G37*
G36*
X264708Y376914D02*
X263529D01*
X263432Y376886D01*
X263363Y376872D01*
X263293Y376844D01*
X263252Y376816D01*
X263224Y376803D01*
X263196Y376775D01*
X263155Y376719D01*
X263113Y376650D01*
X263071Y376511D01*
X263057Y376442D01*
Y376387D01*
Y376345D01*
Y376331D01*
Y375485D01*
Y375374D01*
X263085Y375291D01*
X263099Y375208D01*
X263127Y375152D01*
X263155Y375097D01*
X263169Y375069D01*
X263196Y375041D01*
X263252Y375000D01*
X263321Y374972D01*
X263460Y374930D01*
X263529D01*
X263584Y374916D01*
X264694D01*
X264763Y374930D01*
X264791Y374972D01*
X264805Y375000D01*
Y375014D01*
Y376803D01*
X264791Y376872D01*
X264750Y376900D01*
X264708Y376914D01*
D02*
G37*
G36*
X200954Y411458D02*
X199775D01*
X199678Y411430D01*
X199609Y411416D01*
X199539Y411388D01*
X199498Y411361D01*
X199470Y411347D01*
X199442Y411319D01*
X199401Y411263D01*
X199359Y411194D01*
X199317Y411055D01*
X199303Y410986D01*
Y410931D01*
Y410889D01*
Y410875D01*
Y410029D01*
Y409918D01*
X199331Y409835D01*
X199345Y409752D01*
X199373Y409696D01*
X199401Y409641D01*
X199415Y409613D01*
X199442Y409585D01*
X199498Y409544D01*
X199567Y409516D01*
X199706Y409474D01*
X199775D01*
X199830Y409460D01*
X200940D01*
X201009Y409474D01*
X201037Y409516D01*
X201051Y409544D01*
Y409558D01*
Y411347D01*
X201037Y411416D01*
X200996Y411444D01*
X200954Y411458D01*
D02*
G37*
G36*
X191177Y411485D02*
Y408406D01*
X192785D01*
X191177Y411485D01*
D02*
G37*
G36*
X80050Y301476D02*
X78871D01*
X78774Y301448D01*
X78705Y301434D01*
X78635Y301406D01*
X78594Y301378D01*
X78566Y301365D01*
X78538Y301337D01*
X78497Y301281D01*
X78455Y301212D01*
X78413Y301073D01*
X78400Y301004D01*
Y300949D01*
Y300907D01*
Y300893D01*
Y300047D01*
Y299936D01*
X78427Y299853D01*
X78441Y299770D01*
X78469Y299714D01*
X78497Y299659D01*
X78510Y299631D01*
X78538Y299603D01*
X78594Y299562D01*
X78663Y299534D01*
X78802Y299492D01*
X78871D01*
X78927Y299478D01*
X80036D01*
X80105Y299492D01*
X80133Y299534D01*
X80147Y299562D01*
Y299576D01*
Y301365D01*
X80133Y301434D01*
X80091Y301462D01*
X80050Y301476D01*
D02*
G37*
G36*
X101894Y366246D02*
X100715D01*
X100618Y366218D01*
X100549Y366204D01*
X100479Y366176D01*
X100438Y366148D01*
X100410Y366135D01*
X100382Y366107D01*
X100341Y366051D01*
X100299Y365982D01*
X100257Y365843D01*
X100244Y365774D01*
Y365719D01*
Y365677D01*
Y365663D01*
Y364817D01*
Y364706D01*
X100271Y364623D01*
X100285Y364540D01*
X100313Y364484D01*
X100341Y364429D01*
X100354Y364401D01*
X100382Y364373D01*
X100438Y364332D01*
X100507Y364304D01*
X100646Y364262D01*
X100715D01*
X100771Y364249D01*
X101880D01*
X101949Y364262D01*
X101977Y364304D01*
X101991Y364332D01*
Y364346D01*
Y366135D01*
X101977Y366204D01*
X101936Y366232D01*
X101894Y366246D01*
D02*
G37*
G36*
X84622Y341354D02*
X83443D01*
X83346Y341326D01*
X83277Y341312D01*
X83207Y341284D01*
X83166Y341256D01*
X83138Y341243D01*
X83110Y341215D01*
X83069Y341159D01*
X83027Y341090D01*
X82985Y340951D01*
X82971Y340882D01*
Y340827D01*
Y340785D01*
Y340771D01*
Y339925D01*
Y339814D01*
X82999Y339731D01*
X83013Y339648D01*
X83041Y339592D01*
X83069Y339537D01*
X83083Y339509D01*
X83110Y339481D01*
X83166Y339440D01*
X83235Y339412D01*
X83374Y339370D01*
X83443D01*
X83498Y339356D01*
X84608D01*
X84677Y339370D01*
X84705Y339412D01*
X84719Y339440D01*
Y339454D01*
Y341243D01*
X84705Y341312D01*
X84663Y341340D01*
X84622Y341354D01*
D02*
G37*
G36*
X20360Y461496D02*
X19181D01*
X19084Y461468D01*
X19015Y461454D01*
X18945Y461426D01*
X18904Y461399D01*
X18876Y461385D01*
X18848Y461357D01*
X18807Y461301D01*
X18765Y461232D01*
X18723Y461093D01*
X18709Y461024D01*
Y460969D01*
Y460927D01*
Y460913D01*
Y460067D01*
Y459956D01*
X18737Y459873D01*
X18751Y459790D01*
X18779Y459734D01*
X18807Y459679D01*
X18821Y459651D01*
X18848Y459623D01*
X18904Y459582D01*
X18973Y459554D01*
X19112Y459512D01*
X19181D01*
X19237Y459498D01*
X20346D01*
X20415Y459512D01*
X20443Y459554D01*
X20457Y459582D01*
Y459596D01*
Y461385D01*
X20443Y461454D01*
X20401Y461482D01*
X20360Y461496D01*
D02*
G37*
G36*
X11470D02*
X10666D01*
X10569Y461468D01*
X10499Y461454D01*
X10430Y461426D01*
X10388Y461399D01*
X10361Y461385D01*
X10333Y461357D01*
X10291Y461301D01*
X10250Y461232D01*
X10208Y461093D01*
X10194Y461024D01*
Y460969D01*
Y460927D01*
Y460913D01*
Y457862D01*
Y457751D01*
X10222Y457654D01*
X10236Y457571D01*
X10264Y457515D01*
X10291Y457460D01*
X10305Y457432D01*
X10333Y457418D01*
Y457404D01*
X10388Y457363D01*
X10458Y457335D01*
X10596Y457294D01*
X10666D01*
X10721Y457280D01*
X11470D01*
X11567Y457294D01*
X11651Y457321D01*
X11706Y457349D01*
X11761Y457363D01*
X11789Y457391D01*
X11803Y457404D01*
X11817D01*
X11859Y457460D01*
X11886Y457529D01*
X11928Y457682D01*
Y457751D01*
X11942Y457807D01*
Y457848D01*
Y457862D01*
Y460913D01*
Y461024D01*
X11928Y461121D01*
X11900Y461190D01*
X11872Y461260D01*
X11859Y461301D01*
X11831Y461329D01*
X11817Y461357D01*
X11761Y461399D01*
X11692Y461440D01*
X11540Y461482D01*
X11470Y461496D01*
D02*
G37*
G36*
X67096Y371326D02*
X65917D01*
X65820Y371298D01*
X65751Y371284D01*
X65681Y371256D01*
X65640Y371228D01*
X65612Y371215D01*
X65584Y371187D01*
X65543Y371131D01*
X65501Y371062D01*
X65459Y370923D01*
X65445Y370854D01*
Y370799D01*
Y370757D01*
Y370743D01*
Y369897D01*
Y369786D01*
X65473Y369703D01*
X65487Y369620D01*
X65515Y369564D01*
X65543Y369509D01*
X65557Y369481D01*
X65584Y369453D01*
X65640Y369412D01*
X65709Y369384D01*
X65848Y369342D01*
X65917D01*
X65972Y369328D01*
X67082D01*
X67151Y369342D01*
X67179Y369384D01*
X67193Y369412D01*
Y369426D01*
Y371215D01*
X67179Y371284D01*
X67137Y371312D01*
X67096Y371326D01*
D02*
G37*
G36*
X61646D02*
X60855D01*
X60758Y371298D01*
X60675Y371284D01*
X60619Y371256D01*
X60564Y371228D01*
X60536Y371215D01*
X60508Y371187D01*
X60467Y371131D01*
X60425Y371062D01*
X60384Y370923D01*
X60370Y370854D01*
Y370799D01*
Y370757D01*
Y370743D01*
Y369398D01*
X61646D01*
X61743Y369412D01*
X61812Y369440D01*
X61881Y369467D01*
X61923Y369481D01*
X61951Y369509D01*
X61978Y369523D01*
X62020Y369578D01*
X62048Y369647D01*
X62089Y369800D01*
Y369869D01*
X62103Y369911D01*
Y369953D01*
Y369967D01*
Y370743D01*
Y370854D01*
X62089Y370951D01*
X62062Y371021D01*
X62034Y371090D01*
X62020Y371131D01*
X61992Y371159D01*
X61978Y371187D01*
X61923Y371228D01*
X61854Y371270D01*
X61715Y371312D01*
X61646Y371326D01*
D02*
G37*
G36*
X404662Y421364D02*
X403483D01*
X403386Y421336D01*
X403317Y421322D01*
X403247Y421294D01*
X403206Y421267D01*
X403178Y421253D01*
X403150Y421225D01*
X403109Y421169D01*
X403067Y421100D01*
X403025Y420961D01*
X403012Y420892D01*
Y420837D01*
Y420795D01*
Y420781D01*
Y419935D01*
Y419824D01*
X403039Y419741D01*
X403053Y419658D01*
X403081Y419602D01*
X403109Y419547D01*
X403122Y419519D01*
X403150Y419491D01*
X403206Y419450D01*
X403275Y419422D01*
X403414Y419380D01*
X403483D01*
X403539Y419366D01*
X404648D01*
X404717Y419380D01*
X404745Y419422D01*
X404759Y419450D01*
Y419464D01*
Y421253D01*
X404745Y421322D01*
X404703Y421350D01*
X404662Y421364D01*
D02*
G37*
G36*
X399128Y421377D02*
X398227D01*
X398130Y421350D01*
X398060Y421336D01*
X397991Y421308D01*
X397950Y421280D01*
X397922Y421267D01*
X397894Y421239D01*
X397853Y421183D01*
X397811Y421114D01*
X397769Y420975D01*
X397755Y420906D01*
Y420864D01*
Y420823D01*
Y420809D01*
Y420393D01*
Y420282D01*
X397783Y420185D01*
X397797Y420102D01*
X397825Y420032D01*
X397853Y419991D01*
X397866Y419949D01*
X397894Y419935D01*
Y419921D01*
X397950Y419866D01*
X398019Y419838D01*
X398158Y419783D01*
X398227D01*
X398282Y419769D01*
X399017D01*
X399128Y419783D01*
X399226Y419796D01*
X399309Y419824D01*
X399364Y419852D01*
X399420Y419880D01*
X399447Y419893D01*
X399461Y419921D01*
X399475D01*
X399517Y419991D01*
X399544Y420060D01*
X399586Y420213D01*
Y420282D01*
X399600Y420337D01*
Y420379D01*
Y420393D01*
Y420809D01*
Y420920D01*
X399586Y421003D01*
X399558Y421086D01*
X399531Y421142D01*
X399517Y421183D01*
X399489Y421211D01*
X399475Y421239D01*
X399420Y421280D01*
X399350Y421322D01*
X399198Y421364D01*
X399128Y421377D01*
D02*
G37*
G36*
X399073Y418784D02*
X398227D01*
X398130Y418756D01*
X398060Y418742D01*
X397991Y418715D01*
X397950Y418687D01*
X397922Y418659D01*
X397894Y418645D01*
Y418632D01*
X397853Y418562D01*
X397811Y418493D01*
X397769Y418340D01*
X397755Y418271D01*
Y418215D01*
Y418174D01*
Y418160D01*
Y417702D01*
Y417591D01*
X397783Y417508D01*
X397797Y417425D01*
X397825Y417369D01*
X397853Y417314D01*
X397866Y417286D01*
X397894Y417259D01*
X397950Y417217D01*
X398019Y417189D01*
X398158Y417148D01*
X398227D01*
X398282Y417134D01*
X399128D01*
X399226Y417148D01*
X399309Y417175D01*
X399364Y417203D01*
X399420Y417217D01*
X399447Y417245D01*
X399461Y417259D01*
X399475D01*
X399517Y417314D01*
X399544Y417383D01*
X399586Y417536D01*
Y417605D01*
X399600Y417647D01*
Y417688D01*
Y417702D01*
Y418160D01*
Y418271D01*
X399586Y418368D01*
X399558Y418451D01*
X399531Y418521D01*
X399517Y418562D01*
X399489Y418604D01*
X399475Y418632D01*
X399420Y418687D01*
X399350Y418715D01*
X399198Y418770D01*
X399128D01*
X399073Y418784D01*
D02*
G37*
G36*
X444794Y301476D02*
X443615D01*
X443518Y301448D01*
X443449Y301434D01*
X443379Y301406D01*
X443338Y301378D01*
X443310Y301365D01*
X443282Y301337D01*
X443241Y301281D01*
X443199Y301212D01*
X443157Y301073D01*
X443144Y301004D01*
Y300949D01*
Y300907D01*
Y300893D01*
Y300047D01*
Y299936D01*
X443171Y299853D01*
X443185Y299770D01*
X443213Y299714D01*
X443241Y299659D01*
X443255Y299631D01*
X443282Y299603D01*
X443338Y299562D01*
X443407Y299534D01*
X443546Y299492D01*
X443615D01*
X443671Y299478D01*
X444780D01*
X444849Y299492D01*
X444877Y299534D01*
X444891Y299562D01*
Y299576D01*
Y301365D01*
X444877Y301434D01*
X444836Y301462D01*
X444794Y301476D01*
D02*
G37*
G36*
X177078Y131296D02*
X175899D01*
X175802Y131268D01*
X175733Y131254D01*
X175663Y131226D01*
X175622Y131199D01*
X175594Y131185D01*
X175566Y131157D01*
X175525Y131101D01*
X175483Y131032D01*
X175441Y130893D01*
X175427Y130824D01*
Y130769D01*
Y130727D01*
Y130713D01*
Y129867D01*
Y129756D01*
X175455Y129673D01*
X175469Y129590D01*
X175497Y129534D01*
X175525Y129479D01*
X175539Y129451D01*
X175566Y129423D01*
X175622Y129382D01*
X175691Y129354D01*
X175830Y129312D01*
X175899D01*
X175954Y129298D01*
X177064D01*
X177133Y129312D01*
X177161Y129354D01*
X177175Y129382D01*
Y129396D01*
Y131185D01*
X177161Y131254D01*
X177120Y131282D01*
X177078Y131296D01*
D02*
G37*
G36*
X172016Y128938D02*
X170754D01*
X170657Y128910D01*
X170574Y128896D01*
X170518Y128869D01*
X170463Y128841D01*
X170435Y128827D01*
X170407Y128799D01*
X170366Y128744D01*
X170324Y128674D01*
X170282Y128536D01*
X170268Y128466D01*
Y128411D01*
Y128369D01*
Y128356D01*
Y127662D01*
Y127551D01*
X170296Y127454D01*
X170310Y127371D01*
X170338Y127315D01*
X170366Y127260D01*
X170379Y127232D01*
X170407Y127218D01*
Y127204D01*
X170463Y127163D01*
X170532Y127135D01*
X170685Y127093D01*
X170754D01*
X170809Y127080D01*
X171544D01*
X171642Y127093D01*
X171725Y127121D01*
X171780Y127149D01*
X171836Y127163D01*
X171863Y127191D01*
X171877Y127204D01*
X171891D01*
X171933Y127260D01*
X171960Y127329D01*
X172002Y127482D01*
Y127551D01*
X172016Y127607D01*
Y127648D01*
Y127662D01*
Y128938D01*
D02*
G37*
G36*
X196890Y231372D02*
X195711D01*
X195614Y231344D01*
X195545Y231330D01*
X195475Y231302D01*
X195434Y231275D01*
X195406Y231261D01*
X195378Y231233D01*
X195337Y231177D01*
X195295Y231108D01*
X195253Y230969D01*
X195240Y230900D01*
Y230845D01*
Y230803D01*
Y230789D01*
Y229943D01*
Y229832D01*
X195267Y229749D01*
X195281Y229666D01*
X195309Y229610D01*
X195337Y229555D01*
X195350Y229527D01*
X195378Y229499D01*
X195434Y229458D01*
X195503Y229430D01*
X195642Y229388D01*
X195711D01*
X195767Y229375D01*
X196876D01*
X196945Y229388D01*
X196973Y229430D01*
X196987Y229458D01*
Y229472D01*
Y231261D01*
X196973Y231330D01*
X196931Y231358D01*
X196890Y231372D01*
D02*
G37*
G36*
X177586Y171428D02*
X176407D01*
X176310Y171400D01*
X176241Y171386D01*
X176171Y171358D01*
X176130Y171331D01*
X176102Y171317D01*
X176074Y171289D01*
X176033Y171233D01*
X175991Y171164D01*
X175949Y171025D01*
X175935Y170956D01*
Y170901D01*
Y170859D01*
Y170845D01*
Y169999D01*
Y169888D01*
X175963Y169805D01*
X175977Y169722D01*
X176005Y169666D01*
X176033Y169611D01*
X176047Y169583D01*
X176074Y169555D01*
X176130Y169514D01*
X176199Y169486D01*
X176338Y169444D01*
X176407D01*
X176462Y169431D01*
X177572D01*
X177641Y169444D01*
X177669Y169486D01*
X177683Y169514D01*
Y169528D01*
Y171317D01*
X177669Y171386D01*
X177628Y171414D01*
X177586Y171428D01*
D02*
G37*
G36*
X171137Y171455D02*
Y168377D01*
X172746D01*
X171137Y171455D01*
D02*
G37*
G36*
X166918Y201400D02*
X165739D01*
X165642Y201372D01*
X165573Y201358D01*
X165503Y201330D01*
X165462Y201303D01*
X165434Y201289D01*
X165406Y201261D01*
X165365Y201205D01*
X165323Y201136D01*
X165281Y200997D01*
X165268Y200928D01*
Y200873D01*
Y200831D01*
Y200817D01*
Y199971D01*
Y199860D01*
X165295Y199777D01*
X165309Y199694D01*
X165337Y199638D01*
X165365Y199583D01*
X165378Y199555D01*
X165406Y199527D01*
X165462Y199486D01*
X165531Y199458D01*
X165670Y199416D01*
X165739D01*
X165795Y199403D01*
X166904D01*
X166973Y199416D01*
X167001Y199458D01*
X167015Y199486D01*
Y199500D01*
Y201289D01*
X167001Y201358D01*
X166959Y201386D01*
X166918Y201400D01*
D02*
G37*
G36*
X376722Y101324D02*
X375543D01*
X375446Y101296D01*
X375377Y101282D01*
X375307Y101254D01*
X375266Y101227D01*
X375238Y101213D01*
X375210Y101185D01*
X375169Y101129D01*
X375127Y101060D01*
X375085Y100921D01*
X375071Y100852D01*
Y100797D01*
Y100755D01*
Y100741D01*
Y99895D01*
Y99784D01*
X375099Y99701D01*
X375113Y99618D01*
X375141Y99562D01*
X375169Y99507D01*
X375182Y99479D01*
X375210Y99451D01*
X375266Y99410D01*
X375335Y99382D01*
X375474Y99340D01*
X375543D01*
X375598Y99326D01*
X376708D01*
X376777Y99340D01*
X376805Y99382D01*
X376819Y99410D01*
Y99424D01*
Y101213D01*
X376805Y101282D01*
X376763Y101310D01*
X376722Y101324D01*
D02*
G37*
G36*
X285028Y211306D02*
X283849D01*
X283752Y211278D01*
X283683Y211264D01*
X283613Y211236D01*
X283572Y211208D01*
X283544Y211195D01*
X283516Y211167D01*
X283475Y211111D01*
X283433Y211042D01*
X283391Y210903D01*
X283377Y210834D01*
Y210779D01*
Y210737D01*
Y210723D01*
Y209877D01*
Y209766D01*
X283405Y209683D01*
X283419Y209600D01*
X283447Y209544D01*
X283475Y209489D01*
X283489Y209461D01*
X283516Y209433D01*
X283572Y209392D01*
X283641Y209364D01*
X283780Y209322D01*
X283849D01*
X283904Y209308D01*
X285014D01*
X285083Y209322D01*
X285111Y209364D01*
X285125Y209392D01*
Y209406D01*
Y211195D01*
X285111Y211264D01*
X285070Y211292D01*
X285028Y211306D01*
D02*
G37*
%LPD*%
M02*
